<?xml version="1.0" encoding="utf-8" standalone="no"?>
<!DOCTYPE svg PUBLIC "-//W3C//DTD SVG 1.1//EN"
  "http://www.w3.org/Graphics/SVG/1.1/DTD/svg11.dtd">
<svg xmlns:xlink="http://www.w3.org/1999/xlink" width="460.8pt" height="345.6pt" viewBox="0 0 460.8 345.6" xmlns="http://www.w3.org/2000/svg" version="1.1">
 <metadata>
  <rdf:RDF xmlns:dc="http://purl.org/dc/elements/1.1/" xmlns:cc="http://creativecommons.org/ns#" xmlns:rdf="http://www.w3.org/1999/02/22-rdf-syntax-ns#">
   <cc:Work>
    <dc:type rdf:resource="http://purl.org/dc/dcmitype/StillImage"/>
    <dc:date>2023-02-18T16:05:56.366330</dc:date>
    <dc:format>image/svg+xml</dc:format>
    <dc:creator>
     <cc:Agent>
      <dc:title>Matplotlib v3.5.1, https://matplotlib.org/</dc:title>
     </cc:Agent>
    </dc:creator>
   </cc:Work>
  </rdf:RDF>
 </metadata>
 <defs>
  <style type="text/css">*{stroke-linejoin: round; stroke-linecap: butt}</style>
 </defs>
 <g id="figure_1">
  <g id="patch_1">
   <path d="M 0 345.6 
L 460.8 345.6 
L 460.8 0 
L 0 0 
z
" style="fill: #2b2b2b"/>
  </g>
  <g id="axes_1">
   <g id="patch_2">
    <path d="M 122.290937 307.584 
L 350.029063 307.584 
L 350.029063 41.472 
L 122.290937 41.472 
z
" style="fill: #2b2b2b"/>
   </g>
   <g id="line2d_1">
    <path d="M 132.64267 196.421915 
L 132.64267 260.60266 
" clip-path="url(#pfae7c046bf)" style="fill: none; stroke: #ffffff; stroke-width: 5.25868; stroke-linecap: round"/>
   </g>
   <g id="line2d_2">
    <path d="M 339.67733 196.421915 
L 339.67733 260.60266 
" clip-path="url(#pfae7c046bf)" style="fill: none; stroke: #ffffff; stroke-width: 5.25868; stroke-linecap: round"/>
   </g>
   <g id="line2d_3">
    <path d="M 132.64267 260.60266 
L 339.67733 260.60266 
" clip-path="url(#pfae7c046bf)" style="fill: none; stroke: #ffffff; stroke-width: 5.25868; stroke-linecap: round"/>
   </g>
   <g id="line2d_4">
    <path d="M 132.64267 53.568 
L 339.67733 53.568 
" clip-path="url(#pfae7c046bf)" style="fill: none; stroke: #c90d15; stroke-width: 5.25868; stroke-linecap: round"/>
   </g>
   <g id="line2d_5">
    <path d="M 339.67733 53.568 
L 339.67733 258.532313 
" clip-path="url(#pfae7c046bf)" style="fill: none; stroke: #c90d15; stroke-width: 5.25868; stroke-linecap: round"/>
   </g>
   <g id="line2d_6">
    <path d="M 339.67733 258.532313 
L 132.64267 258.532313 
" clip-path="url(#pfae7c046bf)" style="fill: none; stroke: #c90d15; stroke-width: 5.25868; stroke-linecap: round"/>
   </g>
   <g id="line2d_7">
    <path d="M 132.64267 258.532313 
L 132.64267 53.568 
" clip-path="url(#pfae7c046bf)" style="fill: none; stroke: #c90d15; stroke-width: 5.25868; stroke-linecap: round"/>
   </g>
   <g id="patch_3">
    <path d="M 196.719897 150.87429 
C 196.774804 150.87429 196.827468 150.852476 196.866293 150.813651 
C 196.905117 150.774826 196.926932 150.722162 196.926932 150.667255 
C 196.926932 150.612349 196.905117 150.559684 196.866293 150.52086 
C 196.827468 150.482035 196.774804 150.460221 196.719897 150.460221 
C 196.664991 150.460221 196.612326 150.482035 196.573502 150.52086 
C 196.534677 150.559684 196.512863 150.612349 196.512863 150.667255 
C 196.512863 150.722162 196.534677 150.774826 196.573502 150.813651 
C 196.612326 150.852476 196.664991 150.87429 196.719897 150.87429 
L 196.719897 150.87429 
z
" clip-path="url(#pfae7c046bf)" style="fill: none; stroke: #808080; stroke-width: 2.070347; stroke-linejoin: miter"/>
   </g>
   <g id="line2d_8">
    <path d="M 196.549982 137.467559 
L 206.091842 141.46482 
L 206.091842 141.46482 
L 196.549535 145.462298 
L 196.549535 145.462298 
" clip-path="url(#pfae7c046bf)" style="fill: none; stroke: #808080; stroke-width: 0.404918; stroke-linecap: round"/>
   </g>
   <g id="line2d_9">
    <path d="M 207.657151 134.371788 
L 212.428892 148.558053 
L 212.428892 148.558053 
L 217.071127 134.371423 
L 217.071127 134.371423 
" clip-path="url(#pfae7c046bf)" style="fill: none; stroke: #808080; stroke-width: 0.404918; stroke-linecap: round"/>
   </g>
   <g id="line2d_10">
    <path d="M 218.700238 148.299423 
L 223.471979 134.113158 
L 223.471979 134.113158 
L 228.114214 148.299788 
L 228.114214 148.299788 
" clip-path="url(#pfae7c046bf)" style="fill: none; stroke: #808080; stroke-width: 0.404918; stroke-linecap: round"/>
   </g>
   <g id="line2d_11">
    <path d="M 226.954684 144.818091 
L 219.861797 144.818091 
" clip-path="url(#pfae7c046bf)" style="fill: none; stroke: #808080; stroke-width: 0.404918; stroke-linecap: round"/>
   </g>
   <g id="line2d_12">
    <path d="M 231.290971 134.371863 
L 231.290971 148.557636 
L 237.610088 148.557636 
" clip-path="url(#pfae7c046bf)" style="fill: none; stroke: #808080; stroke-width: 0.404918; stroke-linecap: round"/>
   </g>
   <g id="line2d_13">
    <path d="M 241.560703 134.372462 
L 241.560703 144.560427 
L 241.560703 144.560427 
L 241.818626 145.850043 
L 241.818626 145.850043 
L 242.334472 146.881736 
L 243.237203 147.784467 
L 244.268896 148.429274 
L 245.558512 148.558236 
L 246.719166 148.429274 
L 247.87982 147.784467 
L 248.782551 146.881736 
L 249.298397 145.850043 
L 249.427359 144.560427 
L 249.427359 134.372462 
" clip-path="url(#pfae7c046bf)" style="fill: none; stroke: #808080; stroke-width: 0.404918; stroke-linecap: round"/>
   </g>
   <g id="line2d_14">
    <path d="M 259.696817 148.557705 
L 253.3777 148.557705 
L 253.3777 134.371931 
L 259.696817 134.371931 
" clip-path="url(#pfae7c046bf)" style="fill: none; stroke: #808080; stroke-width: 0.404918; stroke-linecap: round"/>
   </g>
   <g id="line2d_15">
    <path d="M 253.377956 140.691383 
L 258.149534 140.691383 
" clip-path="url(#pfae7c046bf)" style="fill: none; stroke: #808080; stroke-width: 0.404918; stroke-linecap: round"/>
   </g>
   <g id="patch_4">
    <path d="M 196.719897 295.488 
C 196.774804 295.488 196.827468 295.466186 196.866293 295.427361 
C 196.905117 295.388536 196.926932 295.335872 196.926932 295.280965 
C 196.926932 295.226059 196.905117 295.173394 196.866293 295.13457 
C 196.827468 295.095745 196.774804 295.073931 196.719897 295.073931 
C 196.664991 295.073931 196.612326 295.095745 196.573502 295.13457 
C 196.534677 295.173394 196.512863 295.226059 196.512863 295.280965 
C 196.512863 295.335872 196.534677 295.388536 196.573502 295.427361 
C 196.612326 295.466186 196.664991 295.488 196.719897 295.488 
L 196.719897 295.488 
z
" clip-path="url(#pfae7c046bf)" style="fill: none; stroke: #808080; stroke-width: 2.070347; stroke-linejoin: miter"/>
   </g>
   <g id="line2d_16">
    <path d="M 196.549982 282.081269 
L 206.091842 286.07853 
L 206.091842 286.07853 
L 196.549535 290.076008 
L 196.549535 290.076008 
" clip-path="url(#pfae7c046bf)" style="fill: none; stroke: #808080; stroke-width: 0.404918; stroke-linecap: round"/>
   </g>
   <g id="line2d_17">
    <path d="M 208.431836 293.170916 
L 208.431836 278.985142 
L 216.298493 293.170916 
L 216.298493 278.985142 
" clip-path="url(#pfae7c046bf)" style="fill: none; stroke: #808080; stroke-width: 0.404918; stroke-linecap: round"/>
   </g>
   <g id="line2d_18">
    <path d="M 218.700238 292.913133 
L 223.471979 278.726867 
L 223.471979 278.726867 
L 228.114214 292.913498 
L 228.114214 292.913498 
" clip-path="url(#pfae7c046bf)" style="fill: none; stroke: #808080; stroke-width: 0.404918; stroke-linecap: round"/>
   </g>
   <g id="line2d_19">
    <path d="M 226.954684 289.431801 
L 219.861797 289.431801 
" clip-path="url(#pfae7c046bf)" style="fill: none; stroke: #808080; stroke-width: 0.404918; stroke-linecap: round"/>
   </g>
   <g id="line2d_20">
    <path d="M 229.744398 293.171335 
L 229.744398 278.985561 
L 234.387015 286.852217 
L 234.387015 286.852217 
L 239.158594 278.985561 
L 239.158594 278.985561 
L 239.158594 293.171335 
" clip-path="url(#pfae7c046bf)" style="fill: none; stroke: #808080; stroke-width: 0.404918; stroke-linecap: round"/>
   </g>
   <g id="line2d_21">
    <path d="M 248.653588 293.171414 
L 242.334471 293.171414 
L 242.334471 278.985641 
L 248.653588 278.985641 
" clip-path="url(#pfae7c046bf)" style="fill: none; stroke: #808080; stroke-width: 0.404918; stroke-linecap: round"/>
   </g>
   <g id="line2d_22">
    <path d="M 242.334727 285.305093 
L 247.106305 285.305093 
" clip-path="url(#pfae7c046bf)" style="fill: none; stroke: #808080; stroke-width: 0.404918; stroke-linecap: round"/>
   </g>
   <g id="line2d_23">
    <path d="M 132.64267 55.638347 
L 132.64267 196.421915 
" clip-path="url(#pfae7c046bf)" style="fill: none; stroke: #808080; stroke-width: 5.25868; stroke-linecap: round"/>
   </g>
   <g id="line2d_24">
    <path d="M 339.67733 196.421915 
L 339.67733 55.638347 
" clip-path="url(#pfae7c046bf)" style="fill: none; stroke: #808080; stroke-width: 5.25868; stroke-linecap: round"/>
   </g>
   <g id="line2d_25">
    <path d="M 132.64267 196.421915 
L 339.67733 196.421915 
" clip-path="url(#pfae7c046bf)" style="fill: none; stroke: #808080; stroke-width: 5.25868; stroke-linecap: round"/>
   </g>
   <g id="line2d_26">
    <path d="M 132.64267 55.638347 
L 178.190295 55.638347 
" clip-path="url(#pfae7c046bf)" style="fill: none; stroke: #808080; stroke-width: 5.25868; stroke-linecap: round"/>
   </g>
   <g id="line2d_27">
    <path d="M 178.190295 55.638347 
L 178.190295 76.341813 
" clip-path="url(#pfae7c046bf)" style="fill: none; stroke: #808080; stroke-width: 5.25868; stroke-linecap: round"/>
   </g>
   <g id="line2d_28">
    <path d="M 178.190295 76.341813 
L 294.129705 76.341813 
" clip-path="url(#pfae7c046bf)" style="fill: none; stroke: #808080; stroke-width: 5.25868; stroke-linecap: round"/>
   </g>
   <g id="line2d_29">
    <path d="M 294.129705 76.341813 
L 294.129705 55.638347 
" clip-path="url(#pfae7c046bf)" style="fill: none; stroke: #808080; stroke-width: 5.25868; stroke-linecap: round"/>
   </g>
   <g id="line2d_30">
    <path d="M 294.129705 55.638347 
L 339.67733 55.638347 
" clip-path="url(#pfae7c046bf)" style="fill: none; stroke: #808080; stroke-width: 5.25868; stroke-linecap: round"/>
   </g>
   <g id="patch_5">
    <path d="M 174.049602 242.694162 
C 177.536148 242.694162 180.880363 241.308942 183.345723 238.843582 
C 185.811084 236.378222 187.196303 233.034007 187.196303 229.547461 
C 187.196303 226.060915 185.811084 222.7167 183.345723 220.251339 
C 180.880363 217.785979 177.536148 216.40076 174.049602 216.40076 
C 170.563056 216.40076 167.218841 217.785979 164.753481 220.251339 
C 162.28812 222.7167 160.902901 226.060915 160.902901 229.547461 
C 160.902901 233.034007 162.28812 236.378222 164.753481 238.843582 
C 167.218841 241.308942 170.563056 242.694162 174.049602 242.694162 
z
" clip-path="url(#pfae7c046bf)" style="fill: #0dab76"/>
   </g>
   <g id="patch_6">
    <path d="M 174.049602 237.828847 
C 176.245851 237.828847 178.352444 236.956268 179.905427 235.403285 
C 181.458409 233.850303 182.330988 231.74371 182.330988 229.547461 
C 182.330988 227.351212 181.458409 225.244619 179.905427 223.691636 
C 178.352444 222.138654 176.245851 221.266074 174.049602 221.266074 
C 171.853353 221.266074 169.74676 222.138654 168.193778 223.691636 
C 166.640795 225.244619 165.768216 227.351212 165.768216 229.547461 
C 165.768216 231.74371 166.640795 233.850303 168.193778 235.403285 
C 169.74676 236.956268 171.853353 237.828847 174.049602 237.828847 
z
" clip-path="url(#pfae7c046bf)" style="fill: #a0a0a0"/>
   </g>
   <g id="patch_7">
    <path d="M 215.456534 242.694162 
C 218.94308 242.694162 222.287295 241.308942 224.752655 238.843582 
C 227.218016 236.378222 228.603235 233.034007 228.603235 229.547461 
C 228.603235 226.060915 227.218016 222.7167 224.752655 220.251339 
C 222.287295 217.785979 218.94308 216.40076 215.456534 216.40076 
C 211.969988 216.40076 208.625773 217.785979 206.160413 220.251339 
C 203.695052 222.7167 202.309833 226.060915 202.309833 229.547461 
C 202.309833 233.034007 203.695052 236.378222 206.160413 238.843582 
C 208.625773 241.308942 211.969988 242.694162 215.456534 242.694162 
z
" clip-path="url(#pfae7c046bf)" style="fill: #0dab76"/>
   </g>
   <g id="patch_8">
    <path d="M 215.456534 237.828847 
C 217.652783 237.828847 219.759376 236.956268 221.312358 235.403285 
C 222.865341 233.850303 223.73792 231.74371 223.73792 229.547461 
C 223.73792 227.351212 222.865341 225.244619 221.312358 223.691636 
C 219.759376 222.138654 217.652783 221.266074 215.456534 221.266074 
C 213.260285 221.266074 211.153692 222.138654 209.60071 223.691636 
C 208.047727 225.244619 207.175148 227.351212 207.175148 229.547461 
C 207.175148 231.74371 208.047727 233.850303 209.60071 235.403285 
C 211.153692 236.956268 213.260285 237.828847 215.456534 237.828847 
z
" clip-path="url(#pfae7c046bf)" style="fill: #a0a0a0"/>
   </g>
   <g id="patch_9">
    <path d="M 256.863466 242.694162 
C 260.350012 242.694162 263.694227 241.308942 266.159587 238.843582 
C 268.624948 236.378222 270.010167 233.034007 270.010167 229.547461 
C 270.010167 226.060915 268.624948 222.7167 266.159587 220.251339 
C 263.694227 217.785979 260.350012 216.40076 256.863466 216.40076 
C 253.37692 216.40076 250.032705 217.785979 247.567345 220.251339 
C 245.101984 222.7167 243.716765 226.060915 243.716765 229.547461 
C 243.716765 233.034007 245.101984 236.378222 247.567345 238.843582 
C 250.032705 241.308942 253.37692 242.694162 256.863466 242.694162 
z
" clip-path="url(#pfae7c046bf)" style="fill: #0dab76"/>
   </g>
   <g id="patch_10">
    <path d="M 256.863466 237.828847 
C 259.059715 237.828847 261.166308 236.956268 262.71929 235.403285 
C 264.272273 233.850303 265.144852 231.74371 265.144852 229.547461 
C 265.144852 227.351212 264.272273 225.244619 262.71929 223.691636 
C 261.166308 222.138654 259.059715 221.266074 256.863466 221.266074 
C 254.667217 221.266074 252.560624 222.138654 251.007642 223.691636 
C 249.454659 225.244619 248.58208 227.351212 248.58208 229.547461 
C 248.58208 231.74371 249.454659 233.850303 251.007642 235.403285 
C 252.560624 236.956268 254.667217 237.828847 256.863466 237.828847 
z
" clip-path="url(#pfae7c046bf)" style="fill: #a0a0a0"/>
   </g>
   <g id="patch_11">
    <path d="M 298.270398 242.694162 
C 301.756944 242.694162 305.101159 241.308942 307.566519 238.843582 
C 310.03188 236.378222 311.417099 233.034007 311.417099 229.547461 
C 311.417099 226.060915 310.03188 222.7167 307.566519 220.251339 
C 305.101159 217.785979 301.756944 216.40076 298.270398 216.40076 
C 294.783852 216.40076 291.439637 217.785979 288.974277 220.251339 
C 286.508916 222.7167 285.123697 226.060915 285.123697 229.547461 
C 285.123697 233.034007 286.508916 236.378222 288.974277 238.843582 
C 291.439637 241.308942 294.783852 242.694162 298.270398 242.694162 
z
" clip-path="url(#pfae7c046bf)" style="fill: #0dab76"/>
   </g>
   <g id="patch_12">
    <path d="M 298.270398 237.828847 
C 300.466647 237.828847 302.57324 236.956268 304.126222 235.403285 
C 305.679205 233.850303 306.551784 231.74371 306.551784 229.547461 
C 306.551784 227.351212 305.679205 225.244619 304.126222 223.691636 
C 302.57324 222.138654 300.466647 221.266074 298.270398 221.266074 
C 296.074149 221.266074 293.967556 222.138654 292.414573 223.691636 
C 290.861591 225.244619 289.989012 227.351212 289.989012 229.547461 
C 289.989012 231.74371 290.861591 233.850303 292.414573 235.403285 
C 293.967556 236.956268 296.074149 237.828847 298.270398 237.828847 
z
" clip-path="url(#pfae7c046bf)" style="fill: #a0a0a0"/>
   </g>
   <g id="matplotlib.axis_1">
    <g id="xtick_1">
     <g id="line2d_31">
      <defs>
       <path id="mf2ac5dfeb7" d="M 0 0 
L 0 3.5 
" style="stroke: #ffffff; stroke-width: 0.8"/>
      </defs>
      <g>
       <use xlink:href="#mf2ac5dfeb7" x="153.346136" y="307.584" style="fill: #ffffff; stroke: #ffffff; stroke-width: 0.8"/>
      </g>
     </g>
     <g id="text_1">
      <text style="fill: #ffffff; font: 10px 'sans-serif'; text-anchor: middle" x="153.346136" y="322.182437" transform="rotate(-0, 153.346136, 322.182437)">−4</text>
     </g>
    </g>
    <g id="xtick_2">
     <g id="line2d_32">
      <g>
       <use xlink:href="#mf2ac5dfeb7" x="194.753068" y="307.584" style="fill: #ffffff; stroke: #ffffff; stroke-width: 0.8"/>
      </g>
     </g>
     <g id="text_2">
      <text style="fill: #ffffff; font: 10px 'sans-serif'; text-anchor: middle" x="194.753068" y="322.182437" transform="rotate(-0, 194.753068, 322.182437)">−2</text>
     </g>
    </g>
    <g id="xtick_3">
     <g id="line2d_33">
      <g>
       <use xlink:href="#mf2ac5dfeb7" x="236.16" y="307.584" style="fill: #ffffff; stroke: #ffffff; stroke-width: 0.8"/>
      </g>
     </g>
     <g id="text_3">
      <text style="fill: #ffffff; font: 10px 'sans-serif'; text-anchor: middle" x="236.16" y="322.182437" transform="rotate(-0, 236.16, 322.182437)">0</text>
     </g>
    </g>
    <g id="xtick_4">
     <g id="line2d_34">
      <g>
       <use xlink:href="#mf2ac5dfeb7" x="277.566932" y="307.584" style="fill: #ffffff; stroke: #ffffff; stroke-width: 0.8"/>
      </g>
     </g>
     <g id="text_4">
      <text style="fill: #ffffff; font: 10px 'sans-serif'; text-anchor: middle" x="277.566932" y="322.182437" transform="rotate(-0, 277.566932, 322.182437)">2</text>
     </g>
    </g>
    <g id="xtick_5">
     <g id="line2d_35">
      <g>
       <use xlink:href="#mf2ac5dfeb7" x="318.973864" y="307.584" style="fill: #ffffff; stroke: #ffffff; stroke-width: 0.8"/>
      </g>
     </g>
     <g id="text_5">
      <text style="fill: #ffffff; font: 10px 'sans-serif'; text-anchor: middle" x="318.973864" y="322.182437" transform="rotate(-0, 318.973864, 322.182437)">4</text>
     </g>
    </g>
   </g>
   <g id="matplotlib.axis_2">
    <g id="ytick_1">
     <g id="line2d_36">
      <defs>
       <path id="mf3044e7dc2" d="M 0 0 
L -3.5 0 
" style="stroke: #ffffff; stroke-width: 0.8"/>
      </defs>
      <g>
       <use xlink:href="#mf3044e7dc2" x="122.290937" y="270.954393" style="fill: #ffffff; stroke: #ffffff; stroke-width: 0.8"/>
      </g>
     </g>
     <g id="text_6">
      <text style="fill: #ffffff; font: 10px 'sans-serif'; text-anchor: end" x="115.290937" y="274.753612" transform="rotate(-0, 115.290937, 274.753612)">−2</text>
     </g>
    </g>
    <g id="ytick_2">
     <g id="line2d_37">
      <g>
       <use xlink:href="#mf3044e7dc2" x="122.290937" y="229.547461" style="fill: #ffffff; stroke: #ffffff; stroke-width: 0.8"/>
      </g>
     </g>
     <g id="text_7">
      <text style="fill: #ffffff; font: 10px 'sans-serif'; text-anchor: end" x="115.290937" y="233.34668" transform="rotate(-0, 115.290937, 233.34668)">0</text>
     </g>
    </g>
    <g id="ytick_3">
     <g id="line2d_38">
      <g>
       <use xlink:href="#mf3044e7dc2" x="122.290937" y="188.140529" style="fill: #ffffff; stroke: #ffffff; stroke-width: 0.8"/>
      </g>
     </g>
     <g id="text_8">
      <text style="fill: #ffffff; font: 10px 'sans-serif'; text-anchor: end" x="115.290937" y="191.939748" transform="rotate(-0, 115.290937, 191.939748)">2</text>
     </g>
    </g>
    <g id="ytick_4">
     <g id="line2d_39">
      <g>
       <use xlink:href="#mf3044e7dc2" x="122.290937" y="146.733597" style="fill: #ffffff; stroke: #ffffff; stroke-width: 0.8"/>
      </g>
     </g>
     <g id="text_9">
      <text style="fill: #ffffff; font: 10px 'sans-serif'; text-anchor: end" x="115.290937" y="150.532816" transform="rotate(-0, 115.290937, 150.532816)">4</text>
     </g>
    </g>
    <g id="ytick_5">
     <g id="line2d_40">
      <g>
       <use xlink:href="#mf3044e7dc2" x="122.290937" y="105.326665" style="fill: #ffffff; stroke: #ffffff; stroke-width: 0.8"/>
      </g>
     </g>
     <g id="text_10">
      <text style="fill: #ffffff; font: 10px 'sans-serif'; text-anchor: end" x="115.290937" y="109.125884" transform="rotate(-0, 115.290937, 109.125884)">6</text>
     </g>
    </g>
    <g id="ytick_6">
     <g id="line2d_41">
      <g>
       <use xlink:href="#mf3044e7dc2" x="122.290937" y="63.919733" style="fill: #ffffff; stroke: #ffffff; stroke-width: 0.8"/>
      </g>
     </g>
     <g id="text_11">
      <text style="fill: #ffffff; font: 10px 'sans-serif'; text-anchor: end" x="115.290937" y="67.718952" transform="rotate(-0, 115.290937, 67.718952)">8</text>
     </g>
    </g>
   </g>
   <g id="patch_13">
    <path d="M 122.290937 307.584 
L 122.290937 41.472 
" style="fill: none; stroke: #ffffff; stroke-width: 0.8; stroke-linejoin: miter; stroke-linecap: square"/>
   </g>
   <g id="patch_14">
    <path d="M 350.029063 307.584 
L 350.029063 41.472 
" style="fill: none; stroke: #ffffff; stroke-width: 0.8; stroke-linejoin: miter; stroke-linecap: square"/>
   </g>
   <g id="patch_15">
    <path d="M 122.290937 307.584 
L 350.029063 307.584 
" style="fill: none; stroke: #ffffff; stroke-width: 0.8; stroke-linejoin: miter; stroke-linecap: square"/>
   </g>
   <g id="patch_16">
    <path d="M 122.290937 41.472 
L 350.029063 41.472 
" style="fill: none; stroke: #ffffff; stroke-width: 0.8; stroke-linejoin: miter; stroke-linecap: square"/>
   </g>
   <g id="text_12">
    <text style="fill: #ffffff; font: 12px 'sans-serif'; text-anchor: middle" x="236.16" y="35.472" transform="rotate(-0, 236.16, 35.472)">HW4-2.0-90D</text>
   </g>
  </g>
 </g>
 <defs>
  <clipPath id="pfae7c046bf">
   <rect x="122.290937" y="41.472" width="227.738126" height="266.112"/>
  </clipPath>
 </defs>
</svg>
