<?xml version="1.0" encoding="utf-8" standalone="no"?>
<!DOCTYPE svg PUBLIC "-//W3C//DTD SVG 1.1//EN"
  "http://www.w3.org/Graphics/SVG/1.1/DTD/svg11.dtd">
<svg xmlns:xlink="http://www.w3.org/1999/xlink" width="460.8pt" height="345.6pt" viewBox="0 0 460.8 345.6" xmlns="http://www.w3.org/2000/svg" version="1.1">
 <metadata>
  <rdf:RDF xmlns:dc="http://purl.org/dc/elements/1.1/" xmlns:cc="http://creativecommons.org/ns#" xmlns:rdf="http://www.w3.org/1999/02/22-rdf-syntax-ns#">
   <cc:Work>
    <dc:type rdf:resource="http://purl.org/dc/dcmitype/StillImage"/>
    <dc:date>2023-02-18T16:05:58.600201</dc:date>
    <dc:format>image/svg+xml</dc:format>
    <dc:creator>
     <cc:Agent>
      <dc:title>Matplotlib v3.5.1, https://matplotlib.org/</dc:title>
     </cc:Agent>
    </dc:creator>
   </cc:Work>
  </rdf:RDF>
 </metadata>
 <defs>
  <style type="text/css">*{stroke-linejoin: round; stroke-linecap: butt}</style>
 </defs>
 <g id="figure_1">
  <g id="patch_1">
   <path d="M 0 345.6 
L 460.8 345.6 
L 460.8 0 
L 0 0 
z
" style="fill: #2b2b2b"/>
  </g>
  <g id="axes_1">
   <g id="patch_2">
    <path d="M 156.3264 307.584 
L 315.9936 307.584 
L 315.9936 41.472 
L 156.3264 41.472 
z
" style="fill: #2b2b2b"/>
   </g>
   <g id="line2d_1">
    <path d="M 224.064 162.432 
L 248.256 162.432 
" clip-path="url(#p284af46038)" style="fill: none; stroke: #ffcd07; stroke-width: 1.2096; stroke-linecap: round"/>
   </g>
   <g id="line2d_2">
    <path d="M 248.256 162.432 
L 248.256 186.624 
" clip-path="url(#p284af46038)" style="fill: none; stroke: #ffcd07; stroke-width: 1.2096; stroke-linecap: round"/>
   </g>
   <g id="line2d_3">
    <path d="M 248.256 186.624 
L 224.064 186.624 
" clip-path="url(#p284af46038)" style="fill: none; stroke: #ffcd07; stroke-width: 1.2096; stroke-linecap: round"/>
   </g>
   <g id="line2d_4">
    <path d="M 224.064 186.624 
L 224.064 162.432 
" clip-path="url(#p284af46038)" style="fill: none; stroke: #ffcd07; stroke-width: 1.2096; stroke-linecap: round"/>
   </g>
   <g id="patch_3">
    <path d="M 199.872 272.5056 
C 200.19279 272.5056 200.500484 272.378149 200.727316 272.151316 
C 200.954149 271.924484 201.0816 271.61679 201.0816 271.296 
C 201.0816 270.97521 200.954149 270.667516 200.727316 270.440684 
C 200.500484 270.213851 200.19279 270.0864 199.872 270.0864 
C 199.55121 270.0864 199.243516 270.213851 199.016684 270.440684 
C 198.789851 270.667516 198.6624 270.97521 198.6624 271.296 
C 198.6624 271.61679 198.789851 271.924484 199.016684 272.151316 
C 199.243516 272.378149 199.55121 272.5056 199.872 272.5056 
L 199.872 272.5056 
z
" clip-path="url(#p284af46038)" style="fill: none; stroke: #808080; stroke-width: 2.4192; stroke-linejoin: miter"/>
   </g>
   <g id="line2d_5">
    <path d="M 163.584 53.568 
L 308.736 53.568 
" clip-path="url(#p284af46038)" style="fill: none; stroke: #808080; stroke-width: 1.2096; stroke-linecap: round"/>
   </g>
   <g id="line2d_6">
    <path d="M 308.736 53.568 
L 308.736 295.488 
" clip-path="url(#p284af46038)" style="fill: none; stroke: #808080; stroke-width: 1.2096; stroke-linecap: round"/>
   </g>
   <g id="line2d_7">
    <path d="M 308.736 295.488 
L 163.584 295.488 
" clip-path="url(#p284af46038)" style="fill: none; stroke: #808080; stroke-width: 1.2096; stroke-linecap: round"/>
   </g>
   <g id="line2d_8">
    <path d="M 163.584 295.488 
L 163.584 53.568 
" clip-path="url(#p284af46038)" style="fill: none; stroke: #808080; stroke-width: 1.2096; stroke-linecap: round"/>
   </g>
   <g id="line2d_9">
    <path d="M 199.872 271.296 
L 224.064 271.296 
" clip-path="url(#p284af46038)" style="fill: none; stroke: #808080; stroke-width: 1.2096; stroke-linecap: round"/>
   </g>
   <g id="line2d_10">
    <path d="M 199.872 271.296 
L 199.872 247.104 
" clip-path="url(#p284af46038)" style="fill: none; stroke: #808080; stroke-width: 1.2096; stroke-linecap: round"/>
   </g>
   <g id="line2d_11">
    <path d="M 224.064 271.296 
L 218.016 265.248 
" clip-path="url(#p284af46038)" style="fill: none; stroke: #808080; stroke-width: 1.2096; stroke-linecap: round"/>
   </g>
   <g id="line2d_12">
    <path d="M 224.064 271.296 
L 218.016 277.344 
" clip-path="url(#p284af46038)" style="fill: none; stroke: #808080; stroke-width: 1.2096; stroke-linecap: round"/>
   </g>
   <g id="line2d_13">
    <path d="M 199.872 247.104 
L 205.92 253.152 
" clip-path="url(#p284af46038)" style="fill: none; stroke: #808080; stroke-width: 1.2096; stroke-linecap: round"/>
   </g>
   <g id="line2d_14">
    <path d="M 193.824 253.152 
L 199.872 247.104 
" clip-path="url(#p284af46038)" style="fill: none; stroke: #808080; stroke-width: 1.2096; stroke-linecap: round"/>
   </g>
   <g id="patch_4">
    <path d="M 236.16 271.391244 
C 236.185259 271.391244 236.209487 271.381209 236.227348 271.363348 
C 236.245209 271.345487 236.255244 271.321259 236.255244 271.296 
C 236.255244 271.270741 236.245209 271.246513 236.227348 271.228652 
C 236.209487 271.210791 236.185259 271.200756 236.16 271.200756 
C 236.134741 271.200756 236.110513 271.210791 236.092652 271.228652 
C 236.074791 271.246513 236.064756 271.270741 236.064756 271.296 
C 236.064756 271.321259 236.074791 271.345487 236.092652 271.363348 
C 236.110513 271.381209 236.134741 271.391244 236.16 271.391244 
L 236.16 271.391244 
z
" clip-path="url(#p284af46038)" style="fill: none; stroke: #808080; stroke-width: 0.952441; stroke-linejoin: miter"/>
   </g>
   <g id="line2d_15">
    <path d="M 233.023934 275.958101 
L 239.295944 266.634842 
" clip-path="url(#p284af46038)" style="fill: none; stroke: #808080; stroke-width: 0.48384; stroke-linecap: round"/>
   </g>
   <g id="line2d_16">
    <path d="M 233.023864 266.634435 
L 239.295874 275.957694 
" clip-path="url(#p284af46038)" style="fill: none; stroke: #808080; stroke-width: 0.48384; stroke-linecap: round"/>
   </g>
   <g id="patch_5">
    <path d="M 199.872 235.103244 
C 199.897259 235.103244 199.921487 235.093209 199.939348 235.075348 
C 199.957209 235.057487 199.967244 235.033259 199.967244 235.008 
C 199.967244 234.982741 199.957209 234.958513 199.939348 234.940652 
C 199.921487 234.922791 199.897259 234.912756 199.872 234.912756 
C 199.846741 234.912756 199.822513 234.922791 199.804652 234.940652 
C 199.786791 234.958513 199.776756 234.982741 199.776756 235.008 
C 199.776756 235.033259 199.786791 235.057487 199.804652 235.075348 
C 199.822513 235.093209 199.846741 235.103244 199.872 235.103244 
L 199.872 235.103244 
z
" clip-path="url(#p284af46038)" style="fill: none; stroke: #808080; stroke-width: 0.952441; stroke-linejoin: miter"/>
   </g>
   <g id="line2d_17">
    <path d="M 196.778534 230.347239 
L 199.914408 234.754415 
" clip-path="url(#p284af46038)" style="fill: none; stroke: #808080; stroke-width: 0.48384; stroke-linecap: round"/>
   </g>
   <g id="line2d_18">
    <path d="M 199.913808 239.669298 
L 199.914235 234.753601 
L 202.965088 230.346809 
" clip-path="url(#p284af46038)" style="fill: none; stroke: #808080; stroke-width: 0.48384; stroke-linecap: round"/>
   </g>
   <g id="patch_6">
    <path d="M 199.872 283.487244 
C 199.897259 283.487244 199.921487 283.477209 199.939348 283.459348 
C 199.957209 283.441487 199.967244 283.417259 199.967244 283.392 
C 199.967244 283.366741 199.957209 283.342513 199.939348 283.324652 
C 199.921487 283.306791 199.897259 283.296756 199.872 283.296756 
C 199.846741 283.296756 199.822513 283.306791 199.804652 283.324652 
C 199.786791 283.342513 199.776756 283.366741 199.776756 283.392 
C 199.776756 283.417259 199.786791 283.441487 199.804652 283.459348 
C 199.822513 283.477209 199.846741 283.487244 199.872 283.487244 
L 199.872 283.487244 
z
" clip-path="url(#p284af46038)" style="fill: none; stroke: #808080; stroke-width: 0.952441; stroke-linejoin: miter"/>
   </g>
   <g id="line2d_19">
    <path d="M 197.244961 278.730546 
L 202.499674 278.730546 
L 202.499674 278.730546 
L 197.244961 288.053424 
L 197.244961 288.053424 
L 202.499674 288.053424 
" clip-path="url(#p284af46038)" style="fill: none; stroke: #808080; stroke-width: 0.48384; stroke-linecap: round"/>
   </g>
   <g id="patch_7">
    <path d="M 175.68 75.188409 
C 178.205903 75.188409 180.628691 74.184858 182.414775 72.398775 
C 184.200858 70.612691 185.204409 68.189903 185.204409 65.664 
C 185.204409 63.138097 184.200858 60.715309 182.414775 58.929225 
C 180.628691 57.143142 178.205903 56.139591 175.68 56.139591 
C 173.154097 56.139591 170.731309 57.143142 168.945225 58.929225 
C 167.159142 60.715309 166.155591 63.138097 166.155591 65.664 
C 166.155591 68.189903 167.159142 70.612691 168.945225 72.398775 
C 170.731309 74.184858 173.154097 75.188409 175.68 75.188409 
z
" clip-path="url(#p284af46038)" style="fill: #0dab76"/>
   </g>
   <g id="patch_8">
    <path d="M 175.68 70.426205 
C 176.942951 70.426205 178.154346 69.924429 179.047387 69.031387 
C 179.940429 68.138346 180.442205 66.926951 180.442205 65.664 
C 180.442205 64.401049 179.940429 63.189654 179.047387 62.296613 
C 178.154346 61.403571 176.942951 60.901795 175.68 60.901795 
C 174.417049 60.901795 173.205654 61.403571 172.312613 62.296613 
C 171.419571 63.189654 170.917795 64.401049 170.917795 65.664 
C 170.917795 66.926951 171.419571 68.138346 172.312613 69.031387 
C 173.205654 69.924429 174.417049 70.426205 175.68 70.426205 
z
" clip-path="url(#p284af46038)" style="fill: #a0a0a0"/>
   </g>
   <g id="patch_9">
    <path d="M 175.68 99.380409 
C 178.205903 99.380409 180.628691 98.376858 182.414775 96.590775 
C 184.200858 94.804691 185.204409 92.381903 185.204409 89.856 
C 185.204409 87.330097 184.200858 84.907309 182.414775 83.121225 
C 180.628691 81.335142 178.205903 80.331591 175.68 80.331591 
C 173.154097 80.331591 170.731309 81.335142 168.945225 83.121225 
C 167.159142 84.907309 166.155591 87.330097 166.155591 89.856 
C 166.155591 92.381903 167.159142 94.804691 168.945225 96.590775 
C 170.731309 98.376858 173.154097 99.380409 175.68 99.380409 
z
" clip-path="url(#p284af46038)" style="fill: #0dab76"/>
   </g>
   <g id="patch_10">
    <path d="M 175.68 94.618205 
C 176.942951 94.618205 178.154346 94.116429 179.047387 93.223387 
C 179.940429 92.330346 180.442205 91.118951 180.442205 89.856 
C 180.442205 88.593049 179.940429 87.381654 179.047387 86.488613 
C 178.154346 85.595571 176.942951 85.093795 175.68 85.093795 
C 174.417049 85.093795 173.205654 85.595571 172.312613 86.488613 
C 171.419571 87.381654 170.917795 88.593049 170.917795 89.856 
C 170.917795 91.118951 171.419571 92.330346 172.312613 93.223387 
C 173.205654 94.116429 174.417049 94.618205 175.68 94.618205 
z
" clip-path="url(#p284af46038)" style="fill: #a0a0a0"/>
   </g>
   <g id="patch_11">
    <path d="M 175.68 123.572409 
C 178.205903 123.572409 180.628691 122.568858 182.414775 120.782775 
C 184.200858 118.996691 185.204409 116.573903 185.204409 114.048 
C 185.204409 111.522097 184.200858 109.099309 182.414775 107.313225 
C 180.628691 105.527142 178.205903 104.523591 175.68 104.523591 
C 173.154097 104.523591 170.731309 105.527142 168.945225 107.313225 
C 167.159142 109.099309 166.155591 111.522097 166.155591 114.048 
C 166.155591 116.573903 167.159142 118.996691 168.945225 120.782775 
C 170.731309 122.568858 173.154097 123.572409 175.68 123.572409 
z
" clip-path="url(#p284af46038)" style="fill: #0dab76"/>
   </g>
   <g id="patch_12">
    <path d="M 175.68 118.810205 
C 176.942951 118.810205 178.154346 118.308429 179.047387 117.415387 
C 179.940429 116.522346 180.442205 115.310951 180.442205 114.048 
C 180.442205 112.785049 179.940429 111.573654 179.047387 110.680613 
C 178.154346 109.787571 176.942951 109.285795 175.68 109.285795 
C 174.417049 109.285795 173.205654 109.787571 172.312613 110.680613 
C 171.419571 111.573654 170.917795 112.785049 170.917795 114.048 
C 170.917795 115.310951 171.419571 116.522346 172.312613 117.415387 
C 173.205654 118.308429 174.417049 118.810205 175.68 118.810205 
z
" clip-path="url(#p284af46038)" style="fill: #a0a0a0"/>
   </g>
   <g id="patch_13">
    <path d="M 175.68 147.764409 
C 178.205903 147.764409 180.628691 146.760858 182.414775 144.974775 
C 184.200858 143.188691 185.204409 140.765903 185.204409 138.24 
C 185.204409 135.714097 184.200858 133.291309 182.414775 131.505225 
C 180.628691 129.719142 178.205903 128.715591 175.68 128.715591 
C 173.154097 128.715591 170.731309 129.719142 168.945225 131.505225 
C 167.159142 133.291309 166.155591 135.714097 166.155591 138.24 
C 166.155591 140.765903 167.159142 143.188691 168.945225 144.974775 
C 170.731309 146.760858 173.154097 147.764409 175.68 147.764409 
z
" clip-path="url(#p284af46038)" style="fill: #0dab76"/>
   </g>
   <g id="patch_14">
    <path d="M 175.68 143.002205 
C 176.942951 143.002205 178.154346 142.500429 179.047387 141.607387 
C 179.940429 140.714346 180.442205 139.502951 180.442205 138.24 
C 180.442205 136.977049 179.940429 135.765654 179.047387 134.872613 
C 178.154346 133.979571 176.942951 133.477795 175.68 133.477795 
C 174.417049 133.477795 173.205654 133.979571 172.312613 134.872613 
C 171.419571 135.765654 170.917795 136.977049 170.917795 138.24 
C 170.917795 139.502951 171.419571 140.714346 172.312613 141.607387 
C 173.205654 142.500429 174.417049 143.002205 175.68 143.002205 
z
" clip-path="url(#p284af46038)" style="fill: #a0a0a0"/>
   </g>
   <g id="patch_15">
    <path d="M 175.68 171.956409 
C 178.205903 171.956409 180.628691 170.952858 182.414775 169.166775 
C 184.200858 167.380691 185.204409 164.957903 185.204409 162.432 
C 185.204409 159.906097 184.200858 157.483309 182.414775 155.697225 
C 180.628691 153.911142 178.205903 152.907591 175.68 152.907591 
C 173.154097 152.907591 170.731309 153.911142 168.945225 155.697225 
C 167.159142 157.483309 166.155591 159.906097 166.155591 162.432 
C 166.155591 164.957903 167.159142 167.380691 168.945225 169.166775 
C 170.731309 170.952858 173.154097 171.956409 175.68 171.956409 
z
" clip-path="url(#p284af46038)" style="fill: #0dab76"/>
   </g>
   <g id="patch_16">
    <path d="M 175.68 167.194205 
C 176.942951 167.194205 178.154346 166.692429 179.047387 165.799387 
C 179.940429 164.906346 180.442205 163.694951 180.442205 162.432 
C 180.442205 161.169049 179.940429 159.957654 179.047387 159.064613 
C 178.154346 158.171571 176.942951 157.669795 175.68 157.669795 
C 174.417049 157.669795 173.205654 158.171571 172.312613 159.064613 
C 171.419571 159.957654 170.917795 161.169049 170.917795 162.432 
C 170.917795 163.694951 171.419571 164.906346 172.312613 165.799387 
C 173.205654 166.692429 174.417049 167.194205 175.68 167.194205 
z
" clip-path="url(#p284af46038)" style="fill: #a0a0a0"/>
   </g>
   <g id="patch_17">
    <path d="M 175.68 196.148409 
C 178.205903 196.148409 180.628691 195.144858 182.414775 193.358775 
C 184.200858 191.572691 185.204409 189.149903 185.204409 186.624 
C 185.204409 184.098097 184.200858 181.675309 182.414775 179.889225 
C 180.628691 178.103142 178.205903 177.099591 175.68 177.099591 
C 173.154097 177.099591 170.731309 178.103142 168.945225 179.889225 
C 167.159142 181.675309 166.155591 184.098097 166.155591 186.624 
C 166.155591 189.149903 167.159142 191.572691 168.945225 193.358775 
C 170.731309 195.144858 173.154097 196.148409 175.68 196.148409 
z
" clip-path="url(#p284af46038)" style="fill: #0dab76"/>
   </g>
   <g id="patch_18">
    <path d="M 175.68 191.386205 
C 176.942951 191.386205 178.154346 190.884429 179.047387 189.991387 
C 179.940429 189.098346 180.442205 187.886951 180.442205 186.624 
C 180.442205 185.361049 179.940429 184.149654 179.047387 183.256613 
C 178.154346 182.363571 176.942951 181.861795 175.68 181.861795 
C 174.417049 181.861795 173.205654 182.363571 172.312613 183.256613 
C 171.419571 184.149654 170.917795 185.361049 170.917795 186.624 
C 170.917795 187.886951 171.419571 189.098346 172.312613 189.991387 
C 173.205654 190.884429 174.417049 191.386205 175.68 191.386205 
z
" clip-path="url(#p284af46038)" style="fill: #a0a0a0"/>
   </g>
   <g id="patch_19">
    <path d="M 175.68 220.340409 
C 178.205903 220.340409 180.628691 219.336858 182.414775 217.550775 
C 184.200858 215.764691 185.204409 213.341903 185.204409 210.816 
C 185.204409 208.290097 184.200858 205.867309 182.414775 204.081225 
C 180.628691 202.295142 178.205903 201.291591 175.68 201.291591 
C 173.154097 201.291591 170.731309 202.295142 168.945225 204.081225 
C 167.159142 205.867309 166.155591 208.290097 166.155591 210.816 
C 166.155591 213.341903 167.159142 215.764691 168.945225 217.550775 
C 170.731309 219.336858 173.154097 220.340409 175.68 220.340409 
z
" clip-path="url(#p284af46038)" style="fill: #0dab76"/>
   </g>
   <g id="patch_20">
    <path d="M 175.68 215.578205 
C 176.942951 215.578205 178.154346 215.076429 179.047387 214.183387 
C 179.940429 213.290346 180.442205 212.078951 180.442205 210.816 
C 180.442205 209.553049 179.940429 208.341654 179.047387 207.448613 
C 178.154346 206.555571 176.942951 206.053795 175.68 206.053795 
C 174.417049 206.053795 173.205654 206.555571 172.312613 207.448613 
C 171.419571 208.341654 170.917795 209.553049 170.917795 210.816 
C 170.917795 212.078951 171.419571 213.290346 172.312613 214.183387 
C 173.205654 215.076429 174.417049 215.578205 175.68 215.578205 
z
" clip-path="url(#p284af46038)" style="fill: #a0a0a0"/>
   </g>
   <g id="patch_21">
    <path d="M 175.68 244.532409 
C 178.205903 244.532409 180.628691 243.528858 182.414775 241.742775 
C 184.200858 239.956691 185.204409 237.533903 185.204409 235.008 
C 185.204409 232.482097 184.200858 230.059309 182.414775 228.273225 
C 180.628691 226.487142 178.205903 225.483591 175.68 225.483591 
C 173.154097 225.483591 170.731309 226.487142 168.945225 228.273225 
C 167.159142 230.059309 166.155591 232.482097 166.155591 235.008 
C 166.155591 237.533903 167.159142 239.956691 168.945225 241.742775 
C 170.731309 243.528858 173.154097 244.532409 175.68 244.532409 
z
" clip-path="url(#p284af46038)" style="fill: #0dab76"/>
   </g>
   <g id="patch_22">
    <path d="M 175.68 239.770205 
C 176.942951 239.770205 178.154346 239.268429 179.047387 238.375387 
C 179.940429 237.482346 180.442205 236.270951 180.442205 235.008 
C 180.442205 233.745049 179.940429 232.533654 179.047387 231.640613 
C 178.154346 230.747571 176.942951 230.245795 175.68 230.245795 
C 174.417049 230.245795 173.205654 230.747571 172.312613 231.640613 
C 171.419571 232.533654 170.917795 233.745049 170.917795 235.008 
C 170.917795 236.270951 171.419571 237.482346 172.312613 238.375387 
C 173.205654 239.268429 174.417049 239.770205 175.68 239.770205 
z
" clip-path="url(#p284af46038)" style="fill: #a0a0a0"/>
   </g>
   <g id="patch_23">
    <path d="M 175.68 268.724409 
C 178.205903 268.724409 180.628691 267.720858 182.414775 265.934775 
C 184.200858 264.148691 185.204409 261.725903 185.204409 259.2 
C 185.204409 256.674097 184.200858 254.251309 182.414775 252.465225 
C 180.628691 250.679142 178.205903 249.675591 175.68 249.675591 
C 173.154097 249.675591 170.731309 250.679142 168.945225 252.465225 
C 167.159142 254.251309 166.155591 256.674097 166.155591 259.2 
C 166.155591 261.725903 167.159142 264.148691 168.945225 265.934775 
C 170.731309 267.720858 173.154097 268.724409 175.68 268.724409 
z
" clip-path="url(#p284af46038)" style="fill: #0dab76"/>
   </g>
   <g id="patch_24">
    <path d="M 175.68 263.962205 
C 176.942951 263.962205 178.154346 263.460429 179.047387 262.567387 
C 179.940429 261.674346 180.442205 260.462951 180.442205 259.2 
C 180.442205 257.937049 179.940429 256.725654 179.047387 255.832613 
C 178.154346 254.939571 176.942951 254.437795 175.68 254.437795 
C 174.417049 254.437795 173.205654 254.939571 172.312613 255.832613 
C 171.419571 256.725654 170.917795 257.937049 170.917795 259.2 
C 170.917795 260.462951 171.419571 261.674346 172.312613 262.567387 
C 173.205654 263.460429 174.417049 263.962205 175.68 263.962205 
z
" clip-path="url(#p284af46038)" style="fill: #a0a0a0"/>
   </g>
   <g id="patch_25">
    <path d="M 175.68 292.916409 
C 178.205903 292.916409 180.628691 291.912858 182.414775 290.126775 
C 184.200858 288.340691 185.204409 285.917903 185.204409 283.392 
C 185.204409 280.866097 184.200858 278.443309 182.414775 276.657225 
C 180.628691 274.871142 178.205903 273.867591 175.68 273.867591 
C 173.154097 273.867591 170.731309 274.871142 168.945225 276.657225 
C 167.159142 278.443309 166.155591 280.866097 166.155591 283.392 
C 166.155591 285.917903 167.159142 288.340691 168.945225 290.126775 
C 170.731309 291.912858 173.154097 292.916409 175.68 292.916409 
z
" clip-path="url(#p284af46038)" style="fill: #0dab76"/>
   </g>
   <g id="patch_26">
    <path d="M 175.68 288.154205 
C 176.942951 288.154205 178.154346 287.652429 179.047387 286.759387 
C 179.940429 285.866346 180.442205 284.654951 180.442205 283.392 
C 180.442205 282.129049 179.940429 280.917654 179.047387 280.024613 
C 178.154346 279.131571 176.942951 278.629795 175.68 278.629795 
C 174.417049 278.629795 173.205654 279.131571 172.312613 280.024613 
C 171.419571 280.917654 170.917795 282.129049 170.917795 283.392 
C 170.917795 284.654951 171.419571 285.866346 172.312613 286.759387 
C 173.205654 287.652429 174.417049 288.154205 175.68 288.154205 
z
" clip-path="url(#p284af46038)" style="fill: #a0a0a0"/>
   </g>
   <g id="matplotlib.axis_1">
    <g id="xtick_1">
     <g id="line2d_20">
      <defs>
       <path id="md4359dbfc1" d="M 0 0 
L 0 3.5 
" style="stroke: #ffffff; stroke-width: 0.8"/>
      </defs>
      <g>
       <use xlink:href="#md4359dbfc1" x="188.537953" y="307.584" style="fill: #ffffff; stroke: #ffffff; stroke-width: 0.8"/>
      </g>
     </g>
     <g id="text_1">
      <text style="fill: #ffffff; font: 10px 'sans-serif'; text-anchor: middle" x="188.537953" y="322.182437" transform="rotate(-0, 188.537953, 322.182437)">−5</text>
     </g>
    </g>
    <g id="xtick_2">
     <g id="line2d_21">
      <g>
       <use xlink:href="#md4359dbfc1" x="236.16" y="307.584" style="fill: #ffffff; stroke: #ffffff; stroke-width: 0.8"/>
      </g>
     </g>
     <g id="text_2">
      <text style="fill: #ffffff; font: 10px 'sans-serif'; text-anchor: middle" x="236.16" y="322.182437" transform="rotate(-0, 236.16, 322.182437)">0</text>
     </g>
    </g>
    <g id="xtick_3">
     <g id="line2d_22">
      <g>
       <use xlink:href="#md4359dbfc1" x="283.782047" y="307.584" style="fill: #ffffff; stroke: #ffffff; stroke-width: 0.8"/>
      </g>
     </g>
     <g id="text_3">
      <text style="fill: #ffffff; font: 10px 'sans-serif'; text-anchor: middle" x="283.782047" y="322.182437" transform="rotate(-0, 283.782047, 322.182437)">5</text>
     </g>
    </g>
   </g>
   <g id="matplotlib.axis_2">
    <g id="ytick_1">
     <g id="line2d_23">
      <defs>
       <path id="m36450ffc6f" d="M 0 0 
L -3.5 0 
" style="stroke: #ffffff; stroke-width: 0.8"/>
      </defs>
      <g>
       <use xlink:href="#m36450ffc6f" x="156.3264" y="269.772094" style="fill: #ffffff; stroke: #ffffff; stroke-width: 0.8"/>
      </g>
     </g>
     <g id="text_4">
      <text style="fill: #ffffff; font: 10px 'sans-serif'; text-anchor: end" x="149.3264" y="273.571313" transform="rotate(-0, 149.3264, 273.571313)">−10</text>
     </g>
    </g>
    <g id="ytick_2">
     <g id="line2d_24">
      <g>
       <use xlink:href="#m36450ffc6f" x="156.3264" y="222.150047" style="fill: #ffffff; stroke: #ffffff; stroke-width: 0.8"/>
      </g>
     </g>
     <g id="text_5">
      <text style="fill: #ffffff; font: 10px 'sans-serif'; text-anchor: end" x="149.3264" y="225.949266" transform="rotate(-0, 149.3264, 225.949266)">−5</text>
     </g>
    </g>
    <g id="ytick_3">
     <g id="line2d_25">
      <g>
       <use xlink:href="#m36450ffc6f" x="156.3264" y="174.528" style="fill: #ffffff; stroke: #ffffff; stroke-width: 0.8"/>
      </g>
     </g>
     <g id="text_6">
      <text style="fill: #ffffff; font: 10px 'sans-serif'; text-anchor: end" x="149.3264" y="178.327219" transform="rotate(-0, 149.3264, 178.327219)">0</text>
     </g>
    </g>
    <g id="ytick_4">
     <g id="line2d_26">
      <g>
       <use xlink:href="#m36450ffc6f" x="156.3264" y="126.905953" style="fill: #ffffff; stroke: #ffffff; stroke-width: 0.8"/>
      </g>
     </g>
     <g id="text_7">
      <text style="fill: #ffffff; font: 10px 'sans-serif'; text-anchor: end" x="149.3264" y="130.705172" transform="rotate(-0, 149.3264, 130.705172)">5</text>
     </g>
    </g>
    <g id="ytick_5">
     <g id="line2d_27">
      <g>
       <use xlink:href="#m36450ffc6f" x="156.3264" y="79.283906" style="fill: #ffffff; stroke: #ffffff; stroke-width: 0.8"/>
      </g>
     </g>
     <g id="text_8">
      <text style="fill: #ffffff; font: 10px 'sans-serif'; text-anchor: end" x="149.3264" y="83.083124" transform="rotate(-0, 149.3264, 83.083124)">10</text>
     </g>
    </g>
   </g>
   <g id="patch_27">
    <path d="M 156.3264 307.584 
L 156.3264 41.472 
" style="fill: none; stroke: #ffffff; stroke-width: 0.8; stroke-linejoin: miter; stroke-linecap: square"/>
   </g>
   <g id="patch_28">
    <path d="M 315.9936 307.584 
L 315.9936 41.472 
" style="fill: none; stroke: #ffffff; stroke-width: 0.8; stroke-linejoin: miter; stroke-linecap: square"/>
   </g>
   <g id="patch_29">
    <path d="M 156.3264 307.584 
L 315.9936 307.584 
" style="fill: none; stroke: #ffffff; stroke-width: 0.8; stroke-linejoin: miter; stroke-linecap: square"/>
   </g>
   <g id="patch_30">
    <path d="M 156.3264 41.472 
L 315.9936 41.472 
" style="fill: none; stroke: #ffffff; stroke-width: 0.8; stroke-linejoin: miter; stroke-linecap: square"/>
   </g>
   <g id="text_9">
    <text style="fill: #ffffff; font: 12px 'sans-serif'; text-anchor: middle" x="236.16" y="35.472" transform="rotate(-0, 236.16, 35.472)">IMU-MODULE</text>
   </g>
  </g>
 </g>
 <defs>
  <clipPath id="p284af46038">
   <rect x="156.3264" y="41.472" width="159.6672" height="266.112"/>
  </clipPath>
 </defs>
</svg>
