<?xml version="1.0" encoding="utf-8" standalone="no"?>
<!DOCTYPE svg PUBLIC "-//W3C//DTD SVG 1.1//EN"
  "http://www.w3.org/Graphics/SVG/1.1/DTD/svg11.dtd">
<svg xmlns:xlink="http://www.w3.org/1999/xlink" width="460.8pt" height="345.6pt" viewBox="0 0 460.8 345.6" xmlns="http://www.w3.org/2000/svg" version="1.1">
 <metadata>
  <rdf:RDF xmlns:dc="http://purl.org/dc/elements/1.1/" xmlns:cc="http://creativecommons.org/ns#" xmlns:rdf="http://www.w3.org/1999/02/22-rdf-syntax-ns#">
   <cc:Work>
    <dc:type rdf:resource="http://purl.org/dc/dcmitype/StillImage"/>
    <dc:date>2023-02-18T16:06:10.366496</dc:date>
    <dc:format>image/svg+xml</dc:format>
    <dc:creator>
     <cc:Agent>
      <dc:title>Matplotlib v3.5.1, https://matplotlib.org/</dc:title>
     </cc:Agent>
    </dc:creator>
   </cc:Work>
  </rdf:RDF>
 </metadata>
 <defs>
  <style type="text/css">*{stroke-linejoin: round; stroke-linecap: butt}</style>
 </defs>
 <g id="figure_1">
  <g id="patch_1">
   <path d="M 0 345.6 
L 460.8 345.6 
L 460.8 0 
L 0 0 
z
" style="fill: #2b2b2b"/>
  </g>
  <g id="axes_1">
   <g id="patch_2">
    <path d="M 77.976695 307.584 
L 394.343305 307.584 
L 394.343305 41.472 
L 77.976695 41.472 
z
" style="fill: #2b2b2b"/>
   </g>
   <g id="patch_3">
    <path d="M 295.37303 261.736589 
C 295.395463 261.736589 295.416981 261.727676 295.432844 261.711813 
C 295.448707 261.69595 295.45762 261.674432 295.45762 261.651999 
C 295.45762 261.629565 295.448707 261.608048 295.432844 261.592185 
C 295.416981 261.576322 295.395463 261.567409 295.37303 261.567409 
C 295.350596 261.567409 295.329078 261.576322 295.313215 261.592185 
C 295.297353 261.608048 295.28844 261.629565 295.28844 261.651999 
C 295.28844 261.674432 295.297353 261.69595 295.313215 261.711813 
C 295.329078 261.727676 295.350596 261.736589 295.37303 261.736589 
L 295.37303 261.736589 
z
" clip-path="url(#p656e307890)" style="fill: none; stroke: #ffcd07; stroke-width: 0.8459; stroke-linejoin: miter"/>
   </g>
   <g id="line2d_1">
    <path d="M 295.255891 258.8965 
L 301.833962 261.652175 
L 301.833962 261.652175 
L 295.255584 264.408 
L 295.255584 264.408 
" clip-path="url(#p656e307890)" style="fill: none; stroke: #ffcd07; stroke-width: 0.50754; stroke-linecap: round"/>
   </g>
   <g id="line2d_2">
    <path d="M 302.913072 256.762304 
L 306.202666 266.542184 
L 306.202666 266.542184 
L 309.40298 256.762052 
L 309.40298 256.762052 
" clip-path="url(#p656e307890)" style="fill: none; stroke: #ffcd07; stroke-width: 0.50754; stroke-linecap: round"/>
   </g>
   <g id="line2d_3">
    <path d="M 310.526074 266.363887 
L 313.815668 256.584006 
L 313.815668 256.584006 
L 317.015983 266.364139 
L 317.015983 266.364139 
" clip-path="url(#p656e307890)" style="fill: none; stroke: #ffcd07; stroke-width: 0.50754; stroke-linecap: round"/>
   </g>
   <g id="line2d_4">
    <path d="M 316.216613 263.963889 
L 311.326842 263.963889 
" clip-path="url(#p656e307890)" style="fill: none; stroke: #ffcd07; stroke-width: 0.50754; stroke-linecap: round"/>
   </g>
   <g id="line2d_5">
    <path d="M 319.206009 256.762355 
L 319.206009 266.541897 
L 323.562351 266.541897 
" clip-path="url(#p656e307890)" style="fill: none; stroke: #ffcd07; stroke-width: 0.50754; stroke-linecap: round"/>
   </g>
   <g id="line2d_6">
    <path d="M 326.285868 256.762769 
L 326.285868 263.786258 
L 326.285868 263.786258 
L 326.463678 264.675307 
L 326.463678 264.675307 
L 326.819298 265.386547 
L 327.441632 266.008881 
L 328.152872 266.453406 
L 329.041921 266.542311 
L 329.842065 266.453406 
L 330.642209 266.008881 
L 331.264544 265.386547 
L 331.620164 264.675307 
L 331.709069 263.786258 
L 331.709069 256.762769 
" clip-path="url(#p656e307890)" style="fill: none; stroke: #ffcd07; stroke-width: 0.50754; stroke-linecap: round"/>
   </g>
   <g id="line2d_7">
    <path d="M 338.788738 266.541944 
L 334.432397 266.541944 
L 334.432397 256.762402 
L 338.788738 256.762402 
" clip-path="url(#p656e307890)" style="fill: none; stroke: #ffcd07; stroke-width: 0.50754; stroke-linecap: round"/>
   </g>
   <g id="line2d_8">
    <path d="M 334.432573 261.118975 
L 337.722056 261.118975 
" clip-path="url(#p656e307890)" style="fill: none; stroke: #ffcd07; stroke-width: 0.50754; stroke-linecap: round"/>
   </g>
   <g id="patch_4">
    <path d="M 236.160028 270.110999 
C 263.080265 270.110999 288.901543 259.415476 307.937025 240.379993 
C 326.972507 221.344511 337.668031 195.523233 337.668031 168.602996 
C 337.668031 141.682759 326.972507 115.861481 307.937025 96.825999 
C 288.901543 77.790516 263.080265 67.094993 236.160028 67.094993 
C 209.239791 67.094993 183.418513 77.790516 164.38303 96.825999 
C 145.347548 115.861481 134.652025 141.682759 134.652025 168.602996 
C 134.652025 195.523233 145.347548 221.344511 164.38303 240.379993 
C 183.418513 259.415476 209.239791 270.110999 236.160028 270.110999 
L 236.160028 270.110999 
z
" clip-path="url(#p656e307890)" style="fill: none; stroke: #808080; stroke-width: 1.074293; stroke-linejoin: miter"/>
   </g>
   <g id="patch_5">
    <path d="M 379.963005 168.602996 
C 379.963007 162.996485 377.733457 157.613867 373.769058 153.649463 
C 369.804658 149.685059 364.422042 147.455503 358.815532 147.455499 
" clip-path="url(#p656e307890)" style="fill: none; stroke: #808080; stroke-width: 1.074293; stroke-linejoin: miter"/>
   </g>
   <g id="patch_6">
    <path d="M 358.815532 189.750493 
C 364.422042 189.750489 369.804658 187.520933 373.769058 183.556529 
C 377.733457 179.592125 379.963007 174.209507 379.963005 168.602996 
" clip-path="url(#p656e307890)" style="fill: none; stroke: #808080; stroke-width: 1.074293; stroke-linejoin: miter"/>
   </g>
   <g id="patch_7">
    <path d="M 113.504524 147.455491 
C 110.727457 147.455489 107.977394 148.002509 105.411719 149.065245 
C 102.846043 150.127981 100.514651 151.685765 98.550968 153.649447 
C 96.587284 155.613128 95.029497 157.944518 93.966758 160.510192 
C 92.90402 163.075867 92.356997 165.825929 92.356995 168.602996 
" clip-path="url(#p656e307890)" style="fill: none; stroke: #808080; stroke-width: 1.074293; stroke-linejoin: miter"/>
   </g>
   <g id="patch_8">
    <path d="M 92.356995 168.602996 
C 92.356997 171.380062 92.90402 174.130125 93.966758 176.6958 
C 95.029497 179.261474 96.587284 181.592864 98.550968 183.556545 
C 100.514651 185.520227 102.846043 187.078011 105.411719 188.140747 
C 107.977394 189.203483 110.727457 189.750502 113.504524 189.750501 
" clip-path="url(#p656e307890)" style="fill: none; stroke: #808080; stroke-width: 1.074293; stroke-linejoin: miter"/>
   </g>
   <g id="patch_9">
    <path d="M 236.160028 58.720582 
C 236.182461 58.720582 236.203979 58.71167 236.219842 58.695807 
C 236.235705 58.679944 236.244618 58.658426 236.244618 58.635992 
C 236.244618 58.613559 236.235705 58.592041 236.219842 58.576178 
C 236.203979 58.560315 236.182461 58.551402 236.160028 58.551402 
C 236.137594 58.551402 236.116077 58.560315 236.100214 58.576178 
C 236.084351 58.592041 236.075438 58.613559 236.075438 58.635992 
C 236.075438 58.658426 236.084351 58.679944 236.100214 58.695807 
C 236.116077 58.71167 236.137594 58.720582 236.160028 58.720582 
L 236.160028 58.720582 
z
" clip-path="url(#p656e307890)" style="fill: none; stroke: #808080; stroke-width: 0.8459; stroke-linejoin: miter"/>
   </g>
   <g id="line2d_9">
    <path d="M 217.644564 55.880494 
L 224.222635 58.636168 
L 224.222635 58.636168 
L 217.644256 61.391993 
L 217.644256 61.391993 
" clip-path="url(#p656e307890)" style="fill: none; stroke: #808080; stroke-width: 0.50754; stroke-linecap: round"/>
   </g>
   <g id="line2d_10">
    <path d="M 225.835805 63.525594 
L 225.835805 53.746052 
L 231.259006 63.525594 
L 231.259006 53.746052 
" clip-path="url(#p656e307890)" style="fill: none; stroke: #808080; stroke-width: 0.50754; stroke-linecap: round"/>
   </g>
   <g id="line2d_11">
    <path d="M 232.914747 63.347881 
L 236.204341 53.568 
L 236.204341 53.568 
L 239.404655 63.348132 
L 239.404655 63.348132 
" clip-path="url(#p656e307890)" style="fill: none; stroke: #808080; stroke-width: 0.50754; stroke-linecap: round"/>
   </g>
   <g id="line2d_12">
    <path d="M 238.605286 60.947883 
L 233.715515 60.947883 
" clip-path="url(#p656e307890)" style="fill: none; stroke: #808080; stroke-width: 0.50754; stroke-linecap: round"/>
   </g>
   <g id="line2d_13">
    <path d="M 240.528489 63.525883 
L 240.528489 53.746341 
L 243.729066 59.169541 
L 243.729066 59.169541 
L 247.018549 53.746341 
L 247.018549 53.746341 
L 247.018549 63.525883 
" clip-path="url(#p656e307890)" style="fill: none; stroke: #808080; stroke-width: 0.50754; stroke-linecap: round"/>
   </g>
   <g id="line2d_14">
    <path d="M 253.564311 63.525938 
L 249.207969 63.525938 
L 249.207969 53.746396 
L 253.564311 53.746396 
" clip-path="url(#p656e307890)" style="fill: none; stroke: #808080; stroke-width: 0.50754; stroke-linecap: round"/>
   </g>
   <g id="line2d_15">
    <path d="M 249.208146 58.102968 
L 252.497628 58.102968 
" clip-path="url(#p656e307890)" style="fill: none; stroke: #808080; stroke-width: 0.50754; stroke-linecap: round"/>
   </g>
   <g id="patch_10">
    <path d="M 225.586277 295.488 
C 227.829631 295.488 229.981404 294.596706 231.567694 293.010416 
C 233.153984 291.424126 234.045278 289.272353 234.045278 287.029 
C 234.045278 284.785647 233.153984 282.633873 231.567694 281.047583 
C 229.981404 279.461293 227.829631 278.569999 225.586277 278.569999 
C 223.342924 278.569999 221.191151 279.461293 219.604861 281.047583 
C 218.018571 282.633873 217.127277 284.785647 217.127277 287.029 
C 217.127277 289.272353 218.018571 291.424126 219.604861 293.010416 
C 221.191151 294.596706 223.342924 295.488 225.586277 295.488 
z
" clip-path="url(#p656e307890)" style="fill: #0dab76"/>
   </g>
   <g id="patch_11">
    <path d="M 225.586277 291.2585 
C 226.707954 291.2585 227.783841 290.812853 228.576986 290.019708 
C 229.370131 289.226563 229.815778 288.150676 229.815778 287.029 
C 229.815778 285.907323 229.370131 284.831437 228.576986 284.038292 
C 227.783841 283.245146 226.707954 282.7995 225.586277 282.7995 
C 224.464601 282.7995 223.388714 283.245146 222.595569 284.038292 
C 221.802424 284.831437 221.356777 285.907323 221.356777 287.029 
C 221.356777 288.150676 221.802424 289.226563 222.595569 290.019708 
C 223.388714 290.812853 224.464601 291.2585 225.586277 291.2585 
z
" clip-path="url(#p656e307890)" style="fill: #a0a0a0"/>
   </g>
   <g id="patch_12">
    <path d="M 246.733778 295.488 
C 248.977131 295.488 251.128904 294.596706 252.715195 293.010416 
C 254.301485 291.424126 255.192778 289.272353 255.192778 287.029 
C 255.192778 284.785647 254.301485 282.633873 252.715195 281.047583 
C 251.128904 279.461293 248.977131 278.569999 246.733778 278.569999 
C 244.490425 278.569999 242.338652 279.461293 240.752362 281.047583 
C 239.166071 282.633873 238.274778 284.785647 238.274778 287.029 
C 238.274778 289.272353 239.166071 291.424126 240.752362 293.010416 
C 242.338652 294.596706 244.490425 295.488 246.733778 295.488 
z
" clip-path="url(#p656e307890)" style="fill: #0dab76"/>
   </g>
   <g id="patch_13">
    <path d="M 246.733778 291.2585 
C 247.855455 291.2585 248.931341 290.812853 249.724486 290.019708 
C 250.517631 289.226563 250.963278 288.150676 250.963278 287.029 
C 250.963278 285.907323 250.517631 284.831437 249.724486 284.038292 
C 248.931341 283.245146 247.855455 282.7995 246.733778 282.7995 
C 245.612102 282.7995 244.536215 283.245146 243.74307 284.038292 
C 242.949925 284.831437 242.504278 285.907323 242.504278 287.029 
C 242.504278 288.150676 242.949925 289.226563 243.74307 290.019708 
C 244.536215 290.812853 245.612102 291.2585 246.733778 291.2585 
z
" clip-path="url(#p656e307890)" style="fill: #a0a0a0"/>
   </g>
   <g id="matplotlib.axis_1">
    <g id="xtick_1">
     <g id="line2d_16">
      <defs>
       <path id="m4ee0ba553a" d="M 0 0 
L 0 3.5 
" style="stroke: #ffffff; stroke-width: 0.8"/>
      </defs>
      <g>
       <use xlink:href="#m4ee0ba553a" x="109.275024" y="307.584" style="fill: #ffffff; stroke: #ffffff; stroke-width: 0.8"/>
      </g>
     </g>
     <g id="text_1">
      <text style="fill: #ffffff; font: 10px 'sans-serif'; text-anchor: middle" x="109.275024" y="322.182437" transform="rotate(-0, 109.275024, 322.182437)">−15</text>
     </g>
    </g>
    <g id="xtick_2">
     <g id="line2d_17">
      <g>
       <use xlink:href="#m4ee0ba553a" x="151.570025" y="307.584" style="fill: #ffffff; stroke: #ffffff; stroke-width: 0.8"/>
      </g>
     </g>
     <g id="text_2">
      <text style="fill: #ffffff; font: 10px 'sans-serif'; text-anchor: middle" x="151.570025" y="322.182437" transform="rotate(-0, 151.570025, 322.182437)">−10</text>
     </g>
    </g>
    <g id="xtick_3">
     <g id="line2d_18">
      <g>
       <use xlink:href="#m4ee0ba553a" x="193.865026" y="307.584" style="fill: #ffffff; stroke: #ffffff; stroke-width: 0.8"/>
      </g>
     </g>
     <g id="text_3">
      <text style="fill: #ffffff; font: 10px 'sans-serif'; text-anchor: middle" x="193.865026" y="322.182437" transform="rotate(-0, 193.865026, 322.182437)">−5</text>
     </g>
    </g>
    <g id="xtick_4">
     <g id="line2d_19">
      <g>
       <use xlink:href="#m4ee0ba553a" x="236.160028" y="307.584" style="fill: #ffffff; stroke: #ffffff; stroke-width: 0.8"/>
      </g>
     </g>
     <g id="text_4">
      <text style="fill: #ffffff; font: 10px 'sans-serif'; text-anchor: middle" x="236.160028" y="322.182437" transform="rotate(-0, 236.160028, 322.182437)">0</text>
     </g>
    </g>
    <g id="xtick_5">
     <g id="line2d_20">
      <g>
       <use xlink:href="#m4ee0ba553a" x="278.455029" y="307.584" style="fill: #ffffff; stroke: #ffffff; stroke-width: 0.8"/>
      </g>
     </g>
     <g id="text_5">
      <text style="fill: #ffffff; font: 10px 'sans-serif'; text-anchor: middle" x="278.455029" y="322.182437" transform="rotate(-0, 278.455029, 322.182437)">5</text>
     </g>
    </g>
    <g id="xtick_6">
     <g id="line2d_21">
      <g>
       <use xlink:href="#m4ee0ba553a" x="320.75003" y="307.584" style="fill: #ffffff; stroke: #ffffff; stroke-width: 0.8"/>
      </g>
     </g>
     <g id="text_6">
      <text style="fill: #ffffff; font: 10px 'sans-serif'; text-anchor: middle" x="320.75003" y="322.182437" transform="rotate(-0, 320.75003, 322.182437)">10</text>
     </g>
    </g>
    <g id="xtick_7">
     <g id="line2d_22">
      <g>
       <use xlink:href="#m4ee0ba553a" x="363.045032" y="307.584" style="fill: #ffffff; stroke: #ffffff; stroke-width: 0.8"/>
      </g>
     </g>
     <g id="text_7">
      <text style="fill: #ffffff; font: 10px 'sans-serif'; text-anchor: middle" x="363.045032" y="322.182437" transform="rotate(-0, 363.045032, 322.182437)">15</text>
     </g>
    </g>
   </g>
   <g id="matplotlib.axis_2">
    <g id="ytick_1">
     <g id="line2d_23">
      <defs>
       <path id="m569b001e04" d="M 0 0 
L -3.5 0 
" style="stroke: #ffffff; stroke-width: 0.8"/>
      </defs>
      <g>
       <use xlink:href="#m569b001e04" x="77.976695" y="295.488" style="fill: #ffffff; stroke: #ffffff; stroke-width: 0.8"/>
      </g>
     </g>
     <g id="text_8">
      <text style="fill: #ffffff; font: 10px 'sans-serif'; text-anchor: end" x="70.976695" y="299.287219" transform="rotate(-0, 70.976695, 299.287219)">−15</text>
     </g>
    </g>
    <g id="ytick_2">
     <g id="line2d_24">
      <g>
       <use xlink:href="#m569b001e04" x="77.976695" y="253.192999" style="fill: #ffffff; stroke: #ffffff; stroke-width: 0.8"/>
      </g>
     </g>
     <g id="text_9">
      <text style="fill: #ffffff; font: 10px 'sans-serif'; text-anchor: end" x="70.976695" y="256.992217" transform="rotate(-0, 70.976695, 256.992217)">−10</text>
     </g>
    </g>
    <g id="ytick_3">
     <g id="line2d_25">
      <g>
       <use xlink:href="#m569b001e04" x="77.976695" y="210.897997" style="fill: #ffffff; stroke: #ffffff; stroke-width: 0.8"/>
      </g>
     </g>
     <g id="text_10">
      <text style="fill: #ffffff; font: 10px 'sans-serif'; text-anchor: end" x="70.976695" y="214.697216" transform="rotate(-0, 70.976695, 214.697216)">−5</text>
     </g>
    </g>
    <g id="ytick_4">
     <g id="line2d_26">
      <g>
       <use xlink:href="#m569b001e04" x="77.976695" y="168.602996" style="fill: #ffffff; stroke: #ffffff; stroke-width: 0.8"/>
      </g>
     </g>
     <g id="text_11">
      <text style="fill: #ffffff; font: 10px 'sans-serif'; text-anchor: end" x="70.976695" y="172.402215" transform="rotate(-0, 70.976695, 172.402215)">0</text>
     </g>
    </g>
    <g id="ytick_5">
     <g id="line2d_27">
      <g>
       <use xlink:href="#m569b001e04" x="77.976695" y="126.307995" style="fill: #ffffff; stroke: #ffffff; stroke-width: 0.8"/>
      </g>
     </g>
     <g id="text_12">
      <text style="fill: #ffffff; font: 10px 'sans-serif'; text-anchor: end" x="70.976695" y="130.107213" transform="rotate(-0, 70.976695, 130.107213)">5</text>
     </g>
    </g>
    <g id="ytick_6">
     <g id="line2d_28">
      <g>
       <use xlink:href="#m569b001e04" x="77.976695" y="84.012993" style="fill: #ffffff; stroke: #ffffff; stroke-width: 0.8"/>
      </g>
     </g>
     <g id="text_13">
      <text style="fill: #ffffff; font: 10px 'sans-serif'; text-anchor: end" x="70.976695" y="87.812212" transform="rotate(-0, 70.976695, 87.812212)">10</text>
     </g>
    </g>
    <g id="ytick_7">
     <g id="line2d_29">
      <g>
       <use xlink:href="#m569b001e04" x="77.976695" y="41.717992" style="fill: #ffffff; stroke: #ffffff; stroke-width: 0.8"/>
      </g>
     </g>
     <g id="text_14">
      <text style="fill: #ffffff; font: 10px 'sans-serif'; text-anchor: end" x="70.976695" y="45.517211" transform="rotate(-0, 70.976695, 45.517211)">15</text>
     </g>
    </g>
   </g>
   <g id="patch_14">
    <path d="M 77.976695 307.584 
L 77.976695 41.472 
" style="fill: none; stroke: #ffffff; stroke-width: 0.8; stroke-linejoin: miter; stroke-linecap: square"/>
   </g>
   <g id="patch_15">
    <path d="M 394.343305 307.584 
L 394.343305 41.472 
" style="fill: none; stroke: #ffffff; stroke-width: 0.8; stroke-linejoin: miter; stroke-linecap: square"/>
   </g>
   <g id="patch_16">
    <path d="M 77.976695 307.584 
L 394.343305 307.584 
" style="fill: none; stroke: #ffffff; stroke-width: 0.8; stroke-linejoin: miter; stroke-linecap: square"/>
   </g>
   <g id="patch_17">
    <path d="M 77.976695 41.472 
L 394.343305 41.472 
" style="fill: none; stroke: #ffffff; stroke-width: 0.8; stroke-linejoin: miter; stroke-linecap: square"/>
   </g>
   <g id="text_15">
    <text style="fill: #ffffff; font: 12px 'sans-serif'; text-anchor: middle" x="236.16" y="35.472" transform="rotate(-0, 236.16, 35.472)">SPT08</text>
   </g>
  </g>
 </g>
 <defs>
  <clipPath id="p656e307890">
   <rect x="77.976695" y="41.472" width="316.36661" height="266.112"/>
  </clipPath>
 </defs>
</svg>
