<?xml version="1.0" encoding="utf-8" standalone="no"?>
<!DOCTYPE svg PUBLIC "-//W3C//DTD SVG 1.1//EN"
  "http://www.w3.org/Graphics/SVG/1.1/DTD/svg11.dtd">
<svg xmlns:xlink="http://www.w3.org/1999/xlink" width="460.8pt" height="345.6pt" viewBox="0 0 460.8 345.6" xmlns="http://www.w3.org/2000/svg" version="1.1">
 <metadata>
  <rdf:RDF xmlns:dc="http://purl.org/dc/elements/1.1/" xmlns:cc="http://creativecommons.org/ns#" xmlns:rdf="http://www.w3.org/1999/02/22-rdf-syntax-ns#">
   <cc:Work>
    <dc:type rdf:resource="http://purl.org/dc/dcmitype/StillImage"/>
    <dc:date>2021-12-22T04:54:05.383390</dc:date>
    <dc:format>image/svg+xml</dc:format>
    <dc:creator>
     <cc:Agent>
      <dc:title>Matplotlib v3.5.1, https://matplotlib.org/</dc:title>
     </cc:Agent>
    </dc:creator>
   </cc:Work>
  </rdf:RDF>
 </metadata>
 <defs>
  <style type="text/css">*{stroke-linejoin: round; stroke-linecap: butt}</style>
 </defs>
 <g id="figure_1">
  <g id="patch_1">
   <path d="M 0 345.6 
L 460.8 345.6 
L 460.8 0 
L 0 0 
z
" style="fill: #2b2b2b"/>
  </g>
  <g id="axes_1">
   <g id="patch_2">
    <path d="M 110.374036 307.584 
L 361.945964 307.584 
L 361.945964 41.472 
L 110.374036 41.472 
z
" style="fill: #2b2b2b"/>
   </g>
   <g id="line2d_1">
    <path d="M 324.24591 271.602961 
L 148.07409 271.602961 
" clip-path="url(#p52812b4ed7)" style="fill: none; stroke: #ffcd07; stroke-width: 3.63064; stroke-linecap: square"/>
   </g>
   <g id="line2d_2">
    <path d="M 148.07409 271.602961 
L 148.07409 55.83715 
" clip-path="url(#p52812b4ed7)" style="fill: none; stroke: #ffcd07; stroke-width: 3.63064; stroke-linecap: square"/>
   </g>
   <g id="line2d_3">
    <path d="M 148.07409 55.83715 
L 324.24591 55.83715 
" clip-path="url(#p52812b4ed7)" style="fill: none; stroke: #ffcd07; stroke-width: 3.63064; stroke-linecap: square"/>
   </g>
   <g id="line2d_4">
    <path d="M 324.24591 55.83715 
L 324.24591 271.602961 
" clip-path="url(#p52812b4ed7)" style="fill: none; stroke: #ffcd07; stroke-width: 3.63064; stroke-linecap: square"/>
   </g>
   <g id="patch_3">
    <path d="M 157.543772 180.40099 
C 165.246629 180.40099 172.635033 177.340612 178.081775 171.89387 
C 183.528518 166.447128 186.588895 159.058723 186.588895 151.355867 
C 186.588895 143.65301 183.528518 136.264606 178.081775 130.817864 
C 172.635033 125.371122 165.246629 122.310744 157.543772 122.310744 
C 149.840916 122.310744 142.452511 125.371122 137.005769 130.817864 
C 131.559027 136.264606 128.49865 143.65301 128.49865 151.355867 
C 128.49865 159.058723 131.559027 166.447128 137.005769 171.89387 
C 142.452511 177.340612 149.840916 180.40099 157.543772 180.40099 
L 157.543772 180.40099 
z
" clip-path="url(#p52812b4ed7)" style="fill: none"/>
   </g>
   <g id="patch_4">
    <path d="M 280.828311 295.488 
C 285.883311 295.488 290.731951 293.479627 294.306376 289.905203 
C 297.8808 286.330778 299.889173 281.482138 299.889173 276.427138 
C 299.889173 271.372139 297.8808 266.523498 294.306376 262.949074 
C 290.731951 259.374649 285.883311 257.366276 280.828311 257.366276 
C 275.773312 257.366276 270.924671 259.374649 267.350247 262.949074 
C 263.775822 266.523498 261.767449 271.372139 261.767449 276.427138 
C 261.767449 281.482138 263.775822 286.330778 267.350247 289.905203 
C 270.924671 293.479627 275.773312 295.488 280.828311 295.488 
L 280.828311 295.488 
z
" clip-path="url(#p52812b4ed7)" style="fill: none"/>
   </g>
   <g id="patch_5">
    <path d="M 236.16 295.488 
C 241.215 295.488 246.06364 293.479627 249.638065 289.905203 
C 253.212489 286.330778 255.220862 281.482138 255.220862 276.427138 
C 255.220862 271.372139 253.212489 266.523498 249.638065 262.949074 
C 246.06364 259.374649 241.215 257.366276 236.16 257.366276 
C 231.105 257.366276 226.25636 259.374649 222.681935 262.949074 
C 219.107511 266.523498 217.099138 271.372139 217.099138 276.427138 
C 217.099138 281.482138 219.107511 286.330778 222.681935 289.905203 
C 226.25636 293.479627 231.105 295.488 236.16 295.488 
L 236.16 295.488 
z
" clip-path="url(#p52812b4ed7)" style="fill: none"/>
   </g>
   <g id="patch_6">
    <path d="M 191.491689 295.488 
C 196.546688 295.488 201.395329 293.479627 204.969753 289.905203 
C 208.544178 286.330778 210.552551 281.482138 210.552551 276.427138 
C 210.552551 271.372139 208.544178 266.523498 204.969753 262.949074 
C 201.395329 259.374649 196.546688 257.366276 191.491689 257.366276 
C 186.436689 257.366276 181.588049 259.374649 178.013624 262.949074 
C 174.4392 266.523498 172.430827 271.372139 172.430827 276.427138 
C 172.430827 281.482138 174.4392 286.330778 178.013624 289.905203 
C 181.588049 293.479627 186.436689 295.488 191.491689 295.488 
L 191.491689 295.488 
z
" clip-path="url(#p52812b4ed7)" style="fill: none"/>
   </g>
   <g id="patch_7">
    <path d="M 314.776228 180.40099 
C 322.479084 180.40099 329.867489 177.340612 335.314231 171.89387 
C 340.760973 166.447128 343.82135 159.058723 343.82135 151.355867 
C 343.82135 143.65301 340.760973 136.264606 335.314231 130.817864 
C 329.867489 125.371122 322.479084 122.310744 314.776228 122.310744 
C 307.073371 122.310744 299.684967 125.371122 294.238225 130.817864 
C 288.791482 136.264606 285.731105 143.65301 285.731105 151.355867 
C 285.731105 159.058723 288.791482 166.447128 294.238225 171.89387 
C 299.684967 177.340612 307.073371 180.40099 314.776228 180.40099 
L 314.776228 180.40099 
z
" clip-path="url(#p52812b4ed7)" style="fill: none"/>
   </g>
   <g id="patch_8">
    <path d="M 314.776228 169.223191 
C 319.514698 169.223191 324.05973 167.340577 327.410334 163.989973 
C 330.760938 160.639369 332.643552 156.094337 332.643552 151.355867 
C 332.643552 146.617397 330.760938 142.072365 327.410334 138.721761 
C 324.05973 135.371156 319.514698 133.488542 314.776228 133.488542 
C 310.037758 133.488542 305.492726 135.371156 302.142121 138.721761 
C 298.791517 142.072365 296.908903 146.617397 296.908903 151.355867 
C 296.908903 156.094337 298.791517 160.639369 302.142121 163.989973 
C 305.492726 167.340577 310.037758 169.223191 314.776228 169.223191 
L 314.776228 169.223191 
z
" clip-path="url(#p52812b4ed7)" style="fill: none"/>
   </g>
   <g id="patch_9">
    <path d="M 157.543772 169.223191 
C 162.282242 169.223191 166.827274 167.340577 170.177879 163.989973 
C 173.528483 160.639369 175.411097 156.094337 175.411097 151.355867 
C 175.411097 146.617397 173.528483 142.072365 170.177879 138.721761 
C 166.827274 135.371156 162.282242 133.488542 157.543772 133.488542 
C 152.805302 133.488542 148.26027 135.371156 144.909666 138.721761 
C 141.559062 142.072365 139.676448 146.617397 139.676448 151.355867 
C 139.676448 156.094337 141.559062 160.639369 144.909666 163.989973 
C 148.26027 167.340577 152.805302 169.223191 157.543772 169.223191 
L 157.543772 169.223191 
z
" clip-path="url(#p52812b4ed7)" style="fill: none"/>
   </g>
   <g id="patch_10">
    <path d="M 280.828311 285.3608 
C 283.197546 285.3608 285.470062 284.419493 287.145364 282.744191 
C 288.820666 281.068889 289.761973 278.796373 289.761973 276.427138 
C 289.761973 274.057903 288.820666 271.785387 287.145364 270.110085 
C 285.470062 268.434783 283.197546 267.493476 280.828311 267.493476 
C 278.459076 267.493476 276.18656 268.434783 274.511258 270.110085 
C 272.835956 271.785387 271.894649 274.057903 271.894649 276.427138 
C 271.894649 278.796373 272.835956 281.068889 274.511258 282.744191 
C 276.18656 284.419493 278.459076 285.3608 280.828311 285.3608 
L 280.828311 285.3608 
z
" clip-path="url(#p52812b4ed7)" style="fill: none"/>
   </g>
   <g id="patch_11">
    <path d="M 236.16 285.3608 
C 238.529235 285.3608 240.801751 284.419493 242.477053 282.744191 
C 244.152355 281.068889 245.093662 278.796373 245.093662 276.427138 
C 245.093662 274.057903 244.152355 271.785387 242.477053 270.110085 
C 240.801751 268.434783 238.529235 267.493476 236.16 267.493476 
C 233.790765 267.493476 231.518249 268.434783 229.842947 270.110085 
C 228.167645 271.785387 227.226338 274.057903 227.226338 276.427138 
C 227.226338 278.796373 228.167645 281.068889 229.842947 282.744191 
C 231.518249 284.419493 233.790765 285.3608 236.16 285.3608 
L 236.16 285.3608 
z
" clip-path="url(#p52812b4ed7)" style="fill: none"/>
   </g>
   <g id="patch_12">
    <path d="M 191.491689 285.3608 
C 193.860924 285.3608 196.13344 284.419493 197.808742 282.744191 
C 199.484044 281.068889 200.425351 278.796373 200.425351 276.427138 
C 200.425351 274.057903 199.484044 271.785387 197.808742 270.110085 
C 196.13344 268.434783 193.860924 267.493476 191.491689 267.493476 
C 189.122454 267.493476 186.849938 268.434783 185.174636 270.110085 
C 183.499334 271.785387 182.558027 274.057903 182.558027 276.427138 
C 182.558027 278.796373 183.499334 281.068889 185.174636 282.744191 
C 186.849938 284.419493 189.122454 285.3608 191.491689 285.3608 
L 191.491689 285.3608 
z
" clip-path="url(#p52812b4ed7)" style="fill: none"/>
   </g>
   <g id="text_1">
    <text style="fill: #ffffff; font: 1px 'sans-serif'; text-anchor: start" x="236.16" y="60.589859" transform="rotate(-0, 236.16, 60.589859)">&gt;Value</text>
   </g>
   <g id="text_2">
    <text style="fill: #ffffff; font: 1px 'sans-serif'; text-anchor: start" x="236.16" y="51.513258" transform="rotate(-0, 236.16, 51.513258)">&gt;Name</text>
   </g>
   <g id="patch_13">
    <path d="M 236.16 199.008021 
C 248.797499 199.008021 260.9191 193.98709 269.855162 185.051028 
C 278.791223 176.114967 283.812154 163.993366 283.812154 151.355867 
C 283.812154 138.718368 278.791223 126.596767 269.855162 117.660705 
C 260.9191 108.724644 248.797499 103.703712 236.16 103.703712 
C 223.522501 103.703712 211.4009 108.724644 202.464838 117.660705 
C 193.528777 126.596767 188.507846 138.718368 188.507846 151.355867 
C 188.507846 163.993366 193.528777 176.114967 202.464838 185.051028 
C 211.4009 193.98709 223.522501 199.008021 236.16 199.008021 
L 236.16 199.008021 
z
" clip-path="url(#p52812b4ed7)" style="fill: none; stroke: #808080; stroke-width: 3.63064; stroke-linejoin: miter"/>
   </g>
   <g id="line2d_5">
    <path d="M 326.51506 53.568 
L 326.51506 123.661514 
" clip-path="url(#p52812b4ed7)" style="fill: none; stroke: #808080; stroke-width: 3.63064; stroke-linecap: square"/>
   </g>
   <g id="line2d_6">
    <path d="M 326.51506 179.05022 
L 326.51506 273.872111 
" clip-path="url(#p52812b4ed7)" style="fill: none; stroke: #808080; stroke-width: 3.63064; stroke-linecap: square"/>
   </g>
   <g id="line2d_7">
    <path d="M 145.80494 53.568 
L 326.51506 53.568 
" clip-path="url(#p52812b4ed7)" style="fill: none; stroke: #808080; stroke-width: 3.63064; stroke-linecap: square"/>
   </g>
   <g id="line2d_8">
    <path d="M 145.80494 273.872111 
L 145.80494 179.05022 
" clip-path="url(#p52812b4ed7)" style="fill: none; stroke: #808080; stroke-width: 3.63064; stroke-linecap: square"/>
   </g>
   <g id="line2d_9">
    <path d="M 145.80494 123.661514 
L 145.80494 53.568 
" clip-path="url(#p52812b4ed7)" style="fill: none; stroke: #808080; stroke-width: 3.63064; stroke-linecap: square"/>
   </g>
   <g id="line2d_10">
    <path d="M 326.51506 273.872111 
L 302.376305 273.872111 
" clip-path="url(#p52812b4ed7)" style="fill: none; stroke: #808080; stroke-width: 3.63064; stroke-linecap: square"/>
   </g>
   <g id="line2d_11">
    <path d="M 169.943695 273.872111 
L 145.80494 273.872111 
" clip-path="url(#p52812b4ed7)" style="fill: none; stroke: #808080; stroke-width: 3.63064; stroke-linecap: square"/>
   </g>
   <g id="patch_14">
    <path d="M 191.491689 293.21885 
C 195.944903 293.21885 200.216324 291.449569 203.365222 288.300671 
C 206.51412 285.151774 208.2834 280.880352 208.2834 276.427138 
C 208.2834 271.973924 206.51412 267.702503 203.365222 264.553605 
C 200.216324 261.404707 195.944903 259.635427 191.491689 259.635427 
C 187.038475 259.635427 182.767053 261.404707 179.618156 264.553605 
C 176.469258 267.702503 174.699977 271.973924 174.699977 276.427138 
C 174.699977 280.880352 176.469258 285.151774 179.618156 288.300671 
C 182.767053 291.449569 187.038475 293.21885 191.491689 293.21885 
z
" clip-path="url(#p52812b4ed7)" style="fill: #0dab76"/>
   </g>
   <g id="patch_15">
    <path d="M 191.491689 285.3608 
C 193.860924 285.3608 196.13344 284.419493 197.808742 282.744191 
C 199.484044 281.068889 200.425351 278.796373 200.425351 276.427138 
C 200.425351 274.057903 199.484044 271.785387 197.808742 270.110085 
C 196.13344 268.434783 193.860924 267.493476 191.491689 267.493476 
C 189.122454 267.493476 186.849938 268.434783 185.174636 270.110085 
C 183.499334 271.785387 182.558027 274.057903 182.558027 276.427138 
C 182.558027 278.796373 183.499334 281.068889 185.174636 282.744191 
C 186.849938 284.419493 189.122454 285.3608 191.491689 285.3608 
z
" clip-path="url(#p52812b4ed7)" style="fill: #a0a0a0"/>
   </g>
   <g id="patch_16">
    <path d="M 236.16 293.21885 
C 240.613214 293.21885 244.884635 291.449569 248.033533 288.300671 
C 251.182431 285.151774 252.951712 280.880352 252.951712 276.427138 
C 252.951712 271.973924 251.182431 267.702503 248.033533 264.553605 
C 244.884635 261.404707 240.613214 259.635427 236.16 259.635427 
C 231.706786 259.635427 227.435365 261.404707 224.286467 264.553605 
C 221.137569 267.702503 219.368288 271.973924 219.368288 276.427138 
C 219.368288 280.880352 221.137569 285.151774 224.286467 288.300671 
C 227.435365 291.449569 231.706786 293.21885 236.16 293.21885 
z
" clip-path="url(#p52812b4ed7)" style="fill: #0dab76"/>
   </g>
   <g id="patch_17">
    <path d="M 236.16 285.3608 
C 238.529235 285.3608 240.801751 284.419493 242.477053 282.744191 
C 244.152355 281.068889 245.093662 278.796373 245.093662 276.427138 
C 245.093662 274.057903 244.152355 271.785387 242.477053 270.110085 
C 240.801751 268.434783 238.529235 267.493476 236.16 267.493476 
C 233.790765 267.493476 231.518249 268.434783 229.842947 270.110085 
C 228.167645 271.785387 227.226338 274.057903 227.226338 276.427138 
C 227.226338 278.796373 228.167645 281.068889 229.842947 282.744191 
C 231.518249 284.419493 233.790765 285.3608 236.16 285.3608 
z
" clip-path="url(#p52812b4ed7)" style="fill: #a0a0a0"/>
   </g>
   <g id="patch_18">
    <path d="M 280.828311 293.21885 
C 285.281525 293.21885 289.552947 291.449569 292.701844 288.300671 
C 295.850742 285.151774 297.620023 280.880352 297.620023 276.427138 
C 297.620023 271.973924 295.850742 267.702503 292.701844 264.553605 
C 289.552947 261.404707 285.281525 259.635427 280.828311 259.635427 
C 276.375097 259.635427 272.103676 261.404707 268.954778 264.553605 
C 265.80588 267.702503 264.0366 271.973924 264.0366 276.427138 
C 264.0366 280.880352 265.80588 285.151774 268.954778 288.300671 
C 272.103676 291.449569 276.375097 293.21885 280.828311 293.21885 
z
" clip-path="url(#p52812b4ed7)" style="fill: #0dab76"/>
   </g>
   <g id="patch_19">
    <path d="M 280.828311 285.3608 
C 283.197546 285.3608 285.470062 284.419493 287.145364 282.744191 
C 288.820666 281.068889 289.761973 278.796373 289.761973 276.427138 
C 289.761973 274.057903 288.820666 271.785387 287.145364 270.110085 
C 285.470062 268.434783 283.197546 267.493476 280.828311 267.493476 
C 278.459076 267.493476 276.18656 268.434783 274.511258 270.110085 
C 272.835956 271.785387 271.894649 274.057903 271.894649 276.427138 
C 271.894649 278.796373 272.835956 281.068889 274.511258 282.744191 
C 276.18656 284.419493 278.459076 285.3608 280.828311 285.3608 
z
" clip-path="url(#p52812b4ed7)" style="fill: #a0a0a0"/>
   </g>
   <g id="patch_20">
    <path d="M 157.543772 187.090516 
C 167.020712 187.090516 176.110777 183.325288 182.811985 176.624079 
C 189.513193 169.922871 193.278421 160.832807 193.278421 151.355867 
C 193.278421 141.878927 189.513193 132.788863 182.811985 126.087654 
C 176.110777 119.386446 167.020712 115.621218 157.543772 115.621218 
C 148.066833 115.621218 138.976768 119.386446 132.27556 126.087654 
C 125.574351 132.788863 121.809123 141.878927 121.809123 151.355867 
C 121.809123 160.832807 125.574351 169.922871 132.27556 176.624079 
C 138.976768 183.325288 148.066833 187.090516 157.543772 187.090516 
z
" clip-path="url(#p52812b4ed7)" style="fill: #0dab76"/>
   </g>
   <g id="patch_21">
    <path d="M 157.543772 169.223191 
C 162.282242 169.223191 166.827274 167.340577 170.177879 163.989973 
C 173.528483 160.639369 175.411097 156.094337 175.411097 151.355867 
C 175.411097 146.617397 173.528483 142.072365 170.177879 138.721761 
C 166.827274 135.371156 162.282242 133.488542 157.543772 133.488542 
C 152.805302 133.488542 148.26027 135.371156 144.909666 138.721761 
C 141.559062 142.072365 139.676448 146.617397 139.676448 151.355867 
C 139.676448 156.094337 141.559062 160.639369 144.909666 163.989973 
C 148.26027 167.340577 152.805302 169.223191 157.543772 169.223191 
z
" clip-path="url(#p52812b4ed7)" style="fill: #a0a0a0"/>
   </g>
   <g id="patch_22">
    <path d="M 314.776228 187.090516 
C 324.253167 187.090516 333.343232 183.325288 340.04444 176.624079 
C 346.745649 169.922871 350.510877 160.832807 350.510877 151.355867 
C 350.510877 141.878927 346.745649 132.788863 340.04444 126.087654 
C 333.343232 119.386446 324.253167 115.621218 314.776228 115.621218 
C 305.299288 115.621218 296.209223 119.386446 289.508015 126.087654 
C 282.806807 132.788863 279.041579 141.878927 279.041579 151.355867 
C 279.041579 160.832807 282.806807 169.922871 289.508015 176.624079 
C 296.209223 183.325288 305.299288 187.090516 314.776228 187.090516 
z
" clip-path="url(#p52812b4ed7)" style="fill: #0dab76"/>
   </g>
   <g id="patch_23">
    <path d="M 314.776228 169.223191 
C 319.514698 169.223191 324.05973 167.340577 327.410334 163.989973 
C 330.760938 160.639369 332.643552 156.094337 332.643552 151.355867 
C 332.643552 146.617397 330.760938 142.072365 327.410334 138.721761 
C 324.05973 135.371156 319.514698 133.488542 314.776228 133.488542 
C 310.037758 133.488542 305.492726 135.371156 302.142121 138.721761 
C 298.791517 142.072365 296.908903 146.617397 296.908903 151.355867 
C 296.908903 156.094337 298.791517 160.639369 302.142121 163.989973 
C 305.492726 167.340577 310.037758 169.223191 314.776228 169.223191 
z
" clip-path="url(#p52812b4ed7)" style="fill: #a0a0a0"/>
   </g>
   <g id="matplotlib.axis_1">
    <g id="xtick_1">
     <g id="line2d_12">
      <defs>
       <path id="mdbade0ded8" d="M 0 0 
L 0 3.5 
" style="stroke: #ffffff; stroke-width: 0.8"/>
      </defs>
      <g>
       <use xlink:href="#mdbade0ded8" x="128.956053" y="307.584" style="fill: #ffffff; stroke: #ffffff; stroke-width: 0.8"/>
      </g>
     </g>
     <g id="text_3">
      <text style="fill: #ffffff; font: 10px 'sans-serif'; text-anchor: middle" x="128.956053" y="322.182437" transform="rotate(-0, 128.956053, 322.182437)">−6</text>
     </g>
    </g>
    <g id="xtick_2">
     <g id="line2d_13">
      <g>
       <use xlink:href="#mdbade0ded8" x="164.690702" y="307.584" style="fill: #ffffff; stroke: #ffffff; stroke-width: 0.8"/>
      </g>
     </g>
     <g id="text_4">
      <text style="fill: #ffffff; font: 10px 'sans-serif'; text-anchor: middle" x="164.690702" y="322.182437" transform="rotate(-0, 164.690702, 322.182437)">−4</text>
     </g>
    </g>
    <g id="xtick_3">
     <g id="line2d_14">
      <g>
       <use xlink:href="#mdbade0ded8" x="200.425351" y="307.584" style="fill: #ffffff; stroke: #ffffff; stroke-width: 0.8"/>
      </g>
     </g>
     <g id="text_5">
      <text style="fill: #ffffff; font: 10px 'sans-serif'; text-anchor: middle" x="200.425351" y="322.182437" transform="rotate(-0, 200.425351, 322.182437)">−2</text>
     </g>
    </g>
    <g id="xtick_4">
     <g id="line2d_15">
      <g>
       <use xlink:href="#mdbade0ded8" x="236.16" y="307.584" style="fill: #ffffff; stroke: #ffffff; stroke-width: 0.8"/>
      </g>
     </g>
     <g id="text_6">
      <text style="fill: #ffffff; font: 10px 'sans-serif'; text-anchor: middle" x="236.16" y="322.182437" transform="rotate(-0, 236.16, 322.182437)">0</text>
     </g>
    </g>
    <g id="xtick_5">
     <g id="line2d_16">
      <g>
       <use xlink:href="#mdbade0ded8" x="271.894649" y="307.584" style="fill: #ffffff; stroke: #ffffff; stroke-width: 0.8"/>
      </g>
     </g>
     <g id="text_7">
      <text style="fill: #ffffff; font: 10px 'sans-serif'; text-anchor: middle" x="271.894649" y="322.182437" transform="rotate(-0, 271.894649, 322.182437)">2</text>
     </g>
    </g>
    <g id="xtick_6">
     <g id="line2d_17">
      <g>
       <use xlink:href="#mdbade0ded8" x="307.629298" y="307.584" style="fill: #ffffff; stroke: #ffffff; stroke-width: 0.8"/>
      </g>
     </g>
     <g id="text_8">
      <text style="fill: #ffffff; font: 10px 'sans-serif'; text-anchor: middle" x="307.629298" y="322.182437" transform="rotate(-0, 307.629298, 322.182437)">4</text>
     </g>
    </g>
    <g id="xtick_7">
     <g id="line2d_18">
      <g>
       <use xlink:href="#mdbade0ded8" x="343.363947" y="307.584" style="fill: #ffffff; stroke: #ffffff; stroke-width: 0.8"/>
      </g>
     </g>
     <g id="text_9">
      <text style="fill: #ffffff; font: 10px 'sans-serif'; text-anchor: middle" x="343.363947" y="322.182437" transform="rotate(-0, 343.363947, 322.182437)">6</text>
     </g>
    </g>
   </g>
   <g id="matplotlib.axis_2">
    <g id="ytick_1">
     <g id="line2d_19">
      <defs>
       <path id="maad0cc8aeb" d="M 0 0 
L -3.5 0 
" style="stroke: #ffffff; stroke-width: 0.8"/>
      </defs>
      <g>
       <use xlink:href="#maad0cc8aeb" x="110.374036" y="294.294463" style="fill: #ffffff; stroke: #ffffff; stroke-width: 0.8"/>
      </g>
     </g>
     <g id="text_10">
      <text style="fill: #ffffff; font: 10px 'sans-serif'; text-anchor: end" x="103.374036" y="298.093681" transform="rotate(-0, 103.374036, 298.093681)">−8</text>
     </g>
    </g>
    <g id="ytick_2">
     <g id="line2d_20">
      <g>
       <use xlink:href="#maad0cc8aeb" x="110.374036" y="258.559814" style="fill: #ffffff; stroke: #ffffff; stroke-width: 0.8"/>
      </g>
     </g>
     <g id="text_11">
      <text style="fill: #ffffff; font: 10px 'sans-serif'; text-anchor: end" x="103.374036" y="262.359033" transform="rotate(-0, 103.374036, 262.359033)">−6</text>
     </g>
    </g>
    <g id="ytick_3">
     <g id="line2d_21">
      <g>
       <use xlink:href="#maad0cc8aeb" x="110.374036" y="222.825165" style="fill: #ffffff; stroke: #ffffff; stroke-width: 0.8"/>
      </g>
     </g>
     <g id="text_12">
      <text style="fill: #ffffff; font: 10px 'sans-serif'; text-anchor: end" x="103.374036" y="226.624384" transform="rotate(-0, 103.374036, 226.624384)">−4</text>
     </g>
    </g>
    <g id="ytick_4">
     <g id="line2d_22">
      <g>
       <use xlink:href="#maad0cc8aeb" x="110.374036" y="187.090516" style="fill: #ffffff; stroke: #ffffff; stroke-width: 0.8"/>
      </g>
     </g>
     <g id="text_13">
      <text style="fill: #ffffff; font: 10px 'sans-serif'; text-anchor: end" x="103.374036" y="190.889735" transform="rotate(-0, 103.374036, 190.889735)">−2</text>
     </g>
    </g>
    <g id="ytick_5">
     <g id="line2d_23">
      <g>
       <use xlink:href="#maad0cc8aeb" x="110.374036" y="151.355867" style="fill: #ffffff; stroke: #ffffff; stroke-width: 0.8"/>
      </g>
     </g>
     <g id="text_14">
      <text style="fill: #ffffff; font: 10px 'sans-serif'; text-anchor: end" x="103.374036" y="155.155086" transform="rotate(-0, 103.374036, 155.155086)">0</text>
     </g>
    </g>
    <g id="ytick_6">
     <g id="line2d_24">
      <g>
       <use xlink:href="#maad0cc8aeb" x="110.374036" y="115.621218" style="fill: #ffffff; stroke: #ffffff; stroke-width: 0.8"/>
      </g>
     </g>
     <g id="text_15">
      <text style="fill: #ffffff; font: 10px 'sans-serif'; text-anchor: end" x="103.374036" y="119.420437" transform="rotate(-0, 103.374036, 119.420437)">2</text>
     </g>
    </g>
    <g id="ytick_7">
     <g id="line2d_25">
      <g>
       <use xlink:href="#maad0cc8aeb" x="110.374036" y="79.886569" style="fill: #ffffff; stroke: #ffffff; stroke-width: 0.8"/>
      </g>
     </g>
     <g id="text_16">
      <text style="fill: #ffffff; font: 10px 'sans-serif'; text-anchor: end" x="103.374036" y="83.685788" transform="rotate(-0, 103.374036, 83.685788)">4</text>
     </g>
    </g>
    <g id="ytick_8">
     <g id="line2d_26">
      <g>
       <use xlink:href="#maad0cc8aeb" x="110.374036" y="44.15192" style="fill: #ffffff; stroke: #ffffff; stroke-width: 0.8"/>
      </g>
     </g>
     <g id="text_17">
      <text style="fill: #ffffff; font: 10px 'sans-serif'; text-anchor: end" x="103.374036" y="47.951139" transform="rotate(-0, 103.374036, 47.951139)">6</text>
     </g>
    </g>
   </g>
   <g id="patch_24">
    <path d="M 110.374036 307.584 
L 110.374036 41.472 
" style="fill: none; stroke: #ffffff; stroke-width: 0.8; stroke-linejoin: miter; stroke-linecap: square"/>
   </g>
   <g id="patch_25">
    <path d="M 361.945964 307.584 
L 361.945964 41.472 
" style="fill: none; stroke: #ffffff; stroke-width: 0.8; stroke-linejoin: miter; stroke-linecap: square"/>
   </g>
   <g id="patch_26">
    <path d="M 110.374036 307.584 
L 361.945964 307.584 
" style="fill: none; stroke: #ffffff; stroke-width: 0.8; stroke-linejoin: miter; stroke-linecap: square"/>
   </g>
   <g id="patch_27">
    <path d="M 110.374036 41.472 
L 361.945964 41.472 
" style="fill: none; stroke: #ffffff; stroke-width: 0.8; stroke-linejoin: miter; stroke-linecap: square"/>
   </g>
   <g id="text_18">
    <text style="fill: #ffffff; font: 12px 'sans-serif'; text-anchor: middle" x="236.16" y="35.472" transform="rotate(-0, 236.16, 35.472)">POT-PTH-ALPS-KIT</text>
   </g>
  </g>
 </g>
 <defs>
  <clipPath id="p52812b4ed7">
   <rect x="110.374036" y="41.472" width="251.571929" height="266.112"/>
  </clipPath>
 </defs>
</svg>
