<?xml version="1.0" encoding="utf-8" standalone="no"?>
<!DOCTYPE svg PUBLIC "-//W3C//DTD SVG 1.1//EN"
  "http://www.w3.org/Graphics/SVG/1.1/DTD/svg11.dtd">
<svg xmlns:xlink="http://www.w3.org/1999/xlink" width="460.8pt" height="345.6pt" viewBox="0 0 460.8 345.6" xmlns="http://www.w3.org/2000/svg" version="1.1">
 <metadata>
  <rdf:RDF xmlns:dc="http://purl.org/dc/elements/1.1/" xmlns:cc="http://creativecommons.org/ns#" xmlns:rdf="http://www.w3.org/1999/02/22-rdf-syntax-ns#">
   <cc:Work>
    <dc:type rdf:resource="http://purl.org/dc/dcmitype/StillImage"/>
    <dc:date>2023-02-18T16:05:55.184630</dc:date>
    <dc:format>image/svg+xml</dc:format>
    <dc:creator>
     <cc:Agent>
      <dc:title>Matplotlib v3.5.1, https://matplotlib.org/</dc:title>
     </cc:Agent>
    </dc:creator>
   </cc:Work>
  </rdf:RDF>
 </metadata>
 <defs>
  <style type="text/css">*{stroke-linejoin: round; stroke-linecap: butt}</style>
 </defs>
 <g id="figure_1">
  <g id="patch_1">
   <path d="M 0 345.6 
L 460.8 345.6 
L 460.8 0 
L 0 0 
z
" style="fill: #2b2b2b"/>
  </g>
  <g id="axes_1">
   <g id="patch_2">
    <path d="M 144.534136 307.584 
L 327.785864 307.584 
L 327.785864 41.472 
L 144.534136 41.472 
z
" style="fill: #2b2b2b"/>
   </g>
   <g id="line2d_1">
    <path d="M 300.324135 187.85364 
L 171.995865 187.85364 
" clip-path="url(#p0113ad147c)" style="fill: none; stroke: #ffcd07; stroke-width: 2.644656; stroke-linecap: round"/>
   </g>
   <g id="line2d_2">
    <path d="M 171.995865 187.85364 
L 171.995865 63.742243 
" clip-path="url(#p0113ad147c)" style="fill: none; stroke: #ffcd07; stroke-width: 2.644656; stroke-linecap: round"/>
   </g>
   <g id="line2d_3">
    <path d="M 171.995865 63.742243 
L 300.324135 63.742243 
" clip-path="url(#p0113ad147c)" style="fill: none; stroke: #ffcd07; stroke-width: 2.644656; stroke-linecap: round"/>
   </g>
   <g id="line2d_4">
    <path d="M 300.324135 63.742243 
L 300.324135 187.85364 
" clip-path="url(#p0113ad147c)" style="fill: none; stroke: #ffcd07; stroke-width: 2.644656; stroke-linecap: round"/>
   </g>
   <g id="line2d_5">
    <path d="M 186.572707 199.437024 
L 186.572707 295.488 
" clip-path="url(#p0113ad147c)" style="fill: none; stroke: #ffcd07; stroke-width: 1.65291; stroke-linecap: round"/>
   </g>
   <g id="line2d_6">
    <path d="M 186.572707 295.488 
L 285.747293 295.488 
" clip-path="url(#p0113ad147c)" style="fill: none; stroke: #ffcd07; stroke-width: 1.65291; stroke-linecap: round"/>
   </g>
   <g id="line2d_7">
    <path d="M 285.747293 295.488 
L 285.747293 199.437024 
" clip-path="url(#p0113ad147c)" style="fill: none; stroke: #ffcd07; stroke-width: 1.65291; stroke-linecap: round"/>
   </g>
   <g id="patch_3">
    <path d="M 178.893835 121.419683 
C 184.504802 121.419683 189.886714 119.190422 193.854267 115.22287 
C 197.821819 111.255317 200.05108 105.873405 200.05108 100.262438 
C 200.05108 94.651471 197.821819 89.26956 193.854267 85.302007 
C 189.886714 81.334454 184.504802 79.105194 178.893835 79.105194 
C 173.282868 79.105194 167.900957 81.334454 163.933404 85.302007 
C 159.965851 89.26956 157.73659 94.651471 157.73659 100.262438 
C 157.73659 105.873405 159.965851 111.255317 163.933404 115.22287 
C 167.900957 119.190422 173.282868 121.419683 178.893835 121.419683 
L 178.893835 121.419683 
z
" clip-path="url(#p0113ad147c)" style="fill: none"/>
   </g>
   <g id="patch_4">
    <path d="M 268.697594 157.096504 
C 272.379791 157.096504 275.91167 155.633552 278.515377 153.029845 
C 281.119083 150.426139 282.582036 146.894259 282.582036 143.212062 
C 282.582036 139.529865 281.119083 135.997985 278.515377 133.394279 
C 275.91167 130.790572 272.379791 129.32762 268.697594 129.32762 
C 265.015397 129.32762 261.483517 130.790572 258.879811 133.394279 
C 256.276104 135.997985 254.813152 139.529865 254.813152 143.212062 
C 254.813152 146.894259 256.276104 150.426139 258.879811 153.029845 
C 261.483517 155.633552 265.015397 157.096504 268.697594 157.096504 
L 268.697594 157.096504 
z
" clip-path="url(#p0113ad147c)" style="fill: none"/>
   </g>
   <g id="patch_5">
    <path d="M 236.16 157.096504 
C 239.842197 157.096504 243.374077 155.633552 245.977783 153.029845 
C 248.58149 150.426139 250.044442 146.894259 250.044442 143.212062 
C 250.044442 139.529865 248.58149 135.997985 245.977783 133.394279 
C 243.374077 130.790572 239.842197 129.32762 236.16 129.32762 
C 232.477803 129.32762 228.945923 130.790572 226.342217 133.394279 
C 223.73851 135.997985 222.275558 139.529865 222.275558 143.212062 
C 222.275558 146.894259 223.73851 150.426139 226.342217 153.029845 
C 228.945923 155.633552 232.477803 157.096504 236.16 157.096504 
L 236.16 157.096504 
z
" clip-path="url(#p0113ad147c)" style="fill: none"/>
   </g>
   <g id="patch_6">
    <path d="M 203.622406 157.096504 
C 207.304603 157.096504 210.836483 155.633552 213.440189 153.029845 
C 216.043896 150.426139 217.506848 146.894259 217.506848 143.212062 
C 217.506848 139.529865 216.043896 135.997985 213.440189 133.394279 
C 210.836483 130.790572 207.304603 129.32762 203.622406 129.32762 
C 199.940209 129.32762 196.40833 130.790572 193.804623 133.394279 
C 191.200917 135.997985 189.737964 139.529865 189.737964 143.212062 
C 189.737964 146.894259 191.200917 150.426139 193.804623 153.029845 
C 196.40833 155.633552 199.940209 157.096504 203.622406 157.096504 
L 203.622406 157.096504 
z
" clip-path="url(#p0113ad147c)" style="fill: none"/>
   </g>
   <g id="patch_7">
    <path d="M 293.426165 121.419683 
C 299.037132 121.419683 304.419043 119.190422 308.386596 115.22287 
C 312.354149 111.255317 314.58341 105.873405 314.58341 100.262438 
C 314.58341 94.651471 312.354149 89.26956 308.386596 85.302007 
C 304.419043 81.334454 299.037132 79.105194 293.426165 79.105194 
C 287.815198 79.105194 282.433286 81.334454 278.465733 85.302007 
C 274.498181 89.26956 272.26892 94.651471 272.26892 100.262438 
C 272.26892 105.873405 274.498181 111.255317 278.465733 115.22287 
C 282.433286 119.190422 287.815198 121.419683 293.426165 121.419683 
L 293.426165 121.419683 
z
" clip-path="url(#p0113ad147c)" style="fill: none"/>
   </g>
   <g id="patch_8">
    <path d="M 293.426165 113.277476 
C 296.877793 113.277476 300.188516 111.906129 302.629186 109.46546 
C 305.069856 107.02479 306.441202 103.714067 306.441202 100.262438 
C 306.441202 96.81081 305.069856 93.500087 302.629186 91.059417 
C 300.188516 88.618747 296.877793 87.247401 293.426165 87.247401 
C 289.974536 87.247401 286.663813 88.618747 284.223144 91.059417 
C 281.782474 93.500087 280.411127 96.81081 280.411127 100.262438 
C 280.411127 103.714067 281.782474 107.02479 284.223144 109.46546 
C 286.663813 111.906129 289.974536 113.277476 293.426165 113.277476 
L 293.426165 113.277476 
z
" clip-path="url(#p0113ad147c)" style="fill: none"/>
   </g>
   <g id="patch_9">
    <path d="M 178.893835 113.277476 
C 182.345464 113.277476 185.656187 111.906129 188.096856 109.46546 
C 190.537526 107.02479 191.908873 103.714067 191.908873 100.262438 
C 191.908873 96.81081 190.537526 93.500087 188.096856 91.059417 
C 185.656187 88.618747 182.345464 87.247401 178.893835 87.247401 
C 175.442207 87.247401 172.131484 88.618747 169.690814 91.059417 
C 167.250144 93.500087 165.878798 96.81081 165.878798 100.262438 
C 165.878798 103.714067 167.250144 107.02479 169.690814 109.46546 
C 172.131484 111.906129 175.442207 113.277476 178.893835 113.277476 
L 178.893835 113.277476 
z
" clip-path="url(#p0113ad147c)" style="fill: none"/>
   </g>
   <g id="patch_10">
    <path d="M 268.697594 149.719581 
C 270.423408 149.719581 272.078769 149.033907 273.299104 147.813573 
C 274.519439 146.593238 275.205112 144.937876 275.205112 143.212062 
C 275.205112 141.486248 274.519439 139.830886 273.299104 138.610551 
C 272.078769 137.390216 270.423408 136.704543 268.697594 136.704543 
C 266.971779 136.704543 265.316418 137.390216 264.096083 138.610551 
C 262.875748 139.830886 262.190075 141.486248 262.190075 143.212062 
C 262.190075 144.937876 262.875748 146.593238 264.096083 147.813573 
C 265.316418 149.033907 266.971779 149.719581 268.697594 149.719581 
L 268.697594 149.719581 
z
" clip-path="url(#p0113ad147c)" style="fill: none"/>
   </g>
   <g id="patch_11">
    <path d="M 236.16 149.719581 
C 237.885814 149.719581 239.541176 149.033907 240.761511 147.813573 
C 241.981845 146.593238 242.667519 144.937876 242.667519 143.212062 
C 242.667519 141.486248 241.981845 139.830886 240.761511 138.610551 
C 239.541176 137.390216 237.885814 136.704543 236.16 136.704543 
C 234.434186 136.704543 232.778824 137.390216 231.558489 138.610551 
C 230.338155 139.830886 229.652481 141.486248 229.652481 143.212062 
C 229.652481 144.937876 230.338155 146.593238 231.558489 147.813573 
C 232.778824 149.033907 234.434186 149.719581 236.16 149.719581 
L 236.16 149.719581 
z
" clip-path="url(#p0113ad147c)" style="fill: none"/>
   </g>
   <g id="patch_12">
    <path d="M 203.622406 149.719581 
C 205.348221 149.719581 207.003582 149.033907 208.223917 147.813573 
C 209.444252 146.593238 210.129925 144.937876 210.129925 143.212062 
C 210.129925 141.486248 209.444252 139.830886 208.223917 138.610551 
C 207.003582 137.390216 205.348221 136.704543 203.622406 136.704543 
C 201.896592 136.704543 200.241231 137.390216 199.020896 138.610551 
C 197.800561 139.830886 197.114888 141.486248 197.114888 143.212062 
C 197.114888 144.937876 197.800561 146.593238 199.020896 147.813573 
C 200.241231 149.033907 201.896592 149.719581 203.622406 149.719581 
L 203.622406 149.719581 
z
" clip-path="url(#p0113ad147c)" style="fill: none"/>
   </g>
   <g id="patch_13">
    <path d="M 236.16 67.334394 
C 236.194516 67.334394 236.227624 67.32068 236.25203 67.296274 
C 236.276437 67.271867 236.29015 67.23876 236.29015 67.204243 
C 236.29015 67.169727 236.276437 67.13662 236.25203 67.112213 
C 236.227624 67.087806 236.194516 67.074093 236.16 67.074093 
C 236.125484 67.074093 236.092376 67.087806 236.06797 67.112213 
C 236.043563 67.13662 236.02985 67.169727 236.02985 67.204243 
C 236.02985 67.23876 236.043563 67.271867 236.06797 67.296274 
C 236.092376 67.32068 236.125484 67.334394 236.16 67.334394 
L 236.16 67.334394 
z
" clip-path="url(#p0113ad147c)" style="fill: none; stroke: #ffcd07; stroke-width: 1.301504; stroke-linejoin: miter"/>
   </g>
   <g id="line2d_8">
    <path d="M 222.202313 69.448246 
L 226.315501 71.171337 
L 226.315501 71.171337 
L 222.20212 72.894521 
L 222.20212 72.894521 
" clip-path="url(#p0113ad147c)" style="fill: none; stroke: #ffcd07; stroke-width: 0.317359; stroke-linecap: round"/>
   </g>
   <g id="line2d_9">
    <path d="M 226.990256 68.113759 
L 229.047199 74.229001 
L 229.047199 74.229001 
L 231.048318 68.113602 
L 231.048318 68.113602 
" clip-path="url(#p0113ad147c)" style="fill: none; stroke: #ffcd07; stroke-width: 0.317359; stroke-linecap: round"/>
   </g>
   <g id="line2d_10">
    <path d="M 235.141484 71.724195 
L 233.58493 71.724195 
L 233.140201 71.835378 
L 232.751063 72.113333 
L 232.473107 72.446881 
L 232.417516 72.947201 
L 232.473107 73.391931 
L 232.751063 73.781069 
L 233.140201 74.059025 
L 233.58493 74.114616 
L 235.141484 74.114616 
L 235.141484 71.057101 
L 235.030301 70.667963 
L 234.807936 70.334416 
L 234.474389 70.112051 
L 234.085251 70.05646 
L 232.751063 70.05646 
" clip-path="url(#p0113ad147c)" style="fill: none; stroke: #ffcd07; stroke-width: 0.317359; stroke-linecap: round"/>
   </g>
   <g id="line2d_11">
    <path d="M 238.039687 67.998436 
L 238.039687 73.112825 
L 238.095278 73.501963 
L 238.317643 73.83551 
L 238.65119 74.057875 
L 239.040329 74.113466 
" clip-path="url(#p0113ad147c)" style="fill: none; stroke: #ffcd07; stroke-width: 0.317359; stroke-linecap: round"/>
   </g>
   <g id="line2d_12">
    <path d="M 241.938431 70.055306 
L 241.938431 73.112821 
L 242.049614 73.50196 
L 242.271978 73.835507 
L 242.605525 74.057871 
L 242.994664 74.113463 
L 244.662399 74.113463 
L 244.662399 70.055306 
" clip-path="url(#p0113ad147c)" style="fill: none; stroke: #ffcd07; stroke-width: 0.317359; stroke-linecap: round"/>
   </g>
   <g id="line2d_13">
    <path d="M 249.423196 74.113521 
L 247.699869 74.113521 
L 247.310731 74.05793 
L 246.977184 73.835565 
L 246.754819 73.502018 
L 246.754819 73.502018 
L 246.699228 73.11288 
L 246.699228 73.11288 
L 246.699228 71.389553 
L 246.754819 70.944823 
L 247.032775 70.500094 
L 247.366322 70.222138 
L 247.811052 70.055365 
L 248.311372 70.055365 
L 248.756102 70.222138 
L 249.089649 70.500094 
L 249.312013 70.944823 
L 249.423196 71.389553 
L 249.423196 72.056647 
L 246.699228 72.056647 
" clip-path="url(#p0113ad147c)" style="fill: none; stroke: #ffcd07; stroke-width: 0.317359; stroke-linecap: round"/>
   </g>
   <g id="patch_14">
    <path d="M 236.16 60.722755 
C 236.194516 60.722755 236.227624 60.709041 236.25203 60.684634 
C 236.276437 60.660228 236.29015 60.627121 236.29015 60.592604 
C 236.29015 60.558088 236.276437 60.524981 236.25203 60.500574 
C 236.227624 60.476167 236.194516 60.462454 236.16 60.462454 
C 236.125484 60.462454 236.092376 60.476167 236.06797 60.500574 
C 236.043563 60.524981 236.02985 60.558088 236.02985 60.592604 
C 236.02985 60.627121 236.043563 60.660228 236.06797 60.684634 
C 236.092376 60.709041 236.125484 60.722755 236.16 60.722755 
L 236.16 60.722755 
z
" clip-path="url(#p0113ad147c)" style="fill: none; stroke: #808080; stroke-width: 1.301504; stroke-linejoin: miter"/>
   </g>
   <g id="line2d_14">
    <path d="M 224.582503 54.902641 
L 228.695691 56.625731 
L 228.695691 56.625731 
L 224.58231 58.348915 
L 224.58231 58.348915 
" clip-path="url(#p0113ad147c)" style="fill: none; stroke: #808080; stroke-width: 0.317359; stroke-linecap: round"/>
   </g>
   <g id="line2d_15">
    <path d="M 229.704388 59.68303 
L 229.704388 53.568 
L 233.09545 59.68303 
L 233.09545 53.568 
" clip-path="url(#p0113ad147c)" style="fill: none; stroke: #808080; stroke-width: 0.317359; stroke-linecap: round"/>
   </g>
   <g id="line2d_16">
    <path d="M 237.521674 57.178589 
L 235.965121 57.178589 
L 235.520391 57.289772 
L 235.131253 57.567728 
L 234.853297 57.901275 
L 234.797706 58.401595 
L 234.853297 58.846325 
L 235.131253 59.235463 
L 235.520391 59.513419 
L 235.965121 59.56901 
L 237.521674 59.56901 
L 237.521674 56.511495 
L 237.410491 56.122357 
L 237.188127 55.78881 
L 236.854579 55.566445 
L 236.465441 55.510854 
L 235.131253 55.510854 
" clip-path="url(#p0113ad147c)" style="fill: none; stroke: #808080; stroke-width: 0.317359; stroke-linecap: round"/>
   </g>
   <g id="line2d_17">
    <path d="M 238.863335 59.568152 
L 238.863335 55.509996 
L 241.92085 55.509996 
L 242.309988 55.565587 
L 242.643535 55.787952 
L 242.8659 56.121499 
L 242.977082 56.510637 
L 242.977082 59.568152 
" clip-path="url(#p0113ad147c)" style="fill: none; stroke: #808080; stroke-width: 0.317359; stroke-linecap: round"/>
   </g>
   <g id="line2d_18">
    <path d="M 240.920544 59.567863 
L 240.920544 55.509706 
" clip-path="url(#p0113ad147c)" style="fill: none; stroke: #808080; stroke-width: 0.317359; stroke-linecap: round"/>
   </g>
   <g id="line2d_19">
    <path d="M 247.043006 59.567915 
L 245.319679 59.567915 
L 244.930541 59.512324 
L 244.596994 59.289959 
L 244.374629 58.956412 
L 244.374629 58.956412 
L 244.319038 58.567274 
L 244.319038 58.567274 
L 244.319038 56.843947 
L 244.374629 56.399218 
L 244.652585 55.954488 
L 244.986132 55.676532 
L 245.430861 55.509759 
L 245.931182 55.509759 
L 246.375912 55.676532 
L 246.709459 55.954488 
L 246.931823 56.399218 
L 247.043006 56.843947 
L 247.043006 57.511041 
L 244.319038 57.511041 
" clip-path="url(#p0113ad147c)" style="fill: none; stroke: #808080; stroke-width: 0.317359; stroke-linecap: round"/>
   </g>
   <g id="line2d_20">
    <path d="M 301.977044 62.089334 
L 301.977044 80.08913 
" clip-path="url(#p0113ad147c)" style="fill: none; stroke: #808080; stroke-width: 2.644656; stroke-linecap: round"/>
   </g>
   <g id="line2d_21">
    <path d="M 301.977044 120.435746 
L 301.977044 189.50655 
" clip-path="url(#p0113ad147c)" style="fill: none; stroke: #808080; stroke-width: 2.644656; stroke-linecap: round"/>
   </g>
   <g id="line2d_22">
    <path d="M 170.342956 62.089334 
L 301.977044 62.089334 
" clip-path="url(#p0113ad147c)" style="fill: none; stroke: #808080; stroke-width: 2.644656; stroke-linecap: round"/>
   </g>
   <g id="line2d_23">
    <path d="M 170.342956 189.50655 
L 170.342956 120.435746 
" clip-path="url(#p0113ad147c)" style="fill: none; stroke: #808080; stroke-width: 2.644656; stroke-linecap: round"/>
   </g>
   <g id="line2d_24">
    <path d="M 170.342956 80.08913 
L 170.342956 62.089334 
" clip-path="url(#p0113ad147c)" style="fill: none; stroke: #808080; stroke-width: 2.644656; stroke-linecap: round"/>
   </g>
   <g id="line2d_25">
    <path d="M 301.977044 189.50655 
L 170.342956 189.50655 
" clip-path="url(#p0113ad147c)" style="fill: none; stroke: #808080; stroke-width: 2.644656; stroke-linecap: round"/>
   </g>
   <g id="patch_15">
    <path d="M 203.622406 155.443594 
C 206.866247 155.443594 209.977664 154.154803 212.271406 151.861061 
C 214.565147 149.56732 215.853939 146.455902 215.853939 143.212062 
C 215.853939 139.968222 214.565147 136.856804 212.271406 134.563063 
C 209.977664 132.269321 206.866247 130.98053 203.622406 130.98053 
C 200.378566 130.98053 197.267148 132.269321 194.973407 134.563063 
C 192.679666 136.856804 191.390874 139.968222 191.390874 143.212062 
C 191.390874 146.455902 192.679666 149.56732 194.973407 151.861061 
C 197.267148 154.154803 200.378566 155.443594 203.622406 155.443594 
z
" clip-path="url(#p0113ad147c)" style="fill: #0dab76"/>
   </g>
   <g id="patch_16">
    <path d="M 203.622406 149.719581 
C 205.348221 149.719581 207.003582 149.033907 208.223917 147.813573 
C 209.444252 146.593238 210.129925 144.937876 210.129925 143.212062 
C 210.129925 141.486248 209.444252 139.830886 208.223917 138.610551 
C 207.003582 137.390216 205.348221 136.704543 203.622406 136.704543 
C 201.896592 136.704543 200.241231 137.390216 199.020896 138.610551 
C 197.800561 139.830886 197.114888 141.486248 197.114888 143.212062 
C 197.114888 144.937876 197.800561 146.593238 199.020896 147.813573 
C 200.241231 149.033907 201.896592 149.719581 203.622406 149.719581 
z
" clip-path="url(#p0113ad147c)" style="fill: #a0a0a0"/>
   </g>
   <g id="patch_17">
    <path d="M 236.16 155.443594 
C 239.40384 155.443594 242.515258 154.154803 244.808999 151.861061 
C 247.102741 149.56732 248.391532 146.455902 248.391532 143.212062 
C 248.391532 139.968222 247.102741 136.856804 244.808999 134.563063 
C 242.515258 132.269321 239.40384 130.98053 236.16 130.98053 
C 232.91616 130.98053 229.804742 132.269321 227.511001 134.563063 
C 225.217259 136.856804 223.928468 139.968222 223.928468 143.212062 
C 223.928468 146.455902 225.217259 149.56732 227.511001 151.861061 
C 229.804742 154.154803 232.91616 155.443594 236.16 155.443594 
z
" clip-path="url(#p0113ad147c)" style="fill: #0dab76"/>
   </g>
   <g id="patch_18">
    <path d="M 236.16 149.719581 
C 237.885814 149.719581 239.541176 149.033907 240.761511 147.813573 
C 241.981845 146.593238 242.667519 144.937876 242.667519 143.212062 
C 242.667519 141.486248 241.981845 139.830886 240.761511 138.610551 
C 239.541176 137.390216 237.885814 136.704543 236.16 136.704543 
C 234.434186 136.704543 232.778824 137.390216 231.558489 138.610551 
C 230.338155 139.830886 229.652481 141.486248 229.652481 143.212062 
C 229.652481 144.937876 230.338155 146.593238 231.558489 147.813573 
C 232.778824 149.033907 234.434186 149.719581 236.16 149.719581 
z
" clip-path="url(#p0113ad147c)" style="fill: #a0a0a0"/>
   </g>
   <g id="patch_19">
    <path d="M 268.697594 155.443594 
C 271.941434 155.443594 275.052852 154.154803 277.346593 151.861061 
C 279.640334 149.56732 280.929126 146.455902 280.929126 143.212062 
C 280.929126 139.968222 279.640334 136.856804 277.346593 134.563063 
C 275.052852 132.269321 271.941434 130.98053 268.697594 130.98053 
C 265.453753 130.98053 262.342336 132.269321 260.048594 134.563063 
C 257.754853 136.856804 256.466061 139.968222 256.466061 143.212062 
C 256.466061 146.455902 257.754853 149.56732 260.048594 151.861061 
C 262.342336 154.154803 265.453753 155.443594 268.697594 155.443594 
z
" clip-path="url(#p0113ad147c)" style="fill: #0dab76"/>
   </g>
   <g id="patch_20">
    <path d="M 268.697594 149.719581 
C 270.423408 149.719581 272.078769 149.033907 273.299104 147.813573 
C 274.519439 146.593238 275.205112 144.937876 275.205112 143.212062 
C 275.205112 141.486248 274.519439 139.830886 273.299104 138.610551 
C 272.078769 137.390216 270.423408 136.704543 268.697594 136.704543 
C 266.971779 136.704543 265.316418 137.390216 264.096083 138.610551 
C 262.875748 139.830886 262.190075 141.486248 262.190075 143.212062 
C 262.190075 144.937876 262.875748 146.593238 264.096083 147.813573 
C 265.316418 149.033907 266.971779 149.719581 268.697594 149.719581 
z
" clip-path="url(#p0113ad147c)" style="fill: #a0a0a0"/>
   </g>
   <g id="patch_21">
    <path d="M 178.893835 126.292513 
C 185.797092 126.292513 192.418538 123.54982 197.299878 118.668481 
C 202.181217 113.787141 204.92391 107.165695 204.92391 100.262438 
C 204.92391 93.359182 202.181217 86.737735 197.299878 81.856396 
C 192.418538 76.975056 185.797092 74.232364 178.893835 74.232364 
C 171.990579 74.232364 165.369132 76.975056 160.487793 81.856396 
C 155.606453 86.737735 152.86376 93.359182 152.86376 100.262438 
C 152.86376 107.165695 155.606453 113.787141 160.487793 118.668481 
C 165.369132 123.54982 171.990579 126.292513 178.893835 126.292513 
z
" clip-path="url(#p0113ad147c)" style="fill: #0dab76"/>
   </g>
   <g id="patch_22">
    <path d="M 178.893835 113.277476 
C 182.345464 113.277476 185.656187 111.906129 188.096856 109.46546 
C 190.537526 107.02479 191.908873 103.714067 191.908873 100.262438 
C 191.908873 96.81081 190.537526 93.500087 188.096856 91.059417 
C 185.656187 88.618747 182.345464 87.247401 178.893835 87.247401 
C 175.442207 87.247401 172.131484 88.618747 169.690814 91.059417 
C 167.250144 93.500087 165.878798 96.81081 165.878798 100.262438 
C 165.878798 103.714067 167.250144 107.02479 169.690814 109.46546 
C 172.131484 111.906129 175.442207 113.277476 178.893835 113.277476 
z
" clip-path="url(#p0113ad147c)" style="fill: #a0a0a0"/>
   </g>
   <g id="patch_23">
    <path d="M 293.426165 126.292513 
C 300.329421 126.292513 306.950868 123.54982 311.832207 118.668481 
C 316.713547 113.787141 319.45624 107.165695 319.45624 100.262438 
C 319.45624 93.359182 316.713547 86.737735 311.832207 81.856396 
C 306.950868 76.975056 300.329421 74.232364 293.426165 74.232364 
C 286.522908 74.232364 279.901462 76.975056 275.020122 81.856396 
C 270.138783 86.737735 267.39609 93.359182 267.39609 100.262438 
C 267.39609 107.165695 270.138783 113.787141 275.020122 118.668481 
C 279.901462 123.54982 286.522908 126.292513 293.426165 126.292513 
z
" clip-path="url(#p0113ad147c)" style="fill: #0dab76"/>
   </g>
   <g id="patch_24">
    <path d="M 293.426165 113.277476 
C 296.877793 113.277476 300.188516 111.906129 302.629186 109.46546 
C 305.069856 107.02479 306.441202 103.714067 306.441202 100.262438 
C 306.441202 96.81081 305.069856 93.500087 302.629186 91.059417 
C 300.188516 88.618747 296.877793 87.247401 293.426165 87.247401 
C 289.974536 87.247401 286.663813 88.618747 284.223144 91.059417 
C 281.782474 93.500087 280.411127 96.81081 280.411127 100.262438 
C 280.411127 103.714067 281.782474 107.02479 284.223144 109.46546 
C 286.663813 111.906129 289.974536 113.277476 293.426165 113.277476 
z
" clip-path="url(#p0113ad147c)" style="fill: #a0a0a0"/>
   </g>
   <g id="matplotlib.axis_1">
    <g id="xtick_1">
     <g id="line2d_26">
      <defs>
       <path id="mde0791b1be" d="M 0 0 
L 0 3.5 
" style="stroke: #ffffff; stroke-width: 0.8"/>
      </defs>
      <g>
       <use xlink:href="#mde0791b1be" x="171.084813" y="307.584" style="fill: #ffffff; stroke: #ffffff; stroke-width: 0.8"/>
      </g>
     </g>
     <g id="text_1">
      <text style="fill: #ffffff; font: 10px 'sans-serif'; text-anchor: middle" x="171.084813" y="322.182437" transform="rotate(-0, 171.084813, 322.182437)">−5.0</text>
     </g>
    </g>
    <g id="xtick_2">
     <g id="line2d_27">
      <g>
       <use xlink:href="#mde0791b1be" x="203.622406" y="307.584" style="fill: #ffffff; stroke: #ffffff; stroke-width: 0.8"/>
      </g>
     </g>
     <g id="text_2">
      <text style="fill: #ffffff; font: 10px 'sans-serif'; text-anchor: middle" x="203.622406" y="322.182437" transform="rotate(-0, 203.622406, 322.182437)">−2.5</text>
     </g>
    </g>
    <g id="xtick_3">
     <g id="line2d_28">
      <g>
       <use xlink:href="#mde0791b1be" x="236.16" y="307.584" style="fill: #ffffff; stroke: #ffffff; stroke-width: 0.8"/>
      </g>
     </g>
     <g id="text_3">
      <text style="fill: #ffffff; font: 10px 'sans-serif'; text-anchor: middle" x="236.16" y="322.182437" transform="rotate(-0, 236.16, 322.182437)">0.0</text>
     </g>
    </g>
    <g id="xtick_4">
     <g id="line2d_29">
      <g>
       <use xlink:href="#mde0791b1be" x="268.697594" y="307.584" style="fill: #ffffff; stroke: #ffffff; stroke-width: 0.8"/>
      </g>
     </g>
     <g id="text_4">
      <text style="fill: #ffffff; font: 10px 'sans-serif'; text-anchor: middle" x="268.697594" y="322.182437" transform="rotate(-0, 268.697594, 322.182437)">2.5</text>
     </g>
    </g>
    <g id="xtick_5">
     <g id="line2d_30">
      <g>
       <use xlink:href="#mde0791b1be" x="301.235187" y="307.584" style="fill: #ffffff; stroke: #ffffff; stroke-width: 0.8"/>
      </g>
     </g>
     <g id="text_5">
      <text style="fill: #ffffff; font: 10px 'sans-serif'; text-anchor: middle" x="301.235187" y="322.182437" transform="rotate(-0, 301.235187, 322.182437)">5.0</text>
     </g>
    </g>
   </g>
   <g id="matplotlib.axis_2">
    <g id="ytick_1">
     <g id="line2d_31">
      <defs>
       <path id="m0c9114927d" d="M 0 0 
L -3.5 0 
" style="stroke: #ffffff; stroke-width: 0.8"/>
      </defs>
      <g>
       <use xlink:href="#m0c9114927d" x="144.534136" y="295.488" style="fill: #ffffff; stroke: #ffffff; stroke-width: 0.8"/>
      </g>
     </g>
     <g id="text_6">
      <text style="fill: #ffffff; font: 10px 'sans-serif'; text-anchor: end" x="137.534136" y="299.287219" transform="rotate(-0, 137.534136, 299.287219)">−15.0</text>
     </g>
    </g>
    <g id="ytick_2">
     <g id="line2d_32">
      <g>
       <use xlink:href="#m0c9114927d" x="144.534136" y="262.950406" style="fill: #ffffff; stroke: #ffffff; stroke-width: 0.8"/>
      </g>
     </g>
     <g id="text_7">
      <text style="fill: #ffffff; font: 10px 'sans-serif'; text-anchor: end" x="137.534136" y="266.749625" transform="rotate(-0, 137.534136, 266.749625)">−12.5</text>
     </g>
    </g>
    <g id="ytick_3">
     <g id="line2d_33">
      <g>
       <use xlink:href="#m0c9114927d" x="144.534136" y="230.412813" style="fill: #ffffff; stroke: #ffffff; stroke-width: 0.8"/>
      </g>
     </g>
     <g id="text_8">
      <text style="fill: #ffffff; font: 10px 'sans-serif'; text-anchor: end" x="137.534136" y="234.212032" transform="rotate(-0, 137.534136, 234.212032)">−10.0</text>
     </g>
    </g>
    <g id="ytick_4">
     <g id="line2d_34">
      <g>
       <use xlink:href="#m0c9114927d" x="144.534136" y="197.875219" style="fill: #ffffff; stroke: #ffffff; stroke-width: 0.8"/>
      </g>
     </g>
     <g id="text_9">
      <text style="fill: #ffffff; font: 10px 'sans-serif'; text-anchor: end" x="137.534136" y="201.674438" transform="rotate(-0, 137.534136, 201.674438)">−7.5</text>
     </g>
    </g>
    <g id="ytick_5">
     <g id="line2d_35">
      <g>
       <use xlink:href="#m0c9114927d" x="144.534136" y="165.337626" style="fill: #ffffff; stroke: #ffffff; stroke-width: 0.8"/>
      </g>
     </g>
     <g id="text_10">
      <text style="fill: #ffffff; font: 10px 'sans-serif'; text-anchor: end" x="137.534136" y="169.136844" transform="rotate(-0, 137.534136, 169.136844)">−5.0</text>
     </g>
    </g>
    <g id="ytick_6">
     <g id="line2d_36">
      <g>
       <use xlink:href="#m0c9114927d" x="144.534136" y="132.800032" style="fill: #ffffff; stroke: #ffffff; stroke-width: 0.8"/>
      </g>
     </g>
     <g id="text_11">
      <text style="fill: #ffffff; font: 10px 'sans-serif'; text-anchor: end" x="137.534136" y="136.599251" transform="rotate(-0, 137.534136, 136.599251)">−2.5</text>
     </g>
    </g>
    <g id="ytick_7">
     <g id="line2d_37">
      <g>
       <use xlink:href="#m0c9114927d" x="144.534136" y="100.262438" style="fill: #ffffff; stroke: #ffffff; stroke-width: 0.8"/>
      </g>
     </g>
     <g id="text_12">
      <text style="fill: #ffffff; font: 10px 'sans-serif'; text-anchor: end" x="137.534136" y="104.061657" transform="rotate(-0, 137.534136, 104.061657)">0.0</text>
     </g>
    </g>
    <g id="ytick_8">
     <g id="line2d_38">
      <g>
       <use xlink:href="#m0c9114927d" x="144.534136" y="67.724845" style="fill: #ffffff; stroke: #ffffff; stroke-width: 0.8"/>
      </g>
     </g>
     <g id="text_13">
      <text style="fill: #ffffff; font: 10px 'sans-serif'; text-anchor: end" x="137.534136" y="71.524064" transform="rotate(-0, 137.534136, 71.524064)">2.5</text>
     </g>
    </g>
   </g>
   <g id="patch_25">
    <path d="M 144.534136 307.584 
L 144.534136 41.472 
" style="fill: none; stroke: #ffffff; stroke-width: 0.8; stroke-linejoin: miter; stroke-linecap: square"/>
   </g>
   <g id="patch_26">
    <path d="M 327.785864 307.584 
L 327.785864 41.472 
" style="fill: none; stroke: #ffffff; stroke-width: 0.8; stroke-linejoin: miter; stroke-linecap: square"/>
   </g>
   <g id="patch_27">
    <path d="M 144.534136 307.584 
L 327.785864 307.584 
" style="fill: none; stroke: #ffffff; stroke-width: 0.8; stroke-linejoin: miter; stroke-linecap: square"/>
   </g>
   <g id="patch_28">
    <path d="M 144.534136 41.472 
L 327.785864 41.472 
" style="fill: none; stroke: #ffffff; stroke-width: 0.8; stroke-linejoin: miter; stroke-linecap: square"/>
   </g>
   <g id="text_14">
    <text style="fill: #ffffff; font: 12px 'sans-serif'; text-anchor: middle" x="236.16" y="35.472" transform="rotate(-0, 236.16, 35.472)">POT-PTH-ALPS-H</text>
   </g>
  </g>
 </g>
 <defs>
  <clipPath id="p0113ad147c">
   <rect x="144.534136" y="41.472" width="183.251727" height="266.112"/>
  </clipPath>
 </defs>
</svg>
