<?xml version="1.0" encoding="utf-8" standalone="no"?>
<!DOCTYPE svg PUBLIC "-//W3C//DTD SVG 1.1//EN"
  "http://www.w3.org/Graphics/SVG/1.1/DTD/svg11.dtd">
<svg xmlns:xlink="http://www.w3.org/1999/xlink" width="460.8pt" height="345.6pt" viewBox="0 0 460.8 345.6" xmlns="http://www.w3.org/2000/svg" version="1.1">
 <metadata>
  <rdf:RDF xmlns:dc="http://purl.org/dc/elements/1.1/" xmlns:cc="http://creativecommons.org/ns#" xmlns:rdf="http://www.w3.org/1999/02/22-rdf-syntax-ns#">
   <cc:Work>
    <dc:type rdf:resource="http://purl.org/dc/dcmitype/StillImage"/>
    <dc:date>2023-02-18T16:05:55.016437</dc:date>
    <dc:format>image/svg+xml</dc:format>
    <dc:creator>
     <cc:Agent>
      <dc:title>Matplotlib v3.5.1, https://matplotlib.org/</dc:title>
     </cc:Agent>
    </dc:creator>
   </cc:Work>
  </rdf:RDF>
 </metadata>
 <defs>
  <style type="text/css">*{stroke-linejoin: round; stroke-linecap: butt}</style>
 </defs>
 <g id="figure_1">
  <g id="patch_1">
   <path d="M 0 345.6 
L 460.8 345.6 
L 460.8 0 
L 0 0 
z
" style="fill: #2b2b2b"/>
  </g>
  <g id="axes_1">
   <g id="patch_2">
    <path d="M 116.175977 307.584 
L 356.144023 307.584 
L 356.144023 41.472 
L 116.175977 41.472 
z
" style="fill: #2b2b2b"/>
   </g>
   <g id="line2d_1">
    <path d="M 320.182903 272.70467 
L 152.137097 272.70467 
" clip-path="url(#p1edbf1bfe8)" style="fill: none; stroke: #ffcd07; stroke-width: 3.463175; stroke-linecap: round"/>
   </g>
   <g id="line2d_2">
    <path d="M 152.137097 272.70467 
L 152.137097 66.891167 
" clip-path="url(#p1edbf1bfe8)" style="fill: none; stroke: #ffcd07; stroke-width: 3.463175; stroke-linecap: round"/>
   </g>
   <g id="line2d_3">
    <path d="M 152.137097 66.891167 
L 320.182903 66.891167 
" clip-path="url(#p1edbf1bfe8)" style="fill: none; stroke: #ffcd07; stroke-width: 3.463175; stroke-linecap: round"/>
   </g>
   <g id="line2d_4">
    <path d="M 320.182903 66.891167 
L 320.182903 272.70467 
" clip-path="url(#p1edbf1bfe8)" style="fill: none; stroke: #ffcd07; stroke-width: 3.463175; stroke-linecap: round"/>
   </g>
   <g id="patch_3">
    <path d="M 161.169985 185.709436 
C 168.517544 185.709436 175.565155 182.79022 180.760663 177.594712 
C 185.956171 172.399203 188.875387 165.351593 188.875387 158.004034 
C 188.875387 150.656476 185.956171 143.608865 180.760663 138.413357 
C 175.565155 133.217848 168.517544 130.298633 161.169985 130.298633 
C 153.822427 130.298633 146.774816 133.217848 141.579308 138.413357 
C 136.3838 143.608865 133.464584 150.656476 133.464584 158.004034 
C 133.464584 165.351593 136.3838 172.399203 141.579308 177.594712 
C 146.774816 182.79022 153.822427 185.709436 161.169985 185.709436 
L 161.169985 185.709436 
z
" clip-path="url(#p1edbf1bfe8)" style="fill: none"/>
   </g>
   <g id="patch_4">
    <path d="M 278.767963 295.488 
C 283.589798 295.488 288.214792 293.572265 291.624345 290.162712 
C 295.033897 286.75316 296.949633 282.128165 296.949633 277.30633 
C 296.949633 272.484495 295.033897 267.8595 291.624345 264.449948 
C 288.214792 261.040396 283.589798 259.12466 278.767963 259.12466 
C 273.946128 259.12466 269.321133 261.040396 265.911581 264.449948 
C 262.502028 267.8595 260.586293 272.484495 260.586293 277.30633 
C 260.586293 282.128165 262.502028 286.75316 265.911581 290.162712 
C 269.321133 293.572265 273.946128 295.488 278.767963 295.488 
L 278.767963 295.488 
z
" clip-path="url(#p1edbf1bfe8)" style="fill: none"/>
   </g>
   <g id="patch_5">
    <path d="M 236.16 295.488 
C 240.981835 295.488 245.60683 293.572265 249.016382 290.162712 
C 252.425934 286.75316 254.34167 282.128165 254.34167 277.30633 
C 254.34167 272.484495 252.425934 267.8595 249.016382 264.449948 
C 245.60683 261.040396 240.981835 259.12466 236.16 259.12466 
C 231.338165 259.12466 226.71317 261.040396 223.303618 264.449948 
C 219.894066 267.8595 217.97833 272.484495 217.97833 277.30633 
C 217.97833 282.128165 219.894066 286.75316 223.303618 290.162712 
C 226.71317 293.572265 231.338165 295.488 236.16 295.488 
L 236.16 295.488 
z
" clip-path="url(#p1edbf1bfe8)" style="fill: none"/>
   </g>
   <g id="patch_6">
    <path d="M 193.552037 295.488 
C 198.373872 295.488 202.998867 293.572265 206.408419 290.162712 
C 209.817972 286.75316 211.733707 282.128165 211.733707 277.30633 
C 211.733707 272.484495 209.817972 267.8595 206.408419 264.449948 
C 202.998867 261.040396 198.373872 259.12466 193.552037 259.12466 
C 188.730202 259.12466 184.105208 261.040396 180.695655 264.449948 
C 177.286103 267.8595 175.370367 272.484495 175.370367 277.30633 
C 175.370367 282.128165 177.286103 286.75316 180.695655 290.162712 
C 184.105208 293.572265 188.730202 295.488 193.552037 295.488 
L 193.552037 295.488 
z
" clip-path="url(#p1edbf1bfe8)" style="fill: none"/>
   </g>
   <g id="patch_7">
    <path d="M 311.150015 185.709436 
C 318.497573 185.709436 325.545184 182.79022 330.740692 177.594712 
C 335.9362 172.399203 338.855416 165.351593 338.855416 158.004034 
C 338.855416 150.656476 335.9362 143.608865 330.740692 138.413357 
C 325.545184 133.217848 318.497573 130.298633 311.150015 130.298633 
C 303.802456 130.298633 296.754845 133.217848 291.559337 138.413357 
C 286.363829 143.608865 283.444613 150.656476 283.444613 158.004034 
C 283.444613 165.351593 286.363829 172.399203 291.559337 177.594712 
C 296.754845 182.79022 303.802456 185.709436 311.150015 185.709436 
L 311.150015 185.709436 
z
" clip-path="url(#p1edbf1bfe8)" style="fill: none"/>
   </g>
   <g id="patch_8">
    <path d="M 311.150015 175.047219 
C 315.66992 175.047219 320.00531 173.251442 323.201366 170.055386 
C 326.397422 166.85933 328.1932 162.52394 328.1932 158.004034 
C 328.1932 153.484129 326.397422 149.148738 323.201366 145.952683 
C 320.00531 142.756627 315.66992 140.960849 311.150015 140.960849 
C 306.630109 140.960849 302.294719 142.756627 299.098663 145.952683 
C 295.902607 149.148738 294.106829 153.484129 294.106829 158.004034 
C 294.106829 162.52394 295.902607 166.85933 299.098663 170.055386 
C 302.294719 173.251442 306.630109 175.047219 311.150015 175.047219 
L 311.150015 175.047219 
z
" clip-path="url(#p1edbf1bfe8)" style="fill: none"/>
   </g>
   <g id="patch_9">
    <path d="M 161.169985 175.047219 
C 165.689891 175.047219 170.025281 173.251442 173.221337 170.055386 
C 176.417393 166.85933 178.213171 162.52394 178.213171 158.004034 
C 178.213171 153.484129 176.417393 149.148738 173.221337 145.952683 
C 170.025281 142.756627 165.689891 140.960849 161.169985 140.960849 
C 156.65008 140.960849 152.31469 142.756627 149.118634 145.952683 
C 145.922578 149.148738 144.1268 153.484129 144.1268 158.004034 
C 144.1268 162.52394 145.922578 166.85933 149.118634 170.055386 
C 152.31469 173.251442 156.65008 175.047219 161.169985 175.047219 
L 161.169985 175.047219 
z
" clip-path="url(#p1edbf1bfe8)" style="fill: none"/>
   </g>
   <g id="patch_10">
    <path d="M 278.767963 285.827923 
C 281.027916 285.827923 283.195611 284.930034 284.793639 283.332006 
C 286.391667 281.733978 287.289555 279.566283 287.289555 277.30633 
C 287.289555 275.046377 286.391667 272.878682 284.793639 271.280654 
C 283.195611 269.682626 281.027916 268.784738 278.767963 268.784738 
C 276.50801 268.784738 274.340315 269.682626 272.742287 271.280654 
C 271.144259 272.878682 270.24637 275.046377 270.24637 277.30633 
C 270.24637 279.566283 271.144259 281.733978 272.742287 283.332006 
C 274.340315 284.930034 276.50801 285.827923 278.767963 285.827923 
L 278.767963 285.827923 
z
" clip-path="url(#p1edbf1bfe8)" style="fill: none"/>
   </g>
   <g id="patch_11">
    <path d="M 236.16 285.827923 
C 238.419953 285.827923 240.587648 284.930034 242.185676 283.332006 
C 243.783704 281.733978 244.681593 279.566283 244.681593 277.30633 
C 244.681593 275.046377 243.783704 272.878682 242.185676 271.280654 
C 240.587648 269.682626 238.419953 268.784738 236.16 268.784738 
C 233.900047 268.784738 231.732352 269.682626 230.134324 271.280654 
C 228.536296 272.878682 227.638407 275.046377 227.638407 277.30633 
C 227.638407 279.566283 228.536296 281.733978 230.134324 283.332006 
C 231.732352 284.930034 233.900047 285.827923 236.16 285.827923 
L 236.16 285.827923 
z
" clip-path="url(#p1edbf1bfe8)" style="fill: none"/>
   </g>
   <g id="patch_12">
    <path d="M 193.552037 285.827923 
C 195.81199 285.827923 197.979685 284.930034 199.577713 283.332006 
C 201.175741 281.733978 202.07363 279.566283 202.07363 277.30633 
C 202.07363 275.046377 201.175741 272.878682 199.577713 271.280654 
C 197.979685 269.682626 195.81199 268.784738 193.552037 268.784738 
C 191.292084 268.784738 189.124389 269.682626 187.526361 271.280654 
C 185.928333 272.878682 185.030445 275.046377 185.030445 277.30633 
C 185.030445 279.566283 185.928333 281.733978 187.526361 283.332006 
C 189.124389 284.930034 191.292084 285.827923 193.552037 285.827923 
L 193.552037 285.827923 
z
" clip-path="url(#p1edbf1bfe8)" style="fill: none"/>
   </g>
   <g id="patch_13">
    <path d="M 236.16 71.595086 
C 236.205199 71.595086 236.248553 71.577128 236.280514 71.545167 
C 236.312474 71.513207 236.330432 71.469853 236.330432 71.424654 
C 236.330432 71.379455 236.312474 71.336101 236.280514 71.30414 
C 236.248553 71.27218 236.205199 71.254222 236.16 71.254222 
C 236.114801 71.254222 236.071447 71.27218 236.039486 71.30414 
C 236.007526 71.336101 235.989568 71.379455 235.989568 71.424654 
C 235.989568 71.469853 236.007526 71.513207 236.039486 71.545167 
C 236.071447 71.577128 236.114801 71.595086 236.16 71.595086 
L 236.16 71.595086 
z
" clip-path="url(#p1edbf1bfe8)" style="fill: none; stroke: #ffcd07; stroke-width: 1.704319; stroke-linejoin: miter"/>
   </g>
   <g id="line2d_5">
    <path d="M 217.882416 74.363175 
L 223.268634 76.619561 
L 223.268634 76.619561 
L 217.882164 78.876069 
L 217.882164 78.876069 
" clip-path="url(#p1edbf1bfe8)" style="fill: none; stroke: #ffcd07; stroke-width: 0.415581; stroke-linecap: round"/>
   </g>
   <g id="line2d_6">
    <path d="M 224.152224 72.615664 
L 226.845791 80.62357 
L 226.845791 80.62357 
L 229.466254 72.615458 
L 229.466254 72.615458 
" clip-path="url(#p1edbf1bfe8)" style="fill: none; stroke: #ffcd07; stroke-width: 0.415581; stroke-linecap: round"/>
   </g>
   <g id="line2d_7">
    <path d="M 234.826253 77.343529 
L 232.787948 77.343529 
L 232.205575 77.489122 
L 231.695998 77.853105 
L 231.332015 78.289885 
L 231.259219 78.945054 
L 231.332015 79.527427 
L 231.695998 80.037004 
L 232.205575 80.400987 
L 232.787948 80.473783 
L 234.826253 80.473783 
L 234.826253 76.469969 
L 234.68066 75.960393 
L 234.389473 75.523613 
L 233.952694 75.232426 
L 233.443117 75.15963 
L 231.695998 75.15963 
" clip-path="url(#p1edbf1bfe8)" style="fill: none; stroke: #ffcd07; stroke-width: 0.415581; stroke-linecap: round"/>
   </g>
   <g id="line2d_8">
    <path d="M 238.62145 72.464649 
L 238.62145 79.161938 
L 238.694246 79.671515 
L 238.985433 80.108294 
L 239.422212 80.399481 
L 239.931789 80.472277 
" clip-path="url(#p1edbf1bfe8)" style="fill: none; stroke: #ffcd07; stroke-width: 0.415581; stroke-linecap: round"/>
   </g>
   <g id="line2d_9">
    <path d="M 243.726853 75.15812 
L 243.726853 79.161934 
L 243.872446 79.67151 
L 244.163633 80.10829 
L 244.600412 80.399476 
L 245.109989 80.472273 
L 247.293888 80.472273 
L 247.293888 75.15812 
" clip-path="url(#p1edbf1bfe8)" style="fill: none; stroke: #ffcd07; stroke-width: 0.415581; stroke-linecap: round"/>
   </g>
   <g id="line2d_10">
    <path d="M 253.528148 80.472349 
L 251.271453 80.472349 
L 250.761877 80.399553 
L 250.325097 80.108366 
L 250.03391 79.671587 
L 250.03391 79.671587 
L 249.961114 79.16201 
L 249.961114 79.16201 
L 249.961114 76.905315 
L 250.03391 76.322942 
L 250.397893 75.740569 
L 250.834673 75.376586 
L 251.417046 75.158196 
L 252.072216 75.158196 
L 252.654589 75.376586 
L 253.091369 75.740569 
L 253.382555 76.322942 
L 253.528148 76.905315 
L 253.528148 77.778874 
L 249.961114 77.778874 
" clip-path="url(#p1edbf1bfe8)" style="fill: none; stroke: #ffcd07; stroke-width: 0.415581; stroke-linecap: round"/>
   </g>
   <g id="patch_14">
    <path d="M 236.16 62.937148 
C 236.205199 62.937148 236.248553 62.91919 236.280514 62.887229 
C 236.312474 62.855269 236.330432 62.811915 236.330432 62.766716 
C 236.330432 62.721517 236.312474 62.678163 236.280514 62.646202 
C 236.248553 62.614242 236.205199 62.596284 236.16 62.596284 
C 236.114801 62.596284 236.071447 62.614242 236.039486 62.646202 
C 236.007526 62.678163 235.989568 62.721517 235.989568 62.766716 
C 235.989568 62.811915 236.007526 62.855269 236.039486 62.887229 
C 236.071447 62.91919 236.114801 62.937148 236.16 62.937148 
L 236.16 62.937148 
z
" clip-path="url(#p1edbf1bfe8)" style="fill: none; stroke: #808080; stroke-width: 1.704319; stroke-linejoin: miter"/>
   </g>
   <g id="line2d_11">
    <path d="M 220.999273 55.315711 
L 226.385492 57.572097 
L 226.385492 57.572097 
L 220.999021 59.828606 
L 220.999021 59.828606 
" clip-path="url(#p1edbf1bfe8)" style="fill: none; stroke: #808080; stroke-width: 0.415581; stroke-linecap: round"/>
   </g>
   <g id="line2d_12">
    <path d="M 227.706379 61.575629 
L 227.706379 53.568 
L 232.146973 61.575629 
L 232.146973 53.568 
" clip-path="url(#p1edbf1bfe8)" style="fill: none; stroke: #808080; stroke-width: 0.415581; stroke-linecap: round"/>
   </g>
   <g id="line2d_13">
    <path d="M 237.943111 58.296065 
L 235.904805 58.296065 
L 235.322432 58.441658 
L 234.812856 58.805641 
L 234.448873 59.242421 
L 234.376076 59.897591 
L 234.448873 60.479964 
L 234.812856 60.98954 
L 235.322432 61.353523 
L 235.904805 61.42632 
L 237.943111 61.42632 
L 237.943111 57.422505 
L 237.797518 56.912929 
L 237.506331 56.476149 
L 237.069551 56.184963 
L 236.559975 56.112166 
L 234.812856 56.112166 
" clip-path="url(#p1edbf1bfe8)" style="fill: none; stroke: #808080; stroke-width: 0.415581; stroke-linecap: round"/>
   </g>
   <g id="line2d_14">
    <path d="M 239.700016 61.425196 
L 239.700016 56.111043 
L 243.70383 56.111043 
L 244.213407 56.183839 
L 244.650186 56.475026 
L 244.941373 56.911806 
L 245.086966 57.421382 
L 245.086966 61.425196 
" clip-path="url(#p1edbf1bfe8)" style="fill: none; stroke: #808080; stroke-width: 0.415581; stroke-linecap: round"/>
   </g>
   <g id="line2d_15">
    <path d="M 242.39393 61.424817 
L 242.39393 56.110664 
" clip-path="url(#p1edbf1bfe8)" style="fill: none; stroke: #808080; stroke-width: 0.415581; stroke-linecap: round"/>
   </g>
   <g id="line2d_16">
    <path d="M 250.411291 61.424886 
L 248.154595 61.424886 
L 247.645019 61.352089 
L 247.208239 61.060903 
L 246.917053 60.624123 
L 246.917053 60.624123 
L 246.844256 60.114546 
L 246.844256 60.114546 
L 246.844256 57.857851 
L 246.917053 57.275478 
L 247.281036 56.693105 
L 247.717816 56.329122 
L 248.300189 56.110732 
L 248.955358 56.110732 
L 249.537731 56.329122 
L 249.974511 56.693105 
L 250.265697 57.275478 
L 250.411291 57.857851 
L 250.411291 58.731411 
L 246.844256 58.731411 
" clip-path="url(#p1edbf1bfe8)" style="fill: none; stroke: #808080; stroke-width: 0.415581; stroke-linecap: round"/>
   </g>
   <g id="patch_15">
    <path d="M 236.16 203.458209 
C 248.214588 203.458209 259.777074 198.66887 268.300955 190.144989 
C 276.824836 181.621109 281.614175 170.058622 281.614175 158.004034 
C 281.614175 145.949446 276.824836 134.38696 268.300955 125.863079 
C 259.777074 117.339198 248.214588 112.54986 236.16 112.54986 
C 224.105412 112.54986 212.542926 117.339198 204.019045 125.863079 
C 195.495164 134.38696 190.705825 145.949446 190.705825 158.004034 
C 190.705825 170.058622 195.495164 181.621109 204.019045 190.144989 
C 212.542926 198.66887 224.105412 203.458209 236.16 203.458209 
L 236.16 203.458209 
z
" clip-path="url(#p1edbf1bfe8)" style="fill: none; stroke: #808080; stroke-width: 3.463175; stroke-linejoin: miter"/>
   </g>
   <g id="line2d_17">
    <path d="M 322.347387 64.726682 
L 322.347387 131.587097 
" clip-path="url(#p1edbf1bfe8)" style="fill: none; stroke: #808080; stroke-width: 3.463175; stroke-linecap: round"/>
   </g>
   <g id="line2d_18">
    <path d="M 322.347387 184.420971 
L 322.347387 274.869155 
" clip-path="url(#p1edbf1bfe8)" style="fill: none; stroke: #808080; stroke-width: 3.463175; stroke-linecap: round"/>
   </g>
   <g id="line2d_19">
    <path d="M 149.972613 64.726682 
L 322.347387 64.726682 
" clip-path="url(#p1edbf1bfe8)" style="fill: none; stroke: #808080; stroke-width: 3.463175; stroke-linecap: round"/>
   </g>
   <g id="line2d_20">
    <path d="M 149.972613 274.869155 
L 149.972613 184.420971 
" clip-path="url(#p1edbf1bfe8)" style="fill: none; stroke: #808080; stroke-width: 3.463175; stroke-linecap: round"/>
   </g>
   <g id="line2d_21">
    <path d="M 149.972613 131.587097 
L 149.972613 64.726682 
" clip-path="url(#p1edbf1bfe8)" style="fill: none; stroke: #808080; stroke-width: 3.463175; stroke-linecap: round"/>
   </g>
   <g id="line2d_22">
    <path d="M 322.347387 274.869155 
L 299.322044 274.869155 
" clip-path="url(#p1edbf1bfe8)" style="fill: none; stroke: #808080; stroke-width: 3.463175; stroke-linecap: round"/>
   </g>
   <g id="line2d_23">
    <path d="M 172.997956 274.869155 
L 149.972613 274.869155 
" clip-path="url(#p1edbf1bfe8)" style="fill: none; stroke: #808080; stroke-width: 3.463175; stroke-linecap: round"/>
   </g>
   <g id="patch_16">
    <path d="M 193.552037 293.323515 
C 197.799844 293.323515 201.874244 291.635844 204.877898 288.632191 
C 207.881551 285.628537 209.569223 281.554137 209.569223 277.30633 
C 209.569223 273.058523 207.881551 268.984123 204.877898 265.98047 
C 201.874244 262.976816 197.799844 261.289145 193.552037 261.289145 
C 189.30423 261.289145 185.22983 262.976816 182.226177 265.98047 
C 179.222524 268.984123 177.534852 273.058523 177.534852 277.30633 
C 177.534852 281.554137 179.222524 285.628537 182.226177 288.632191 
C 185.22983 291.635844 189.30423 293.323515 193.552037 293.323515 
z
" clip-path="url(#p1edbf1bfe8)" style="fill: #0dab76"/>
   </g>
   <g id="patch_17">
    <path d="M 193.552037 285.827923 
C 195.81199 285.827923 197.979685 284.930034 199.577713 283.332006 
C 201.175741 281.733978 202.07363 279.566283 202.07363 277.30633 
C 202.07363 275.046377 201.175741 272.878682 199.577713 271.280654 
C 197.979685 269.682626 195.81199 268.784738 193.552037 268.784738 
C 191.292084 268.784738 189.124389 269.682626 187.526361 271.280654 
C 185.928333 272.878682 185.030445 275.046377 185.030445 277.30633 
C 185.030445 279.566283 185.928333 281.733978 187.526361 283.332006 
C 189.124389 284.930034 191.292084 285.827923 193.552037 285.827923 
z
" clip-path="url(#p1edbf1bfe8)" style="fill: #a0a0a0"/>
   </g>
   <g id="patch_18">
    <path d="M 236.16 293.323515 
C 240.407807 293.323515 244.482207 291.635844 247.48586 288.632191 
C 250.489514 285.628537 252.177185 281.554137 252.177185 277.30633 
C 252.177185 273.058523 250.489514 268.984123 247.48586 265.98047 
C 244.482207 262.976816 240.407807 261.289145 236.16 261.289145 
C 231.912193 261.289145 227.837793 262.976816 224.83414 265.98047 
C 221.830486 268.984123 220.142815 273.058523 220.142815 277.30633 
C 220.142815 281.554137 221.830486 285.628537 224.83414 288.632191 
C 227.837793 291.635844 231.912193 293.323515 236.16 293.323515 
z
" clip-path="url(#p1edbf1bfe8)" style="fill: #0dab76"/>
   </g>
   <g id="patch_19">
    <path d="M 236.16 285.827923 
C 238.419953 285.827923 240.587648 284.930034 242.185676 283.332006 
C 243.783704 281.733978 244.681593 279.566283 244.681593 277.30633 
C 244.681593 275.046377 243.783704 272.878682 242.185676 271.280654 
C 240.587648 269.682626 238.419953 268.784738 236.16 268.784738 
C 233.900047 268.784738 231.732352 269.682626 230.134324 271.280654 
C 228.536296 272.878682 227.638407 275.046377 227.638407 277.30633 
C 227.638407 279.566283 228.536296 281.733978 230.134324 283.332006 
C 231.732352 284.930034 233.900047 285.827923 236.16 285.827923 
z
" clip-path="url(#p1edbf1bfe8)" style="fill: #a0a0a0"/>
   </g>
   <g id="patch_20">
    <path d="M 278.767963 293.323515 
C 283.01577 293.323515 287.09017 291.635844 290.093823 288.632191 
C 293.097476 285.628537 294.785148 281.554137 294.785148 277.30633 
C 294.785148 273.058523 293.097476 268.984123 290.093823 265.98047 
C 287.09017 262.976816 283.01577 261.289145 278.767963 261.289145 
C 274.520156 261.289145 270.445756 262.976816 267.442102 265.98047 
C 264.438449 268.984123 262.750777 273.058523 262.750777 277.30633 
C 262.750777 281.554137 264.438449 285.628537 267.442102 288.632191 
C 270.445756 291.635844 274.520156 293.323515 278.767963 293.323515 
z
" clip-path="url(#p1edbf1bfe8)" style="fill: #0dab76"/>
   </g>
   <g id="patch_21">
    <path d="M 278.767963 285.827923 
C 281.027916 285.827923 283.195611 284.930034 284.793639 283.332006 
C 286.391667 281.733978 287.289555 279.566283 287.289555 277.30633 
C 287.289555 275.046377 286.391667 272.878682 284.793639 271.280654 
C 283.195611 269.682626 281.027916 268.784738 278.767963 268.784738 
C 276.50801 268.784738 274.340315 269.682626 272.742287 271.280654 
C 271.144259 272.878682 270.24637 275.046377 270.24637 277.30633 
C 270.24637 279.566283 271.144259 281.733978 272.742287 283.332006 
C 274.340315 284.930034 276.50801 285.827923 278.767963 285.827923 
z
" clip-path="url(#p1edbf1bfe8)" style="fill: #a0a0a0"/>
   </g>
   <g id="patch_22">
    <path d="M 161.169985 192.090405 
C 170.209797 192.090405 178.880577 188.49885 185.272689 182.106738 
C 191.664801 175.714626 195.256356 167.043845 195.256356 158.004034 
C 195.256356 148.964223 191.664801 140.293442 185.272689 133.901331 
C 178.880577 127.509219 170.209797 123.917664 161.169985 123.917664 
C 152.130174 123.917664 143.459394 127.509219 137.067282 133.901331 
C 130.67517 140.293442 127.083615 148.964223 127.083615 158.004034 
C 127.083615 167.043845 130.67517 175.714626 137.067282 182.106738 
C 143.459394 188.49885 152.130174 192.090405 161.169985 192.090405 
z
" clip-path="url(#p1edbf1bfe8)" style="fill: #0dab76"/>
   </g>
   <g id="patch_23">
    <path d="M 161.169985 175.047219 
C 165.689891 175.047219 170.025281 173.251442 173.221337 170.055386 
C 176.417393 166.85933 178.213171 162.52394 178.213171 158.004034 
C 178.213171 153.484129 176.417393 149.148738 173.221337 145.952683 
C 170.025281 142.756627 165.689891 140.960849 161.169985 140.960849 
C 156.65008 140.960849 152.31469 142.756627 149.118634 145.952683 
C 145.922578 149.148738 144.1268 153.484129 144.1268 158.004034 
C 144.1268 162.52394 145.922578 166.85933 149.118634 170.055386 
C 152.31469 173.251442 156.65008 175.047219 161.169985 175.047219 
z
" clip-path="url(#p1edbf1bfe8)" style="fill: #a0a0a0"/>
   </g>
   <g id="patch_24">
    <path d="M 311.150015 192.090405 
C 320.189826 192.090405 328.860606 188.49885 335.252718 182.106738 
C 341.64483 175.714626 345.236385 167.043845 345.236385 158.004034 
C 345.236385 148.964223 341.64483 140.293442 335.252718 133.901331 
C 328.860606 127.509219 320.189826 123.917664 311.150015 123.917664 
C 302.110203 123.917664 293.439423 127.509219 287.047311 133.901331 
C 280.655199 140.293442 277.063644 148.964223 277.063644 158.004034 
C 277.063644 167.043845 280.655199 175.714626 287.047311 182.106738 
C 293.439423 188.49885 302.110203 192.090405 311.150015 192.090405 
z
" clip-path="url(#p1edbf1bfe8)" style="fill: #0dab76"/>
   </g>
   <g id="patch_25">
    <path d="M 311.150015 175.047219 
C 315.66992 175.047219 320.00531 173.251442 323.201366 170.055386 
C 326.397422 166.85933 328.1932 162.52394 328.1932 158.004034 
C 328.1932 153.484129 326.397422 149.148738 323.201366 145.952683 
C 320.00531 142.756627 315.66992 140.960849 311.150015 140.960849 
C 306.630109 140.960849 302.294719 142.756627 299.098663 145.952683 
C 295.902607 149.148738 294.106829 153.484129 294.106829 158.004034 
C 294.106829 162.52394 295.902607 166.85933 299.098663 170.055386 
C 302.294719 173.251442 306.630109 175.047219 311.150015 175.047219 
z
" clip-path="url(#p1edbf1bfe8)" style="fill: #a0a0a0"/>
   </g>
   <g id="matplotlib.axis_1">
    <g id="xtick_1">
     <g id="line2d_24">
      <defs>
       <path id="m87f813b0b6" d="M 0 0 
L 0 3.5 
" style="stroke: #ffffff; stroke-width: 0.8"/>
      </defs>
      <g>
       <use xlink:href="#m87f813b0b6" x="150.944074" y="307.584" style="fill: #ffffff; stroke: #ffffff; stroke-width: 0.8"/>
      </g>
     </g>
     <g id="text_1">
      <text style="fill: #ffffff; font: 10px 'sans-serif'; text-anchor: middle" x="150.944074" y="322.182437" transform="rotate(-0, 150.944074, 322.182437)">−5.0</text>
     </g>
    </g>
    <g id="xtick_2">
     <g id="line2d_25">
      <g>
       <use xlink:href="#m87f813b0b6" x="193.552037" y="307.584" style="fill: #ffffff; stroke: #ffffff; stroke-width: 0.8"/>
      </g>
     </g>
     <g id="text_2">
      <text style="fill: #ffffff; font: 10px 'sans-serif'; text-anchor: middle" x="193.552037" y="322.182437" transform="rotate(-0, 193.552037, 322.182437)">−2.5</text>
     </g>
    </g>
    <g id="xtick_3">
     <g id="line2d_26">
      <g>
       <use xlink:href="#m87f813b0b6" x="236.16" y="307.584" style="fill: #ffffff; stroke: #ffffff; stroke-width: 0.8"/>
      </g>
     </g>
     <g id="text_3">
      <text style="fill: #ffffff; font: 10px 'sans-serif'; text-anchor: middle" x="236.16" y="322.182437" transform="rotate(-0, 236.16, 322.182437)">0.0</text>
     </g>
    </g>
    <g id="xtick_4">
     <g id="line2d_27">
      <g>
       <use xlink:href="#m87f813b0b6" x="278.767963" y="307.584" style="fill: #ffffff; stroke: #ffffff; stroke-width: 0.8"/>
      </g>
     </g>
     <g id="text_4">
      <text style="fill: #ffffff; font: 10px 'sans-serif'; text-anchor: middle" x="278.767963" y="322.182437" transform="rotate(-0, 278.767963, 322.182437)">2.5</text>
     </g>
    </g>
    <g id="xtick_5">
     <g id="line2d_28">
      <g>
       <use xlink:href="#m87f813b0b6" x="321.375926" y="307.584" style="fill: #ffffff; stroke: #ffffff; stroke-width: 0.8"/>
      </g>
     </g>
     <g id="text_5">
      <text style="fill: #ffffff; font: 10px 'sans-serif'; text-anchor: middle" x="321.375926" y="322.182437" transform="rotate(-0, 321.375926, 322.182437)">5.0</text>
     </g>
    </g>
   </g>
   <g id="matplotlib.axis_2">
    <g id="ytick_1">
     <g id="line2d_29">
      <defs>
       <path id="mdfd10eb527" d="M 0 0 
L -3.5 0 
" style="stroke: #ffffff; stroke-width: 0.8"/>
      </defs>
      <g>
       <use xlink:href="#mdfd10eb527" x="116.175977" y="294.349515" style="fill: #ffffff; stroke: #ffffff; stroke-width: 0.8"/>
      </g>
     </g>
     <g id="text_6">
      <text style="fill: #ffffff; font: 10px 'sans-serif'; text-anchor: end" x="109.175977" y="298.148734" transform="rotate(-0, 109.175977, 298.148734)">−8</text>
     </g>
    </g>
    <g id="ytick_2">
     <g id="line2d_30">
      <g>
       <use xlink:href="#mdfd10eb527" x="116.175977" y="260.263145" style="fill: #ffffff; stroke: #ffffff; stroke-width: 0.8"/>
      </g>
     </g>
     <g id="text_7">
      <text style="fill: #ffffff; font: 10px 'sans-serif'; text-anchor: end" x="109.175977" y="264.062364" transform="rotate(-0, 109.175977, 264.062364)">−6</text>
     </g>
    </g>
    <g id="ytick_3">
     <g id="line2d_31">
      <g>
       <use xlink:href="#mdfd10eb527" x="116.175977" y="226.176775" style="fill: #ffffff; stroke: #ffffff; stroke-width: 0.8"/>
      </g>
     </g>
     <g id="text_8">
      <text style="fill: #ffffff; font: 10px 'sans-serif'; text-anchor: end" x="109.175977" y="229.975994" transform="rotate(-0, 109.175977, 229.975994)">−4</text>
     </g>
    </g>
    <g id="ytick_4">
     <g id="line2d_32">
      <g>
       <use xlink:href="#mdfd10eb527" x="116.175977" y="192.090405" style="fill: #ffffff; stroke: #ffffff; stroke-width: 0.8"/>
      </g>
     </g>
     <g id="text_9">
      <text style="fill: #ffffff; font: 10px 'sans-serif'; text-anchor: end" x="109.175977" y="195.889623" transform="rotate(-0, 109.175977, 195.889623)">−2</text>
     </g>
    </g>
    <g id="ytick_5">
     <g id="line2d_33">
      <g>
       <use xlink:href="#mdfd10eb527" x="116.175977" y="158.004034" style="fill: #ffffff; stroke: #ffffff; stroke-width: 0.8"/>
      </g>
     </g>
     <g id="text_10">
      <text style="fill: #ffffff; font: 10px 'sans-serif'; text-anchor: end" x="109.175977" y="161.803253" transform="rotate(-0, 109.175977, 161.803253)">0</text>
     </g>
    </g>
    <g id="ytick_6">
     <g id="line2d_34">
      <g>
       <use xlink:href="#mdfd10eb527" x="116.175977" y="123.917664" style="fill: #ffffff; stroke: #ffffff; stroke-width: 0.8"/>
      </g>
     </g>
     <g id="text_11">
      <text style="fill: #ffffff; font: 10px 'sans-serif'; text-anchor: end" x="109.175977" y="127.716883" transform="rotate(-0, 109.175977, 127.716883)">2</text>
     </g>
    </g>
    <g id="ytick_7">
     <g id="line2d_35">
      <g>
       <use xlink:href="#mdfd10eb527" x="116.175977" y="89.831294" style="fill: #ffffff; stroke: #ffffff; stroke-width: 0.8"/>
      </g>
     </g>
     <g id="text_12">
      <text style="fill: #ffffff; font: 10px 'sans-serif'; text-anchor: end" x="109.175977" y="93.630513" transform="rotate(-0, 109.175977, 93.630513)">4</text>
     </g>
    </g>
    <g id="ytick_8">
     <g id="line2d_36">
      <g>
       <use xlink:href="#mdfd10eb527" x="116.175977" y="55.744924" style="fill: #ffffff; stroke: #ffffff; stroke-width: 0.8"/>
      </g>
     </g>
     <g id="text_13">
      <text style="fill: #ffffff; font: 10px 'sans-serif'; text-anchor: end" x="109.175977" y="59.544142" transform="rotate(-0, 109.175977, 59.544142)">6</text>
     </g>
    </g>
   </g>
   <g id="patch_26">
    <path d="M 116.175977 307.584 
L 116.175977 41.472 
" style="fill: none; stroke: #ffffff; stroke-width: 0.8; stroke-linejoin: miter; stroke-linecap: square"/>
   </g>
   <g id="patch_27">
    <path d="M 356.144023 307.584 
L 356.144023 41.472 
" style="fill: none; stroke: #ffffff; stroke-width: 0.8; stroke-linejoin: miter; stroke-linecap: square"/>
   </g>
   <g id="patch_28">
    <path d="M 116.175977 307.584 
L 356.144023 307.584 
" style="fill: none; stroke: #ffffff; stroke-width: 0.8; stroke-linejoin: miter; stroke-linecap: square"/>
   </g>
   <g id="patch_29">
    <path d="M 116.175977 41.472 
L 356.144023 41.472 
" style="fill: none; stroke: #ffffff; stroke-width: 0.8; stroke-linejoin: miter; stroke-linecap: square"/>
   </g>
   <g id="text_14">
    <text style="fill: #ffffff; font: 12px 'sans-serif'; text-anchor: middle" x="236.16" y="35.472" transform="rotate(-0, 236.16, 35.472)">POT-PTH-ALPS-KIT</text>
   </g>
  </g>
 </g>
 <defs>
  <clipPath id="p1edbf1bfe8">
   <rect x="116.175977" y="41.472" width="239.968046" height="266.112"/>
  </clipPath>
 </defs>
</svg>
