<?xml version="1.0" encoding="utf-8" standalone="no"?>
<!DOCTYPE svg PUBLIC "-//W3C//DTD SVG 1.1//EN"
  "http://www.w3.org/Graphics/SVG/1.1/DTD/svg11.dtd">
<svg xmlns:xlink="http://www.w3.org/1999/xlink" width="460.8pt" height="345.6pt" viewBox="0 0 460.8 345.6" xmlns="http://www.w3.org/2000/svg" version="1.1">
 <metadata>
  <rdf:RDF xmlns:dc="http://purl.org/dc/elements/1.1/" xmlns:cc="http://creativecommons.org/ns#" xmlns:rdf="http://www.w3.org/1999/02/22-rdf-syntax-ns#">
   <cc:Work>
    <dc:type rdf:resource="http://purl.org/dc/dcmitype/StillImage"/>
    <dc:date>2021-12-22T04:54:05.513184</dc:date>
    <dc:format>image/svg+xml</dc:format>
    <dc:creator>
     <cc:Agent>
      <dc:title>Matplotlib v3.5.1, https://matplotlib.org/</dc:title>
     </cc:Agent>
    </dc:creator>
   </cc:Work>
  </rdf:RDF>
 </metadata>
 <defs>
  <style type="text/css">*{stroke-linejoin: round; stroke-linecap: butt}</style>
 </defs>
 <g id="figure_1">
  <g id="patch_1">
   <path d="M 0 345.6 
L 460.8 345.6 
L 460.8 0 
L 0 0 
z
" style="fill: #2b2b2b"/>
  </g>
  <g id="axes_1">
   <g id="patch_2">
    <path d="M 141.188896 307.584 
L 331.131104 307.584 
L 331.131104 41.472 
L 141.188896 41.472 
z
" style="fill: #2b2b2b"/>
   </g>
   <g id="line2d_1">
    <path d="M 302.666753 183.923934 
L 169.653247 183.923934 
" clip-path="url(#pa71f307b7a)" style="fill: none; stroke: #ffcd07; stroke-width: 2.741211; stroke-linecap: square"/>
   </g>
   <g id="line2d_2">
    <path d="M 169.653247 183.923934 
L 169.653247 55.281257 
" clip-path="url(#pa71f307b7a)" style="fill: none; stroke: #ffcd07; stroke-width: 2.741211; stroke-linecap: square"/>
   </g>
   <g id="line2d_3">
    <path d="M 169.653247 55.281257 
L 302.666753 55.281257 
" clip-path="url(#pa71f307b7a)" style="fill: none; stroke: #ffcd07; stroke-width: 2.741211; stroke-linecap: square"/>
   </g>
   <g id="line2d_4">
    <path d="M 302.666753 55.281257 
L 302.666753 183.923934 
" clip-path="url(#pa71f307b7a)" style="fill: none; stroke: #ffcd07; stroke-width: 2.741211; stroke-linecap: square"/>
   </g>
   <g id="line2d_5">
    <path d="M 184.762286 195.930224 
L 184.762286 295.488 
" clip-path="url(#pa71f307b7a)" style="fill: none; stroke: #ffcd07; stroke-width: 1.713257; stroke-linecap: square"/>
   </g>
   <g id="line2d_6">
    <path d="M 184.762286 295.488 
L 287.557714 295.488 
" clip-path="url(#pa71f307b7a)" style="fill: none; stroke: #ffcd07; stroke-width: 1.713257; stroke-linecap: square"/>
   </g>
   <g id="line2d_7">
    <path d="M 287.557714 295.488 
L 287.557714 195.930224 
" clip-path="url(#pa71f307b7a)" style="fill: none; stroke: #ffcd07; stroke-width: 1.713257; stroke-linecap: square"/>
   </g>
   <g id="patch_3">
    <path d="M 176.80306 115.064488 
C 182.618882 115.064488 188.197286 112.753837 192.309694 108.64143 
C 196.422101 104.529023 198.732751 98.950618 198.732751 93.134796 
C 198.732751 87.318974 196.422101 81.74057 192.309694 77.628163 
C 188.197286 73.515756 182.618882 71.205105 176.80306 71.205105 
C 170.987238 71.205105 165.408834 73.515756 161.296427 77.628163 
C 157.18402 81.74057 154.873369 87.318974 154.873369 93.134796 
C 154.873369 98.950618 157.18402 104.529023 161.296427 108.64143 
C 165.408834 112.753837 170.987238 115.064488 176.80306 115.064488 
L 176.80306 115.064488 
z
" clip-path="url(#pa71f307b7a)" style="fill: none"/>
   </g>
   <g id="patch_4">
    <path d="M 269.885534 152.043861 
C 273.702167 152.043861 277.362995 150.527497 280.061762 147.828729 
C 282.760529 145.129962 284.276894 141.469134 284.276894 137.652501 
C 284.276894 133.835868 282.760529 130.17504 280.061762 127.476273 
C 277.362995 124.777506 273.702167 123.261141 269.885534 123.261141 
C 266.068901 123.261141 262.408073 124.777506 259.709306 127.476273 
C 257.010539 130.17504 255.494174 133.835868 255.494174 137.652501 
C 255.494174 141.469134 257.010539 145.129962 259.709306 147.828729 
C 262.408073 150.527497 266.068901 152.043861 269.885534 152.043861 
L 269.885534 152.043861 
z
" clip-path="url(#pa71f307b7a)" style="fill: none"/>
   </g>
   <g id="patch_5">
    <path d="M 236.16 152.043861 
C 239.976633 152.043861 243.637461 150.527497 246.336228 147.828729 
C 249.034995 145.129962 250.55136 141.469134 250.55136 137.652501 
C 250.55136 133.835868 249.034995 130.17504 246.336228 127.476273 
C 243.637461 124.777506 239.976633 123.261141 236.16 123.261141 
C 232.343367 123.261141 228.682539 124.777506 225.983772 127.476273 
C 223.285005 130.17504 221.76864 133.835868 221.76864 137.652501 
C 221.76864 141.469134 223.285005 145.129962 225.983772 147.828729 
C 228.682539 150.527497 232.343367 152.043861 236.16 152.043861 
L 236.16 152.043861 
z
" clip-path="url(#pa71f307b7a)" style="fill: none"/>
   </g>
   <g id="patch_6">
    <path d="M 202.434466 152.043861 
C 206.251099 152.043861 209.911927 150.527497 212.610694 147.828729 
C 215.309461 145.129962 216.825826 141.469134 216.825826 137.652501 
C 216.825826 133.835868 215.309461 130.17504 212.610694 127.476273 
C 209.911927 124.777506 206.251099 123.261141 202.434466 123.261141 
C 198.617833 123.261141 194.957005 124.777506 192.258238 127.476273 
C 189.559471 130.17504 188.043106 133.835868 188.043106 137.652501 
C 188.043106 141.469134 189.559471 145.129962 192.258238 147.828729 
C 194.957005 150.527497 198.617833 152.043861 202.434466 152.043861 
L 202.434466 152.043861 
z
" clip-path="url(#pa71f307b7a)" style="fill: none"/>
   </g>
   <g id="patch_7">
    <path d="M 295.51694 115.064488 
C 301.332762 115.064488 306.911166 112.753837 311.023573 108.64143 
C 315.13598 104.529023 317.446631 98.950618 317.446631 93.134796 
C 317.446631 87.318974 315.13598 81.74057 311.023573 77.628163 
C 306.911166 73.515756 301.332762 71.205105 295.51694 71.205105 
C 289.701118 71.205105 284.122714 73.515756 280.010306 77.628163 
C 275.897899 81.74057 273.587249 87.318974 273.587249 93.134796 
C 273.587249 98.950618 275.897899 104.529023 280.010306 108.64143 
C 284.122714 112.753837 289.701118 115.064488 295.51694 115.064488 
L 295.51694 115.064488 
z
" clip-path="url(#pa71f307b7a)" style="fill: none"/>
   </g>
   <g id="patch_8">
    <path d="M 295.51694 106.62501 
C 299.094586 106.62501 302.526183 105.203596 305.055961 102.673818 
C 307.585739 100.14404 309.007153 96.712443 309.007153 93.134796 
C 309.007153 89.55715 307.585739 86.125553 305.055961 83.595775 
C 302.526183 81.065997 299.094586 79.644583 295.51694 79.644583 
C 291.939293 79.644583 288.507696 81.065997 285.977918 83.595775 
C 283.44814 86.125553 282.026726 89.55715 282.026726 93.134796 
C 282.026726 96.712443 283.44814 100.14404 285.977918 102.673818 
C 288.507696 105.203596 291.939293 106.62501 295.51694 106.62501 
L 295.51694 106.62501 
z
" clip-path="url(#pa71f307b7a)" style="fill: none"/>
   </g>
   <g id="patch_9">
    <path d="M 176.80306 106.62501 
C 180.380707 106.62501 183.812304 105.203596 186.342082 102.673818 
C 188.87186 100.14404 190.293274 96.712443 190.293274 93.134796 
C 190.293274 89.55715 188.87186 86.125553 186.342082 83.595775 
C 183.812304 81.065997 180.380707 79.644583 176.80306 79.644583 
C 173.225414 79.644583 169.793817 81.065997 167.264039 83.595775 
C 164.734261 86.125553 163.312847 89.55715 163.312847 93.134796 
C 163.312847 96.712443 164.734261 100.14404 167.264039 102.673818 
C 169.793817 105.203596 173.225414 106.62501 176.80306 106.62501 
L 176.80306 106.62501 
z
" clip-path="url(#pa71f307b7a)" style="fill: none"/>
   </g>
   <g id="patch_10">
    <path d="M 269.885534 144.397608 
C 271.674357 144.397608 273.390156 143.686901 274.655045 142.422012 
C 275.919934 141.157123 276.630641 139.441324 276.630641 137.652501 
C 276.630641 135.863678 275.919934 134.147879 274.655045 132.88299 
C 273.390156 131.618101 271.674357 130.907394 269.885534 130.907394 
C 268.096711 130.907394 266.380912 131.618101 265.116023 132.88299 
C 263.851134 134.147879 263.140427 135.863678 263.140427 137.652501 
C 263.140427 139.441324 263.851134 141.157123 265.116023 142.422012 
C 266.380912 143.686901 268.096711 144.397608 269.885534 144.397608 
L 269.885534 144.397608 
z
" clip-path="url(#pa71f307b7a)" style="fill: none"/>
   </g>
   <g id="patch_11">
    <path d="M 236.16 144.397608 
C 237.948823 144.397608 239.664622 143.686901 240.929511 142.422012 
C 242.1944 141.157123 242.905107 139.441324 242.905107 137.652501 
C 242.905107 135.863678 242.1944 134.147879 240.929511 132.88299 
C 239.664622 131.618101 237.948823 130.907394 236.16 130.907394 
C 234.371177 130.907394 232.655378 131.618101 231.390489 132.88299 
C 230.1256 134.147879 229.414893 135.863678 229.414893 137.652501 
C 229.414893 139.441324 230.1256 141.157123 231.390489 142.422012 
C 232.655378 143.686901 234.371177 144.397608 236.16 144.397608 
L 236.16 144.397608 
z
" clip-path="url(#pa71f307b7a)" style="fill: none"/>
   </g>
   <g id="patch_12">
    <path d="M 202.434466 144.397608 
C 204.223289 144.397608 205.939088 143.686901 207.203977 142.422012 
C 208.468866 141.157123 209.179573 139.441324 209.179573 137.652501 
C 209.179573 135.863678 208.468866 134.147879 207.203977 132.88299 
C 205.939088 131.618101 204.223289 130.907394 202.434466 130.907394 
C 200.645643 130.907394 198.929844 131.618101 197.664955 132.88299 
C 196.400066 134.147879 195.689359 135.863678 195.689359 137.652501 
C 195.689359 139.441324 196.400066 141.157123 197.664955 142.422012 
C 198.929844 143.686901 200.645643 144.397608 202.434466 144.397608 
L 202.434466 144.397608 
z
" clip-path="url(#pa71f307b7a)" style="fill: none"/>
   </g>
   <g id="text_1">
    <text style="fill: #ffffff; font: 1px 'sans-serif'; text-anchor: start" x="236.16" y="58.869654" transform="rotate(-0, 236.16, 58.869654)">&gt;Value</text>
   </g>
   <g id="text_2">
    <text style="fill: #ffffff; font: 1px 'sans-serif'; text-anchor: start" x="236.16" y="52.016625" transform="rotate(-0, 236.16, 52.016625)">&gt;Name</text>
   </g>
   <g id="line2d_8">
    <path d="M 304.38001 53.568 
L 304.38001 72.224965 
" clip-path="url(#pa71f307b7a)" style="fill: none; stroke: #808080; stroke-width: 2.741211; stroke-linecap: square"/>
   </g>
   <g id="line2d_9">
    <path d="M 304.38001 114.044627 
L 304.38001 185.637191 
" clip-path="url(#pa71f307b7a)" style="fill: none; stroke: #808080; stroke-width: 2.741211; stroke-linecap: square"/>
   </g>
   <g id="line2d_10">
    <path d="M 167.93999 53.568 
L 304.38001 53.568 
" clip-path="url(#pa71f307b7a)" style="fill: none; stroke: #808080; stroke-width: 2.741211; stroke-linecap: square"/>
   </g>
   <g id="line2d_11">
    <path d="M 167.93999 185.637191 
L 167.93999 114.044627 
" clip-path="url(#pa71f307b7a)" style="fill: none; stroke: #808080; stroke-width: 2.741211; stroke-linecap: square"/>
   </g>
   <g id="line2d_12">
    <path d="M 167.93999 72.224965 
L 167.93999 53.568 
" clip-path="url(#pa71f307b7a)" style="fill: none; stroke: #808080; stroke-width: 2.741211; stroke-linecap: square"/>
   </g>
   <g id="line2d_13">
    <path d="M 304.38001 185.637191 
L 167.93999 185.637191 
" clip-path="url(#pa71f307b7a)" style="fill: none; stroke: #808080; stroke-width: 2.741211; stroke-linecap: square"/>
   </g>
   <g id="patch_13">
    <path d="M 202.434466 150.330604 
C 205.796738 150.330604 209.021753 148.994759 211.399238 146.617274 
C 213.776724 144.239788 215.112569 141.014773 215.112569 137.652501 
C 215.112569 134.290229 213.776724 131.065214 211.399238 128.687729 
C 209.021753 126.310243 205.796738 124.974398 202.434466 124.974398 
C 199.072194 124.974398 195.847179 126.310243 193.469694 128.687729 
C 191.092208 131.065214 189.756363 134.290229 189.756363 137.652501 
C 189.756363 141.014773 191.092208 144.239788 193.469694 146.617274 
C 195.847179 148.994759 199.072194 150.330604 202.434466 150.330604 
z
" clip-path="url(#pa71f307b7a)" style="fill: #0dab76"/>
   </g>
   <g id="patch_14">
    <path d="M 202.434466 144.397608 
C 204.223289 144.397608 205.939088 143.686901 207.203977 142.422012 
C 208.468866 141.157123 209.179573 139.441324 209.179573 137.652501 
C 209.179573 135.863678 208.468866 134.147879 207.203977 132.88299 
C 205.939088 131.618101 204.223289 130.907394 202.434466 130.907394 
C 200.645643 130.907394 198.929844 131.618101 197.664955 132.88299 
C 196.400066 134.147879 195.689359 135.863678 195.689359 137.652501 
C 195.689359 139.441324 196.400066 141.157123 197.664955 142.422012 
C 198.929844 143.686901 200.645643 144.397608 202.434466 144.397608 
z
" clip-path="url(#pa71f307b7a)" style="fill: #a0a0a0"/>
   </g>
   <g id="patch_15">
    <path d="M 236.16 150.330604 
C 239.522272 150.330604 242.747287 148.994759 245.124772 146.617274 
C 247.502258 144.239788 248.838103 141.014773 248.838103 137.652501 
C 248.838103 134.290229 247.502258 131.065214 245.124772 128.687729 
C 242.747287 126.310243 239.522272 124.974398 236.16 124.974398 
C 232.797728 124.974398 229.572713 126.310243 227.195228 128.687729 
C 224.817742 131.065214 223.481897 134.290229 223.481897 137.652501 
C 223.481897 141.014773 224.817742 144.239788 227.195228 146.617274 
C 229.572713 148.994759 232.797728 150.330604 236.16 150.330604 
z
" clip-path="url(#pa71f307b7a)" style="fill: #0dab76"/>
   </g>
   <g id="patch_16">
    <path d="M 236.16 144.397608 
C 237.948823 144.397608 239.664622 143.686901 240.929511 142.422012 
C 242.1944 141.157123 242.905107 139.441324 242.905107 137.652501 
C 242.905107 135.863678 242.1944 134.147879 240.929511 132.88299 
C 239.664622 131.618101 237.948823 130.907394 236.16 130.907394 
C 234.371177 130.907394 232.655378 131.618101 231.390489 132.88299 
C 230.1256 134.147879 229.414893 135.863678 229.414893 137.652501 
C 229.414893 139.441324 230.1256 141.157123 231.390489 142.422012 
C 232.655378 143.686901 234.371177 144.397608 236.16 144.397608 
z
" clip-path="url(#pa71f307b7a)" style="fill: #a0a0a0"/>
   </g>
   <g id="patch_17">
    <path d="M 269.885534 150.330604 
C 273.247806 150.330604 276.472821 148.994759 278.850306 146.617274 
C 281.227792 144.239788 282.563637 141.014773 282.563637 137.652501 
C 282.563637 134.290229 281.227792 131.065214 278.850306 128.687729 
C 276.472821 126.310243 273.247806 124.974398 269.885534 124.974398 
C 266.523262 124.974398 263.298247 126.310243 260.920762 128.687729 
C 258.543276 131.065214 257.207431 134.290229 257.207431 137.652501 
C 257.207431 141.014773 258.543276 144.239788 260.920762 146.617274 
C 263.298247 148.994759 266.523262 150.330604 269.885534 150.330604 
z
" clip-path="url(#pa71f307b7a)" style="fill: #0dab76"/>
   </g>
   <g id="patch_18">
    <path d="M 269.885534 144.397608 
C 271.674357 144.397608 273.390156 143.686901 274.655045 142.422012 
C 275.919934 141.157123 276.630641 139.441324 276.630641 137.652501 
C 276.630641 135.863678 275.919934 134.147879 274.655045 132.88299 
C 273.390156 131.618101 271.674357 130.907394 269.885534 130.907394 
C 268.096711 130.907394 266.380912 131.618101 265.116023 132.88299 
C 263.851134 134.147879 263.140427 135.863678 263.140427 137.652501 
C 263.140427 139.441324 263.851134 141.157123 265.116023 142.422012 
C 266.380912 143.686901 268.096711 144.397608 269.885534 144.397608 
z
" clip-path="url(#pa71f307b7a)" style="fill: #a0a0a0"/>
   </g>
   <g id="patch_19">
    <path d="M 176.80306 120.115224 
C 183.958353 120.115224 190.821547 117.272396 195.881103 112.212839 
C 200.940659 107.153283 203.783487 100.290089 203.783487 93.134796 
C 203.783487 85.979503 200.940659 79.11631 195.881103 74.056753 
C 190.821547 68.997197 183.958353 66.154369 176.80306 66.154369 
C 169.647767 66.154369 162.784573 68.997197 157.725017 74.056753 
C 152.665461 79.11631 149.822633 85.979503 149.822633 93.134796 
C 149.822633 100.290089 152.665461 107.153283 157.725017 112.212839 
C 162.784573 117.272396 169.647767 120.115224 176.80306 120.115224 
z
" clip-path="url(#pa71f307b7a)" style="fill: #0dab76"/>
   </g>
   <g id="patch_20">
    <path d="M 176.80306 106.62501 
C 180.380707 106.62501 183.812304 105.203596 186.342082 102.673818 
C 188.87186 100.14404 190.293274 96.712443 190.293274 93.134796 
C 190.293274 89.55715 188.87186 86.125553 186.342082 83.595775 
C 183.812304 81.065997 180.380707 79.644583 176.80306 79.644583 
C 173.225414 79.644583 169.793817 81.065997 167.264039 83.595775 
C 164.734261 86.125553 163.312847 89.55715 163.312847 93.134796 
C 163.312847 96.712443 164.734261 100.14404 167.264039 102.673818 
C 169.793817 105.203596 173.225414 106.62501 176.80306 106.62501 
z
" clip-path="url(#pa71f307b7a)" style="fill: #a0a0a0"/>
   </g>
   <g id="patch_21">
    <path d="M 295.51694 120.115224 
C 302.672233 120.115224 309.535427 117.272396 314.594983 112.212839 
C 319.654539 107.153283 322.497367 100.290089 322.497367 93.134796 
C 322.497367 85.979503 319.654539 79.11631 314.594983 74.056753 
C 309.535427 68.997197 302.672233 66.154369 295.51694 66.154369 
C 288.361647 66.154369 281.498453 68.997197 276.438897 74.056753 
C 271.379341 79.11631 268.536513 85.979503 268.536513 93.134796 
C 268.536513 100.290089 271.379341 107.153283 276.438897 112.212839 
C 281.498453 117.272396 288.361647 120.115224 295.51694 120.115224 
z
" clip-path="url(#pa71f307b7a)" style="fill: #0dab76"/>
   </g>
   <g id="patch_22">
    <path d="M 295.51694 106.62501 
C 299.094586 106.62501 302.526183 105.203596 305.055961 102.673818 
C 307.585739 100.14404 309.007153 96.712443 309.007153 93.134796 
C 309.007153 89.55715 307.585739 86.125553 305.055961 83.595775 
C 302.526183 81.065997 299.094586 79.644583 295.51694 79.644583 
C 291.939293 79.644583 288.507696 81.065997 285.977918 83.595775 
C 283.44814 86.125553 282.026726 89.55715 282.026726 93.134796 
C 282.026726 96.712443 283.44814 100.14404 285.977918 102.673818 
C 288.507696 105.203596 291.939293 106.62501 295.51694 106.62501 
z
" clip-path="url(#pa71f307b7a)" style="fill: #a0a0a0"/>
   </g>
   <g id="matplotlib.axis_1">
    <g id="xtick_1">
     <g id="line2d_14">
      <defs>
       <path id="m909a38a573" d="M 0 0 
L 0 3.5 
" style="stroke: #ffffff; stroke-width: 0.8"/>
      </defs>
      <g>
       <use xlink:href="#m909a38a573" x="168.708932" y="307.584" style="fill: #ffffff; stroke: #ffffff; stroke-width: 0.8"/>
      </g>
     </g>
     <g id="text_3">
      <text style="fill: #ffffff; font: 10px 'sans-serif'; text-anchor: middle" x="168.708932" y="322.182437" transform="rotate(-0, 168.708932, 322.182437)">−5.0</text>
     </g>
    </g>
    <g id="xtick_2">
     <g id="line2d_15">
      <g>
       <use xlink:href="#m909a38a573" x="202.434466" y="307.584" style="fill: #ffffff; stroke: #ffffff; stroke-width: 0.8"/>
      </g>
     </g>
     <g id="text_4">
      <text style="fill: #ffffff; font: 10px 'sans-serif'; text-anchor: middle" x="202.434466" y="322.182437" transform="rotate(-0, 202.434466, 322.182437)">−2.5</text>
     </g>
    </g>
    <g id="xtick_3">
     <g id="line2d_16">
      <g>
       <use xlink:href="#m909a38a573" x="236.16" y="307.584" style="fill: #ffffff; stroke: #ffffff; stroke-width: 0.8"/>
      </g>
     </g>
     <g id="text_5">
      <text style="fill: #ffffff; font: 10px 'sans-serif'; text-anchor: middle" x="236.16" y="322.182437" transform="rotate(-0, 236.16, 322.182437)">0.0</text>
     </g>
    </g>
    <g id="xtick_4">
     <g id="line2d_17">
      <g>
       <use xlink:href="#m909a38a573" x="269.885534" y="307.584" style="fill: #ffffff; stroke: #ffffff; stroke-width: 0.8"/>
      </g>
     </g>
     <g id="text_6">
      <text style="fill: #ffffff; font: 10px 'sans-serif'; text-anchor: middle" x="269.885534" y="322.182437" transform="rotate(-0, 269.885534, 322.182437)">2.5</text>
     </g>
    </g>
    <g id="xtick_5">
     <g id="line2d_18">
      <g>
       <use xlink:href="#m909a38a573" x="303.611068" y="307.584" style="fill: #ffffff; stroke: #ffffff; stroke-width: 0.8"/>
      </g>
     </g>
     <g id="text_7">
      <text style="fill: #ffffff; font: 10px 'sans-serif'; text-anchor: middle" x="303.611068" y="322.182437" transform="rotate(-0, 303.611068, 322.182437)">5.0</text>
     </g>
    </g>
   </g>
   <g id="matplotlib.axis_2">
    <g id="ytick_1">
     <g id="line2d_19">
      <defs>
       <path id="mdf9c404bca" d="M 0 0 
L -3.5 0 
" style="stroke: #ffffff; stroke-width: 0.8"/>
      </defs>
      <g>
       <use xlink:href="#mdf9c404bca" x="141.188896" y="295.488" style="fill: #ffffff; stroke: #ffffff; stroke-width: 0.8"/>
      </g>
     </g>
     <g id="text_8">
      <text style="fill: #ffffff; font: 10px 'sans-serif'; text-anchor: end" x="134.188896" y="299.287219" transform="rotate(-0, 134.188896, 299.287219)">−15.0</text>
     </g>
    </g>
    <g id="ytick_2">
     <g id="line2d_20">
      <g>
       <use xlink:href="#mdf9c404bca" x="141.188896" y="261.762466" style="fill: #ffffff; stroke: #ffffff; stroke-width: 0.8"/>
      </g>
     </g>
     <g id="text_9">
      <text style="fill: #ffffff; font: 10px 'sans-serif'; text-anchor: end" x="134.188896" y="265.561685" transform="rotate(-0, 134.188896, 265.561685)">−12.5</text>
     </g>
    </g>
    <g id="ytick_3">
     <g id="line2d_21">
      <g>
       <use xlink:href="#mdf9c404bca" x="141.188896" y="228.036932" style="fill: #ffffff; stroke: #ffffff; stroke-width: 0.8"/>
      </g>
     </g>
     <g id="text_10">
      <text style="fill: #ffffff; font: 10px 'sans-serif'; text-anchor: end" x="134.188896" y="231.836151" transform="rotate(-0, 134.188896, 231.836151)">−10.0</text>
     </g>
    </g>
    <g id="ytick_4">
     <g id="line2d_22">
      <g>
       <use xlink:href="#mdf9c404bca" x="141.188896" y="194.311398" style="fill: #ffffff; stroke: #ffffff; stroke-width: 0.8"/>
      </g>
     </g>
     <g id="text_11">
      <text style="fill: #ffffff; font: 10px 'sans-serif'; text-anchor: end" x="134.188896" y="198.110617" transform="rotate(-0, 134.188896, 198.110617)">−7.5</text>
     </g>
    </g>
    <g id="ytick_5">
     <g id="line2d_23">
      <g>
       <use xlink:href="#mdf9c404bca" x="141.188896" y="160.585864" style="fill: #ffffff; stroke: #ffffff; stroke-width: 0.8"/>
      </g>
     </g>
     <g id="text_12">
      <text style="fill: #ffffff; font: 10px 'sans-serif'; text-anchor: end" x="134.188896" y="164.385083" transform="rotate(-0, 134.188896, 164.385083)">−5.0</text>
     </g>
    </g>
    <g id="ytick_6">
     <g id="line2d_24">
      <g>
       <use xlink:href="#mdf9c404bca" x="141.188896" y="126.86033" style="fill: #ffffff; stroke: #ffffff; stroke-width: 0.8"/>
      </g>
     </g>
     <g id="text_13">
      <text style="fill: #ffffff; font: 10px 'sans-serif'; text-anchor: end" x="134.188896" y="130.659549" transform="rotate(-0, 134.188896, 130.659549)">−2.5</text>
     </g>
    </g>
    <g id="ytick_7">
     <g id="line2d_25">
      <g>
       <use xlink:href="#mdf9c404bca" x="141.188896" y="93.134796" style="fill: #ffffff; stroke: #ffffff; stroke-width: 0.8"/>
      </g>
     </g>
     <g id="text_14">
      <text style="fill: #ffffff; font: 10px 'sans-serif'; text-anchor: end" x="134.188896" y="96.934015" transform="rotate(-0, 134.188896, 96.934015)">0.0</text>
     </g>
    </g>
    <g id="ytick_8">
     <g id="line2d_26">
      <g>
       <use xlink:href="#mdf9c404bca" x="141.188896" y="59.409262" style="fill: #ffffff; stroke: #ffffff; stroke-width: 0.8"/>
      </g>
     </g>
     <g id="text_15">
      <text style="fill: #ffffff; font: 10px 'sans-serif'; text-anchor: end" x="134.188896" y="63.208481" transform="rotate(-0, 134.188896, 63.208481)">2.5</text>
     </g>
    </g>
   </g>
   <g id="patch_23">
    <path d="M 141.188896 307.584 
L 141.188896 41.472 
" style="fill: none; stroke: #ffffff; stroke-width: 0.8; stroke-linejoin: miter; stroke-linecap: square"/>
   </g>
   <g id="patch_24">
    <path d="M 331.131104 307.584 
L 331.131104 41.472 
" style="fill: none; stroke: #ffffff; stroke-width: 0.8; stroke-linejoin: miter; stroke-linecap: square"/>
   </g>
   <g id="patch_25">
    <path d="M 141.188896 307.584 
L 331.131104 307.584 
" style="fill: none; stroke: #ffffff; stroke-width: 0.8; stroke-linejoin: miter; stroke-linecap: square"/>
   </g>
   <g id="patch_26">
    <path d="M 141.188896 41.472 
L 331.131104 41.472 
" style="fill: none; stroke: #ffffff; stroke-width: 0.8; stroke-linejoin: miter; stroke-linecap: square"/>
   </g>
   <g id="text_16">
    <text style="fill: #ffffff; font: 12px 'sans-serif'; text-anchor: middle" x="236.16" y="35.472" transform="rotate(-0, 236.16, 35.472)">POT-PTH-ALPS-H</text>
   </g>
  </g>
 </g>
 <defs>
  <clipPath id="pa71f307b7a">
   <rect x="141.188896" y="41.472" width="189.942207" height="266.112"/>
  </clipPath>
 </defs>
</svg>
