<?xml version="1.0" encoding="utf-8" standalone="no"?>
<!DOCTYPE svg PUBLIC "-//W3C//DTD SVG 1.1//EN"
  "http://www.w3.org/Graphics/SVG/1.1/DTD/svg11.dtd">
<svg xmlns:xlink="http://www.w3.org/1999/xlink" width="460.8pt" height="345.6pt" viewBox="0 0 460.8 345.6" xmlns="http://www.w3.org/2000/svg" version="1.1">
 <metadata>
  <rdf:RDF xmlns:dc="http://purl.org/dc/elements/1.1/" xmlns:cc="http://creativecommons.org/ns#" xmlns:rdf="http://www.w3.org/1999/02/22-rdf-syntax-ns#">
   <cc:Work>
    <dc:type rdf:resource="http://purl.org/dc/dcmitype/StillImage"/>
    <dc:date>2023-02-18T16:05:54.885048</dc:date>
    <dc:format>image/svg+xml</dc:format>
    <dc:creator>
     <cc:Agent>
      <dc:title>Matplotlib v3.5.1, https://matplotlib.org/</dc:title>
     </cc:Agent>
    </dc:creator>
   </cc:Work>
  </rdf:RDF>
 </metadata>
 <defs>
  <style type="text/css">*{stroke-linejoin: round; stroke-linecap: butt}</style>
 </defs>
 <g id="figure_1">
  <g id="patch_1">
   <path d="M 0 345.6 
L 460.8 345.6 
L 460.8 0 
L 0 0 
z
" style="fill: #2b2b2b"/>
  </g>
  <g id="axes_1">
   <g id="patch_2">
    <path d="M 57.6 197.1456 
L 414.72 197.1456 
L 414.72 151.9104 
L 57.6 151.9104 
z
" style="fill: #2b2b2b"/>
   </g>
   <g id="line2d_1">
    <path d="M 97.640727 166.952727 
L 374.679273 166.952727 
" clip-path="url(#pa8bf283f1c)" style="fill: none; stroke: #ffcd07; stroke-width: 0.549748; stroke-linecap: round"/>
   </g>
   <g id="line2d_2">
    <path d="M 374.679273 166.952727 
L 374.679273 184.267636 
" clip-path="url(#pa8bf283f1c)" style="fill: none; stroke: #ffcd07; stroke-width: 0.549748; stroke-linecap: round"/>
   </g>
   <g id="line2d_3">
    <path d="M 374.679273 184.267636 
L 97.640727 184.267636 
" clip-path="url(#pa8bf283f1c)" style="fill: none; stroke: #ffcd07; stroke-width: 0.549748; stroke-linecap: round"/>
   </g>
   <g id="line2d_4">
    <path d="M 97.640727 184.267636 
L 97.640727 166.952727 
" clip-path="url(#pa8bf283f1c)" style="fill: none; stroke: #ffcd07; stroke-width: 0.549748; stroke-linecap: round"/>
   </g>
   <g id="line2d_5">
    <path d="M 73.832727 158.295273 
L 398.487273 158.295273 
" clip-path="url(#pa8bf283f1c)" style="fill: none; stroke: #808080; stroke-width: 0.549748; stroke-linecap: round"/>
   </g>
   <g id="line2d_6">
    <path d="M 398.487273 158.295273 
L 398.487273 192.925091 
" clip-path="url(#pa8bf283f1c)" style="fill: none; stroke: #808080; stroke-width: 0.549748; stroke-linecap: round"/>
   </g>
   <g id="line2d_7">
    <path d="M 398.487273 192.925091 
L 73.832727 192.925091 
" clip-path="url(#pa8bf283f1c)" style="fill: none; stroke: #808080; stroke-width: 0.549748; stroke-linecap: round"/>
   </g>
   <g id="line2d_8">
    <path d="M 73.832727 192.925091 
L 73.832727 158.295273 
" clip-path="url(#pa8bf283f1c)" style="fill: none; stroke: #808080; stroke-width: 0.549748; stroke-linecap: round"/>
   </g>
   <g id="patch_3">
    <path d="M 84.654545 162.624 
C 85.802537 162.624 86.903665 162.167898 87.715418 161.356145 
C 88.527171 160.544392 88.983273 159.443265 88.983273 158.295273 
C 88.983273 157.147281 88.527171 156.046153 87.715418 155.2344 
C 86.903665 154.422647 85.802537 153.966545 84.654545 153.966545 
C 83.506554 153.966545 82.405426 154.422647 81.593673 155.2344 
C 80.78192 156.046153 80.325818 157.147281 80.325818 158.295273 
C 80.325818 159.443265 80.78192 160.544392 81.593673 161.356145 
C 82.405426 162.167898 83.506554 162.624 84.654545 162.624 
z
" clip-path="url(#pa8bf283f1c)" style="fill: #0dab76"/>
   </g>
   <g id="patch_4">
    <path d="M 84.654545 160.459636 
C 85.228541 160.459636 85.779105 160.231585 86.184982 159.825709 
C 86.590858 159.419833 86.818909 158.869269 86.818909 158.295273 
C 86.818909 157.721277 86.590858 157.170713 86.184982 156.764837 
C 85.779105 156.35896 85.228541 156.130909 84.654545 156.130909 
C 84.08055 156.130909 83.529986 156.35896 83.124109 156.764837 
C 82.718233 157.170713 82.490182 157.721277 82.490182 158.295273 
C 82.490182 158.869269 82.718233 159.419833 83.124109 159.825709 
C 83.529986 160.231585 84.08055 160.459636 84.654545 160.459636 
z
" clip-path="url(#pa8bf283f1c)" style="fill: #a0a0a0"/>
   </g>
   <g id="patch_5">
    <path d="M 84.654545 173.445818 
C 85.802537 173.445818 86.903665 172.989716 87.715418 172.177963 
C 88.527171 171.36621 88.983273 170.265083 88.983273 169.117091 
C 88.983273 167.969099 88.527171 166.867971 87.715418 166.056219 
C 86.903665 165.244466 85.802537 164.788364 84.654545 164.788364 
C 83.506554 164.788364 82.405426 165.244466 81.593673 166.056219 
C 80.78192 166.867971 80.325818 167.969099 80.325818 169.117091 
C 80.325818 170.265083 80.78192 171.36621 81.593673 172.177963 
C 82.405426 172.989716 83.506554 173.445818 84.654545 173.445818 
z
" clip-path="url(#pa8bf283f1c)" style="fill: #0dab76"/>
   </g>
   <g id="patch_6">
    <path d="M 84.654545 171.281455 
C 85.228541 171.281455 85.779105 171.053404 86.184982 170.647527 
C 86.590858 170.241651 86.818909 169.691087 86.818909 169.117091 
C 86.818909 168.543095 86.590858 167.992531 86.184982 167.586655 
C 85.779105 167.180778 85.228541 166.952727 84.654545 166.952727 
C 84.08055 166.952727 83.529986 167.180778 83.124109 167.586655 
C 82.718233 167.992531 82.490182 168.543095 82.490182 169.117091 
C 82.490182 169.691087 82.718233 170.241651 83.124109 170.647527 
C 83.529986 171.053404 84.08055 171.281455 84.654545 171.281455 
z
" clip-path="url(#pa8bf283f1c)" style="fill: #a0a0a0"/>
   </g>
   <g id="patch_7">
    <path d="M 84.654545 184.267636 
C 85.802537 184.267636 86.903665 183.811534 87.715418 182.999781 
C 88.527171 182.188029 88.983273 181.086901 88.983273 179.938909 
C 88.983273 178.790917 88.527171 177.68979 87.715418 176.878037 
C 86.903665 176.066284 85.802537 175.610182 84.654545 175.610182 
C 83.506554 175.610182 82.405426 176.066284 81.593673 176.878037 
C 80.78192 177.68979 80.325818 178.790917 80.325818 179.938909 
C 80.325818 181.086901 80.78192 182.188029 81.593673 182.999781 
C 82.405426 183.811534 83.506554 184.267636 84.654545 184.267636 
z
" clip-path="url(#pa8bf283f1c)" style="fill: #0dab76"/>
   </g>
   <g id="patch_8">
    <path d="M 84.654545 182.103273 
C 85.228541 182.103273 85.779105 181.875222 86.184982 181.469345 
C 86.590858 181.063469 86.818909 180.512905 86.818909 179.938909 
C 86.818909 179.364913 86.590858 178.814349 86.184982 178.408473 
C 85.779105 178.002596 85.228541 177.774545 84.654545 177.774545 
C 84.08055 177.774545 83.529986 178.002596 83.124109 178.408473 
C 82.718233 178.814349 82.490182 179.364913 82.490182 179.938909 
C 82.490182 180.512905 82.718233 181.063469 83.124109 181.469345 
C 83.529986 181.875222 84.08055 182.103273 84.654545 182.103273 
z
" clip-path="url(#pa8bf283f1c)" style="fill: #a0a0a0"/>
   </g>
   <g id="patch_9">
    <path d="M 84.654545 195.089455 
C 85.802537 195.089455 86.903665 194.633353 87.715418 193.8216 
C 88.527171 193.009847 88.983273 191.908719 88.983273 190.760727 
C 88.983273 189.612735 88.527171 188.511608 87.715418 187.699855 
C 86.903665 186.888102 85.802537 186.432 84.654545 186.432 
C 83.506554 186.432 82.405426 186.888102 81.593673 187.699855 
C 80.78192 188.511608 80.325818 189.612735 80.325818 190.760727 
C 80.325818 191.908719 80.78192 193.009847 81.593673 193.8216 
C 82.405426 194.633353 83.506554 195.089455 84.654545 195.089455 
z
" clip-path="url(#pa8bf283f1c)" style="fill: #0dab76"/>
   </g>
   <g id="patch_10">
    <path d="M 84.654545 192.925091 
C 85.228541 192.925091 85.779105 192.69704 86.184982 192.291163 
C 86.590858 191.885287 86.818909 191.334723 86.818909 190.760727 
C 86.818909 190.186731 86.590858 189.636167 86.184982 189.230291 
C 85.779105 188.824415 85.228541 188.596364 84.654545 188.596364 
C 84.08055 188.596364 83.529986 188.824415 83.124109 189.230291 
C 82.718233 189.636167 82.490182 190.186731 82.490182 190.760727 
C 82.490182 191.334723 82.718233 191.885287 83.124109 192.291163 
C 83.529986 192.69704 84.08055 192.925091 84.654545 192.925091 
z
" clip-path="url(#pa8bf283f1c)" style="fill: #a0a0a0"/>
   </g>
   <g id="patch_11">
    <path d="M 387.665455 173.445818 
C 388.813446 173.445818 389.914574 172.989716 390.726327 172.177963 
C 391.53808 171.36621 391.994182 170.265083 391.994182 169.117091 
C 391.994182 167.969099 391.53808 166.867971 390.726327 166.056219 
C 389.914574 165.244466 388.813446 164.788364 387.665455 164.788364 
C 386.517463 164.788364 385.416335 165.244466 384.604582 166.056219 
C 383.792829 166.867971 383.336727 167.969099 383.336727 169.117091 
C 383.336727 170.265083 383.792829 171.36621 384.604582 172.177963 
C 385.416335 172.989716 386.517463 173.445818 387.665455 173.445818 
z
" clip-path="url(#pa8bf283f1c)" style="fill: #0dab76"/>
   </g>
   <g id="patch_12">
    <path d="M 387.665455 171.281455 
C 388.23945 171.281455 388.790014 171.053404 389.195891 170.647527 
C 389.601767 170.241651 389.829818 169.691087 389.829818 169.117091 
C 389.829818 168.543095 389.601767 167.992531 389.195891 167.586655 
C 388.790014 167.180778 388.23945 166.952727 387.665455 166.952727 
C 387.091459 166.952727 386.540895 167.180778 386.135018 167.586655 
C 385.729142 167.992531 385.501091 168.543095 385.501091 169.117091 
C 385.501091 169.691087 385.729142 170.241651 386.135018 170.647527 
C 386.540895 171.053404 387.091459 171.281455 387.665455 171.281455 
z
" clip-path="url(#pa8bf283f1c)" style="fill: #a0a0a0"/>
   </g>
   <g id="patch_13">
    <path d="M 387.665455 195.089455 
C 388.813446 195.089455 389.914574 194.633353 390.726327 193.8216 
C 391.53808 193.009847 391.994182 191.908719 391.994182 190.760727 
C 391.994182 189.612735 391.53808 188.511608 390.726327 187.699855 
C 389.914574 186.888102 388.813446 186.432 387.665455 186.432 
C 386.517463 186.432 385.416335 186.888102 384.604582 187.699855 
C 383.792829 188.511608 383.336727 189.612735 383.336727 190.760727 
C 383.336727 191.908719 383.792829 193.009847 384.604582 193.8216 
C 385.416335 194.633353 386.517463 195.089455 387.665455 195.089455 
z
" clip-path="url(#pa8bf283f1c)" style="fill: #0dab76"/>
   </g>
   <g id="patch_14">
    <path d="M 387.665455 192.925091 
C 388.23945 192.925091 388.790014 192.69704 389.195891 192.291163 
C 389.601767 191.885287 389.829818 191.334723 389.829818 190.760727 
C 389.829818 190.186731 389.601767 189.636167 389.195891 189.230291 
C 388.790014 188.824415 388.23945 188.596364 387.665455 188.596364 
C 387.091459 188.596364 386.540895 188.824415 386.135018 189.230291 
C 385.729142 189.636167 385.501091 190.186731 385.501091 190.760727 
C 385.501091 191.334723 385.729142 191.885287 386.135018 192.291163 
C 386.540895 192.69704 387.091459 192.925091 387.665455 192.925091 
z
" clip-path="url(#pa8bf283f1c)" style="fill: #a0a0a0"/>
   </g>
   <g id="matplotlib.axis_1">
    <g id="xtick_1">
     <g id="line2d_9">
      <defs>
       <path id="mbbab6c23c0" d="M 0 0 
L 0 3.5 
" style="stroke: #ffffff; stroke-width: 0.8"/>
      </defs>
      <g>
       <use xlink:href="#mbbab6c23c0" x="84.654545" y="197.1456" style="fill: #ffffff; stroke: #ffffff; stroke-width: 0.8"/>
      </g>
     </g>
     <g id="text_1">
      <text style="fill: #ffffff; font: 10px 'sans-serif'; text-anchor: middle" x="84.654545" y="211.744037" transform="rotate(-0, 84.654545, 211.744037)">0</text>
     </g>
    </g>
    <g id="xtick_2">
     <g id="line2d_10">
      <g>
       <use xlink:href="#mbbab6c23c0" x="127.941818" y="197.1456" style="fill: #ffffff; stroke: #ffffff; stroke-width: 0.8"/>
      </g>
     </g>
     <g id="text_2">
      <text style="fill: #ffffff; font: 10px 'sans-serif'; text-anchor: middle" x="127.941818" y="211.744037" transform="rotate(-0, 127.941818, 211.744037)">10</text>
     </g>
    </g>
    <g id="xtick_3">
     <g id="line2d_11">
      <g>
       <use xlink:href="#mbbab6c23c0" x="171.229091" y="197.1456" style="fill: #ffffff; stroke: #ffffff; stroke-width: 0.8"/>
      </g>
     </g>
     <g id="text_3">
      <text style="fill: #ffffff; font: 10px 'sans-serif'; text-anchor: middle" x="171.229091" y="211.744037" transform="rotate(-0, 171.229091, 211.744037)">20</text>
     </g>
    </g>
    <g id="xtick_4">
     <g id="line2d_12">
      <g>
       <use xlink:href="#mbbab6c23c0" x="214.516364" y="197.1456" style="fill: #ffffff; stroke: #ffffff; stroke-width: 0.8"/>
      </g>
     </g>
     <g id="text_4">
      <text style="fill: #ffffff; font: 10px 'sans-serif'; text-anchor: middle" x="214.516364" y="211.744037" transform="rotate(-0, 214.516364, 211.744037)">30</text>
     </g>
    </g>
    <g id="xtick_5">
     <g id="line2d_13">
      <g>
       <use xlink:href="#mbbab6c23c0" x="257.803636" y="197.1456" style="fill: #ffffff; stroke: #ffffff; stroke-width: 0.8"/>
      </g>
     </g>
     <g id="text_5">
      <text style="fill: #ffffff; font: 10px 'sans-serif'; text-anchor: middle" x="257.803636" y="211.744037" transform="rotate(-0, 257.803636, 211.744037)">40</text>
     </g>
    </g>
    <g id="xtick_6">
     <g id="line2d_14">
      <g>
       <use xlink:href="#mbbab6c23c0" x="301.090909" y="197.1456" style="fill: #ffffff; stroke: #ffffff; stroke-width: 0.8"/>
      </g>
     </g>
     <g id="text_6">
      <text style="fill: #ffffff; font: 10px 'sans-serif'; text-anchor: middle" x="301.090909" y="211.744037" transform="rotate(-0, 301.090909, 211.744037)">50</text>
     </g>
    </g>
    <g id="xtick_7">
     <g id="line2d_15">
      <g>
       <use xlink:href="#mbbab6c23c0" x="344.378182" y="197.1456" style="fill: #ffffff; stroke: #ffffff; stroke-width: 0.8"/>
      </g>
     </g>
     <g id="text_7">
      <text style="fill: #ffffff; font: 10px 'sans-serif'; text-anchor: middle" x="344.378182" y="211.744037" transform="rotate(-0, 344.378182, 211.744037)">60</text>
     </g>
    </g>
    <g id="xtick_8">
     <g id="line2d_16">
      <g>
       <use xlink:href="#mbbab6c23c0" x="387.665455" y="197.1456" style="fill: #ffffff; stroke: #ffffff; stroke-width: 0.8"/>
      </g>
     </g>
     <g id="text_8">
      <text style="fill: #ffffff; font: 10px 'sans-serif'; text-anchor: middle" x="387.665455" y="211.744037" transform="rotate(-0, 387.665455, 211.744037)">70</text>
     </g>
    </g>
   </g>
   <g id="matplotlib.axis_2">
    <g id="ytick_1">
     <g id="line2d_17">
      <defs>
       <path id="m678f88bf4b" d="M 0 0 
L -3.5 0 
" style="stroke: #ffffff; stroke-width: 0.8"/>
      </defs>
      <g>
       <use xlink:href="#m678f88bf4b" x="57.6" y="175.610182" style="fill: #ffffff; stroke: #ffffff; stroke-width: 0.8"/>
      </g>
     </g>
     <g id="text_9">
      <text style="fill: #ffffff; font: 10px 'sans-serif'; text-anchor: end" x="50.6" y="179.409401" transform="rotate(-0, 50.6, 179.409401)">0</text>
     </g>
    </g>
    <g id="ytick_2">
     <g id="line2d_18">
      <g>
       <use xlink:href="#m678f88bf4b" x="57.6" y="153.966545" style="fill: #ffffff; stroke: #ffffff; stroke-width: 0.8"/>
      </g>
     </g>
     <g id="text_10">
      <text style="fill: #ffffff; font: 10px 'sans-serif'; text-anchor: end" x="50.6" y="157.765764" transform="rotate(-0, 50.6, 157.765764)">5</text>
     </g>
    </g>
   </g>
   <g id="patch_15">
    <path d="M 57.6 197.1456 
L 57.6 151.9104 
" style="fill: none; stroke: #ffffff; stroke-width: 0.8; stroke-linejoin: miter; stroke-linecap: square"/>
   </g>
   <g id="patch_16">
    <path d="M 414.72 197.1456 
L 414.72 151.9104 
" style="fill: none; stroke: #ffffff; stroke-width: 0.8; stroke-linejoin: miter; stroke-linecap: square"/>
   </g>
   <g id="patch_17">
    <path d="M 57.6 197.1456 
L 414.72 197.1456 
" style="fill: none; stroke: #ffffff; stroke-width: 0.8; stroke-linejoin: miter; stroke-linecap: square"/>
   </g>
   <g id="patch_18">
    <path d="M 57.6 151.9104 
L 414.72 151.9104 
" style="fill: none; stroke: #ffffff; stroke-width: 0.8; stroke-linejoin: miter; stroke-linecap: square"/>
   </g>
   <g id="text_11">
    <text style="fill: #ffffff; font: 12px 'sans-serif'; text-anchor: middle" x="236.16" y="145.9104" transform="rotate(-0, 236.16, 145.9104)">RS6011</text>
   </g>
  </g>
 </g>
 <defs>
  <clipPath id="pa8bf283f1c">
   <rect x="57.6" y="151.9104" width="357.12" height="45.2352"/>
  </clipPath>
 </defs>
</svg>
