<?xml version="1.0" encoding="utf-8" standalone="no"?>
<!DOCTYPE svg PUBLIC "-//W3C//DTD SVG 1.1//EN"
  "http://www.w3.org/Graphics/SVG/1.1/DTD/svg11.dtd">
<svg xmlns:xlink="http://www.w3.org/1999/xlink" width="460.8pt" height="345.6pt" viewBox="0 0 460.8 345.6" xmlns="http://www.w3.org/2000/svg" version="1.1">
 <metadata>
  <rdf:RDF xmlns:dc="http://purl.org/dc/elements/1.1/" xmlns:cc="http://creativecommons.org/ns#" xmlns:rdf="http://www.w3.org/1999/02/22-rdf-syntax-ns#">
   <cc:Work>
    <dc:type rdf:resource="http://purl.org/dc/dcmitype/StillImage"/>
    <dc:date>2023-02-18T16:06:01.324162</dc:date>
    <dc:format>image/svg+xml</dc:format>
    <dc:creator>
     <cc:Agent>
      <dc:title>Matplotlib v3.5.1, https://matplotlib.org/</dc:title>
     </cc:Agent>
    </dc:creator>
   </cc:Work>
  </rdf:RDF>
 </metadata>
 <defs>
  <style type="text/css">*{stroke-linejoin: round; stroke-linecap: butt}</style>
 </defs>
 <g id="figure_1">
  <g id="patch_1">
   <path d="M 0 345.6 
L 460.8 345.6 
L 460.8 0 
L 0 0 
z
" style="fill: #2b2b2b"/>
  </g>
  <g id="axes_1">
   <g id="patch_2">
    <path d="M 85.441967 307.584 
L 386.878033 307.584 
L 386.878033 41.472 
L 85.441967 41.472 
z
" style="fill: #2b2b2b"/>
   </g>
   <g id="patch_3">
    <path d="M 107.707131 139.417765 
C 107.763908 139.417765 107.818367 139.395207 107.858515 139.35506 
C 107.898662 139.314912 107.921219 139.260453 107.921219 139.203676 
C 107.921219 139.1469 107.898662 139.092441 107.858515 139.052293 
C 107.818367 139.012146 107.763908 138.989588 107.707131 138.989588 
C 107.650355 138.989588 107.595895 139.012146 107.555748 139.052293 
C 107.515601 139.092441 107.493043 139.1469 107.493043 139.203676 
C 107.493043 139.260453 107.515601 139.314912 107.555748 139.35506 
C 107.595895 139.395207 107.650355 139.417765 107.707131 139.417765 
L 107.707131 139.417765 
z
" clip-path="url(#p7bc0aa699c)" style="fill: none; stroke: #808080; stroke-width: 2.140881; stroke-linejoin: miter"/>
   </g>
   <g id="line2d_1">
    <path d="M 107.456125 119.704539 
L 121.551756 125.609458 
L 121.551756 125.609458 
L 107.455465 131.514698 
L 107.455465 131.514698 
" clip-path="url(#p7bc0aa699c)" style="fill: none; stroke: #808080; stroke-width: 1.087568; stroke-linecap: round"/>
   </g>
   <g id="line2d_2">
    <path d="M 123.864095 115.131337 
L 130.913108 136.087875 
L 130.913108 136.087875 
L 137.77081 115.130798 
L 137.77081 115.130798 
" clip-path="url(#p7bc0aa699c)" style="fill: none; stroke: #808080; stroke-width: 1.087568; stroke-linecap: round"/>
   </g>
   <g id="line2d_3">
    <path d="M 140.1774 135.705816 
L 147.226413 114.749278 
L 147.226413 114.749278 
L 154.084115 135.706355 
L 154.084115 135.706355 
" clip-path="url(#p7bc0aa699c)" style="fill: none; stroke: #808080; stroke-width: 1.087568; stroke-linecap: round"/>
   </g>
   <g id="line2d_4">
    <path d="M 152.371209 130.563049 
L 141.893303 130.563049 
" clip-path="url(#p7bc0aa699c)" style="fill: none; stroke: #808080; stroke-width: 1.087568; stroke-linecap: round"/>
   </g>
   <g id="line2d_5">
    <path d="M 158.776951 115.131448 
L 158.776951 136.08726 
L 168.111812 136.08726 
" clip-path="url(#p7bc0aa699c)" style="fill: none; stroke: #808080; stroke-width: 1.087568; stroke-linecap: round"/>
   </g>
   <g id="line2d_6">
    <path d="M 173.947824 115.132334 
L 173.947824 130.182417 
L 173.947824 130.182417 
L 174.328839 132.087491 
L 174.328839 132.087491 
L 175.090868 133.61155 
L 176.42442 134.945102 
L 177.948479 135.897638 
L 179.853553 136.088146 
L 181.568119 135.897638 
L 183.282685 134.945102 
L 184.616237 133.61155 
L 185.378267 132.087491 
L 185.568774 130.182417 
L 185.568774 115.132334 
" clip-path="url(#p7bc0aa699c)" style="fill: none; stroke: #808080; stroke-width: 1.087568; stroke-linecap: round"/>
   </g>
   <g id="line2d_7">
    <path d="M 200.739242 136.087361 
L 191.404381 136.087361 
L 191.404381 115.131549 
L 200.739242 115.131549 
" clip-path="url(#p7bc0aa699c)" style="fill: none; stroke: #808080; stroke-width: 1.087568; stroke-linecap: round"/>
   </g>
   <g id="line2d_8">
    <path d="M 191.404759 124.466905 
L 198.453532 124.466905 
" clip-path="url(#p7bc0aa699c)" style="fill: none; stroke: #808080; stroke-width: 1.087568; stroke-linecap: round"/>
   </g>
   <g id="patch_4">
    <path d="M 107.707131 107.304547 
C 107.763908 107.304547 107.818367 107.28199 107.858515 107.241842 
C 107.898662 107.201695 107.921219 107.147236 107.921219 107.090459 
C 107.921219 107.033682 107.898662 106.979223 107.858515 106.939076 
C 107.818367 106.898929 107.763908 106.876371 107.707131 106.876371 
C 107.650355 106.876371 107.595895 106.898929 107.555748 106.939076 
C 107.515601 106.979223 107.493043 107.033682 107.493043 107.090459 
C 107.493043 107.147236 107.515601 107.201695 107.555748 107.241842 
C 107.595895 107.28199 107.650355 107.304547 107.707131 107.304547 
L 107.707131 107.304547 
z
" clip-path="url(#p7bc0aa699c)" style="fill: none; stroke: #808080; stroke-width: 2.140881; stroke-linejoin: miter"/>
   </g>
   <g id="line2d_9">
    <path d="M 107.456125 87.591322 
L 121.551756 93.496241 
L 121.551756 93.496241 
L 107.455465 99.401481 
L 107.455465 99.401481 
" clip-path="url(#p7bc0aa699c)" style="fill: none; stroke: #808080; stroke-width: 1.087568; stroke-linecap: round"/>
   </g>
   <g id="line2d_10">
    <path d="M 125.008492 103.973407 
L 125.008492 83.017595 
L 136.629442 103.973407 
L 136.629442 83.017595 
" clip-path="url(#p7bc0aa699c)" style="fill: none; stroke: #808080; stroke-width: 1.087568; stroke-linecap: round"/>
   </g>
   <g id="line2d_11">
    <path d="M 140.1774 103.592599 
L 147.226413 82.636061 
L 147.226413 82.636061 
L 154.084115 103.593138 
L 154.084115 103.593138 
" clip-path="url(#p7bc0aa699c)" style="fill: none; stroke: #808080; stroke-width: 1.087568; stroke-linecap: round"/>
   </g>
   <g id="line2d_12">
    <path d="M 152.371209 98.449832 
L 141.893303 98.449832 
" clip-path="url(#p7bc0aa699c)" style="fill: none; stroke: #808080; stroke-width: 1.087568; stroke-linecap: round"/>
   </g>
   <g id="line2d_13">
    <path d="M 156.49229 103.974026 
L 156.49229 83.018214 
L 163.350556 94.639164 
L 163.350556 94.639164 
L 170.399329 83.018214 
L 170.399329 83.018214 
L 170.399329 103.974026 
" clip-path="url(#p7bc0aa699c)" style="fill: none; stroke: #808080; stroke-width: 1.087568; stroke-linecap: round"/>
   </g>
   <g id="line2d_14">
    <path d="M 184.425728 103.974143 
L 175.090867 103.974143 
L 175.090867 83.018332 
L 184.425728 83.018332 
" clip-path="url(#p7bc0aa699c)" style="fill: none; stroke: #808080; stroke-width: 1.087568; stroke-linecap: round"/>
   </g>
   <g id="line2d_15">
    <path d="M 175.091244 92.353688 
L 182.140017 92.353688 
" clip-path="url(#p7bc0aa699c)" style="fill: none; stroke: #808080; stroke-width: 1.087568; stroke-linecap: round"/>
   </g>
   <g id="patch_5">
    <path d="M 305.738637 203.430111 
C 311.41632 203.430111 316.862225 201.174343 320.876953 197.159615 
C 324.891681 193.144887 327.147449 187.698983 327.147449 182.021299 
C 327.147449 176.343616 324.891681 170.897712 320.876953 166.882984 
C 316.862225 162.868255 311.41632 160.612488 305.738637 160.612488 
C 300.060954 160.612488 294.61505 162.868255 290.600321 166.882984 
C 286.585593 170.897712 284.329826 176.343616 284.329826 182.021299 
C 284.329826 187.698983 286.585593 193.144887 290.600321 197.159615 
C 294.61505 201.174343 300.060954 203.430111 305.738637 203.430111 
L 305.738637 203.430111 
z
" clip-path="url(#p7bc0aa699c)" style="fill: none; stroke: #808080; stroke-width: 2.718919; stroke-linejoin: miter"/>
   </g>
   <g id="line2d_16">
    <path d="M 99.143607 74.977242 
L 290.752469 74.977242 
" clip-path="url(#p7bc0aa699c)" style="fill: none; stroke: #808080; stroke-width: 2.718919; stroke-linecap: round"/>
   </g>
   <g id="line2d_17">
    <path d="M 290.752469 74.977242 
L 373.176393 74.977242 
" clip-path="url(#p7bc0aa699c)" style="fill: none; stroke: #808080; stroke-width: 2.718919; stroke-linecap: round"/>
   </g>
   <g id="line2d_18">
    <path d="M 373.176393 214.134517 
L 99.143607 214.134517 
" clip-path="url(#p7bc0aa699c)" style="fill: none; stroke: #808080; stroke-width: 2.718919; stroke-linecap: round"/>
   </g>
   <g id="line2d_19">
    <path d="M 99.143607 214.134517 
L 99.143607 74.977242 
" clip-path="url(#p7bc0aa699c)" style="fill: none; stroke: #808080; stroke-width: 2.718919; stroke-linecap: round"/>
   </g>
   <g id="line2d_20">
    <path d="M 373.176393 74.977242 
L 373.176393 214.134517 
" clip-path="url(#p7bc0aa699c)" style="fill: none; stroke: #808080; stroke-width: 2.718919; stroke-linecap: round"/>
   </g>
   <g id="patch_6">
    <path d="M 176.392154 203.430115 
C 180.149912 201.26058 183.271056 198.139443 185.4406 194.381691 
C 187.610144 190.623938 188.752562 186.360381 188.752562 182.021299 
C 188.752562 177.682218 187.610144 173.418661 185.4406 169.660908 
C 183.271056 165.903155 180.149912 162.782018 176.392154 160.612484 
" clip-path="url(#p7bc0aa699c)" style="fill: none; stroke: #808080; stroke-width: 2.718919; stroke-linejoin: miter"/>
   </g>
   <g id="line2d_21">
    <path d="M 176.392151 203.430111 
L 156.770574 203.430111 
" clip-path="url(#p7bc0aa699c)" style="fill: none; stroke: #808080; stroke-width: 2.718919; stroke-linecap: round"/>
   </g>
   <g id="patch_7">
    <path d="M 156.770587 160.61251 
C 153.012841 162.782048 149.891708 165.903183 147.722173 169.660931 
C 145.552638 173.418678 144.410224 177.682227 144.410224 182.021299 
C 144.410224 186.360372 145.552638 190.62392 147.722173 194.381668 
C 149.891708 198.139415 153.012841 201.260551 156.770587 203.430089 
" clip-path="url(#p7bc0aa699c)" style="fill: none; stroke: #808080; stroke-width: 2.718919; stroke-linejoin: miter"/>
   </g>
   <g id="line2d_22">
    <path d="M 156.770574 160.612488 
L 176.392151 160.612488 
" clip-path="url(#p7bc0aa699c)" style="fill: none; stroke: #808080; stroke-width: 2.718919; stroke-linecap: round"/>
   </g>
   <g id="line2d_23">
    <path d="M 265.061895 66.413718 
L 265.061895 74.977242 
" clip-path="url(#p7bc0aa699c)" style="fill: none; stroke: #808080; stroke-width: 2.718919; stroke-linecap: round"/>
   </g>
   <g id="line2d_24">
    <path d="M 290.752469 74.977242 
L 290.752469 66.413718 
" clip-path="url(#p7bc0aa699c)" style="fill: none; stroke: #808080; stroke-width: 2.718919; stroke-linecap: round"/>
   </g>
   <g id="patch_8">
    <path d="M 290.752652 66.413718 
C 290.752702 64.72684 290.420465 63.056356 289.774956 61.497872 
C 289.129446 59.939388 288.183219 58.523213 286.990428 57.330399 
C 285.797637 56.137586 284.381481 55.191331 282.823009 54.545791 
C 281.264537 53.900252 279.59406 53.567982 277.907182 53.568 
" clip-path="url(#p7bc0aa699c)" style="fill: none; stroke: #808080; stroke-width: 2.718919; stroke-linejoin: miter"/>
   </g>
   <g id="patch_9">
    <path d="M 277.907182 53.568 
C 276.220328 53.568019 274.549881 53.900316 272.991442 54.545872 
C 271.433002 55.191427 270.016879 56.137688 268.824118 57.330498 
C 267.631356 58.523309 266.685154 59.939471 266.039662 61.497937 
C 265.39417 63.056403 265.061942 64.726864 265.061992 66.413718 
" clip-path="url(#p7bc0aa699c)" style="fill: none; stroke: #808080; stroke-width: 2.718919; stroke-linejoin: miter"/>
   </g>
   <g id="patch_10">
    <path d="M 127.403238 295.488 
C 134.216458 295.488 140.751543 292.781079 145.569217 287.963405 
C 150.386891 283.145731 153.093812 276.610646 153.093812 269.797426 
C 153.093812 262.984206 150.386891 256.449121 145.569217 251.631447 
C 140.751543 246.813773 134.216458 244.106853 127.403238 244.106853 
C 120.590018 244.106853 114.054933 246.813773 109.237259 251.631447 
C 104.419585 256.449121 101.712664 262.984206 101.712664 269.797426 
C 101.712664 276.610646 104.419585 283.145731 109.237259 287.963405 
C 114.054933 292.781079 120.590018 295.488 127.403238 295.488 
z
" clip-path="url(#p7bc0aa699c)" style="fill: #0dab76"/>
   </g>
   <g id="patch_11">
    <path d="M 127.403238 282.642713 
C 130.809848 282.642713 134.07739 281.289253 136.486227 278.880416 
C 138.895064 276.471579 140.248525 273.204036 140.248525 269.797426 
C 140.248525 266.390816 138.895064 263.123274 136.486227 260.714437 
C 134.07739 258.3056 130.809848 256.952139 127.403238 256.952139 
C 123.996628 256.952139 120.729085 258.3056 118.320248 260.714437 
C 115.911411 263.123274 114.557951 266.390816 114.557951 269.797426 
C 114.557951 273.204036 115.911411 276.471579 118.320248 278.880416 
C 120.729085 281.289253 123.996628 282.642713 127.403238 282.642713 
z
" clip-path="url(#p7bc0aa699c)" style="fill: #a0a0a0"/>
   </g>
   <g id="patch_12">
    <path d="M 236.16 295.488 
C 242.97322 295.488 249.508305 292.781079 254.325979 287.963405 
C 259.143653 283.145731 261.850574 276.610646 261.850574 269.797426 
C 261.850574 262.984206 259.143653 256.449121 254.325979 251.631447 
C 249.508305 246.813773 242.97322 244.106853 236.16 244.106853 
C 229.34678 244.106853 222.811695 246.813773 217.994021 251.631447 
C 213.176347 256.449121 210.469426 262.984206 210.469426 269.797426 
C 210.469426 276.610646 213.176347 283.145731 217.994021 287.963405 
C 222.811695 292.781079 229.34678 295.488 236.16 295.488 
z
" clip-path="url(#p7bc0aa699c)" style="fill: #0dab76"/>
   </g>
   <g id="patch_13">
    <path d="M 236.16 282.642713 
C 239.56661 282.642713 242.834152 281.289253 245.242989 278.880416 
C 247.651826 276.471579 249.005287 273.204036 249.005287 269.797426 
C 249.005287 266.390816 247.651826 263.123274 245.242989 260.714437 
C 242.834152 258.3056 239.56661 256.952139 236.16 256.952139 
C 232.75339 256.952139 229.485848 258.3056 227.077011 260.714437 
C 224.668174 263.123274 223.314713 266.390816 223.314713 269.797426 
C 223.314713 273.204036 224.668174 276.471579 227.077011 278.880416 
C 229.485848 281.289253 232.75339 282.642713 236.16 282.642713 
z
" clip-path="url(#p7bc0aa699c)" style="fill: #a0a0a0"/>
   </g>
   <g id="patch_14">
    <path d="M 344.916762 295.488 
C 351.729982 295.488 358.265067 292.781079 363.082741 287.963405 
C 367.900415 283.145731 370.607336 276.610646 370.607336 269.797426 
C 370.607336 262.984206 367.900415 256.449121 363.082741 251.631447 
C 358.265067 246.813773 351.729982 244.106853 344.916762 244.106853 
C 338.103542 244.106853 331.568457 246.813773 326.750783 251.631447 
C 321.933109 256.449121 319.226188 262.984206 319.226188 269.797426 
C 319.226188 276.610646 321.933109 283.145731 326.750783 287.963405 
C 331.568457 292.781079 338.103542 295.488 344.916762 295.488 
z
" clip-path="url(#p7bc0aa699c)" style="fill: #0dab76"/>
   </g>
   <g id="patch_15">
    <path d="M 344.916762 282.642713 
C 348.323372 282.642713 351.590915 281.289253 353.999752 278.880416 
C 356.408589 276.471579 357.762049 273.204036 357.762049 269.797426 
C 357.762049 266.390816 356.408589 263.123274 353.999752 260.714437 
C 351.590915 258.3056 348.323372 256.952139 344.916762 256.952139 
C 341.510152 256.952139 338.24261 258.3056 335.833773 260.714437 
C 333.424936 263.123274 332.071475 266.390816 332.071475 269.797426 
C 332.071475 273.204036 333.424936 276.471579 335.833773 278.880416 
C 338.24261 281.289253 341.510152 282.642713 344.916762 282.642713 
z
" clip-path="url(#p7bc0aa699c)" style="fill: #a0a0a0"/>
   </g>
   <g id="matplotlib.axis_1">
    <g id="xtick_1">
     <g id="line2d_25">
      <defs>
       <path id="mc316ac68d6" d="M 0 0 
L 0 3.5 
" style="stroke: #ffffff; stroke-width: 0.8"/>
      </defs>
      <g>
       <use xlink:href="#mc316ac68d6" x="107.707131" y="307.584" style="fill: #ffffff; stroke: #ffffff; stroke-width: 0.8"/>
      </g>
     </g>
     <g id="text_1">
      <text style="fill: #ffffff; font: 10px 'sans-serif'; text-anchor: middle" x="107.707131" y="322.182437" transform="rotate(-0, 107.707131, 322.182437)">−6</text>
     </g>
    </g>
    <g id="xtick_2">
     <g id="line2d_26">
      <g>
       <use xlink:href="#mc316ac68d6" x="150.524754" y="307.584" style="fill: #ffffff; stroke: #ffffff; stroke-width: 0.8"/>
      </g>
     </g>
     <g id="text_2">
      <text style="fill: #ffffff; font: 10px 'sans-serif'; text-anchor: middle" x="150.524754" y="322.182437" transform="rotate(-0, 150.524754, 322.182437)">−4</text>
     </g>
    </g>
    <g id="xtick_3">
     <g id="line2d_27">
      <g>
       <use xlink:href="#mc316ac68d6" x="193.342377" y="307.584" style="fill: #ffffff; stroke: #ffffff; stroke-width: 0.8"/>
      </g>
     </g>
     <g id="text_3">
      <text style="fill: #ffffff; font: 10px 'sans-serif'; text-anchor: middle" x="193.342377" y="322.182437" transform="rotate(-0, 193.342377, 322.182437)">−2</text>
     </g>
    </g>
    <g id="xtick_4">
     <g id="line2d_28">
      <g>
       <use xlink:href="#mc316ac68d6" x="236.16" y="307.584" style="fill: #ffffff; stroke: #ffffff; stroke-width: 0.8"/>
      </g>
     </g>
     <g id="text_4">
      <text style="fill: #ffffff; font: 10px 'sans-serif'; text-anchor: middle" x="236.16" y="322.182437" transform="rotate(-0, 236.16, 322.182437)">0</text>
     </g>
    </g>
    <g id="xtick_5">
     <g id="line2d_29">
      <g>
       <use xlink:href="#mc316ac68d6" x="278.977623" y="307.584" style="fill: #ffffff; stroke: #ffffff; stroke-width: 0.8"/>
      </g>
     </g>
     <g id="text_5">
      <text style="fill: #ffffff; font: 10px 'sans-serif'; text-anchor: middle" x="278.977623" y="322.182437" transform="rotate(-0, 278.977623, 322.182437)">2</text>
     </g>
    </g>
    <g id="xtick_6">
     <g id="line2d_30">
      <g>
       <use xlink:href="#mc316ac68d6" x="321.795246" y="307.584" style="fill: #ffffff; stroke: #ffffff; stroke-width: 0.8"/>
      </g>
     </g>
     <g id="text_6">
      <text style="fill: #ffffff; font: 10px 'sans-serif'; text-anchor: middle" x="321.795246" y="322.182437" transform="rotate(-0, 321.795246, 322.182437)">4</text>
     </g>
    </g>
    <g id="xtick_7">
     <g id="line2d_31">
      <g>
       <use xlink:href="#mc316ac68d6" x="364.612869" y="307.584" style="fill: #ffffff; stroke: #ffffff; stroke-width: 0.8"/>
      </g>
     </g>
     <g id="text_7">
      <text style="fill: #ffffff; font: 10px 'sans-serif'; text-anchor: middle" x="364.612869" y="322.182437" transform="rotate(-0, 364.612869, 322.182437)">6</text>
     </g>
    </g>
   </g>
   <g id="matplotlib.axis_2">
    <g id="ytick_1">
     <g id="line2d_32">
      <defs>
       <path id="mf4a0354d4a" d="M 0 0 
L -3.5 0 
" style="stroke: #ffffff; stroke-width: 0.8"/>
      </defs>
      <g>
       <use xlink:href="#mf4a0354d4a" x="85.441967" y="267.656545" style="fill: #ffffff; stroke: #ffffff; stroke-width: 0.8"/>
      </g>
     </g>
     <g id="text_8">
      <text style="fill: #ffffff; font: 10px 'sans-serif'; text-anchor: end" x="78.441967" y="271.455764" transform="rotate(-0, 78.441967, 271.455764)">−4</text>
     </g>
    </g>
    <g id="ytick_2">
     <g id="line2d_33">
      <g>
       <use xlink:href="#mf4a0354d4a" x="85.441967" y="224.838922" style="fill: #ffffff; stroke: #ffffff; stroke-width: 0.8"/>
      </g>
     </g>
     <g id="text_9">
      <text style="fill: #ffffff; font: 10px 'sans-serif'; text-anchor: end" x="78.441967" y="228.638141" transform="rotate(-0, 78.441967, 228.638141)">−2</text>
     </g>
    </g>
    <g id="ytick_3">
     <g id="line2d_34">
      <g>
       <use xlink:href="#mf4a0354d4a" x="85.441967" y="182.021299" style="fill: #ffffff; stroke: #ffffff; stroke-width: 0.8"/>
      </g>
     </g>
     <g id="text_10">
      <text style="fill: #ffffff; font: 10px 'sans-serif'; text-anchor: end" x="78.441967" y="185.820518" transform="rotate(-0, 78.441967, 185.820518)">0</text>
     </g>
    </g>
    <g id="ytick_4">
     <g id="line2d_35">
      <g>
       <use xlink:href="#mf4a0354d4a" x="85.441967" y="139.203676" style="fill: #ffffff; stroke: #ffffff; stroke-width: 0.8"/>
      </g>
     </g>
     <g id="text_11">
      <text style="fill: #ffffff; font: 10px 'sans-serif'; text-anchor: end" x="78.441967" y="143.002895" transform="rotate(-0, 78.441967, 143.002895)">2</text>
     </g>
    </g>
    <g id="ytick_5">
     <g id="line2d_36">
      <g>
       <use xlink:href="#mf4a0354d4a" x="85.441967" y="96.386054" style="fill: #ffffff; stroke: #ffffff; stroke-width: 0.8"/>
      </g>
     </g>
     <g id="text_12">
      <text style="fill: #ffffff; font: 10px 'sans-serif'; text-anchor: end" x="78.441967" y="100.185272" transform="rotate(-0, 78.441967, 100.185272)">4</text>
     </g>
    </g>
    <g id="ytick_6">
     <g id="line2d_37">
      <g>
       <use xlink:href="#mf4a0354d4a" x="85.441967" y="53.568431" style="fill: #ffffff; stroke: #ffffff; stroke-width: 0.8"/>
      </g>
     </g>
     <g id="text_13">
      <text style="fill: #ffffff; font: 10px 'sans-serif'; text-anchor: end" x="78.441967" y="57.367649" transform="rotate(-0, 78.441967, 57.367649)">6</text>
     </g>
    </g>
   </g>
   <g id="patch_16">
    <path d="M 85.441967 307.584 
L 85.441967 41.472 
" style="fill: none; stroke: #ffffff; stroke-width: 0.8; stroke-linejoin: miter; stroke-linecap: square"/>
   </g>
   <g id="patch_17">
    <path d="M 386.878033 307.584 
L 386.878033 41.472 
" style="fill: none; stroke: #ffffff; stroke-width: 0.8; stroke-linejoin: miter; stroke-linecap: square"/>
   </g>
   <g id="patch_18">
    <path d="M 85.441967 307.584 
L 386.878033 307.584 
" style="fill: none; stroke: #ffffff; stroke-width: 0.8; stroke-linejoin: miter; stroke-linecap: square"/>
   </g>
   <g id="patch_19">
    <path d="M 85.441967 41.472 
L 386.878033 41.472 
" style="fill: none; stroke: #ffffff; stroke-width: 0.8; stroke-linejoin: miter; stroke-linecap: square"/>
   </g>
   <g id="text_14">
    <text style="fill: #ffffff; font: 12px 'sans-serif'; text-anchor: middle" x="236.16" y="35.472" transform="rotate(-0, 236.16, 35.472)">D2F-A1</text>
   </g>
  </g>
 </g>
 <defs>
  <clipPath id="p7bc0aa699c">
   <rect x="85.441967" y="41.472" width="301.436065" height="266.112"/>
  </clipPath>
 </defs>
</svg>
