<?xml version="1.0" encoding="utf-8" standalone="no"?>
<!DOCTYPE svg PUBLIC "-//W3C//DTD SVG 1.1//EN"
  "http://www.w3.org/Graphics/SVG/1.1/DTD/svg11.dtd">
<svg xmlns:xlink="http://www.w3.org/1999/xlink" width="460.8pt" height="345.6pt" viewBox="0 0 460.8 345.6" xmlns="http://www.w3.org/2000/svg" version="1.1">
 <metadata>
  <rdf:RDF xmlns:dc="http://purl.org/dc/elements/1.1/" xmlns:cc="http://creativecommons.org/ns#" xmlns:rdf="http://www.w3.org/1999/02/22-rdf-syntax-ns#">
   <cc:Work>
    <dc:type rdf:resource="http://purl.org/dc/dcmitype/StillImage"/>
    <dc:date>2021-12-22T04:54:10.879107</dc:date>
    <dc:format>image/svg+xml</dc:format>
    <dc:creator>
     <cc:Agent>
      <dc:title>Matplotlib v3.5.1, https://matplotlib.org/</dc:title>
     </cc:Agent>
    </dc:creator>
   </cc:Work>
  </rdf:RDF>
 </metadata>
 <defs>
  <style type="text/css">*{stroke-linejoin: round; stroke-linecap: butt}</style>
 </defs>
 <g id="figure_1">
  <g id="patch_1">
   <path d="M 0 345.6 
L 460.8 345.6 
L 460.8 0 
L 0 0 
z
" style="fill: #2b2b2b"/>
  </g>
  <g id="axes_1">
   <g id="patch_2">
    <path d="M 57.6 255.7728 
L 414.72 255.7728 
L 414.72 93.2832 
L 57.6 93.2832 
z
" style="fill: #2b2b2b"/>
   </g>
   <g id="text_1">
    <text style="fill: #ffffff; font: 1.27px 'sans-serif'; text-anchor: start" x="116.443636" y="184.673455" transform="rotate(-0, 116.443636, 184.673455)">&gt;VALUE</text>
   </g>
   <g id="text_2">
    <text style="fill: #ffffff; font: 1.27px 'sans-serif'; text-anchor: start" x="67.745455" y="221.197091" transform="rotate(-0, 67.745455, 221.197091)">&gt;NAME</text>
   </g>
   <g id="line2d_1">
    <path d="M 398.487273 127.858909 
L 398.487273 221.197091 
" clip-path="url(#pd5248a6ca0)" style="fill: none; stroke: #808080; stroke-width: 2.434909; stroke-linecap: square"/>
   </g>
   <g id="line2d_2">
    <path d="M 73.832727 127.858909 
L 73.832727 158.295273 
" clip-path="url(#pd5248a6ca0)" style="fill: none; stroke: #808080; stroke-width: 2.434909; stroke-linecap: square"/>
   </g>
   <g id="line2d_3">
    <path d="M 73.832727 221.197091 
L 73.832727 190.760727 
" clip-path="url(#pd5248a6ca0)" style="fill: none; stroke: #808080; stroke-width: 2.434909; stroke-linecap: square"/>
   </g>
   <g id="line2d_4">
    <path d="M 73.832727 158.295273 
L 73.832727 190.760727 
" clip-path="url(#pd5248a6ca0)" style="fill: none; stroke: #808080; stroke-width: 2.434909; stroke-linecap: square"/>
   </g>
   <g id="patch_3">
    <path d="M 94.123636 248.386909 
C 97.567612 248.386909 100.870995 247.018603 103.306254 244.583344 
C 105.741512 242.148086 107.109818 238.844703 107.109818 235.400727 
C 107.109818 231.956752 105.741512 228.653369 103.306254 226.21811 
C 100.870995 223.782851 97.567612 222.414545 94.123636 222.414545 
C 90.679661 222.414545 87.376278 223.782851 84.941019 226.21811 
C 82.505761 228.653369 81.137455 231.956752 81.137455 235.400727 
C 81.137455 238.844703 82.505761 242.148086 84.941019 244.583344 
C 87.376278 247.018603 90.679661 248.386909 94.123636 248.386909 
z
" clip-path="url(#pd5248a6ca0)" style="fill: #0dab76"/>
   </g>
   <g id="patch_4">
    <path d="M 94.123636 241.893818 
C 95.845624 241.893818 97.497316 241.209665 98.714945 239.992036 
C 99.932574 238.774407 100.616727 237.122715 100.616727 235.400727 
C 100.616727 233.678739 99.932574 232.027048 98.714945 230.809419 
C 97.497316 229.591789 95.845624 228.907636 94.123636 228.907636 
C 92.401649 228.907636 90.749957 229.591789 89.532328 230.809419 
C 88.314698 232.027048 87.630545 233.678739 87.630545 235.400727 
C 87.630545 237.122715 88.314698 238.774407 89.532328 239.992036 
C 90.749957 241.209665 92.401649 241.893818 94.123636 241.893818 
z
" clip-path="url(#pd5248a6ca0)" style="fill: #a0a0a0"/>
   </g>
   <g id="patch_5">
    <path d="M 134.705455 248.386909 
C 138.14943 248.386909 141.452813 247.018603 143.888072 244.583344 
C 146.32333 242.148086 147.691636 238.844703 147.691636 235.400727 
C 147.691636 231.956752 146.32333 228.653369 143.888072 226.21811 
C 141.452813 223.782851 138.14943 222.414545 134.705455 222.414545 
C 131.261479 222.414545 127.958096 223.782851 125.522837 226.21811 
C 123.087579 228.653369 121.719273 231.956752 121.719273 235.400727 
C 121.719273 238.844703 123.087579 242.148086 125.522837 244.583344 
C 127.958096 247.018603 131.261479 248.386909 134.705455 248.386909 
z
" clip-path="url(#pd5248a6ca0)" style="fill: #0dab76"/>
   </g>
   <g id="patch_6">
    <path d="M 134.705455 241.893818 
C 136.427442 241.893818 138.079134 241.209665 139.296763 239.992036 
C 140.514392 238.774407 141.198545 237.122715 141.198545 235.400727 
C 141.198545 233.678739 140.514392 232.027048 139.296763 230.809419 
C 138.079134 229.591789 136.427442 228.907636 134.705455 228.907636 
C 132.983467 228.907636 131.331775 229.591789 130.114146 230.809419 
C 128.896517 232.027048 128.212364 233.678739 128.212364 235.400727 
C 128.212364 237.122715 128.896517 238.774407 130.114146 239.992036 
C 131.331775 241.209665 132.983467 241.893818 134.705455 241.893818 
z
" clip-path="url(#pd5248a6ca0)" style="fill: #a0a0a0"/>
   </g>
   <g id="patch_7">
    <path d="M 337.614545 248.386909 
C 341.058521 248.386909 344.361904 247.018603 346.797163 244.583344 
C 349.232421 242.148086 350.600727 238.844703 350.600727 235.400727 
C 350.600727 231.956752 349.232421 228.653369 346.797163 226.21811 
C 344.361904 223.782851 341.058521 222.414545 337.614545 222.414545 
C 334.17057 222.414545 330.867187 223.782851 328.431928 226.21811 
C 325.99667 228.653369 324.628364 231.956752 324.628364 235.400727 
C 324.628364 238.844703 325.99667 242.148086 328.431928 244.583344 
C 330.867187 247.018603 334.17057 248.386909 337.614545 248.386909 
z
" clip-path="url(#pd5248a6ca0)" style="fill: #0dab76"/>
   </g>
   <g id="patch_8">
    <path d="M 337.614545 241.893818 
C 339.336533 241.893818 340.988225 241.209665 342.205854 239.992036 
C 343.423483 238.774407 344.107636 237.122715 344.107636 235.400727 
C 344.107636 233.678739 343.423483 232.027048 342.205854 230.809419 
C 340.988225 229.591789 339.336533 228.907636 337.614545 228.907636 
C 335.892558 228.907636 334.240866 229.591789 333.023237 230.809419 
C 331.805608 232.027048 331.121455 233.678739 331.121455 235.400727 
C 331.121455 237.122715 331.805608 238.774407 333.023237 239.992036 
C 334.240866 241.209665 335.892558 241.893818 337.614545 241.893818 
z
" clip-path="url(#pd5248a6ca0)" style="fill: #a0a0a0"/>
   </g>
   <g id="patch_9">
    <path d="M 378.196364 248.386909 
C 381.640339 248.386909 384.943722 247.018603 387.378981 244.583344 
C 389.814239 242.148086 391.182545 238.844703 391.182545 235.400727 
C 391.182545 231.956752 389.814239 228.653369 387.378981 226.21811 
C 384.943722 223.782851 381.640339 222.414545 378.196364 222.414545 
C 374.752388 222.414545 371.449005 223.782851 369.013746 226.21811 
C 366.578488 228.653369 365.210182 231.956752 365.210182 235.400727 
C 365.210182 238.844703 366.578488 242.148086 369.013746 244.583344 
C 371.449005 247.018603 374.752388 248.386909 378.196364 248.386909 
z
" clip-path="url(#pd5248a6ca0)" style="fill: #0dab76"/>
   </g>
   <g id="patch_10">
    <path d="M 378.196364 241.893818 
C 379.918351 241.893818 381.570043 241.209665 382.787672 239.992036 
C 384.005302 238.774407 384.689455 237.122715 384.689455 235.400727 
C 384.689455 233.678739 384.005302 232.027048 382.787672 230.809419 
C 381.570043 229.591789 379.918351 228.907636 378.196364 228.907636 
C 376.474376 228.907636 374.822684 229.591789 373.605055 230.809419 
C 372.387426 232.027048 371.703273 233.678739 371.703273 235.400727 
C 371.703273 237.122715 372.387426 238.774407 373.605055 239.992036 
C 374.822684 241.209665 376.474376 241.893818 378.196364 241.893818 
z
" clip-path="url(#pd5248a6ca0)" style="fill: #a0a0a0"/>
   </g>
   <g id="patch_11">
    <path d="M 175.287273 248.386909 
C 178.731248 248.386909 182.034631 247.018603 184.46989 244.583344 
C 186.905149 242.148086 188.273455 238.844703 188.273455 235.400727 
C 188.273455 231.956752 186.905149 228.653369 184.46989 226.21811 
C 182.034631 223.782851 178.731248 222.414545 175.287273 222.414545 
C 171.843297 222.414545 168.539914 223.782851 166.104656 226.21811 
C 163.669397 228.653369 162.301091 231.956752 162.301091 235.400727 
C 162.301091 238.844703 163.669397 242.148086 166.104656 244.583344 
C 168.539914 247.018603 171.843297 248.386909 175.287273 248.386909 
z
" clip-path="url(#pd5248a6ca0)" style="fill: #0dab76"/>
   </g>
   <g id="patch_12">
    <path d="M 175.287273 241.893818 
C 177.009261 241.893818 178.660952 241.209665 179.878581 239.992036 
C 181.096211 238.774407 181.780364 237.122715 181.780364 235.400727 
C 181.780364 233.678739 181.096211 232.027048 179.878581 230.809419 
C 178.660952 229.591789 177.009261 228.907636 175.287273 228.907636 
C 173.565285 228.907636 171.913593 229.591789 170.695964 230.809419 
C 169.478335 232.027048 168.794182 233.678739 168.794182 235.400727 
C 168.794182 237.122715 169.478335 238.774407 170.695964 239.992036 
C 171.913593 241.209665 173.565285 241.893818 175.287273 241.893818 
z
" clip-path="url(#pd5248a6ca0)" style="fill: #a0a0a0"/>
   </g>
   <g id="patch_13">
    <path d="M 215.869091 248.386909 
C 219.313067 248.386909 222.61645 247.018603 225.051708 244.583344 
C 227.486967 242.148086 228.855273 238.844703 228.855273 235.400727 
C 228.855273 231.956752 227.486967 228.653369 225.051708 226.21811 
C 222.61645 223.782851 219.313067 222.414545 215.869091 222.414545 
C 212.425115 222.414545 209.121732 223.782851 206.686474 226.21811 
C 204.251215 228.653369 202.882909 231.956752 202.882909 235.400727 
C 202.882909 238.844703 204.251215 242.148086 206.686474 244.583344 
C 209.121732 247.018603 212.425115 248.386909 215.869091 248.386909 
z
" clip-path="url(#pd5248a6ca0)" style="fill: #0dab76"/>
   </g>
   <g id="patch_14">
    <path d="M 215.869091 241.893818 
C 217.591079 241.893818 219.24277 241.209665 220.4604 239.992036 
C 221.678029 238.774407 222.362182 237.122715 222.362182 235.400727 
C 222.362182 233.678739 221.678029 232.027048 220.4604 230.809419 
C 219.24277 229.591789 217.591079 228.907636 215.869091 228.907636 
C 214.147103 228.907636 212.495412 229.591789 211.277782 230.809419 
C 210.060153 232.027048 209.376 233.678739 209.376 235.400727 
C 209.376 237.122715 210.060153 238.774407 211.277782 239.992036 
C 212.495412 241.209665 214.147103 241.893818 215.869091 241.893818 
z
" clip-path="url(#pd5248a6ca0)" style="fill: #a0a0a0"/>
   </g>
   <g id="patch_15">
    <path d="M 297.032727 248.386909 
C 300.476703 248.386909 303.780086 247.018603 306.215344 244.583344 
C 308.650603 242.148086 310.018909 238.844703 310.018909 235.400727 
C 310.018909 231.956752 308.650603 228.653369 306.215344 226.21811 
C 303.780086 223.782851 300.476703 222.414545 297.032727 222.414545 
C 293.588752 222.414545 290.285369 223.782851 287.85011 226.21811 
C 285.414851 228.653369 284.046545 231.956752 284.046545 235.400727 
C 284.046545 238.844703 285.414851 242.148086 287.85011 244.583344 
C 290.285369 247.018603 293.588752 248.386909 297.032727 248.386909 
z
" clip-path="url(#pd5248a6ca0)" style="fill: #0dab76"/>
   </g>
   <g id="patch_16">
    <path d="M 297.032727 241.893818 
C 298.754715 241.893818 300.406407 241.209665 301.624036 239.992036 
C 302.841665 238.774407 303.525818 237.122715 303.525818 235.400727 
C 303.525818 233.678739 302.841665 232.027048 301.624036 230.809419 
C 300.406407 229.591789 298.754715 228.907636 297.032727 228.907636 
C 295.310739 228.907636 293.659048 229.591789 292.441419 230.809419 
C 291.223789 232.027048 290.539636 233.678739 290.539636 235.400727 
C 290.539636 237.122715 291.223789 238.774407 292.441419 239.992036 
C 293.659048 241.209665 295.310739 241.893818 297.032727 241.893818 
z
" clip-path="url(#pd5248a6ca0)" style="fill: #a0a0a0"/>
   </g>
   <g id="patch_17">
    <path d="M 256.450909 248.386909 
C 259.894885 248.386909 263.198268 247.018603 265.633526 244.583344 
C 268.068785 242.148086 269.437091 238.844703 269.437091 235.400727 
C 269.437091 231.956752 268.068785 228.653369 265.633526 226.21811 
C 263.198268 223.782851 259.894885 222.414545 256.450909 222.414545 
C 253.006933 222.414545 249.70355 223.782851 247.268292 226.21811 
C 244.833033 228.653369 243.464727 231.956752 243.464727 235.400727 
C 243.464727 238.844703 244.833033 242.148086 247.268292 244.583344 
C 249.70355 247.018603 253.006933 248.386909 256.450909 248.386909 
z
" clip-path="url(#pd5248a6ca0)" style="fill: #0dab76"/>
   </g>
   <g id="patch_18">
    <path d="M 256.450909 241.893818 
C 258.172897 241.893818 259.824588 241.209665 261.042218 239.992036 
C 262.259847 238.774407 262.944 237.122715 262.944 235.400727 
C 262.944 233.678739 262.259847 232.027048 261.042218 230.809419 
C 259.824588 229.591789 258.172897 228.907636 256.450909 228.907636 
C 254.728921 228.907636 253.07723 229.591789 251.8596 230.809419 
C 250.641971 232.027048 249.957818 233.678739 249.957818 235.400727 
C 249.957818 237.122715 250.641971 238.774407 251.8596 239.992036 
C 253.07723 241.209665 254.728921 241.893818 256.450909 241.893818 
z
" clip-path="url(#pd5248a6ca0)" style="fill: #a0a0a0"/>
   </g>
   <g id="patch_19">
    <path d="M 378.196364 126.641455 
C 381.640339 126.641455 384.943722 125.273149 387.378981 122.83789 
C 389.814239 120.402631 391.182545 117.099248 391.182545 113.655273 
C 391.182545 110.211297 389.814239 106.907914 387.378981 104.472656 
C 384.943722 102.037397 381.640339 100.669091 378.196364 100.669091 
C 374.752388 100.669091 371.449005 102.037397 369.013746 104.472656 
C 366.578488 106.907914 365.210182 110.211297 365.210182 113.655273 
C 365.210182 117.099248 366.578488 120.402631 369.013746 122.83789 
C 371.449005 125.273149 374.752388 126.641455 378.196364 126.641455 
z
" clip-path="url(#pd5248a6ca0)" style="fill: #0dab76"/>
   </g>
   <g id="patch_20">
    <path d="M 378.196364 120.148364 
C 379.918351 120.148364 381.570043 119.464211 382.787672 118.246581 
C 384.005302 117.028952 384.689455 115.377261 384.689455 113.655273 
C 384.689455 111.933285 384.005302 110.281593 382.787672 109.063964 
C 381.570043 107.846335 379.918351 107.162182 378.196364 107.162182 
C 376.474376 107.162182 374.822684 107.846335 373.605055 109.063964 
C 372.387426 110.281593 371.703273 111.933285 371.703273 113.655273 
C 371.703273 115.377261 372.387426 117.028952 373.605055 118.246581 
C 374.822684 119.464211 376.474376 120.148364 378.196364 120.148364 
z
" clip-path="url(#pd5248a6ca0)" style="fill: #a0a0a0"/>
   </g>
   <g id="patch_21">
    <path d="M 337.614545 126.641455 
C 341.058521 126.641455 344.361904 125.273149 346.797163 122.83789 
C 349.232421 120.402631 350.600727 117.099248 350.600727 113.655273 
C 350.600727 110.211297 349.232421 106.907914 346.797163 104.472656 
C 344.361904 102.037397 341.058521 100.669091 337.614545 100.669091 
C 334.17057 100.669091 330.867187 102.037397 328.431928 104.472656 
C 325.99667 106.907914 324.628364 110.211297 324.628364 113.655273 
C 324.628364 117.099248 325.99667 120.402631 328.431928 122.83789 
C 330.867187 125.273149 334.17057 126.641455 337.614545 126.641455 
z
" clip-path="url(#pd5248a6ca0)" style="fill: #0dab76"/>
   </g>
   <g id="patch_22">
    <path d="M 337.614545 120.148364 
C 339.336533 120.148364 340.988225 119.464211 342.205854 118.246581 
C 343.423483 117.028952 344.107636 115.377261 344.107636 113.655273 
C 344.107636 111.933285 343.423483 110.281593 342.205854 109.063964 
C 340.988225 107.846335 339.336533 107.162182 337.614545 107.162182 
C 335.892558 107.162182 334.240866 107.846335 333.023237 109.063964 
C 331.805608 110.281593 331.121455 111.933285 331.121455 113.655273 
C 331.121455 115.377261 331.805608 117.028952 333.023237 118.246581 
C 334.240866 119.464211 335.892558 120.148364 337.614545 120.148364 
z
" clip-path="url(#pd5248a6ca0)" style="fill: #a0a0a0"/>
   </g>
   <g id="patch_23">
    <path d="M 297.032727 126.641455 
C 300.476703 126.641455 303.780086 125.273149 306.215344 122.83789 
C 308.650603 120.402631 310.018909 117.099248 310.018909 113.655273 
C 310.018909 110.211297 308.650603 106.907914 306.215344 104.472656 
C 303.780086 102.037397 300.476703 100.669091 297.032727 100.669091 
C 293.588752 100.669091 290.285369 102.037397 287.85011 104.472656 
C 285.414851 106.907914 284.046545 110.211297 284.046545 113.655273 
C 284.046545 117.099248 285.414851 120.402631 287.85011 122.83789 
C 290.285369 125.273149 293.588752 126.641455 297.032727 126.641455 
z
" clip-path="url(#pd5248a6ca0)" style="fill: #0dab76"/>
   </g>
   <g id="patch_24">
    <path d="M 297.032727 120.148364 
C 298.754715 120.148364 300.406407 119.464211 301.624036 118.246581 
C 302.841665 117.028952 303.525818 115.377261 303.525818 113.655273 
C 303.525818 111.933285 302.841665 110.281593 301.624036 109.063964 
C 300.406407 107.846335 298.754715 107.162182 297.032727 107.162182 
C 295.310739 107.162182 293.659048 107.846335 292.441419 109.063964 
C 291.223789 110.281593 290.539636 111.933285 290.539636 113.655273 
C 290.539636 115.377261 291.223789 117.028952 292.441419 118.246581 
C 293.659048 119.464211 295.310739 120.148364 297.032727 120.148364 
z
" clip-path="url(#pd5248a6ca0)" style="fill: #a0a0a0"/>
   </g>
   <g id="patch_25">
    <path d="M 256.450909 126.641455 
C 259.894885 126.641455 263.198268 125.273149 265.633526 122.83789 
C 268.068785 120.402631 269.437091 117.099248 269.437091 113.655273 
C 269.437091 110.211297 268.068785 106.907914 265.633526 104.472656 
C 263.198268 102.037397 259.894885 100.669091 256.450909 100.669091 
C 253.006933 100.669091 249.70355 102.037397 247.268292 104.472656 
C 244.833033 106.907914 243.464727 110.211297 243.464727 113.655273 
C 243.464727 117.099248 244.833033 120.402631 247.268292 122.83789 
C 249.70355 125.273149 253.006933 126.641455 256.450909 126.641455 
z
" clip-path="url(#pd5248a6ca0)" style="fill: #0dab76"/>
   </g>
   <g id="patch_26">
    <path d="M 256.450909 120.148364 
C 258.172897 120.148364 259.824588 119.464211 261.042218 118.246581 
C 262.259847 117.028952 262.944 115.377261 262.944 113.655273 
C 262.944 111.933285 262.259847 110.281593 261.042218 109.063964 
C 259.824588 107.846335 258.172897 107.162182 256.450909 107.162182 
C 254.728921 107.162182 253.07723 107.846335 251.8596 109.063964 
C 250.641971 110.281593 249.957818 111.933285 249.957818 113.655273 
C 249.957818 115.377261 250.641971 117.028952 251.8596 118.246581 
C 253.07723 119.464211 254.728921 120.148364 256.450909 120.148364 
z
" clip-path="url(#pd5248a6ca0)" style="fill: #a0a0a0"/>
   </g>
   <g id="patch_27">
    <path d="M 215.869091 126.641455 
C 219.313067 126.641455 222.61645 125.273149 225.051708 122.83789 
C 227.486967 120.402631 228.855273 117.099248 228.855273 113.655273 
C 228.855273 110.211297 227.486967 106.907914 225.051708 104.472656 
C 222.61645 102.037397 219.313067 100.669091 215.869091 100.669091 
C 212.425115 100.669091 209.121732 102.037397 206.686474 104.472656 
C 204.251215 106.907914 202.882909 110.211297 202.882909 113.655273 
C 202.882909 117.099248 204.251215 120.402631 206.686474 122.83789 
C 209.121732 125.273149 212.425115 126.641455 215.869091 126.641455 
z
" clip-path="url(#pd5248a6ca0)" style="fill: #0dab76"/>
   </g>
   <g id="patch_28">
    <path d="M 215.869091 120.148364 
C 217.591079 120.148364 219.24277 119.464211 220.4604 118.246581 
C 221.678029 117.028952 222.362182 115.377261 222.362182 113.655273 
C 222.362182 111.933285 221.678029 110.281593 220.4604 109.063964 
C 219.24277 107.846335 217.591079 107.162182 215.869091 107.162182 
C 214.147103 107.162182 212.495412 107.846335 211.277782 109.063964 
C 210.060153 110.281593 209.376 111.933285 209.376 113.655273 
C 209.376 115.377261 210.060153 117.028952 211.277782 118.246581 
C 212.495412 119.464211 214.147103 120.148364 215.869091 120.148364 
z
" clip-path="url(#pd5248a6ca0)" style="fill: #a0a0a0"/>
   </g>
   <g id="patch_29">
    <path d="M 175.287273 126.641455 
C 178.731248 126.641455 182.034631 125.273149 184.46989 122.83789 
C 186.905149 120.402631 188.273455 117.099248 188.273455 113.655273 
C 188.273455 110.211297 186.905149 106.907914 184.46989 104.472656 
C 182.034631 102.037397 178.731248 100.669091 175.287273 100.669091 
C 171.843297 100.669091 168.539914 102.037397 166.104656 104.472656 
C 163.669397 106.907914 162.301091 110.211297 162.301091 113.655273 
C 162.301091 117.099248 163.669397 120.402631 166.104656 122.83789 
C 168.539914 125.273149 171.843297 126.641455 175.287273 126.641455 
z
" clip-path="url(#pd5248a6ca0)" style="fill: #0dab76"/>
   </g>
   <g id="patch_30">
    <path d="M 175.287273 120.148364 
C 177.009261 120.148364 178.660952 119.464211 179.878581 118.246581 
C 181.096211 117.028952 181.780364 115.377261 181.780364 113.655273 
C 181.780364 111.933285 181.096211 110.281593 179.878581 109.063964 
C 178.660952 107.846335 177.009261 107.162182 175.287273 107.162182 
C 173.565285 107.162182 171.913593 107.846335 170.695964 109.063964 
C 169.478335 110.281593 168.794182 111.933285 168.794182 113.655273 
C 168.794182 115.377261 169.478335 117.028952 170.695964 118.246581 
C 171.913593 119.464211 173.565285 120.148364 175.287273 120.148364 
z
" clip-path="url(#pd5248a6ca0)" style="fill: #a0a0a0"/>
   </g>
   <g id="patch_31">
    <path d="M 134.705455 126.641455 
C 138.14943 126.641455 141.452813 125.273149 143.888072 122.83789 
C 146.32333 120.402631 147.691636 117.099248 147.691636 113.655273 
C 147.691636 110.211297 146.32333 106.907914 143.888072 104.472656 
C 141.452813 102.037397 138.14943 100.669091 134.705455 100.669091 
C 131.261479 100.669091 127.958096 102.037397 125.522837 104.472656 
C 123.087579 106.907914 121.719273 110.211297 121.719273 113.655273 
C 121.719273 117.099248 123.087579 120.402631 125.522837 122.83789 
C 127.958096 125.273149 131.261479 126.641455 134.705455 126.641455 
z
" clip-path="url(#pd5248a6ca0)" style="fill: #0dab76"/>
   </g>
   <g id="patch_32">
    <path d="M 134.705455 120.148364 
C 136.427442 120.148364 138.079134 119.464211 139.296763 118.246581 
C 140.514392 117.028952 141.198545 115.377261 141.198545 113.655273 
C 141.198545 111.933285 140.514392 110.281593 139.296763 109.063964 
C 138.079134 107.846335 136.427442 107.162182 134.705455 107.162182 
C 132.983467 107.162182 131.331775 107.846335 130.114146 109.063964 
C 128.896517 110.281593 128.212364 111.933285 128.212364 113.655273 
C 128.212364 115.377261 128.896517 117.028952 130.114146 118.246581 
C 131.331775 119.464211 132.983467 120.148364 134.705455 120.148364 
z
" clip-path="url(#pd5248a6ca0)" style="fill: #a0a0a0"/>
   </g>
   <g id="patch_33">
    <path d="M 94.123636 126.641455 
C 97.567612 126.641455 100.870995 125.273149 103.306254 122.83789 
C 105.741512 120.402631 107.109818 117.099248 107.109818 113.655273 
C 107.109818 110.211297 105.741512 106.907914 103.306254 104.472656 
C 100.870995 102.037397 97.567612 100.669091 94.123636 100.669091 
C 90.679661 100.669091 87.376278 102.037397 84.941019 104.472656 
C 82.505761 106.907914 81.137455 110.211297 81.137455 113.655273 
C 81.137455 117.099248 82.505761 120.402631 84.941019 122.83789 
C 87.376278 125.273149 90.679661 126.641455 94.123636 126.641455 
z
" clip-path="url(#pd5248a6ca0)" style="fill: #0dab76"/>
   </g>
   <g id="patch_34">
    <path d="M 94.123636 120.148364 
C 95.845624 120.148364 97.497316 119.464211 98.714945 118.246581 
C 99.932574 117.028952 100.616727 115.377261 100.616727 113.655273 
C 100.616727 111.933285 99.932574 110.281593 98.714945 109.063964 
C 97.497316 107.846335 95.845624 107.162182 94.123636 107.162182 
C 92.401649 107.162182 90.749957 107.846335 89.532328 109.063964 
C 88.314698 110.281593 87.630545 111.933285 87.630545 113.655273 
C 87.630545 115.377261 88.314698 117.028952 89.532328 118.246581 
C 90.749957 119.464211 92.401649 120.148364 94.123636 120.148364 
z
" clip-path="url(#pd5248a6ca0)" style="fill: #a0a0a0"/>
   </g>
   <g id="matplotlib.axis_1">
    <g id="xtick_1">
     <g id="line2d_5">
      <defs>
       <path id="meb0159c81d" d="M 0 0 
L 0 3.5 
" style="stroke: #ffffff; stroke-width: 0.8"/>
      </defs>
      <g>
       <use xlink:href="#meb0159c81d" x="76.389062" y="255.7728" style="fill: #ffffff; stroke: #ffffff; stroke-width: 0.8"/>
      </g>
     </g>
     <g id="text_3">
      <text style="fill: #ffffff; font: 10px 'sans-serif'; text-anchor: middle" x="76.389062" y="270.371238" transform="rotate(-0, 76.389062, 270.371238)">−10.0</text>
     </g>
    </g>
    <g id="xtick_2">
     <g id="line2d_6">
      <g>
       <use xlink:href="#meb0159c81d" x="116.331797" y="255.7728" style="fill: #ffffff; stroke: #ffffff; stroke-width: 0.8"/>
      </g>
     </g>
     <g id="text_4">
      <text style="fill: #ffffff; font: 10px 'sans-serif'; text-anchor: middle" x="116.331797" y="270.371238" transform="rotate(-0, 116.331797, 270.371238)">−7.5</text>
     </g>
    </g>
    <g id="xtick_3">
     <g id="line2d_7">
      <g>
       <use xlink:href="#meb0159c81d" x="156.274531" y="255.7728" style="fill: #ffffff; stroke: #ffffff; stroke-width: 0.8"/>
      </g>
     </g>
     <g id="text_5">
      <text style="fill: #ffffff; font: 10px 'sans-serif'; text-anchor: middle" x="156.274531" y="270.371238" transform="rotate(-0, 156.274531, 270.371238)">−5.0</text>
     </g>
    </g>
    <g id="xtick_4">
     <g id="line2d_8">
      <g>
       <use xlink:href="#meb0159c81d" x="196.217266" y="255.7728" style="fill: #ffffff; stroke: #ffffff; stroke-width: 0.8"/>
      </g>
     </g>
     <g id="text_6">
      <text style="fill: #ffffff; font: 10px 'sans-serif'; text-anchor: middle" x="196.217266" y="270.371238" transform="rotate(-0, 196.217266, 270.371238)">−2.5</text>
     </g>
    </g>
    <g id="xtick_5">
     <g id="line2d_9">
      <g>
       <use xlink:href="#meb0159c81d" x="236.16" y="255.7728" style="fill: #ffffff; stroke: #ffffff; stroke-width: 0.8"/>
      </g>
     </g>
     <g id="text_7">
      <text style="fill: #ffffff; font: 10px 'sans-serif'; text-anchor: middle" x="236.16" y="270.371238" transform="rotate(-0, 236.16, 270.371238)">0.0</text>
     </g>
    </g>
    <g id="xtick_6">
     <g id="line2d_10">
      <g>
       <use xlink:href="#meb0159c81d" x="276.102734" y="255.7728" style="fill: #ffffff; stroke: #ffffff; stroke-width: 0.8"/>
      </g>
     </g>
     <g id="text_8">
      <text style="fill: #ffffff; font: 10px 'sans-serif'; text-anchor: middle" x="276.102734" y="270.371238" transform="rotate(-0, 276.102734, 270.371238)">2.5</text>
     </g>
    </g>
    <g id="xtick_7">
     <g id="line2d_11">
      <g>
       <use xlink:href="#meb0159c81d" x="316.045469" y="255.7728" style="fill: #ffffff; stroke: #ffffff; stroke-width: 0.8"/>
      </g>
     </g>
     <g id="text_9">
      <text style="fill: #ffffff; font: 10px 'sans-serif'; text-anchor: middle" x="316.045469" y="270.371238" transform="rotate(-0, 316.045469, 270.371238)">5.0</text>
     </g>
    </g>
    <g id="xtick_8">
     <g id="line2d_12">
      <g>
       <use xlink:href="#meb0159c81d" x="355.988203" y="255.7728" style="fill: #ffffff; stroke: #ffffff; stroke-width: 0.8"/>
      </g>
     </g>
     <g id="text_10">
      <text style="fill: #ffffff; font: 10px 'sans-serif'; text-anchor: middle" x="355.988203" y="270.371238" transform="rotate(-0, 355.988203, 270.371238)">7.5</text>
     </g>
    </g>
    <g id="xtick_9">
     <g id="line2d_13">
      <g>
       <use xlink:href="#meb0159c81d" x="395.930938" y="255.7728" style="fill: #ffffff; stroke: #ffffff; stroke-width: 0.8"/>
      </g>
     </g>
     <g id="text_11">
      <text style="fill: #ffffff; font: 10px 'sans-serif'; text-anchor: middle" x="395.930938" y="270.371238" transform="rotate(-0, 395.930938, 270.371238)">10.0</text>
     </g>
    </g>
   </g>
   <g id="matplotlib.axis_2">
    <g id="ytick_1">
     <g id="line2d_14">
      <defs>
       <path id="md9ca5bced3" d="M 0 0 
L -3.5 0 
" style="stroke: #ffffff; stroke-width: 0.8"/>
      </defs>
      <g>
       <use xlink:href="#md9ca5bced3" x="57.6" y="238.436375" style="fill: #ffffff; stroke: #ffffff; stroke-width: 0.8"/>
      </g>
     </g>
     <g id="text_12">
      <text style="fill: #ffffff; font: 10px 'sans-serif'; text-anchor: end" x="50.6" y="242.235594" transform="rotate(-0, 50.6, 242.235594)">−4</text>
     </g>
    </g>
    <g id="ytick_2">
     <g id="line2d_15">
      <g>
       <use xlink:href="#md9ca5bced3" x="57.6" y="206.482188" style="fill: #ffffff; stroke: #ffffff; stroke-width: 0.8"/>
      </g>
     </g>
     <g id="text_13">
      <text style="fill: #ffffff; font: 10px 'sans-serif'; text-anchor: end" x="50.6" y="210.281406" transform="rotate(-0, 50.6, 210.281406)">−2</text>
     </g>
    </g>
    <g id="ytick_3">
     <g id="line2d_16">
      <g>
       <use xlink:href="#md9ca5bced3" x="57.6" y="174.528" style="fill: #ffffff; stroke: #ffffff; stroke-width: 0.8"/>
      </g>
     </g>
     <g id="text_14">
      <text style="fill: #ffffff; font: 10px 'sans-serif'; text-anchor: end" x="50.6" y="178.327219" transform="rotate(-0, 50.6, 178.327219)">0</text>
     </g>
    </g>
    <g id="ytick_4">
     <g id="line2d_17">
      <g>
       <use xlink:href="#md9ca5bced3" x="57.6" y="142.573812" style="fill: #ffffff; stroke: #ffffff; stroke-width: 0.8"/>
      </g>
     </g>
     <g id="text_15">
      <text style="fill: #ffffff; font: 10px 'sans-serif'; text-anchor: end" x="50.6" y="146.373031" transform="rotate(-0, 50.6, 146.373031)">2</text>
     </g>
    </g>
    <g id="ytick_5">
     <g id="line2d_18">
      <g>
       <use xlink:href="#md9ca5bced3" x="57.6" y="110.619625" style="fill: #ffffff; stroke: #ffffff; stroke-width: 0.8"/>
      </g>
     </g>
     <g id="text_16">
      <text style="fill: #ffffff; font: 10px 'sans-serif'; text-anchor: end" x="50.6" y="114.418844" transform="rotate(-0, 50.6, 114.418844)">4</text>
     </g>
    </g>
   </g>
   <g id="patch_35">
    <path d="M 57.6 255.7728 
L 57.6 93.2832 
" style="fill: none; stroke: #ffffff; stroke-width: 0.8; stroke-linejoin: miter; stroke-linecap: square"/>
   </g>
   <g id="patch_36">
    <path d="M 414.72 255.7728 
L 414.72 93.2832 
" style="fill: none; stroke: #ffffff; stroke-width: 0.8; stroke-linejoin: miter; stroke-linecap: square"/>
   </g>
   <g id="patch_37">
    <path d="M 57.6 255.7728 
L 414.72 255.7728 
" style="fill: none; stroke: #ffffff; stroke-width: 0.8; stroke-linejoin: miter; stroke-linecap: square"/>
   </g>
   <g id="patch_38">
    <path d="M 57.6 93.2832 
L 414.72 93.2832 
" style="fill: none; stroke: #ffffff; stroke-width: 0.8; stroke-linejoin: miter; stroke-linecap: square"/>
   </g>
   <g id="text_17">
    <text style="fill: #ffffff; font: 12px 'sans-serif'; text-anchor: middle" x="236.16" y="87.2832" transform="rotate(-0, 236.16, 87.2832)">DIL16</text>
   </g>
  </g>
 </g>
 <defs>
  <clipPath id="pd5248a6ca0">
   <rect x="57.6" y="93.2832" width="357.12" height="162.4896"/>
  </clipPath>
 </defs>
</svg>
