<?xml version="1.0" encoding="utf-8" standalone="no"?>
<!DOCTYPE svg PUBLIC "-//W3C//DTD SVG 1.1//EN"
  "http://www.w3.org/Graphics/SVG/1.1/DTD/svg11.dtd">
<svg xmlns:xlink="http://www.w3.org/1999/xlink" width="460.8pt" height="345.6pt" viewBox="0 0 460.8 345.6" xmlns="http://www.w3.org/2000/svg" version="1.1">
 <metadata>
  <rdf:RDF xmlns:dc="http://purl.org/dc/elements/1.1/" xmlns:cc="http://creativecommons.org/ns#" xmlns:rdf="http://www.w3.org/1999/02/22-rdf-syntax-ns#">
   <cc:Work>
    <dc:type rdf:resource="http://purl.org/dc/dcmitype/StillImage"/>
    <dc:date>2023-02-18T16:06:01.031142</dc:date>
    <dc:format>image/svg+xml</dc:format>
    <dc:creator>
     <cc:Agent>
      <dc:title>Matplotlib v3.5.1, https://matplotlib.org/</dc:title>
     </cc:Agent>
    </dc:creator>
   </cc:Work>
  </rdf:RDF>
 </metadata>
 <defs>
  <style type="text/css">*{stroke-linejoin: round; stroke-linecap: butt}</style>
 </defs>
 <g id="figure_1">
  <g id="patch_1">
   <path d="M 0 345.6 
L 460.8 345.6 
L 460.8 0 
L 0 0 
z
" style="fill: #2b2b2b"/>
  </g>
  <g id="axes_1">
   <g id="patch_2">
    <path d="M 57.6 250.107123 
L 414.72 250.107123 
L 414.72 98.948877 
L 57.6 98.948877 
z
" style="fill: #2b2b2b"/>
   </g>
   <g id="patch_3">
    <path d="M 136.112194 184.114582 
C 136.151611 184.114582 136.189418 184.098921 136.21729 184.071049 
C 136.245162 184.043177 136.260823 184.005369 136.260823 183.965952 
C 136.260823 183.926536 136.245162 183.888728 136.21729 183.860856 
C 136.189418 183.832984 136.151611 183.817323 136.112194 183.817323 
C 136.072777 183.817323 136.034969 183.832984 136.007097 183.860856 
C 135.979225 183.888728 135.963565 183.926536 135.963565 183.965952 
C 135.963565 184.005369 135.979225 184.043177 136.007097 184.071049 
C 136.034969 184.098921 136.072777 184.114582 136.112194 184.114582 
L 136.112194 184.114582 
z
" clip-path="url(#p24b7cb11b6)" style="fill: none; stroke: #808080; stroke-width: 1.486292; stroke-linejoin: miter"/>
   </g>
   <g id="line2d_1">
    <path d="M 135.937934 170.428813 
L 145.723727 174.528261 
L 145.723727 174.528261 
L 135.937476 178.627933 
L 135.937476 178.627933 
" clip-path="url(#p24b7cb11b6)" style="fill: none; stroke: #808080; stroke-width: 0.377518; stroke-linecap: round"/>
   </g>
   <g id="line2d_2">
    <path d="M 147.329052 167.2539 
L 152.22278 181.802829 
L 152.22278 181.802829 
L 156.983692 167.253525 
L 156.983692 167.253525 
" clip-path="url(#p24b7cb11b6)" style="fill: none; stroke: #808080; stroke-width: 0.377518; stroke-linecap: round"/>
   </g>
   <g id="line2d_3">
    <path d="M 158.65445 181.537587 
L 163.548178 166.988658 
L 163.548178 166.988658 
L 168.30909 181.537962 
L 168.30909 181.537962 
" clip-path="url(#p24b7cb11b6)" style="fill: none; stroke: #808080; stroke-width: 0.377518; stroke-linecap: round"/>
   </g>
   <g id="line2d_4">
    <path d="M 167.119916 177.967258 
L 159.845704 177.967258 
" clip-path="url(#p24b7cb11b6)" style="fill: none; stroke: #808080; stroke-width: 0.377518; stroke-linecap: round"/>
   </g>
   <g id="line2d_5">
    <path d="M 171.567058 167.253977 
L 171.567058 181.802402 
L 178.04772 181.802402 
" clip-path="url(#p24b7cb11b6)" style="fill: none; stroke: #808080; stroke-width: 0.377518; stroke-linecap: round"/>
   </g>
   <g id="line2d_6">
    <path d="M 182.09933 167.254592 
L 182.09933 177.703006 
L 182.09933 177.703006 
L 182.363847 179.02559 
L 182.363847 179.02559 
L 182.892881 180.083658 
L 183.81869 181.009467 
L 184.876757 181.670759 
L 186.199341 181.803017 
L 187.389667 181.670759 
L 188.579992 181.009467 
L 189.505801 180.083658 
L 190.034835 179.02559 
L 190.167093 177.703006 
L 190.167093 167.254592 
" clip-path="url(#p24b7cb11b6)" style="fill: none; stroke: #808080; stroke-width: 0.377518; stroke-linecap: round"/>
   </g>
   <g id="line2d_7">
    <path d="M 200.699085 181.802472 
L 194.218423 181.802472 
L 194.218423 167.254047 
L 200.699085 167.254047 
" clip-path="url(#p24b7cb11b6)" style="fill: none; stroke: #808080; stroke-width: 0.377518; stroke-linecap: round"/>
   </g>
   <g id="line2d_8">
    <path d="M 194.218685 173.735052 
L 199.112246 173.735052 
" clip-path="url(#p24b7cb11b6)" style="fill: none; stroke: #808080; stroke-width: 0.377518; stroke-linecap: round"/>
   </g>
   <g id="patch_4">
    <path d="M 90.810022 218.091211 
C 90.849439 218.091211 90.887247 218.07555 90.915118 218.047678 
C 90.94299 218.019806 90.958651 217.981998 90.958651 217.942581 
C 90.958651 217.903165 90.94299 217.865357 90.915118 217.837485 
C 90.887247 217.809613 90.849439 217.793952 90.810022 217.793952 
C 90.770605 217.793952 90.732797 217.809613 90.704925 217.837485 
C 90.677053 217.865357 90.661393 217.903165 90.661393 217.942581 
C 90.661393 217.981998 90.677053 218.019806 90.704925 218.047678 
C 90.732797 218.07555 90.770605 218.091211 90.810022 218.091211 
L 90.810022 218.091211 
z
" clip-path="url(#p24b7cb11b6)" style="fill: none; stroke: #808080; stroke-width: 1.486292; stroke-linejoin: miter"/>
   </g>
   <g id="line2d_9">
    <path d="M 77.272882 218.116841 
L 81.372331 208.331048 
L 81.372331 208.331048 
L 85.472003 218.117299 
L 85.472003 218.117299 
" clip-path="url(#p24b7cb11b6)" style="fill: none; stroke: #808080; stroke-width: 0.377518; stroke-linecap: round"/>
   </g>
   <g id="line2d_10">
    <path d="M 88.64603 205.931233 
L 74.097605 205.931233 
L 88.64603 197.86347 
L 74.097605 197.86347 
" clip-path="url(#p24b7cb11b6)" style="fill: none; stroke: #808080; stroke-width: 0.377518; stroke-linecap: round"/>
   </g>
   <g id="line2d_11">
    <path d="M 88.381657 195.400325 
L 73.832727 190.506597 
L 73.832727 190.506597 
L 88.382031 185.745686 
L 88.382031 185.745686 
" clip-path="url(#p24b7cb11b6)" style="fill: none; stroke: #808080; stroke-width: 0.377518; stroke-linecap: round"/>
   </g>
   <g id="line2d_12">
    <path d="M 84.811327 186.934859 
L 84.811327 194.209072 
" clip-path="url(#p24b7cb11b6)" style="fill: none; stroke: #808080; stroke-width: 0.377518; stroke-linecap: round"/>
   </g>
   <g id="line2d_13">
    <path d="M 88.64646 184.073827 
L 74.098034 184.073827 
L 82.165797 179.312524 
L 82.165797 179.312524 
L 74.098034 174.418963 
L 74.098034 174.418963 
L 88.64646 174.418963 
" clip-path="url(#p24b7cb11b6)" style="fill: none; stroke: #808080; stroke-width: 0.377518; stroke-linecap: round"/>
   </g>
   <g id="line2d_14">
    <path d="M 88.646541 164.681233 
L 88.646541 171.161896 
L 74.098116 171.161896 
L 74.098116 164.681233 
" clip-path="url(#p24b7cb11b6)" style="fill: none; stroke: #808080; stroke-width: 0.377518; stroke-linecap: round"/>
   </g>
   <g id="line2d_15">
    <path d="M 80.579122 171.161633 
L 80.579122 166.268072 
" clip-path="url(#p24b7cb11b6)" style="fill: none; stroke: #808080; stroke-width: 0.377518; stroke-linecap: round"/>
   </g>
   <g id="line2d_16">
    <path d="M 398.487273 131.113419 
L 398.487273 217.942581 
" clip-path="url(#p24b7cb11b6)" style="fill: none; stroke: #808080; stroke-width: 2.265109; stroke-linecap: round"/>
   </g>
   <g id="line2d_17">
    <path d="M 96.472793 131.113419 
L 96.472793 159.427276 
" clip-path="url(#p24b7cb11b6)" style="fill: none; stroke: #808080; stroke-width: 2.265109; stroke-linecap: round"/>
   </g>
   <g id="line2d_18">
    <path d="M 96.472793 217.942581 
L 96.472793 189.628724 
" clip-path="url(#p24b7cb11b6)" style="fill: none; stroke: #808080; stroke-width: 2.265109; stroke-linecap: round"/>
   </g>
   <g id="patch_5">
    <path d="M 96.472793 189.62872 
C 98.455805 189.628726 100.419536 189.238121 102.251602 188.479259 
C 104.083668 187.720397 105.74844 186.608037 107.150644 185.205837 
C 108.552847 183.803638 109.665212 182.138869 110.42408 180.306806 
C 111.182947 178.474742 111.573558 176.511012 111.573558 174.528 
C 111.573558 172.544988 111.182947 170.581258 110.42408 168.749194 
C 109.665212 166.917131 108.552847 165.252362 107.150644 163.850163 
C 105.74844 162.447963 104.083668 161.335603 102.251602 160.576741 
C 100.419536 159.817879 98.455805 159.427274 96.472793 159.42728 
" clip-path="url(#p24b7cb11b6)" style="fill: none; stroke: #808080; stroke-width: 2.265109; stroke-linejoin: miter"/>
   </g>
   <g id="patch_6">
    <path d="M 115.348698 243.236294 
C 118.552505 243.236294 121.625524 241.963408 123.890958 239.697974 
C 126.156391 237.432541 127.429277 234.359522 127.429277 231.155715 
C 127.429277 227.951908 126.156391 224.878889 123.890958 222.613455 
C 121.625524 220.348022 118.552505 219.075136 115.348698 219.075136 
C 112.144891 219.075136 109.071872 220.348022 106.806439 222.613455 
C 104.541005 224.878889 103.268119 227.951908 103.268119 231.155715 
C 103.268119 234.359522 104.541005 237.432541 106.806439 239.697974 
C 109.071872 241.963408 112.144891 243.236294 115.348698 243.236294 
z
" clip-path="url(#p24b7cb11b6)" style="fill: #0dab76"/>
   </g>
   <g id="patch_7">
    <path d="M 115.348698 237.196004 
C 116.950602 237.196004 118.487111 236.559561 119.619828 235.426845 
C 120.752545 234.294128 121.388988 232.757618 121.388988 231.155715 
C 121.388988 229.553811 120.752545 228.017302 119.619828 226.884585 
C 118.487111 225.751868 116.950602 225.115425 115.348698 225.115425 
C 113.746795 225.115425 112.210285 225.751868 111.077569 226.884585 
C 109.944852 228.017302 109.308409 229.553811 109.308409 231.155715 
C 109.308409 232.757618 109.944852 234.294128 111.077569 235.426845 
C 112.210285 236.559561 113.746795 237.196004 115.348698 237.196004 
z
" clip-path="url(#p24b7cb11b6)" style="fill: #a0a0a0"/>
   </g>
   <g id="patch_8">
    <path d="M 153.100508 243.236294 
C 156.304315 243.236294 159.377334 241.963408 161.642768 239.697974 
C 163.908201 237.432541 165.181087 234.359522 165.181087 231.155715 
C 165.181087 227.951908 163.908201 224.878889 161.642768 222.613455 
C 159.377334 220.348022 156.304315 219.075136 153.100508 219.075136 
C 149.896701 219.075136 146.823682 220.348022 144.558249 222.613455 
C 142.292815 224.878889 141.019929 227.951908 141.019929 231.155715 
C 141.019929 234.359522 142.292815 237.432541 144.558249 239.697974 
C 146.823682 241.963408 149.896701 243.236294 153.100508 243.236294 
z
" clip-path="url(#p24b7cb11b6)" style="fill: #0dab76"/>
   </g>
   <g id="patch_9">
    <path d="M 153.100508 237.196004 
C 154.702412 237.196004 156.238921 236.559561 157.371638 235.426845 
C 158.504355 234.294128 159.140798 232.757618 159.140798 231.155715 
C 159.140798 229.553811 158.504355 228.017302 157.371638 226.884585 
C 156.238921 225.751868 154.702412 225.115425 153.100508 225.115425 
C 151.498605 225.115425 149.962095 225.751868 148.829378 226.884585 
C 147.696662 228.017302 147.060219 229.553811 147.060219 231.155715 
C 147.060219 232.757618 147.696662 234.294128 148.829378 235.426845 
C 149.962095 236.559561 151.498605 237.196004 153.100508 237.196004 
z
" clip-path="url(#p24b7cb11b6)" style="fill: #a0a0a0"/>
   </g>
   <g id="patch_10">
    <path d="M 341.859558 243.236294 
C 345.063365 243.236294 348.136384 241.963408 350.401817 239.697974 
C 352.667251 237.432541 353.940137 234.359522 353.940137 231.155715 
C 353.940137 227.951908 352.667251 224.878889 350.401817 222.613455 
C 348.136384 220.348022 345.063365 219.075136 341.859558 219.075136 
C 338.655751 219.075136 335.582732 220.348022 333.317298 222.613455 
C 331.051865 224.878889 329.778979 227.951908 329.778979 231.155715 
C 329.778979 234.359522 331.051865 237.432541 333.317298 239.697974 
C 335.582732 241.963408 338.655751 243.236294 341.859558 243.236294 
z
" clip-path="url(#p24b7cb11b6)" style="fill: #0dab76"/>
   </g>
   <g id="patch_11">
    <path d="M 341.859558 237.196004 
C 343.461461 237.196004 344.997971 236.559561 346.130688 235.426845 
C 347.263404 234.294128 347.899847 232.757618 347.899847 231.155715 
C 347.899847 229.553811 347.263404 228.017302 346.130688 226.884585 
C 344.997971 225.751868 343.461461 225.115425 341.859558 225.115425 
C 340.257654 225.115425 338.721145 225.751868 337.588428 226.884585 
C 336.455711 228.017302 335.819268 229.553811 335.819268 231.155715 
C 335.819268 232.757618 336.455711 234.294128 337.588428 235.426845 
C 338.721145 236.559561 340.257654 237.196004 341.859558 237.196004 
z
" clip-path="url(#p24b7cb11b6)" style="fill: #a0a0a0"/>
   </g>
   <g id="patch_12">
    <path d="M 379.611368 243.236294 
C 382.815175 243.236294 385.888194 241.963408 388.153627 239.697974 
C 390.419061 237.432541 391.691947 234.359522 391.691947 231.155715 
C 391.691947 227.951908 390.419061 224.878889 388.153627 222.613455 
C 385.888194 220.348022 382.815175 219.075136 379.611368 219.075136 
C 376.407561 219.075136 373.334542 220.348022 371.069108 222.613455 
C 368.803675 224.878889 367.530789 227.951908 367.530789 231.155715 
C 367.530789 234.359522 368.803675 237.432541 371.069108 239.697974 
C 373.334542 241.963408 376.407561 243.236294 379.611368 243.236294 
z
" clip-path="url(#p24b7cb11b6)" style="fill: #0dab76"/>
   </g>
   <g id="patch_13">
    <path d="M 379.611368 237.196004 
C 381.213271 237.196004 382.749781 236.559561 383.882497 235.426845 
C 385.015214 234.294128 385.651657 232.757618 385.651657 231.155715 
C 385.651657 229.553811 385.015214 228.017302 383.882497 226.884585 
C 382.749781 225.751868 381.213271 225.115425 379.611368 225.115425 
C 378.009464 225.115425 376.472955 225.751868 375.340238 226.884585 
C 374.207521 228.017302 373.571078 229.553811 373.571078 231.155715 
C 373.571078 232.757618 374.207521 234.294128 375.340238 235.426845 
C 376.472955 236.559561 378.009464 237.196004 379.611368 237.196004 
z
" clip-path="url(#p24b7cb11b6)" style="fill: #a0a0a0"/>
   </g>
   <g id="patch_14">
    <path d="M 190.852318 243.236294 
C 194.056125 243.236294 197.129144 241.963408 199.394578 239.697974 
C 201.660011 237.432541 202.932897 234.359522 202.932897 231.155715 
C 202.932897 227.951908 201.660011 224.878889 199.394578 222.613455 
C 197.129144 220.348022 194.056125 219.075136 190.852318 219.075136 
C 187.648511 219.075136 184.575492 220.348022 182.310059 222.613455 
C 180.044625 224.878889 178.771739 227.951908 178.771739 231.155715 
C 178.771739 234.359522 180.044625 237.432541 182.310059 239.697974 
C 184.575492 241.963408 187.648511 243.236294 190.852318 243.236294 
z
" clip-path="url(#p24b7cb11b6)" style="fill: #0dab76"/>
   </g>
   <g id="patch_15">
    <path d="M 190.852318 237.196004 
C 192.454222 237.196004 193.990731 236.559561 195.123448 235.426845 
C 196.256165 234.294128 196.892608 232.757618 196.892608 231.155715 
C 196.892608 229.553811 196.256165 228.017302 195.123448 226.884585 
C 193.990731 225.751868 192.454222 225.115425 190.852318 225.115425 
C 189.250415 225.115425 187.713905 225.751868 186.581188 226.884585 
C 185.448472 228.017302 184.812029 229.553811 184.812029 231.155715 
C 184.812029 232.757618 185.448472 234.294128 186.581188 235.426845 
C 187.713905 236.559561 189.250415 237.196004 190.852318 237.196004 
z
" clip-path="url(#p24b7cb11b6)" style="fill: #a0a0a0"/>
   </g>
   <g id="patch_16">
    <path d="M 228.604128 243.236294 
C 231.807935 243.236294 234.880954 241.963408 237.146388 239.697974 
C 239.411821 237.432541 240.684707 234.359522 240.684707 231.155715 
C 240.684707 227.951908 239.411821 224.878889 237.146388 222.613455 
C 234.880954 220.348022 231.807935 219.075136 228.604128 219.075136 
C 225.400321 219.075136 222.327302 220.348022 220.061869 222.613455 
C 217.796435 224.878889 216.523549 227.951908 216.523549 231.155715 
C 216.523549 234.359522 217.796435 237.432541 220.061869 239.697974 
C 222.327302 241.963408 225.400321 243.236294 228.604128 243.236294 
z
" clip-path="url(#p24b7cb11b6)" style="fill: #0dab76"/>
   </g>
   <g id="patch_17">
    <path d="M 228.604128 237.196004 
C 230.206032 237.196004 231.742541 236.559561 232.875258 235.426845 
C 234.007975 234.294128 234.644418 232.757618 234.644418 231.155715 
C 234.644418 229.553811 234.007975 228.017302 232.875258 226.884585 
C 231.742541 225.751868 230.206032 225.115425 228.604128 225.115425 
C 227.002225 225.115425 225.465715 225.751868 224.332998 226.884585 
C 223.200281 228.017302 222.563838 229.553811 222.563838 231.155715 
C 222.563838 232.757618 223.200281 234.294128 224.332998 235.426845 
C 225.465715 236.559561 227.002225 237.196004 228.604128 237.196004 
z
" clip-path="url(#p24b7cb11b6)" style="fill: #a0a0a0"/>
   </g>
   <g id="patch_18">
    <path d="M 304.107748 243.236294 
C 307.311555 243.236294 310.384574 241.963408 312.650007 239.697974 
C 314.915441 237.432541 316.188327 234.359522 316.188327 231.155715 
C 316.188327 227.951908 314.915441 224.878889 312.650007 222.613455 
C 310.384574 220.348022 307.311555 219.075136 304.107748 219.075136 
C 300.903941 219.075136 297.830922 220.348022 295.565488 222.613455 
C 293.300055 224.878889 292.027169 227.951908 292.027169 231.155715 
C 292.027169 234.359522 293.300055 237.432541 295.565488 239.697974 
C 297.830922 241.963408 300.903941 243.236294 304.107748 243.236294 
z
" clip-path="url(#p24b7cb11b6)" style="fill: #0dab76"/>
   </g>
   <g id="patch_19">
    <path d="M 304.107748 237.196004 
C 305.709651 237.196004 307.246161 236.559561 308.378878 235.426845 
C 309.511594 234.294128 310.148037 232.757618 310.148037 231.155715 
C 310.148037 229.553811 309.511594 228.017302 308.378878 226.884585 
C 307.246161 225.751868 305.709651 225.115425 304.107748 225.115425 
C 302.505844 225.115425 300.969335 225.751868 299.836618 226.884585 
C 298.703901 228.017302 298.067458 229.553811 298.067458 231.155715 
C 298.067458 232.757618 298.703901 234.294128 299.836618 235.426845 
C 300.969335 236.559561 302.505844 237.196004 304.107748 237.196004 
z
" clip-path="url(#p24b7cb11b6)" style="fill: #a0a0a0"/>
   </g>
   <g id="patch_20">
    <path d="M 266.355938 243.236294 
C 269.559745 243.236294 272.632764 241.963408 274.898197 239.697974 
C 277.163631 237.432541 278.436517 234.359522 278.436517 231.155715 
C 278.436517 227.951908 277.163631 224.878889 274.898197 222.613455 
C 272.632764 220.348022 269.559745 219.075136 266.355938 219.075136 
C 263.152131 219.075136 260.079112 220.348022 257.813679 222.613455 
C 255.548245 224.878889 254.275359 227.951908 254.275359 231.155715 
C 254.275359 234.359522 255.548245 237.432541 257.813679 239.697974 
C 260.079112 241.963408 263.152131 243.236294 266.355938 243.236294 
z
" clip-path="url(#p24b7cb11b6)" style="fill: #0dab76"/>
   </g>
   <g id="patch_21">
    <path d="M 266.355938 237.196004 
C 267.957841 237.196004 269.494351 236.559561 270.627068 235.426845 
C 271.759785 234.294128 272.396228 232.757618 272.396228 231.155715 
C 272.396228 229.553811 271.759785 228.017302 270.627068 226.884585 
C 269.494351 225.751868 267.957841 225.115425 266.355938 225.115425 
C 264.754034 225.115425 263.217525 225.751868 262.084808 226.884585 
C 260.952091 228.017302 260.315648 229.553811 260.315648 231.155715 
C 260.315648 232.757618 260.952091 234.294128 262.084808 235.426845 
C 263.217525 236.559561 264.754034 237.196004 266.355938 237.196004 
z
" clip-path="url(#p24b7cb11b6)" style="fill: #a0a0a0"/>
   </g>
   <g id="patch_22">
    <path d="M 379.611368 129.980864 
C 382.815175 129.980864 385.888194 128.707978 388.153627 126.442545 
C 390.419061 124.177111 391.691947 121.104092 391.691947 117.900285 
C 391.691947 114.696478 390.419061 111.623459 388.153627 109.358026 
C 385.888194 107.092592 382.815175 105.819706 379.611368 105.819706 
C 376.407561 105.819706 373.334542 107.092592 371.069108 109.358026 
C 368.803675 111.623459 367.530789 114.696478 367.530789 117.900285 
C 367.530789 121.104092 368.803675 124.177111 371.069108 126.442545 
C 373.334542 128.707978 376.407561 129.980864 379.611368 129.980864 
z
" clip-path="url(#p24b7cb11b6)" style="fill: #0dab76"/>
   </g>
   <g id="patch_23">
    <path d="M 379.611368 123.940575 
C 381.213271 123.940575 382.749781 123.304132 383.882497 122.171415 
C 385.015214 121.038698 385.651657 119.502189 385.651657 117.900285 
C 385.651657 116.298382 385.015214 114.761872 383.882497 113.629155 
C 382.749781 112.496439 381.213271 111.859996 379.611368 111.859996 
C 378.009464 111.859996 376.472955 112.496439 375.340238 113.629155 
C 374.207521 114.761872 373.571078 116.298382 373.571078 117.900285 
C 373.571078 119.502189 374.207521 121.038698 375.340238 122.171415 
C 376.472955 123.304132 378.009464 123.940575 379.611368 123.940575 
z
" clip-path="url(#p24b7cb11b6)" style="fill: #a0a0a0"/>
   </g>
   <g id="patch_24">
    <path d="M 341.859558 129.980864 
C 345.063365 129.980864 348.136384 128.707978 350.401817 126.442545 
C 352.667251 124.177111 353.940137 121.104092 353.940137 117.900285 
C 353.940137 114.696478 352.667251 111.623459 350.401817 109.358026 
C 348.136384 107.092592 345.063365 105.819706 341.859558 105.819706 
C 338.655751 105.819706 335.582732 107.092592 333.317298 109.358026 
C 331.051865 111.623459 329.778979 114.696478 329.778979 117.900285 
C 329.778979 121.104092 331.051865 124.177111 333.317298 126.442545 
C 335.582732 128.707978 338.655751 129.980864 341.859558 129.980864 
z
" clip-path="url(#p24b7cb11b6)" style="fill: #0dab76"/>
   </g>
   <g id="patch_25">
    <path d="M 341.859558 123.940575 
C 343.461461 123.940575 344.997971 123.304132 346.130688 122.171415 
C 347.263404 121.038698 347.899847 119.502189 347.899847 117.900285 
C 347.899847 116.298382 347.263404 114.761872 346.130688 113.629155 
C 344.997971 112.496439 343.461461 111.859996 341.859558 111.859996 
C 340.257654 111.859996 338.721145 112.496439 337.588428 113.629155 
C 336.455711 114.761872 335.819268 116.298382 335.819268 117.900285 
C 335.819268 119.502189 336.455711 121.038698 337.588428 122.171415 
C 338.721145 123.304132 340.257654 123.940575 341.859558 123.940575 
z
" clip-path="url(#p24b7cb11b6)" style="fill: #a0a0a0"/>
   </g>
   <g id="patch_26">
    <path d="M 304.107748 129.980864 
C 307.311555 129.980864 310.384574 128.707978 312.650007 126.442545 
C 314.915441 124.177111 316.188327 121.104092 316.188327 117.900285 
C 316.188327 114.696478 314.915441 111.623459 312.650007 109.358026 
C 310.384574 107.092592 307.311555 105.819706 304.107748 105.819706 
C 300.903941 105.819706 297.830922 107.092592 295.565488 109.358026 
C 293.300055 111.623459 292.027169 114.696478 292.027169 117.900285 
C 292.027169 121.104092 293.300055 124.177111 295.565488 126.442545 
C 297.830922 128.707978 300.903941 129.980864 304.107748 129.980864 
z
" clip-path="url(#p24b7cb11b6)" style="fill: #0dab76"/>
   </g>
   <g id="patch_27">
    <path d="M 304.107748 123.940575 
C 305.709651 123.940575 307.246161 123.304132 308.378878 122.171415 
C 309.511594 121.038698 310.148037 119.502189 310.148037 117.900285 
C 310.148037 116.298382 309.511594 114.761872 308.378878 113.629155 
C 307.246161 112.496439 305.709651 111.859996 304.107748 111.859996 
C 302.505844 111.859996 300.969335 112.496439 299.836618 113.629155 
C 298.703901 114.761872 298.067458 116.298382 298.067458 117.900285 
C 298.067458 119.502189 298.703901 121.038698 299.836618 122.171415 
C 300.969335 123.304132 302.505844 123.940575 304.107748 123.940575 
z
" clip-path="url(#p24b7cb11b6)" style="fill: #a0a0a0"/>
   </g>
   <g id="patch_28">
    <path d="M 266.355938 129.980864 
C 269.559745 129.980864 272.632764 128.707978 274.898197 126.442545 
C 277.163631 124.177111 278.436517 121.104092 278.436517 117.900285 
C 278.436517 114.696478 277.163631 111.623459 274.898197 109.358026 
C 272.632764 107.092592 269.559745 105.819706 266.355938 105.819706 
C 263.152131 105.819706 260.079112 107.092592 257.813679 109.358026 
C 255.548245 111.623459 254.275359 114.696478 254.275359 117.900285 
C 254.275359 121.104092 255.548245 124.177111 257.813679 126.442545 
C 260.079112 128.707978 263.152131 129.980864 266.355938 129.980864 
z
" clip-path="url(#p24b7cb11b6)" style="fill: #0dab76"/>
   </g>
   <g id="patch_29">
    <path d="M 266.355938 123.940575 
C 267.957841 123.940575 269.494351 123.304132 270.627068 122.171415 
C 271.759785 121.038698 272.396228 119.502189 272.396228 117.900285 
C 272.396228 116.298382 271.759785 114.761872 270.627068 113.629155 
C 269.494351 112.496439 267.957841 111.859996 266.355938 111.859996 
C 264.754034 111.859996 263.217525 112.496439 262.084808 113.629155 
C 260.952091 114.761872 260.315648 116.298382 260.315648 117.900285 
C 260.315648 119.502189 260.952091 121.038698 262.084808 122.171415 
C 263.217525 123.304132 264.754034 123.940575 266.355938 123.940575 
z
" clip-path="url(#p24b7cb11b6)" style="fill: #a0a0a0"/>
   </g>
   <g id="patch_30">
    <path d="M 228.604128 129.980864 
C 231.807935 129.980864 234.880954 128.707978 237.146388 126.442545 
C 239.411821 124.177111 240.684707 121.104092 240.684707 117.900285 
C 240.684707 114.696478 239.411821 111.623459 237.146388 109.358026 
C 234.880954 107.092592 231.807935 105.819706 228.604128 105.819706 
C 225.400321 105.819706 222.327302 107.092592 220.061869 109.358026 
C 217.796435 111.623459 216.523549 114.696478 216.523549 117.900285 
C 216.523549 121.104092 217.796435 124.177111 220.061869 126.442545 
C 222.327302 128.707978 225.400321 129.980864 228.604128 129.980864 
z
" clip-path="url(#p24b7cb11b6)" style="fill: #0dab76"/>
   </g>
   <g id="patch_31">
    <path d="M 228.604128 123.940575 
C 230.206032 123.940575 231.742541 123.304132 232.875258 122.171415 
C 234.007975 121.038698 234.644418 119.502189 234.644418 117.900285 
C 234.644418 116.298382 234.007975 114.761872 232.875258 113.629155 
C 231.742541 112.496439 230.206032 111.859996 228.604128 111.859996 
C 227.002225 111.859996 225.465715 112.496439 224.332998 113.629155 
C 223.200281 114.761872 222.563838 116.298382 222.563838 117.900285 
C 222.563838 119.502189 223.200281 121.038698 224.332998 122.171415 
C 225.465715 123.304132 227.002225 123.940575 228.604128 123.940575 
z
" clip-path="url(#p24b7cb11b6)" style="fill: #a0a0a0"/>
   </g>
   <g id="patch_32">
    <path d="M 190.852318 129.980864 
C 194.056125 129.980864 197.129144 128.707978 199.394578 126.442545 
C 201.660011 124.177111 202.932897 121.104092 202.932897 117.900285 
C 202.932897 114.696478 201.660011 111.623459 199.394578 109.358026 
C 197.129144 107.092592 194.056125 105.819706 190.852318 105.819706 
C 187.648511 105.819706 184.575492 107.092592 182.310059 109.358026 
C 180.044625 111.623459 178.771739 114.696478 178.771739 117.900285 
C 178.771739 121.104092 180.044625 124.177111 182.310059 126.442545 
C 184.575492 128.707978 187.648511 129.980864 190.852318 129.980864 
z
" clip-path="url(#p24b7cb11b6)" style="fill: #0dab76"/>
   </g>
   <g id="patch_33">
    <path d="M 190.852318 123.940575 
C 192.454222 123.940575 193.990731 123.304132 195.123448 122.171415 
C 196.256165 121.038698 196.892608 119.502189 196.892608 117.900285 
C 196.892608 116.298382 196.256165 114.761872 195.123448 113.629155 
C 193.990731 112.496439 192.454222 111.859996 190.852318 111.859996 
C 189.250415 111.859996 187.713905 112.496439 186.581188 113.629155 
C 185.448472 114.761872 184.812029 116.298382 184.812029 117.900285 
C 184.812029 119.502189 185.448472 121.038698 186.581188 122.171415 
C 187.713905 123.304132 189.250415 123.940575 190.852318 123.940575 
z
" clip-path="url(#p24b7cb11b6)" style="fill: #a0a0a0"/>
   </g>
   <g id="patch_34">
    <path d="M 153.100508 129.980864 
C 156.304315 129.980864 159.377334 128.707978 161.642768 126.442545 
C 163.908201 124.177111 165.181087 121.104092 165.181087 117.900285 
C 165.181087 114.696478 163.908201 111.623459 161.642768 109.358026 
C 159.377334 107.092592 156.304315 105.819706 153.100508 105.819706 
C 149.896701 105.819706 146.823682 107.092592 144.558249 109.358026 
C 142.292815 111.623459 141.019929 114.696478 141.019929 117.900285 
C 141.019929 121.104092 142.292815 124.177111 144.558249 126.442545 
C 146.823682 128.707978 149.896701 129.980864 153.100508 129.980864 
z
" clip-path="url(#p24b7cb11b6)" style="fill: #0dab76"/>
   </g>
   <g id="patch_35">
    <path d="M 153.100508 123.940575 
C 154.702412 123.940575 156.238921 123.304132 157.371638 122.171415 
C 158.504355 121.038698 159.140798 119.502189 159.140798 117.900285 
C 159.140798 116.298382 158.504355 114.761872 157.371638 113.629155 
C 156.238921 112.496439 154.702412 111.859996 153.100508 111.859996 
C 151.498605 111.859996 149.962095 112.496439 148.829378 113.629155 
C 147.696662 114.761872 147.060219 116.298382 147.060219 117.900285 
C 147.060219 119.502189 147.696662 121.038698 148.829378 122.171415 
C 149.962095 123.304132 151.498605 123.940575 153.100508 123.940575 
z
" clip-path="url(#p24b7cb11b6)" style="fill: #a0a0a0"/>
   </g>
   <g id="patch_36">
    <path d="M 115.348698 129.980864 
C 118.552505 129.980864 121.625524 128.707978 123.890958 126.442545 
C 126.156391 124.177111 127.429277 121.104092 127.429277 117.900285 
C 127.429277 114.696478 126.156391 111.623459 123.890958 109.358026 
C 121.625524 107.092592 118.552505 105.819706 115.348698 105.819706 
C 112.144891 105.819706 109.071872 107.092592 106.806439 109.358026 
C 104.541005 111.623459 103.268119 114.696478 103.268119 117.900285 
C 103.268119 121.104092 104.541005 124.177111 106.806439 126.442545 
C 109.071872 128.707978 112.144891 129.980864 115.348698 129.980864 
z
" clip-path="url(#p24b7cb11b6)" style="fill: #0dab76"/>
   </g>
   <g id="patch_37">
    <path d="M 115.348698 123.940575 
C 116.950602 123.940575 118.487111 123.304132 119.619828 122.171415 
C 120.752545 121.038698 121.388988 119.502189 121.388988 117.900285 
C 121.388988 116.298382 120.752545 114.761872 119.619828 113.629155 
C 118.487111 112.496439 116.950602 111.859996 115.348698 111.859996 
C 113.746795 111.859996 112.210285 112.496439 111.077569 113.629155 
C 109.944852 114.761872 109.308409 116.298382 109.308409 117.900285 
C 109.308409 119.502189 109.944852 121.038698 111.077569 122.171415 
C 112.210285 123.304132 113.746795 123.940575 115.348698 123.940575 
z
" clip-path="url(#p24b7cb11b6)" style="fill: #a0a0a0"/>
   </g>
   <g id="matplotlib.axis_1">
    <g id="xtick_1">
     <g id="line2d_19">
      <defs>
       <path id="mb66714996d" d="M 0 0 
L 0 3.5 
" style="stroke: #ffffff; stroke-width: 0.8"/>
      </defs>
      <g>
       <use xlink:href="#mb66714996d" x="98.85086" y="250.107123" style="fill: #ffffff; stroke: #ffffff; stroke-width: 0.8"/>
      </g>
     </g>
     <g id="text_1">
      <text style="fill: #ffffff; font: 10px 'sans-serif'; text-anchor: middle" x="98.85086" y="264.705561" transform="rotate(-0, 98.85086, 264.705561)">−10</text>
     </g>
    </g>
    <g id="xtick_2">
     <g id="line2d_20">
      <g>
       <use xlink:href="#mb66714996d" x="173.165447" y="250.107123" style="fill: #ffffff; stroke: #ffffff; stroke-width: 0.8"/>
      </g>
     </g>
     <g id="text_2">
      <text style="fill: #ffffff; font: 10px 'sans-serif'; text-anchor: middle" x="173.165447" y="264.705561" transform="rotate(-0, 173.165447, 264.705561)">−5</text>
     </g>
    </g>
    <g id="xtick_3">
     <g id="line2d_21">
      <g>
       <use xlink:href="#mb66714996d" x="247.480033" y="250.107123" style="fill: #ffffff; stroke: #ffffff; stroke-width: 0.8"/>
      </g>
     </g>
     <g id="text_3">
      <text style="fill: #ffffff; font: 10px 'sans-serif'; text-anchor: middle" x="247.480033" y="264.705561" transform="rotate(-0, 247.480033, 264.705561)">0</text>
     </g>
    </g>
    <g id="xtick_4">
     <g id="line2d_22">
      <g>
       <use xlink:href="#mb66714996d" x="321.794619" y="250.107123" style="fill: #ffffff; stroke: #ffffff; stroke-width: 0.8"/>
      </g>
     </g>
     <g id="text_4">
      <text style="fill: #ffffff; font: 10px 'sans-serif'; text-anchor: middle" x="321.794619" y="264.705561" transform="rotate(-0, 321.794619, 264.705561)">5</text>
     </g>
    </g>
    <g id="xtick_5">
     <g id="line2d_23">
      <g>
       <use xlink:href="#mb66714996d" x="396.109206" y="250.107123" style="fill: #ffffff; stroke: #ffffff; stroke-width: 0.8"/>
      </g>
     </g>
     <g id="text_5">
      <text style="fill: #ffffff; font: 10px 'sans-serif'; text-anchor: middle" x="396.109206" y="264.705561" transform="rotate(-0, 396.109206, 264.705561)">10</text>
     </g>
    </g>
   </g>
   <g id="matplotlib.axis_2">
    <g id="ytick_1">
     <g id="line2d_24">
      <defs>
       <path id="m4028b13acc" d="M 0 0 
L -3.5 0 
" style="stroke: #ffffff; stroke-width: 0.8"/>
      </defs>
      <g>
       <use xlink:href="#m4028b13acc" x="57.6" y="233.979669" style="fill: #ffffff; stroke: #ffffff; stroke-width: 0.8"/>
      </g>
     </g>
     <g id="text_6">
      <text style="fill: #ffffff; font: 10px 'sans-serif'; text-anchor: end" x="50.6" y="237.778888" transform="rotate(-0, 50.6, 237.778888)">−4</text>
     </g>
    </g>
    <g id="ytick_2">
     <g id="line2d_25">
      <g>
       <use xlink:href="#m4028b13acc" x="57.6" y="204.253835" style="fill: #ffffff; stroke: #ffffff; stroke-width: 0.8"/>
      </g>
     </g>
     <g id="text_7">
      <text style="fill: #ffffff; font: 10px 'sans-serif'; text-anchor: end" x="50.6" y="208.053053" transform="rotate(-0, 50.6, 208.053053)">−2</text>
     </g>
    </g>
    <g id="ytick_3">
     <g id="line2d_26">
      <g>
       <use xlink:href="#m4028b13acc" x="57.6" y="174.528" style="fill: #ffffff; stroke: #ffffff; stroke-width: 0.8"/>
      </g>
     </g>
     <g id="text_8">
      <text style="fill: #ffffff; font: 10px 'sans-serif'; text-anchor: end" x="50.6" y="178.327219" transform="rotate(-0, 50.6, 178.327219)">0</text>
     </g>
    </g>
    <g id="ytick_4">
     <g id="line2d_27">
      <g>
       <use xlink:href="#m4028b13acc" x="57.6" y="144.802165" style="fill: #ffffff; stroke: #ffffff; stroke-width: 0.8"/>
      </g>
     </g>
     <g id="text_9">
      <text style="fill: #ffffff; font: 10px 'sans-serif'; text-anchor: end" x="50.6" y="148.601384" transform="rotate(-0, 50.6, 148.601384)">2</text>
     </g>
    </g>
    <g id="ytick_5">
     <g id="line2d_28">
      <g>
       <use xlink:href="#m4028b13acc" x="57.6" y="115.076331" style="fill: #ffffff; stroke: #ffffff; stroke-width: 0.8"/>
      </g>
     </g>
     <g id="text_10">
      <text style="fill: #ffffff; font: 10px 'sans-serif'; text-anchor: end" x="50.6" y="118.87555" transform="rotate(-0, 50.6, 118.87555)">4</text>
     </g>
    </g>
   </g>
   <g id="patch_38">
    <path d="M 57.6 250.107123 
L 57.6 98.948877 
" style="fill: none; stroke: #ffffff; stroke-width: 0.8; stroke-linejoin: miter; stroke-linecap: square"/>
   </g>
   <g id="patch_39">
    <path d="M 414.72 250.107123 
L 414.72 98.948877 
" style="fill: none; stroke: #ffffff; stroke-width: 0.8; stroke-linejoin: miter; stroke-linecap: square"/>
   </g>
   <g id="patch_40">
    <path d="M 57.6 250.107123 
L 414.72 250.107123 
" style="fill: none; stroke: #ffffff; stroke-width: 0.8; stroke-linejoin: miter; stroke-linecap: square"/>
   </g>
   <g id="patch_41">
    <path d="M 57.6 98.948877 
L 414.72 98.948877 
" style="fill: none; stroke: #ffffff; stroke-width: 0.8; stroke-linejoin: miter; stroke-linecap: square"/>
   </g>
   <g id="text_11">
    <text style="fill: #ffffff; font: 12px 'sans-serif'; text-anchor: middle" x="236.16" y="92.948877" transform="rotate(-0, 236.16, 92.948877)">DIL16</text>
   </g>
  </g>
 </g>
 <defs>
  <clipPath id="p24b7cb11b6">
   <rect x="57.6" y="98.948877" width="357.12" height="151.158247"/>
  </clipPath>
 </defs>
</svg>
