<?xml version="1.0" encoding="utf-8" standalone="no"?>
<!DOCTYPE svg PUBLIC "-//W3C//DTD SVG 1.1//EN"
  "http://www.w3.org/Graphics/SVG/1.1/DTD/svg11.dtd">
<svg xmlns:xlink="http://www.w3.org/1999/xlink" width="460.8pt" height="345.6pt" viewBox="0 0 460.8 345.6" xmlns="http://www.w3.org/2000/svg" version="1.1">
 <metadata>
  <rdf:RDF xmlns:dc="http://purl.org/dc/elements/1.1/" xmlns:cc="http://creativecommons.org/ns#" xmlns:rdf="http://www.w3.org/1999/02/22-rdf-syntax-ns#">
   <cc:Work>
    <dc:type rdf:resource="http://purl.org/dc/dcmitype/StillImage"/>
    <dc:date>2023-02-18T16:06:00.029543</dc:date>
    <dc:format>image/svg+xml</dc:format>
    <dc:creator>
     <cc:Agent>
      <dc:title>Matplotlib v3.5.1, https://matplotlib.org/</dc:title>
     </cc:Agent>
    </dc:creator>
   </cc:Work>
  </rdf:RDF>
 </metadata>
 <defs>
  <style type="text/css">*{stroke-linejoin: round; stroke-linecap: butt}</style>
 </defs>
 <g id="figure_1">
  <g id="patch_1">
   <path d="M 0 345.6 
L 460.8 345.6 
L 460.8 0 
L 0 0 
z
" style="fill: #2b2b2b"/>
  </g>
  <g id="axes_1">
   <g id="patch_2">
    <path d="M 57.6 294.415837 
L 414.72 294.415837 
L 414.72 54.640163 
L 57.6 54.640163 
z
" style="fill: #2b2b2b"/>
   </g>
   <g id="line2d_1">
    <path d="M 385.771896 227.625177 
L 109.666575 227.625177 
" clip-path="url(#p9165400bc8)" style="fill: none; stroke: #ffcd07; stroke-width: 5.678603; stroke-linecap: round"/>
   </g>
   <g id="line2d_2">
    <path d="M 109.666575 227.625177 
L 109.666575 213.652236 
" clip-path="url(#p9165400bc8)" style="fill: none; stroke: #ffcd07; stroke-width: 5.678603; stroke-linecap: round"/>
   </g>
   <g id="line2d_3">
    <path d="M 109.666575 213.652236 
L 109.666575 121.430823 
" clip-path="url(#p9165400bc8)" style="fill: none; stroke: #ffcd07; stroke-width: 5.678603; stroke-linecap: round"/>
   </g>
   <g id="line2d_4">
    <path d="M 109.666575 121.430823 
L 385.771896 121.430823 
" clip-path="url(#p9165400bc8)" style="fill: none; stroke: #ffcd07; stroke-width: 5.678603; stroke-linecap: round"/>
   </g>
   <g id="line2d_5">
    <path d="M 385.771896 213.652236 
L 109.666575 213.652236 
" clip-path="url(#p9165400bc8)" style="fill: none; stroke: #ffcd07; stroke-width: 5.678603; stroke-linecap: round"/>
   </g>
   <g id="line2d_6">
    <path d="M 385.771896 121.430823 
L 385.771896 213.652236 
" clip-path="url(#p9165400bc8)" style="fill: none; stroke: #ffcd07; stroke-width: 5.678603; stroke-linecap: round"/>
   </g>
   <g id="line2d_7">
    <path d="M 385.771896 213.652236 
L 385.771896 227.625177 
" clip-path="url(#p9165400bc8)" style="fill: none; stroke: #ffcd07; stroke-width: 5.678603; stroke-linecap: round"/>
   </g>
   <g id="line2d_8">
    <path d="M 96.951198 65.539057 
L 398.487273 65.539057 
" clip-path="url(#p9165400bc8)" style="fill: none; stroke: #c90d15; stroke-width: 5.583587; stroke-linecap: round"/>
   </g>
   <g id="line2d_9">
    <path d="M 398.487273 283.516943 
L 96.951198 283.516943 
" clip-path="url(#p9165400bc8)" style="fill: none; stroke: #c90d15; stroke-width: 5.583587; stroke-linecap: round"/>
   </g>
   <g id="line2d_10">
    <path d="M 96.951198 283.516943 
L 96.951198 65.539057 
" clip-path="url(#p9165400bc8)" style="fill: none; stroke: #c90d15; stroke-width: 5.583587; stroke-linecap: round"/>
   </g>
   <g id="line2d_11">
    <path d="M 398.487273 65.539057 
L 398.487273 283.516943 
" clip-path="url(#p9165400bc8)" style="fill: none; stroke: #c90d15; stroke-width: 5.583587; stroke-linecap: round"/>
   </g>
   <g id="patch_3">
    <path d="M 123.499787 192.553094 
C 123.5739 192.553094 123.644988 192.523649 123.697394 192.471243 
C 123.7498 192.418837 123.779245 192.347749 123.779245 192.273636 
C 123.779245 192.199522 123.7498 192.128434 123.697394 192.076028 
C 123.644988 192.023622 123.5739 191.994177 123.499787 191.994177 
C 123.425673 191.994177 123.354585 192.023622 123.302179 192.076028 
C 123.249773 192.128434 123.220328 192.199522 123.220328 192.273636 
C 123.220328 192.347749 123.249773 192.418837 123.302179 192.471243 
C 123.354585 192.523649 123.425673 192.553094 123.499787 192.553094 
L 123.499787 192.553094 
z
" clip-path="url(#p9165400bc8)" style="fill: none; stroke: #808080; stroke-width: 2.794588; stroke-linejoin: miter"/>
   </g>
   <g id="line2d_12">
    <path d="M 123.172136 166.820536 
L 141.571796 174.528492 
L 141.571796 174.528492 
L 123.171276 182.236867 
L 123.171276 182.236867 
" clip-path="url(#p9165400bc8)" style="fill: none; stroke: #808080; stroke-width: 1.419651; stroke-linecap: round"/>
   </g>
   <g id="line2d_13">
    <path d="M 144.590196 160.850931 
L 153.79159 188.20644 
L 153.79159 188.20644 
L 162.743256 160.850226 
L 162.743256 160.850226 
" clip-path="url(#p9165400bc8)" style="fill: none; stroke: #808080; stroke-width: 1.419651; stroke-linecap: round"/>
   </g>
   <g id="line2d_14">
    <path d="M 165.884685 187.707721 
L 175.086079 160.352212 
L 175.086079 160.352212 
L 184.037745 187.708425 
L 184.037745 187.708425 
" clip-path="url(#p9165400bc8)" style="fill: none; stroke: #808080; stroke-width: 1.419651; stroke-linecap: round"/>
   </g>
   <g id="line2d_15">
    <path d="M 181.801812 180.994637 
L 168.124531 180.994637 
" clip-path="url(#p9165400bc8)" style="fill: none; stroke: #808080; stroke-width: 1.419651; stroke-linecap: round"/>
   </g>
   <g id="line2d_16">
    <path d="M 190.163515 160.851075 
L 190.163515 188.205637 
L 202.348729 188.205637 
" clip-path="url(#p9165400bc8)" style="fill: none; stroke: #808080; stroke-width: 1.419651; stroke-linecap: round"/>
   </g>
   <g id="line2d_17">
    <path d="M 209.966736 160.852232 
L 209.966736 180.497781 
L 209.966736 180.497781 
L 210.464092 182.984559 
L 210.464092 182.984559 
L 211.458803 184.973982 
L 213.199548 186.714726 
L 215.188971 187.958116 
L 217.675749 188.206793 
L 219.91385 187.958116 
L 222.15195 186.714726 
L 223.892695 184.973982 
L 224.887407 182.984559 
L 225.136084 180.497781 
L 225.136084 160.852232 
" clip-path="url(#p9165400bc8)" style="fill: none; stroke: #808080; stroke-width: 1.419651; stroke-linecap: round"/>
   </g>
   <g id="line2d_18">
    <path d="M 244.938778 188.205769 
L 232.753564 188.205769 
L 232.753564 160.851207 
L 244.938778 160.851207 
" clip-path="url(#p9165400bc8)" style="fill: none; stroke: #808080; stroke-width: 1.419651; stroke-linecap: round"/>
   </g>
   <g id="line2d_19">
    <path d="M 232.754057 173.037066 
L 241.955137 173.037066 
" clip-path="url(#p9165400bc8)" style="fill: none; stroke: #808080; stroke-width: 1.419651; stroke-linecap: round"/>
   </g>
   <g id="patch_4">
    <path d="M 105.754151 228.044365 
C 105.828264 228.044365 105.899352 228.01492 105.951758 227.962514 
C 106.004164 227.910108 106.03361 227.83902 106.03361 227.764907 
C 106.03361 227.690793 106.004164 227.619705 105.951758 227.567299 
C 105.899352 227.514893 105.828264 227.485448 105.754151 227.485448 
C 105.680038 227.485448 105.60895 227.514893 105.556544 227.567299 
C 105.504138 227.619705 105.474692 227.690793 105.474692 227.764907 
C 105.474692 227.83902 105.504138 227.910108 105.556544 227.962514 
C 105.60895 228.01492 105.680038 228.044365 105.754151 228.044365 
L 105.754151 228.044365 
z
" clip-path="url(#p9165400bc8)" style="fill: none; stroke: #808080; stroke-width: 2.794588; stroke-linejoin: miter"/>
   </g>
   <g id="line2d_20">
    <path d="M 80.301052 228.092557 
L 88.009007 209.692897 
L 88.009007 209.692897 
L 95.717383 228.093418 
L 95.717383 228.093418 
" clip-path="url(#p9165400bc8)" style="fill: none; stroke: #808080; stroke-width: 1.419651; stroke-linecap: round"/>
   </g>
   <g id="line2d_21">
    <path d="M 101.685323 205.180664 
L 74.330761 205.180664 
L 101.685323 190.011316 
L 74.330761 190.011316 
" clip-path="url(#p9165400bc8)" style="fill: none; stroke: #808080; stroke-width: 1.419651; stroke-linecap: round"/>
   </g>
   <g id="line2d_22">
    <path d="M 101.188237 185.380008 
L 73.832727 176.178614 
L 73.832727 176.178614 
L 101.188941 167.226948 
L 101.188941 167.226948 
" clip-path="url(#p9165400bc8)" style="fill: none; stroke: #808080; stroke-width: 1.419651; stroke-linecap: round"/>
   </g>
   <g id="line2d_23">
    <path d="M 94.475152 169.462881 
L 94.475152 183.140162 
" clip-path="url(#p9165400bc8)" style="fill: none; stroke: #808080; stroke-width: 1.419651; stroke-linecap: round"/>
   </g>
   <g id="line2d_24">
    <path d="M 101.68613 164.083448 
L 74.331569 164.083448 
L 89.500917 155.131046 
L 89.500917 155.131046 
L 74.331569 145.929967 
L 74.331569 145.929967 
L 101.68613 145.929967 
" clip-path="url(#p9165400bc8)" style="fill: none; stroke: #808080; stroke-width: 1.419651; stroke-linecap: round"/>
   </g>
   <g id="line2d_25">
    <path d="M 101.686284 127.620678 
L 101.686284 139.805892 
L 74.331722 139.805892 
L 74.331722 127.620678 
" clip-path="url(#p9165400bc8)" style="fill: none; stroke: #808080; stroke-width: 1.419651; stroke-linecap: round"/>
   </g>
   <g id="line2d_26">
    <path d="M 86.517582 139.805399 
L 86.517582 130.604319 
" clip-path="url(#p9165400bc8)" style="fill: none; stroke: #808080; stroke-width: 1.419651; stroke-linecap: round"/>
   </g>
   <g id="patch_5">
    <path d="M 150.607293 277.927766 
L 167.374823 277.927766 
L 167.374823 216.446824 
L 150.607293 216.446824 
z
" clip-path="url(#p9165400bc8)" style="fill: #c90d15"/>
   </g>
   <g id="patch_6">
    <path d="M 221.589835 132.609176 
L 238.357365 132.609176 
L 238.357365 71.128234 
L 221.589835 71.128234 
z
" clip-path="url(#p9165400bc8)" style="fill: #c90d15"/>
   </g>
   <g id="patch_7">
    <path d="M 115.116022 277.927766 
L 131.883551 277.927766 
L 131.883551 216.446824 
L 115.116022 216.446824 
z
" clip-path="url(#p9165400bc8)" style="fill: #c90d15"/>
   </g>
   <g id="patch_8">
    <path d="M 186.098564 277.927766 
L 202.866094 277.927766 
L 202.866094 216.446824 
L 186.098564 216.446824 
z
" clip-path="url(#p9165400bc8)" style="fill: #c90d15"/>
   </g>
   <g id="patch_9">
    <path d="M 221.589835 277.927766 
L 238.357365 277.927766 
L 238.357365 216.446824 
L 221.589835 216.446824 
z
" clip-path="url(#p9165400bc8)" style="fill: #c90d15"/>
   </g>
   <g id="patch_10">
    <path d="M 186.098564 132.609176 
L 202.866094 132.609176 
L 202.866094 71.128234 
L 186.098564 71.128234 
z
" clip-path="url(#p9165400bc8)" style="fill: #c90d15"/>
   </g>
   <g id="patch_11">
    <path d="M 257.081106 132.609176 
L 273.848636 132.609176 
L 273.848636 71.128234 
L 257.081106 71.128234 
z
" clip-path="url(#p9165400bc8)" style="fill: #c90d15"/>
   </g>
   <g id="patch_12">
    <path d="M 292.572377 132.609176 
L 309.339907 132.609176 
L 309.339907 71.128234 
L 292.572377 71.128234 
z
" clip-path="url(#p9165400bc8)" style="fill: #c90d15"/>
   </g>
   <g id="patch_13">
    <path d="M 292.572377 277.927766 
L 309.339907 277.927766 
L 309.339907 216.446824 
L 292.572377 216.446824 
z
" clip-path="url(#p9165400bc8)" style="fill: #c90d15"/>
   </g>
   <g id="patch_14">
    <path d="M 363.554919 132.609176 
L 380.322449 132.609176 
L 380.322449 71.128234 
L 363.554919 71.128234 
z
" clip-path="url(#p9165400bc8)" style="fill: #c90d15"/>
   </g>
   <g id="patch_15">
    <path d="M 257.081106 277.927766 
L 273.848636 277.927766 
L 273.848636 216.446824 
L 257.081106 216.446824 
z
" clip-path="url(#p9165400bc8)" style="fill: #c90d15"/>
   </g>
   <g id="patch_16">
    <path d="M 328.063648 277.927766 
L 344.831178 277.927766 
L 344.831178 216.446824 
L 328.063648 216.446824 
z
" clip-path="url(#p9165400bc8)" style="fill: #c90d15"/>
   </g>
   <g id="patch_17">
    <path d="M 328.063648 132.609176 
L 344.831178 132.609176 
L 344.831178 71.128234 
L 328.063648 71.128234 
z
" clip-path="url(#p9165400bc8)" style="fill: #c90d15"/>
   </g>
   <g id="patch_18">
    <path d="M 363.554919 277.927766 
L 380.322449 277.927766 
L 380.322449 216.446824 
L 363.554919 216.446824 
z
" clip-path="url(#p9165400bc8)" style="fill: #c90d15"/>
   </g>
   <g id="patch_19">
    <path d="M 150.607293 132.609176 
L 167.374823 132.609176 
L 167.374823 71.128234 
L 150.607293 71.128234 
z
" clip-path="url(#p9165400bc8)" style="fill: #c90d15"/>
   </g>
   <g id="patch_20">
    <path d="M 115.116022 132.609176 
L 131.883551 132.609176 
L 131.883551 71.128234 
L 115.116022 71.128234 
z
" clip-path="url(#p9165400bc8)" style="fill: #c90d15"/>
   </g>
   <g id="matplotlib.axis_1">
    <g id="xtick_1">
     <g id="line2d_27">
      <defs>
       <path id="m5f5a1985f9" d="M 0 0 
L 0 3.5 
" style="stroke: #ffffff; stroke-width: 0.8"/>
      </defs>
      <g>
       <use xlink:href="#m5f5a1985f9" x="80.043939" y="294.415837" style="fill: #ffffff; stroke: #ffffff; stroke-width: 0.8"/>
      </g>
     </g>
     <g id="text_1">
      <text style="fill: #ffffff; font: 10px 'sans-serif'; text-anchor: middle" x="80.043939" y="309.014274" transform="rotate(-0, 80.043939, 309.014274)">−6</text>
     </g>
    </g>
    <g id="xtick_2">
     <g id="line2d_28">
      <g>
       <use xlink:href="#m5f5a1985f9" x="135.935704" y="294.415837" style="fill: #ffffff; stroke: #ffffff; stroke-width: 0.8"/>
      </g>
     </g>
     <g id="text_2">
      <text style="fill: #ffffff; font: 10px 'sans-serif'; text-anchor: middle" x="135.935704" y="309.014274" transform="rotate(-0, 135.935704, 309.014274)">−4</text>
     </g>
    </g>
    <g id="xtick_3">
     <g id="line2d_29">
      <g>
       <use xlink:href="#m5f5a1985f9" x="191.82747" y="294.415837" style="fill: #ffffff; stroke: #ffffff; stroke-width: 0.8"/>
      </g>
     </g>
     <g id="text_3">
      <text style="fill: #ffffff; font: 10px 'sans-serif'; text-anchor: middle" x="191.82747" y="309.014274" transform="rotate(-0, 191.82747, 309.014274)">−2</text>
     </g>
    </g>
    <g id="xtick_4">
     <g id="line2d_30">
      <g>
       <use xlink:href="#m5f5a1985f9" x="247.719235" y="294.415837" style="fill: #ffffff; stroke: #ffffff; stroke-width: 0.8"/>
      </g>
     </g>
     <g id="text_4">
      <text style="fill: #ffffff; font: 10px 'sans-serif'; text-anchor: middle" x="247.719235" y="309.014274" transform="rotate(-0, 247.719235, 309.014274)">0</text>
     </g>
    </g>
    <g id="xtick_5">
     <g id="line2d_31">
      <g>
       <use xlink:href="#m5f5a1985f9" x="303.611001" y="294.415837" style="fill: #ffffff; stroke: #ffffff; stroke-width: 0.8"/>
      </g>
     </g>
     <g id="text_5">
      <text style="fill: #ffffff; font: 10px 'sans-serif'; text-anchor: middle" x="303.611001" y="309.014274" transform="rotate(-0, 303.611001, 309.014274)">2</text>
     </g>
    </g>
    <g id="xtick_6">
     <g id="line2d_32">
      <g>
       <use xlink:href="#m5f5a1985f9" x="359.502766" y="294.415837" style="fill: #ffffff; stroke: #ffffff; stroke-width: 0.8"/>
      </g>
     </g>
     <g id="text_6">
      <text style="fill: #ffffff; font: 10px 'sans-serif'; text-anchor: middle" x="359.502766" y="309.014274" transform="rotate(-0, 359.502766, 309.014274)">4</text>
     </g>
    </g>
   </g>
   <g id="matplotlib.axis_2">
    <g id="ytick_1">
     <g id="line2d_33">
      <defs>
       <path id="mdc8127f265" d="M 0 0 
L -3.5 0 
" style="stroke: #ffffff; stroke-width: 0.8"/>
      </defs>
      <g>
       <use xlink:href="#mdc8127f265" x="57.6" y="286.311531" style="fill: #ffffff; stroke: #ffffff; stroke-width: 0.8"/>
      </g>
     </g>
     <g id="text_7">
      <text style="fill: #ffffff; font: 10px 'sans-serif'; text-anchor: end" x="50.6" y="290.11075" transform="rotate(-0, 50.6, 290.11075)">−4</text>
     </g>
    </g>
    <g id="ytick_2">
     <g id="line2d_34">
      <g>
       <use xlink:href="#mdc8127f265" x="57.6" y="258.365648" style="fill: #ffffff; stroke: #ffffff; stroke-width: 0.8"/>
      </g>
     </g>
     <g id="text_8">
      <text style="fill: #ffffff; font: 10px 'sans-serif'; text-anchor: end" x="50.6" y="262.164867" transform="rotate(-0, 50.6, 262.164867)">−3</text>
     </g>
    </g>
    <g id="ytick_3">
     <g id="line2d_35">
      <g>
       <use xlink:href="#mdc8127f265" x="57.6" y="230.419765" style="fill: #ffffff; stroke: #ffffff; stroke-width: 0.8"/>
      </g>
     </g>
     <g id="text_9">
      <text style="fill: #ffffff; font: 10px 'sans-serif'; text-anchor: end" x="50.6" y="234.218984" transform="rotate(-0, 50.6, 234.218984)">−2</text>
     </g>
    </g>
    <g id="ytick_4">
     <g id="line2d_36">
      <g>
       <use xlink:href="#mdc8127f265" x="57.6" y="202.473883" style="fill: #ffffff; stroke: #ffffff; stroke-width: 0.8"/>
      </g>
     </g>
     <g id="text_10">
      <text style="fill: #ffffff; font: 10px 'sans-serif'; text-anchor: end" x="50.6" y="206.273101" transform="rotate(-0, 50.6, 206.273101)">−1</text>
     </g>
    </g>
    <g id="ytick_5">
     <g id="line2d_37">
      <g>
       <use xlink:href="#mdc8127f265" x="57.6" y="174.528" style="fill: #ffffff; stroke: #ffffff; stroke-width: 0.8"/>
      </g>
     </g>
     <g id="text_11">
      <text style="fill: #ffffff; font: 10px 'sans-serif'; text-anchor: end" x="50.6" y="178.327219" transform="rotate(-0, 50.6, 178.327219)">0</text>
     </g>
    </g>
    <g id="ytick_6">
     <g id="line2d_38">
      <g>
       <use xlink:href="#mdc8127f265" x="57.6" y="146.582117" style="fill: #ffffff; stroke: #ffffff; stroke-width: 0.8"/>
      </g>
     </g>
     <g id="text_12">
      <text style="fill: #ffffff; font: 10px 'sans-serif'; text-anchor: end" x="50.6" y="150.381336" transform="rotate(-0, 50.6, 150.381336)">1</text>
     </g>
    </g>
    <g id="ytick_7">
     <g id="line2d_39">
      <g>
       <use xlink:href="#mdc8127f265" x="57.6" y="118.636235" style="fill: #ffffff; stroke: #ffffff; stroke-width: 0.8"/>
      </g>
     </g>
     <g id="text_13">
      <text style="fill: #ffffff; font: 10px 'sans-serif'; text-anchor: end" x="50.6" y="122.435453" transform="rotate(-0, 50.6, 122.435453)">2</text>
     </g>
    </g>
    <g id="ytick_8">
     <g id="line2d_40">
      <g>
       <use xlink:href="#mdc8127f265" x="57.6" y="90.690352" style="fill: #ffffff; stroke: #ffffff; stroke-width: 0.8"/>
      </g>
     </g>
     <g id="text_14">
      <text style="fill: #ffffff; font: 10px 'sans-serif'; text-anchor: end" x="50.6" y="94.489571" transform="rotate(-0, 50.6, 94.489571)">3</text>
     </g>
    </g>
    <g id="ytick_9">
     <g id="line2d_41">
      <g>
       <use xlink:href="#mdc8127f265" x="57.6" y="62.744469" style="fill: #ffffff; stroke: #ffffff; stroke-width: 0.8"/>
      </g>
     </g>
     <g id="text_15">
      <text style="fill: #ffffff; font: 10px 'sans-serif'; text-anchor: end" x="50.6" y="66.543688" transform="rotate(-0, 50.6, 66.543688)">4</text>
     </g>
    </g>
   </g>
   <g id="patch_21">
    <path d="M 57.6 294.415837 
L 57.6 54.640163 
" style="fill: none; stroke: #ffffff; stroke-width: 0.8; stroke-linejoin: miter; stroke-linecap: square"/>
   </g>
   <g id="patch_22">
    <path d="M 414.72 294.415837 
L 414.72 54.640163 
" style="fill: none; stroke: #ffffff; stroke-width: 0.8; stroke-linejoin: miter; stroke-linecap: square"/>
   </g>
   <g id="patch_23">
    <path d="M 57.6 294.415837 
L 414.72 294.415837 
" style="fill: none; stroke: #ffffff; stroke-width: 0.8; stroke-linejoin: miter; stroke-linecap: square"/>
   </g>
   <g id="patch_24">
    <path d="M 57.6 54.640163 
L 414.72 54.640163 
" style="fill: none; stroke: #ffffff; stroke-width: 0.8; stroke-linejoin: miter; stroke-linecap: square"/>
   </g>
   <g id="text_16">
    <text style="fill: #ffffff; font: 12px 'sans-serif'; text-anchor: middle" x="236.16" y="48.640163" transform="rotate(-0, 236.16, 48.640163)">SO16</text>
   </g>
  </g>
 </g>
 <defs>
  <clipPath id="p9165400bc8">
   <rect x="57.6" y="54.640163" width="357.12" height="239.775674"/>
  </clipPath>
 </defs>
</svg>
