<?xml version="1.0" encoding="utf-8" standalone="no"?>
<!DOCTYPE svg PUBLIC "-//W3C//DTD SVG 1.1//EN"
  "http://www.w3.org/Graphics/SVG/1.1/DTD/svg11.dtd">
<svg xmlns:xlink="http://www.w3.org/1999/xlink" width="460.8pt" height="345.6pt" viewBox="0 0 460.8 345.6" xmlns="http://www.w3.org/2000/svg" version="1.1">
 <metadata>
  <rdf:RDF xmlns:dc="http://purl.org/dc/elements/1.1/" xmlns:cc="http://creativecommons.org/ns#" xmlns:rdf="http://www.w3.org/1999/02/22-rdf-syntax-ns#">
   <cc:Work>
    <dc:type rdf:resource="http://purl.org/dc/dcmitype/StillImage"/>
    <dc:date>2021-12-22T04:54:10.230836</dc:date>
    <dc:format>image/svg+xml</dc:format>
    <dc:creator>
     <cc:Agent>
      <dc:title>Matplotlib v3.5.1, https://matplotlib.org/</dc:title>
     </cc:Agent>
    </dc:creator>
   </cc:Work>
  </rdf:RDF>
 </metadata>
 <defs>
  <style type="text/css">*{stroke-linejoin: round; stroke-linecap: butt}</style>
 </defs>
 <g id="figure_1">
  <g id="patch_1">
   <path d="M 0 345.6 
L 460.8 345.6 
L 460.8 0 
L 0 0 
z
" style="fill: #2b2b2b"/>
  </g>
  <g id="axes_1">
   <g id="patch_2">
    <path d="M 57.6 306.917249 
L 414.72 306.917249 
L 414.72 42.138751 
L 57.6 42.138751 
z
" style="fill: #2b2b2b"/>
   </g>
   <g id="line2d_1">
    <path d="M 384.797021 231.696085 
L 87.522979 231.696085 
" clip-path="url(#pb799266fa4)" style="fill: none; stroke: #ffcd07; stroke-width: 6.113976; stroke-linecap: square"/>
   </g>
   <g id="line2d_2">
    <path d="M 87.522979 231.696085 
L 87.522979 216.651852 
" clip-path="url(#pb799266fa4)" style="fill: none; stroke: #ffcd07; stroke-width: 6.113976; stroke-linecap: square"/>
   </g>
   <g id="line2d_3">
    <path d="M 87.522979 216.651852 
L 87.522979 117.359915 
" clip-path="url(#pb799266fa4)" style="fill: none; stroke: #ffcd07; stroke-width: 6.113976; stroke-linecap: square"/>
   </g>
   <g id="line2d_4">
    <path d="M 87.522979 117.359915 
L 384.797021 117.359915 
" clip-path="url(#pb799266fa4)" style="fill: none; stroke: #ffcd07; stroke-width: 6.113976; stroke-linecap: square"/>
   </g>
   <g id="line2d_5">
    <path d="M 384.797021 216.651852 
L 87.522979 216.651852 
" clip-path="url(#pb799266fa4)" style="fill: none; stroke: #ffcd07; stroke-width: 6.113976; stroke-linecap: square"/>
   </g>
   <g id="line2d_6">
    <path d="M 384.797021 117.359915 
L 384.797021 216.651852 
" clip-path="url(#pb799266fa4)" style="fill: none; stroke: #ffcd07; stroke-width: 6.113976; stroke-linecap: square"/>
   </g>
   <g id="line2d_7">
    <path d="M 384.797021 216.651852 
L 384.797021 231.696085 
" clip-path="url(#pb799266fa4)" style="fill: none; stroke: #ffcd07; stroke-width: 6.113976; stroke-linecap: square"/>
   </g>
   <g id="line2d_8">
    <path d="M 73.832727 57.182984 
L 398.487273 57.182984 
" clip-path="url(#pb799266fa4)" style="fill: none; stroke: #c90d15; stroke-width: 6.011675; stroke-linecap: square"/>
   </g>
   <g id="line2d_9">
    <path d="M 398.487273 291.873016 
L 73.832727 291.873016 
" clip-path="url(#pb799266fa4)" style="fill: none; stroke: #c90d15; stroke-width: 6.011675; stroke-linecap: square"/>
   </g>
   <g id="line2d_10">
    <path d="M 73.832727 291.873016 
L 73.832727 57.182984 
" clip-path="url(#pb799266fa4)" style="fill: none; stroke: #c90d15; stroke-width: 6.011675; stroke-linecap: square"/>
   </g>
   <g id="line2d_11">
    <path d="M 398.487273 57.182984 
L 398.487273 291.873016 
" clip-path="url(#pb799266fa4)" style="fill: none; stroke: #c90d15; stroke-width: 6.011675; stroke-linecap: square"/>
   </g>
   <g id="text_1">
    <text style="fill: #ffffff; font: 1.27px 'sans-serif'; text-anchor: start" x="102.41677" y="193.634176" transform="rotate(-0, 102.41677, 193.634176)">&gt;VALUE</text>
   </g>
   <g id="text_2">
    <text style="fill: #ffffff; font: 1.27px 'sans-serif'; text-anchor: start" x="83.310594" y="231.846527" transform="rotate(-0, 83.310594, 231.846527)">&gt;NAME</text>
   </g>
   <g id="patch_3">
    <path d="M 131.602582 294.881863 
L 149.655661 294.881863 
Q 158.682201 294.881863 158.682201 285.855323 
L 158.682201 219.660699 
Q 158.682201 210.634159 149.655661 210.634159 
L 131.602582 210.634159 
Q 122.576042 210.634159 122.576042 219.660699 
L 122.576042 285.855323 
Q 122.576042 294.881863 131.602582 294.881863 
z
" clip-path="url(#pb799266fa4)" style="fill: #c90d15; stroke: #ffffff; stroke-linejoin: miter"/>
   </g>
   <g id="patch_4">
    <path d="M 208.027285 138.421841 
L 226.080364 138.421841 
Q 235.106904 138.421841 235.106904 129.395301 
L 235.106904 63.200677 
Q 235.106904 54.174137 226.080364 54.174137 
L 208.027285 54.174137 
Q 199.000745 54.174137 199.000745 63.200677 
L 199.000745 129.395301 
Q 199.000745 138.421841 208.027285 138.421841 
z
" clip-path="url(#pb799266fa4)" style="fill: #c90d15; stroke: #ffffff; stroke-linejoin: miter"/>
   </g>
   <g id="patch_5">
    <path d="M 93.39023 294.881863 
L 111.443309 294.881863 
Q 120.469849 294.881863 120.469849 285.855323 
L 120.469849 219.660699 
Q 120.469849 210.634159 111.443309 210.634159 
L 93.39023 210.634159 
Q 84.36369 210.634159 84.36369 219.660699 
L 84.36369 285.855323 
Q 84.36369 294.881863 93.39023 294.881863 
z
" clip-path="url(#pb799266fa4)" style="fill: #c90d15; stroke: #ffffff; stroke-linejoin: miter"/>
   </g>
   <g id="patch_6">
    <path d="M 169.814933 294.881863 
L 187.868012 294.881863 
Q 196.894552 294.881863 196.894552 285.855323 
L 196.894552 219.660699 
Q 196.894552 210.634159 187.868012 210.634159 
L 169.814933 210.634159 
Q 160.788393 210.634159 160.788393 219.660699 
L 160.788393 285.855323 
Q 160.788393 294.881863 169.814933 294.881863 
z
" clip-path="url(#pb799266fa4)" style="fill: #c90d15; stroke: #ffffff; stroke-linejoin: miter"/>
   </g>
   <g id="patch_7">
    <path d="M 208.027285 294.881863 
L 226.080364 294.881863 
Q 235.106904 294.881863 235.106904 285.855323 
L 235.106904 219.660699 
Q 235.106904 210.634159 226.080364 210.634159 
L 208.027285 210.634159 
Q 199.000745 210.634159 199.000745 219.660699 
L 199.000745 285.855323 
Q 199.000745 294.881863 208.027285 294.881863 
z
" clip-path="url(#pb799266fa4)" style="fill: #c90d15; stroke: #ffffff; stroke-linejoin: miter"/>
   </g>
   <g id="patch_8">
    <path d="M 169.814933 138.421841 
L 187.868012 138.421841 
Q 196.894552 138.421841 196.894552 129.395301 
L 196.894552 63.200677 
Q 196.894552 54.174137 187.868012 54.174137 
L 169.814933 54.174137 
Q 160.788393 54.174137 160.788393 63.200677 
L 160.788393 129.395301 
Q 160.788393 138.421841 169.814933 138.421841 
z
" clip-path="url(#pb799266fa4)" style="fill: #c90d15; stroke: #ffffff; stroke-linejoin: miter"/>
   </g>
   <g id="patch_9">
    <path d="M 246.239636 138.421841 
L 264.292715 138.421841 
Q 273.319255 138.421841 273.319255 129.395301 
L 273.319255 63.200677 
Q 273.319255 54.174137 264.292715 54.174137 
L 246.239636 54.174137 
Q 237.213096 54.174137 237.213096 63.200677 
L 237.213096 129.395301 
Q 237.213096 138.421841 246.239636 138.421841 
z
" clip-path="url(#pb799266fa4)" style="fill: #c90d15; stroke: #ffffff; stroke-linejoin: miter"/>
   </g>
   <g id="patch_10">
    <path d="M 284.451988 138.421841 
L 302.505067 138.421841 
Q 311.531607 138.421841 311.531607 129.395301 
L 311.531607 63.200677 
Q 311.531607 54.174137 302.505067 54.174137 
L 284.451988 54.174137 
Q 275.425448 54.174137 275.425448 63.200677 
L 275.425448 129.395301 
Q 275.425448 138.421841 284.451988 138.421841 
z
" clip-path="url(#pb799266fa4)" style="fill: #c90d15; stroke: #ffffff; stroke-linejoin: miter"/>
   </g>
   <g id="patch_11">
    <path d="M 284.451988 294.881863 
L 302.505067 294.881863 
Q 311.531607 294.881863 311.531607 285.855323 
L 311.531607 219.660699 
Q 311.531607 210.634159 302.505067 210.634159 
L 284.451988 210.634159 
Q 275.425448 210.634159 275.425448 219.660699 
L 275.425448 285.855323 
Q 275.425448 294.881863 284.451988 294.881863 
z
" clip-path="url(#pb799266fa4)" style="fill: #c90d15; stroke: #ffffff; stroke-linejoin: miter"/>
   </g>
   <g id="patch_12">
    <path d="M 360.876691 138.421841 
L 378.92977 138.421841 
Q 387.95631 138.421841 387.95631 129.395301 
L 387.95631 63.200677 
Q 387.95631 54.174137 378.92977 54.174137 
L 360.876691 54.174137 
Q 351.850151 54.174137 351.850151 63.200677 
L 351.850151 129.395301 
Q 351.850151 138.421841 360.876691 138.421841 
z
" clip-path="url(#pb799266fa4)" style="fill: #c90d15; stroke: #ffffff; stroke-linejoin: miter"/>
   </g>
   <g id="patch_13">
    <path d="M 246.239636 294.881863 
L 264.292715 294.881863 
Q 273.319255 294.881863 273.319255 285.855323 
L 273.319255 219.660699 
Q 273.319255 210.634159 264.292715 210.634159 
L 246.239636 210.634159 
Q 237.213096 210.634159 237.213096 219.660699 
L 237.213096 285.855323 
Q 237.213096 294.881863 246.239636 294.881863 
z
" clip-path="url(#pb799266fa4)" style="fill: #c90d15; stroke: #ffffff; stroke-linejoin: miter"/>
   </g>
   <g id="patch_14">
    <path d="M 322.664339 294.881863 
L 340.717418 294.881863 
Q 349.743958 294.881863 349.743958 285.855323 
L 349.743958 219.660699 
Q 349.743958 210.634159 340.717418 210.634159 
L 322.664339 210.634159 
Q 313.637799 210.634159 313.637799 219.660699 
L 313.637799 285.855323 
Q 313.637799 294.881863 322.664339 294.881863 
z
" clip-path="url(#pb799266fa4)" style="fill: #c90d15; stroke: #ffffff; stroke-linejoin: miter"/>
   </g>
   <g id="patch_15">
    <path d="M 322.664339 138.421841 
L 340.717418 138.421841 
Q 349.743958 138.421841 349.743958 129.395301 
L 349.743958 63.200677 
Q 349.743958 54.174137 340.717418 54.174137 
L 322.664339 54.174137 
Q 313.637799 54.174137 313.637799 63.200677 
L 313.637799 129.395301 
Q 313.637799 138.421841 322.664339 138.421841 
z
" clip-path="url(#pb799266fa4)" style="fill: #c90d15; stroke: #ffffff; stroke-linejoin: miter"/>
   </g>
   <g id="patch_16">
    <path d="M 360.876691 294.881863 
L 378.92977 294.881863 
Q 387.95631 294.881863 387.95631 285.855323 
L 387.95631 219.660699 
Q 387.95631 210.634159 378.92977 210.634159 
L 360.876691 210.634159 
Q 351.850151 210.634159 351.850151 219.660699 
L 351.850151 285.855323 
Q 351.850151 294.881863 360.876691 294.881863 
z
" clip-path="url(#pb799266fa4)" style="fill: #c90d15; stroke: #ffffff; stroke-linejoin: miter"/>
   </g>
   <g id="patch_17">
    <path d="M 131.602582 138.421841 
L 149.655661 138.421841 
Q 158.682201 138.421841 158.682201 129.395301 
L 158.682201 63.200677 
Q 158.682201 54.174137 149.655661 54.174137 
L 131.602582 54.174137 
Q 122.576042 54.174137 122.576042 63.200677 
L 122.576042 129.395301 
Q 122.576042 138.421841 131.602582 138.421841 
z
" clip-path="url(#pb799266fa4)" style="fill: #c90d15; stroke: #ffffff; stroke-linejoin: miter"/>
   </g>
   <g id="patch_18">
    <path d="M 93.39023 138.421841 
L 111.443309 138.421841 
Q 120.469849 138.421841 120.469849 129.395301 
L 120.469849 63.200677 
Q 120.469849 54.174137 111.443309 54.174137 
L 93.39023 54.174137 
Q 84.36369 54.174137 84.36369 63.200677 
L 84.36369 129.395301 
Q 84.36369 138.421841 93.39023 138.421841 
z
" clip-path="url(#pb799266fa4)" style="fill: #c90d15; stroke: #ffffff; stroke-linejoin: miter"/>
   </g>
   <g id="matplotlib.axis_1">
    <g id="xtick_1">
     <g id="line2d_12">
      <defs>
       <path id="mc3257327f1" d="M 0 0 
L 0 3.5 
" style="stroke: #ffffff; stroke-width: 0.8"/>
      </defs>
      <g>
       <use xlink:href="#mc3257327f1" x="115.806137" y="306.917249" style="fill: #ffffff; stroke: #ffffff; stroke-width: 0.8"/>
      </g>
     </g>
     <g id="text_3">
      <text style="fill: #ffffff; font: 10px 'sans-serif'; text-anchor: middle" x="115.806137" y="321.515687" transform="rotate(-0, 115.806137, 321.515687)">−4</text>
     </g>
    </g>
    <g id="xtick_2">
     <g id="line2d_13">
      <g>
       <use xlink:href="#mc3257327f1" x="175.983068" y="306.917249" style="fill: #ffffff; stroke: #ffffff; stroke-width: 0.8"/>
      </g>
     </g>
     <g id="text_4">
      <text style="fill: #ffffff; font: 10px 'sans-serif'; text-anchor: middle" x="175.983068" y="321.515687" transform="rotate(-0, 175.983068, 321.515687)">−2</text>
     </g>
    </g>
    <g id="xtick_3">
     <g id="line2d_14">
      <g>
       <use xlink:href="#mc3257327f1" x="236.16" y="306.917249" style="fill: #ffffff; stroke: #ffffff; stroke-width: 0.8"/>
      </g>
     </g>
     <g id="text_5">
      <text style="fill: #ffffff; font: 10px 'sans-serif'; text-anchor: middle" x="236.16" y="321.515687" transform="rotate(-0, 236.16, 321.515687)">0</text>
     </g>
    </g>
    <g id="xtick_4">
     <g id="line2d_15">
      <g>
       <use xlink:href="#mc3257327f1" x="296.336932" y="306.917249" style="fill: #ffffff; stroke: #ffffff; stroke-width: 0.8"/>
      </g>
     </g>
     <g id="text_6">
      <text style="fill: #ffffff; font: 10px 'sans-serif'; text-anchor: middle" x="296.336932" y="321.515687" transform="rotate(-0, 296.336932, 321.515687)">2</text>
     </g>
    </g>
    <g id="xtick_5">
     <g id="line2d_16">
      <g>
       <use xlink:href="#mc3257327f1" x="356.513863" y="306.917249" style="fill: #ffffff; stroke: #ffffff; stroke-width: 0.8"/>
      </g>
     </g>
     <g id="text_7">
      <text style="fill: #ffffff; font: 10px 'sans-serif'; text-anchor: middle" x="356.513863" y="321.515687" transform="rotate(-0, 356.513863, 321.515687)">4</text>
     </g>
    </g>
   </g>
   <g id="matplotlib.axis_2">
    <g id="ytick_1">
     <g id="line2d_17">
      <defs>
       <path id="me819d494af" d="M 0 0 
L -3.5 0 
" style="stroke: #ffffff; stroke-width: 0.8"/>
      </defs>
      <g>
       <use xlink:href="#me819d494af" x="57.6" y="294.881863" style="fill: #ffffff; stroke: #ffffff; stroke-width: 0.8"/>
      </g>
     </g>
     <g id="text_8">
      <text style="fill: #ffffff; font: 10px 'sans-serif'; text-anchor: end" x="50.6" y="298.681082" transform="rotate(-0, 50.6, 298.681082)">−4</text>
     </g>
    </g>
    <g id="ytick_2">
     <g id="line2d_18">
      <g>
       <use xlink:href="#me819d494af" x="57.6" y="264.793397" style="fill: #ffffff; stroke: #ffffff; stroke-width: 0.8"/>
      </g>
     </g>
     <g id="text_9">
      <text style="fill: #ffffff; font: 10px 'sans-serif'; text-anchor: end" x="50.6" y="268.592616" transform="rotate(-0, 50.6, 268.592616)">−3</text>
     </g>
    </g>
    <g id="ytick_3">
     <g id="line2d_19">
      <g>
       <use xlink:href="#me819d494af" x="57.6" y="234.704932" style="fill: #ffffff; stroke: #ffffff; stroke-width: 0.8"/>
      </g>
     </g>
     <g id="text_10">
      <text style="fill: #ffffff; font: 10px 'sans-serif'; text-anchor: end" x="50.6" y="238.50415" transform="rotate(-0, 50.6, 238.50415)">−2</text>
     </g>
    </g>
    <g id="ytick_4">
     <g id="line2d_20">
      <g>
       <use xlink:href="#me819d494af" x="57.6" y="204.616466" style="fill: #ffffff; stroke: #ffffff; stroke-width: 0.8"/>
      </g>
     </g>
     <g id="text_11">
      <text style="fill: #ffffff; font: 10px 'sans-serif'; text-anchor: end" x="50.6" y="208.415685" transform="rotate(-0, 50.6, 208.415685)">−1</text>
     </g>
    </g>
    <g id="ytick_5">
     <g id="line2d_21">
      <g>
       <use xlink:href="#me819d494af" x="57.6" y="174.528" style="fill: #ffffff; stroke: #ffffff; stroke-width: 0.8"/>
      </g>
     </g>
     <g id="text_12">
      <text style="fill: #ffffff; font: 10px 'sans-serif'; text-anchor: end" x="50.6" y="178.327219" transform="rotate(-0, 50.6, 178.327219)">0</text>
     </g>
    </g>
    <g id="ytick_6">
     <g id="line2d_22">
      <g>
       <use xlink:href="#me819d494af" x="57.6" y="144.439534" style="fill: #ffffff; stroke: #ffffff; stroke-width: 0.8"/>
      </g>
     </g>
     <g id="text_13">
      <text style="fill: #ffffff; font: 10px 'sans-serif'; text-anchor: end" x="50.6" y="148.238753" transform="rotate(-0, 50.6, 148.238753)">1</text>
     </g>
    </g>
    <g id="ytick_7">
     <g id="line2d_23">
      <g>
       <use xlink:href="#me819d494af" x="57.6" y="114.351068" style="fill: #ffffff; stroke: #ffffff; stroke-width: 0.8"/>
      </g>
     </g>
     <g id="text_14">
      <text style="fill: #ffffff; font: 10px 'sans-serif'; text-anchor: end" x="50.6" y="118.150287" transform="rotate(-0, 50.6, 118.150287)">2</text>
     </g>
    </g>
    <g id="ytick_8">
     <g id="line2d_24">
      <g>
       <use xlink:href="#me819d494af" x="57.6" y="84.262603" style="fill: #ffffff; stroke: #ffffff; stroke-width: 0.8"/>
      </g>
     </g>
     <g id="text_15">
      <text style="fill: #ffffff; font: 10px 'sans-serif'; text-anchor: end" x="50.6" y="88.061821" transform="rotate(-0, 50.6, 88.061821)">3</text>
     </g>
    </g>
    <g id="ytick_9">
     <g id="line2d_25">
      <g>
       <use xlink:href="#me819d494af" x="57.6" y="54.174137" style="fill: #ffffff; stroke: #ffffff; stroke-width: 0.8"/>
      </g>
     </g>
     <g id="text_16">
      <text style="fill: #ffffff; font: 10px 'sans-serif'; text-anchor: end" x="50.6" y="57.973356" transform="rotate(-0, 50.6, 57.973356)">4</text>
     </g>
    </g>
   </g>
   <g id="patch_19">
    <path d="M 57.6 306.917249 
L 57.6 42.138751 
" style="fill: none; stroke: #ffffff; stroke-width: 0.8; stroke-linejoin: miter; stroke-linecap: square"/>
   </g>
   <g id="patch_20">
    <path d="M 414.72 306.917249 
L 414.72 42.138751 
" style="fill: none; stroke: #ffffff; stroke-width: 0.8; stroke-linejoin: miter; stroke-linecap: square"/>
   </g>
   <g id="patch_21">
    <path d="M 57.6 306.917249 
L 414.72 306.917249 
" style="fill: none; stroke: #ffffff; stroke-width: 0.8; stroke-linejoin: miter; stroke-linecap: square"/>
   </g>
   <g id="patch_22">
    <path d="M 57.6 42.138751 
L 414.72 42.138751 
" style="fill: none; stroke: #ffffff; stroke-width: 0.8; stroke-linejoin: miter; stroke-linecap: square"/>
   </g>
   <g id="text_17">
    <text style="fill: #ffffff; font: 12px 'sans-serif'; text-anchor: middle" x="236.16" y="36.138751" transform="rotate(-0, 236.16, 36.138751)">SO16</text>
   </g>
  </g>
 </g>
 <defs>
  <clipPath id="pb799266fa4">
   <rect x="57.6" y="42.138751" width="357.12" height="264.778499"/>
  </clipPath>
 </defs>
</svg>
