<?xml version="1.0" encoding="utf-8" standalone="no"?>
<!DOCTYPE svg PUBLIC "-//W3C//DTD SVG 1.1//EN"
  "http://www.w3.org/Graphics/SVG/1.1/DTD/svg11.dtd">
<svg xmlns:xlink="http://www.w3.org/1999/xlink" width="460.8pt" height="345.6pt" viewBox="0 0 460.8 345.6" xmlns="http://www.w3.org/2000/svg" version="1.1">
 <metadata>
  <rdf:RDF xmlns:dc="http://purl.org/dc/elements/1.1/" xmlns:cc="http://creativecommons.org/ns#" xmlns:rdf="http://www.w3.org/1999/02/22-rdf-syntax-ns#">
   <cc:Work>
    <dc:type rdf:resource="http://purl.org/dc/dcmitype/StillImage"/>
    <dc:date>2023-02-18T16:06:00.802214</dc:date>
    <dc:format>image/svg+xml</dc:format>
    <dc:creator>
     <cc:Agent>
      <dc:title>Matplotlib v3.5.1, https://matplotlib.org/</dc:title>
     </cc:Agent>
    </dc:creator>
   </cc:Work>
  </rdf:RDF>
 </metadata>
 <defs>
  <style type="text/css">*{stroke-linejoin: round; stroke-linecap: butt}</style>
 </defs>
 <g id="figure_1">
  <g id="patch_1">
   <path d="M 0 345.6 
L 460.8 345.6 
L 460.8 0 
L 0 0 
z
" style="fill: #2b2b2b"/>
  </g>
  <g id="axes_1">
   <g id="patch_2">
    <path d="M 148.263449 307.584 
L 324.056551 307.584 
L 324.056551 41.472 
L 148.263449 41.472 
z
" style="fill: #2b2b2b"/>
   </g>
   <g id="patch_3">
    <path d="M 210.615261 71.421633 
C 212.146375 71.421633 213.614984 70.813315 214.697645 69.730654 
C 215.780306 68.647993 216.388624 67.179384 216.388624 65.64827 
C 216.388624 64.117157 215.780306 62.648547 214.697645 61.565887 
C 213.614984 60.483226 212.146375 59.874908 210.615261 59.874908 
C 209.084148 59.874908 207.615538 60.483226 206.532878 61.565887 
C 205.450217 62.648547 204.841899 64.117157 204.841899 65.64827 
C 204.841899 67.179384 205.450217 68.647993 206.532878 69.730654 
C 207.615538 70.813315 209.084148 71.421633 210.615261 71.421633 
L 210.615261 71.421633 
z
" clip-path="url(#pd9e2f42fd8)" style="fill: none; stroke: #808080; stroke-width: 3.196238; stroke-linejoin: miter"/>
   </g>
   <g id="line2d_1">
    <path d="M 197.024957 53.568 
L 197.024957 144.421701 
" clip-path="url(#pd9e2f42fd8)" style="fill: none; stroke: #808080; stroke-width: 3.196238; stroke-linecap: round"/>
   </g>
   <g id="line2d_2">
    <path d="M 197.024957 144.421701 
L 290.521217 144.421701 
" clip-path="url(#pd9e2f42fd8)" style="fill: none; stroke: #808080; stroke-width: 3.196238; stroke-linecap: round"/>
   </g>
   <g id="line2d_3">
    <path d="M 290.521217 144.421701 
L 290.521217 53.568 
" clip-path="url(#pd9e2f42fd8)" style="fill: none; stroke: #808080; stroke-width: 3.196238; stroke-linecap: round"/>
   </g>
   <g id="line2d_4">
    <path d="M 290.521217 53.568 
L 197.024957 53.568 
" clip-path="url(#pd9e2f42fd8)" style="fill: none; stroke: #808080; stroke-width: 3.196238; stroke-linecap: round"/>
   </g>
   <g id="patch_4">
    <path d="M 156.254044 71.751324 
L 188.216427 71.751324 
L 188.216427 55.770133 
L 156.254044 55.770133 
z
" clip-path="url(#pd9e2f42fd8)" style="fill: #c90d15"/>
   </g>
   <g id="patch_5">
    <path d="M 156.254044 103.713706 
L 188.216427 103.713706 
L 188.216427 87.732515 
L 156.254044 87.732515 
z
" clip-path="url(#pd9e2f42fd8)" style="fill: #c90d15"/>
   </g>
   <g id="patch_6">
    <path d="M 156.254044 135.676088 
L 188.216427 135.676088 
L 188.216427 119.694897 
L 156.254044 119.694897 
z
" clip-path="url(#pd9e2f42fd8)" style="fill: #c90d15"/>
   </g>
   <g id="patch_7">
    <path d="M 156.254044 167.638471 
L 188.216427 167.638471 
L 188.216427 151.65728 
L 156.254044 151.65728 
z
" clip-path="url(#pd9e2f42fd8)" style="fill: #c90d15"/>
   </g>
   <g id="patch_8">
    <path d="M 156.254044 199.600853 
L 188.216427 199.600853 
L 188.216427 183.619662 
L 156.254044 183.619662 
z
" clip-path="url(#pd9e2f42fd8)" style="fill: #c90d15"/>
   </g>
   <g id="patch_9">
    <path d="M 156.254044 231.563235 
L 188.216427 231.563235 
L 188.216427 215.582044 
L 156.254044 215.582044 
z
" clip-path="url(#pd9e2f42fd8)" style="fill: #c90d15"/>
   </g>
   <g id="patch_10">
    <path d="M 156.254044 263.525618 
L 188.216427 263.525618 
L 188.216427 247.544427 
L 156.254044 247.544427 
z
" clip-path="url(#pd9e2f42fd8)" style="fill: #c90d15"/>
   </g>
   <g id="patch_11">
    <path d="M 156.254044 295.488 
L 188.216427 295.488 
L 188.216427 279.506809 
L 156.254044 279.506809 
z
" clip-path="url(#pd9e2f42fd8)" style="fill: #c90d15"/>
   </g>
   <g id="patch_12">
    <path d="M 284.103573 295.488 
L 316.065956 295.488 
L 316.065956 279.506809 
L 284.103573 279.506809 
z
" clip-path="url(#pd9e2f42fd8)" style="fill: #c90d15"/>
   </g>
   <g id="matplotlib.axis_1">
    <g id="xtick_1">
     <g id="line2d_5">
      <defs>
       <path id="m3536d55576" d="M 0 0 
L 0 3.5 
" style="stroke: #ffffff; stroke-width: 0.8"/>
      </defs>
      <g>
       <use xlink:href="#m3536d55576" x="172.235235" y="307.584" style="fill: #ffffff; stroke: #ffffff; stroke-width: 0.8"/>
      </g>
     </g>
     <g id="text_1">
      <text style="fill: #ffffff; font: 10px 'sans-serif'; text-anchor: middle" x="172.235235" y="322.182437" transform="rotate(-0, 172.235235, 322.182437)">0</text>
     </g>
    </g>
    <g id="xtick_2">
     <g id="line2d_6">
      <g>
       <use xlink:href="#m3536d55576" x="222.569696" y="307.584" style="fill: #ffffff; stroke: #ffffff; stroke-width: 0.8"/>
      </g>
     </g>
     <g id="text_2">
      <text style="fill: #ffffff; font: 10px 'sans-serif'; text-anchor: middle" x="222.569696" y="322.182437" transform="rotate(-0, 222.569696, 322.182437)">2</text>
     </g>
    </g>
    <g id="xtick_3">
     <g id="line2d_7">
      <g>
       <use xlink:href="#m3536d55576" x="272.904156" y="307.584" style="fill: #ffffff; stroke: #ffffff; stroke-width: 0.8"/>
      </g>
     </g>
     <g id="text_3">
      <text style="fill: #ffffff; font: 10px 'sans-serif'; text-anchor: middle" x="272.904156" y="322.182437" transform="rotate(-0, 272.904156, 322.182437)">4</text>
     </g>
    </g>
    <g id="xtick_4">
     <g id="line2d_8">
      <g>
       <use xlink:href="#m3536d55576" x="323.238616" y="307.584" style="fill: #ffffff; stroke: #ffffff; stroke-width: 0.8"/>
      </g>
     </g>
     <g id="text_4">
      <text style="fill: #ffffff; font: 10px 'sans-serif'; text-anchor: middle" x="323.238616" y="322.182437" transform="rotate(-0, 323.238616, 322.182437)">6</text>
     </g>
    </g>
   </g>
   <g id="matplotlib.axis_2">
    <g id="ytick_1">
     <g id="line2d_9">
      <defs>
       <path id="m2426f9be5a" d="M 0 0 
L -3.5 0 
" style="stroke: #ffffff; stroke-width: 0.8"/>
      </defs>
      <g>
       <use xlink:href="#m2426f9be5a" x="148.263449" y="265.09857" style="fill: #ffffff; stroke: #ffffff; stroke-width: 0.8"/>
      </g>
     </g>
     <g id="text_5">
      <text style="fill: #ffffff; font: 10px 'sans-serif'; text-anchor: end" x="141.263449" y="268.897788" transform="rotate(-0, 141.263449, 268.897788)">−8</text>
     </g>
    </g>
    <g id="ytick_2">
     <g id="line2d_10">
      <g>
       <use xlink:href="#m2426f9be5a" x="148.263449" y="214.764109" style="fill: #ffffff; stroke: #ffffff; stroke-width: 0.8"/>
      </g>
     </g>
     <g id="text_6">
      <text style="fill: #ffffff; font: 10px 'sans-serif'; text-anchor: end" x="141.263449" y="218.563328" transform="rotate(-0, 141.263449, 218.563328)">−6</text>
     </g>
    </g>
    <g id="ytick_3">
     <g id="line2d_11">
      <g>
       <use xlink:href="#m2426f9be5a" x="148.263449" y="164.429649" style="fill: #ffffff; stroke: #ffffff; stroke-width: 0.8"/>
      </g>
     </g>
     <g id="text_7">
      <text style="fill: #ffffff; font: 10px 'sans-serif'; text-anchor: end" x="141.263449" y="168.228868" transform="rotate(-0, 141.263449, 168.228868)">−4</text>
     </g>
    </g>
    <g id="ytick_4">
     <g id="line2d_12">
      <g>
       <use xlink:href="#m2426f9be5a" x="148.263449" y="114.095189" style="fill: #ffffff; stroke: #ffffff; stroke-width: 0.8"/>
      </g>
     </g>
     <g id="text_8">
      <text style="fill: #ffffff; font: 10px 'sans-serif'; text-anchor: end" x="141.263449" y="117.894407" transform="rotate(-0, 141.263449, 117.894407)">−2</text>
     </g>
    </g>
    <g id="ytick_5">
     <g id="line2d_13">
      <g>
       <use xlink:href="#m2426f9be5a" x="148.263449" y="63.760728" style="fill: #ffffff; stroke: #ffffff; stroke-width: 0.8"/>
      </g>
     </g>
     <g id="text_9">
      <text style="fill: #ffffff; font: 10px 'sans-serif'; text-anchor: end" x="141.263449" y="67.559947" transform="rotate(-0, 141.263449, 67.559947)">0</text>
     </g>
    </g>
   </g>
   <g id="patch_13">
    <path d="M 148.263449 307.584 
L 148.263449 41.472 
" style="fill: none; stroke: #ffffff; stroke-width: 0.8; stroke-linejoin: miter; stroke-linecap: square"/>
   </g>
   <g id="patch_14">
    <path d="M 324.056551 307.584 
L 324.056551 41.472 
" style="fill: none; stroke: #ffffff; stroke-width: 0.8; stroke-linejoin: miter; stroke-linecap: square"/>
   </g>
   <g id="patch_15">
    <path d="M 148.263449 307.584 
L 324.056551 307.584 
" style="fill: none; stroke: #ffffff; stroke-width: 0.8; stroke-linejoin: miter; stroke-linecap: square"/>
   </g>
   <g id="patch_16">
    <path d="M 148.263449 41.472 
L 324.056551 41.472 
" style="fill: none; stroke: #ffffff; stroke-width: 0.8; stroke-linejoin: miter; stroke-linecap: square"/>
   </g>
   <g id="text_10">
    <text style="fill: #ffffff; font: 12px 'sans-serif'; text-anchor: middle" x="236.16" y="35.472" transform="rotate(-0, 236.16, 35.472)">SOP-16</text>
   </g>
  </g>
 </g>
 <defs>
  <clipPath id="pd9e2f42fd8">
   <rect x="148.263449" y="41.472" width="175.793103" height="266.112"/>
  </clipPath>
 </defs>
</svg>
