<?xml version="1.0" encoding="utf-8" standalone="no"?>
<!DOCTYPE svg PUBLIC "-//W3C//DTD SVG 1.1//EN"
  "http://www.w3.org/Graphics/SVG/1.1/DTD/svg11.dtd">
<svg xmlns:xlink="http://www.w3.org/1999/xlink" width="460.8pt" height="345.6pt" viewBox="0 0 460.8 345.6" xmlns="http://www.w3.org/2000/svg" version="1.1">
 <metadata>
  <rdf:RDF xmlns:dc="http://purl.org/dc/elements/1.1/" xmlns:cc="http://creativecommons.org/ns#" xmlns:rdf="http://www.w3.org/1999/02/22-rdf-syntax-ns#">
   <cc:Work>
    <dc:type rdf:resource="http://purl.org/dc/dcmitype/StillImage"/>
    <dc:date>2023-02-18T16:06:00.672632</dc:date>
    <dc:format>image/svg+xml</dc:format>
    <dc:creator>
     <cc:Agent>
      <dc:title>Matplotlib v3.5.1, https://matplotlib.org/</dc:title>
     </cc:Agent>
    </dc:creator>
   </cc:Work>
  </rdf:RDF>
 </metadata>
 <defs>
  <style type="text/css">*{stroke-linejoin: round; stroke-linecap: butt}</style>
 </defs>
 <g id="figure_1">
  <g id="patch_1">
   <path d="M 0 345.6 
L 460.8 345.6 
L 460.8 0 
L 0 0 
z
" style="fill: #2b2b2b"/>
  </g>
  <g id="axes_1">
   <g id="patch_2">
    <path d="M 57.6 265.163771 
L 414.72 265.163771 
L 414.72 83.892229 
L 57.6 83.892229 
z
" style="fill: #2b2b2b"/>
   </g>
   <g id="patch_3">
    <path d="M 175.332922 124.515132 
C 178.110087 124.515132 180.773881 123.411752 182.737633 121.448 
C 184.701386 119.484247 185.804765 116.820453 185.804765 114.043288 
C 185.804765 111.266122 184.701386 108.602329 182.737633 106.638576 
C 180.773881 104.674824 178.110087 103.571444 175.332922 103.571444 
C 172.555756 103.571444 169.891962 104.674824 167.92821 106.638576 
C 165.964457 108.602329 164.861078 111.266122 164.861078 114.043288 
C 164.861078 116.820453 165.964457 119.484247 167.92821 121.448 
C 169.891962 123.411752 172.555756 124.515132 175.332922 124.515132 
L 175.332922 124.515132 
z
" clip-path="url(#p248b0770a3)" style="fill: none; stroke: #808080; stroke-width: 5.797403; stroke-linejoin: miter"/>
   </g>
   <g id="line2d_1">
    <path d="M 150.682548 92.131845 
L 150.682548 256.924155 
" clip-path="url(#p248b0770a3)" style="fill: none; stroke: #808080; stroke-width: 5.797403; stroke-linecap: round"/>
   </g>
   <g id="line2d_2">
    <path d="M 150.682548 256.924155 
L 320.267987 256.924155 
" clip-path="url(#p248b0770a3)" style="fill: none; stroke: #808080; stroke-width: 5.797403; stroke-linecap: round"/>
   </g>
   <g id="line2d_3">
    <path d="M 320.267987 256.924155 
L 320.267987 92.131845 
" clip-path="url(#p248b0770a3)" style="fill: none; stroke: #808080; stroke-width: 5.797403; stroke-linecap: round"/>
   </g>
   <g id="line2d_4">
    <path d="M 320.267987 92.131845 
L 150.682548 92.131845 
" clip-path="url(#p248b0770a3)" style="fill: none; stroke: #808080; stroke-width: 5.797403; stroke-linecap: round"/>
   </g>
   <g id="patch_4">
    <path d="M 73.832727 115.869241 
L 137.604156 115.869241 
L 137.604156 105.370008 
L 73.832727 105.370008 
z
" clip-path="url(#p248b0770a3)" style="fill: #c90d15"/>
   </g>
   <g id="patch_5">
    <path d="M 73.832727 134.128777 
L 137.604156 134.128777 
L 137.604156 123.629544 
L 73.832727 123.629544 
z
" clip-path="url(#p248b0770a3)" style="fill: #c90d15"/>
   </g>
   <g id="patch_6">
    <path d="M 73.832727 152.388313 
L 137.604156 152.388313 
L 137.604156 141.88908 
L 73.832727 141.88908 
z
" clip-path="url(#p248b0770a3)" style="fill: #c90d15"/>
   </g>
   <g id="patch_7">
    <path d="M 73.832727 170.647849 
L 137.604156 170.647849 
L 137.604156 160.148616 
L 73.832727 160.148616 
z
" clip-path="url(#p248b0770a3)" style="fill: #c90d15"/>
   </g>
   <g id="patch_8">
    <path d="M 73.832727 188.907384 
L 137.604156 188.907384 
L 137.604156 178.408151 
L 73.832727 178.408151 
z
" clip-path="url(#p248b0770a3)" style="fill: #c90d15"/>
   </g>
   <g id="patch_9">
    <path d="M 73.832727 207.16692 
L 137.604156 207.16692 
L 137.604156 196.667687 
L 73.832727 196.667687 
z
" clip-path="url(#p248b0770a3)" style="fill: #c90d15"/>
   </g>
   <g id="patch_10">
    <path d="M 73.832727 225.426456 
L 137.604156 225.426456 
L 137.604156 214.927223 
L 73.832727 214.927223 
z
" clip-path="url(#p248b0770a3)" style="fill: #c90d15"/>
   </g>
   <g id="patch_11">
    <path d="M 73.832727 243.685992 
L 137.604156 243.685992 
L 137.604156 233.186759 
L 73.832727 233.186759 
z
" clip-path="url(#p248b0770a3)" style="fill: #c90d15"/>
   </g>
   <g id="patch_12">
    <path d="M 334.715844 243.685992 
L 398.487273 243.685992 
L 398.487273 233.186759 
L 334.715844 233.186759 
z
" clip-path="url(#p248b0770a3)" style="fill: #c90d15"/>
   </g>
   <g id="patch_13">
    <path d="M 334.715844 225.426456 
L 398.487273 225.426456 
L 398.487273 214.927223 
L 334.715844 214.927223 
z
" clip-path="url(#p248b0770a3)" style="fill: #c90d15"/>
   </g>
   <g id="patch_14">
    <path d="M 334.715844 207.16692 
L 398.487273 207.16692 
L 398.487273 196.667687 
L 334.715844 196.667687 
z
" clip-path="url(#p248b0770a3)" style="fill: #c90d15"/>
   </g>
   <g id="patch_15">
    <path d="M 334.715844 188.907384 
L 398.487273 188.907384 
L 398.487273 178.408151 
L 334.715844 178.408151 
z
" clip-path="url(#p248b0770a3)" style="fill: #c90d15"/>
   </g>
   <g id="patch_16">
    <path d="M 334.715844 170.647849 
L 398.487273 170.647849 
L 398.487273 160.148616 
L 334.715844 160.148616 
z
" clip-path="url(#p248b0770a3)" style="fill: #c90d15"/>
   </g>
   <g id="patch_17">
    <path d="M 334.715844 152.388313 
L 398.487273 152.388313 
L 398.487273 141.88908 
L 334.715844 141.88908 
z
" clip-path="url(#p248b0770a3)" style="fill: #c90d15"/>
   </g>
   <g id="patch_18">
    <path d="M 334.715844 134.128777 
L 398.487273 134.128777 
L 398.487273 123.629544 
L 334.715844 123.629544 
z
" clip-path="url(#p248b0770a3)" style="fill: #c90d15"/>
   </g>
   <g id="patch_19">
    <path d="M 334.715844 115.869241 
L 398.487273 115.869241 
L 398.487273 105.370008 
L 334.715844 105.370008 
z
" clip-path="url(#p248b0770a3)" style="fill: #c90d15"/>
   </g>
   <g id="matplotlib.axis_1">
    <g id="xtick_1">
     <g id="line2d_5">
      <defs>
       <path id="m78e6a29e0f" d="M 0 0 
L 0 3.5 
" style="stroke: #ffffff; stroke-width: 0.8"/>
      </defs>
      <g>
       <use xlink:href="#m78e6a29e0f" x="60.069602" y="265.163771" style="fill: #ffffff; stroke: #ffffff; stroke-width: 0.8"/>
      </g>
     </g>
     <g id="text_1">
      <text style="fill: #ffffff; font: 10px 'sans-serif'; text-anchor: middle" x="60.069602" y="279.762208" transform="rotate(-0, 60.069602, 279.762208)">−1</text>
     </g>
    </g>
    <g id="xtick_2">
     <g id="line2d_6">
      <g>
       <use xlink:href="#m78e6a29e0f" x="105.718442" y="265.163771" style="fill: #ffffff; stroke: #ffffff; stroke-width: 0.8"/>
      </g>
     </g>
     <g id="text_2">
      <text style="fill: #ffffff; font: 10px 'sans-serif'; text-anchor: middle" x="105.718442" y="279.762208" transform="rotate(-0, 105.718442, 279.762208)">0</text>
     </g>
    </g>
    <g id="xtick_3">
     <g id="line2d_7">
      <g>
       <use xlink:href="#m78e6a29e0f" x="151.367281" y="265.163771" style="fill: #ffffff; stroke: #ffffff; stroke-width: 0.8"/>
      </g>
     </g>
     <g id="text_3">
      <text style="fill: #ffffff; font: 10px 'sans-serif'; text-anchor: middle" x="151.367281" y="279.762208" transform="rotate(-0, 151.367281, 279.762208)">1</text>
     </g>
    </g>
    <g id="xtick_4">
     <g id="line2d_8">
      <g>
       <use xlink:href="#m78e6a29e0f" x="197.01612" y="265.163771" style="fill: #ffffff; stroke: #ffffff; stroke-width: 0.8"/>
      </g>
     </g>
     <g id="text_4">
      <text style="fill: #ffffff; font: 10px 'sans-serif'; text-anchor: middle" x="197.01612" y="279.762208" transform="rotate(-0, 197.01612, 279.762208)">2</text>
     </g>
    </g>
    <g id="xtick_5">
     <g id="line2d_9">
      <g>
       <use xlink:href="#m78e6a29e0f" x="242.66496" y="265.163771" style="fill: #ffffff; stroke: #ffffff; stroke-width: 0.8"/>
      </g>
     </g>
     <g id="text_5">
      <text style="fill: #ffffff; font: 10px 'sans-serif'; text-anchor: middle" x="242.66496" y="279.762208" transform="rotate(-0, 242.66496, 279.762208)">3</text>
     </g>
    </g>
    <g id="xtick_6">
     <g id="line2d_10">
      <g>
       <use xlink:href="#m78e6a29e0f" x="288.313799" y="265.163771" style="fill: #ffffff; stroke: #ffffff; stroke-width: 0.8"/>
      </g>
     </g>
     <g id="text_6">
      <text style="fill: #ffffff; font: 10px 'sans-serif'; text-anchor: middle" x="288.313799" y="279.762208" transform="rotate(-0, 288.313799, 279.762208)">4</text>
     </g>
    </g>
    <g id="xtick_7">
     <g id="line2d_11">
      <g>
       <use xlink:href="#m78e6a29e0f" x="333.962638" y="265.163771" style="fill: #ffffff; stroke: #ffffff; stroke-width: 0.8"/>
      </g>
     </g>
     <g id="text_7">
      <text style="fill: #ffffff; font: 10px 'sans-serif'; text-anchor: middle" x="333.962638" y="279.762208" transform="rotate(-0, 333.962638, 279.762208)">5</text>
     </g>
    </g>
    <g id="xtick_8">
     <g id="line2d_12">
      <g>
       <use xlink:href="#m78e6a29e0f" x="379.611478" y="265.163771" style="fill: #ffffff; stroke: #ffffff; stroke-width: 0.8"/>
      </g>
     </g>
     <g id="text_8">
      <text style="fill: #ffffff; font: 10px 'sans-serif'; text-anchor: middle" x="379.611478" y="279.762208" transform="rotate(-0, 379.611478, 279.762208)">6</text>
     </g>
    </g>
   </g>
   <g id="matplotlib.axis_2">
    <g id="ytick_1">
     <g id="line2d_13">
      <defs>
       <path id="m0b464eb7d0" d="M 0 0 
L -3.5 0 
" style="stroke: #ffffff; stroke-width: 0.8"/>
      </defs>
      <g>
       <use xlink:href="#m0b464eb7d0" x="57.6" y="247.566143" style="fill: #ffffff; stroke: #ffffff; stroke-width: 0.8"/>
      </g>
     </g>
     <g id="text_9">
      <text style="fill: #ffffff; font: 10px 'sans-serif'; text-anchor: end" x="50.6" y="251.365362" transform="rotate(-0, 50.6, 251.365362)">−3.0</text>
     </g>
    </g>
    <g id="ytick_2">
     <g id="line2d_14">
      <g>
       <use xlink:href="#m0b464eb7d0" x="57.6" y="224.741723" style="fill: #ffffff; stroke: #ffffff; stroke-width: 0.8"/>
      </g>
     </g>
     <g id="text_10">
      <text style="fill: #ffffff; font: 10px 'sans-serif'; text-anchor: end" x="50.6" y="228.540942" transform="rotate(-0, 50.6, 228.540942)">−2.5</text>
     </g>
    </g>
    <g id="ytick_3">
     <g id="line2d_15">
      <g>
       <use xlink:href="#m0b464eb7d0" x="57.6" y="201.917304" style="fill: #ffffff; stroke: #ffffff; stroke-width: 0.8"/>
      </g>
     </g>
     <g id="text_11">
      <text style="fill: #ffffff; font: 10px 'sans-serif'; text-anchor: end" x="50.6" y="205.716522" transform="rotate(-0, 50.6, 205.716522)">−2.0</text>
     </g>
    </g>
    <g id="ytick_4">
     <g id="line2d_16">
      <g>
       <use xlink:href="#m0b464eb7d0" x="57.6" y="179.092884" style="fill: #ffffff; stroke: #ffffff; stroke-width: 0.8"/>
      </g>
     </g>
     <g id="text_12">
      <text style="fill: #ffffff; font: 10px 'sans-serif'; text-anchor: end" x="50.6" y="182.892103" transform="rotate(-0, 50.6, 182.892103)">−1.5</text>
     </g>
    </g>
    <g id="ytick_5">
     <g id="line2d_17">
      <g>
       <use xlink:href="#m0b464eb7d0" x="57.6" y="156.268464" style="fill: #ffffff; stroke: #ffffff; stroke-width: 0.8"/>
      </g>
     </g>
     <g id="text_13">
      <text style="fill: #ffffff; font: 10px 'sans-serif'; text-anchor: end" x="50.6" y="160.067683" transform="rotate(-0, 50.6, 160.067683)">−1.0</text>
     </g>
    </g>
    <g id="ytick_6">
     <g id="line2d_18">
      <g>
       <use xlink:href="#m0b464eb7d0" x="57.6" y="133.444045" style="fill: #ffffff; stroke: #ffffff; stroke-width: 0.8"/>
      </g>
     </g>
     <g id="text_14">
      <text style="fill: #ffffff; font: 10px 'sans-serif'; text-anchor: end" x="50.6" y="137.243263" transform="rotate(-0, 50.6, 137.243263)">−0.5</text>
     </g>
    </g>
    <g id="ytick_7">
     <g id="line2d_19">
      <g>
       <use xlink:href="#m0b464eb7d0" x="57.6" y="110.619625" style="fill: #ffffff; stroke: #ffffff; stroke-width: 0.8"/>
      </g>
     </g>
     <g id="text_15">
      <text style="fill: #ffffff; font: 10px 'sans-serif'; text-anchor: end" x="50.6" y="114.418844" transform="rotate(-0, 50.6, 114.418844)">0.0</text>
     </g>
    </g>
    <g id="ytick_8">
     <g id="line2d_20">
      <g>
       <use xlink:href="#m0b464eb7d0" x="57.6" y="87.795205" style="fill: #ffffff; stroke: #ffffff; stroke-width: 0.8"/>
      </g>
     </g>
     <g id="text_16">
      <text style="fill: #ffffff; font: 10px 'sans-serif'; text-anchor: end" x="50.6" y="91.594424" transform="rotate(-0, 50.6, 91.594424)">0.5</text>
     </g>
    </g>
   </g>
   <g id="patch_20">
    <path d="M 57.6 265.163771 
L 57.6 83.892229 
" style="fill: none; stroke: #ffffff; stroke-width: 0.8; stroke-linejoin: miter; stroke-linecap: square"/>
   </g>
   <g id="patch_21">
    <path d="M 414.72 265.163771 
L 414.72 83.892229 
" style="fill: none; stroke: #ffffff; stroke-width: 0.8; stroke-linejoin: miter; stroke-linecap: square"/>
   </g>
   <g id="patch_22">
    <path d="M 57.6 265.163771 
L 414.72 265.163771 
" style="fill: none; stroke: #ffffff; stroke-width: 0.8; stroke-linejoin: miter; stroke-linecap: square"/>
   </g>
   <g id="patch_23">
    <path d="M 57.6 83.892229 
L 414.72 83.892229 
" style="fill: none; stroke: #ffffff; stroke-width: 0.8; stroke-linejoin: miter; stroke-linecap: square"/>
   </g>
   <g id="text_17">
    <text style="fill: #ffffff; font: 12px 'sans-serif'; text-anchor: middle" x="236.16" y="77.892229" transform="rotate(-0, 236.16, 77.892229)">TVSOP-16</text>
   </g>
  </g>
 </g>
 <defs>
  <clipPath id="p248b0770a3">
   <rect x="57.6" y="83.892229" width="357.12" height="181.271541"/>
  </clipPath>
 </defs>
</svg>
