<?xml version="1.0" encoding="utf-8" standalone="no"?>
<!DOCTYPE svg PUBLIC "-//W3C//DTD SVG 1.1//EN"
  "http://www.w3.org/Graphics/SVG/1.1/DTD/svg11.dtd">
<svg xmlns:xlink="http://www.w3.org/1999/xlink" width="460.8pt" height="345.6pt" viewBox="0 0 460.8 345.6" xmlns="http://www.w3.org/2000/svg" version="1.1">
 <metadata>
  <rdf:RDF xmlns:dc="http://purl.org/dc/elements/1.1/" xmlns:cc="http://creativecommons.org/ns#" xmlns:rdf="http://www.w3.org/1999/02/22-rdf-syntax-ns#">
   <cc:Work>
    <dc:type rdf:resource="http://purl.org/dc/dcmitype/StillImage"/>
    <dc:date>2021-12-22T04:54:06.453501</dc:date>
    <dc:format>image/svg+xml</dc:format>
    <dc:creator>
     <cc:Agent>
      <dc:title>Matplotlib v3.5.1, https://matplotlib.org/</dc:title>
     </cc:Agent>
    </dc:creator>
   </cc:Work>
  </rdf:RDF>
 </metadata>
 <defs>
  <style type="text/css">*{stroke-linejoin: round; stroke-linecap: butt}</style>
 </defs>
 <g id="figure_1">
  <g id="patch_1">
   <path d="M 0 345.6 
L 460.8 345.6 
L 460.8 0 
L 0 0 
z
" style="fill: #2b2b2b"/>
  </g>
  <g id="axes_1">
   <g id="patch_2">
    <path d="M 57.6 234.048 
L 414.72 234.048 
L 414.72 115.008 
L 57.6 115.008 
z
" style="fill: #2b2b2b"/>
   </g>
   <g id="text_1">
    <text style="fill: #ffffff; font: 1px 'sans-serif'; text-anchor: start" x="73.832727" y="234.048" transform="rotate(-0, 73.832727, 234.048)">&gt;VALUE</text>
   </g>
   <g id="text_2">
    <text style="fill: #ffffff; font: 1px 'sans-serif'; text-anchor: start" x="73.832727" y="115.008" transform="rotate(-0, 73.832727, 115.008)">&gt;NAME</text>
   </g>
   <g id="line2d_1">
    <path d="M 290.269091 147.473455 
L 317.323636 120.418909 
" clip-path="url(#pd0ee29b9c5)" style="fill: none; stroke: #808080; stroke-width: 8.657455; stroke-linecap: square"/>
   </g>
   <g id="line2d_2">
    <path d="M 317.323636 120.418909 
L 371.432727 120.418909 
" clip-path="url(#pd0ee29b9c5)" style="fill: none; stroke: #808080; stroke-width: 8.657455; stroke-linecap: square"/>
   </g>
   <g id="line2d_3">
    <path d="M 371.432727 120.418909 
L 398.487273 147.473455 
" clip-path="url(#pd0ee29b9c5)" style="fill: none; stroke: #808080; stroke-width: 8.657455; stroke-linecap: square"/>
   </g>
   <g id="line2d_4">
    <path d="M 398.487273 201.582545 
L 371.432727 228.637091 
" clip-path="url(#pd0ee29b9c5)" style="fill: none; stroke: #808080; stroke-width: 8.657455; stroke-linecap: square"/>
   </g>
   <g id="line2d_5">
    <path d="M 371.432727 228.637091 
L 317.323636 228.637091 
" clip-path="url(#pd0ee29b9c5)" style="fill: none; stroke: #808080; stroke-width: 8.657455; stroke-linecap: square"/>
   </g>
   <g id="line2d_6">
    <path d="M 317.323636 228.637091 
L 290.269091 201.582545 
" clip-path="url(#pd0ee29b9c5)" style="fill: none; stroke: #808080; stroke-width: 8.657455; stroke-linecap: square"/>
   </g>
   <g id="line2d_7">
    <path d="M 100.887273 120.418909 
L 154.996364 120.418909 
" clip-path="url(#pd0ee29b9c5)" style="fill: none; stroke: #808080; stroke-width: 8.657455; stroke-linecap: square"/>
   </g>
   <g id="line2d_8">
    <path d="M 154.996364 120.418909 
L 182.050909 147.473455 
" clip-path="url(#pd0ee29b9c5)" style="fill: none; stroke: #808080; stroke-width: 8.657455; stroke-linecap: square"/>
   </g>
   <g id="line2d_9">
    <path d="M 182.050909 201.582545 
L 154.996364 228.637091 
" clip-path="url(#pd0ee29b9c5)" style="fill: none; stroke: #808080; stroke-width: 8.657455; stroke-linecap: square"/>
   </g>
   <g id="line2d_10">
    <path d="M 182.050909 147.473455 
L 209.105455 120.418909 
" clip-path="url(#pd0ee29b9c5)" style="fill: none; stroke: #808080; stroke-width: 8.657455; stroke-linecap: square"/>
   </g>
   <g id="line2d_11">
    <path d="M 209.105455 120.418909 
L 263.214545 120.418909 
" clip-path="url(#pd0ee29b9c5)" style="fill: none; stroke: #808080; stroke-width: 8.657455; stroke-linecap: square"/>
   </g>
   <g id="line2d_12">
    <path d="M 263.214545 120.418909 
L 290.269091 147.473455 
" clip-path="url(#pd0ee29b9c5)" style="fill: none; stroke: #808080; stroke-width: 8.657455; stroke-linecap: square"/>
   </g>
   <g id="line2d_13">
    <path d="M 290.269091 201.582545 
L 263.214545 228.637091 
" clip-path="url(#pd0ee29b9c5)" style="fill: none; stroke: #808080; stroke-width: 8.657455; stroke-linecap: square"/>
   </g>
   <g id="line2d_14">
    <path d="M 263.214545 228.637091 
L 209.105455 228.637091 
" clip-path="url(#pd0ee29b9c5)" style="fill: none; stroke: #808080; stroke-width: 8.657455; stroke-linecap: square"/>
   </g>
   <g id="line2d_15">
    <path d="M 209.105455 228.637091 
L 182.050909 201.582545 
" clip-path="url(#pd0ee29b9c5)" style="fill: none; stroke: #808080; stroke-width: 8.657455; stroke-linecap: square"/>
   </g>
   <g id="line2d_16">
    <path d="M 73.832727 147.473455 
L 73.832727 201.582545 
" clip-path="url(#pd0ee29b9c5)" style="fill: none; stroke: #808080; stroke-width: 8.657455; stroke-linecap: square"/>
   </g>
   <g id="line2d_17">
    <path d="M 100.887273 120.418909 
L 73.832727 147.473455 
" clip-path="url(#pd0ee29b9c5)" style="fill: none; stroke: #808080; stroke-width: 8.657455; stroke-linecap: square"/>
   </g>
   <g id="line2d_18">
    <path d="M 73.832727 201.582545 
L 100.887273 228.637091 
" clip-path="url(#pd0ee29b9c5)" style="fill: none; stroke: #808080; stroke-width: 8.657455; stroke-linecap: square"/>
   </g>
   <g id="line2d_19">
    <path d="M 154.996364 228.637091 
L 100.887273 228.637091 
" clip-path="url(#pd0ee29b9c5)" style="fill: none; stroke: #808080; stroke-width: 8.657455; stroke-linecap: square"/>
   </g>
   <g id="line2d_20">
    <path d="M 398.487273 147.473455 
L 398.487273 201.582545 
" clip-path="url(#pd0ee29b9c5)" style="fill: none; stroke: #808080; stroke-width: 8.657455; stroke-linecap: square"/>
   </g>
   <g id="patch_3">
    <path d="M 127.941818 214.568727 
C 138.560743 214.568727 148.746174 210.349784 156.254888 202.84107 
C 163.763602 195.332356 167.982545 185.146925 167.982545 174.528 
C 167.982545 163.909075 163.763602 153.723644 156.254888 146.21493 
C 148.746174 138.706216 138.560743 134.487273 127.941818 134.487273 
C 117.322893 134.487273 107.137462 138.706216 99.628748 146.21493 
C 92.120035 153.723644 87.901091 163.909075 87.901091 174.528 
C 87.901091 185.146925 92.120035 195.332356 99.628748 202.84107 
C 107.137462 210.349784 117.322893 214.568727 127.941818 214.568727 
z
" clip-path="url(#pd0ee29b9c5)" style="fill: #0dab76"/>
   </g>
   <g id="patch_4">
    <path d="M 127.941818 196.171636 
C 133.681778 196.171636 139.187416 193.891126 143.24618 189.832362 
C 147.304944 185.773598 149.585455 180.267959 149.585455 174.528 
C 149.585455 168.788041 147.304944 163.282402 143.24618 159.223638 
C 139.187416 155.164874 133.681778 152.884364 127.941818 152.884364 
C 122.201859 152.884364 116.69622 155.164874 112.637456 159.223638 
C 108.578692 163.282402 106.298182 168.788041 106.298182 174.528 
C 106.298182 180.267959 108.578692 185.773598 112.637456 189.832362 
C 116.69622 193.891126 122.201859 196.171636 127.941818 196.171636 
z
" clip-path="url(#pd0ee29b9c5)" style="fill: #a0a0a0"/>
   </g>
   <g id="patch_5">
    <path d="M 236.16 214.568727 
C 246.778925 214.568727 256.964356 210.349784 264.47307 202.84107 
C 271.981784 195.332356 276.200727 185.146925 276.200727 174.528 
C 276.200727 163.909075 271.981784 153.723644 264.47307 146.21493 
C 256.964356 138.706216 246.778925 134.487273 236.16 134.487273 
C 225.541075 134.487273 215.355644 138.706216 207.84693 146.21493 
C 200.338216 153.723644 196.119273 163.909075 196.119273 174.528 
C 196.119273 185.146925 200.338216 195.332356 207.84693 202.84107 
C 215.355644 210.349784 225.541075 214.568727 236.16 214.568727 
z
" clip-path="url(#pd0ee29b9c5)" style="fill: #0dab76"/>
   </g>
   <g id="patch_6">
    <path d="M 236.16 196.171636 
C 241.899959 196.171636 247.405598 193.891126 251.464362 189.832362 
C 255.523126 185.773598 257.803636 180.267959 257.803636 174.528 
C 257.803636 168.788041 255.523126 163.282402 251.464362 159.223638 
C 247.405598 155.164874 241.899959 152.884364 236.16 152.884364 
C 230.420041 152.884364 224.914402 155.164874 220.855638 159.223638 
C 216.796874 163.282402 214.516364 168.788041 214.516364 174.528 
C 214.516364 180.267959 216.796874 185.773598 220.855638 189.832362 
C 224.914402 193.891126 230.420041 196.171636 236.16 196.171636 
z
" clip-path="url(#pd0ee29b9c5)" style="fill: #a0a0a0"/>
   </g>
   <g id="patch_7">
    <path d="M 344.378182 214.568727 
C 354.997107 214.568727 365.182538 210.349784 372.691252 202.84107 
C 380.199965 195.332356 384.418909 185.146925 384.418909 174.528 
C 384.418909 163.909075 380.199965 153.723644 372.691252 146.21493 
C 365.182538 138.706216 354.997107 134.487273 344.378182 134.487273 
C 333.759257 134.487273 323.573826 138.706216 316.065112 146.21493 
C 308.556398 153.723644 304.337455 163.909075 304.337455 174.528 
C 304.337455 185.146925 308.556398 195.332356 316.065112 202.84107 
C 323.573826 210.349784 333.759257 214.568727 344.378182 214.568727 
z
" clip-path="url(#pd0ee29b9c5)" style="fill: #0dab76"/>
   </g>
   <g id="patch_8">
    <path d="M 344.378182 196.171636 
C 350.118141 196.171636 355.62378 193.891126 359.682544 189.832362 
C 363.741308 185.773598 366.021818 180.267959 366.021818 174.528 
C 366.021818 168.788041 363.741308 163.282402 359.682544 159.223638 
C 355.62378 155.164874 350.118141 152.884364 344.378182 152.884364 
C 338.638222 152.884364 333.132584 155.164874 329.07382 159.223638 
C 325.015056 163.282402 322.734545 168.788041 322.734545 174.528 
C 322.734545 180.267959 325.015056 185.773598 329.07382 189.832362 
C 333.132584 193.891126 338.638222 196.171636 344.378182 196.171636 
z
" clip-path="url(#pd0ee29b9c5)" style="fill: #a0a0a0"/>
   </g>
   <g id="matplotlib.axis_1">
    <g id="xtick_1">
     <g id="line2d_21">
      <defs>
       <path id="m4ef0d07d23" d="M 0 0 
L 0 3.5 
" style="stroke: #ffffff; stroke-width: 0.8"/>
      </defs>
      <g>
       <use xlink:href="#m4ef0d07d23" x="65.737666" y="234.048" style="fill: #ffffff; stroke: #ffffff; stroke-width: 0.8"/>
      </g>
     </g>
     <g id="text_3">
      <text style="fill: #ffffff; font: 10px 'sans-serif'; text-anchor: middle" x="65.737666" y="248.646437" transform="rotate(-0, 65.737666, 248.646437)">−4</text>
     </g>
    </g>
    <g id="xtick_2">
     <g id="line2d_22">
      <g>
       <use xlink:href="#m4ef0d07d23" x="108.34325" y="234.048" style="fill: #ffffff; stroke: #ffffff; stroke-width: 0.8"/>
      </g>
     </g>
     <g id="text_4">
      <text style="fill: #ffffff; font: 10px 'sans-serif'; text-anchor: middle" x="108.34325" y="248.646437" transform="rotate(-0, 108.34325, 248.646437)">−3</text>
     </g>
    </g>
    <g id="xtick_3">
     <g id="line2d_23">
      <g>
       <use xlink:href="#m4ef0d07d23" x="150.948833" y="234.048" style="fill: #ffffff; stroke: #ffffff; stroke-width: 0.8"/>
      </g>
     </g>
     <g id="text_5">
      <text style="fill: #ffffff; font: 10px 'sans-serif'; text-anchor: middle" x="150.948833" y="248.646437" transform="rotate(-0, 150.948833, 248.646437)">−2</text>
     </g>
    </g>
    <g id="xtick_4">
     <g id="line2d_24">
      <g>
       <use xlink:href="#m4ef0d07d23" x="193.554417" y="234.048" style="fill: #ffffff; stroke: #ffffff; stroke-width: 0.8"/>
      </g>
     </g>
     <g id="text_6">
      <text style="fill: #ffffff; font: 10px 'sans-serif'; text-anchor: middle" x="193.554417" y="248.646437" transform="rotate(-0, 193.554417, 248.646437)">−1</text>
     </g>
    </g>
    <g id="xtick_5">
     <g id="line2d_25">
      <g>
       <use xlink:href="#m4ef0d07d23" x="236.16" y="234.048" style="fill: #ffffff; stroke: #ffffff; stroke-width: 0.8"/>
      </g>
     </g>
     <g id="text_7">
      <text style="fill: #ffffff; font: 10px 'sans-serif'; text-anchor: middle" x="236.16" y="248.646437" transform="rotate(-0, 236.16, 248.646437)">0</text>
     </g>
    </g>
    <g id="xtick_6">
     <g id="line2d_26">
      <g>
       <use xlink:href="#m4ef0d07d23" x="278.765583" y="234.048" style="fill: #ffffff; stroke: #ffffff; stroke-width: 0.8"/>
      </g>
     </g>
     <g id="text_8">
      <text style="fill: #ffffff; font: 10px 'sans-serif'; text-anchor: middle" x="278.765583" y="248.646437" transform="rotate(-0, 278.765583, 248.646437)">1</text>
     </g>
    </g>
    <g id="xtick_7">
     <g id="line2d_27">
      <g>
       <use xlink:href="#m4ef0d07d23" x="321.371167" y="234.048" style="fill: #ffffff; stroke: #ffffff; stroke-width: 0.8"/>
      </g>
     </g>
     <g id="text_9">
      <text style="fill: #ffffff; font: 10px 'sans-serif'; text-anchor: middle" x="321.371167" y="248.646437" transform="rotate(-0, 321.371167, 248.646437)">2</text>
     </g>
    </g>
    <g id="xtick_8">
     <g id="line2d_28">
      <g>
       <use xlink:href="#m4ef0d07d23" x="363.97675" y="234.048" style="fill: #ffffff; stroke: #ffffff; stroke-width: 0.8"/>
      </g>
     </g>
     <g id="text_10">
      <text style="fill: #ffffff; font: 10px 'sans-serif'; text-anchor: middle" x="363.97675" y="248.646437" transform="rotate(-0, 363.97675, 248.646437)">3</text>
     </g>
    </g>
    <g id="xtick_9">
     <g id="line2d_29">
      <g>
       <use xlink:href="#m4ef0d07d23" x="406.582334" y="234.048" style="fill: #ffffff; stroke: #ffffff; stroke-width: 0.8"/>
      </g>
     </g>
     <g id="text_11">
      <text style="fill: #ffffff; font: 10px 'sans-serif'; text-anchor: middle" x="406.582334" y="248.646437" transform="rotate(-0, 406.582334, 248.646437)">4</text>
     </g>
    </g>
   </g>
   <g id="matplotlib.axis_2">
    <g id="ytick_1">
     <g id="line2d_30">
      <defs>
       <path id="meb81d9497c" d="M 0 0 
L -3.5 0 
" style="stroke: #ffffff; stroke-width: 0.8"/>
      </defs>
      <g>
       <use xlink:href="#meb81d9497c" x="57.6" y="217.133583" style="fill: #ffffff; stroke: #ffffff; stroke-width: 0.8"/>
      </g>
     </g>
     <g id="text_12">
      <text style="fill: #ffffff; font: 10px 'sans-serif'; text-anchor: end" x="50.6" y="220.932802" transform="rotate(-0, 50.6, 220.932802)">−1</text>
     </g>
    </g>
    <g id="ytick_2">
     <g id="line2d_31">
      <g>
       <use xlink:href="#meb81d9497c" x="57.6" y="174.528" style="fill: #ffffff; stroke: #ffffff; stroke-width: 0.8"/>
      </g>
     </g>
     <g id="text_13">
      <text style="fill: #ffffff; font: 10px 'sans-serif'; text-anchor: end" x="50.6" y="178.327219" transform="rotate(-0, 50.6, 178.327219)">0</text>
     </g>
    </g>
    <g id="ytick_3">
     <g id="line2d_32">
      <g>
       <use xlink:href="#meb81d9497c" x="57.6" y="131.922417" style="fill: #ffffff; stroke: #ffffff; stroke-width: 0.8"/>
      </g>
     </g>
     <g id="text_14">
      <text style="fill: #ffffff; font: 10px 'sans-serif'; text-anchor: end" x="50.6" y="135.721635" transform="rotate(-0, 50.6, 135.721635)">1</text>
     </g>
    </g>
   </g>
   <g id="patch_9">
    <path d="M 57.6 234.048 
L 57.6 115.008 
" style="fill: none; stroke: #ffffff; stroke-width: 0.8; stroke-linejoin: miter; stroke-linecap: square"/>
   </g>
   <g id="patch_10">
    <path d="M 414.72 234.048 
L 414.72 115.008 
" style="fill: none; stroke: #ffffff; stroke-width: 0.8; stroke-linejoin: miter; stroke-linecap: square"/>
   </g>
   <g id="patch_11">
    <path d="M 57.6 234.048 
L 414.72 234.048 
" style="fill: none; stroke: #ffffff; stroke-width: 0.8; stroke-linejoin: miter; stroke-linecap: square"/>
   </g>
   <g id="patch_12">
    <path d="M 57.6 115.008 
L 414.72 115.008 
" style="fill: none; stroke: #ffffff; stroke-width: 0.8; stroke-linejoin: miter; stroke-linecap: square"/>
   </g>
   <g id="text_15">
    <text style="fill: #ffffff; font: 12px 'sans-serif'; text-anchor: middle" x="236.16" y="109.008" transform="rotate(-0, 236.16, 109.008)">1X03</text>
   </g>
  </g>
 </g>
 <defs>
  <clipPath id="pd0ee29b9c5">
   <rect x="57.6" y="115.008" width="357.12" height="119.04"/>
  </clipPath>
 </defs>
</svg>
