<?xml version="1.0" encoding="utf-8" standalone="no"?>
<!DOCTYPE svg PUBLIC "-//W3C//DTD SVG 1.1//EN"
  "http://www.w3.org/Graphics/SVG/1.1/DTD/svg11.dtd">
<svg xmlns:xlink="http://www.w3.org/1999/xlink" width="460.8pt" height="345.6pt" viewBox="0 0 460.8 345.6" xmlns="http://www.w3.org/2000/svg" version="1.1">
 <metadata>
  <rdf:RDF xmlns:dc="http://purl.org/dc/elements/1.1/" xmlns:cc="http://creativecommons.org/ns#" xmlns:rdf="http://www.w3.org/1999/02/22-rdf-syntax-ns#">
   <cc:Work>
    <dc:type rdf:resource="http://purl.org/dc/dcmitype/StillImage"/>
    <dc:date>2023-02-18T16:05:58.248013</dc:date>
    <dc:format>image/svg+xml</dc:format>
    <dc:creator>
     <cc:Agent>
      <dc:title>Matplotlib v3.5.1, https://matplotlib.org/</dc:title>
     </cc:Agent>
    </dc:creator>
   </cc:Work>
  </rdf:RDF>
 </metadata>
 <defs>
  <style type="text/css">*{stroke-linejoin: round; stroke-linecap: butt}</style>
 </defs>
 <g id="figure_1">
  <g id="patch_1">
   <path d="M 0 345.6 
L 460.8 345.6 
L 460.8 0 
L 0 0 
z
" style="fill: #2b2b2b"/>
  </g>
  <g id="axes_1">
   <g id="patch_2">
    <path d="M 136.903559 307.584 
L 335.416441 307.584 
L 335.416441 41.472 
L 136.903559 41.472 
z
" style="fill: #2b2b2b"/>
   </g>
   <g id="patch_3">
    <path d="M 146.086655 123.161708 
C 146.12903 123.161708 146.169675 123.144872 146.199639 123.114908 
C 146.229603 123.084945 146.246439 123.0443 146.246439 123.001925 
C 146.246439 122.95955 146.229603 122.918904 146.199639 122.888941 
C 146.169675 122.858977 146.12903 122.842141 146.086655 122.842141 
C 146.04428 122.842141 146.003635 122.858977 145.973671 122.888941 
C 145.943708 122.918904 145.926872 122.95955 145.926872 123.001925 
C 145.926872 123.0443 145.943708 123.084945 145.973671 123.114908 
C 146.003635 123.144872 146.04428 123.161708 146.086655 123.161708 
L 146.086655 123.161708 
z
" clip-path="url(#p1d5b8b1879)" style="fill: none; stroke: #ffcd07; stroke-width: 1.597833; stroke-linejoin: miter"/>
   </g>
   <g id="line2d_1">
    <path d="M 151.826078 123.189262 
L 156.233176 112.669077 
L 156.233176 112.669077 
L 160.640515 123.189754 
L 160.640515 123.189754 
" clip-path="url(#p1d5b8b1879)" style="fill: none; stroke: #ffcd07; stroke-width: 0.811699; stroke-linecap: round"/>
   </g>
   <g id="line2d_2">
    <path d="M 148.412898 110.943278 
L 164.053676 105.682291 
L 164.053676 105.682291 
L 148.412495 100.564089 
L 148.412495 100.564089 
" clip-path="url(#p1d5b8b1879)" style="fill: none; stroke: #ffcd07; stroke-width: 0.811699; stroke-linecap: round"/>
   </g>
   <g id="line2d_3">
    <path d="M 163.768529 98.767946 
L 148.12775 93.50696 
L 148.12775 93.50696 
L 163.768931 88.388758 
L 163.768931 88.388758 
" clip-path="url(#p1d5b8b1879)" style="fill: none; stroke: #ffcd07; stroke-width: 0.811699; stroke-linecap: round"/>
   </g>
   <g id="line2d_4">
    <path d="M 159.930258 89.667175 
L 159.930258 97.487293 
" clip-path="url(#p1d5b8b1879)" style="fill: none; stroke: #ffcd07; stroke-width: 0.811699; stroke-linecap: round"/>
   </g>
   <g id="line2d_5">
    <path d="M 148.41298 84.88629 
L 164.053217 84.88629 
L 164.053217 77.919275 
" clip-path="url(#p1d5b8b1879)" style="fill: none; stroke: #ffcd07; stroke-width: 0.811699; stroke-linecap: round"/>
   </g>
   <g id="line2d_6">
    <path d="M 148.413641 73.563605 
L 159.646175 73.563605 
L 159.646175 73.563605 
L 161.068015 73.279237 
L 161.068015 73.279237 
L 162.205487 72.710501 
L 163.200774 71.715213 
L 163.911694 70.577741 
L 164.053878 69.155902 
L 163.911694 67.876246 
L 163.200774 66.59659 
L 162.205487 65.601303 
L 161.068015 65.032567 
L 159.646175 64.890383 
L 148.413641 64.890383 
" clip-path="url(#p1d5b8b1879)" style="fill: none; stroke: #ffcd07; stroke-width: 0.811699; stroke-linecap: round"/>
   </g>
   <g id="line2d_7">
    <path d="M 164.053292 53.568 
L 164.053292 60.535015 
L 148.413055 60.535015 
L 148.413055 53.568 
" clip-path="url(#p1d5b8b1879)" style="fill: none; stroke: #ffcd07; stroke-width: 0.811699; stroke-linecap: round"/>
   </g>
   <g id="line2d_8">
    <path d="M 155.380439 60.534733 
L 155.380439 55.273926 
" clip-path="url(#p1d5b8b1879)" style="fill: none; stroke: #ffcd07; stroke-width: 0.811699; stroke-linecap: round"/>
   </g>
   <g id="patch_4">
    <path d="M 308.426491 123.161708 
C 308.468866 123.161708 308.509511 123.144872 308.539475 123.114908 
C 308.569439 123.084945 308.586274 123.0443 308.586274 123.001925 
C 308.586274 122.95955 308.569439 122.918904 308.539475 122.888941 
C 308.509511 122.858977 308.468866 122.842141 308.426491 122.842141 
C 308.384116 122.842141 308.343471 122.858977 308.313507 122.888941 
C 308.283544 122.918904 308.266708 122.95955 308.266708 123.001925 
C 308.266708 123.0443 308.283544 123.084945 308.313507 123.114908 
C 308.343471 123.144872 308.384116 123.161708 308.426491 123.161708 
L 308.426491 123.161708 
z
" clip-path="url(#p1d5b8b1879)" style="fill: none; stroke: #808080; stroke-width: 1.597833; stroke-linejoin: miter"/>
   </g>
   <g id="line2d_9">
    <path d="M 314.165913 123.189262 
L 318.573012 112.669077 
L 318.573012 112.669077 
L 322.980351 123.189754 
L 322.980351 123.189754 
" clip-path="url(#p1d5b8b1879)" style="fill: none; stroke: #808080; stroke-width: 0.40585; stroke-linecap: round"/>
   </g>
   <g id="line2d_10">
    <path d="M 326.392578 110.089164 
L 310.752342 110.089164 
L 326.392578 101.415942 
L 310.752342 101.415942 
" clip-path="url(#p1d5b8b1879)" style="fill: none; stroke: #808080; stroke-width: 0.40585; stroke-linecap: round"/>
   </g>
   <g id="line2d_11">
    <path d="M 326.108365 98.767946 
L 310.467586 93.50696 
L 310.467586 93.50696 
L 326.108767 88.388758 
L 326.108767 88.388758 
" clip-path="url(#p1d5b8b1879)" style="fill: none; stroke: #808080; stroke-width: 0.40585; stroke-linecap: round"/>
   </g>
   <g id="line2d_12">
    <path d="M 322.270093 89.667175 
L 322.270093 97.487293 
" clip-path="url(#p1d5b8b1879)" style="fill: none; stroke: #808080; stroke-width: 0.40585; stroke-linecap: round"/>
   </g>
   <g id="line2d_13">
    <path d="M 326.39304 86.591431 
L 310.752803 86.591431 
L 319.426026 81.472808 
L 319.426026 81.472808 
L 310.752803 76.212002 
L 310.752803 76.212002 
L 326.39304 76.212002 
" clip-path="url(#p1d5b8b1879)" style="fill: none; stroke: #808080; stroke-width: 0.40585; stroke-linecap: round"/>
   </g>
   <g id="line2d_14">
    <path d="M 326.393128 65.743488 
L 326.393128 72.710502 
L 310.752891 72.710502 
L 310.752891 65.743488 
" clip-path="url(#p1d5b8b1879)" style="fill: none; stroke: #808080; stroke-width: 0.40585; stroke-linecap: round"/>
   </g>
   <g id="line2d_15">
    <path d="M 317.720275 72.71022 
L 317.720275 67.449413 
" clip-path="url(#p1d5b8b1879)" style="fill: none; stroke: #808080; stroke-width: 0.40585; stroke-linecap: round"/>
   </g>
   <g id="line2d_16">
    <path d="M 298.280251 153.440644 
L 257.695292 153.440644 
" clip-path="url(#p1d5b8b1879)" style="fill: none; stroke: #808080; stroke-width: 2.435098; stroke-linecap: round"/>
   </g>
   <g id="line2d_17">
    <path d="M 257.695292 153.440644 
L 257.695292 194.025603 
" clip-path="url(#p1d5b8b1879)" style="fill: none; stroke: #808080; stroke-width: 2.435098; stroke-linecap: round"/>
   </g>
   <g id="line2d_18">
    <path d="M 257.695292 194.025603 
L 298.280251 194.025603 
" clip-path="url(#p1d5b8b1879)" style="fill: none; stroke: #808080; stroke-width: 2.435098; stroke-linecap: round"/>
   </g>
   <g id="line2d_19">
    <path d="M 298.280251 194.025603 
L 298.280251 153.440644 
" clip-path="url(#p1d5b8b1879)" style="fill: none; stroke: #808080; stroke-width: 2.435098; stroke-linecap: round"/>
   </g>
   <g id="line2d_20">
    <path d="M 277.987772 295.488 
L 277.987772 204.171842 
" clip-path="url(#p1d5b8b1879)" style="fill: none; stroke: #808080; stroke-width: 12.175488; stroke-linecap: round"/>
   </g>
   <g id="line2d_21">
    <path d="M 257.695292 153.440644 
L 217.110333 153.440644 
" clip-path="url(#p1d5b8b1879)" style="fill: none; stroke: #808080; stroke-width: 2.435098; stroke-linecap: round"/>
   </g>
   <g id="line2d_22">
    <path d="M 217.110333 153.440644 
L 217.110333 194.025603 
" clip-path="url(#p1d5b8b1879)" style="fill: none; stroke: #808080; stroke-width: 2.435098; stroke-linecap: round"/>
   </g>
   <g id="line2d_23">
    <path d="M 217.110333 194.025603 
L 257.695292 194.025603 
" clip-path="url(#p1d5b8b1879)" style="fill: none; stroke: #808080; stroke-width: 2.435098; stroke-linecap: round"/>
   </g>
   <g id="line2d_24">
    <path d="M 237.402813 295.488 
L 237.402813 204.171842 
" clip-path="url(#p1d5b8b1879)" style="fill: none; stroke: #808080; stroke-width: 12.175488; stroke-linecap: round"/>
   </g>
   <g id="line2d_25">
    <path d="M 217.110333 153.440644 
L 176.525375 153.440644 
" clip-path="url(#p1d5b8b1879)" style="fill: none; stroke: #808080; stroke-width: 2.435098; stroke-linecap: round"/>
   </g>
   <g id="line2d_26">
    <path d="M 176.525375 153.440644 
L 176.525375 194.025603 
" clip-path="url(#p1d5b8b1879)" style="fill: none; stroke: #808080; stroke-width: 2.435098; stroke-linecap: round"/>
   </g>
   <g id="line2d_27">
    <path d="M 176.525375 194.025603 
L 217.110333 194.025603 
" clip-path="url(#p1d5b8b1879)" style="fill: none; stroke: #808080; stroke-width: 2.435098; stroke-linecap: round"/>
   </g>
   <g id="line2d_28">
    <path d="M 196.817854 295.488 
L 196.817854 204.171842 
" clip-path="url(#p1d5b8b1879)" style="fill: none; stroke: #808080; stroke-width: 12.175488; stroke-linecap: round"/>
   </g>
   <g id="patch_5">
    <path d="M 196.817854 138.018359 
C 200.800259 138.018359 204.620091 136.436133 207.436077 133.620147 
C 210.252062 130.804162 211.834289 126.98433 211.834289 123.001925 
C 211.834289 119.019519 210.252062 115.199687 207.436077 112.383702 
C 204.620091 109.567716 200.800259 107.98549 196.817854 107.98549 
C 192.835449 107.98549 189.015617 109.567716 186.199631 112.383702 
C 183.383645 115.199687 181.801419 119.019519 181.801419 123.001925 
C 181.801419 126.98433 183.383645 130.804162 186.199631 133.620147 
C 189.015617 136.436133 192.835449 138.018359 196.817854 138.018359 
z
" clip-path="url(#p1d5b8b1879)" style="fill: #0dab76"/>
   </g>
   <g id="patch_6">
    <path d="M 196.817854 131.118916 
C 198.970505 131.118916 201.03528 130.263659 202.557434 128.741504 
C 204.079588 127.21935 204.934846 125.154576 204.934846 123.001925 
C 204.934846 120.849273 204.079588 118.784499 202.557434 117.262345 
C 201.03528 115.74019 198.970505 114.884933 196.817854 114.884933 
C 194.665203 114.884933 192.600428 115.74019 191.078274 117.262345 
C 189.55612 118.784499 188.700862 120.849273 188.700862 123.001925 
C 188.700862 125.154576 189.55612 127.21935 191.078274 128.741504 
C 192.600428 130.263659 194.665203 131.118916 196.817854 131.118916 
z
" clip-path="url(#p1d5b8b1879)" style="fill: #a0a0a0"/>
   </g>
   <g id="patch_7">
    <path d="M 237.402813 138.018359 
C 241.385218 138.018359 245.20505 136.436133 248.021036 133.620147 
C 250.837021 130.804162 252.419248 126.98433 252.419248 123.001925 
C 252.419248 119.019519 250.837021 115.199687 248.021036 112.383702 
C 245.20505 109.567716 241.385218 107.98549 237.402813 107.98549 
C 233.420408 107.98549 229.600576 109.567716 226.78459 112.383702 
C 223.968604 115.199687 222.386378 119.019519 222.386378 123.001925 
C 222.386378 126.98433 223.968604 130.804162 226.78459 133.620147 
C 229.600576 136.436133 233.420408 138.018359 237.402813 138.018359 
z
" clip-path="url(#p1d5b8b1879)" style="fill: #0dab76"/>
   </g>
   <g id="patch_8">
    <path d="M 237.402813 131.118916 
C 239.555464 131.118916 241.620238 130.263659 243.142393 128.741504 
C 244.664547 127.21935 245.519805 125.154576 245.519805 123.001925 
C 245.519805 120.849273 244.664547 118.784499 243.142393 117.262345 
C 241.620238 115.74019 239.555464 114.884933 237.402813 114.884933 
C 235.250162 114.884933 233.185387 115.74019 231.663233 117.262345 
C 230.141079 118.784499 229.285821 120.849273 229.285821 123.001925 
C 229.285821 125.154576 230.141079 127.21935 231.663233 128.741504 
C 233.185387 130.263659 235.250162 131.118916 237.402813 131.118916 
z
" clip-path="url(#p1d5b8b1879)" style="fill: #a0a0a0"/>
   </g>
   <g id="patch_9">
    <path d="M 277.987772 138.018359 
C 281.970177 138.018359 285.790009 136.436133 288.605995 133.620147 
C 291.42198 130.804162 293.004207 126.98433 293.004207 123.001925 
C 293.004207 119.019519 291.42198 115.199687 288.605995 112.383702 
C 285.790009 109.567716 281.970177 107.98549 277.987772 107.98549 
C 274.005367 107.98549 270.185535 109.567716 267.369549 112.383702 
C 264.553563 115.199687 262.971337 119.019519 262.971337 123.001925 
C 262.971337 126.98433 264.553563 130.804162 267.369549 133.620147 
C 270.185535 136.436133 274.005367 138.018359 277.987772 138.018359 
z
" clip-path="url(#p1d5b8b1879)" style="fill: #0dab76"/>
   </g>
   <g id="patch_10">
    <path d="M 277.987772 131.118916 
C 280.140423 131.118916 282.205197 130.263659 283.727352 128.741504 
C 285.249506 127.21935 286.104764 125.154576 286.104764 123.001925 
C 286.104764 120.849273 285.249506 118.784499 283.727352 117.262345 
C 282.205197 115.74019 280.140423 114.884933 277.987772 114.884933 
C 275.83512 114.884933 273.770346 115.74019 272.248192 117.262345 
C 270.726038 118.784499 269.87078 120.849273 269.87078 123.001925 
C 269.87078 125.154576 270.726038 127.21935 272.248192 128.741504 
C 273.770346 130.263659 275.83512 131.118916 277.987772 131.118916 
z
" clip-path="url(#p1d5b8b1879)" style="fill: #a0a0a0"/>
   </g>
   <g id="matplotlib.axis_1">
    <g id="xtick_1">
     <g id="line2d_29">
      <defs>
       <path id="m25b52bb75c" d="M 0 0 
L 0 3.5 
" style="stroke: #ffffff; stroke-width: 0.8"/>
      </defs>
      <g>
       <use xlink:href="#m25b52bb75c" x="157.511161" y="307.584" style="fill: #ffffff; stroke: #ffffff; stroke-width: 0.8"/>
      </g>
     </g>
     <g id="text_1">
      <text style="fill: #ffffff; font: 10px 'sans-serif'; text-anchor: middle" x="157.511161" y="322.182437" transform="rotate(-0, 157.511161, 322.182437)">−5.0</text>
     </g>
    </g>
    <g id="xtick_2">
     <g id="line2d_30">
      <g>
       <use xlink:href="#m25b52bb75c" x="197.456987" y="307.584" style="fill: #ffffff; stroke: #ffffff; stroke-width: 0.8"/>
      </g>
     </g>
     <g id="text_2">
      <text style="fill: #ffffff; font: 10px 'sans-serif'; text-anchor: middle" x="197.456987" y="322.182437" transform="rotate(-0, 197.456987, 322.182437)">−2.5</text>
     </g>
    </g>
    <g id="xtick_3">
     <g id="line2d_31">
      <g>
       <use xlink:href="#m25b52bb75c" x="237.402813" y="307.584" style="fill: #ffffff; stroke: #ffffff; stroke-width: 0.8"/>
      </g>
     </g>
     <g id="text_3">
      <text style="fill: #ffffff; font: 10px 'sans-serif'; text-anchor: middle" x="237.402813" y="322.182437" transform="rotate(-0, 237.402813, 322.182437)">0.0</text>
     </g>
    </g>
    <g id="xtick_4">
     <g id="line2d_32">
      <g>
       <use xlink:href="#m25b52bb75c" x="277.348639" y="307.584" style="fill: #ffffff; stroke: #ffffff; stroke-width: 0.8"/>
      </g>
     </g>
     <g id="text_4">
      <text style="fill: #ffffff; font: 10px 'sans-serif'; text-anchor: middle" x="277.348639" y="322.182437" transform="rotate(-0, 277.348639, 322.182437)">2.5</text>
     </g>
    </g>
    <g id="xtick_5">
     <g id="line2d_33">
      <g>
       <use xlink:href="#m25b52bb75c" x="317.294464" y="307.584" style="fill: #ffffff; stroke: #ffffff; stroke-width: 0.8"/>
      </g>
     </g>
     <g id="text_5">
      <text style="fill: #ffffff; font: 10px 'sans-serif'; text-anchor: middle" x="317.294464" y="322.182437" transform="rotate(-0, 317.294464, 322.182437)">5.0</text>
     </g>
    </g>
   </g>
   <g id="matplotlib.axis_2">
    <g id="ytick_1">
     <g id="line2d_34">
      <defs>
       <path id="ma1e241d256" d="M 0 0 
L -3.5 0 
" style="stroke: #ffffff; stroke-width: 0.8"/>
      </defs>
      <g>
       <use xlink:href="#ma1e241d256" x="136.903559" y="282.785227" style="fill: #ffffff; stroke: #ffffff; stroke-width: 0.8"/>
      </g>
     </g>
     <g id="text_6">
      <text style="fill: #ffffff; font: 10px 'sans-serif'; text-anchor: end" x="129.903559" y="286.584446" transform="rotate(-0, 129.903559, 286.584446)">−10</text>
     </g>
    </g>
    <g id="ytick_2">
     <g id="line2d_35">
      <g>
       <use xlink:href="#ma1e241d256" x="136.903559" y="250.828567" style="fill: #ffffff; stroke: #ffffff; stroke-width: 0.8"/>
      </g>
     </g>
     <g id="text_7">
      <text style="fill: #ffffff; font: 10px 'sans-serif'; text-anchor: end" x="129.903559" y="254.627786" transform="rotate(-0, 129.903559, 254.627786)">−8</text>
     </g>
    </g>
    <g id="ytick_3">
     <g id="line2d_36">
      <g>
       <use xlink:href="#ma1e241d256" x="136.903559" y="218.871906" style="fill: #ffffff; stroke: #ffffff; stroke-width: 0.8"/>
      </g>
     </g>
     <g id="text_8">
      <text style="fill: #ffffff; font: 10px 'sans-serif'; text-anchor: end" x="129.903559" y="222.671125" transform="rotate(-0, 129.903559, 222.671125)">−6</text>
     </g>
    </g>
    <g id="ytick_4">
     <g id="line2d_37">
      <g>
       <use xlink:href="#ma1e241d256" x="136.903559" y="186.915246" style="fill: #ffffff; stroke: #ffffff; stroke-width: 0.8"/>
      </g>
     </g>
     <g id="text_9">
      <text style="fill: #ffffff; font: 10px 'sans-serif'; text-anchor: end" x="129.903559" y="190.714464" transform="rotate(-0, 129.903559, 190.714464)">−4</text>
     </g>
    </g>
    <g id="ytick_5">
     <g id="line2d_38">
      <g>
       <use xlink:href="#ma1e241d256" x="136.903559" y="154.958585" style="fill: #ffffff; stroke: #ffffff; stroke-width: 0.8"/>
      </g>
     </g>
     <g id="text_10">
      <text style="fill: #ffffff; font: 10px 'sans-serif'; text-anchor: end" x="129.903559" y="158.757804" transform="rotate(-0, 129.903559, 158.757804)">−2</text>
     </g>
    </g>
    <g id="ytick_6">
     <g id="line2d_39">
      <g>
       <use xlink:href="#ma1e241d256" x="136.903559" y="123.001925" style="fill: #ffffff; stroke: #ffffff; stroke-width: 0.8"/>
      </g>
     </g>
     <g id="text_11">
      <text style="fill: #ffffff; font: 10px 'sans-serif'; text-anchor: end" x="129.903559" y="126.801143" transform="rotate(-0, 129.903559, 126.801143)">0</text>
     </g>
    </g>
    <g id="ytick_7">
     <g id="line2d_40">
      <g>
       <use xlink:href="#ma1e241d256" x="136.903559" y="91.045264" style="fill: #ffffff; stroke: #ffffff; stroke-width: 0.8"/>
      </g>
     </g>
     <g id="text_12">
      <text style="fill: #ffffff; font: 10px 'sans-serif'; text-anchor: end" x="129.903559" y="94.844483" transform="rotate(-0, 129.903559, 94.844483)">2</text>
     </g>
    </g>
    <g id="ytick_8">
     <g id="line2d_41">
      <g>
       <use xlink:href="#ma1e241d256" x="136.903559" y="59.088603" style="fill: #ffffff; stroke: #ffffff; stroke-width: 0.8"/>
      </g>
     </g>
     <g id="text_13">
      <text style="fill: #ffffff; font: 10px 'sans-serif'; text-anchor: end" x="129.903559" y="62.887822" transform="rotate(-0, 129.903559, 62.887822)">4</text>
     </g>
    </g>
   </g>
   <g id="patch_11">
    <path d="M 136.903559 307.584 
L 136.903559 41.472 
" style="fill: none; stroke: #ffffff; stroke-width: 0.8; stroke-linejoin: miter; stroke-linecap: square"/>
   </g>
   <g id="patch_12">
    <path d="M 335.416441 307.584 
L 335.416441 41.472 
" style="fill: none; stroke: #ffffff; stroke-width: 0.8; stroke-linejoin: miter; stroke-linecap: square"/>
   </g>
   <g id="patch_13">
    <path d="M 136.903559 307.584 
L 335.416441 307.584 
" style="fill: none; stroke: #ffffff; stroke-width: 0.8; stroke-linejoin: miter; stroke-linecap: square"/>
   </g>
   <g id="patch_14">
    <path d="M 136.903559 41.472 
L 335.416441 41.472 
" style="fill: none; stroke: #ffffff; stroke-width: 0.8; stroke-linejoin: miter; stroke-linecap: square"/>
   </g>
   <g id="text_14">
    <text style="fill: #ffffff; font: 12px 'sans-serif'; text-anchor: middle" x="236.16" y="35.472" transform="rotate(-0, 236.16, 35.472)">1X03-90</text>
   </g>
  </g>
 </g>
 <defs>
  <clipPath id="p1d5b8b1879">
   <rect x="136.903559" y="41.472" width="198.512882" height="266.112"/>
  </clipPath>
 </defs>
</svg>
