<?xml version="1.0" encoding="utf-8" standalone="no"?>
<!DOCTYPE svg PUBLIC "-//W3C//DTD SVG 1.1//EN"
  "http://www.w3.org/Graphics/SVG/1.1/DTD/svg11.dtd">
<svg xmlns:xlink="http://www.w3.org/1999/xlink" width="460.8pt" height="345.6pt" viewBox="0 0 460.8 345.6" xmlns="http://www.w3.org/2000/svg" version="1.1">
 <metadata>
  <rdf:RDF xmlns:dc="http://purl.org/dc/elements/1.1/" xmlns:cc="http://creativecommons.org/ns#" xmlns:rdf="http://www.w3.org/1999/02/22-rdf-syntax-ns#">
   <cc:Work>
    <dc:type rdf:resource="http://purl.org/dc/dcmitype/StillImage"/>
    <dc:date>2023-02-18T16:06:03.011380</dc:date>
    <dc:format>image/svg+xml</dc:format>
    <dc:creator>
     <cc:Agent>
      <dc:title>Matplotlib v3.5.1, https://matplotlib.org/</dc:title>
     </cc:Agent>
    </dc:creator>
   </cc:Work>
  </rdf:RDF>
 </metadata>
 <defs>
  <style type="text/css">*{stroke-linejoin: round; stroke-linecap: butt}</style>
 </defs>
 <g id="figure_1">
  <g id="patch_1">
   <path d="M 0 345.6 
L 460.8 345.6 
L 460.8 0 
L 0 0 
z
" style="fill: #2b2b2b"/>
  </g>
  <g id="axes_1">
   <g id="patch_2">
    <path d="M 133.422771 307.584 
L 338.897229 307.584 
L 338.897229 41.472 
L 133.422771 41.472 
z
" style="fill: #2b2b2b"/>
   </g>
   <g id="line2d_1">
    <path d="M 329.557481 264.029156 
L 329.557481 82.631399 
" clip-path="url(#pb9421a4017)" style="fill: none; stroke: #ffcd07; stroke-width: 1.26233; stroke-linecap: round"/>
   </g>
   <g id="line2d_2">
    <path d="M 155.614426 82.631399 
L 155.614426 261.544255 
" clip-path="url(#pb9421a4017)" style="fill: none; stroke: #ffcd07; stroke-width: 1.26233; stroke-linecap: round"/>
   </g>
   <g id="line2d_3">
    <path d="M 197.857739 53.568 
L 287.314167 53.568 
" clip-path="url(#pb9421a4017)" style="fill: none; stroke: #ffcd07; stroke-width: 1.26233; stroke-linecap: round"/>
   </g>
   <g id="line2d_4">
    <path d="M 287.314167 53.568 
L 287.314167 72.691796 
" clip-path="url(#pb9421a4017)" style="fill: none; stroke: #ffcd07; stroke-width: 1.26233; stroke-linecap: round"/>
   </g>
   <g id="line2d_5">
    <path d="M 197.857739 72.691796 
L 197.857739 53.568 
" clip-path="url(#pb9421a4017)" style="fill: none; stroke: #ffcd07; stroke-width: 1.26233; stroke-linecap: round"/>
   </g>
   <g id="patch_3">
    <path d="M 229.962657 91.62674 
C 231.280664 91.62674 232.544866 91.103091 233.476838 90.171119 
C 234.408809 89.239148 234.932459 87.974946 234.932459 86.656939 
C 234.932459 85.338932 234.408809 84.07473 233.476838 83.142758 
C 232.544866 82.210787 231.280664 81.687137 229.962657 81.687137 
C 228.644651 81.687137 227.380449 82.210787 226.448477 83.142758 
C 225.516506 84.07473 224.992856 85.338932 224.992856 86.656939 
C 224.992856 87.974946 225.516506 89.239148 226.448477 90.171119 
C 227.380449 91.103091 228.644651 91.62674 229.962657 91.62674 
L 229.962657 91.62674 
z
" clip-path="url(#pb9421a4017)" style="fill: none; stroke: #ffcd07; stroke-width: 1.26233; stroke-linejoin: miter"/>
   </g>
   <g id="patch_4">
    <path d="M 255.209249 91.62674 
C 256.527256 91.62674 257.791458 91.103091 258.72343 90.171119 
C 259.655401 89.239148 260.179051 87.974946 260.179051 86.656939 
C 260.179051 85.338932 259.655401 84.07473 258.72343 83.142758 
C 257.791458 82.210787 256.527256 81.687137 255.209249 81.687137 
C 253.891243 81.687137 252.627041 82.210787 251.695069 83.142758 
C 250.763097 84.07473 250.239448 85.338932 250.239448 86.656939 
C 250.239448 87.974946 250.763097 89.239148 251.695069 90.171119 
C 252.627041 91.103091 253.891243 91.62674 255.209249 91.62674 
L 255.209249 91.62674 
z
" clip-path="url(#pb9421a4017)" style="fill: none; stroke: #ffcd07; stroke-width: 1.26233; stroke-linejoin: miter"/>
   </g>
   <g id="patch_5">
    <path d="M 229.962657 116.873332 
C 231.280664 116.873332 232.544866 116.349683 233.476838 115.417711 
C 234.408809 114.485739 234.932459 113.221537 234.932459 111.903531 
C 234.932459 110.585524 234.408809 109.321322 233.476838 108.38935 
C 232.544866 107.457379 231.280664 106.933729 229.962657 106.933729 
C 228.644651 106.933729 227.380449 107.457379 226.448477 108.38935 
C 225.516506 109.321322 224.992856 110.585524 224.992856 111.903531 
C 224.992856 113.221537 225.516506 114.485739 226.448477 115.417711 
C 227.380449 116.349683 228.644651 116.873332 229.962657 116.873332 
L 229.962657 116.873332 
z
" clip-path="url(#pb9421a4017)" style="fill: none; stroke: #ffcd07; stroke-width: 1.26233; stroke-linejoin: miter"/>
   </g>
   <g id="patch_6">
    <path d="M 255.209249 116.873332 
C 256.527256 116.873332 257.791458 116.349683 258.72343 115.417711 
C 259.655401 114.485739 260.179051 113.221537 260.179051 111.903531 
C 260.179051 110.585524 259.655401 109.321322 258.72343 108.38935 
C 257.791458 107.457379 256.527256 106.933729 255.209249 106.933729 
C 253.891243 106.933729 252.627041 107.457379 251.695069 108.38935 
C 250.763097 109.321322 250.239448 110.585524 250.239448 111.903531 
C 250.239448 113.221537 250.763097 114.485739 251.695069 115.417711 
C 252.627041 116.349683 253.891243 116.873332 255.209249 116.873332 
L 255.209249 116.873332 
z
" clip-path="url(#pb9421a4017)" style="fill: none; stroke: #ffcd07; stroke-width: 1.26233; stroke-linejoin: miter"/>
   </g>
   <g id="patch_7">
    <path d="M 280.356445 295.488 
C 280.382805 295.488 280.408089 295.477527 280.426729 295.458888 
C 280.445368 295.440248 280.455841 295.414964 280.455841 295.388604 
C 280.455841 295.362244 280.445368 295.33696 280.426729 295.31832 
C 280.408089 295.299681 280.382805 295.289208 280.356445 295.289208 
C 280.330085 295.289208 280.304801 295.299681 280.286162 295.31832 
C 280.267522 295.33696 280.257049 295.362244 280.257049 295.388604 
C 280.257049 295.414964 280.267522 295.440248 280.286162 295.458888 
C 280.304801 295.477527 280.330085 295.488 280.356445 295.488 
L 280.356445 295.488 
z
" clip-path="url(#pb9421a4017)" style="fill: none; stroke: #ffcd07; stroke-width: 0.99396; stroke-linejoin: miter"/>
   </g>
   <g id="line2d_6">
    <path d="M 280.27487 289.051513 
L 284.855857 290.970573 
L 284.855857 290.970573 
L 280.274655 292.889737 
L 280.274655 292.889737 
" clip-path="url(#pb9421a4017)" style="fill: none; stroke: #ffcd07; stroke-width: 0.212071; stroke-linecap: round"/>
   </g>
   <g id="line2d_7">
    <path d="M 285.607351 287.565253 
L 287.898234 294.375989 
L 287.898234 294.375989 
L 290.126942 287.565078 
L 290.126942 287.565078 
" clip-path="url(#pb9421a4017)" style="fill: none; stroke: #ffcd07; stroke-width: 0.212071; stroke-linecap: round"/>
   </g>
   <g id="line2d_8">
    <path d="M 290.909068 294.251822 
L 293.19995 287.441086 
L 293.19995 287.441086 
L 295.428658 294.251998 
L 295.428658 294.251998 
" clip-path="url(#pb9421a4017)" style="fill: none; stroke: #ffcd07; stroke-width: 0.212071; stroke-linecap: round"/>
   </g>
   <g id="line2d_9">
    <path d="M 294.871975 292.580457 
L 291.466725 292.580457 
" clip-path="url(#pb9421a4017)" style="fill: none; stroke: #ffcd07; stroke-width: 0.212071; stroke-linecap: round"/>
   </g>
   <g id="line2d_10">
    <path d="M 296.953799 287.565289 
L 296.953799 294.375789 
L 299.987567 294.375789 
" clip-path="url(#pb9421a4017)" style="fill: none; stroke: #ffcd07; stroke-width: 0.212071; stroke-linecap: round"/>
   </g>
   <g id="line2d_11">
    <path d="M 301.884232 287.565577 
L 301.884232 292.456754 
L 301.884232 292.456754 
L 302.00806 293.075891 
L 302.00806 293.075891 
L 302.255714 293.5712 
L 302.68911 294.004595 
L 303.184419 294.314163 
L 303.803555 294.376077 
L 304.360778 294.314163 
L 304.918001 294.004595 
L 305.351396 293.5712 
L 305.599051 293.075891 
L 305.660964 292.456754 
L 305.660964 287.565577 
" clip-path="url(#pb9421a4017)" style="fill: none; stroke: #ffcd07; stroke-width: 0.212071; stroke-linecap: round"/>
   </g>
   <g id="line2d_12">
    <path d="M 310.591266 294.375822 
L 307.557498 294.375822 
L 307.557498 287.565322 
L 310.591266 287.565322 
" clip-path="url(#pb9421a4017)" style="fill: none; stroke: #ffcd07; stroke-width: 0.212071; stroke-linecap: round"/>
   </g>
   <g id="line2d_13">
    <path d="M 307.557621 290.599251 
L 309.848425 290.599251 
" clip-path="url(#pb9421a4017)" style="fill: none; stroke: #ffcd07; stroke-width: 0.212071; stroke-linecap: round"/>
   </g>
   <g id="patch_8">
    <path d="M 145.287179 98.465187 
C 145.956726 98.465187 146.598941 98.199173 147.072382 97.725732 
C 147.545824 97.25229 147.811838 96.610075 147.811838 95.940528 
C 147.811838 95.270981 147.545824 94.628766 147.072382 94.155324 
C 146.598941 93.681883 145.956726 93.415869 145.287179 93.415869 
C 144.617631 93.415869 143.975417 93.681883 143.501975 94.155324 
C 143.028533 94.628766 142.762519 95.270981 142.762519 95.940528 
C 142.762519 96.610075 143.028533 97.25229 143.501975 97.725732 
C 143.975417 98.199173 144.617631 98.465187 145.287179 98.465187 
L 145.287179 98.465187 
z
" clip-path="url(#pb9421a4017)" style="fill: none"/>
   </g>
   <g id="patch_9">
    <path d="M 166.846178 295.040718 
C 166.872538 295.040718 166.897822 295.030245 166.916461 295.011605 
C 166.935101 294.992966 166.945574 294.967682 166.945574 294.941322 
C 166.945574 294.914962 166.935101 294.889678 166.916461 294.871038 
C 166.897822 294.852399 166.872538 294.841926 166.846178 294.841926 
C 166.819818 294.841926 166.794534 294.852399 166.775894 294.871038 
C 166.757255 294.889678 166.746782 294.914962 166.746782 294.941322 
C 166.746782 294.967682 166.757255 294.992966 166.775894 295.011605 
C 166.794534 295.030245 166.819818 295.040718 166.846178 295.040718 
L 166.846178 295.040718 
z
" clip-path="url(#pb9421a4017)" style="fill: none; stroke: #808080; stroke-width: 0.99396; stroke-linejoin: miter"/>
   </g>
   <g id="line2d_14">
    <path d="M 166.764602 288.604231 
L 171.345589 290.523291 
L 171.345589 290.523291 
L 166.764388 292.442455 
L 166.764388 292.442455 
" clip-path="url(#pb9421a4017)" style="fill: none; stroke: #808080; stroke-width: 0.212071; stroke-linecap: round"/>
   </g>
   <g id="line2d_15">
    <path d="M 172.469006 293.9283 
L 172.469006 287.1178 
L 176.245738 293.9283 
L 176.245738 287.1178 
" clip-path="url(#pb9421a4017)" style="fill: none; stroke: #808080; stroke-width: 0.212071; stroke-linecap: round"/>
   </g>
   <g id="line2d_16">
    <path d="M 177.3988 293.80454 
L 179.689683 286.993804 
L 179.689683 286.993804 
L 181.918391 293.804716 
L 181.918391 293.804716 
" clip-path="url(#pb9421a4017)" style="fill: none; stroke: #808080; stroke-width: 0.212071; stroke-linecap: round"/>
   </g>
   <g id="line2d_17">
    <path d="M 181.361708 292.133175 
L 177.956457 292.133175 
" clip-path="url(#pb9421a4017)" style="fill: none; stroke: #808080; stroke-width: 0.212071; stroke-linecap: round"/>
   </g>
   <g id="line2d_18">
    <path d="M 182.701032 293.928502 
L 182.701032 287.118001 
L 184.929923 290.894733 
L 184.929923 290.894733 
L 187.220727 287.118001 
L 187.220727 287.118001 
L 187.220727 293.928502 
" clip-path="url(#pb9421a4017)" style="fill: none; stroke: #808080; stroke-width: 0.212071; stroke-linecap: round"/>
   </g>
   <g id="line2d_19">
    <path d="M 191.779214 293.92854 
L 188.745446 293.92854 
L 188.745446 287.11804 
L 191.779214 287.11804 
" clip-path="url(#pb9421a4017)" style="fill: none; stroke: #808080; stroke-width: 0.212071; stroke-linecap: round"/>
   </g>
   <g id="line2d_20">
    <path d="M 188.745569 290.151969 
L 191.036374 290.151969 
" clip-path="url(#pb9421a4017)" style="fill: none; stroke: #808080; stroke-width: 0.212071; stroke-linecap: round"/>
   </g>
   <g id="line2d_21">
    <path d="M 155.614426 276.45366 
L 329.557481 276.45366 
" clip-path="url(#pb9421a4017)" style="fill: none; stroke: #808080; stroke-width: 1.26233; stroke-linecap: round"/>
   </g>
   <g id="line2d_22">
    <path d="M 329.557481 276.45366 
L 329.557481 264.029156 
" clip-path="url(#pb9421a4017)" style="fill: none; stroke: #808080; stroke-width: 1.26233; stroke-linecap: round"/>
   </g>
   <g id="line2d_23">
    <path d="M 329.557481 82.631399 
L 329.557481 67.721995 
" clip-path="url(#pb9421a4017)" style="fill: none; stroke: #808080; stroke-width: 1.26233; stroke-linecap: round"/>
   </g>
   <g id="line2d_24">
    <path d="M 329.557481 67.721995 
L 165.554029 67.721995 
" clip-path="url(#pb9421a4017)" style="fill: none; stroke: #808080; stroke-width: 1.26233; stroke-linecap: round"/>
   </g>
   <g id="line2d_25">
    <path d="M 155.614426 77.661598 
L 155.614426 82.631399 
" clip-path="url(#pb9421a4017)" style="fill: none; stroke: #808080; stroke-width: 1.26233; stroke-linecap: round"/>
   </g>
   <g id="line2d_26">
    <path d="M 155.614426 261.544255 
L 155.614426 276.45366 
" clip-path="url(#pb9421a4017)" style="fill: none; stroke: #808080; stroke-width: 1.26233; stroke-linecap: round"/>
   </g>
   <g id="line2d_27">
    <path d="M 287.314167 72.691796 
L 287.314167 126.643962 
" clip-path="url(#pb9421a4017)" style="fill: none; stroke: #808080; stroke-width: 1.26233; stroke-linecap: round"/>
   </g>
   <g id="line2d_28">
    <path d="M 287.314167 126.643962 
L 197.857739 126.643962 
" clip-path="url(#pb9421a4017)" style="fill: none; stroke: #808080; stroke-width: 1.26233; stroke-linecap: round"/>
   </g>
   <g id="line2d_29">
    <path d="M 197.857739 126.643962 
L 197.857739 72.691796 
" clip-path="url(#pb9421a4017)" style="fill: none; stroke: #808080; stroke-width: 1.26233; stroke-linecap: round"/>
   </g>
   <g id="line2d_30">
    <path d="M 155.614426 77.661598 
L 165.554029 67.721995 
" clip-path="url(#pb9421a4017)" style="fill: none; stroke: #808080; stroke-width: 1.26233; stroke-linecap: round"/>
   </g>
   <g id="patch_10">
    <path d="M 166.846178 106.287655 
C 169.482191 106.287655 172.010595 105.240356 173.874538 103.376413 
C 175.738482 101.512469 176.785781 98.984065 176.785781 96.348052 
C 176.785781 93.712038 175.738482 91.183634 173.874538 89.319691 
C 172.010595 87.455748 169.482191 86.408449 166.846178 86.408449 
C 164.210164 86.408449 161.68176 87.455748 159.817817 89.319691 
C 157.953874 91.183634 156.906575 93.712038 156.906575 96.348052 
C 156.906575 98.984065 157.953874 101.512469 159.817817 103.376413 
C 161.68176 105.240356 164.210164 106.287655 166.846178 106.287655 
z
" clip-path="url(#pb9421a4017)" style="fill: #0dab76"/>
   </g>
   <g id="patch_11">
    <path d="M 166.846178 101.317853 
C 168.164185 101.317853 169.428387 100.794204 170.360358 99.862232 
C 171.29233 98.930261 171.815979 97.666059 171.815979 96.348052 
C 171.815979 95.030045 171.29233 93.765843 170.360358 92.833871 
C 169.428387 91.9019 168.164185 91.37825 166.846178 91.37825 
C 165.528171 91.37825 164.263969 91.9019 163.331997 92.833871 
C 162.400026 93.765843 161.876376 95.030045 161.876376 96.348052 
C 161.876376 97.666059 162.400026 98.930261 163.331997 99.862232 
C 164.263969 100.794204 165.528171 101.317853 166.846178 101.317853 
z
" clip-path="url(#pb9421a4017)" style="fill: #a0a0a0"/>
   </g>
   <g id="patch_12">
    <path d="M 166.846178 131.534247 
C 169.482191 131.534247 172.010595 130.486947 173.874538 128.623004 
C 175.738482 126.759061 176.785781 124.230657 176.785781 121.594644 
C 176.785781 118.95863 175.738482 116.430226 173.874538 114.566283 
C 172.010595 112.70234 169.482191 111.655041 166.846178 111.655041 
C 164.210164 111.655041 161.68176 112.70234 159.817817 114.566283 
C 157.953874 116.430226 156.906575 118.95863 156.906575 121.594644 
C 156.906575 124.230657 157.953874 126.759061 159.817817 128.623004 
C 161.68176 130.486947 164.210164 131.534247 166.846178 131.534247 
z
" clip-path="url(#pb9421a4017)" style="fill: #0dab76"/>
   </g>
   <g id="patch_13">
    <path d="M 166.846178 126.564445 
C 168.164185 126.564445 169.428387 126.040796 170.360358 125.108824 
C 171.29233 124.176853 171.815979 122.91265 171.815979 121.594644 
C 171.815979 120.276637 171.29233 119.012435 170.360358 118.080463 
C 169.428387 117.148492 168.164185 116.624842 166.846178 116.624842 
C 165.528171 116.624842 164.263969 117.148492 163.331997 118.080463 
C 162.400026 119.012435 161.876376 120.276637 161.876376 121.594644 
C 161.876376 122.91265 162.400026 124.176853 163.331997 125.108824 
C 164.263969 126.040796 165.528171 126.564445 166.846178 126.564445 
z
" clip-path="url(#pb9421a4017)" style="fill: #a0a0a0"/>
   </g>
   <g id="patch_14">
    <path d="M 166.846178 156.780839 
C 169.482191 156.780839 172.010595 155.733539 173.874538 153.869596 
C 175.738482 152.005653 176.785781 149.477249 176.785781 146.841236 
C 176.785781 144.205222 175.738482 141.676818 173.874538 139.812875 
C 172.010595 137.948932 169.482191 136.901632 166.846178 136.901632 
C 164.210164 136.901632 161.68176 137.948932 159.817817 139.812875 
C 157.953874 141.676818 156.906575 144.205222 156.906575 146.841236 
C 156.906575 149.477249 157.953874 152.005653 159.817817 153.869596 
C 161.68176 155.733539 164.210164 156.780839 166.846178 156.780839 
z
" clip-path="url(#pb9421a4017)" style="fill: #0dab76"/>
   </g>
   <g id="patch_15">
    <path d="M 166.846178 151.811037 
C 168.164185 151.811037 169.428387 151.287387 170.360358 150.355416 
C 171.29233 149.423444 171.815979 148.159242 171.815979 146.841236 
C 171.815979 145.523229 171.29233 144.259027 170.360358 143.327055 
C 169.428387 142.395084 168.164185 141.871434 166.846178 141.871434 
C 165.528171 141.871434 164.263969 142.395084 163.331997 143.327055 
C 162.400026 144.259027 161.876376 145.523229 161.876376 146.841236 
C 161.876376 148.159242 162.400026 149.423444 163.331997 150.355416 
C 164.263969 151.287387 165.528171 151.811037 166.846178 151.811037 
z
" clip-path="url(#pb9421a4017)" style="fill: #a0a0a0"/>
   </g>
   <g id="patch_16">
    <path d="M 166.846178 182.027431 
C 169.482191 182.027431 172.010595 180.980131 173.874538 179.116188 
C 175.738482 177.252245 176.785781 174.723841 176.785781 172.087827 
C 176.785781 169.451814 175.738482 166.92341 173.874538 165.059467 
C 172.010595 163.195524 169.482191 162.148224 166.846178 162.148224 
C 164.210164 162.148224 161.68176 163.195524 159.817817 165.059467 
C 157.953874 166.92341 156.906575 169.451814 156.906575 172.087827 
C 156.906575 174.723841 157.953874 177.252245 159.817817 179.116188 
C 161.68176 180.980131 164.210164 182.027431 166.846178 182.027431 
z
" clip-path="url(#pb9421a4017)" style="fill: #0dab76"/>
   </g>
   <g id="patch_17">
    <path d="M 166.846178 177.057629 
C 168.164185 177.057629 169.428387 176.533979 170.360358 175.602008 
C 171.29233 174.670036 171.815979 173.405834 171.815979 172.087827 
C 171.815979 170.769821 171.29233 169.505619 170.360358 168.573647 
C 169.428387 167.641676 168.164185 167.118026 166.846178 167.118026 
C 165.528171 167.118026 164.263969 167.641676 163.331997 168.573647 
C 162.400026 169.505619 161.876376 170.769821 161.876376 172.087827 
C 161.876376 173.405834 162.400026 174.670036 163.331997 175.602008 
C 164.263969 176.533979 165.528171 177.057629 166.846178 177.057629 
z
" clip-path="url(#pb9421a4017)" style="fill: #a0a0a0"/>
   </g>
   <g id="patch_18">
    <path d="M 166.846178 207.274022 
C 169.482191 207.274022 172.010595 206.226723 173.874538 204.36278 
C 175.738482 202.498837 176.785781 199.970433 176.785781 197.334419 
C 176.785781 194.698406 175.738482 192.170002 173.874538 190.306059 
C 172.010595 188.442116 169.482191 187.394816 166.846178 187.394816 
C 164.210164 187.394816 161.68176 188.442116 159.817817 190.306059 
C 157.953874 192.170002 156.906575 194.698406 156.906575 197.334419 
C 156.906575 199.970433 157.953874 202.498837 159.817817 204.36278 
C 161.68176 206.226723 164.210164 207.274022 166.846178 207.274022 
z
" clip-path="url(#pb9421a4017)" style="fill: #0dab76"/>
   </g>
   <g id="patch_19">
    <path d="M 166.846178 202.304221 
C 168.164185 202.304221 169.428387 201.780571 170.360358 200.8486 
C 171.29233 199.916628 171.815979 198.652426 171.815979 197.334419 
C 171.815979 196.016413 171.29233 194.75221 170.360358 193.820239 
C 169.428387 192.888267 168.164185 192.364618 166.846178 192.364618 
C 165.528171 192.364618 164.263969 192.888267 163.331997 193.820239 
C 162.400026 194.75221 161.876376 196.016413 161.876376 197.334419 
C 161.876376 198.652426 162.400026 199.916628 163.331997 200.8486 
C 164.263969 201.780571 165.528171 202.304221 166.846178 202.304221 
z
" clip-path="url(#pb9421a4017)" style="fill: #a0a0a0"/>
   </g>
   <g id="patch_20">
    <path d="M 166.846178 232.520614 
C 169.482191 232.520614 172.010595 231.473315 173.874538 229.609372 
C 175.738482 227.745429 176.785781 225.217025 176.785781 222.581011 
C 176.785781 219.944998 175.738482 217.416594 173.874538 215.55265 
C 172.010595 213.688707 169.482191 212.641408 166.846178 212.641408 
C 164.210164 212.641408 161.68176 213.688707 159.817817 215.55265 
C 157.953874 217.416594 156.906575 219.944998 156.906575 222.581011 
C 156.906575 225.217025 157.953874 227.745429 159.817817 229.609372 
C 161.68176 231.473315 164.210164 232.520614 166.846178 232.520614 
z
" clip-path="url(#pb9421a4017)" style="fill: #0dab76"/>
   </g>
   <g id="patch_21">
    <path d="M 166.846178 227.550813 
C 168.164185 227.550813 169.428387 227.027163 170.360358 226.095192 
C 171.29233 225.16322 171.815979 223.899018 171.815979 222.581011 
C 171.815979 221.263004 171.29233 219.998802 170.360358 219.066831 
C 169.428387 218.134859 168.164185 217.61121 166.846178 217.61121 
C 165.528171 217.61121 164.263969 218.134859 163.331997 219.066831 
C 162.400026 219.998802 161.876376 221.263004 161.876376 222.581011 
C 161.876376 223.899018 162.400026 225.16322 163.331997 226.095192 
C 164.263969 227.027163 165.528171 227.550813 166.846178 227.550813 
z
" clip-path="url(#pb9421a4017)" style="fill: #a0a0a0"/>
   </g>
   <g id="patch_22">
    <path d="M 166.846178 257.767206 
C 169.482191 257.767206 172.010595 256.719907 173.874538 254.855964 
C 175.738482 252.992021 176.785781 250.463617 176.785781 247.827603 
C 176.785781 245.19159 175.738482 242.663185 173.874538 240.799242 
C 172.010595 238.935299 169.482191 237.888 166.846178 237.888 
C 164.210164 237.888 161.68176 238.935299 159.817817 240.799242 
C 157.953874 242.663185 156.906575 245.19159 156.906575 247.827603 
C 156.906575 250.463617 157.953874 252.992021 159.817817 254.855964 
C 161.68176 256.719907 164.210164 257.767206 166.846178 257.767206 
z
" clip-path="url(#pb9421a4017)" style="fill: #0dab76"/>
   </g>
   <g id="patch_23">
    <path d="M 166.846178 252.797405 
C 168.164185 252.797405 169.428387 252.273755 170.360358 251.341783 
C 171.29233 250.409812 171.815979 249.14561 171.815979 247.827603 
C 171.815979 246.509596 171.29233 245.245394 170.360358 244.313423 
C 169.428387 243.381451 168.164185 242.857802 166.846178 242.857802 
C 165.528171 242.857802 164.263969 243.381451 163.331997 244.313423 
C 162.400026 245.245394 161.876376 246.509596 161.876376 247.827603 
C 161.876376 249.14561 162.400026 250.409812 163.331997 251.341783 
C 164.263969 252.273755 165.528171 252.797405 166.846178 252.797405 
z
" clip-path="url(#pb9421a4017)" style="fill: #a0a0a0"/>
   </g>
   <g id="patch_24">
    <path d="M 318.325729 257.767206 
C 320.961743 257.767206 323.490147 256.719907 325.35409 254.855964 
C 327.218033 252.992021 328.265332 250.463617 328.265332 247.827603 
C 328.265332 245.19159 327.218033 242.663185 325.35409 240.799242 
C 323.490147 238.935299 320.961743 237.888 318.325729 237.888 
C 315.689716 237.888 313.161311 238.935299 311.297368 240.799242 
C 309.433425 242.663185 308.386126 245.19159 308.386126 247.827603 
C 308.386126 250.463617 309.433425 252.992021 311.297368 254.855964 
C 313.161311 256.719907 315.689716 257.767206 318.325729 257.767206 
z
" clip-path="url(#pb9421a4017)" style="fill: #0dab76"/>
   </g>
   <g id="patch_25">
    <path d="M 318.325729 252.797405 
C 319.643736 252.797405 320.907938 252.273755 321.839909 251.341783 
C 322.771881 250.409812 323.295531 249.14561 323.295531 247.827603 
C 323.295531 246.509596 322.771881 245.245394 321.839909 244.313423 
C 320.907938 243.381451 319.643736 242.857802 318.325729 242.857802 
C 317.007722 242.857802 315.74352 243.381451 314.811549 244.313423 
C 313.879577 245.245394 313.355928 246.509596 313.355928 247.827603 
C 313.355928 249.14561 313.879577 250.409812 314.811549 251.341783 
C 315.74352 252.273755 317.007722 252.797405 318.325729 252.797405 
z
" clip-path="url(#pb9421a4017)" style="fill: #a0a0a0"/>
   </g>
   <g id="patch_26">
    <path d="M 318.325729 232.520614 
C 320.961743 232.520614 323.490147 231.473315 325.35409 229.609372 
C 327.218033 227.745429 328.265332 225.217025 328.265332 222.581011 
C 328.265332 219.944998 327.218033 217.416594 325.35409 215.55265 
C 323.490147 213.688707 320.961743 212.641408 318.325729 212.641408 
C 315.689716 212.641408 313.161311 213.688707 311.297368 215.55265 
C 309.433425 217.416594 308.386126 219.944998 308.386126 222.581011 
C 308.386126 225.217025 309.433425 227.745429 311.297368 229.609372 
C 313.161311 231.473315 315.689716 232.520614 318.325729 232.520614 
z
" clip-path="url(#pb9421a4017)" style="fill: #0dab76"/>
   </g>
   <g id="patch_27">
    <path d="M 318.325729 227.550813 
C 319.643736 227.550813 320.907938 227.027163 321.839909 226.095192 
C 322.771881 225.16322 323.295531 223.899018 323.295531 222.581011 
C 323.295531 221.263004 322.771881 219.998802 321.839909 219.066831 
C 320.907938 218.134859 319.643736 217.61121 318.325729 217.61121 
C 317.007722 217.61121 315.74352 218.134859 314.811549 219.066831 
C 313.879577 219.998802 313.355928 221.263004 313.355928 222.581011 
C 313.355928 223.899018 313.879577 225.16322 314.811549 226.095192 
C 315.74352 227.027163 317.007722 227.550813 318.325729 227.550813 
z
" clip-path="url(#pb9421a4017)" style="fill: #a0a0a0"/>
   </g>
   <g id="patch_28">
    <path d="M 318.325729 207.274022 
C 320.961743 207.274022 323.490147 206.226723 325.35409 204.36278 
C 327.218033 202.498837 328.265332 199.970433 328.265332 197.334419 
C 328.265332 194.698406 327.218033 192.170002 325.35409 190.306059 
C 323.490147 188.442116 320.961743 187.394816 318.325729 187.394816 
C 315.689716 187.394816 313.161311 188.442116 311.297368 190.306059 
C 309.433425 192.170002 308.386126 194.698406 308.386126 197.334419 
C 308.386126 199.970433 309.433425 202.498837 311.297368 204.36278 
C 313.161311 206.226723 315.689716 207.274022 318.325729 207.274022 
z
" clip-path="url(#pb9421a4017)" style="fill: #0dab76"/>
   </g>
   <g id="patch_29">
    <path d="M 318.325729 202.304221 
C 319.643736 202.304221 320.907938 201.780571 321.839909 200.8486 
C 322.771881 199.916628 323.295531 198.652426 323.295531 197.334419 
C 323.295531 196.016413 322.771881 194.75221 321.839909 193.820239 
C 320.907938 192.888267 319.643736 192.364618 318.325729 192.364618 
C 317.007722 192.364618 315.74352 192.888267 314.811549 193.820239 
C 313.879577 194.75221 313.355928 196.016413 313.355928 197.334419 
C 313.355928 198.652426 313.879577 199.916628 314.811549 200.8486 
C 315.74352 201.780571 317.007722 202.304221 318.325729 202.304221 
z
" clip-path="url(#pb9421a4017)" style="fill: #a0a0a0"/>
   </g>
   <g id="patch_30">
    <path d="M 318.325729 182.027431 
C 320.961743 182.027431 323.490147 180.980131 325.35409 179.116188 
C 327.218033 177.252245 328.265332 174.723841 328.265332 172.087827 
C 328.265332 169.451814 327.218033 166.92341 325.35409 165.059467 
C 323.490147 163.195524 320.961743 162.148224 318.325729 162.148224 
C 315.689716 162.148224 313.161311 163.195524 311.297368 165.059467 
C 309.433425 166.92341 308.386126 169.451814 308.386126 172.087827 
C 308.386126 174.723841 309.433425 177.252245 311.297368 179.116188 
C 313.161311 180.980131 315.689716 182.027431 318.325729 182.027431 
z
" clip-path="url(#pb9421a4017)" style="fill: #0dab76"/>
   </g>
   <g id="patch_31">
    <path d="M 318.325729 177.057629 
C 319.643736 177.057629 320.907938 176.533979 321.839909 175.602008 
C 322.771881 174.670036 323.295531 173.405834 323.295531 172.087827 
C 323.295531 170.769821 322.771881 169.505619 321.839909 168.573647 
C 320.907938 167.641676 319.643736 167.118026 318.325729 167.118026 
C 317.007722 167.118026 315.74352 167.641676 314.811549 168.573647 
C 313.879577 169.505619 313.355928 170.769821 313.355928 172.087827 
C 313.355928 173.405834 313.879577 174.670036 314.811549 175.602008 
C 315.74352 176.533979 317.007722 177.057629 318.325729 177.057629 
z
" clip-path="url(#pb9421a4017)" style="fill: #a0a0a0"/>
   </g>
   <g id="patch_32">
    <path d="M 318.325729 156.780839 
C 320.961743 156.780839 323.490147 155.733539 325.35409 153.869596 
C 327.218033 152.005653 328.265332 149.477249 328.265332 146.841236 
C 328.265332 144.205222 327.218033 141.676818 325.35409 139.812875 
C 323.490147 137.948932 320.961743 136.901632 318.325729 136.901632 
C 315.689716 136.901632 313.161311 137.948932 311.297368 139.812875 
C 309.433425 141.676818 308.386126 144.205222 308.386126 146.841236 
C 308.386126 149.477249 309.433425 152.005653 311.297368 153.869596 
C 313.161311 155.733539 315.689716 156.780839 318.325729 156.780839 
z
" clip-path="url(#pb9421a4017)" style="fill: #0dab76"/>
   </g>
   <g id="patch_33">
    <path d="M 318.325729 151.811037 
C 319.643736 151.811037 320.907938 151.287387 321.839909 150.355416 
C 322.771881 149.423444 323.295531 148.159242 323.295531 146.841236 
C 323.295531 145.523229 322.771881 144.259027 321.839909 143.327055 
C 320.907938 142.395084 319.643736 141.871434 318.325729 141.871434 
C 317.007722 141.871434 315.74352 142.395084 314.811549 143.327055 
C 313.879577 144.259027 313.355928 145.523229 313.355928 146.841236 
C 313.355928 148.159242 313.879577 149.423444 314.811549 150.355416 
C 315.74352 151.287387 317.007722 151.811037 318.325729 151.811037 
z
" clip-path="url(#pb9421a4017)" style="fill: #a0a0a0"/>
   </g>
   <g id="patch_34">
    <path d="M 318.325729 131.534247 
C 320.961743 131.534247 323.490147 130.486947 325.35409 128.623004 
C 327.218033 126.759061 328.265332 124.230657 328.265332 121.594644 
C 328.265332 118.95863 327.218033 116.430226 325.35409 114.566283 
C 323.490147 112.70234 320.961743 111.655041 318.325729 111.655041 
C 315.689716 111.655041 313.161311 112.70234 311.297368 114.566283 
C 309.433425 116.430226 308.386126 118.95863 308.386126 121.594644 
C 308.386126 124.230657 309.433425 126.759061 311.297368 128.623004 
C 313.161311 130.486947 315.689716 131.534247 318.325729 131.534247 
z
" clip-path="url(#pb9421a4017)" style="fill: #0dab76"/>
   </g>
   <g id="patch_35">
    <path d="M 318.325729 126.564445 
C 319.643736 126.564445 320.907938 126.040796 321.839909 125.108824 
C 322.771881 124.176853 323.295531 122.91265 323.295531 121.594644 
C 323.295531 120.276637 322.771881 119.012435 321.839909 118.080463 
C 320.907938 117.148492 319.643736 116.624842 318.325729 116.624842 
C 317.007722 116.624842 315.74352 117.148492 314.811549 118.080463 
C 313.879577 119.012435 313.355928 120.276637 313.355928 121.594644 
C 313.355928 122.91265 313.879577 124.176853 314.811549 125.108824 
C 315.74352 126.040796 317.007722 126.564445 318.325729 126.564445 
z
" clip-path="url(#pb9421a4017)" style="fill: #a0a0a0"/>
   </g>
   <g id="patch_36">
    <path d="M 318.325729 106.287655 
C 320.961743 106.287655 323.490147 105.240356 325.35409 103.376413 
C 327.218033 101.512469 328.265332 98.984065 328.265332 96.348052 
C 328.265332 93.712038 327.218033 91.183634 325.35409 89.319691 
C 323.490147 87.455748 320.961743 86.408449 318.325729 86.408449 
C 315.689716 86.408449 313.161311 87.455748 311.297368 89.319691 
C 309.433425 91.183634 308.386126 93.712038 308.386126 96.348052 
C 308.386126 98.984065 309.433425 101.512469 311.297368 103.376413 
C 313.161311 105.240356 315.689716 106.287655 318.325729 106.287655 
z
" clip-path="url(#pb9421a4017)" style="fill: #0dab76"/>
   </g>
   <g id="patch_37">
    <path d="M 318.325729 101.317853 
C 319.643736 101.317853 320.907938 100.794204 321.839909 99.862232 
C 322.771881 98.930261 323.295531 97.666059 323.295531 96.348052 
C 323.295531 95.030045 322.771881 93.765843 321.839909 92.833871 
C 320.907938 91.9019 319.643736 91.37825 318.325729 91.37825 
C 317.007722 91.37825 315.74352 91.9019 314.811549 92.833871 
C 313.879577 93.765843 313.355928 95.030045 313.355928 96.348052 
C 313.355928 97.666059 313.879577 98.930261 314.811549 99.862232 
C 315.74352 100.794204 317.007722 101.317853 318.325729 101.317853 
z
" clip-path="url(#pb9421a4017)" style="fill: #a0a0a0"/>
   </g>
   <g id="matplotlib.axis_1">
    <g id="xtick_1">
     <g id="line2d_31">
      <defs>
       <path id="me57bc85492" d="M 0 0 
L 0 3.5 
" style="stroke: #ffffff; stroke-width: 0.8"/>
      </defs>
      <g>
       <use xlink:href="#me57bc85492" x="143.189922" y="307.584" style="fill: #ffffff; stroke: #ffffff; stroke-width: 0.8"/>
      </g>
     </g>
     <g id="text_1">
      <text style="fill: #ffffff; font: 10px 'sans-serif'; text-anchor: middle" x="143.189922" y="322.182437" transform="rotate(-0, 143.189922, 322.182437)">−10</text>
     </g>
    </g>
    <g id="xtick_2">
     <g id="line2d_32">
      <g>
       <use xlink:href="#me57bc85492" x="192.887938" y="307.584" style="fill: #ffffff; stroke: #ffffff; stroke-width: 0.8"/>
      </g>
     </g>
     <g id="text_2">
      <text style="fill: #ffffff; font: 10px 'sans-serif'; text-anchor: middle" x="192.887938" y="322.182437" transform="rotate(-0, 192.887938, 322.182437)">−5</text>
     </g>
    </g>
    <g id="xtick_3">
     <g id="line2d_33">
      <g>
       <use xlink:href="#me57bc85492" x="242.585953" y="307.584" style="fill: #ffffff; stroke: #ffffff; stroke-width: 0.8"/>
      </g>
     </g>
     <g id="text_3">
      <text style="fill: #ffffff; font: 10px 'sans-serif'; text-anchor: middle" x="242.585953" y="322.182437" transform="rotate(-0, 242.585953, 322.182437)">0</text>
     </g>
    </g>
    <g id="xtick_4">
     <g id="line2d_34">
      <g>
       <use xlink:href="#me57bc85492" x="292.283969" y="307.584" style="fill: #ffffff; stroke: #ffffff; stroke-width: 0.8"/>
      </g>
     </g>
     <g id="text_4">
      <text style="fill: #ffffff; font: 10px 'sans-serif'; text-anchor: middle" x="292.283969" y="322.182437" transform="rotate(-0, 292.283969, 322.182437)">5</text>
     </g>
    </g>
   </g>
   <g id="matplotlib.axis_2">
    <g id="ytick_1">
     <g id="line2d_35">
      <defs>
       <path id="mf21381c5cd" d="M 0 0 
L -3.5 0 
" style="stroke: #ffffff; stroke-width: 0.8"/>
      </defs>
      <g>
       <use xlink:href="#mf21381c5cd" x="133.422771" y="266.514057" style="fill: #ffffff; stroke: #ffffff; stroke-width: 0.8"/>
      </g>
     </g>
     <g id="text_5">
      <text style="fill: #ffffff; font: 10px 'sans-serif'; text-anchor: end" x="126.422771" y="270.313276" transform="rotate(-0, 126.422771, 270.313276)">−20</text>
     </g>
    </g>
    <g id="ytick_2">
     <g id="line2d_36">
      <g>
       <use xlink:href="#mf21381c5cd" x="133.422771" y="216.816041" style="fill: #ffffff; stroke: #ffffff; stroke-width: 0.8"/>
      </g>
     </g>
     <g id="text_6">
      <text style="fill: #ffffff; font: 10px 'sans-serif'; text-anchor: end" x="126.422771" y="220.61526" transform="rotate(-0, 126.422771, 220.61526)">−15</text>
     </g>
    </g>
    <g id="ytick_3">
     <g id="line2d_37">
      <g>
       <use xlink:href="#mf21381c5cd" x="133.422771" y="167.118026" style="fill: #ffffff; stroke: #ffffff; stroke-width: 0.8"/>
      </g>
     </g>
     <g id="text_7">
      <text style="fill: #ffffff; font: 10px 'sans-serif'; text-anchor: end" x="126.422771" y="170.917245" transform="rotate(-0, 126.422771, 170.917245)">−10</text>
     </g>
    </g>
    <g id="ytick_4">
     <g id="line2d_38">
      <g>
       <use xlink:href="#mf21381c5cd" x="133.422771" y="117.42001" style="fill: #ffffff; stroke: #ffffff; stroke-width: 0.8"/>
      </g>
     </g>
     <g id="text_8">
      <text style="fill: #ffffff; font: 10px 'sans-serif'; text-anchor: end" x="126.422771" y="121.219229" transform="rotate(-0, 126.422771, 121.219229)">−5</text>
     </g>
    </g>
    <g id="ytick_5">
     <g id="line2d_39">
      <g>
       <use xlink:href="#mf21381c5cd" x="133.422771" y="67.721995" style="fill: #ffffff; stroke: #ffffff; stroke-width: 0.8"/>
      </g>
     </g>
     <g id="text_9">
      <text style="fill: #ffffff; font: 10px 'sans-serif'; text-anchor: end" x="126.422771" y="71.521214" transform="rotate(-0, 126.422771, 71.521214)">0</text>
     </g>
    </g>
   </g>
   <g id="patch_38">
    <path d="M 133.422771 307.584 
L 133.422771 41.472 
" style="fill: none; stroke: #ffffff; stroke-width: 0.8; stroke-linejoin: miter; stroke-linecap: square"/>
   </g>
   <g id="patch_39">
    <path d="M 338.897229 307.584 
L 338.897229 41.472 
" style="fill: none; stroke: #ffffff; stroke-width: 0.8; stroke-linejoin: miter; stroke-linecap: square"/>
   </g>
   <g id="patch_40">
    <path d="M 133.422771 307.584 
L 338.897229 307.584 
" style="fill: none; stroke: #ffffff; stroke-width: 0.8; stroke-linejoin: miter; stroke-linecap: square"/>
   </g>
   <g id="patch_41">
    <path d="M 133.422771 41.472 
L 338.897229 41.472 
" style="fill: none; stroke: #ffffff; stroke-width: 0.8; stroke-linejoin: miter; stroke-linecap: square"/>
   </g>
   <g id="text_10">
    <text style="fill: #ffffff; font: 12px 'sans-serif'; text-anchor: middle" x="236.16" y="35.472" transform="rotate(-0, 236.16, 35.472)">MOUDLE14P-2.54-21X17.8MM-HOLE</text>
   </g>
  </g>
 </g>
 <defs>
  <clipPath id="pb9421a4017">
   <rect x="133.422771" y="41.472" width="205.474457" height="266.112"/>
  </clipPath>
 </defs>
</svg>
