<?xml version="1.0" encoding="utf-8" standalone="no"?>
<!DOCTYPE svg PUBLIC "-//W3C//DTD SVG 1.1//EN"
  "http://www.w3.org/Graphics/SVG/1.1/DTD/svg11.dtd">
<svg xmlns:xlink="http://www.w3.org/1999/xlink" width="460.8pt" height="345.6pt" viewBox="0 0 460.8 345.6" xmlns="http://www.w3.org/2000/svg" version="1.1">
 <metadata>
  <rdf:RDF xmlns:dc="http://purl.org/dc/elements/1.1/" xmlns:cc="http://creativecommons.org/ns#" xmlns:rdf="http://www.w3.org/1999/02/22-rdf-syntax-ns#">
   <cc:Work>
    <dc:type rdf:resource="http://purl.org/dc/dcmitype/StillImage"/>
    <dc:date>2023-02-18T16:06:03.463097</dc:date>
    <dc:format>image/svg+xml</dc:format>
    <dc:creator>
     <cc:Agent>
      <dc:title>Matplotlib v3.5.1, https://matplotlib.org/</dc:title>
     </cc:Agent>
    </dc:creator>
   </cc:Work>
  </rdf:RDF>
 </metadata>
 <defs>
  <style type="text/css">*{stroke-linejoin: round; stroke-linecap: butt}</style>
 </defs>
 <g id="figure_1">
  <g id="patch_1">
   <path d="M 0 345.6 
L 460.8 345.6 
L 460.8 0 
L 0 0 
z
" style="fill: #2b2b2b"/>
  </g>
  <g id="axes_1">
   <g id="patch_2">
    <path d="M 133.422771 307.584 
L 338.897229 307.584 
L 338.897229 41.472 
L 133.422771 41.472 
z
" style="fill: #2b2b2b"/>
   </g>
   <g id="line2d_1">
    <path d="M 329.557481 264.029156 
L 329.557481 82.631399 
" clip-path="url(#p1c902086f6)" style="fill: none; stroke: #ffcd07; stroke-width: 1.26233; stroke-linecap: round"/>
   </g>
   <g id="line2d_2">
    <path d="M 155.614426 82.631399 
L 155.614426 261.544255 
" clip-path="url(#p1c902086f6)" style="fill: none; stroke: #ffcd07; stroke-width: 1.26233; stroke-linecap: round"/>
   </g>
   <g id="line2d_3">
    <path d="M 197.857739 53.568 
L 287.314167 53.568 
" clip-path="url(#p1c902086f6)" style="fill: none; stroke: #ffcd07; stroke-width: 1.26233; stroke-linecap: round"/>
   </g>
   <g id="line2d_4">
    <path d="M 287.314167 53.568 
L 287.314167 72.691796 
" clip-path="url(#p1c902086f6)" style="fill: none; stroke: #ffcd07; stroke-width: 1.26233; stroke-linecap: round"/>
   </g>
   <g id="line2d_5">
    <path d="M 197.857739 72.691796 
L 197.857739 53.568 
" clip-path="url(#p1c902086f6)" style="fill: none; stroke: #ffcd07; stroke-width: 1.26233; stroke-linecap: round"/>
   </g>
   <g id="patch_3">
    <path d="M 229.962657 91.62674 
C 231.280664 91.62674 232.544866 91.103091 233.476838 90.171119 
C 234.408809 89.239148 234.932459 87.974946 234.932459 86.656939 
C 234.932459 85.338932 234.408809 84.07473 233.476838 83.142758 
C 232.544866 82.210787 231.280664 81.687137 229.962657 81.687137 
C 228.644651 81.687137 227.380449 82.210787 226.448477 83.142758 
C 225.516506 84.07473 224.992856 85.338932 224.992856 86.656939 
C 224.992856 87.974946 225.516506 89.239148 226.448477 90.171119 
C 227.380449 91.103091 228.644651 91.62674 229.962657 91.62674 
L 229.962657 91.62674 
z
" clip-path="url(#p1c902086f6)" style="fill: none; stroke: #ffcd07; stroke-width: 1.26233; stroke-linejoin: miter"/>
   </g>
   <g id="patch_4">
    <path d="M 255.209249 91.62674 
C 256.527256 91.62674 257.791458 91.103091 258.72343 90.171119 
C 259.655401 89.239148 260.179051 87.974946 260.179051 86.656939 
C 260.179051 85.338932 259.655401 84.07473 258.72343 83.142758 
C 257.791458 82.210787 256.527256 81.687137 255.209249 81.687137 
C 253.891243 81.687137 252.627041 82.210787 251.695069 83.142758 
C 250.763097 84.07473 250.239448 85.338932 250.239448 86.656939 
C 250.239448 87.974946 250.763097 89.239148 251.695069 90.171119 
C 252.627041 91.103091 253.891243 91.62674 255.209249 91.62674 
L 255.209249 91.62674 
z
" clip-path="url(#p1c902086f6)" style="fill: none; stroke: #ffcd07; stroke-width: 1.26233; stroke-linejoin: miter"/>
   </g>
   <g id="patch_5">
    <path d="M 229.962657 116.873332 
C 231.280664 116.873332 232.544866 116.349683 233.476838 115.417711 
C 234.408809 114.485739 234.932459 113.221537 234.932459 111.903531 
C 234.932459 110.585524 234.408809 109.321322 233.476838 108.38935 
C 232.544866 107.457379 231.280664 106.933729 229.962657 106.933729 
C 228.644651 106.933729 227.380449 107.457379 226.448477 108.38935 
C 225.516506 109.321322 224.992856 110.585524 224.992856 111.903531 
C 224.992856 113.221537 225.516506 114.485739 226.448477 115.417711 
C 227.380449 116.349683 228.644651 116.873332 229.962657 116.873332 
L 229.962657 116.873332 
z
" clip-path="url(#p1c902086f6)" style="fill: none; stroke: #ffcd07; stroke-width: 1.26233; stroke-linejoin: miter"/>
   </g>
   <g id="patch_6">
    <path d="M 255.209249 116.873332 
C 256.527256 116.873332 257.791458 116.349683 258.72343 115.417711 
C 259.655401 114.485739 260.179051 113.221537 260.179051 111.903531 
C 260.179051 110.585524 259.655401 109.321322 258.72343 108.38935 
C 257.791458 107.457379 256.527256 106.933729 255.209249 106.933729 
C 253.891243 106.933729 252.627041 107.457379 251.695069 108.38935 
C 250.763097 109.321322 250.239448 110.585524 250.239448 111.903531 
C 250.239448 113.221537 250.763097 114.485739 251.695069 115.417711 
C 252.627041 116.349683 253.891243 116.873332 255.209249 116.873332 
L 255.209249 116.873332 
z
" clip-path="url(#p1c902086f6)" style="fill: none; stroke: #ffcd07; stroke-width: 1.26233; stroke-linejoin: miter"/>
   </g>
   <g id="patch_7">
    <path d="M 280.356445 295.488 
C 280.382805 295.488 280.408089 295.477527 280.426729 295.458888 
C 280.445368 295.440248 280.455841 295.414964 280.455841 295.388604 
C 280.455841 295.362244 280.445368 295.33696 280.426729 295.31832 
C 280.408089 295.299681 280.382805 295.289208 280.356445 295.289208 
C 280.330085 295.289208 280.304801 295.299681 280.286162 295.31832 
C 280.267522 295.33696 280.257049 295.362244 280.257049 295.388604 
C 280.257049 295.414964 280.267522 295.440248 280.286162 295.458888 
C 280.304801 295.477527 280.330085 295.488 280.356445 295.488 
L 280.356445 295.488 
z
" clip-path="url(#p1c902086f6)" style="fill: none; stroke: #ffcd07; stroke-width: 0.99396; stroke-linejoin: miter"/>
   </g>
   <g id="line2d_6">
    <path d="M 280.27487 289.051513 
L 284.855857 290.970573 
L 284.855857 290.970573 
L 280.274655 292.889737 
L 280.274655 292.889737 
" clip-path="url(#p1c902086f6)" style="fill: none; stroke: #ffcd07; stroke-width: 0.212071; stroke-linecap: round"/>
   </g>
   <g id="line2d_7">
    <path d="M 285.607351 287.565253 
L 287.898234 294.375989 
L 287.898234 294.375989 
L 290.126942 287.565078 
L 290.126942 287.565078 
" clip-path="url(#p1c902086f6)" style="fill: none; stroke: #ffcd07; stroke-width: 0.212071; stroke-linecap: round"/>
   </g>
   <g id="line2d_8">
    <path d="M 290.909068 294.251822 
L 293.19995 287.441086 
L 293.19995 287.441086 
L 295.428658 294.251998 
L 295.428658 294.251998 
" clip-path="url(#p1c902086f6)" style="fill: none; stroke: #ffcd07; stroke-width: 0.212071; stroke-linecap: round"/>
   </g>
   <g id="line2d_9">
    <path d="M 294.871975 292.580457 
L 291.466725 292.580457 
" clip-path="url(#p1c902086f6)" style="fill: none; stroke: #ffcd07; stroke-width: 0.212071; stroke-linecap: round"/>
   </g>
   <g id="line2d_10">
    <path d="M 296.953799 287.565289 
L 296.953799 294.375789 
L 299.987567 294.375789 
" clip-path="url(#p1c902086f6)" style="fill: none; stroke: #ffcd07; stroke-width: 0.212071; stroke-linecap: round"/>
   </g>
   <g id="line2d_11">
    <path d="M 301.884232 287.565577 
L 301.884232 292.456754 
L 301.884232 292.456754 
L 302.00806 293.075891 
L 302.00806 293.075891 
L 302.255714 293.5712 
L 302.68911 294.004595 
L 303.184419 294.314163 
L 303.803555 294.376077 
L 304.360778 294.314163 
L 304.918001 294.004595 
L 305.351396 293.5712 
L 305.599051 293.075891 
L 305.660964 292.456754 
L 305.660964 287.565577 
" clip-path="url(#p1c902086f6)" style="fill: none; stroke: #ffcd07; stroke-width: 0.212071; stroke-linecap: round"/>
   </g>
   <g id="line2d_12">
    <path d="M 310.591266 294.375822 
L 307.557498 294.375822 
L 307.557498 287.565322 
L 310.591266 287.565322 
" clip-path="url(#p1c902086f6)" style="fill: none; stroke: #ffcd07; stroke-width: 0.212071; stroke-linecap: round"/>
   </g>
   <g id="line2d_13">
    <path d="M 307.557621 290.599251 
L 309.848425 290.599251 
" clip-path="url(#p1c902086f6)" style="fill: none; stroke: #ffcd07; stroke-width: 0.212071; stroke-linecap: round"/>
   </g>
   <g id="patch_8">
    <path d="M 262.365764 249.964618 
C 262.392124 249.964618 262.417408 249.954145 262.436047 249.935505 
C 262.454687 249.916866 262.46516 249.891582 262.46516 249.865222 
C 262.46516 249.838862 262.454687 249.813578 262.436047 249.794938 
C 262.417408 249.776299 262.392124 249.765826 262.365764 249.765826 
C 262.339403 249.765826 262.314119 249.776299 262.29548 249.794938 
C 262.276841 249.813578 262.266368 249.838862 262.266368 249.865222 
C 262.266368 249.891582 262.276841 249.916866 262.29548 249.935505 
C 262.314119 249.954145 262.339403 249.964618 262.365764 249.964618 
L 262.365764 249.964618 
z
" clip-path="url(#p1c902086f6)" style="fill: none; stroke: #ffcd07; stroke-width: 0.99396; stroke-linejoin: miter"/>
   </g>
   <g id="line2d_14">
    <path d="M 262.319883 246.301054 
L 264.896366 247.38039 
L 264.896366 247.38039 
L 262.319763 248.459785 
L 262.319763 248.459785 
" clip-path="url(#p1c902086f6)" style="fill: none; stroke: #ffcd07; stroke-width: 0.119275; stroke-linecap: round"/>
   </g>
   <g id="line2d_15">
    <path d="M 265.528209 249.295468 
L 265.528209 245.465041 
L 267.652355 249.295468 
L 267.652355 245.465041 
" clip-path="url(#p1c902086f6)" style="fill: none; stroke: #ffcd07; stroke-width: 0.119275; stroke-linecap: round"/>
   </g>
   <g id="line2d_16">
    <path d="M 268.718822 249.295648 
L 268.718822 245.46522 
L 270.425103 245.46522 
" clip-path="url(#p1c902086f6)" style="fill: none; stroke: #ffcd07; stroke-width: 0.119275; stroke-linecap: round"/>
   </g>
   <g id="line2d_17">
    <path d="M 268.718779 247.171547 
L 270.42506 247.171547 
" clip-path="url(#p1c902086f6)" style="fill: none; stroke: #ffcd07; stroke-width: 0.119275; stroke-linecap: round"/>
   </g>
   <g id="line2d_18">
    <path d="M 273.406804 249.295603 
L 272.571074 249.295603 
L 272.292497 249.260781 
L 272.048743 249.121493 
L 271.874633 248.947382 
L 271.735344 248.703628 
L 271.700522 248.459873 
L 271.700522 246.300905 
L 271.700522 246.300905 
L 271.770166 245.987506 
L 271.770166 245.987506 
L 271.944277 245.70893 
L 272.222853 245.53482 
L 272.222853 245.53482 
L 272.571074 245.465175 
L 272.571074 245.465175 
L 273.406804 245.465175 
" clip-path="url(#p1c902086f6)" style="fill: none; stroke: #ffcd07; stroke-width: 0.119275; stroke-linecap: round"/>
   </g>
   <g id="patch_9">
    <path d="M 222.607351 76.021563 
C 222.633711 76.021563 222.658995 76.01109 222.677635 75.992451 
C 222.696274 75.973812 222.706747 75.948528 222.706747 75.922167 
C 222.706747 75.895807 222.696274 75.870523 222.677635 75.851884 
C 222.658995 75.833244 222.633711 75.822771 222.607351 75.822771 
C 222.580991 75.822771 222.555707 75.833244 222.537068 75.851884 
C 222.518428 75.870523 222.507955 75.895807 222.507955 75.922167 
C 222.507955 75.948528 222.518428 75.973812 222.537068 75.992451 
C 222.555707 76.01109 222.580991 76.021563 222.607351 76.021563 
L 222.607351 76.021563 
z
" clip-path="url(#p1c902086f6)" style="fill: none; stroke: #ffcd07; stroke-width: 0.99396; stroke-linejoin: miter"/>
   </g>
   <g id="line2d_19">
    <path d="M 218.563389 77.837199 
L 218.563389 74.006771 
L 219.608051 74.006771 
L 219.956271 74.041593 
L 220.234848 74.215704 
L 220.478602 74.424636 
L 220.617891 74.738035 
L 220.687535 75.051433 
L 220.687535 76.757715 
L 220.617891 77.105935 
L 220.478602 77.384512 
L 220.234848 77.628266 
L 219.956271 77.802377 
L 219.608051 77.837199 
L 218.563389 77.837199 
" clip-path="url(#p1c902086f6)" style="fill: none; stroke: #ffcd07; stroke-width: 0.119275; stroke-linecap: round"/>
   </g>
   <g id="line2d_20">
    <path d="M 222.624796 74.007072 
L 222.624796 77.8375 
" clip-path="url(#p1c902086f6)" style="fill: none; stroke: #ffcd07; stroke-width: 0.119275; stroke-linecap: round"/>
   </g>
   <g id="line2d_21">
    <path d="M 222.172001 77.837449 
L 223.042553 77.837449 
" clip-path="url(#p1c902086f6)" style="fill: none; stroke: #ffcd07; stroke-width: 0.119275; stroke-linecap: round"/>
   </g>
   <g id="line2d_22">
    <path d="M 222.172001 74.006948 
L 223.042553 74.006948 
" clip-path="url(#p1c902086f6)" style="fill: none; stroke: #ffcd07; stroke-width: 0.119275; stroke-linecap: round"/>
   </g>
   <g id="line2d_23">
    <path d="M 224.509935 75.051533 
L 224.579579 74.738134 
L 224.718868 74.424735 
L 224.962622 74.215803 
L 225.276021 74.041693 
L 225.589419 74.006871 
L 225.93764 74.041693 
L 226.216216 74.215803 
L 226.459971 74.424735 
L 226.599259 74.738134 
L 226.668903 75.051533 
L 226.668903 76.757814 
L 226.599259 77.106035 
L 226.459971 77.384611 
L 226.216216 77.628366 
L 225.93764 77.802476 
L 225.589419 77.837298 
L 225.276021 77.802476 
L 224.962622 77.628366 
L 224.718868 77.384611 
L 224.579579 77.106035 
L 224.509935 76.757814 
L 224.509935 75.051533 
" clip-path="url(#p1c902086f6)" style="fill: none; stroke: #ffcd07; stroke-width: 0.119275; stroke-linecap: round"/>
   </g>
   <g id="patch_10">
    <path d="M 262.365764 76.021563 
C 262.392124 76.021563 262.417408 76.01109 262.436047 75.992451 
C 262.454687 75.973812 262.46516 75.948528 262.46516 75.922167 
C 262.46516 75.895807 262.454687 75.870523 262.436047 75.851884 
C 262.417408 75.833244 262.392124 75.822771 262.365764 75.822771 
C 262.339403 75.822771 262.314119 75.833244 262.29548 75.851884 
C 262.276841 75.870523 262.266368 75.895807 262.266368 75.922167 
C 262.266368 75.948528 262.276841 75.973812 262.29548 75.992451 
C 262.314119 76.01109 262.339403 76.021563 262.365764 76.021563 
L 262.365764 76.021563 
z
" clip-path="url(#p1c902086f6)" style="fill: none; stroke: #ffcd07; stroke-width: 0.99396; stroke-linejoin: miter"/>
   </g>
   <g id="line2d_24">
    <path d="M 260.23683 77.837449 
L 259.4011 77.837449 
L 259.122523 77.802627 
L 258.878769 77.663339 
L 258.704659 77.489229 
L 258.56537 77.245474 
L 258.530548 77.00172 
L 258.530548 74.842752 
L 258.530548 74.842752 
L 258.600192 74.529353 
L 258.600192 74.529353 
L 258.774303 74.250776 
L 259.052879 74.076666 
L 259.052879 74.076666 
L 259.4011 74.007022 
L 259.4011 74.007022 
L 260.23683 74.007022 
" clip-path="url(#p1c902086f6)" style="fill: none; stroke: #ffcd07; stroke-width: 0.119275; stroke-linecap: round"/>
   </g>
   <g id="line2d_25">
    <path d="M 261.512515 74.007003 
L 261.512515 77.837431 
L 263.218796 77.837431 
" clip-path="url(#p1c902086f6)" style="fill: none; stroke: #ffcd07; stroke-width: 0.119275; stroke-linecap: round"/>
   </g>
   <g id="line2d_26">
    <path d="M 264.285759 77.840688 
L 264.285759 74.010261 
" clip-path="url(#p1c902086f6)" style="fill: none; stroke: #ffcd07; stroke-width: 0.119275; stroke-linecap: round"/>
   </g>
   <g id="line2d_27">
    <path d="M 266.409949 74.009874 
L 264.285546 76.343235 
" clip-path="url(#p1c902086f6)" style="fill: none; stroke: #ffcd07; stroke-width: 0.119275; stroke-linecap: round"/>
   </g>
   <g id="line2d_28">
    <path d="M 266.409776 77.840606 
L 265.121319 75.507455 
" clip-path="url(#p1c902086f6)" style="fill: none; stroke: #ffcd07; stroke-width: 0.119275; stroke-linecap: round"/>
   </g>
   <g id="patch_11">
    <path d="M 262.365764 120.749777 
C 262.392124 120.749777 262.417408 120.739304 262.436047 120.720665 
C 262.454687 120.702026 262.46516 120.676741 262.46516 120.650381 
C 262.46516 120.624021 262.454687 120.598737 262.436047 120.580098 
C 262.417408 120.561458 262.392124 120.550985 262.365764 120.550985 
C 262.339403 120.550985 262.314119 120.561458 262.29548 120.580098 
C 262.276841 120.598737 262.266368 120.624021 262.266368 120.650381 
C 262.266368 120.676741 262.276841 120.702026 262.29548 120.720665 
C 262.314119 120.739304 262.339403 120.749777 262.365764 120.749777 
L 262.365764 120.749777 
z
" clip-path="url(#p1c902086f6)" style="fill: none; stroke: #ffcd07; stroke-width: 0.99396; stroke-linejoin: miter"/>
   </g>
   <g id="line2d_29">
    <path d="M 259.819015 120.441608 
L 260.445814 120.441608 
L 260.445814 122.565754 
L 259.157395 122.565754 
L 258.91364 122.530932 
L 258.669885 122.391643 
L 258.460952 122.217533 
L 258.356485 121.973779 
L 258.321663 121.730024 
L 258.321663 119.571056 
L 258.391308 119.257657 
L 258.565418 118.979081 
L 258.843995 118.80497 
L 259.157395 118.735326 
L 260.445814 118.735326 
" clip-path="url(#p1c902086f6)" style="fill: none; stroke: #ffcd07; stroke-width: 0.119275; stroke-linecap: round"/>
   </g>
   <g id="line2d_30">
    <path d="M 261.303878 122.565529 
L 261.303878 118.735101 
L 263.428024 122.565529 
L 263.428024 118.735101 
" clip-path="url(#p1c902086f6)" style="fill: none; stroke: #ffcd07; stroke-width: 0.119275; stroke-linecap: round"/>
   </g>
   <g id="line2d_31">
    <path d="M 264.285563 122.565413 
L 264.285563 118.734985 
L 265.330225 118.734985 
L 265.678446 118.769807 
L 265.957022 118.943918 
L 266.200777 119.15285 
L 266.340065 119.466249 
L 266.409709 119.779647 
L 266.409709 121.485929 
L 266.340065 121.834149 
L 266.200777 122.112726 
L 265.957022 122.35648 
L 265.678446 122.530591 
L 265.330225 122.565413 
L 264.285563 122.565413 
" clip-path="url(#p1c902086f6)" style="fill: none; stroke: #ffcd07; stroke-width: 0.119275; stroke-linecap: round"/>
   </g>
   <g id="patch_12">
    <path d="M 222.607351 120.749777 
C 222.633711 120.749777 222.658995 120.739304 222.677635 120.720665 
C 222.696274 120.702026 222.706747 120.676741 222.706747 120.650381 
C 222.706747 120.624021 222.696274 120.598737 222.677635 120.580098 
C 222.658995 120.561458 222.633711 120.550985 222.607351 120.550985 
C 222.580991 120.550985 222.555707 120.561458 222.537068 120.580098 
C 222.518428 120.598737 222.507955 120.624021 222.507955 120.650381 
C 222.507955 120.676741 222.518428 120.702026 222.537068 120.720665 
C 222.555707 120.739304 222.580991 120.749777 222.607351 120.749777 
L 222.607351 120.749777 
z
" clip-path="url(#p1c902086f6)" style="fill: none; stroke: #ffcd07; stroke-width: 0.99396; stroke-linejoin: miter"/>
   </g>
   <g id="line2d_32">
    <path d="M 218.543627 122.545907 
L 218.543627 118.71548 
L 219.623111 118.71548 
L 219.93651 118.750302 
L 220.249908 118.924412 
L 220.493663 119.133344 
L 220.632951 119.446743 
L 220.667773 119.760142 
L 220.632951 120.108362 
L 220.493663 120.386939 
L 220.249908 120.630693 
L 219.93651 120.804804 
L 219.623111 120.839626 
L 218.543627 120.839626 
" clip-path="url(#p1c902086f6)" style="fill: none; stroke: #ffcd07; stroke-width: 0.119275; stroke-linecap: round"/>
   </g>
   <g id="line2d_33">
    <path d="M 220.667747 122.545501 
L 219.832046 120.839278 
" clip-path="url(#p1c902086f6)" style="fill: none; stroke: #ffcd07; stroke-width: 0.119275; stroke-linecap: round"/>
   </g>
   <g id="line2d_34">
    <path d="M 221.545275 122.043196 
L 221.928318 122.321773 
L 222.346182 122.495883 
L 222.833691 122.565527 
L 223.077446 122.530705 
L 223.3212 122.391417 
L 223.530133 122.217307 
L 223.634599 121.973552 
L 223.669421 121.729798 
L 223.634599 121.416399 
L 223.495311 121.172645 
L 223.495311 121.172645 
L 223.251556 120.963712 
L 223.251556 120.963712 
L 223.251556 120.963712 
L 222.067606 120.336915 
L 222.067606 120.336915 
L 221.858673 120.127982 
L 221.719385 119.884228 
L 221.649741 119.570829 
L 221.684563 119.327075 
L 221.823851 119.08332 
L 221.997962 118.874388 
L 222.241716 118.769922 
L 222.520293 118.7351 
L 222.833691 118.769922 
L 223.181912 118.874388 
L 223.460489 119.048498 
" clip-path="url(#p1c902086f6)" style="fill: none; stroke: #ffcd07; stroke-width: 0.119275; stroke-linecap: round"/>
   </g>
   <g id="line2d_35">
    <path d="M 225.571787 122.565514 
L 225.571787 118.735086 
" clip-path="url(#p1c902086f6)" style="fill: none; stroke: #ffcd07; stroke-width: 0.119275; stroke-linecap: round"/>
   </g>
   <g id="line2d_36">
    <path d="M 224.527042 118.735162 
L 226.651188 118.735162 
" clip-path="url(#p1c902086f6)" style="fill: none; stroke: #ffcd07; stroke-width: 0.119275; stroke-linecap: round"/>
   </g>
   <g id="patch_13">
    <path d="M 222.706747 152.308017 
C 222.733107 152.308017 222.758391 152.297544 222.777031 152.278905 
C 222.79567 152.260265 222.806143 152.234981 222.806143 152.208621 
C 222.806143 152.182261 222.79567 152.156977 222.777031 152.138338 
C 222.758391 152.119698 222.733107 152.109225 222.706747 152.109225 
C 222.680387 152.109225 222.655103 152.119698 222.636464 152.138338 
C 222.617824 152.156977 222.607351 152.182261 222.607351 152.208621 
C 222.607351 152.234981 222.617824 152.260265 222.636464 152.278905 
C 222.655103 152.297544 222.680387 152.308017 222.706747 152.308017 
L 222.706747 152.308017 
z
" clip-path="url(#p1c902086f6)" style="fill: none; stroke: #ffcd07; stroke-width: 0.99396; stroke-linejoin: miter"/>
   </g>
   <g id="line2d_37">
    <path d="M 217.171905 151.999847 
L 218.216567 151.999847 
L 218.529966 151.930203 
L 218.77372 151.790915 
L 218.947831 151.581983 
L 219.052297 151.303406 
L 219.052297 150.990007 
L 218.947831 150.711431 
L 218.77372 150.467676 
L 218.529966 150.328388 
L 218.216567 150.293566 
L 217.171905 150.293566 
" clip-path="url(#p1c902086f6)" style="fill: none; stroke: #ffcd07; stroke-width: 0.119275; stroke-linecap: round"/>
   </g>
   <g id="line2d_38">
    <path d="M 217.171905 154.123949 
L 218.216567 154.123949 
L 218.564788 154.089126 
L 218.843364 153.915016 
L 219.087119 153.671262 
L 219.226407 153.392685 
L 219.296051 153.044464 
L 219.226407 152.731066 
L 219.087119 152.417667 
L 218.843364 152.208735 
L 218.564788 152.034624 
L 218.216567 151.999802 
" clip-path="url(#p1c902086f6)" style="fill: none; stroke: #ffcd07; stroke-width: 0.119275; stroke-linecap: round"/>
   </g>
   <g id="line2d_39">
    <path d="M 217.171844 154.123805 
L 217.171844 150.293378 
" clip-path="url(#p1c902086f6)" style="fill: none; stroke: #ffcd07; stroke-width: 0.119275; stroke-linecap: round"/>
   </g>
   <g id="line2d_40">
    <path d="M 219.944703 154.054162 
L 221.233163 150.223602 
L 221.233163 150.223602 
L 222.486655 154.054261 
L 222.486655 154.054261 
" clip-path="url(#p1c902086f6)" style="fill: none; stroke: #ffcd07; stroke-width: 0.119275; stroke-linecap: round"/>
   </g>
   <g id="line2d_41">
    <path d="M 222.173559 153.114137 
L 220.258346 153.114137 
" clip-path="url(#p1c902086f6)" style="fill: none; stroke: #ffcd07; stroke-width: 0.119275; stroke-linecap: round"/>
   </g>
   <g id="line2d_42">
    <path d="M 224.180243 154.123753 
L 224.180243 150.293326 
" clip-path="url(#p1c902086f6)" style="fill: none; stroke: #ffcd07; stroke-width: 0.119275; stroke-linecap: round"/>
   </g>
   <g id="line2d_43">
    <path d="M 223.135498 150.293401 
L 225.259644 150.293401 
" clip-path="url(#p1c902086f6)" style="fill: none; stroke: #ffcd07; stroke-width: 0.119275; stroke-linecap: round"/>
   </g>
   <g id="line2d_44">
    <path d="M 225.891171 152.208611 
L 228.468004 152.208611 
" clip-path="url(#p1c902086f6)" style="fill: none; stroke: #ffcd07; stroke-width: 0.119275; stroke-linecap: round"/>
   </g>
   <g id="patch_14">
    <path d="M 222.706747 172.187223 
C 222.733107 172.187223 222.758391 172.17675 222.777031 172.158111 
C 222.79567 172.139472 222.806143 172.114188 222.806143 172.087827 
C 222.806143 172.061467 222.79567 172.036183 222.777031 172.017544 
C 222.758391 171.998904 222.733107 171.988431 222.706747 171.988431 
C 222.680387 171.988431 222.655103 171.998904 222.636464 172.017544 
C 222.617824 172.036183 222.607351 172.061467 222.607351 172.087827 
C 222.607351 172.114188 222.617824 172.139472 222.636464 172.158111 
C 222.655103 172.17675 222.680387 172.187223 222.706747 172.187223 
L 222.706747 172.187223 
z
" clip-path="url(#p1c902086f6)" style="fill: none; stroke: #ffcd07; stroke-width: 0.99396; stroke-linejoin: miter"/>
   </g>
   <g id="line2d_45">
    <path d="M 217.171905 171.879054 
L 218.216567 171.879054 
L 218.529966 171.80941 
L 218.77372 171.670121 
L 218.947831 171.461189 
L 219.052297 171.182612 
L 219.052297 170.869214 
L 218.947831 170.590637 
L 218.77372 170.346883 
L 218.529966 170.207594 
L 218.216567 170.172772 
L 217.171905 170.172772 
" clip-path="url(#p1c902086f6)" style="fill: none; stroke: #ffcd07; stroke-width: 0.119275; stroke-linecap: round"/>
   </g>
   <g id="line2d_46">
    <path d="M 217.171905 174.003155 
L 218.216567 174.003155 
L 218.564788 173.968333 
L 218.843364 173.794222 
L 219.087119 173.550468 
L 219.226407 173.271891 
L 219.296051 172.923671 
L 219.226407 172.610272 
L 219.087119 172.296873 
L 218.843364 172.087941 
L 218.564788 171.913831 
L 218.216567 171.879009 
" clip-path="url(#p1c902086f6)" style="fill: none; stroke: #ffcd07; stroke-width: 0.119275; stroke-linecap: round"/>
   </g>
   <g id="line2d_47">
    <path d="M 217.171844 174.003011 
L 217.171844 170.172584 
" clip-path="url(#p1c902086f6)" style="fill: none; stroke: #ffcd07; stroke-width: 0.119275; stroke-linecap: round"/>
   </g>
   <g id="line2d_48">
    <path d="M 219.944703 173.933369 
L 221.233163 170.102808 
L 221.233163 170.102808 
L 222.486655 173.933467 
L 222.486655 173.933467 
" clip-path="url(#p1c902086f6)" style="fill: none; stroke: #ffcd07; stroke-width: 0.119275; stroke-linecap: round"/>
   </g>
   <g id="line2d_49">
    <path d="M 222.173559 172.993343 
L 220.258346 172.993343 
" clip-path="url(#p1c902086f6)" style="fill: none; stroke: #ffcd07; stroke-width: 0.119275; stroke-linecap: round"/>
   </g>
   <g id="line2d_50">
    <path d="M 224.180243 174.00296 
L 224.180243 170.172532 
" clip-path="url(#p1c902086f6)" style="fill: none; stroke: #ffcd07; stroke-width: 0.119275; stroke-linecap: round"/>
   </g>
   <g id="line2d_51">
    <path d="M 223.135498 170.172608 
L 225.259644 170.172608 
" clip-path="url(#p1c902086f6)" style="fill: none; stroke: #ffcd07; stroke-width: 0.119275; stroke-linecap: round"/>
   </g>
   <g id="line2d_52">
    <path d="M 225.908568 172.087817 
L 228.450579 172.087817 
" clip-path="url(#p1c902086f6)" style="fill: none; stroke: #ffcd07; stroke-width: 0.119275; stroke-linecap: round"/>
   </g>
   <g id="line2d_53">
    <path d="M 227.196797 173.37632 
L 227.196797 170.799487 
" clip-path="url(#p1c902086f6)" style="fill: none; stroke: #ffcd07; stroke-width: 0.119275; stroke-linecap: round"/>
   </g>
   <g id="patch_15">
    <path d="M 145.287179 98.465187 
C 145.956726 98.465187 146.598941 98.199173 147.072382 97.725732 
C 147.545824 97.25229 147.811838 96.610075 147.811838 95.940528 
C 147.811838 95.270981 147.545824 94.628766 147.072382 94.155324 
C 146.598941 93.681883 145.956726 93.415869 145.287179 93.415869 
C 144.617631 93.415869 143.975417 93.681883 143.501975 94.155324 
C 143.028533 94.628766 142.762519 95.270981 142.762519 95.940528 
C 142.762519 96.610075 143.028533 97.25229 143.501975 97.725732 
C 143.975417 98.199173 144.617631 98.465187 145.287179 98.465187 
L 145.287179 98.465187 
z
" clip-path="url(#p1c902086f6)" style="fill: none"/>
   </g>
   <g id="patch_16">
    <path d="M 154.222882 295.040718 
C 154.249242 295.040718 154.274526 295.030245 154.293165 295.011605 
C 154.311805 294.992966 154.322278 294.967682 154.322278 294.941322 
C 154.322278 294.914962 154.311805 294.889678 154.293165 294.871038 
C 154.274526 294.852399 154.249242 294.841926 154.222882 294.841926 
C 154.196522 294.841926 154.171238 294.852399 154.152598 294.871038 
C 154.133959 294.889678 154.123486 294.914962 154.123486 294.941322 
C 154.123486 294.967682 154.133959 294.992966 154.152598 295.011605 
C 154.171238 295.030245 154.196522 295.040718 154.222882 295.040718 
L 154.222882 295.040718 
z
" clip-path="url(#p1c902086f6)" style="fill: none; stroke: #808080; stroke-width: 0.99396; stroke-linejoin: miter"/>
   </g>
   <g id="line2d_54">
    <path d="M 154.141306 288.604231 
L 158.722293 290.523291 
L 158.722293 290.523291 
L 154.141092 292.442455 
L 154.141092 292.442455 
" clip-path="url(#p1c902086f6)" style="fill: none; stroke: #808080; stroke-width: 0.212071; stroke-linecap: round"/>
   </g>
   <g id="line2d_55">
    <path d="M 159.84571 293.9283 
L 159.84571 287.1178 
L 163.622442 293.9283 
L 163.622442 287.1178 
" clip-path="url(#p1c902086f6)" style="fill: none; stroke: #808080; stroke-width: 0.212071; stroke-linecap: round"/>
   </g>
   <g id="line2d_56">
    <path d="M 164.775504 293.80454 
L 167.066387 286.993804 
L 167.066387 286.993804 
L 169.295095 293.804716 
L 169.295095 293.804716 
" clip-path="url(#p1c902086f6)" style="fill: none; stroke: #808080; stroke-width: 0.212071; stroke-linecap: round"/>
   </g>
   <g id="line2d_57">
    <path d="M 168.738412 292.133175 
L 165.333161 292.133175 
" clip-path="url(#p1c902086f6)" style="fill: none; stroke: #808080; stroke-width: 0.212071; stroke-linecap: round"/>
   </g>
   <g id="line2d_58">
    <path d="M 170.077736 293.928502 
L 170.077736 287.118001 
L 172.306627 290.894733 
L 172.306627 290.894733 
L 174.597432 287.118001 
L 174.597432 287.118001 
L 174.597432 293.928502 
" clip-path="url(#p1c902086f6)" style="fill: none; stroke: #808080; stroke-width: 0.212071; stroke-linecap: round"/>
   </g>
   <g id="line2d_59">
    <path d="M 179.155919 293.92854 
L 176.12215 293.92854 
L 176.12215 287.11804 
L 179.155919 287.11804 
" clip-path="url(#p1c902086f6)" style="fill: none; stroke: #808080; stroke-width: 0.212071; stroke-linecap: round"/>
   </g>
   <g id="line2d_60">
    <path d="M 176.122273 290.151969 
L 178.413078 290.151969 
" clip-path="url(#p1c902086f6)" style="fill: none; stroke: #808080; stroke-width: 0.212071; stroke-linecap: round"/>
   </g>
   <g id="line2d_61">
    <path d="M 155.614426 276.45366 
L 329.557481 276.45366 
" clip-path="url(#p1c902086f6)" style="fill: none; stroke: #808080; stroke-width: 1.26233; stroke-linecap: round"/>
   </g>
   <g id="line2d_62">
    <path d="M 329.557481 276.45366 
L 329.557481 264.029156 
" clip-path="url(#p1c902086f6)" style="fill: none; stroke: #808080; stroke-width: 1.26233; stroke-linecap: round"/>
   </g>
   <g id="line2d_63">
    <path d="M 329.557481 82.631399 
L 329.557481 67.721995 
" clip-path="url(#p1c902086f6)" style="fill: none; stroke: #808080; stroke-width: 1.26233; stroke-linecap: round"/>
   </g>
   <g id="line2d_64">
    <path d="M 329.557481 67.721995 
L 165.554029 67.721995 
" clip-path="url(#p1c902086f6)" style="fill: none; stroke: #808080; stroke-width: 1.26233; stroke-linecap: round"/>
   </g>
   <g id="line2d_65">
    <path d="M 155.614426 77.661598 
L 155.614426 82.631399 
" clip-path="url(#p1c902086f6)" style="fill: none; stroke: #808080; stroke-width: 1.26233; stroke-linecap: round"/>
   </g>
   <g id="line2d_66">
    <path d="M 155.614426 261.544255 
L 155.614426 276.45366 
" clip-path="url(#p1c902086f6)" style="fill: none; stroke: #808080; stroke-width: 1.26233; stroke-linecap: round"/>
   </g>
   <g id="line2d_67">
    <path d="M 287.314167 72.691796 
L 287.314167 126.643962 
" clip-path="url(#p1c902086f6)" style="fill: none; stroke: #808080; stroke-width: 1.26233; stroke-linecap: round"/>
   </g>
   <g id="line2d_68">
    <path d="M 287.314167 126.643962 
L 197.857739 126.643962 
" clip-path="url(#p1c902086f6)" style="fill: none; stroke: #808080; stroke-width: 1.26233; stroke-linecap: round"/>
   </g>
   <g id="line2d_69">
    <path d="M 197.857739 126.643962 
L 197.857739 72.691796 
" clip-path="url(#p1c902086f6)" style="fill: none; stroke: #808080; stroke-width: 1.26233; stroke-linecap: round"/>
   </g>
   <g id="line2d_70">
    <path d="M 155.614426 77.661598 
L 165.554029 67.721995 
" clip-path="url(#p1c902086f6)" style="fill: none; stroke: #808080; stroke-width: 1.26233; stroke-linecap: round"/>
   </g>
   <g id="patch_17">
    <path d="M 166.846178 106.287655 
C 169.482191 106.287655 172.010595 105.240356 173.874538 103.376413 
C 175.738482 101.512469 176.785781 98.984065 176.785781 96.348052 
C 176.785781 93.712038 175.738482 91.183634 173.874538 89.319691 
C 172.010595 87.455748 169.482191 86.408449 166.846178 86.408449 
C 164.210164 86.408449 161.68176 87.455748 159.817817 89.319691 
C 157.953874 91.183634 156.906575 93.712038 156.906575 96.348052 
C 156.906575 98.984065 157.953874 101.512469 159.817817 103.376413 
C 161.68176 105.240356 164.210164 106.287655 166.846178 106.287655 
z
" clip-path="url(#p1c902086f6)" style="fill: #0dab76"/>
   </g>
   <g id="patch_18">
    <path d="M 166.846178 101.317853 
C 168.164185 101.317853 169.428387 100.794204 170.360358 99.862232 
C 171.29233 98.930261 171.815979 97.666059 171.815979 96.348052 
C 171.815979 95.030045 171.29233 93.765843 170.360358 92.833871 
C 169.428387 91.9019 168.164185 91.37825 166.846178 91.37825 
C 165.528171 91.37825 164.263969 91.9019 163.331997 92.833871 
C 162.400026 93.765843 161.876376 95.030045 161.876376 96.348052 
C 161.876376 97.666059 162.400026 98.930261 163.331997 99.862232 
C 164.263969 100.794204 165.528171 101.317853 166.846178 101.317853 
z
" clip-path="url(#p1c902086f6)" style="fill: #a0a0a0"/>
   </g>
   <g id="patch_19">
    <path d="M 166.846178 131.534247 
C 169.482191 131.534247 172.010595 130.486947 173.874538 128.623004 
C 175.738482 126.759061 176.785781 124.230657 176.785781 121.594644 
C 176.785781 118.95863 175.738482 116.430226 173.874538 114.566283 
C 172.010595 112.70234 169.482191 111.655041 166.846178 111.655041 
C 164.210164 111.655041 161.68176 112.70234 159.817817 114.566283 
C 157.953874 116.430226 156.906575 118.95863 156.906575 121.594644 
C 156.906575 124.230657 157.953874 126.759061 159.817817 128.623004 
C 161.68176 130.486947 164.210164 131.534247 166.846178 131.534247 
z
" clip-path="url(#p1c902086f6)" style="fill: #0dab76"/>
   </g>
   <g id="patch_20">
    <path d="M 166.846178 126.564445 
C 168.164185 126.564445 169.428387 126.040796 170.360358 125.108824 
C 171.29233 124.176853 171.815979 122.91265 171.815979 121.594644 
C 171.815979 120.276637 171.29233 119.012435 170.360358 118.080463 
C 169.428387 117.148492 168.164185 116.624842 166.846178 116.624842 
C 165.528171 116.624842 164.263969 117.148492 163.331997 118.080463 
C 162.400026 119.012435 161.876376 120.276637 161.876376 121.594644 
C 161.876376 122.91265 162.400026 124.176853 163.331997 125.108824 
C 164.263969 126.040796 165.528171 126.564445 166.846178 126.564445 
z
" clip-path="url(#p1c902086f6)" style="fill: #a0a0a0"/>
   </g>
   <g id="patch_21">
    <path d="M 166.846178 156.780839 
C 169.482191 156.780839 172.010595 155.733539 173.874538 153.869596 
C 175.738482 152.005653 176.785781 149.477249 176.785781 146.841236 
C 176.785781 144.205222 175.738482 141.676818 173.874538 139.812875 
C 172.010595 137.948932 169.482191 136.901632 166.846178 136.901632 
C 164.210164 136.901632 161.68176 137.948932 159.817817 139.812875 
C 157.953874 141.676818 156.906575 144.205222 156.906575 146.841236 
C 156.906575 149.477249 157.953874 152.005653 159.817817 153.869596 
C 161.68176 155.733539 164.210164 156.780839 166.846178 156.780839 
z
" clip-path="url(#p1c902086f6)" style="fill: #0dab76"/>
   </g>
   <g id="patch_22">
    <path d="M 166.846178 151.811037 
C 168.164185 151.811037 169.428387 151.287387 170.360358 150.355416 
C 171.29233 149.423444 171.815979 148.159242 171.815979 146.841236 
C 171.815979 145.523229 171.29233 144.259027 170.360358 143.327055 
C 169.428387 142.395084 168.164185 141.871434 166.846178 141.871434 
C 165.528171 141.871434 164.263969 142.395084 163.331997 143.327055 
C 162.400026 144.259027 161.876376 145.523229 161.876376 146.841236 
C 161.876376 148.159242 162.400026 149.423444 163.331997 150.355416 
C 164.263969 151.287387 165.528171 151.811037 166.846178 151.811037 
z
" clip-path="url(#p1c902086f6)" style="fill: #a0a0a0"/>
   </g>
   <g id="patch_23">
    <path d="M 166.846178 182.027431 
C 169.482191 182.027431 172.010595 180.980131 173.874538 179.116188 
C 175.738482 177.252245 176.785781 174.723841 176.785781 172.087827 
C 176.785781 169.451814 175.738482 166.92341 173.874538 165.059467 
C 172.010595 163.195524 169.482191 162.148224 166.846178 162.148224 
C 164.210164 162.148224 161.68176 163.195524 159.817817 165.059467 
C 157.953874 166.92341 156.906575 169.451814 156.906575 172.087827 
C 156.906575 174.723841 157.953874 177.252245 159.817817 179.116188 
C 161.68176 180.980131 164.210164 182.027431 166.846178 182.027431 
z
" clip-path="url(#p1c902086f6)" style="fill: #0dab76"/>
   </g>
   <g id="patch_24">
    <path d="M 166.846178 177.057629 
C 168.164185 177.057629 169.428387 176.533979 170.360358 175.602008 
C 171.29233 174.670036 171.815979 173.405834 171.815979 172.087827 
C 171.815979 170.769821 171.29233 169.505619 170.360358 168.573647 
C 169.428387 167.641676 168.164185 167.118026 166.846178 167.118026 
C 165.528171 167.118026 164.263969 167.641676 163.331997 168.573647 
C 162.400026 169.505619 161.876376 170.769821 161.876376 172.087827 
C 161.876376 173.405834 162.400026 174.670036 163.331997 175.602008 
C 164.263969 176.533979 165.528171 177.057629 166.846178 177.057629 
z
" clip-path="url(#p1c902086f6)" style="fill: #a0a0a0"/>
   </g>
   <g id="patch_25">
    <path d="M 166.846178 207.274022 
C 169.482191 207.274022 172.010595 206.226723 173.874538 204.36278 
C 175.738482 202.498837 176.785781 199.970433 176.785781 197.334419 
C 176.785781 194.698406 175.738482 192.170002 173.874538 190.306059 
C 172.010595 188.442116 169.482191 187.394816 166.846178 187.394816 
C 164.210164 187.394816 161.68176 188.442116 159.817817 190.306059 
C 157.953874 192.170002 156.906575 194.698406 156.906575 197.334419 
C 156.906575 199.970433 157.953874 202.498837 159.817817 204.36278 
C 161.68176 206.226723 164.210164 207.274022 166.846178 207.274022 
z
" clip-path="url(#p1c902086f6)" style="fill: #0dab76"/>
   </g>
   <g id="patch_26">
    <path d="M 166.846178 202.304221 
C 168.164185 202.304221 169.428387 201.780571 170.360358 200.8486 
C 171.29233 199.916628 171.815979 198.652426 171.815979 197.334419 
C 171.815979 196.016413 171.29233 194.75221 170.360358 193.820239 
C 169.428387 192.888267 168.164185 192.364618 166.846178 192.364618 
C 165.528171 192.364618 164.263969 192.888267 163.331997 193.820239 
C 162.400026 194.75221 161.876376 196.016413 161.876376 197.334419 
C 161.876376 198.652426 162.400026 199.916628 163.331997 200.8486 
C 164.263969 201.780571 165.528171 202.304221 166.846178 202.304221 
z
" clip-path="url(#p1c902086f6)" style="fill: #a0a0a0"/>
   </g>
   <g id="patch_27">
    <path d="M 166.846178 232.520614 
C 169.482191 232.520614 172.010595 231.473315 173.874538 229.609372 
C 175.738482 227.745429 176.785781 225.217025 176.785781 222.581011 
C 176.785781 219.944998 175.738482 217.416594 173.874538 215.55265 
C 172.010595 213.688707 169.482191 212.641408 166.846178 212.641408 
C 164.210164 212.641408 161.68176 213.688707 159.817817 215.55265 
C 157.953874 217.416594 156.906575 219.944998 156.906575 222.581011 
C 156.906575 225.217025 157.953874 227.745429 159.817817 229.609372 
C 161.68176 231.473315 164.210164 232.520614 166.846178 232.520614 
z
" clip-path="url(#p1c902086f6)" style="fill: #0dab76"/>
   </g>
   <g id="patch_28">
    <path d="M 166.846178 227.550813 
C 168.164185 227.550813 169.428387 227.027163 170.360358 226.095192 
C 171.29233 225.16322 171.815979 223.899018 171.815979 222.581011 
C 171.815979 221.263004 171.29233 219.998802 170.360358 219.066831 
C 169.428387 218.134859 168.164185 217.61121 166.846178 217.61121 
C 165.528171 217.61121 164.263969 218.134859 163.331997 219.066831 
C 162.400026 219.998802 161.876376 221.263004 161.876376 222.581011 
C 161.876376 223.899018 162.400026 225.16322 163.331997 226.095192 
C 164.263969 227.027163 165.528171 227.550813 166.846178 227.550813 
z
" clip-path="url(#p1c902086f6)" style="fill: #a0a0a0"/>
   </g>
   <g id="patch_29">
    <path d="M 166.846178 257.767206 
C 169.482191 257.767206 172.010595 256.719907 173.874538 254.855964 
C 175.738482 252.992021 176.785781 250.463617 176.785781 247.827603 
C 176.785781 245.19159 175.738482 242.663185 173.874538 240.799242 
C 172.010595 238.935299 169.482191 237.888 166.846178 237.888 
C 164.210164 237.888 161.68176 238.935299 159.817817 240.799242 
C 157.953874 242.663185 156.906575 245.19159 156.906575 247.827603 
C 156.906575 250.463617 157.953874 252.992021 159.817817 254.855964 
C 161.68176 256.719907 164.210164 257.767206 166.846178 257.767206 
z
" clip-path="url(#p1c902086f6)" style="fill: #0dab76"/>
   </g>
   <g id="patch_30">
    <path d="M 166.846178 252.797405 
C 168.164185 252.797405 169.428387 252.273755 170.360358 251.341783 
C 171.29233 250.409812 171.815979 249.14561 171.815979 247.827603 
C 171.815979 246.509596 171.29233 245.245394 170.360358 244.313423 
C 169.428387 243.381451 168.164185 242.857802 166.846178 242.857802 
C 165.528171 242.857802 164.263969 243.381451 163.331997 244.313423 
C 162.400026 245.245394 161.876376 246.509596 161.876376 247.827603 
C 161.876376 249.14561 162.400026 250.409812 163.331997 251.341783 
C 164.263969 252.273755 165.528171 252.797405 166.846178 252.797405 
z
" clip-path="url(#p1c902086f6)" style="fill: #a0a0a0"/>
   </g>
   <g id="patch_31">
    <path d="M 318.325729 257.767206 
C 320.961743 257.767206 323.490147 256.719907 325.35409 254.855964 
C 327.218033 252.992021 328.265332 250.463617 328.265332 247.827603 
C 328.265332 245.19159 327.218033 242.663185 325.35409 240.799242 
C 323.490147 238.935299 320.961743 237.888 318.325729 237.888 
C 315.689716 237.888 313.161311 238.935299 311.297368 240.799242 
C 309.433425 242.663185 308.386126 245.19159 308.386126 247.827603 
C 308.386126 250.463617 309.433425 252.992021 311.297368 254.855964 
C 313.161311 256.719907 315.689716 257.767206 318.325729 257.767206 
z
" clip-path="url(#p1c902086f6)" style="fill: #0dab76"/>
   </g>
   <g id="patch_32">
    <path d="M 318.325729 252.797405 
C 319.643736 252.797405 320.907938 252.273755 321.839909 251.341783 
C 322.771881 250.409812 323.295531 249.14561 323.295531 247.827603 
C 323.295531 246.509596 322.771881 245.245394 321.839909 244.313423 
C 320.907938 243.381451 319.643736 242.857802 318.325729 242.857802 
C 317.007722 242.857802 315.74352 243.381451 314.811549 244.313423 
C 313.879577 245.245394 313.355928 246.509596 313.355928 247.827603 
C 313.355928 249.14561 313.879577 250.409812 314.811549 251.341783 
C 315.74352 252.273755 317.007722 252.797405 318.325729 252.797405 
z
" clip-path="url(#p1c902086f6)" style="fill: #a0a0a0"/>
   </g>
   <g id="patch_33">
    <path d="M 318.325729 232.520614 
C 320.961743 232.520614 323.490147 231.473315 325.35409 229.609372 
C 327.218033 227.745429 328.265332 225.217025 328.265332 222.581011 
C 328.265332 219.944998 327.218033 217.416594 325.35409 215.55265 
C 323.490147 213.688707 320.961743 212.641408 318.325729 212.641408 
C 315.689716 212.641408 313.161311 213.688707 311.297368 215.55265 
C 309.433425 217.416594 308.386126 219.944998 308.386126 222.581011 
C 308.386126 225.217025 309.433425 227.745429 311.297368 229.609372 
C 313.161311 231.473315 315.689716 232.520614 318.325729 232.520614 
z
" clip-path="url(#p1c902086f6)" style="fill: #0dab76"/>
   </g>
   <g id="patch_34">
    <path d="M 318.325729 227.550813 
C 319.643736 227.550813 320.907938 227.027163 321.839909 226.095192 
C 322.771881 225.16322 323.295531 223.899018 323.295531 222.581011 
C 323.295531 221.263004 322.771881 219.998802 321.839909 219.066831 
C 320.907938 218.134859 319.643736 217.61121 318.325729 217.61121 
C 317.007722 217.61121 315.74352 218.134859 314.811549 219.066831 
C 313.879577 219.998802 313.355928 221.263004 313.355928 222.581011 
C 313.355928 223.899018 313.879577 225.16322 314.811549 226.095192 
C 315.74352 227.027163 317.007722 227.550813 318.325729 227.550813 
z
" clip-path="url(#p1c902086f6)" style="fill: #a0a0a0"/>
   </g>
   <g id="patch_35">
    <path d="M 318.325729 207.274022 
C 320.961743 207.274022 323.490147 206.226723 325.35409 204.36278 
C 327.218033 202.498837 328.265332 199.970433 328.265332 197.334419 
C 328.265332 194.698406 327.218033 192.170002 325.35409 190.306059 
C 323.490147 188.442116 320.961743 187.394816 318.325729 187.394816 
C 315.689716 187.394816 313.161311 188.442116 311.297368 190.306059 
C 309.433425 192.170002 308.386126 194.698406 308.386126 197.334419 
C 308.386126 199.970433 309.433425 202.498837 311.297368 204.36278 
C 313.161311 206.226723 315.689716 207.274022 318.325729 207.274022 
z
" clip-path="url(#p1c902086f6)" style="fill: #0dab76"/>
   </g>
   <g id="patch_36">
    <path d="M 318.325729 202.304221 
C 319.643736 202.304221 320.907938 201.780571 321.839909 200.8486 
C 322.771881 199.916628 323.295531 198.652426 323.295531 197.334419 
C 323.295531 196.016413 322.771881 194.75221 321.839909 193.820239 
C 320.907938 192.888267 319.643736 192.364618 318.325729 192.364618 
C 317.007722 192.364618 315.74352 192.888267 314.811549 193.820239 
C 313.879577 194.75221 313.355928 196.016413 313.355928 197.334419 
C 313.355928 198.652426 313.879577 199.916628 314.811549 200.8486 
C 315.74352 201.780571 317.007722 202.304221 318.325729 202.304221 
z
" clip-path="url(#p1c902086f6)" style="fill: #a0a0a0"/>
   </g>
   <g id="patch_37">
    <path d="M 318.325729 182.027431 
C 320.961743 182.027431 323.490147 180.980131 325.35409 179.116188 
C 327.218033 177.252245 328.265332 174.723841 328.265332 172.087827 
C 328.265332 169.451814 327.218033 166.92341 325.35409 165.059467 
C 323.490147 163.195524 320.961743 162.148224 318.325729 162.148224 
C 315.689716 162.148224 313.161311 163.195524 311.297368 165.059467 
C 309.433425 166.92341 308.386126 169.451814 308.386126 172.087827 
C 308.386126 174.723841 309.433425 177.252245 311.297368 179.116188 
C 313.161311 180.980131 315.689716 182.027431 318.325729 182.027431 
z
" clip-path="url(#p1c902086f6)" style="fill: #0dab76"/>
   </g>
   <g id="patch_38">
    <path d="M 318.325729 177.057629 
C 319.643736 177.057629 320.907938 176.533979 321.839909 175.602008 
C 322.771881 174.670036 323.295531 173.405834 323.295531 172.087827 
C 323.295531 170.769821 322.771881 169.505619 321.839909 168.573647 
C 320.907938 167.641676 319.643736 167.118026 318.325729 167.118026 
C 317.007722 167.118026 315.74352 167.641676 314.811549 168.573647 
C 313.879577 169.505619 313.355928 170.769821 313.355928 172.087827 
C 313.355928 173.405834 313.879577 174.670036 314.811549 175.602008 
C 315.74352 176.533979 317.007722 177.057629 318.325729 177.057629 
z
" clip-path="url(#p1c902086f6)" style="fill: #a0a0a0"/>
   </g>
   <g id="patch_39">
    <path d="M 318.325729 156.780839 
C 320.961743 156.780839 323.490147 155.733539 325.35409 153.869596 
C 327.218033 152.005653 328.265332 149.477249 328.265332 146.841236 
C 328.265332 144.205222 327.218033 141.676818 325.35409 139.812875 
C 323.490147 137.948932 320.961743 136.901632 318.325729 136.901632 
C 315.689716 136.901632 313.161311 137.948932 311.297368 139.812875 
C 309.433425 141.676818 308.386126 144.205222 308.386126 146.841236 
C 308.386126 149.477249 309.433425 152.005653 311.297368 153.869596 
C 313.161311 155.733539 315.689716 156.780839 318.325729 156.780839 
z
" clip-path="url(#p1c902086f6)" style="fill: #0dab76"/>
   </g>
   <g id="patch_40">
    <path d="M 318.325729 151.811037 
C 319.643736 151.811037 320.907938 151.287387 321.839909 150.355416 
C 322.771881 149.423444 323.295531 148.159242 323.295531 146.841236 
C 323.295531 145.523229 322.771881 144.259027 321.839909 143.327055 
C 320.907938 142.395084 319.643736 141.871434 318.325729 141.871434 
C 317.007722 141.871434 315.74352 142.395084 314.811549 143.327055 
C 313.879577 144.259027 313.355928 145.523229 313.355928 146.841236 
C 313.355928 148.159242 313.879577 149.423444 314.811549 150.355416 
C 315.74352 151.287387 317.007722 151.811037 318.325729 151.811037 
z
" clip-path="url(#p1c902086f6)" style="fill: #a0a0a0"/>
   </g>
   <g id="patch_41">
    <path d="M 318.325729 131.534247 
C 320.961743 131.534247 323.490147 130.486947 325.35409 128.623004 
C 327.218033 126.759061 328.265332 124.230657 328.265332 121.594644 
C 328.265332 118.95863 327.218033 116.430226 325.35409 114.566283 
C 323.490147 112.70234 320.961743 111.655041 318.325729 111.655041 
C 315.689716 111.655041 313.161311 112.70234 311.297368 114.566283 
C 309.433425 116.430226 308.386126 118.95863 308.386126 121.594644 
C 308.386126 124.230657 309.433425 126.759061 311.297368 128.623004 
C 313.161311 130.486947 315.689716 131.534247 318.325729 131.534247 
z
" clip-path="url(#p1c902086f6)" style="fill: #0dab76"/>
   </g>
   <g id="patch_42">
    <path d="M 318.325729 126.564445 
C 319.643736 126.564445 320.907938 126.040796 321.839909 125.108824 
C 322.771881 124.176853 323.295531 122.91265 323.295531 121.594644 
C 323.295531 120.276637 322.771881 119.012435 321.839909 118.080463 
C 320.907938 117.148492 319.643736 116.624842 318.325729 116.624842 
C 317.007722 116.624842 315.74352 117.148492 314.811549 118.080463 
C 313.879577 119.012435 313.355928 120.276637 313.355928 121.594644 
C 313.355928 122.91265 313.879577 124.176853 314.811549 125.108824 
C 315.74352 126.040796 317.007722 126.564445 318.325729 126.564445 
z
" clip-path="url(#p1c902086f6)" style="fill: #a0a0a0"/>
   </g>
   <g id="patch_43">
    <path d="M 318.325729 106.287655 
C 320.961743 106.287655 323.490147 105.240356 325.35409 103.376413 
C 327.218033 101.512469 328.265332 98.984065 328.265332 96.348052 
C 328.265332 93.712038 327.218033 91.183634 325.35409 89.319691 
C 323.490147 87.455748 320.961743 86.408449 318.325729 86.408449 
C 315.689716 86.408449 313.161311 87.455748 311.297368 89.319691 
C 309.433425 91.183634 308.386126 93.712038 308.386126 96.348052 
C 308.386126 98.984065 309.433425 101.512469 311.297368 103.376413 
C 313.161311 105.240356 315.689716 106.287655 318.325729 106.287655 
z
" clip-path="url(#p1c902086f6)" style="fill: #0dab76"/>
   </g>
   <g id="patch_44">
    <path d="M 318.325729 101.317853 
C 319.643736 101.317853 320.907938 100.794204 321.839909 99.862232 
C 322.771881 98.930261 323.295531 97.666059 323.295531 96.348052 
C 323.295531 95.030045 322.771881 93.765843 321.839909 92.833871 
C 320.907938 91.9019 319.643736 91.37825 318.325729 91.37825 
C 317.007722 91.37825 315.74352 91.9019 314.811549 92.833871 
C 313.879577 93.765843 313.355928 95.030045 313.355928 96.348052 
C 313.355928 97.666059 313.879577 98.930261 314.811549 99.862232 
C 315.74352 100.794204 317.007722 101.317853 318.325729 101.317853 
z
" clip-path="url(#p1c902086f6)" style="fill: #a0a0a0"/>
   </g>
   <g id="matplotlib.axis_1">
    <g id="xtick_1">
     <g id="line2d_71">
      <defs>
       <path id="md3ec59dae2" d="M 0 0 
L 0 3.5 
" style="stroke: #ffffff; stroke-width: 0.8"/>
      </defs>
      <g>
       <use xlink:href="#md3ec59dae2" x="143.189922" y="307.584" style="fill: #ffffff; stroke: #ffffff; stroke-width: 0.8"/>
      </g>
     </g>
     <g id="text_1">
      <text style="fill: #ffffff; font: 10px 'sans-serif'; text-anchor: middle" x="143.189922" y="322.182437" transform="rotate(-0, 143.189922, 322.182437)">10</text>
     </g>
    </g>
    <g id="xtick_2">
     <g id="line2d_72">
      <g>
       <use xlink:href="#md3ec59dae2" x="192.887938" y="307.584" style="fill: #ffffff; stroke: #ffffff; stroke-width: 0.8"/>
      </g>
     </g>
     <g id="text_2">
      <text style="fill: #ffffff; font: 10px 'sans-serif'; text-anchor: middle" x="192.887938" y="322.182437" transform="rotate(-0, 192.887938, 322.182437)">5</text>
     </g>
    </g>
    <g id="xtick_3">
     <g id="line2d_73">
      <g>
       <use xlink:href="#md3ec59dae2" x="242.585953" y="307.584" style="fill: #ffffff; stroke: #ffffff; stroke-width: 0.8"/>
      </g>
     </g>
     <g id="text_3">
      <text style="fill: #ffffff; font: 10px 'sans-serif'; text-anchor: middle" x="242.585953" y="322.182437" transform="rotate(-0, 242.585953, 322.182437)">0</text>
     </g>
    </g>
    <g id="xtick_4">
     <g id="line2d_74">
      <g>
       <use xlink:href="#md3ec59dae2" x="292.283969" y="307.584" style="fill: #ffffff; stroke: #ffffff; stroke-width: 0.8"/>
      </g>
     </g>
     <g id="text_4">
      <text style="fill: #ffffff; font: 10px 'sans-serif'; text-anchor: middle" x="292.283969" y="322.182437" transform="rotate(-0, 292.283969, 322.182437)">5</text>
     </g>
    </g>
   </g>
   <g id="matplotlib.axis_2">
    <g id="ytick_1">
     <g id="line2d_75">
      <defs>
       <path id="m26c38c95f6" d="M 0 0 
L -3.5 0 
" style="stroke: #ffffff; stroke-width: 0.8"/>
      </defs>
      <g>
       <use xlink:href="#m26c38c95f6" x="133.422771" y="266.514057" style="fill: #ffffff; stroke: #ffffff; stroke-width: 0.8"/>
      </g>
     </g>
     <g id="text_5">
      <text style="fill: #ffffff; font: 10px 'sans-serif'; text-anchor: end" x="126.422771" y="270.313276" transform="rotate(-0, 126.422771, 270.313276)">20</text>
     </g>
    </g>
    <g id="ytick_2">
     <g id="line2d_76">
      <g>
       <use xlink:href="#m26c38c95f6" x="133.422771" y="216.816041" style="fill: #ffffff; stroke: #ffffff; stroke-width: 0.8"/>
      </g>
     </g>
     <g id="text_6">
      <text style="fill: #ffffff; font: 10px 'sans-serif'; text-anchor: end" x="126.422771" y="220.61526" transform="rotate(-0, 126.422771, 220.61526)">15</text>
     </g>
    </g>
    <g id="ytick_3">
     <g id="line2d_77">
      <g>
       <use xlink:href="#m26c38c95f6" x="133.422771" y="167.118026" style="fill: #ffffff; stroke: #ffffff; stroke-width: 0.8"/>
      </g>
     </g>
     <g id="text_7">
      <text style="fill: #ffffff; font: 10px 'sans-serif'; text-anchor: end" x="126.422771" y="170.917245" transform="rotate(-0, 126.422771, 170.917245)">10</text>
     </g>
    </g>
    <g id="ytick_4">
     <g id="line2d_78">
      <g>
       <use xlink:href="#m26c38c95f6" x="133.422771" y="117.42001" style="fill: #ffffff; stroke: #ffffff; stroke-width: 0.8"/>
      </g>
     </g>
     <g id="text_8">
      <text style="fill: #ffffff; font: 10px 'sans-serif'; text-anchor: end" x="126.422771" y="121.219229" transform="rotate(-0, 126.422771, 121.219229)">5</text>
     </g>
    </g>
    <g id="ytick_5">
     <g id="line2d_79">
      <g>
       <use xlink:href="#m26c38c95f6" x="133.422771" y="67.721995" style="fill: #ffffff; stroke: #ffffff; stroke-width: 0.8"/>
      </g>
     </g>
     <g id="text_9">
      <text style="fill: #ffffff; font: 10px 'sans-serif'; text-anchor: end" x="126.422771" y="71.521214" transform="rotate(-0, 126.422771, 71.521214)">0</text>
     </g>
    </g>
   </g>
   <g id="patch_45">
    <path d="M 133.422771 307.584 
L 133.422771 41.472 
" style="fill: none; stroke: #ffffff; stroke-width: 0.8; stroke-linejoin: miter; stroke-linecap: square"/>
   </g>
   <g id="patch_46">
    <path d="M 338.897229 307.584 
L 338.897229 41.472 
" style="fill: none; stroke: #ffffff; stroke-width: 0.8; stroke-linejoin: miter; stroke-linecap: square"/>
   </g>
   <g id="patch_47">
    <path d="M 133.422771 307.584 
L 338.897229 307.584 
" style="fill: none; stroke: #ffffff; stroke-width: 0.8; stroke-linejoin: miter; stroke-linecap: square"/>
   </g>
   <g id="patch_48">
    <path d="M 133.422771 41.472 
L 338.897229 41.472 
" style="fill: none; stroke: #ffffff; stroke-width: 0.8; stroke-linejoin: miter; stroke-linecap: square"/>
   </g>
   <g id="text_10">
    <text style="fill: #ffffff; font: 12px 'sans-serif'; text-anchor: middle" x="236.16" y="35.472" transform="rotate(-0, 236.16, 35.472)">XIAO-NRF52840-DIP</text>
   </g>
  </g>
 </g>
 <defs>
  <clipPath id="p1c902086f6">
   <rect x="133.422771" y="41.472" width="205.474457" height="266.112"/>
  </clipPath>
 </defs>
</svg>
