<?xml version="1.0" encoding="utf-8" standalone="no"?>
<!DOCTYPE svg PUBLIC "-//W3C//DTD SVG 1.1//EN"
  "http://www.w3.org/Graphics/SVG/1.1/DTD/svg11.dtd">
<svg xmlns:xlink="http://www.w3.org/1999/xlink" width="460.8pt" height="345.6pt" viewBox="0 0 460.8 345.6" xmlns="http://www.w3.org/2000/svg" version="1.1">
 <metadata>
  <rdf:RDF xmlns:dc="http://purl.org/dc/elements/1.1/" xmlns:cc="http://creativecommons.org/ns#" xmlns:rdf="http://www.w3.org/1999/02/22-rdf-syntax-ns#">
   <cc:Work>
    <dc:type rdf:resource="http://purl.org/dc/dcmitype/StillImage"/>
    <dc:date>2023-02-18T16:05:59.662588</dc:date>
    <dc:format>image/svg+xml</dc:format>
    <dc:creator>
     <cc:Agent>
      <dc:title>Matplotlib v3.5.1, https://matplotlib.org/</dc:title>
     </cc:Agent>
    </dc:creator>
   </cc:Work>
  </rdf:RDF>
 </metadata>
 <defs>
  <style type="text/css">*{stroke-linejoin: round; stroke-linecap: butt}</style>
 </defs>
 <g id="figure_1">
  <g id="patch_1">
   <path d="M 0 345.6 
L 460.8 345.6 
L 460.8 0 
L 0 0 
z
" style="fill: #2b2b2b"/>
  </g>
  <g id="axes_1">
   <g id="patch_2">
    <path d="M 75.424364 307.584 
L 396.895636 307.584 
L 396.895636 41.472 
L 75.424364 41.472 
z
" style="fill: #2b2b2b"/>
   </g>
   <g id="patch_3">
    <path d="M 114.390578 68.996876 
C 114.416007 68.996876 114.440397 68.986773 114.458377 68.968793 
C 114.476357 68.950813 114.48646 68.926423 114.48646 68.900994 
C 114.48646 68.875566 114.476357 68.851176 114.458377 68.833196 
C 114.440397 68.815216 114.416007 68.805113 114.390578 68.805113 
C 114.36515 68.805113 114.34076 68.815216 114.32278 68.833196 
C 114.3048 68.851176 114.294697 68.875566 114.294697 68.900994 
C 114.294697 68.926423 114.3048 68.950813 114.32278 68.968793 
C 114.34076 68.986773 114.36515 68.996876 114.390578 68.996876 
L 114.390578 68.996876 
z
" clip-path="url(#p1bcfa87b2a)" style="fill: none; stroke: #808080; stroke-width: 0.958814; stroke-linejoin: miter"/>
   </g>
   <g id="line2d_1">
    <path d="M 114.233196 56.674966 
L 123.071207 60.377371 
L 123.071207 60.377371 
L 114.232783 64.079978 
L 114.232783 64.079978 
" clip-path="url(#p1bcfa87b2a)" style="fill: none; stroke: #808080; stroke-width: 0.681909; stroke-linecap: round"/>
   </g>
   <g id="line2d_2">
    <path d="M 125.238593 66.946592 
L 125.238593 53.807223 
L 132.52497 66.946592 
L 132.52497 53.807223 
" clip-path="url(#p1bcfa87b2a)" style="fill: none; stroke: #808080; stroke-width: 0.681909; stroke-linecap: round"/>
   </g>
   <g id="line2d_3">
    <path d="M 134.749552 66.707824 
L 139.169308 53.568 
L 139.169308 53.568 
L 143.469112 66.708162 
L 143.469112 66.708162 
" clip-path="url(#p1bcfa87b2a)" style="fill: none; stroke: #808080; stroke-width: 0.681909; stroke-linecap: round"/>
   </g>
   <g id="line2d_4">
    <path d="M 142.395113 63.48329 
L 135.825429 63.48329 
" clip-path="url(#p1bcfa87b2a)" style="fill: none; stroke: #808080; stroke-width: 0.681909; stroke-linecap: round"/>
   </g>
   <g id="line2d_5">
    <path d="M 144.979046 66.94698 
L 144.979046 53.807611 
L 149.279203 61.093988 
L 149.279203 61.093988 
L 153.698809 53.807611 
L 153.698809 53.807611 
L 153.698809 66.94698 
" clip-path="url(#p1bcfa87b2a)" style="fill: none; stroke: #808080; stroke-width: 0.681909; stroke-linecap: round"/>
   </g>
   <g id="line2d_6">
    <path d="M 162.493411 66.947053 
L 156.64042 66.947053 
L 156.64042 53.807685 
L 162.493411 53.807685 
" clip-path="url(#p1bcfa87b2a)" style="fill: none; stroke: #808080; stroke-width: 0.681909; stroke-linecap: round"/>
   </g>
   <g id="line2d_7">
    <path d="M 156.640657 59.660986 
L 161.060262 59.660986 
" clip-path="url(#p1bcfa87b2a)" style="fill: none; stroke: #808080; stroke-width: 0.681909; stroke-linecap: round"/>
   </g>
   <g id="patch_4">
    <path d="M 114.390578 295.488 
C 114.416007 295.488 114.440397 295.477897 114.458377 295.459917 
C 114.476357 295.441937 114.48646 295.417547 114.48646 295.392119 
C 114.48646 295.366691 114.476357 295.342301 114.458377 295.32432 
C 114.440397 295.30634 114.416007 295.296237 114.390578 295.296237 
C 114.36515 295.296237 114.34076 295.30634 114.32278 295.32432 
C 114.3048 295.342301 114.294697 295.366691 114.294697 295.392119 
C 114.294697 295.417547 114.3048 295.441937 114.32278 295.459917 
C 114.34076 295.477897 114.36515 295.488 114.390578 295.488 
L 114.390578 295.488 
z
" clip-path="url(#p1bcfa87b2a)" style="fill: none; stroke: #808080; stroke-width: 0.958814; stroke-linejoin: miter"/>
   </g>
   <g id="line2d_8">
    <path d="M 114.233196 283.16609 
L 123.071207 286.868495 
L 123.071207 286.868495 
L 114.232783 290.571102 
L 114.232783 290.571102 
" clip-path="url(#p1bcfa87b2a)" style="fill: none; stroke: #808080; stroke-width: 0.681909; stroke-linecap: round"/>
   </g>
   <g id="line2d_9">
    <path d="M 124.521052 280.298676 
L 128.940808 293.4385 
L 128.940808 293.4385 
L 133.240612 280.298338 
L 133.240612 280.298338 
" clip-path="url(#p1bcfa87b2a)" style="fill: none; stroke: #808080; stroke-width: 0.681909; stroke-linecap: round"/>
   </g>
   <g id="line2d_10">
    <path d="M 134.749552 293.198948 
L 139.169308 280.059124 
L 139.169308 280.059124 
L 143.469112 293.199286 
L 143.469112 293.199286 
" clip-path="url(#p1bcfa87b2a)" style="fill: none; stroke: #808080; stroke-width: 0.681909; stroke-linecap: round"/>
   </g>
   <g id="line2d_11">
    <path d="M 142.395113 289.974415 
L 135.825429 289.974415 
" clip-path="url(#p1bcfa87b2a)" style="fill: none; stroke: #808080; stroke-width: 0.681909; stroke-linecap: round"/>
   </g>
   <g id="line2d_12">
    <path d="M 146.411537 280.298746 
L 146.411537 293.438114 
L 152.264528 293.438114 
" clip-path="url(#p1bcfa87b2a)" style="fill: none; stroke: #808080; stroke-width: 0.681909; stroke-linecap: round"/>
   </g>
   <g id="line2d_13">
    <path d="M 155.923728 280.299301 
L 155.923728 289.735757 
L 155.923728 289.735757 
L 156.162626 290.930245 
L 156.162626 290.930245 
L 156.640421 291.885835 
L 157.476562 292.721977 
L 158.432153 293.319221 
L 159.626641 293.43867 
L 160.70168 293.319221 
L 161.776719 292.721977 
L 162.612861 291.885835 
L 163.090656 290.930245 
L 163.210105 289.735757 
L 163.210105 280.299301 
" clip-path="url(#p1bcfa87b2a)" style="fill: none; stroke: #808080; stroke-width: 0.681909; stroke-linecap: round"/>
   </g>
   <g id="line2d_14">
    <path d="M 172.722042 293.438177 
L 166.869051 293.438177 
L 166.869051 280.298809 
L 172.722042 280.298809 
" clip-path="url(#p1bcfa87b2a)" style="fill: none; stroke: #808080; stroke-width: 0.681909; stroke-linecap: round"/>
   </g>
   <g id="line2d_15">
    <path d="M 166.869288 286.152111 
L 171.288894 286.152111 
" clip-path="url(#p1bcfa87b2a)" style="fill: none; stroke: #808080; stroke-width: 0.681909; stroke-linecap: round"/>
   </g>
   <g id="line2d_16">
    <path d="M 90.036694 100.561044 
L 114.390578 100.561044 
" clip-path="url(#p1bcfa87b2a)" style="fill: none; stroke: #c90d15; stroke-width: 0.958814; stroke-linecap: square"/>
   </g>
   <g id="line2d_17">
    <path d="M 143.907528 93.171187 
L 148.879132 107.951641 
L 148.879132 107.951641 
L 153.715807 93.170807 
L 153.715807 93.170807 
" clip-path="url(#p1bcfa87b2a)" style="fill: none; stroke: #ffffff; stroke-width: 0.767051; stroke-linecap: round"/>
   </g>
   <g id="line2d_18">
    <path d="M 163.608934 107.951279 
L 160.384219 107.951279 
L 159.309314 107.816915 
L 158.368773 107.279463 
L 157.696957 106.607647 
L 157.159505 105.667106 
L 157.025142 104.726564 
L 157.025142 96.396051 
L 157.025142 96.396051 
L 157.293868 95.186783 
L 157.293868 95.186783 
L 157.965683 94.111878 
L 159.040588 93.440063 
L 159.040588 93.440063 
L 160.384219 93.171337 
L 160.384219 93.171337 
L 163.608934 93.171337 
" clip-path="url(#p1bcfa87b2a)" style="fill: none; stroke: #ffffff; stroke-width: 0.767051; stroke-linecap: round"/>
   </g>
   <g id="line2d_19">
    <path d="M 175.114706 107.951279 
L 171.889991 107.951279 
L 170.815086 107.816915 
L 169.874545 107.279463 
L 169.202729 106.607647 
L 168.665277 105.667106 
L 168.530914 104.726564 
L 168.530914 96.396051 
L 168.530914 96.396051 
L 168.79964 95.186783 
L 168.79964 95.186783 
L 169.471455 94.111878 
L 170.54636 93.440063 
L 170.54636 93.440063 
L 171.889991 93.171337 
L 171.889991 93.171337 
L 175.114706 93.171337 
" clip-path="url(#p1bcfa87b2a)" style="fill: none; stroke: #ffffff; stroke-width: 0.767051; stroke-linecap: round"/>
   </g>
   <g id="line2d_20">
    <path d="M 185.744427 95.657144 
L 183.325891 95.657144 
L 182.385349 95.791507 
L 181.57917 96.328959 
L 181.041718 97.135138 
L 180.907355 98.07568 
L 180.907355 103.047115 
L 181.041718 103.987656 
L 181.57917 104.793835 
L 182.385349 105.331287 
L 183.325891 105.600014 
L 184.266433 105.331287 
L 185.072611 104.793835 
L 185.610064 103.987656 
L 185.744427 103.047115 
" clip-path="url(#p1bcfa87b2a)" style="fill: none; stroke: #ffffff; stroke-width: 0.767051; stroke-linecap: round"/>
   </g>
   <g id="line2d_21">
    <path d="M 185.747782 95.65629 
L 185.747782 103.449351 
L 186.016508 104.389893 
L 186.553961 105.061708 
L 187.360139 105.464797 
L 188.300681 105.464797 
L 189.10686 105.061708 
L 189.644312 104.389893 
L 189.913038 103.449351 
L 189.913038 97.268648 
L 189.644312 95.65629 
L 188.972496 94.043933 
L 188.031955 92.700302 
L 186.553961 91.625397 
L 185.075966 90.953582 
L 183.329246 90.684855 
L 181.582525 90.953582 
L 179.970168 91.625397 
L 178.626537 92.700302 
L 177.551632 94.043933 
L 177.01418 95.65629 
L 176.745454 97.268648 
L 176.745454 104.255529 
L 176.879817 105.867887 
L 177.551632 107.345881 
L 178.357811 108.555149 
L 179.567079 109.495691 
L 181.045073 110.167506 
L 182.523067 110.436232 
" clip-path="url(#p1bcfa87b2a)" style="fill: none; stroke: #ffffff; stroke-width: 0.767051; stroke-linecap: round"/>
   </g>
   <g id="line2d_22">
    <path d="M 190.669727 96.395281 
L 194.834493 93.170947 
L 194.834493 93.170947 
L 194.834424 107.950999 
L 194.834424 107.950999 
" clip-path="url(#p1bcfa87b2a)" style="fill: none; stroke: #ffffff; stroke-width: 0.767051; stroke-linecap: round"/>
   </g>
   <g id="line2d_23">
    <path d="M 190.669975 107.95069 
L 199.000488 107.95069 
" clip-path="url(#p1bcfa87b2a)" style="fill: none; stroke: #ffffff; stroke-width: 0.767051; stroke-linecap: round"/>
   </g>
   <g id="line2d_24">
    <path d="M 382.283306 246.68435 
L 357.929422 246.68435 
" clip-path="url(#p1bcfa87b2a)" style="fill: none; stroke: #c90d15; stroke-width: 0.958814; stroke-linecap: square"/>
   </g>
   <g id="line2d_25">
    <path d="M 289.710842 245.878784 
L 292.129383 245.878784 
L 292.129383 254.074933 
L 287.157938 254.074933 
L 286.217394 253.94057 
L 285.276851 253.403118 
L 284.47067 252.731302 
L 284.06758 251.79076 
L 283.933217 250.850219 
L 283.933217 242.519706 
L 284.201944 241.310438 
L 284.873761 240.235533 
L 285.948668 239.563717 
L 287.157938 239.294991 
L 292.129383 239.294991 
" clip-path="url(#p1bcfa87b2a)" style="fill: none; stroke: #ffffff; stroke-width: 0.767051; stroke-linecap: round"/>
   </g>
   <g id="line2d_26">
    <path d="M 295.440275 254.074065 
L 295.440275 239.294123 
L 303.636425 254.074065 
L 303.636425 239.294123 
" clip-path="url(#p1bcfa87b2a)" style="fill: none; stroke: #ffffff; stroke-width: 0.767051; stroke-linecap: round"/>
   </g>
   <g id="line2d_27">
    <path d="M 306.945293 254.073617 
L 306.945293 239.293675 
L 310.976186 239.293675 
L 312.319817 239.428038 
L 313.394722 240.099854 
L 314.335263 240.906033 
L 314.872716 242.115301 
L 315.141442 243.324569 
L 315.141442 249.908361 
L 314.872716 251.251992 
L 314.335263 252.326897 
L 313.394722 253.267439 
L 312.319817 253.939254 
L 310.976186 254.073617 
L 306.945293 254.073617 
" clip-path="url(#p1bcfa87b2a)" style="fill: none; stroke: #ffffff; stroke-width: 0.767051; stroke-linecap: round"/>
   </g>
   <g id="line2d_28">
    <path d="M 324.964269 241.780449 
L 322.545733 241.780449 
L 321.605192 241.914813 
L 320.799013 242.452265 
L 320.261561 243.258444 
L 320.127197 244.198985 
L 320.127197 249.17042 
L 320.261561 250.110962 
L 320.799013 250.917141 
L 321.605192 251.454593 
L 322.545733 251.723319 
L 323.486275 251.454593 
L 324.292454 250.917141 
L 324.829906 250.110962 
L 324.964269 249.17042 
" clip-path="url(#p1bcfa87b2a)" style="fill: none; stroke: #ffffff; stroke-width: 0.767051; stroke-linecap: round"/>
   </g>
   <g id="line2d_29">
    <path d="M 324.967624 241.779596 
L 324.967624 249.572657 
L 325.236351 250.513198 
L 325.773803 251.185014 
L 326.579982 251.588103 
L 327.520523 251.588103 
L 328.326702 251.185014 
L 328.864155 250.513198 
L 329.132881 249.572657 
L 329.132881 243.391954 
L 328.864155 241.779596 
L 328.192339 240.167239 
L 327.251797 238.823608 
L 325.773803 237.748703 
L 324.295809 237.076888 
L 322.549088 236.808161 
L 320.802368 237.076888 
L 319.190011 237.748703 
L 317.84638 238.823608 
L 316.771475 240.167239 
L 316.234022 241.779596 
L 315.965296 243.391954 
L 315.965296 250.378835 
L 316.099659 251.991193 
L 316.771475 253.469187 
L 317.577653 254.678455 
L 318.786921 255.618996 
L 320.264916 256.290812 
L 321.74291 256.559538 
" clip-path="url(#p1bcfa87b2a)" style="fill: none; stroke: #ffffff; stroke-width: 0.767051; stroke-linecap: round"/>
   </g>
   <g id="line2d_30">
    <path d="M 338.153106 254.0743 
L 329.956957 254.0743 
L 329.956957 254.0743 
L 336.943838 245.87815 
L 336.943838 245.87815 
L 336.943838 245.87815 
L 337.615654 245.071972 
L 337.615654 245.071972 
L 338.018743 243.997067 
L 338.153106 242.922162 
L 338.018743 241.847257 
L 337.481291 240.772352 
L 336.675112 239.966173 
L 335.600207 239.428721 
L 334.525302 239.294358 
L 333.047308 239.428721 
L 331.703677 240.100537 
L 330.628772 241.175441 
L 329.956957 242.519072 
" clip-path="url(#p1bcfa87b2a)" style="fill: none; stroke: #ffffff; stroke-width: 0.767051; stroke-linecap: round"/>
   </g>
   <g id="line2d_31">
    <path d="M 90.036694 149.268813 
L 114.390578 149.268813 
" clip-path="url(#p1bcfa87b2a)" style="fill: none; stroke: #c90d15; stroke-width: 0.958814; stroke-linecap: square"/>
   </g>
   <g id="line2d_32">
    <path d="M 144.713926 154.643075 
L 146.19192 155.71798 
L 147.804278 156.389795 
L 149.685361 156.658522 
L 150.625903 156.524159 
L 151.566445 155.986706 
L 152.372623 155.314891 
L 152.775713 154.374349 
L 152.910076 153.433807 
L 152.775713 152.224539 
L 152.23826 151.283997 
L 152.23826 151.283997 
L 151.297718 150.477819 
L 151.297718 150.477819 
L 151.297718 150.477819 
L 146.729373 148.059283 
L 146.729373 148.059283 
L 145.923194 147.253104 
L 145.385742 146.312562 
L 145.117015 145.103294 
L 145.251379 144.162753 
L 145.788831 143.222211 
L 146.460647 142.416032 
L 147.401188 142.012943 
L 148.476093 141.87858 
L 149.685361 142.012943 
L 151.028992 142.416032 
L 152.103897 143.087848 
" clip-path="url(#p1bcfa87b2a)" style="fill: none; stroke: #ffffff; stroke-width: 0.767051; stroke-linecap: round"/>
   </g>
   <g id="line2d_33">
    <path d="M 156.219678 156.65808 
L 156.219678 141.878138 
L 160.250571 141.878138 
L 161.594202 142.012501 
L 162.669107 142.684317 
L 163.609649 143.490495 
L 164.147101 144.699763 
L 164.415827 145.909031 
L 164.415827 152.492824 
L 164.147101 153.836455 
L 163.609649 154.91136 
L 162.669107 155.851901 
L 161.594202 156.523717 
L 160.250571 156.65808 
L 156.219678 156.65808 
" clip-path="url(#p1bcfa87b2a)" style="fill: none; stroke: #ffffff; stroke-width: 0.767051; stroke-linecap: round"/>
   </g>
   <g id="line2d_34">
    <path d="M 171.89087 141.879299 
L 171.89087 156.659241 
" clip-path="url(#p1bcfa87b2a)" style="fill: none; stroke: #ffffff; stroke-width: 0.767051; stroke-linecap: round"/>
   </g>
   <g id="line2d_35">
    <path d="M 170.143732 156.659047 
L 173.50281 156.659047 
" clip-path="url(#p1bcfa87b2a)" style="fill: none; stroke: #ffffff; stroke-width: 0.767051; stroke-linecap: round"/>
   </g>
   <g id="line2d_36">
    <path d="M 170.143732 141.878818 
L 173.50281 141.878818 
" clip-path="url(#p1bcfa87b2a)" style="fill: none; stroke: #ffffff; stroke-width: 0.767051; stroke-linecap: round"/>
   </g>
   <g id="line2d_37">
    <path d="M 382.283306 149.268813 
L 357.929422 149.268813 
" clip-path="url(#p1bcfa87b2a)" style="fill: none; stroke: #c90d15; stroke-width: 0.958814; stroke-linecap: square"/>
   </g>
   <g id="line2d_38">
    <path d="M 306.945313 154.643075 
L 308.423307 155.71798 
L 310.035664 156.389795 
L 311.916748 156.658522 
L 312.85729 156.524159 
L 313.797831 155.986706 
L 314.60401 155.314891 
L 315.007099 154.374349 
L 315.141463 153.433807 
L 315.007099 152.224539 
L 314.469647 151.283997 
L 314.469647 151.283997 
L 313.529105 150.477819 
L 313.529105 150.477819 
L 313.529105 150.477819 
L 308.96076 148.059283 
L 308.96076 148.059283 
L 308.154581 147.253104 
L 307.617128 146.312562 
L 307.348402 145.103294 
L 307.482765 144.162753 
L 308.020218 143.222211 
L 308.692033 142.416032 
L 309.632575 142.012943 
L 310.70748 141.87858 
L 311.916748 142.012943 
L 313.260379 142.416032 
L 314.335284 143.087848 
" clip-path="url(#p1bcfa87b2a)" style="fill: none; stroke: #ffffff; stroke-width: 0.767051; stroke-linecap: round"/>
   </g>
   <g id="line2d_39">
    <path d="M 318.451065 156.65808 
L 318.451065 141.878138 
L 322.481958 141.878138 
L 323.825589 142.012501 
L 324.900494 142.684317 
L 325.841036 143.490495 
L 326.378488 144.699763 
L 326.647214 145.909031 
L 326.647214 152.492824 
L 326.378488 153.836455 
L 325.841036 154.91136 
L 324.900494 155.851901 
L 323.825589 156.523717 
L 322.481958 156.65808 
L 318.451065 156.65808 
" clip-path="url(#p1bcfa87b2a)" style="fill: none; stroke: #ffffff; stroke-width: 0.767051; stroke-linecap: round"/>
   </g>
   <g id="line2d_40">
    <path d="M 329.89041 145.909415 
L 330.159136 144.700147 
L 330.696589 143.490879 
L 331.637131 142.6847 
L 332.846399 142.012884 
L 334.055667 141.878521 
L 335.399298 142.012884 
L 336.474202 142.6847 
L 337.414744 143.490879 
L 337.952197 144.700147 
L 338.220923 145.909415 
L 338.220923 152.493207 
L 337.952197 153.836838 
L 337.414744 154.911743 
L 336.474202 155.852285 
L 335.399298 156.5241 
L 334.055667 156.658463 
L 332.846399 156.5241 
L 331.637131 155.852285 
L 330.696589 154.911743 
L 330.159136 153.836838 
L 329.89041 152.493207 
L 329.89041 145.909415 
" clip-path="url(#p1bcfa87b2a)" style="fill: none; stroke: #ffffff; stroke-width: 0.767051; stroke-linecap: round"/>
   </g>
   <g id="line2d_41">
    <path d="M 382.283306 100.561044 
L 357.929422 100.561044 
" clip-path="url(#p1bcfa87b2a)" style="fill: none; stroke: #c90d15; stroke-width: 0.958814; stroke-linecap: square"/>
   </g>
   <g id="line2d_42">
    <path d="M 283.12737 93.171187 
L 288.098975 107.951641 
L 288.098975 107.951641 
L 292.935649 93.170807 
L 292.935649 93.170807 
" clip-path="url(#p1bcfa87b2a)" style="fill: none; stroke: #ffffff; stroke-width: 0.767051; stroke-linecap: round"/>
   </g>
   <g id="line2d_43">
    <path d="M 302.828776 107.951279 
L 299.604062 107.951279 
L 298.529157 107.816915 
L 297.588615 107.279463 
L 296.9168 106.607647 
L 296.379347 105.667106 
L 296.244984 104.726564 
L 296.244984 96.396051 
L 296.244984 96.396051 
L 296.51371 95.186783 
L 296.51371 95.186783 
L 297.185526 94.111878 
L 298.260431 93.440063 
L 298.260431 93.440063 
L 299.604062 93.171337 
L 299.604062 93.171337 
L 302.828776 93.171337 
" clip-path="url(#p1bcfa87b2a)" style="fill: none; stroke: #ffffff; stroke-width: 0.767051; stroke-linecap: round"/>
   </g>
   <g id="line2d_44">
    <path d="M 314.334549 107.951279 
L 311.109834 107.951279 
L 310.034929 107.816915 
L 309.094387 107.279463 
L 308.422572 106.607647 
L 307.885119 105.667106 
L 307.750756 104.726564 
L 307.750756 96.396051 
L 307.750756 96.396051 
L 308.019482 95.186783 
L 308.019482 95.186783 
L 308.691298 94.111878 
L 309.766203 93.440063 
L 309.766203 93.440063 
L 311.109834 93.171337 
L 311.109834 93.171337 
L 314.334549 93.171337 
" clip-path="url(#p1bcfa87b2a)" style="fill: none; stroke: #ffffff; stroke-width: 0.767051; stroke-linecap: round"/>
   </g>
   <g id="line2d_45">
    <path d="M 324.964269 95.657144 
L 322.545733 95.657144 
L 321.605192 95.791507 
L 320.799013 96.328959 
L 320.261561 97.135138 
L 320.127197 98.07568 
L 320.127197 103.047115 
L 320.261561 103.987656 
L 320.799013 104.793835 
L 321.605192 105.331287 
L 322.545733 105.600014 
L 323.486275 105.331287 
L 324.292454 104.793835 
L 324.829906 103.987656 
L 324.964269 103.047115 
" clip-path="url(#p1bcfa87b2a)" style="fill: none; stroke: #ffffff; stroke-width: 0.767051; stroke-linecap: round"/>
   </g>
   <g id="line2d_46">
    <path d="M 324.967624 95.65629 
L 324.967624 103.449351 
L 325.236351 104.389893 
L 325.773803 105.061708 
L 326.579982 105.464797 
L 327.520523 105.464797 
L 328.326702 105.061708 
L 328.864155 104.389893 
L 329.132881 103.449351 
L 329.132881 97.268648 
L 328.864155 95.65629 
L 328.192339 94.043933 
L 327.251797 92.700302 
L 325.773803 91.625397 
L 324.295809 90.953582 
L 322.549088 90.684855 
L 320.802368 90.953582 
L 319.190011 91.625397 
L 317.84638 92.700302 
L 316.771475 94.043933 
L 316.234022 95.65629 
L 315.965296 97.268648 
L 315.965296 104.255529 
L 316.099659 105.867887 
L 316.771475 107.345881 
L 317.577653 108.555149 
L 318.786921 109.495691 
L 320.264916 110.167506 
L 321.74291 110.436232 
" clip-path="url(#p1bcfa87b2a)" style="fill: none; stroke: #ffffff; stroke-width: 0.767051; stroke-linecap: round"/>
   </g>
   <g id="line2d_47">
    <path d="M 338.153106 107.950994 
L 329.956957 107.950994 
L 329.956957 107.950994 
L 336.943838 99.754844 
L 336.943838 99.754844 
L 336.943838 99.754844 
L 337.615654 98.948666 
L 337.615654 98.948666 
L 338.018743 97.873761 
L 338.153106 96.798856 
L 338.018743 95.723951 
L 337.481291 94.649046 
L 336.675112 93.842868 
L 335.600207 93.305415 
L 334.525302 93.171052 
L 333.047308 93.305415 
L 331.703677 93.977231 
L 330.628772 95.052136 
L 329.956957 96.395767 
" clip-path="url(#p1bcfa87b2a)" style="fill: none; stroke: #ffffff; stroke-width: 0.767051; stroke-linecap: round"/>
   </g>
   <g id="line2d_48">
    <path d="M 90.036694 246.68435 
L 114.390578 246.68435 
" clip-path="url(#p1bcfa87b2a)" style="fill: none; stroke: #c90d15; stroke-width: 0.958814; stroke-linecap: square"/>
   </g>
   <g id="line2d_49">
    <path d="M 150.491 245.878784 
L 152.90954 245.878784 
L 152.90954 254.074933 
L 147.938095 254.074933 
L 146.997552 253.94057 
L 146.057008 253.403118 
L 145.250828 252.731302 
L 144.847738 251.79076 
L 144.713374 250.850219 
L 144.713374 242.519706 
L 144.982101 241.310438 
L 145.653918 240.235533 
L 146.728825 239.563717 
L 147.938095 239.294991 
L 152.90954 239.294991 
" clip-path="url(#p1bcfa87b2a)" style="fill: none; stroke: #ffffff; stroke-width: 0.767051; stroke-linecap: round"/>
   </g>
   <g id="line2d_50">
    <path d="M 156.220433 254.074065 
L 156.220433 239.294123 
L 164.416582 254.074065 
L 164.416582 239.294123 
" clip-path="url(#p1bcfa87b2a)" style="fill: none; stroke: #ffffff; stroke-width: 0.767051; stroke-linecap: round"/>
   </g>
   <g id="line2d_51">
    <path d="M 167.72545 254.073617 
L 167.72545 239.293675 
L 171.756343 239.293675 
L 173.099974 239.428038 
L 174.174879 240.099854 
L 175.115421 240.906033 
L 175.652873 242.115301 
L 175.9216 243.324569 
L 175.9216 249.908361 
L 175.652873 251.251992 
L 175.115421 252.326897 
L 174.174879 253.267439 
L 173.099974 253.939254 
L 171.756343 254.073617 
L 167.72545 254.073617 
" clip-path="url(#p1bcfa87b2a)" style="fill: none; stroke: #ffffff; stroke-width: 0.767051; stroke-linecap: round"/>
   </g>
   <g id="line2d_52">
    <path d="M 185.744427 241.780449 
L 183.325891 241.780449 
L 182.385349 241.914813 
L 181.57917 242.452265 
L 181.041718 243.258444 
L 180.907355 244.198985 
L 180.907355 249.17042 
L 181.041718 250.110962 
L 181.57917 250.917141 
L 182.385349 251.454593 
L 183.325891 251.723319 
L 184.266433 251.454593 
L 185.072611 250.917141 
L 185.610064 250.110962 
L 185.744427 249.17042 
" clip-path="url(#p1bcfa87b2a)" style="fill: none; stroke: #ffffff; stroke-width: 0.767051; stroke-linecap: round"/>
   </g>
   <g id="line2d_53">
    <path d="M 185.747782 241.779596 
L 185.747782 249.572657 
L 186.016508 250.513198 
L 186.553961 251.185014 
L 187.360139 251.588103 
L 188.300681 251.588103 
L 189.10686 251.185014 
L 189.644312 250.513198 
L 189.913038 249.572657 
L 189.913038 243.391954 
L 189.644312 241.779596 
L 188.972496 240.167239 
L 188.031955 238.823608 
L 186.553961 237.748703 
L 185.075966 237.076888 
L 183.329246 236.808161 
L 181.582525 237.076888 
L 179.970168 237.748703 
L 178.626537 238.823608 
L 177.551632 240.167239 
L 177.01418 241.779596 
L 176.745454 243.391954 
L 176.745454 250.378835 
L 176.879817 251.991193 
L 177.551632 253.469187 
L 178.357811 254.678455 
L 179.567079 255.618996 
L 181.045073 256.290812 
L 182.523067 256.559538 
" clip-path="url(#p1bcfa87b2a)" style="fill: none; stroke: #ffffff; stroke-width: 0.767051; stroke-linecap: round"/>
   </g>
   <g id="line2d_54">
    <path d="M 190.669727 242.518587 
L 194.834493 239.294253 
L 194.834493 239.294253 
L 194.834424 254.074304 
L 194.834424 254.074304 
" clip-path="url(#p1bcfa87b2a)" style="fill: none; stroke: #ffffff; stroke-width: 0.767051; stroke-linecap: round"/>
   </g>
   <g id="line2d_55">
    <path d="M 190.669975 254.073996 
L 199.000488 254.073996 
" clip-path="url(#p1bcfa87b2a)" style="fill: none; stroke: #ffffff; stroke-width: 0.767051; stroke-linecap: round"/>
   </g>
   <g id="line2d_56">
    <path d="M 90.036694 197.976581 
L 114.390578 197.976581 
" clip-path="url(#p1bcfa87b2a)" style="fill: none; stroke: #c90d15; stroke-width: 0.958814; stroke-linecap: square"/>
   </g>
   <g id="line2d_57">
    <path d="M 152.103162 205.366816 
L 148.878447 205.366816 
L 147.803542 205.232453 
L 146.863 204.695 
L 146.191185 204.023185 
L 145.653733 203.082643 
L 145.519369 202.142101 
L 145.519369 193.811588 
L 145.519369 193.811588 
L 145.788096 192.60232 
L 145.788096 192.60232 
L 146.459911 191.527416 
L 147.534816 190.8556 
L 147.534816 190.8556 
L 148.878447 190.586874 
L 148.878447 190.586874 
L 152.103162 190.586874 
" clip-path="url(#p1bcfa87b2a)" style="fill: none; stroke: #ffffff; stroke-width: 0.767051; stroke-linecap: round"/>
   </g>
   <g id="line2d_58">
    <path d="M 156.220433 205.379314 
L 156.220433 190.599372 
" clip-path="url(#p1bcfa87b2a)" style="fill: none; stroke: #ffffff; stroke-width: 0.767051; stroke-linecap: round"/>
   </g>
   <g id="line2d_59">
    <path d="M 164.416752 190.597877 
L 156.219611 199.601296 
" clip-path="url(#p1bcfa87b2a)" style="fill: none; stroke: #ffffff; stroke-width: 0.767051; stroke-linecap: round"/>
   </g>
   <g id="line2d_60">
    <path d="M 164.416086 205.378994 
L 159.444494 196.376386 
" clip-path="url(#p1bcfa87b2a)" style="fill: none; stroke: #ffffff; stroke-width: 0.767051; stroke-linecap: round"/>
   </g>
   <g id="line2d_61">
    <path d="M 171.89087 190.587068 
L 171.89087 205.36701 
" clip-path="url(#p1bcfa87b2a)" style="fill: none; stroke: #ffffff; stroke-width: 0.767051; stroke-linecap: round"/>
   </g>
   <g id="line2d_62">
    <path d="M 170.143732 205.366816 
L 173.50281 205.366816 
" clip-path="url(#p1bcfa87b2a)" style="fill: none; stroke: #ffffff; stroke-width: 0.767051; stroke-linecap: round"/>
   </g>
   <g id="line2d_63">
    <path d="M 170.143732 190.586587 
L 173.50281 190.586587 
" clip-path="url(#p1bcfa87b2a)" style="fill: none; stroke: #ffffff; stroke-width: 0.767051; stroke-linecap: round"/>
   </g>
   <g id="line2d_64">
    <path d="M 382.283306 197.976581 
L 357.929422 197.976581 
" clip-path="url(#p1bcfa87b2a)" style="fill: none; stroke: #c90d15; stroke-width: 0.958814; stroke-linecap: square"/>
   </g>
   <g id="line2d_65">
    <path d="M 314.334549 205.366816 
L 311.109834 205.366816 
L 310.034929 205.232453 
L 309.094387 204.695 
L 308.422572 204.023185 
L 307.885119 203.082643 
L 307.750756 202.142101 
L 307.750756 193.811588 
L 307.750756 193.811588 
L 308.019482 192.60232 
L 308.019482 192.60232 
L 308.691298 191.527416 
L 309.766203 190.8556 
L 309.766203 190.8556 
L 311.109834 190.586874 
L 311.109834 190.586874 
L 314.334549 190.586874 
" clip-path="url(#p1bcfa87b2a)" style="fill: none; stroke: #ffffff; stroke-width: 0.767051; stroke-linecap: round"/>
   </g>
   <g id="line2d_66">
    <path d="M 318.45182 205.379314 
L 318.45182 190.599372 
" clip-path="url(#p1bcfa87b2a)" style="fill: none; stroke: #ffffff; stroke-width: 0.767051; stroke-linecap: round"/>
   </g>
   <g id="line2d_67">
    <path d="M 326.648139 190.597877 
L 318.450998 199.601296 
" clip-path="url(#p1bcfa87b2a)" style="fill: none; stroke: #ffffff; stroke-width: 0.767051; stroke-linecap: round"/>
   </g>
   <g id="line2d_68">
    <path d="M 326.647473 205.378994 
L 321.675881 196.376386 
" clip-path="url(#p1bcfa87b2a)" style="fill: none; stroke: #ffffff; stroke-width: 0.767051; stroke-linecap: round"/>
   </g>
   <g id="line2d_69">
    <path d="M 329.89041 194.617183 
L 330.159136 193.407915 
L 330.696589 192.198647 
L 331.637131 191.392469 
L 332.846399 190.720653 
L 334.055667 190.58629 
L 335.399298 190.720653 
L 336.474202 191.392469 
L 337.414744 192.198647 
L 337.952197 193.407915 
L 338.220923 194.617183 
L 338.220923 201.200975 
L 337.952197 202.544607 
L 337.414744 203.619511 
L 336.474202 204.560053 
L 335.399298 205.231869 
L 334.055667 205.366232 
L 332.846399 205.231869 
L 331.637131 204.560053 
L 330.696589 203.619511 
L 330.159136 202.544607 
L 329.89041 201.200975 
L 329.89041 194.617183 
" clip-path="url(#p1bcfa87b2a)" style="fill: none; stroke: #ffffff; stroke-width: 0.767051; stroke-linecap: round"/>
   </g>
   <g id="line2d_70">
    <path d="M 357.929422 76.20716 
L 357.929422 271.038234 
" clip-path="url(#p1bcfa87b2a)" style="fill: none; stroke: #c90d15; stroke-width: 2.435388; stroke-linecap: round"/>
   </g>
   <g id="line2d_71">
    <path d="M 357.929422 271.038234 
L 114.390578 271.038234 
" clip-path="url(#p1bcfa87b2a)" style="fill: none; stroke: #c90d15; stroke-width: 2.435388; stroke-linecap: round"/>
   </g>
   <g id="line2d_72">
    <path d="M 114.390578 271.038234 
L 114.390578 76.20716 
" clip-path="url(#p1bcfa87b2a)" style="fill: none; stroke: #c90d15; stroke-width: 2.435388; stroke-linecap: round"/>
   </g>
   <g id="line2d_73">
    <path d="M 114.390578 76.20716 
L 357.929422 76.20716 
" clip-path="url(#p1bcfa87b2a)" style="fill: none; stroke: #c90d15; stroke-width: 2.435388; stroke-linecap: round"/>
   </g>
   <g id="line2d_74">
    <path d="M 231.289223 161.445755 
L 231.289223 173.622697 
" clip-path="url(#p1bcfa87b2a)" style="fill: none; stroke: #c90d15; stroke-width: 2.435388; stroke-linecap: round"/>
   </g>
   <g id="line2d_75">
    <path d="M 231.289223 173.622697 
L 231.289223 185.799639 
" clip-path="url(#p1bcfa87b2a)" style="fill: none; stroke: #c90d15; stroke-width: 2.435388; stroke-linecap: round"/>
   </g>
   <g id="line2d_76">
    <path d="M 231.289223 185.799639 
L 243.466165 173.622697 
" clip-path="url(#p1bcfa87b2a)" style="fill: none; stroke: #c90d15; stroke-width: 2.435388; stroke-linecap: round"/>
   </g>
   <g id="line2d_77">
    <path d="M 243.466165 173.622697 
L 231.289223 161.445755 
" clip-path="url(#p1bcfa87b2a)" style="fill: none; stroke: #c90d15; stroke-width: 2.435388; stroke-linecap: round"/>
   </g>
   <g id="line2d_78">
    <path d="M 243.466165 161.445755 
L 243.466165 173.622697 
" clip-path="url(#p1bcfa87b2a)" style="fill: none; stroke: #c90d15; stroke-width: 2.435388; stroke-linecap: round"/>
   </g>
   <g id="line2d_79">
    <path d="M 243.466165 173.622697 
L 243.466165 185.799639 
" clip-path="url(#p1bcfa87b2a)" style="fill: none; stroke: #c90d15; stroke-width: 2.435388; stroke-linecap: round"/>
   </g>
   <g id="line2d_80">
    <path d="M 243.466165 173.622697 
L 255.643107 173.622697 
" clip-path="url(#p1bcfa87b2a)" style="fill: none; stroke: #c90d15; stroke-width: 2.435388; stroke-linecap: round"/>
   </g>
   <g id="line2d_81">
    <path d="M 231.289223 173.622697 
L 219.112281 173.622697 
" clip-path="url(#p1bcfa87b2a)" style="fill: none; stroke: #c90d15; stroke-width: 2.435388; stroke-linecap: round"/>
   </g>
   <g id="line2d_82">
    <path d="M 231.289223 190.670416 
L 231.289223 202.847358 
" clip-path="url(#p1bcfa87b2a)" style="fill: none; stroke: #c90d15; stroke-width: 2.435388; stroke-linecap: round"/>
   </g>
   <g id="line2d_83">
    <path d="M 231.289223 202.847358 
L 231.289223 215.0243 
" clip-path="url(#p1bcfa87b2a)" style="fill: none; stroke: #c90d15; stroke-width: 2.435388; stroke-linecap: round"/>
   </g>
   <g id="line2d_84">
    <path d="M 231.289223 215.0243 
L 243.466165 202.847358 
" clip-path="url(#p1bcfa87b2a)" style="fill: none; stroke: #c90d15; stroke-width: 2.435388; stroke-linecap: round"/>
   </g>
   <g id="line2d_85">
    <path d="M 243.466165 202.847358 
L 231.289223 190.670416 
" clip-path="url(#p1bcfa87b2a)" style="fill: none; stroke: #c90d15; stroke-width: 2.435388; stroke-linecap: round"/>
   </g>
   <g id="line2d_86">
    <path d="M 243.466165 190.670416 
L 243.466165 202.847358 
" clip-path="url(#p1bcfa87b2a)" style="fill: none; stroke: #c90d15; stroke-width: 2.435388; stroke-linecap: round"/>
   </g>
   <g id="line2d_87">
    <path d="M 243.466165 202.847358 
L 243.466165 215.0243 
" clip-path="url(#p1bcfa87b2a)" style="fill: none; stroke: #c90d15; stroke-width: 2.435388; stroke-linecap: round"/>
   </g>
   <g id="line2d_88">
    <path d="M 243.466165 202.847358 
L 255.643107 202.847358 
" clip-path="url(#p1bcfa87b2a)" style="fill: none; stroke: #c90d15; stroke-width: 2.435388; stroke-linecap: round"/>
   </g>
   <g id="line2d_89">
    <path d="M 231.289223 202.847358 
L 219.112281 202.847358 
" clip-path="url(#p1bcfa87b2a)" style="fill: none; stroke: #c90d15; stroke-width: 2.435388; stroke-linecap: round"/>
   </g>
   <g id="line2d_90">
    <path d="M 231.289223 132.221094 
L 231.289223 144.398036 
" clip-path="url(#p1bcfa87b2a)" style="fill: none; stroke: #c90d15; stroke-width: 2.435388; stroke-linecap: round"/>
   </g>
   <g id="line2d_91">
    <path d="M 231.289223 144.398036 
L 231.289223 156.574978 
" clip-path="url(#p1bcfa87b2a)" style="fill: none; stroke: #c90d15; stroke-width: 2.435388; stroke-linecap: round"/>
   </g>
   <g id="line2d_92">
    <path d="M 231.289223 156.574978 
L 243.466165 144.398036 
" clip-path="url(#p1bcfa87b2a)" style="fill: none; stroke: #c90d15; stroke-width: 2.435388; stroke-linecap: round"/>
   </g>
   <g id="line2d_93">
    <path d="M 243.466165 144.398036 
L 231.289223 132.221094 
" clip-path="url(#p1bcfa87b2a)" style="fill: none; stroke: #c90d15; stroke-width: 2.435388; stroke-linecap: round"/>
   </g>
   <g id="line2d_94">
    <path d="M 243.466165 132.221094 
L 243.466165 144.398036 
" clip-path="url(#p1bcfa87b2a)" style="fill: none; stroke: #c90d15; stroke-width: 2.435388; stroke-linecap: round"/>
   </g>
   <g id="line2d_95">
    <path d="M 243.466165 144.398036 
L 243.466165 156.574978 
" clip-path="url(#p1bcfa87b2a)" style="fill: none; stroke: #c90d15; stroke-width: 2.435388; stroke-linecap: round"/>
   </g>
   <g id="line2d_96">
    <path d="M 243.466165 144.398036 
L 255.643107 144.398036 
" clip-path="url(#p1bcfa87b2a)" style="fill: none; stroke: #c90d15; stroke-width: 2.435388; stroke-linecap: round"/>
   </g>
   <g id="line2d_97">
    <path d="M 231.289223 144.398036 
L 219.112281 144.398036 
" clip-path="url(#p1bcfa87b2a)" style="fill: none; stroke: #c90d15; stroke-width: 2.435388; stroke-linecap: round"/>
   </g>
   <g id="patch_5">
    <path d="M 221.547669 120.87065 
C 221.573097 120.87065 221.597487 120.860547 221.615468 120.842566 
C 221.633448 120.824586 221.643551 120.800196 221.643551 120.774768 
C 221.643551 120.74934 221.633448 120.72495 221.615468 120.70697 
C 221.597487 120.688989 221.573097 120.678887 221.547669 120.678887 
C 221.522241 120.678887 221.497851 120.688989 221.479871 120.70697 
C 221.461891 120.72495 221.451788 120.74934 221.451788 120.774768 
C 221.451788 120.800196 221.461891 120.824586 221.479871 120.842566 
C 221.497851 120.860547 221.522241 120.87065 221.547669 120.87065 
L 221.547669 120.87065 
z
" clip-path="url(#p1bcfa87b2a)" style="fill: none; stroke: #c90d15; stroke-width: 0.958814; stroke-linejoin: miter"/>
   </g>
   <g id="line2d_98">
    <path d="M 221.941186 119.330689 
L 221.941186 109.945426 
L 224.586124 109.945426 
L 225.354009 110.030747 
L 226.121895 110.457349 
L 226.719139 110.969273 
L 227.060421 111.737158 
L 227.145741 112.505043 
L 227.060421 113.358249 
L 226.719139 114.040814 
L 226.121895 114.638058 
L 225.354009 115.06466 
L 224.586124 115.149981 
L 221.941186 115.149981 
" clip-path="url(#p1bcfa87b2a)" style="fill: none; stroke: #c90d15; stroke-width: 0.487078; stroke-linecap: round"/>
   </g>
   <g id="line2d_99">
    <path d="M 227.145677 119.329693 
L 225.098055 115.149128 
" clip-path="url(#p1bcfa87b2a)" style="fill: none; stroke: #c90d15; stroke-width: 0.487078; stroke-linecap: round"/>
   </g>
   <g id="line2d_100">
    <path d="M 232.964226 114.174762 
L 234.5 114.174762 
L 234.5 119.379317 
L 231.343132 119.379317 
L 230.745887 119.293997 
L 230.148642 118.952714 
L 229.636717 118.526112 
L 229.380755 117.928868 
L 229.295434 117.331624 
L 229.295434 112.041748 
L 229.466076 111.273863 
L 229.89268 110.591298 
L 230.575246 110.164695 
L 231.343132 109.994054 
L 234.5 109.994054 
" clip-path="url(#p1bcfa87b2a)" style="fill: none; stroke: #c90d15; stroke-width: 0.487078; stroke-linecap: round"/>
   </g>
   <g id="line2d_101">
    <path d="M 236.602086 114.174762 
L 239.161703 114.174762 
L 239.929589 114.004121 
L 240.526833 113.662839 
L 240.953436 113.150915 
L 241.209397 112.468351 
L 241.209397 111.700466 
L 240.953436 111.017901 
L 240.526833 110.420657 
L 239.929589 110.079375 
L 239.161703 109.994054 
L 236.602086 109.994054 
" clip-path="url(#p1bcfa87b2a)" style="fill: none; stroke: #c90d15; stroke-width: 0.487078; stroke-linecap: round"/>
   </g>
   <g id="line2d_102">
    <path d="M 236.602086 119.379207 
L 239.161703 119.379207 
L 240.014909 119.293886 
L 240.697474 118.867283 
L 241.294718 118.270039 
L 241.636 117.587475 
L 241.806641 116.734269 
L 241.636 115.966384 
L 241.294718 115.198498 
L 240.697474 114.686575 
L 240.014909 114.259972 
L 239.161703 114.174652 
" clip-path="url(#p1bcfa87b2a)" style="fill: none; stroke: #c90d15; stroke-width: 0.487078; stroke-linecap: round"/>
   </g>
   <g id="line2d_103">
    <path d="M 236.601937 119.378856 
L 236.601937 109.993593 
" clip-path="url(#p1bcfa87b2a)" style="fill: none; stroke: #c90d15; stroke-width: 0.487078; stroke-linecap: round"/>
   </g>
   <g id="matplotlib.axis_1">
    <g id="xtick_1">
     <g id="line2d_104">
      <defs>
       <path id="m9cb432844a" d="M 0 0 
L 0 3.5 
" style="stroke: #ffffff; stroke-width: 0.8"/>
      </defs>
      <g>
       <use xlink:href="#m9cb432844a" x="92.337849" y="307.584" style="fill: #ffffff; stroke: #ffffff; stroke-width: 0.8"/>
      </g>
     </g>
     <g id="text_1">
      <text style="fill: #ffffff; font: 10px 'sans-serif'; text-anchor: middle" x="92.337849" y="322.182437" transform="rotate(-0, 92.337849, 322.182437)">−15</text>
     </g>
    </g>
    <g id="xtick_2">
     <g id="line2d_105">
      <g>
       <use xlink:href="#m9cb432844a" x="140.278566" y="307.584" style="fill: #ffffff; stroke: #ffffff; stroke-width: 0.8"/>
      </g>
     </g>
     <g id="text_2">
      <text style="fill: #ffffff; font: 10px 'sans-serif'; text-anchor: middle" x="140.278566" y="322.182437" transform="rotate(-0, 140.278566, 322.182437)">−10</text>
     </g>
    </g>
    <g id="xtick_3">
     <g id="line2d_106">
      <g>
       <use xlink:href="#m9cb432844a" x="188.219283" y="307.584" style="fill: #ffffff; stroke: #ffffff; stroke-width: 0.8"/>
      </g>
     </g>
     <g id="text_3">
      <text style="fill: #ffffff; font: 10px 'sans-serif'; text-anchor: middle" x="188.219283" y="322.182437" transform="rotate(-0, 188.219283, 322.182437)">−5</text>
     </g>
    </g>
    <g id="xtick_4">
     <g id="line2d_107">
      <g>
       <use xlink:href="#m9cb432844a" x="236.16" y="307.584" style="fill: #ffffff; stroke: #ffffff; stroke-width: 0.8"/>
      </g>
     </g>
     <g id="text_4">
      <text style="fill: #ffffff; font: 10px 'sans-serif'; text-anchor: middle" x="236.16" y="322.182437" transform="rotate(-0, 236.16, 322.182437)">0</text>
     </g>
    </g>
    <g id="xtick_5">
     <g id="line2d_108">
      <g>
       <use xlink:href="#m9cb432844a" x="284.100717" y="307.584" style="fill: #ffffff; stroke: #ffffff; stroke-width: 0.8"/>
      </g>
     </g>
     <g id="text_5">
      <text style="fill: #ffffff; font: 10px 'sans-serif'; text-anchor: middle" x="284.100717" y="322.182437" transform="rotate(-0, 284.100717, 322.182437)">5</text>
     </g>
    </g>
    <g id="xtick_6">
     <g id="line2d_109">
      <g>
       <use xlink:href="#m9cb432844a" x="332.041434" y="307.584" style="fill: #ffffff; stroke: #ffffff; stroke-width: 0.8"/>
      </g>
     </g>
     <g id="text_6">
      <text style="fill: #ffffff; font: 10px 'sans-serif'; text-anchor: middle" x="332.041434" y="322.182437" transform="rotate(-0, 332.041434, 322.182437)">10</text>
     </g>
    </g>
    <g id="xtick_7">
     <g id="line2d_110">
      <g>
       <use xlink:href="#m9cb432844a" x="379.982151" y="307.584" style="fill: #ffffff; stroke: #ffffff; stroke-width: 0.8"/>
      </g>
     </g>
     <g id="text_7">
      <text style="fill: #ffffff; font: 10px 'sans-serif'; text-anchor: middle" x="379.982151" y="322.182437" transform="rotate(-0, 379.982151, 322.182437)">15</text>
     </g>
    </g>
   </g>
   <g id="matplotlib.axis_2">
    <g id="ytick_1">
     <g id="line2d_111">
      <defs>
       <path id="m7c8b78bd36" d="M 0 0 
L -3.5 0 
" style="stroke: #ffffff; stroke-width: 0.8"/>
      </defs>
      <g>
       <use xlink:href="#m7c8b78bd36" x="75.424364" y="293.090964" style="fill: #ffffff; stroke: #ffffff; stroke-width: 0.8"/>
      </g>
     </g>
     <g id="text_8">
      <text style="fill: #ffffff; font: 10px 'sans-serif'; text-anchor: end" x="68.424364" y="296.890183" transform="rotate(-0, 68.424364, 296.890183)">−15</text>
     </g>
    </g>
    <g id="ytick_2">
     <g id="line2d_112">
      <g>
       <use xlink:href="#m7c8b78bd36" x="75.424364" y="245.150247" style="fill: #ffffff; stroke: #ffffff; stroke-width: 0.8"/>
      </g>
     </g>
     <g id="text_9">
      <text style="fill: #ffffff; font: 10px 'sans-serif'; text-anchor: end" x="68.424364" y="248.949466" transform="rotate(-0, 68.424364, 248.949466)">−10</text>
     </g>
    </g>
    <g id="ytick_3">
     <g id="line2d_113">
      <g>
       <use xlink:href="#m7c8b78bd36" x="75.424364" y="197.20953" style="fill: #ffffff; stroke: #ffffff; stroke-width: 0.8"/>
      </g>
     </g>
     <g id="text_10">
      <text style="fill: #ffffff; font: 10px 'sans-serif'; text-anchor: end" x="68.424364" y="201.008749" transform="rotate(-0, 68.424364, 201.008749)">−5</text>
     </g>
    </g>
    <g id="ytick_4">
     <g id="line2d_114">
      <g>
       <use xlink:href="#m7c8b78bd36" x="75.424364" y="149.268813" style="fill: #ffffff; stroke: #ffffff; stroke-width: 0.8"/>
      </g>
     </g>
     <g id="text_11">
      <text style="fill: #ffffff; font: 10px 'sans-serif'; text-anchor: end" x="68.424364" y="153.068031" transform="rotate(-0, 68.424364, 153.068031)">0</text>
     </g>
    </g>
    <g id="ytick_5">
     <g id="line2d_115">
      <g>
       <use xlink:href="#m7c8b78bd36" x="75.424364" y="101.328096" style="fill: #ffffff; stroke: #ffffff; stroke-width: 0.8"/>
      </g>
     </g>
     <g id="text_12">
      <text style="fill: #ffffff; font: 10px 'sans-serif'; text-anchor: end" x="68.424364" y="105.127314" transform="rotate(-0, 68.424364, 105.127314)">5</text>
     </g>
    </g>
    <g id="ytick_6">
     <g id="line2d_116">
      <g>
       <use xlink:href="#m7c8b78bd36" x="75.424364" y="53.387378" style="fill: #ffffff; stroke: #ffffff; stroke-width: 0.8"/>
      </g>
     </g>
     <g id="text_13">
      <text style="fill: #ffffff; font: 10px 'sans-serif'; text-anchor: end" x="68.424364" y="57.186597" transform="rotate(-0, 68.424364, 57.186597)">10</text>
     </g>
    </g>
   </g>
   <g id="patch_6">
    <path d="M 75.424364 307.584 
L 75.424364 41.472 
" style="fill: none; stroke: #ffffff; stroke-width: 0.8; stroke-linejoin: miter; stroke-linecap: square"/>
   </g>
   <g id="patch_7">
    <path d="M 396.895636 307.584 
L 396.895636 41.472 
" style="fill: none; stroke: #ffffff; stroke-width: 0.8; stroke-linejoin: miter; stroke-linecap: square"/>
   </g>
   <g id="patch_8">
    <path d="M 75.424364 307.584 
L 396.895636 307.584 
" style="fill: none; stroke: #ffffff; stroke-width: 0.8; stroke-linejoin: miter; stroke-linecap: square"/>
   </g>
   <g id="patch_9">
    <path d="M 75.424364 41.472 
L 396.895636 41.472 
" style="fill: none; stroke: #ffffff; stroke-width: 0.8; stroke-linejoin: miter; stroke-linecap: square"/>
   </g>
   <g id="text_14">
    <text style="fill: #ffffff; font: 12px 'sans-serif'; text-anchor: middle" x="236.16" y="35.472" transform="rotate(-0, 236.16, 35.472)">APA102-STRIP</text>
   </g>
  </g>
 </g>
 <defs>
  <clipPath id="p1bcfa87b2a">
   <rect x="75.424364" y="41.472" width="321.471273" height="266.112"/>
  </clipPath>
 </defs>
</svg>
