<?xml version="1.0" encoding="utf-8" standalone="no"?>
<!DOCTYPE svg PUBLIC "-//W3C//DTD SVG 1.1//EN"
  "http://www.w3.org/Graphics/SVG/1.1/DTD/svg11.dtd">
<svg xmlns:xlink="http://www.w3.org/1999/xlink" width="460.8pt" height="345.6pt" viewBox="0 0 460.8 345.6" xmlns="http://www.w3.org/2000/svg" version="1.1">
 <metadata>
  <rdf:RDF xmlns:dc="http://purl.org/dc/elements/1.1/" xmlns:cc="http://creativecommons.org/ns#" xmlns:rdf="http://www.w3.org/1999/02/22-rdf-syntax-ns#">
   <cc:Work>
    <dc:type rdf:resource="http://purl.org/dc/dcmitype/StillImage"/>
    <dc:date>2023-02-18T16:06:04.597518</dc:date>
    <dc:format>image/svg+xml</dc:format>
    <dc:creator>
     <cc:Agent>
      <dc:title>Matplotlib v3.5.1, https://matplotlib.org/</dc:title>
     </cc:Agent>
    </dc:creator>
   </cc:Work>
  </rdf:RDF>
 </metadata>
 <defs>
  <style type="text/css">*{stroke-linejoin: round; stroke-linecap: butt}</style>
 </defs>
 <g id="figure_1">
  <g id="patch_1">
   <path d="M 0 345.6 
L 460.8 345.6 
L 460.8 0 
L 0 0 
z
" style="fill: #2b2b2b"/>
  </g>
  <g id="axes_1">
   <g id="patch_2">
    <path d="M 57.6 277.432204 
L 414.72 277.432204 
L 414.72 71.623796 
L 57.6 71.623796 
z
" style="fill: #2b2b2b"/>
   </g>
   <g id="patch_3">
    <path d="M 90.919809 97.273735 
C 90.937649 97.273735 90.954762 97.266647 90.967377 97.254032 
C 90.979992 97.241416 90.987081 97.224304 90.987081 97.206463 
C 90.987081 97.188622 90.979992 97.17151 90.967377 97.158895 
C 90.954762 97.146279 90.937649 97.139191 90.919809 97.139191 
C 90.901968 97.139191 90.884855 97.146279 90.87224 97.158895 
C 90.859625 97.17151 90.852537 97.188622 90.852537 97.206463 
C 90.852537 97.224304 90.859625 97.241416 90.87224 97.254032 
C 90.884855 97.266647 90.901968 97.273735 90.919809 97.273735 
L 90.919809 97.273735 
z
" clip-path="url(#p36efe7544e)" style="fill: none; stroke: #808080; stroke-width: 0.67272; stroke-linejoin: miter"/>
   </g>
   <g id="line2d_1">
    <path d="M 90.840936 91.079334 
L 95.270144 92.934811 
L 95.270144 92.934811 
L 90.840729 94.790389 
L 90.840729 94.790389 
" clip-path="url(#p36efe7544e)" style="fill: none; stroke: #808080; stroke-width: 0.205045; stroke-linecap: round"/>
   </g>
   <g id="line2d_2">
    <path d="M 95.996741 89.642317 
L 98.211721 96.227398 
L 98.211721 96.227398 
L 100.366587 89.642147 
L 100.366587 89.642147 
" clip-path="url(#p36efe7544e)" style="fill: none; stroke: #808080; stroke-width: 0.205045; stroke-linecap: round"/>
   </g>
   <g id="line2d_3">
    <path d="M 101.122799 96.107346 
L 103.33778 89.522264 
L 103.33778 89.522264 
L 105.492646 96.107515 
L 105.492646 96.107515 
" clip-path="url(#p36efe7544e)" style="fill: none; stroke: #808080; stroke-width: 0.205045; stroke-linecap: round"/>
   </g>
   <g id="line2d_4">
    <path d="M 104.954407 94.491356 
L 101.66198 94.491356 
" clip-path="url(#p36efe7544e)" style="fill: none; stroke: #808080; stroke-width: 0.205045; stroke-linecap: round"/>
   </g>
   <g id="line2d_5">
    <path d="M 106.967255 89.642352 
L 106.967255 96.227205 
L 109.900508 96.227205 
" clip-path="url(#p36efe7544e)" style="fill: none; stroke: #808080; stroke-width: 0.205045; stroke-linecap: round"/>
   </g>
   <g id="line2d_6">
    <path d="M 111.734332 89.64263 
L 111.734332 94.371752 
L 111.734332 94.371752 
L 111.854057 94.970375 
L 111.854057 94.970375 
L 112.093506 95.449274 
L 112.512542 95.86831 
L 112.991441 96.167621 
L 113.590064 96.227483 
L 114.128824 96.167621 
L 114.667585 95.86831 
L 115.086621 95.449274 
L 115.32607 94.970375 
L 115.385933 94.371752 
L 115.385933 89.64263 
" clip-path="url(#p36efe7544e)" style="fill: none; stroke: #808080; stroke-width: 0.205045; stroke-linecap: round"/>
   </g>
   <g id="line2d_7">
    <path d="M 120.152883 96.227237 
L 117.21963 96.227237 
L 117.21963 89.642383 
L 120.152883 89.642383 
" clip-path="url(#p36efe7544e)" style="fill: none; stroke: #808080; stroke-width: 0.205045; stroke-linecap: round"/>
   </g>
   <g id="line2d_8">
    <path d="M 117.219749 92.575792 
L 119.434654 92.575792 
" clip-path="url(#p36efe7544e)" style="fill: none; stroke: #808080; stroke-width: 0.205045; stroke-linecap: round"/>
   </g>
   <g id="patch_4">
    <path d="M 90.919809 88.730194 
C 90.937649 88.730194 90.954762 88.723106 90.967377 88.710491 
C 90.979992 88.697876 90.987081 88.680763 90.987081 88.662922 
C 90.987081 88.645082 90.979992 88.627969 90.967377 88.615354 
C 90.954762 88.602739 90.937649 88.59565 90.919809 88.59565 
C 90.901968 88.59565 90.884855 88.602739 90.87224 88.615354 
C 90.859625 88.627969 90.852537 88.645082 90.852537 88.662922 
C 90.852537 88.680763 90.859625 88.697876 90.87224 88.710491 
C 90.884855 88.723106 90.901968 88.730194 90.919809 88.730194 
L 90.919809 88.730194 
z
" clip-path="url(#p36efe7544e)" style="fill: none; stroke: #808080; stroke-width: 0.67272; stroke-linejoin: miter"/>
   </g>
   <g id="line2d_9">
    <path d="M 90.840936 82.535794 
L 95.270144 84.39127 
L 95.270144 84.39127 
L 90.840729 86.246848 
L 90.840729 86.246848 
" clip-path="url(#p36efe7544e)" style="fill: none; stroke: #808080; stroke-width: 0.205045; stroke-linecap: round"/>
   </g>
   <g id="line2d_10">
    <path d="M 96.35634 87.683465 
L 96.35634 81.098611 
L 100.00794 87.683465 
L 100.00794 81.098611 
" clip-path="url(#p36efe7544e)" style="fill: none; stroke: #808080; stroke-width: 0.205045; stroke-linecap: round"/>
   </g>
   <g id="line2d_11">
    <path d="M 101.122799 87.563805 
L 103.33778 80.978724 
L 103.33778 80.978724 
L 105.492646 87.563974 
L 105.492646 87.563974 
" clip-path="url(#p36efe7544e)" style="fill: none; stroke: #808080; stroke-width: 0.205045; stroke-linecap: round"/>
   </g>
   <g id="line2d_12">
    <path d="M 104.954407 85.947816 
L 101.66198 85.947816 
" clip-path="url(#p36efe7544e)" style="fill: none; stroke: #808080; stroke-width: 0.205045; stroke-linecap: round"/>
   </g>
   <g id="line2d_13">
    <path d="M 106.249356 87.683659 
L 106.249356 81.098806 
L 108.404399 84.750406 
L 108.404399 84.750406 
L 110.619304 81.098806 
L 110.619304 81.098806 
L 110.619304 87.683659 
" clip-path="url(#p36efe7544e)" style="fill: none; stroke: #808080; stroke-width: 0.205045; stroke-linecap: round"/>
   </g>
   <g id="line2d_14">
    <path d="M 115.026758 87.683696 
L 112.093506 87.683696 
L 112.093506 81.098843 
L 115.026758 81.098843 
" clip-path="url(#p36efe7544e)" style="fill: none; stroke: #808080; stroke-width: 0.205045; stroke-linecap: round"/>
   </g>
   <g id="line2d_15">
    <path d="M 112.093624 84.032251 
L 114.30853 84.032251 
" clip-path="url(#p36efe7544e)" style="fill: none; stroke: #808080; stroke-width: 0.205045; stroke-linecap: round"/>
   </g>
   <g id="line2d_16">
    <path d="M 73.832727 114.293544 
L 90.919809 114.293544 
" clip-path="url(#p36efe7544e)" style="fill: none; stroke: #c90d15; stroke-width: 0.67272; stroke-linecap: square"/>
   </g>
   <g id="line2d_17">
    <path d="M 112.195678 119.478244 
L 112.195678 109.108396 
L 115.11809 109.108396 
L 115.966532 109.202668 
L 116.814974 109.674025 
L 117.380602 110.239653 
L 117.851958 111.088095 
L 117.94623 111.936537 
L 117.851958 112.87925 
L 117.380602 113.633421 
L 116.814974 114.29332 
L 115.966532 114.764677 
L 115.11809 114.858948 
L 112.195678 114.858948 
" clip-path="url(#p36efe7544e)" style="fill: none; stroke: #ffffff; stroke-width: 0.538176; stroke-linecap: round"/>
   </g>
   <g id="line2d_18">
    <path d="M 119.701913 119.289848 
L 123.190072 108.919641 
L 123.190072 108.919641 
L 126.583561 119.290115 
L 126.583561 119.290115 
" clip-path="url(#p36efe7544e)" style="fill: none; stroke: #ffffff; stroke-width: 0.538176; stroke-linecap: round"/>
   </g>
   <g id="line2d_19">
    <path d="M 125.735941 116.744983 
L 120.551017 116.744983 
" clip-path="url(#p36efe7544e)" style="fill: none; stroke: #ffffff; stroke-width: 0.538176; stroke-linecap: round"/>
   </g>
   <g id="line2d_20">
    <path d="M 131.1686 109.108207 
L 130.602972 109.202478 
L 129.943073 109.485292 
L 129.471716 109.956649 
L 129.188902 110.522277 
L 128.717545 111.747804 
L 128.434731 112.973332 
L 128.34046 114.293131 
L 128.434731 115.612929 
L 128.717545 116.838457 
L 129.188902 118.063984 
L 129.188902 118.063984 
L 129.471716 118.629612 
L 129.471716 118.629612 
L 129.943073 119.100969 
L 130.602972 119.383783 
L 131.1686 119.478054 
L 131.8285 119.383783 
L 132.488399 119.100969 
L 132.959756 118.629612 
L 133.24257 118.063984 
L 133.713927 116.838457 
L 133.996741 115.612929 
L 134.091012 114.293131 
L 133.996741 112.973332 
L 133.713927 111.747804 
L 133.24257 110.522277 
L 132.959756 109.956649 
L 132.488399 109.485292 
L 131.8285 109.202478 
L 131.1686 109.108207 
" clip-path="url(#p36efe7544e)" style="fill: none; stroke: #ffffff; stroke-width: 0.538176; stroke-linecap: round"/>
   </g>
   <g id="line2d_21">
    <path d="M 128.906027 117.216141 
L 133.525016 111.371715 
" clip-path="url(#p36efe7544e)" style="fill: none; stroke: #ffffff; stroke-width: 0.538176; stroke-linecap: round"/>
   </g>
   <g id="line2d_22">
    <path d="M 142.163695 119.478453 
L 136.413143 119.478453 
L 136.413143 119.478453 
L 141.315253 113.727901 
L 141.315253 113.727901 
L 141.315253 113.727901 
L 141.78661 113.162273 
L 141.78661 113.162273 
L 142.069424 112.408103 
L 142.163695 111.653932 
L 142.069424 110.899761 
L 141.692338 110.14559 
L 141.12671 109.579962 
L 140.372539 109.202877 
L 139.618369 109.108606 
L 138.581384 109.202877 
L 137.63867 109.674234 
L 136.8845 110.428405 
L 136.413143 111.371118 
" clip-path="url(#p36efe7544e)" style="fill: none; stroke: #ffffff; stroke-width: 0.538176; stroke-linecap: round"/>
   </g>
   <g id="line2d_23">
    <path d="M 145.051362 119.283081 
L 149.670658 119.283081 
" clip-path="url(#p36efe7544e)" style="fill: none; stroke: #ffffff; stroke-width: 0.538176; stroke-linecap: round"/>
   </g>
   <g id="line2d_24">
    <path d="M 151.992461 119.289848 
L 155.480619 108.919641 
L 155.480619 108.919641 
L 158.874109 119.290115 
L 158.874109 119.290115 
" clip-path="url(#p36efe7544e)" style="fill: none; stroke: #ffffff; stroke-width: 0.538176; stroke-linecap: round"/>
   </g>
   <g id="line2d_25">
    <path d="M 158.026488 116.744983 
L 152.841564 116.744983 
" clip-path="url(#p36efe7544e)" style="fill: none; stroke: #ffffff; stroke-width: 0.538176; stroke-linecap: round"/>
   </g>
   <g id="line2d_26">
    <path d="M 163.459148 109.108207 
L 162.89352 109.202478 
L 162.23362 109.485292 
L 161.762264 109.956649 
L 161.47945 110.522277 
L 161.008093 111.747804 
L 160.725279 112.973332 
L 160.631007 114.293131 
L 160.725279 115.612929 
L 161.008093 116.838457 
L 161.47945 118.063984 
L 161.47945 118.063984 
L 161.762264 118.629612 
L 161.762264 118.629612 
L 162.23362 119.100969 
L 162.89352 119.383783 
L 163.459148 119.478054 
L 164.119047 119.383783 
L 164.778947 119.100969 
L 165.250303 118.629612 
L 165.533117 118.063984 
L 166.004474 116.838457 
L 166.287288 115.612929 
L 166.381559 114.293131 
L 166.287288 112.973332 
L 166.004474 111.747804 
L 165.533117 110.522277 
L 165.250303 109.956649 
L 164.778947 109.485292 
L 164.119047 109.202478 
L 163.459148 109.108207 
" clip-path="url(#p36efe7544e)" style="fill: none; stroke: #ffffff; stroke-width: 0.538176; stroke-linecap: round"/>
   </g>
   <g id="line2d_27">
    <path d="M 161.196575 117.216141 
L 165.815563 111.371715 
" clip-path="url(#p36efe7544e)" style="fill: none; stroke: #ffffff; stroke-width: 0.538176; stroke-linecap: round"/>
   </g>
   <g id="line2d_28">
    <path d="M 169.269272 119.283081 
L 173.888568 119.283081 
" clip-path="url(#p36efe7544e)" style="fill: none; stroke: #ffffff; stroke-width: 0.538176; stroke-linecap: round"/>
   </g>
   <g id="line2d_29">
    <path d="M 176.776243 119.477975 
L 176.776243 109.108127 
L 179.604383 109.108127 
L 180.547097 109.202398 
L 181.301267 109.673755 
L 181.961167 110.239383 
L 182.338252 111.087825 
L 182.526795 111.936267 
L 182.526795 116.555563 
L 182.338252 117.498276 
L 181.961167 118.252447 
L 181.301267 118.912346 
L 180.547097 119.383703 
L 179.604383 119.477975 
L 176.776243 119.477975 
" clip-path="url(#p36efe7544e)" style="fill: none; stroke: #ffffff; stroke-width: 0.538176; stroke-linecap: round"/>
   </g>
   <g id="line2d_30">
    <path d="M 187.677058 109.108207 
L 187.11143 109.202478 
L 186.451531 109.485292 
L 185.980174 109.956649 
L 185.69736 110.522277 
L 185.226003 111.747804 
L 184.943189 112.973332 
L 184.848918 114.293131 
L 184.943189 115.612929 
L 185.226003 116.838457 
L 185.69736 118.063984 
L 185.69736 118.063984 
L 185.980174 118.629612 
L 185.980174 118.629612 
L 186.451531 119.100969 
L 187.11143 119.383783 
L 187.677058 119.478054 
L 188.336958 119.383783 
L 188.996857 119.100969 
L 189.468214 118.629612 
L 189.751028 118.063984 
L 190.222385 116.838457 
L 190.505199 115.612929 
L 190.59947 114.293131 
L 190.505199 112.973332 
L 190.222385 111.747804 
L 189.751028 110.522277 
L 189.468214 109.956649 
L 188.996857 109.485292 
L 188.336958 109.202478 
L 187.677058 109.108207 
" clip-path="url(#p36efe7544e)" style="fill: none; stroke: #ffffff; stroke-width: 0.538176; stroke-linecap: round"/>
   </g>
   <g id="line2d_31">
    <path d="M 185.414485 117.216141 
L 190.033474 111.371715 
" clip-path="url(#p36efe7544e)" style="fill: none; stroke: #ffffff; stroke-width: 0.538176; stroke-linecap: round"/>
   </g>
   <g id="line2d_32">
    <path d="M 73.832727 131.380626 
L 90.919809 131.380626 
" clip-path="url(#p36efe7544e)" style="fill: none; stroke: #c90d15; stroke-width: 0.67272; stroke-linecap: square"/>
   </g>
   <g id="line2d_33">
    <path d="M 112.195678 136.565325 
L 112.195678 126.195478 
L 115.11809 126.195478 
L 115.966532 126.289749 
L 116.814974 126.761106 
L 117.380602 127.326734 
L 117.851958 128.175176 
L 117.94623 129.023618 
L 117.851958 129.966332 
L 117.380602 130.720502 
L 116.814974 131.380402 
L 115.966532 131.851758 
L 115.11809 131.94603 
L 112.195678 131.94603 
" clip-path="url(#p36efe7544e)" style="fill: none; stroke: #ffffff; stroke-width: 0.538176; stroke-linecap: round"/>
   </g>
   <g id="line2d_34">
    <path d="M 119.701913 136.37693 
L 123.190072 126.006723 
L 123.190072 126.006723 
L 126.583561 136.377196 
L 126.583561 136.377196 
" clip-path="url(#p36efe7544e)" style="fill: none; stroke: #ffffff; stroke-width: 0.538176; stroke-linecap: round"/>
   </g>
   <g id="line2d_35">
    <path d="M 125.735941 133.832065 
L 120.551017 133.832065 
" clip-path="url(#p36efe7544e)" style="fill: none; stroke: #ffffff; stroke-width: 0.538176; stroke-linecap: round"/>
   </g>
   <g id="line2d_36">
    <path d="M 130.697406 126.195513 
L 128.340626 134.302845 
L 134.090764 134.302497 
" clip-path="url(#p36efe7544e)" style="fill: none; stroke: #ffffff; stroke-width: 0.538176; stroke-linecap: round"/>
   </g>
   <g id="line2d_37">
    <path d="M 132.393915 131.946532 
L 132.393915 136.565827 
" clip-path="url(#p36efe7544e)" style="fill: none; stroke: #ffffff; stroke-width: 0.538176; stroke-linecap: round"/>
   </g>
   <g id="line2d_38">
    <path d="M 136.978725 136.370163 
L 141.598021 136.370163 
" clip-path="url(#p36efe7544e)" style="fill: none; stroke: #ffffff; stroke-width: 0.538176; stroke-linecap: round"/>
   </g>
   <g id="line2d_39">
    <path d="M 143.919824 136.37693 
L 147.407983 126.006723 
L 147.407983 126.006723 
L 150.801472 136.377196 
L 150.801472 136.377196 
" clip-path="url(#p36efe7544e)" style="fill: none; stroke: #ffffff; stroke-width: 0.538176; stroke-linecap: round"/>
   </g>
   <g id="line2d_40">
    <path d="M 149.953851 133.832065 
L 144.768928 133.832065 
" clip-path="url(#p36efe7544e)" style="fill: none; stroke: #ffffff; stroke-width: 0.538176; stroke-linecap: round"/>
   </g>
   <g id="line2d_41">
    <path d="M 152.511137 128.457859 
L 155.433204 126.195613 
L 155.433204 126.195613 
L 155.433156 136.565538 
L 155.433156 136.565538 
" clip-path="url(#p36efe7544e)" style="fill: none; stroke: #ffffff; stroke-width: 0.538176; stroke-linecap: round"/>
   </g>
   <g id="line2d_42">
    <path d="M 152.511311 136.565321 
L 158.356134 136.565321 
" clip-path="url(#p36efe7544e)" style="fill: none; stroke: #ffffff; stroke-width: 0.538176; stroke-linecap: round"/>
   </g>
   <g id="line2d_43">
    <path d="M 161.196636 136.370163 
L 165.815931 136.370163 
" clip-path="url(#p36efe7544e)" style="fill: none; stroke: #ffffff; stroke-width: 0.538176; stroke-linecap: round"/>
   </g>
   <g id="line2d_44">
    <path d="M 168.703606 136.565056 
L 168.703606 126.195208 
L 171.531746 126.195208 
L 172.47446 126.28948 
L 173.228631 126.760836 
L 173.88853 127.326464 
L 174.265615 128.174906 
L 174.454158 129.023348 
L 174.454158 133.642644 
L 174.265615 134.585358 
L 173.88853 135.339528 
L 173.228631 135.999428 
L 172.47446 136.470785 
L 171.531746 136.565056 
L 168.703606 136.565056 
" clip-path="url(#p36efe7544e)" style="fill: none; stroke: #ffffff; stroke-width: 0.538176; stroke-linecap: round"/>
   </g>
   <g id="line2d_45">
    <path d="M 176.729047 128.457859 
L 179.651115 126.195613 
L 179.651115 126.195613 
L 179.651066 136.565538 
L 179.651066 136.565538 
" clip-path="url(#p36efe7544e)" style="fill: none; stroke: #ffffff; stroke-width: 0.538176; stroke-linecap: round"/>
   </g>
   <g id="line2d_46">
    <path d="M 176.729222 136.565321 
L 182.574045 136.565321 
" clip-path="url(#p36efe7544e)" style="fill: none; stroke: #ffffff; stroke-width: 0.538176; stroke-linecap: round"/>
   </g>
   <g id="line2d_47">
    <path d="M 73.832727 148.467707 
L 90.919809 148.467707 
" clip-path="url(#p36efe7544e)" style="fill: none; stroke: #c90d15; stroke-width: 0.67272; stroke-linecap: square"/>
   </g>
   <g id="line2d_48">
    <path d="M 112.195678 153.652407 
L 112.195678 143.282559 
L 115.11809 143.282559 
L 115.966532 143.376831 
L 116.814974 143.848187 
L 117.380602 144.413815 
L 117.851958 145.262257 
L 117.94623 146.110699 
L 117.851958 147.053413 
L 117.380602 147.807584 
L 116.814974 148.467483 
L 115.966532 148.93884 
L 115.11809 149.033111 
L 112.195678 149.033111 
" clip-path="url(#p36efe7544e)" style="fill: none; stroke: #ffffff; stroke-width: 0.538176; stroke-linecap: round"/>
   </g>
   <g id="line2d_49">
    <path d="M 119.701913 153.464011 
L 123.190072 143.093804 
L 123.190072 143.093804 
L 126.583561 153.464278 
L 126.583561 153.464278 
" clip-path="url(#p36efe7544e)" style="fill: none; stroke: #ffffff; stroke-width: 0.538176; stroke-linecap: round"/>
   </g>
   <g id="line2d_50">
    <path d="M 125.735941 150.919146 
L 120.551017 150.919146 
" clip-path="url(#p36efe7544e)" style="fill: none; stroke: #ffffff; stroke-width: 0.538176; stroke-linecap: round"/>
   </g>
   <g id="line2d_51">
    <path d="M 128.293226 145.54494 
L 131.215294 143.282695 
L 131.215294 143.282695 
L 131.215245 153.652619 
L 131.215245 153.652619 
" clip-path="url(#p36efe7544e)" style="fill: none; stroke: #ffffff; stroke-width: 0.538176; stroke-linecap: round"/>
   </g>
   <g id="line2d_52">
    <path d="M 128.2934 153.652403 
L 134.138224 153.652403 
" clip-path="url(#p36efe7544e)" style="fill: none; stroke: #ffffff; stroke-width: 0.538176; stroke-linecap: round"/>
   </g>
   <g id="line2d_53">
    <path d="M 139.241237 143.28237 
L 138.675609 143.376641 
L 138.01571 143.659455 
L 137.544353 144.130812 
L 137.261539 144.69644 
L 136.790182 145.921967 
L 136.507368 147.147495 
L 136.413097 148.467293 
L 136.507368 149.787092 
L 136.790182 151.01262 
L 137.261539 152.238147 
L 137.261539 152.238147 
L 137.544353 152.803775 
L 137.544353 152.803775 
L 138.01571 153.275132 
L 138.675609 153.557946 
L 139.241237 153.652217 
L 139.901137 153.557946 
L 140.561036 153.275132 
L 141.032393 152.803775 
L 141.315207 152.238147 
L 141.786563 151.01262 
L 142.069377 149.787092 
L 142.163649 148.467293 
L 142.069377 147.147495 
L 141.786563 145.921967 
L 141.315207 144.69644 
L 141.032393 144.130812 
L 140.561036 143.659455 
L 139.901137 143.376641 
L 139.241237 143.28237 
" clip-path="url(#p36efe7544e)" style="fill: none; stroke: #ffffff; stroke-width: 0.538176; stroke-linecap: round"/>
   </g>
   <g id="line2d_54">
    <path d="M 136.978664 151.390303 
L 141.597653 145.545877 
" clip-path="url(#p36efe7544e)" style="fill: none; stroke: #ffffff; stroke-width: 0.538176; stroke-linecap: round"/>
   </g>
   <g id="line2d_55">
    <path d="M 145.051362 153.457244 
L 149.670658 153.457244 
" clip-path="url(#p36efe7544e)" style="fill: none; stroke: #ffffff; stroke-width: 0.538176; stroke-linecap: round"/>
   </g>
   <g id="line2d_56">
    <path d="M 151.992461 153.464011 
L 155.480619 143.093804 
L 155.480619 143.093804 
L 158.874109 153.464278 
L 158.874109 153.464278 
" clip-path="url(#p36efe7544e)" style="fill: none; stroke: #ffffff; stroke-width: 0.538176; stroke-linecap: round"/>
   </g>
   <g id="line2d_57">
    <path d="M 158.026488 150.919146 
L 152.841564 150.919146 
" clip-path="url(#p36efe7544e)" style="fill: none; stroke: #ffffff; stroke-width: 0.538176; stroke-linecap: round"/>
   </g>
   <g id="line2d_58">
    <path d="M 166.381605 153.652616 
L 160.631054 153.652616 
L 160.631054 153.652616 
L 165.533163 147.902064 
L 165.533163 147.902064 
L 165.533163 147.902064 
L 166.00452 147.336436 
L 166.00452 147.336436 
L 166.287334 146.582265 
L 166.381605 145.828095 
L 166.287334 145.073924 
L 165.910249 144.319753 
L 165.344621 143.754125 
L 164.59045 143.37704 
L 163.836279 143.282768 
L 162.799294 143.37704 
L 161.856581 143.848396 
L 161.10241 144.602567 
L 160.631054 145.545281 
" clip-path="url(#p36efe7544e)" style="fill: none; stroke: #ffffff; stroke-width: 0.538176; stroke-linecap: round"/>
   </g>
   <g id="line2d_59">
    <path d="M 169.269272 153.457244 
L 173.888568 153.457244 
" clip-path="url(#p36efe7544e)" style="fill: none; stroke: #ffffff; stroke-width: 0.538176; stroke-linecap: round"/>
   </g>
   <g id="line2d_60">
    <path d="M 176.776243 153.652137 
L 176.776243 143.28229 
L 179.604383 143.28229 
L 180.547097 143.376561 
L 181.301267 143.847918 
L 181.961167 144.413546 
L 182.338252 145.261988 
L 182.526795 146.11043 
L 182.526795 150.729726 
L 182.338252 151.672439 
L 181.961167 152.42661 
L 181.301267 153.086509 
L 180.547097 153.557866 
L 179.604383 153.652137 
L 176.776243 153.652137 
" clip-path="url(#p36efe7544e)" style="fill: none; stroke: #ffffff; stroke-width: 0.538176; stroke-linecap: round"/>
   </g>
   <g id="line2d_61">
    <path d="M 190.599516 153.652616 
L 184.848964 153.652616 
L 184.848964 153.652616 
L 189.751074 147.902064 
L 189.751074 147.902064 
L 189.751074 147.902064 
L 190.222431 147.336436 
L 190.222431 147.336436 
L 190.505245 146.582265 
L 190.599516 145.828095 
L 190.505245 145.073924 
L 190.128159 144.319753 
L 189.562531 143.754125 
L 188.80836 143.37704 
L 188.05419 143.282768 
L 187.017205 143.37704 
L 186.074492 143.848396 
L 185.320321 144.602567 
L 184.848964 145.545281 
" clip-path="url(#p36efe7544e)" style="fill: none; stroke: #ffffff; stroke-width: 0.538176; stroke-linecap: round"/>
   </g>
   <g id="line2d_62">
    <path d="M 73.832727 165.554788 
L 90.919809 165.554788 
" clip-path="url(#p36efe7544e)" style="fill: none; stroke: #c90d15; stroke-width: 0.67272; stroke-linecap: square"/>
   </g>
   <g id="line2d_63">
    <path d="M 112.195678 170.739488 
L 112.195678 160.369641 
L 115.11809 160.369641 
L 115.966532 160.463912 
L 116.814974 160.935269 
L 117.380602 161.500897 
L 117.851958 162.349339 
L 117.94623 163.197781 
L 117.851958 164.140494 
L 117.380602 164.894665 
L 116.814974 165.554564 
L 115.966532 166.025921 
L 115.11809 166.120192 
L 112.195678 166.120192 
" clip-path="url(#p36efe7544e)" style="fill: none; stroke: #ffffff; stroke-width: 0.538176; stroke-linecap: round"/>
   </g>
   <g id="line2d_64">
    <path d="M 119.701913 170.551092 
L 123.190072 160.180885 
L 123.190072 160.180885 
L 126.583561 170.551359 
L 126.583561 170.551359 
" clip-path="url(#p36efe7544e)" style="fill: none; stroke: #ffffff; stroke-width: 0.538176; stroke-linecap: round"/>
   </g>
   <g id="line2d_65">
    <path d="M 125.735941 168.006227 
L 120.551017 168.006227 
" clip-path="url(#p36efe7544e)" style="fill: none; stroke: #ffffff; stroke-width: 0.538176; stroke-linecap: round"/>
   </g>
   <g id="line2d_66">
    <path d="M 128.293226 162.632022 
L 131.215294 160.369776 
L 131.215294 160.369776 
L 131.215245 170.739701 
L 131.215245 170.739701 
" clip-path="url(#p36efe7544e)" style="fill: none; stroke: #ffffff; stroke-width: 0.538176; stroke-linecap: round"/>
   </g>
   <g id="line2d_67">
    <path d="M 128.2934 170.739484 
L 134.138224 170.739484 
" clip-path="url(#p36efe7544e)" style="fill: none; stroke: #ffffff; stroke-width: 0.538176; stroke-linecap: round"/>
   </g>
   <g id="line2d_68">
    <path d="M 136.365863 162.632022 
L 139.28793 160.369776 
L 139.28793 160.369776 
L 139.287882 170.739701 
L 139.287882 170.739701 
" clip-path="url(#p36efe7544e)" style="fill: none; stroke: #ffffff; stroke-width: 0.538176; stroke-linecap: round"/>
   </g>
   <g id="line2d_69">
    <path d="M 136.366037 170.739484 
L 142.21086 170.739484 
" clip-path="url(#p36efe7544e)" style="fill: none; stroke: #ffffff; stroke-width: 0.538176; stroke-linecap: round"/>
   </g>
   <g id="line2d_70">
    <path d="M 145.051362 170.544325 
L 149.670658 170.544325 
" clip-path="url(#p36efe7544e)" style="fill: none; stroke: #ffffff; stroke-width: 0.538176; stroke-linecap: round"/>
   </g>
   <g id="line2d_71">
    <path d="M 151.992461 170.551092 
L 155.480619 160.180885 
L 155.480619 160.180885 
L 158.874109 170.551359 
L 158.874109 170.551359 
" clip-path="url(#p36efe7544e)" style="fill: none; stroke: #ffffff; stroke-width: 0.538176; stroke-linecap: round"/>
   </g>
   <g id="line2d_72">
    <path d="M 158.026488 168.006227 
L 152.841564 168.006227 
" clip-path="url(#p36efe7544e)" style="fill: none; stroke: #ffffff; stroke-width: 0.538176; stroke-linecap: round"/>
   </g>
   <g id="line2d_73">
    <path d="M 160.631016 170.739484 
L 163.459156 170.739484 
L 164.40187 170.645213 
L 165.15604 170.173856 
L 165.81594 169.513956 
L 166.193025 168.759786 
L 166.381568 167.817072 
L 166.193025 166.96863 
L 165.81594 166.120188 
L 165.15604 165.55456 
L 164.40187 165.083203 
L 163.459156 164.988932 
" clip-path="url(#p36efe7544e)" style="fill: none; stroke: #ffffff; stroke-width: 0.538176; stroke-linecap: round"/>
   </g>
   <g id="line2d_74">
    <path d="M 160.631016 160.369435 
L 164.024784 160.369435 
L 164.873226 160.463706 
L 165.533126 160.840792 
L 166.098754 161.500691 
L 166.381568 162.254862 
L 166.381568 163.009033 
L 166.098754 163.763203 
L 165.533126 164.423103 
L 164.873226 164.800188 
L 164.024784 164.988731 
L 161.762272 164.988731 
" clip-path="url(#p36efe7544e)" style="fill: none; stroke: #ffffff; stroke-width: 0.538176; stroke-linecap: round"/>
   </g>
   <g id="line2d_75">
    <path d="M 169.269272 170.544325 
L 173.888568 170.544325 
" clip-path="url(#p36efe7544e)" style="fill: none; stroke: #ffffff; stroke-width: 0.538176; stroke-linecap: round"/>
   </g>
   <g id="line2d_76">
    <path d="M 176.776243 170.739219 
L 176.776243 160.369371 
L 179.604383 160.369371 
L 180.547097 160.463642 
L 181.301267 160.934999 
L 181.961167 161.500627 
L 182.338252 162.349069 
L 182.526795 163.197511 
L 182.526795 167.816807 
L 182.338252 168.75952 
L 181.961167 169.513691 
L 181.301267 170.17359 
L 180.547097 170.644947 
L 179.604383 170.739219 
L 176.776243 170.739219 
" clip-path="url(#p36efe7544e)" style="fill: none; stroke: #ffffff; stroke-width: 0.538176; stroke-linecap: round"/>
   </g>
   <g id="line2d_77">
    <path d="M 184.848927 170.739484 
L 187.677067 170.739484 
L 188.61978 170.645213 
L 189.373951 170.173856 
L 190.03385 169.513956 
L 190.410936 168.759786 
L 190.599478 167.817072 
L 190.410936 166.96863 
L 190.03385 166.120188 
L 189.373951 165.55456 
L 188.61978 165.083203 
L 187.677067 164.988932 
" clip-path="url(#p36efe7544e)" style="fill: none; stroke: #ffffff; stroke-width: 0.538176; stroke-linecap: round"/>
   </g>
   <g id="line2d_78">
    <path d="M 184.848927 160.369435 
L 188.242695 160.369435 
L 189.091137 160.463706 
L 189.751036 160.840792 
L 190.316664 161.500691 
L 190.599478 162.254862 
L 190.599478 163.009033 
L 190.316664 163.763203 
L 189.751036 164.423103 
L 189.091137 164.800188 
L 188.242695 164.988731 
L 185.980183 164.988731 
" clip-path="url(#p36efe7544e)" style="fill: none; stroke: #ffffff; stroke-width: 0.538176; stroke-linecap: round"/>
   </g>
   <g id="line2d_79">
    <path d="M 73.832727 182.64187 
L 90.919809 182.64187 
" clip-path="url(#p36efe7544e)" style="fill: none; stroke: #c90d15; stroke-width: 0.67272; stroke-linecap: square"/>
   </g>
   <g id="line2d_80">
    <path d="M 112.195678 187.826569 
L 112.195678 177.456722 
L 115.11809 177.456722 
L 115.966532 177.550993 
L 116.814974 178.02235 
L 117.380602 178.587978 
L 117.851958 179.43642 
L 117.94623 180.284862 
L 117.851958 181.227576 
L 117.380602 181.981746 
L 116.814974 182.641646 
L 115.966532 183.113002 
L 115.11809 183.207274 
L 112.195678 183.207274 
" clip-path="url(#p36efe7544e)" style="fill: none; stroke: #ffffff; stroke-width: 0.538176; stroke-linecap: round"/>
   </g>
   <g id="line2d_81">
    <path d="M 119.701913 187.638174 
L 123.190072 177.267967 
L 123.190072 177.267967 
L 126.583561 187.63844 
L 126.583561 187.63844 
" clip-path="url(#p36efe7544e)" style="fill: none; stroke: #ffffff; stroke-width: 0.538176; stroke-linecap: round"/>
   </g>
   <g id="line2d_82">
    <path d="M 125.735941 185.093309 
L 120.551017 185.093309 
" clip-path="url(#p36efe7544e)" style="fill: none; stroke: #ffffff; stroke-width: 0.538176; stroke-linecap: round"/>
   </g>
   <g id="line2d_83">
    <path d="M 128.340523 184.904859 
L 128.434794 185.847573 
L 128.81188 186.601743 
L 129.471779 187.261643 
L 130.320221 187.732999 
L 131.168663 187.827271 
L 132.111377 187.732999 
L 132.865548 187.261643 
L 133.525447 186.601743 
L 133.902532 185.847573 
L 134.091075 184.904859 
L 133.902532 184.056417 
L 133.525447 183.207975 
L 132.865548 182.642347 
L 132.111377 182.17099 
L 131.168663 182.076719 
L 130.320221 182.17099 
L 129.471779 182.642347 
L 128.81188 183.207975 
L 128.434794 184.056417 
L 128.340523 184.904859 
" clip-path="url(#p36efe7544e)" style="fill: none; stroke: #ffffff; stroke-width: 0.538176; stroke-linecap: round"/>
   </g>
   <g id="line2d_84">
    <path d="M 128.906151 179.719397 
L 129.000422 180.567839 
L 129.377508 181.227739 
L 130.037407 181.699095 
L 130.791578 181.981909 
L 131.545749 181.981909 
L 132.299919 181.699095 
L 132.959819 181.227739 
L 133.336904 180.567839 
L 133.525447 179.719397 
L 133.336904 178.965226 
L 132.959819 178.211056 
L 132.299919 177.739699 
L 131.545749 177.456885 
L 130.791578 177.456885 
L 130.037407 177.739699 
L 129.377508 178.211056 
L 129.000422 178.965226 
L 128.906151 179.719397 
" clip-path="url(#p36efe7544e)" style="fill: none; stroke: #ffffff; stroke-width: 0.538176; stroke-linecap: round"/>
   </g>
   <g id="line2d_85">
    <path d="M 136.978725 187.631407 
L 141.598021 187.631407 
" clip-path="url(#p36efe7544e)" style="fill: none; stroke: #ffffff; stroke-width: 0.538176; stroke-linecap: round"/>
   </g>
   <g id="line2d_86">
    <path d="M 143.919824 187.638174 
L 147.407983 177.267967 
L 147.407983 177.267967 
L 150.801472 187.63844 
L 150.801472 187.63844 
" clip-path="url(#p36efe7544e)" style="fill: none; stroke: #ffffff; stroke-width: 0.538176; stroke-linecap: round"/>
   </g>
   <g id="line2d_87">
    <path d="M 149.953851 185.093309 
L 144.768928 185.093309 
" clip-path="url(#p36efe7544e)" style="fill: none; stroke: #ffffff; stroke-width: 0.538176; stroke-linecap: round"/>
   </g>
   <g id="line2d_88">
    <path d="M 154.915317 177.456757 
L 152.558536 185.564089 
L 158.308675 185.563741 
" clip-path="url(#p36efe7544e)" style="fill: none; stroke: #ffffff; stroke-width: 0.538176; stroke-linecap: round"/>
   </g>
   <g id="line2d_89">
    <path d="M 156.611825 183.207776 
L 156.611825 187.827071 
" clip-path="url(#p36efe7544e)" style="fill: none; stroke: #ffffff; stroke-width: 0.538176; stroke-linecap: round"/>
   </g>
   <g id="line2d_90">
    <path d="M 161.196636 187.631407 
L 165.815931 187.631407 
" clip-path="url(#p36efe7544e)" style="fill: none; stroke: #ffffff; stroke-width: 0.538176; stroke-linecap: round"/>
   </g>
   <g id="line2d_91">
    <path d="M 168.703606 187.8263 
L 168.703606 177.456452 
L 171.531746 177.456452 
L 172.47446 177.550724 
L 173.228631 178.02208 
L 173.88853 178.587708 
L 174.265615 179.43615 
L 174.454158 180.284593 
L 174.454158 184.903888 
L 174.265615 185.846602 
L 173.88853 186.600772 
L 173.228631 187.260672 
L 172.47446 187.732029 
L 171.531746 187.8263 
L 168.703606 187.8263 
" clip-path="url(#p36efe7544e)" style="fill: none; stroke: #ffffff; stroke-width: 0.538176; stroke-linecap: round"/>
   </g>
   <g id="line2d_92">
    <path d="M 179.133227 177.456757 
L 176.776447 185.564089 
L 182.526585 185.563741 
" clip-path="url(#p36efe7544e)" style="fill: none; stroke: #ffffff; stroke-width: 0.538176; stroke-linecap: round"/>
   </g>
   <g id="line2d_93">
    <path d="M 180.829736 183.207776 
L 180.829736 187.827071 
" clip-path="url(#p36efe7544e)" style="fill: none; stroke: #ffffff; stroke-width: 0.538176; stroke-linecap: round"/>
   </g>
   <g id="line2d_94">
    <path d="M 185.414546 187.631407 
L 190.033842 187.631407 
" clip-path="url(#p36efe7544e)" style="fill: none; stroke: #ffffff; stroke-width: 0.538176; stroke-linecap: round"/>
   </g>
   <g id="line2d_95">
    <path d="M 192.921531 186.41254 
L 193.958516 187.16671 
L 195.089772 187.638067 
L 196.409571 187.82661 
L 197.06947 187.732338 
L 197.72937 187.355253 
L 198.294998 186.883896 
L 198.577812 186.223997 
L 198.672083 185.564098 
L 198.577812 184.715655 
L 198.200726 184.055756 
L 198.200726 184.055756 
L 197.540827 183.490128 
L 197.540827 183.490128 
L 197.540827 183.490128 
L 194.335601 181.793244 
L 194.335601 181.793244 
L 193.769973 181.227616 
L 193.392888 180.567716 
L 193.204345 179.719274 
L 193.298616 179.059375 
L 193.675702 178.399476 
L 194.147059 177.833847 
L 194.806958 177.551033 
L 195.561129 177.456762 
L 196.409571 177.551033 
L 197.352284 177.833847 
L 198.106455 178.305204 
" clip-path="url(#p36efe7544e)" style="fill: none; stroke: #ffffff; stroke-width: 0.538176; stroke-linecap: round"/>
   </g>
   <g id="line2d_96">
    <path d="M 200.994154 187.8263 
L 200.994154 177.456452 
L 203.822294 177.456452 
L 204.765007 177.550724 
L 205.519178 178.02208 
L 206.179077 178.587708 
L 206.556163 179.43615 
L 206.744705 180.284593 
L 206.744705 184.903888 
L 206.556163 185.846602 
L 206.179077 186.600772 
L 205.519178 187.260672 
L 204.765007 187.732029 
L 203.822294 187.8263 
L 200.994154 187.8263 
" clip-path="url(#p36efe7544e)" style="fill: none; stroke: #ffffff; stroke-width: 0.538176; stroke-linecap: round"/>
   </g>
   <g id="line2d_97">
    <path d="M 208.500919 187.638174 
L 211.989077 177.267967 
L 211.989077 177.267967 
L 215.382567 187.63844 
L 215.382567 187.63844 
" clip-path="url(#p36efe7544e)" style="fill: none; stroke: #ffffff; stroke-width: 0.538176; stroke-linecap: round"/>
   </g>
   <g id="line2d_98">
    <path d="M 214.534946 185.093309 
L 209.350022 185.093309 
" clip-path="url(#p36efe7544e)" style="fill: none; stroke: #ffffff; stroke-width: 0.538176; stroke-linecap: round"/>
   </g>
   <g id="line2d_99">
    <path d="M 73.832727 199.728951 
L 90.919809 199.728951 
" clip-path="url(#p36efe7544e)" style="fill: none; stroke: #c90d15; stroke-width: 0.67272; stroke-linecap: square"/>
   </g>
   <g id="line2d_100">
    <path d="M 112.195678 204.913651 
L 112.195678 194.543803 
L 115.11809 194.543803 
L 115.966532 194.638075 
L 116.814974 195.109431 
L 117.380602 195.675059 
L 117.851958 196.523501 
L 117.94623 197.371943 
L 117.851958 198.314657 
L 117.380602 199.068828 
L 116.814974 199.728727 
L 115.966532 200.200084 
L 115.11809 200.294355 
L 112.195678 200.294355 
" clip-path="url(#p36efe7544e)" style="fill: none; stroke: #ffffff; stroke-width: 0.538176; stroke-linecap: round"/>
   </g>
   <g id="line2d_101">
    <path d="M 119.701913 204.725255 
L 123.190072 194.355048 
L 123.190072 194.355048 
L 126.583561 204.725522 
L 126.583561 204.725522 
" clip-path="url(#p36efe7544e)" style="fill: none; stroke: #ffffff; stroke-width: 0.538176; stroke-linecap: round"/>
   </g>
   <g id="line2d_102">
    <path d="M 125.735941 202.18039 
L 120.551017 202.18039 
" clip-path="url(#p36efe7544e)" style="fill: none; stroke: #ffffff; stroke-width: 0.538176; stroke-linecap: round"/>
   </g>
   <g id="line2d_103">
    <path d="M 134.093656 200.294964 
L 130.699887 200.294964 
L 129.945717 200.200693 
L 129.285817 199.823608 
L 128.814461 199.352251 
L 128.437375 198.692351 
L 128.343104 197.938181 
L 128.343104 197.372553 
L 128.531646 196.524111 
L 128.908732 195.675668 
L 129.568631 195.11004 
L 130.322802 194.638684 
L 131.265515 194.544412 
L 132.113957 194.638684 
L 132.9624 195.11004 
L 133.622299 195.675668 
L 133.999384 196.524111 
L 134.093656 197.372553 
L 134.093656 200.294964 
L 133.999384 201.520492 
L 133.528028 202.651748 
L 132.773857 203.594461 
L 131.831143 204.254361 
L 130.699887 204.725717 
L 129.47436 204.91426 
" clip-path="url(#p36efe7544e)" style="fill: none; stroke: #ffffff; stroke-width: 0.538176; stroke-linecap: round"/>
   </g>
   <g id="line2d_104">
    <path d="M 136.978725 204.718488 
L 141.598021 204.718488 
" clip-path="url(#p36efe7544e)" style="fill: none; stroke: #ffffff; stroke-width: 0.538176; stroke-linecap: round"/>
   </g>
   <g id="line2d_105">
    <path d="M 143.919824 204.725255 
L 147.407983 194.355048 
L 147.407983 194.355048 
L 150.801472 204.725522 
L 150.801472 204.725522 
" clip-path="url(#p36efe7544e)" style="fill: none; stroke: #ffffff; stroke-width: 0.538176; stroke-linecap: round"/>
   </g>
   <g id="line2d_106">
    <path d="M 149.953851 202.18039 
L 144.768928 202.18039 
" clip-path="url(#p36efe7544e)" style="fill: none; stroke: #ffffff; stroke-width: 0.538176; stroke-linecap: round"/>
   </g>
   <g id="line2d_107">
    <path d="M 152.558425 204.913647 
L 156.046465 204.913647 
L 156.894907 204.725104 
L 157.649078 204.253747 
L 158.120434 203.499576 
L 158.308977 202.651134 
L 158.308977 201.425607 
L 158.214706 200.765708 
L 157.83762 200.105808 
L 157.366264 199.54018 
L 156.706364 199.257366 
L 156.046465 199.163095 
L 152.558425 199.163095 
L 152.558425 199.163095 
L 152.558425 194.543799 
L 152.558425 194.543799 
L 152.558425 194.543799 
L 158.308977 194.543799 
L 158.308977 194.543799 
" clip-path="url(#p36efe7544e)" style="fill: none; stroke: #ffffff; stroke-width: 0.538176; stroke-linecap: round"/>
   </g>
   <g id="line2d_108">
    <path d="M 161.196636 204.718488 
L 165.815931 204.718488 
" clip-path="url(#p36efe7544e)" style="fill: none; stroke: #ffffff; stroke-width: 0.538176; stroke-linecap: round"/>
   </g>
   <g id="line2d_109">
    <path d="M 168.703606 204.913381 
L 168.703606 194.543534 
L 171.531746 194.543534 
L 172.47446 194.637805 
L 173.228631 195.109162 
L 173.88853 195.67479 
L 174.265615 196.523232 
L 174.454158 197.371674 
L 174.454158 201.99097 
L 174.265615 202.933683 
L 173.88853 203.687854 
L 173.228631 204.347753 
L 172.47446 204.81911 
L 171.531746 204.913381 
L 168.703606 204.913381 
" clip-path="url(#p36efe7544e)" style="fill: none; stroke: #ffffff; stroke-width: 0.538176; stroke-linecap: round"/>
   </g>
   <g id="line2d_110">
    <path d="M 176.776336 204.913647 
L 180.264375 204.913647 
L 181.112817 204.725104 
L 181.866988 204.253747 
L 182.338345 203.499576 
L 182.526888 202.651134 
L 182.526888 201.425607 
L 182.432616 200.765708 
L 182.055531 200.105808 
L 181.584174 199.54018 
L 180.924275 199.257366 
L 180.264375 199.163095 
L 176.776336 199.163095 
L 176.776336 199.163095 
L 176.776336 194.543799 
L 176.776336 194.543799 
L 176.776336 194.543799 
L 182.526888 194.543799 
L 182.526888 194.543799 
" clip-path="url(#p36efe7544e)" style="fill: none; stroke: #ffffff; stroke-width: 0.538176; stroke-linecap: round"/>
   </g>
   <g id="line2d_111">
    <path d="M 185.414546 204.718488 
L 190.033842 204.718488 
" clip-path="url(#p36efe7544e)" style="fill: none; stroke: #ffffff; stroke-width: 0.538176; stroke-linecap: round"/>
   </g>
   <g id="line2d_112">
    <path d="M 192.921531 203.499621 
L 193.958516 204.253792 
L 195.089772 204.725148 
L 196.409571 204.913691 
L 197.06947 204.81942 
L 197.72937 204.442334 
L 198.294998 203.970978 
L 198.577812 203.311078 
L 198.672083 202.651179 
L 198.577812 201.802737 
L 198.200726 201.142837 
L 198.200726 201.142837 
L 197.540827 200.577209 
L 197.540827 200.577209 
L 197.540827 200.577209 
L 194.335601 198.880325 
L 194.335601 198.880325 
L 193.769973 198.314697 
L 193.392888 197.654798 
L 193.204345 196.806356 
L 193.298616 196.146456 
L 193.675702 195.486557 
L 194.147059 194.920929 
L 194.806958 194.638115 
L 195.561129 194.543843 
L 196.409571 194.638115 
L 197.352284 194.920929 
L 198.106455 195.392286 
" clip-path="url(#p36efe7544e)" style="fill: none; stroke: #ffffff; stroke-width: 0.538176; stroke-linecap: round"/>
   </g>
   <g id="line2d_113">
    <path d="M 206.178576 204.91406 
L 203.916064 204.91406 
L 203.161893 204.819788 
L 202.501993 204.442703 
L 202.030637 203.971346 
L 201.653551 203.311447 
L 201.55928 202.651548 
L 201.55928 196.806724 
L 201.55928 196.806724 
L 201.747823 195.958282 
L 201.747823 195.958282 
L 202.219179 195.204112 
L 202.97335 194.732755 
L 202.97335 194.732755 
L 203.916064 194.544212 
L 203.916064 194.544212 
L 206.178576 194.544212 
" clip-path="url(#p36efe7544e)" style="fill: none; stroke: #ffffff; stroke-width: 0.538176; stroke-linecap: round"/>
   </g>
   <g id="line2d_114">
    <path d="M 209.632149 194.544162 
L 209.632149 204.91401 
L 214.251445 204.91401 
" clip-path="url(#p36efe7544e)" style="fill: none; stroke: #ffffff; stroke-width: 0.538176; stroke-linecap: round"/>
   </g>
   <g id="line2d_115">
    <path d="M 73.832727 216.816032 
L 90.919809 216.816032 
" clip-path="url(#p36efe7544e)" style="fill: none; stroke: #c90d15; stroke-width: 0.67272; stroke-linecap: square"/>
   </g>
   <g id="line2d_116">
    <path d="M 112.195678 222.000732 
L 112.195678 211.630885 
L 115.11809 211.630885 
L 115.966532 211.725156 
L 116.814974 212.196513 
L 117.380602 212.762141 
L 117.851958 213.610583 
L 117.94623 214.459025 
L 117.851958 215.401738 
L 117.380602 216.155909 
L 116.814974 216.815808 
L 115.966532 217.287165 
L 115.11809 217.381436 
L 112.195678 217.381436 
" clip-path="url(#p36efe7544e)" style="fill: none; stroke: #ffffff; stroke-width: 0.538176; stroke-linecap: round"/>
   </g>
   <g id="line2d_117">
    <path d="M 120.26795 216.250834 
L 123.09609 216.250834 
L 123.944532 216.062291 
L 124.604432 215.685206 
L 125.075788 215.119578 
L 125.358602 214.365407 
L 125.358602 213.516965 
L 125.075788 212.762794 
L 124.604432 212.102895 
L 123.944532 211.72581 
L 123.09609 211.631538 
L 120.26795 211.631538 
" clip-path="url(#p36efe7544e)" style="fill: none; stroke: #ffffff; stroke-width: 0.538176; stroke-linecap: round"/>
   </g>
   <g id="line2d_118">
    <path d="M 120.26795 222.001263 
L 123.09609 222.001263 
L 124.038803 221.906992 
L 124.792974 221.435635 
L 125.452874 220.775736 
L 125.829959 220.021565 
L 126.018502 219.078852 
L 125.829959 218.23041 
L 125.452874 217.381968 
L 124.792974 216.81634 
L 124.038803 216.344983 
L 123.09609 216.250712 
" clip-path="url(#p36efe7544e)" style="fill: none; stroke: #ffffff; stroke-width: 0.538176; stroke-linecap: round"/>
   </g>
   <g id="line2d_119">
    <path d="M 120.267785 222.000876 
L 120.267785 211.631028 
" clip-path="url(#p36efe7544e)" style="fill: none; stroke: #ffffff; stroke-width: 0.538176; stroke-linecap: round"/>
   </g>
   <g id="line2d_120">
    <path d="M 131.1686 211.630695 
L 130.602972 211.724966 
L 129.943073 212.00778 
L 129.471716 212.479137 
L 129.188902 213.044765 
L 128.717545 214.270292 
L 128.434731 215.49582 
L 128.34046 216.815619 
L 128.434731 218.135418 
L 128.717545 219.360945 
L 129.188902 220.586472 
L 129.188902 220.586472 
L 129.471716 221.1521 
L 129.471716 221.1521 
L 129.943073 221.623457 
L 130.602972 221.906271 
L 131.1686 222.000543 
L 131.8285 221.906271 
L 132.488399 221.623457 
L 132.959756 221.1521 
L 133.24257 220.586472 
L 133.713927 219.360945 
L 133.996741 218.135418 
L 134.091012 216.815619 
L 133.996741 215.49582 
L 133.713927 214.270292 
L 133.24257 213.044765 
L 132.959756 212.479137 
L 132.488399 212.00778 
L 131.8285 211.724966 
L 131.1686 211.630695 
" clip-path="url(#p36efe7544e)" style="fill: none; stroke: #ffffff; stroke-width: 0.538176; stroke-linecap: round"/>
   </g>
   <g id="line2d_121">
    <path d="M 128.906027 219.738629 
L 133.525016 213.894203 
" clip-path="url(#p36efe7544e)" style="fill: none; stroke: #ffffff; stroke-width: 0.538176; stroke-linecap: round"/>
   </g>
   <g id="line2d_122">
    <path d="M 136.41316 219.079022 
L 136.507431 220.021735 
L 136.884517 220.775906 
L 137.544416 221.435805 
L 138.392858 221.907162 
L 139.2413 222.001433 
L 140.184014 221.907162 
L 140.938184 221.435805 
L 141.598084 220.775906 
L 141.975169 220.021735 
L 142.163712 219.079022 
L 141.975169 218.23058 
L 141.598084 217.382138 
L 140.938184 216.81651 
L 140.184014 216.345153 
L 139.2413 216.250882 
L 138.392858 216.345153 
L 137.544416 216.81651 
L 136.884517 217.382138 
L 136.507431 218.23058 
L 136.41316 219.079022 
" clip-path="url(#p36efe7544e)" style="fill: none; stroke: #ffffff; stroke-width: 0.538176; stroke-linecap: round"/>
   </g>
   <g id="line2d_123">
    <path d="M 136.978788 213.89356 
L 137.073059 214.742002 
L 137.450145 215.401901 
L 138.110044 215.873258 
L 138.864215 216.156072 
L 139.618386 216.156072 
L 140.372556 215.873258 
L 141.032456 215.401901 
L 141.409541 214.742002 
L 141.598084 213.89356 
L 141.409541 213.139389 
L 141.032456 212.385218 
L 140.372556 211.913862 
L 139.618386 211.631048 
L 138.864215 211.631048 
L 138.110044 211.913862 
L 137.450145 212.385218 
L 137.073059 213.139389 
L 136.978788 213.89356 
" clip-path="url(#p36efe7544e)" style="fill: none; stroke: #ffffff; stroke-width: 0.538176; stroke-linecap: round"/>
   </g>
   <g id="line2d_124">
    <path d="M 145.051362 221.805569 
L 149.670658 221.805569 
" clip-path="url(#p36efe7544e)" style="fill: none; stroke: #ffffff; stroke-width: 0.538176; stroke-linecap: round"/>
   </g>
   <g id="line2d_125">
    <path d="M 151.992461 221.812336 
L 155.480619 211.442129 
L 155.480619 211.442129 
L 158.874109 221.812603 
L 158.874109 221.812603 
" clip-path="url(#p36efe7544e)" style="fill: none; stroke: #ffffff; stroke-width: 0.538176; stroke-linecap: round"/>
   </g>
   <g id="line2d_126">
    <path d="M 158.026488 219.267471 
L 152.841564 219.267471 
" clip-path="url(#p36efe7544e)" style="fill: none; stroke: #ffffff; stroke-width: 0.538176; stroke-linecap: round"/>
   </g>
   <g id="line2d_127">
    <path d="M 160.583896 216.250421 
L 164.071936 216.250421 
L 164.826107 216.344692 
L 165.486006 216.627506 
L 165.957363 217.193134 
L 166.240177 217.853034 
L 166.42872 218.512933 
L 166.42872 219.078561 
L 166.240177 220.021274 
L 165.863092 220.775445 
L 165.203192 221.435345 
L 164.449021 221.906701 
L 163.506308 222.000973 
L 162.657866 221.906701 
L 161.809424 221.435345 
L 161.149524 220.775445 
L 160.772439 220.021274 
L 160.583896 219.078561 
L 160.583896 216.250421 
L 160.583896 216.250421 
L 160.772439 215.024893 
L 160.772439 215.024893 
L 161.243796 213.893637 
L 161.997967 212.950924 
L 162.94068 212.196753 
L 164.071936 211.725396 
L 165.203192 211.631125 
" clip-path="url(#p36efe7544e)" style="fill: none; stroke: #ffffff; stroke-width: 0.538176; stroke-linecap: round"/>
   </g>
   <g id="line2d_128">
    <path d="M 169.269272 221.805569 
L 173.888568 221.805569 
" clip-path="url(#p36efe7544e)" style="fill: none; stroke: #ffffff; stroke-width: 0.538176; stroke-linecap: round"/>
   </g>
   <g id="line2d_129">
    <path d="M 176.776243 222.000463 
L 176.776243 211.630615 
L 179.604383 211.630615 
L 180.547097 211.724886 
L 181.301267 212.196243 
L 181.961167 212.761871 
L 182.338252 213.610313 
L 182.526795 214.458755 
L 182.526795 219.078051 
L 182.338252 220.020764 
L 181.961167 220.774935 
L 181.301267 221.434834 
L 180.547097 221.906191 
L 179.604383 222.000463 
L 176.776243 222.000463 
" clip-path="url(#p36efe7544e)" style="fill: none; stroke: #ffffff; stroke-width: 0.538176; stroke-linecap: round"/>
   </g>
   <g id="line2d_130">
    <path d="M 184.801807 216.250421 
L 188.289847 216.250421 
L 189.044017 216.344692 
L 189.703917 216.627506 
L 190.175274 217.193134 
L 190.458088 217.853034 
L 190.64663 218.512933 
L 190.64663 219.078561 
L 190.458088 220.021274 
L 190.081002 220.775445 
L 189.421103 221.435345 
L 188.666932 221.906701 
L 187.724219 222.000973 
L 186.875777 221.906701 
L 186.027334 221.435345 
L 185.367435 220.775445 
L 184.99035 220.021274 
L 184.801807 219.078561 
L 184.801807 216.250421 
L 184.801807 216.250421 
L 184.99035 215.024893 
L 184.99035 215.024893 
L 185.461706 213.893637 
L 186.215877 212.950924 
L 187.158591 212.196753 
L 188.289847 211.725396 
L 189.421103 211.631125 
" clip-path="url(#p36efe7544e)" style="fill: none; stroke: #ffffff; stroke-width: 0.538176; stroke-linecap: round"/>
   </g>
   <g id="line2d_131">
    <path d="M 193.487183 221.805569 
L 198.106479 221.805569 
" clip-path="url(#p36efe7544e)" style="fill: none; stroke: #ffffff; stroke-width: 0.538176; stroke-linecap: round"/>
   </g>
   <g id="line2d_132">
    <path d="M 203.822225 222.000735 
L 203.822225 211.630888 
" clip-path="url(#p36efe7544e)" style="fill: none; stroke: #ffffff; stroke-width: 0.538176; stroke-linecap: round"/>
   </g>
   <g id="line2d_133">
    <path d="M 200.99386 211.631092 
L 206.744412 211.631092 
" clip-path="url(#p36efe7544e)" style="fill: none; stroke: #ffffff; stroke-width: 0.538176; stroke-linecap: round"/>
   </g>
   <g id="line2d_134">
    <path d="M 208.45384 222.001693 
L 215.430204 211.631421 
" clip-path="url(#p36efe7544e)" style="fill: none; stroke: #ffffff; stroke-width: 0.538176; stroke-linecap: round"/>
   </g>
   <g id="line2d_135">
    <path d="M 208.453761 211.630968 
L 215.430125 222.00124 
" clip-path="url(#p36efe7544e)" style="fill: none; stroke: #ffffff; stroke-width: 0.538176; stroke-linecap: round"/>
   </g>
   <g id="line2d_136">
    <path d="M 398.487273 216.816032 
L 381.400191 216.816032 
" clip-path="url(#p36efe7544e)" style="fill: none; stroke: #c90d15; stroke-width: 0.67272; stroke-linecap: square"/>
   </g>
   <g id="line2d_137">
    <path d="M 264.903058 222.000732 
L 264.903058 211.630885 
L 267.82547 211.630885 
L 268.673912 211.725156 
L 269.522354 212.196513 
L 270.087982 212.762141 
L 270.559339 213.610583 
L 270.65361 214.459025 
L 270.559339 215.401738 
L 270.087982 216.155909 
L 269.522354 216.815808 
L 268.673912 217.287165 
L 267.82547 217.381436 
L 264.903058 217.381436 
" clip-path="url(#p36efe7544e)" style="fill: none; stroke: #ffffff; stroke-width: 0.538176; stroke-linecap: round"/>
   </g>
   <g id="line2d_138">
    <path d="M 272.97533 216.250834 
L 275.803471 216.250834 
L 276.651913 216.062291 
L 277.311812 215.685206 
L 277.783169 215.119578 
L 278.065983 214.365407 
L 278.065983 213.516965 
L 277.783169 212.762794 
L 277.311812 212.102895 
L 276.651913 211.72581 
L 275.803471 211.631538 
L 272.97533 211.631538 
" clip-path="url(#p36efe7544e)" style="fill: none; stroke: #ffffff; stroke-width: 0.538176; stroke-linecap: round"/>
   </g>
   <g id="line2d_139">
    <path d="M 272.97533 222.001263 
L 275.803471 222.001263 
L 276.746184 221.906992 
L 277.500355 221.435635 
L 278.160254 220.775736 
L 278.537339 220.021565 
L 278.725882 219.078852 
L 278.537339 218.23041 
L 278.160254 217.381968 
L 277.500355 216.81634 
L 276.746184 216.344983 
L 275.803471 216.250712 
" clip-path="url(#p36efe7544e)" style="fill: none; stroke: #ffffff; stroke-width: 0.538176; stroke-linecap: round"/>
   </g>
   <g id="line2d_140">
    <path d="M 272.975166 222.000876 
L 272.975166 211.631028 
" clip-path="url(#p36efe7544e)" style="fill: none; stroke: #ffffff; stroke-width: 0.538176; stroke-linecap: round"/>
   </g>
   <g id="line2d_141">
    <path d="M 283.875981 211.630695 
L 283.310353 211.724966 
L 282.650453 212.00778 
L 282.179097 212.479137 
L 281.896283 213.044765 
L 281.424926 214.270292 
L 281.142112 215.49582 
L 281.047841 216.815619 
L 281.142112 218.135418 
L 281.424926 219.360945 
L 281.896283 220.586472 
L 281.896283 220.586472 
L 282.179097 221.1521 
L 282.179097 221.1521 
L 282.650453 221.623457 
L 283.310353 221.906271 
L 283.875981 222.000543 
L 284.53588 221.906271 
L 285.19578 221.623457 
L 285.667136 221.1521 
L 285.94995 220.586472 
L 286.421307 219.360945 
L 286.704121 218.135418 
L 286.798392 216.815619 
L 286.704121 215.49582 
L 286.421307 214.270292 
L 285.94995 213.044765 
L 285.667136 212.479137 
L 285.19578 212.00778 
L 284.53588 211.724966 
L 283.875981 211.630695 
" clip-path="url(#p36efe7544e)" style="fill: none; stroke: #ffffff; stroke-width: 0.538176; stroke-linecap: round"/>
   </g>
   <g id="line2d_142">
    <path d="M 281.613408 219.738629 
L 286.232396 213.894203 
" clip-path="url(#p36efe7544e)" style="fill: none; stroke: #ffffff; stroke-width: 0.538176; stroke-linecap: round"/>
   </g>
   <g id="line2d_143">
    <path d="M 294.873673 217.382046 
L 291.479905 217.382046 
L 290.725734 217.287774 
L 290.065835 216.910689 
L 289.594478 216.439332 
L 289.217392 215.779433 
L 289.123121 215.025262 
L 289.123121 214.459634 
L 289.311664 213.611192 
L 289.688749 212.76275 
L 290.348649 212.197122 
L 291.102819 211.725765 
L 292.045533 211.631494 
L 292.893975 211.725765 
L 293.742417 212.197122 
L 294.402316 212.76275 
L 294.779402 213.611192 
L 294.873673 214.459634 
L 294.873673 217.382046 
L 294.779402 218.607573 
L 294.308045 219.738829 
L 293.553874 220.681543 
L 292.611161 221.341442 
L 291.479905 221.812799 
L 290.254377 222.001341 
" clip-path="url(#p36efe7544e)" style="fill: none; stroke: #ffffff; stroke-width: 0.538176; stroke-linecap: round"/>
   </g>
   <g id="line2d_144">
    <path d="M 297.758742 221.805569 
L 302.378038 221.805569 
" clip-path="url(#p36efe7544e)" style="fill: none; stroke: #ffffff; stroke-width: 0.538176; stroke-linecap: round"/>
   </g>
   <g id="line2d_145">
    <path d="M 304.699841 221.812336 
L 308.188 211.442129 
L 308.188 211.442129 
L 311.581489 221.812603 
L 311.581489 221.812603 
" clip-path="url(#p36efe7544e)" style="fill: none; stroke: #ffffff; stroke-width: 0.538176; stroke-linecap: round"/>
   </g>
   <g id="line2d_146">
    <path d="M 310.733869 219.267471 
L 305.548945 219.267471 
" clip-path="url(#p36efe7544e)" style="fill: none; stroke: #ffffff; stroke-width: 0.538176; stroke-linecap: round"/>
   </g>
   <g id="line2d_147">
    <path d="M 313.337927 212.761981 
L 313.337927 211.630725 
L 319.088478 211.630725 
L 319.088478 211.630725 
L 316.260338 222.000573 
L 316.260338 222.000573 
" clip-path="url(#p36efe7544e)" style="fill: none; stroke: #ffffff; stroke-width: 0.538176; stroke-linecap: round"/>
   </g>
   <g id="line2d_148">
    <path d="M 321.976653 221.805569 
L 326.595949 221.805569 
" clip-path="url(#p36efe7544e)" style="fill: none; stroke: #ffffff; stroke-width: 0.538176; stroke-linecap: round"/>
   </g>
   <g id="line2d_149">
    <path d="M 329.483624 222.000463 
L 329.483624 211.630615 
L 332.311764 211.630615 
L 333.254477 211.724886 
L 334.008648 212.196243 
L 334.668547 212.761871 
L 335.045633 213.610313 
L 335.234175 214.458755 
L 335.234175 219.078051 
L 335.045633 220.020764 
L 334.668547 220.774935 
L 334.008648 221.434834 
L 333.254477 221.906191 
L 332.311764 222.000463 
L 329.483624 222.000463 
" clip-path="url(#p36efe7544e)" style="fill: none; stroke: #ffffff; stroke-width: 0.538176; stroke-linecap: round"/>
   </g>
   <g id="line2d_150">
    <path d="M 337.555837 212.761981 
L 337.555837 211.630725 
L 343.306389 211.630725 
L 343.306389 211.630725 
L 340.478249 222.000573 
L 340.478249 222.000573 
" clip-path="url(#p36efe7544e)" style="fill: none; stroke: #ffffff; stroke-width: 0.538176; stroke-linecap: round"/>
   </g>
   <g id="line2d_151">
    <path d="M 346.194563 221.805569 
L 350.813859 221.805569 
" clip-path="url(#p36efe7544e)" style="fill: none; stroke: #ffffff; stroke-width: 0.538176; stroke-linecap: round"/>
   </g>
   <g id="line2d_152">
    <path d="M 353.648034 221.947656 
L 353.648034 211.577809 
L 356.570446 211.577809 
L 357.418888 211.67208 
L 358.26733 212.143437 
L 358.927229 212.709065 
L 359.304315 213.557507 
L 359.398586 214.405949 
L 359.304315 215.348662 
L 358.927229 216.102833 
L 358.26733 216.762732 
L 357.418888 217.234089 
L 356.570446 217.32836 
L 353.648034 217.32836 
" clip-path="url(#p36efe7544e)" style="fill: none; stroke: #ffffff; stroke-width: 0.538176; stroke-linecap: round"/>
   </g>
   <g id="line2d_153">
    <path d="M 359.398515 221.946556 
L 357.136082 217.327418 
" clip-path="url(#p36efe7544e)" style="fill: none; stroke: #ffffff; stroke-width: 0.538176; stroke-linecap: round"/>
   </g>
   <g id="line2d_154">
    <path d="M 361.161221 222.001693 
L 368.137584 211.631421 
" clip-path="url(#p36efe7544e)" style="fill: none; stroke: #ffffff; stroke-width: 0.538176; stroke-linecap: round"/>
   </g>
   <g id="line2d_155">
    <path d="M 361.161142 211.630968 
L 368.137506 222.00124 
" clip-path="url(#p36efe7544e)" style="fill: none; stroke: #ffffff; stroke-width: 0.538176; stroke-linecap: round"/>
   </g>
   <g id="line2d_156">
    <path d="M 398.487273 199.728951 
L 381.400191 199.728951 
" clip-path="url(#p36efe7544e)" style="fill: none; stroke: #c90d15; stroke-width: 0.67272; stroke-linecap: square"/>
   </g>
   <g id="line2d_157">
    <path d="M 264.903058 204.913651 
L 264.903058 194.543803 
L 267.82547 194.543803 
L 268.673912 194.638075 
L 269.522354 195.109431 
L 270.087982 195.675059 
L 270.559339 196.523501 
L 270.65361 197.371943 
L 270.559339 198.314657 
L 270.087982 199.068828 
L 269.522354 199.728727 
L 268.673912 200.200084 
L 267.82547 200.294355 
L 264.903058 200.294355 
" clip-path="url(#p36efe7544e)" style="fill: none; stroke: #ffffff; stroke-width: 0.538176; stroke-linecap: round"/>
   </g>
   <g id="line2d_158">
    <path d="M 272.409294 204.725255 
L 275.897453 194.355048 
L 275.897453 194.355048 
L 279.290942 204.725522 
L 279.290942 204.725522 
" clip-path="url(#p36efe7544e)" style="fill: none; stroke: #ffffff; stroke-width: 0.538176; stroke-linecap: round"/>
   </g>
   <g id="line2d_159">
    <path d="M 278.443321 202.18039 
L 273.258398 202.18039 
" clip-path="url(#p36efe7544e)" style="fill: none; stroke: #ffffff; stroke-width: 0.538176; stroke-linecap: round"/>
   </g>
   <g id="line2d_160">
    <path d="M 281.047379 195.6749 
L 281.047379 194.543644 
L 286.797931 194.543644 
L 286.797931 194.543644 
L 283.969791 204.913491 
L 283.969791 204.913491 
" clip-path="url(#p36efe7544e)" style="fill: none; stroke: #ffffff; stroke-width: 0.538176; stroke-linecap: round"/>
   </g>
   <g id="line2d_161">
    <path d="M 289.686105 204.718488 
L 294.305401 204.718488 
" clip-path="url(#p36efe7544e)" style="fill: none; stroke: #ffffff; stroke-width: 0.538176; stroke-linecap: round"/>
   </g>
   <g id="line2d_162">
    <path d="M 296.627205 204.725255 
L 300.115363 194.355048 
L 300.115363 194.355048 
L 303.508853 204.725522 
L 303.508853 204.725522 
" clip-path="url(#p36efe7544e)" style="fill: none; stroke: #ffffff; stroke-width: 0.538176; stroke-linecap: round"/>
   </g>
   <g id="line2d_163">
    <path d="M 302.661232 202.18039 
L 297.476308 202.18039 
" clip-path="url(#p36efe7544e)" style="fill: none; stroke: #ffffff; stroke-width: 0.538176; stroke-linecap: round"/>
   </g>
   <g id="line2d_164">
    <path d="M 305.265814 201.991941 
L 305.360085 202.934654 
L 305.737171 203.688825 
L 306.39707 204.348724 
L 307.245512 204.820081 
L 308.093954 204.914352 
L 309.036668 204.820081 
L 309.790839 204.348724 
L 310.450738 203.688825 
L 310.827823 202.934654 
L 311.016366 201.991941 
L 310.827823 201.143498 
L 310.450738 200.295056 
L 309.790839 199.729428 
L 309.036668 199.258072 
L 308.093954 199.1638 
L 307.245512 199.258072 
L 306.39707 199.729428 
L 305.737171 200.295056 
L 305.360085 201.143498 
L 305.265814 201.991941 
" clip-path="url(#p36efe7544e)" style="fill: none; stroke: #ffffff; stroke-width: 0.538176; stroke-linecap: round"/>
   </g>
   <g id="line2d_165">
    <path d="M 305.831442 196.806479 
L 305.925714 197.654921 
L 306.302799 198.31482 
L 306.962698 198.786177 
L 307.716869 199.068991 
L 308.47104 199.068991 
L 309.225211 198.786177 
L 309.88511 198.31482 
L 310.262195 197.654921 
L 310.450738 196.806479 
L 310.262195 196.052308 
L 309.88511 195.298137 
L 309.225211 194.82678 
L 308.47104 194.543966 
L 307.716869 194.543966 
L 306.962698 194.82678 
L 306.302799 195.298137 
L 305.925714 196.052308 
L 305.831442 196.806479 
" clip-path="url(#p36efe7544e)" style="fill: none; stroke: #ffffff; stroke-width: 0.538176; stroke-linecap: round"/>
   </g>
   <g id="line2d_166">
    <path d="M 313.904016 204.718488 
L 318.523312 204.718488 
" clip-path="url(#p36efe7544e)" style="fill: none; stroke: #ffffff; stroke-width: 0.538176; stroke-linecap: round"/>
   </g>
   <g id="line2d_167">
    <path d="M 321.410987 204.913381 
L 321.410987 194.543534 
L 324.239127 194.543534 
L 325.18184 194.637805 
L 325.936011 195.109162 
L 326.59591 195.67479 
L 326.972996 196.523232 
L 327.161539 197.371674 
L 327.161539 201.99097 
L 326.972996 202.933683 
L 326.59591 203.687854 
L 325.936011 204.347753 
L 325.18184 204.81911 
L 324.239127 204.913381 
L 321.410987 204.913381 
" clip-path="url(#p36efe7544e)" style="fill: none; stroke: #ffffff; stroke-width: 0.538176; stroke-linecap: round"/>
   </g>
   <g id="line2d_168">
    <path d="M 329.483725 201.991941 
L 329.577996 202.934654 
L 329.955081 203.688825 
L 330.614981 204.348724 
L 331.463423 204.820081 
L 332.311865 204.914352 
L 333.254578 204.820081 
L 334.008749 204.348724 
L 334.668649 203.688825 
L 335.045734 202.934654 
L 335.234277 201.991941 
L 335.045734 201.143498 
L 334.668649 200.295056 
L 334.008749 199.729428 
L 333.254578 199.258072 
L 332.311865 199.1638 
L 331.463423 199.258072 
L 330.614981 199.729428 
L 329.955081 200.295056 
L 329.577996 201.143498 
L 329.483725 201.991941 
" clip-path="url(#p36efe7544e)" style="fill: none; stroke: #ffffff; stroke-width: 0.538176; stroke-linecap: round"/>
   </g>
   <g id="line2d_169">
    <path d="M 330.049353 196.806479 
L 330.143624 197.654921 
L 330.520709 198.31482 
L 331.180609 198.786177 
L 331.93478 199.068991 
L 332.68895 199.068991 
L 333.443121 198.786177 
L 334.10302 198.31482 
L 334.480106 197.654921 
L 334.668649 196.806479 
L 334.480106 196.052308 
L 334.10302 195.298137 
L 333.443121 194.82678 
L 332.68895 194.543966 
L 331.93478 194.543966 
L 331.180609 194.82678 
L 330.520709 195.298137 
L 330.143624 196.052308 
L 330.049353 196.806479 
" clip-path="url(#p36efe7544e)" style="fill: none; stroke: #ffffff; stroke-width: 0.538176; stroke-linecap: round"/>
   </g>
   <g id="line2d_170">
    <path d="M 338.121927 204.718488 
L 342.741222 204.718488 
" clip-path="url(#p36efe7544e)" style="fill: none; stroke: #ffffff; stroke-width: 0.538176; stroke-linecap: round"/>
   </g>
   <g id="line2d_171">
    <path d="M 345.628912 203.499621 
L 346.665896 204.253792 
L 347.797152 204.725148 
L 349.116951 204.913691 
L 349.776851 204.81942 
L 350.43675 204.442334 
L 351.002378 203.970978 
L 351.285192 203.311078 
L 351.379463 202.651179 
L 351.285192 201.802737 
L 350.908107 201.142837 
L 350.908107 201.142837 
L 350.248207 200.577209 
L 350.248207 200.577209 
L 350.248207 200.577209 
L 347.042982 198.880325 
L 347.042982 198.880325 
L 346.477354 198.314697 
L 346.100268 197.654798 
L 345.911726 196.806356 
L 346.005997 196.146456 
L 346.383082 195.486557 
L 346.854439 194.920929 
L 347.514338 194.638115 
L 348.268509 194.543843 
L 349.116951 194.638115 
L 350.059665 194.920929 
L 350.813835 195.392286 
" clip-path="url(#p36efe7544e)" style="fill: none; stroke: #ffffff; stroke-width: 0.538176; stroke-linecap: round"/>
   </g>
   <g id="line2d_172">
    <path d="M 358.885956 204.91406 
L 356.623444 204.91406 
L 355.869273 204.819788 
L 355.209374 204.442703 
L 354.738017 203.971346 
L 354.360932 203.311447 
L 354.266661 202.651548 
L 354.266661 196.806724 
L 354.266661 196.806724 
L 354.455203 195.958282 
L 354.455203 195.958282 
L 354.92656 195.204112 
L 355.680731 194.732755 
L 355.680731 194.732755 
L 356.623444 194.544212 
L 356.623444 194.544212 
L 358.885956 194.544212 
" clip-path="url(#p36efe7544e)" style="fill: none; stroke: #ffffff; stroke-width: 0.538176; stroke-linecap: round"/>
   </g>
   <g id="line2d_173">
    <path d="M 361.774701 204.922828 
L 361.774701 194.552981 
" clip-path="url(#p36efe7544e)" style="fill: none; stroke: #ffffff; stroke-width: 0.538176; stroke-linecap: round"/>
   </g>
   <g id="line2d_174">
    <path d="M 367.525372 194.551932 
L 361.774124 200.868877 
" clip-path="url(#p36efe7544e)" style="fill: none; stroke: #ffffff; stroke-width: 0.538176; stroke-linecap: round"/>
   </g>
   <g id="line2d_175">
    <path d="M 367.524904 204.922604 
L 364.036755 198.606228 
" clip-path="url(#p36efe7544e)" style="fill: none; stroke: #ffffff; stroke-width: 0.538176; stroke-linecap: round"/>
   </g>
   <g id="line2d_176">
    <path d="M 398.487273 182.64187 
L 381.400191 182.64187 
" clip-path="url(#p36efe7544e)" style="fill: none; stroke: #c90d15; stroke-width: 0.67272; stroke-linecap: square"/>
   </g>
   <g id="line2d_177">
    <path d="M 256.830422 187.826569 
L 256.830422 177.456722 
L 259.752833 177.456722 
L 260.601275 177.550993 
L 261.449717 178.02235 
L 262.015345 178.587978 
L 262.486702 179.43642 
L 262.580973 180.284862 
L 262.486702 181.227576 
L 262.015345 181.981746 
L 261.449717 182.641646 
L 260.601275 183.113002 
L 259.752833 183.207274 
L 256.830422 183.207274 
" clip-path="url(#p36efe7544e)" style="fill: none; stroke: #ffffff; stroke-width: 0.538176; stroke-linecap: round"/>
   </g>
   <g id="line2d_178">
    <path d="M 264.336657 187.638174 
L 267.824816 177.267967 
L 267.824816 177.267967 
L 271.218305 187.63844 
L 271.218305 187.63844 
" clip-path="url(#p36efe7544e)" style="fill: none; stroke: #ffffff; stroke-width: 0.538176; stroke-linecap: round"/>
   </g>
   <g id="line2d_179">
    <path d="M 270.370684 185.093309 
L 265.185761 185.093309 
" clip-path="url(#p36efe7544e)" style="fill: none; stroke: #ffffff; stroke-width: 0.538176; stroke-linecap: round"/>
   </g>
   <g id="line2d_180">
    <path d="M 272.975258 187.826565 
L 276.463298 187.826565 
L 277.31174 187.638023 
L 278.065911 187.166666 
L 278.537267 186.412495 
L 278.72581 185.564053 
L 278.72581 184.338526 
L 278.631539 183.678626 
L 278.254453 183.018727 
L 277.783097 182.453099 
L 277.123197 182.170285 
L 276.463298 182.076013 
L 272.975258 182.076013 
L 272.975258 182.076013 
L 272.975258 177.456718 
L 272.975258 177.456718 
L 272.975258 177.456718 
L 278.72581 177.456718 
L 278.72581 177.456718 
" clip-path="url(#p36efe7544e)" style="fill: none; stroke: #ffffff; stroke-width: 0.538176; stroke-linecap: round"/>
   </g>
   <g id="line2d_181">
    <path d="M 281.613469 187.631407 
L 286.232764 187.631407 
" clip-path="url(#p36efe7544e)" style="fill: none; stroke: #ffffff; stroke-width: 0.538176; stroke-linecap: round"/>
   </g>
   <g id="line2d_182">
    <path d="M 288.554568 187.638174 
L 292.042726 177.267967 
L 292.042726 177.267967 
L 295.436216 187.63844 
L 295.436216 187.63844 
" clip-path="url(#p36efe7544e)" style="fill: none; stroke: #ffffff; stroke-width: 0.538176; stroke-linecap: round"/>
   </g>
   <g id="line2d_183">
    <path d="M 294.588595 185.093309 
L 289.403671 185.093309 
" clip-path="url(#p36efe7544e)" style="fill: none; stroke: #ffffff; stroke-width: 0.538176; stroke-linecap: round"/>
   </g>
   <g id="line2d_184">
    <path d="M 302.94631 183.207883 
L 299.552542 183.207883 
L 298.798371 183.113612 
L 298.138471 182.736526 
L 297.667115 182.265169 
L 297.290029 181.60527 
L 297.195758 180.851099 
L 297.195758 180.285471 
L 297.384301 179.437029 
L 297.761386 178.588587 
L 298.421285 178.022959 
L 299.175456 177.551602 
L 300.11817 177.457331 
L 300.966612 177.551602 
L 301.815054 178.022959 
L 302.474953 178.588587 
L 302.852039 179.437029 
L 302.94631 180.285471 
L 302.94631 183.207883 
L 302.852039 184.43341 
L 302.380682 185.564666 
L 301.626511 186.50738 
L 300.683798 187.167279 
L 299.552542 187.638636 
L 298.327014 187.827179 
" clip-path="url(#p36efe7544e)" style="fill: none; stroke: #ffffff; stroke-width: 0.538176; stroke-linecap: round"/>
   </g>
   <g id="line2d_185">
    <path d="M 305.831379 187.631407 
L 310.450675 187.631407 
" clip-path="url(#p36efe7544e)" style="fill: none; stroke: #ffffff; stroke-width: 0.538176; stroke-linecap: round"/>
   </g>
   <g id="line2d_186">
    <path d="M 313.33835 187.8263 
L 313.33835 177.456452 
L 316.16649 177.456452 
L 317.109204 177.550724 
L 317.863374 178.02208 
L 318.523274 178.587708 
L 318.900359 179.43615 
L 319.088902 180.284593 
L 319.088902 184.903888 
L 318.900359 185.846602 
L 318.523274 186.600772 
L 317.863374 187.260672 
L 317.109204 187.732029 
L 316.16649 187.8263 
L 313.33835 187.8263 
" clip-path="url(#p36efe7544e)" style="fill: none; stroke: #ffffff; stroke-width: 0.538176; stroke-linecap: round"/>
   </g>
   <g id="line2d_187">
    <path d="M 327.16422 183.207883 
L 323.770452 183.207883 
L 323.016281 183.113612 
L 322.356382 182.736526 
L 321.885025 182.265169 
L 321.50794 181.60527 
L 321.413669 180.851099 
L 321.413669 180.285471 
L 321.602211 179.437029 
L 321.979297 178.588587 
L 322.639196 178.022959 
L 323.393367 177.551602 
L 324.33608 177.457331 
L 325.184522 177.551602 
L 326.032964 178.022959 
L 326.692864 178.588587 
L 327.069949 179.437029 
L 327.16422 180.285471 
L 327.16422 183.207883 
L 327.069949 184.43341 
L 326.598592 185.564666 
L 325.844422 186.50738 
L 324.901708 187.167279 
L 323.770452 187.638636 
L 322.544925 187.827179 
" clip-path="url(#p36efe7544e)" style="fill: none; stroke: #ffffff; stroke-width: 0.538176; stroke-linecap: round"/>
   </g>
   <g id="line2d_188">
    <path d="M 330.04929 187.631407 
L 334.668585 187.631407 
" clip-path="url(#p36efe7544e)" style="fill: none; stroke: #ffffff; stroke-width: 0.538176; stroke-linecap: round"/>
   </g>
   <g id="line2d_189">
    <path d="M 336.99107 187.82692 
L 336.99107 177.457073 
L 340.384838 183.207624 
L 340.384838 183.207624 
L 343.872878 177.457073 
L 343.872878 177.457073 
L 343.872878 187.82692 
" clip-path="url(#p36efe7544e)" style="fill: none; stroke: #ffffff; stroke-width: 0.538176; stroke-linecap: round"/>
   </g>
   <g id="line2d_190">
    <path d="M 348.551424 177.457267 
L 348.551424 187.827115 
" clip-path="url(#p36efe7544e)" style="fill: none; stroke: #ffffff; stroke-width: 0.538176; stroke-linecap: round"/>
   </g>
   <g id="line2d_191">
    <path d="M 347.325603 187.826978 
L 349.682387 187.826978 
" clip-path="url(#p36efe7544e)" style="fill: none; stroke: #ffffff; stroke-width: 0.538176; stroke-linecap: round"/>
   </g>
   <g id="line2d_192">
    <path d="M 347.325603 177.456929 
L 349.682387 177.456929 
" clip-path="url(#p36efe7544e)" style="fill: none; stroke: #ffffff; stroke-width: 0.538176; stroke-linecap: round"/>
   </g>
   <g id="line2d_193">
    <path d="M 353.701548 186.41254 
L 354.738533 187.16671 
L 355.869789 187.638067 
L 357.189588 187.82661 
L 357.849487 187.732338 
L 358.509387 187.355253 
L 359.075015 186.883896 
L 359.357829 186.223997 
L 359.4521 185.564098 
L 359.357829 184.715655 
L 358.980744 184.055756 
L 358.980744 184.055756 
L 358.320844 183.490128 
L 358.320844 183.490128 
L 358.320844 183.490128 
L 355.115619 181.793244 
L 355.115619 181.793244 
L 354.54999 181.227616 
L 354.172905 180.567716 
L 353.984362 179.719274 
L 354.078634 179.059375 
L 354.455719 178.399476 
L 354.927076 177.833847 
L 355.586975 177.551033 
L 356.341146 177.456762 
L 357.189588 177.551033 
L 358.132301 177.833847 
L 358.886472 178.305204 
" clip-path="url(#p36efe7544e)" style="fill: none; stroke: #ffffff; stroke-width: 0.538176; stroke-linecap: round"/>
   </g>
   <g id="line2d_194">
    <path d="M 361.727565 180.284861 
L 361.916108 179.436419 
L 362.293193 178.587977 
L 362.953092 178.022349 
L 363.801534 177.550992 
L 364.649977 177.456721 
L 365.59269 177.550992 
L 366.346861 178.022349 
L 367.00676 178.587977 
L 367.383845 179.436419 
L 367.572388 180.284861 
L 367.572388 184.904157 
L 367.383845 185.846871 
L 367.00676 186.601041 
L 366.346861 187.260941 
L 365.59269 187.732297 
L 364.649977 187.826569 
L 363.801534 187.732297 
L 362.953092 187.260941 
L 362.293193 186.601041 
L 361.916108 185.846871 
L 361.727565 184.904157 
L 361.727565 180.284861 
" clip-path="url(#p36efe7544e)" style="fill: none; stroke: #ffffff; stroke-width: 0.538176; stroke-linecap: round"/>
   </g>
   <g id="line2d_195">
    <path d="M 398.487273 165.554788 
L 381.400191 165.554788 
" clip-path="url(#p36efe7544e)" style="fill: none; stroke: #c90d15; stroke-width: 0.67272; stroke-linecap: square"/>
   </g>
   <g id="line2d_196">
    <path d="M 240.685148 170.739488 
L 240.685148 160.369641 
L 243.607559 160.369641 
L 244.456002 160.463912 
L 245.304444 160.935269 
L 245.870072 161.500897 
L 246.341428 162.349339 
L 246.4357 163.197781 
L 246.341428 164.140494 
L 245.870072 164.894665 
L 245.304444 165.554564 
L 244.456002 166.025921 
L 243.607559 166.120192 
L 240.685148 166.120192 
" clip-path="url(#p36efe7544e)" style="fill: none; stroke: #ffffff; stroke-width: 0.538176; stroke-linecap: round"/>
   </g>
   <g id="line2d_197">
    <path d="M 248.191383 170.551092 
L 251.679542 160.180885 
L 251.679542 160.180885 
L 255.073031 170.551359 
L 255.073031 170.551359 
" clip-path="url(#p36efe7544e)" style="fill: none; stroke: #ffffff; stroke-width: 0.538176; stroke-linecap: round"/>
   </g>
   <g id="line2d_198">
    <path d="M 254.225411 168.006227 
L 249.040487 168.006227 
" clip-path="url(#p36efe7544e)" style="fill: none; stroke: #ffffff; stroke-width: 0.538176; stroke-linecap: round"/>
   </g>
   <g id="line2d_199">
    <path d="M 256.782819 164.989177 
L 260.270859 164.989177 
L 261.025029 165.083448 
L 261.684929 165.366262 
L 262.156285 165.93189 
L 262.439099 166.59179 
L 262.627642 167.251689 
L 262.627642 167.817317 
L 262.439099 168.76003 
L 262.062014 169.514201 
L 261.402115 170.174101 
L 260.647944 170.645457 
L 259.705231 170.739729 
L 258.856788 170.645457 
L 258.008346 170.174101 
L 257.348447 169.514201 
L 256.971362 168.76003 
L 256.782819 167.817317 
L 256.782819 164.989177 
L 256.782819 164.989177 
L 256.971362 163.763649 
L 256.971362 163.763649 
L 257.442718 162.632393 
L 258.196889 161.68968 
L 259.139602 160.935509 
L 260.270859 160.464152 
L 261.402115 160.369881 
" clip-path="url(#p36efe7544e)" style="fill: none; stroke: #ffffff; stroke-width: 0.538176; stroke-linecap: round"/>
   </g>
   <g id="line2d_200">
    <path d="M 265.468195 170.544325 
L 270.087491 170.544325 
" clip-path="url(#p36efe7544e)" style="fill: none; stroke: #ffffff; stroke-width: 0.538176; stroke-linecap: round"/>
   </g>
   <g id="line2d_201">
    <path d="M 272.409294 170.551092 
L 275.897453 160.180885 
L 275.897453 160.180885 
L 279.290942 170.551359 
L 279.290942 170.551359 
" clip-path="url(#p36efe7544e)" style="fill: none; stroke: #ffffff; stroke-width: 0.538176; stroke-linecap: round"/>
   </g>
   <g id="line2d_202">
    <path d="M 278.443321 168.006227 
L 273.258398 168.006227 
" clip-path="url(#p36efe7544e)" style="fill: none; stroke: #ffffff; stroke-width: 0.538176; stroke-linecap: round"/>
   </g>
   <g id="line2d_203">
    <path d="M 281.000607 162.632022 
L 283.922674 160.369776 
L 283.922674 160.369776 
L 283.922626 170.739701 
L 283.922626 170.739701 
" clip-path="url(#p36efe7544e)" style="fill: none; stroke: #ffffff; stroke-width: 0.538176; stroke-linecap: round"/>
   </g>
   <g id="line2d_204">
    <path d="M 281.000781 170.739484 
L 286.845604 170.739484 
" clip-path="url(#p36efe7544e)" style="fill: none; stroke: #ffffff; stroke-width: 0.538176; stroke-linecap: round"/>
   </g>
   <g id="line2d_205">
    <path d="M 291.948618 160.369451 
L 291.38299 160.463722 
L 290.72309 160.746536 
L 290.251734 161.217893 
L 289.968919 161.783521 
L 289.497563 163.009048 
L 289.214749 164.234576 
L 289.120477 165.554375 
L 289.214749 166.874173 
L 289.497563 168.099701 
L 289.968919 169.325228 
L 289.968919 169.325228 
L 290.251734 169.890856 
L 290.251734 169.890856 
L 290.72309 170.362213 
L 291.38299 170.645027 
L 291.948618 170.739299 
L 292.608517 170.645027 
L 293.268416 170.362213 
L 293.739773 169.890856 
L 294.022587 169.325228 
L 294.493944 168.099701 
L 294.776758 166.874173 
L 294.871029 165.554375 
L 294.776758 164.234576 
L 294.493944 163.009048 
L 294.022587 161.783521 
L 293.739773 161.217893 
L 293.268416 160.746536 
L 292.608517 160.463722 
L 291.948618 160.369451 
" clip-path="url(#p36efe7544e)" style="fill: none; stroke: #ffffff; stroke-width: 0.538176; stroke-linecap: round"/>
   </g>
   <g id="line2d_206">
    <path d="M 289.686045 168.477385 
L 294.305033 162.632959 
" clip-path="url(#p36efe7544e)" style="fill: none; stroke: #ffffff; stroke-width: 0.538176; stroke-linecap: round"/>
   </g>
   <g id="line2d_207">
    <path d="M 297.758742 170.544325 
L 302.378038 170.544325 
" clip-path="url(#p36efe7544e)" style="fill: none; stroke: #ffffff; stroke-width: 0.538176; stroke-linecap: round"/>
   </g>
   <g id="line2d_208">
    <path d="M 305.265713 170.739219 
L 305.265713 160.369371 
L 308.093853 160.369371 
L 309.036567 160.463642 
L 309.790737 160.934999 
L 310.450637 161.500627 
L 310.827722 162.349069 
L 311.016265 163.197511 
L 311.016265 167.816807 
L 310.827722 168.75952 
L 310.450637 169.513691 
L 309.790737 170.17359 
L 309.036567 170.644947 
L 308.093853 170.739219 
L 305.265713 170.739219 
" clip-path="url(#p36efe7544e)" style="fill: none; stroke: #ffffff; stroke-width: 0.538176; stroke-linecap: round"/>
   </g>
   <g id="line2d_209">
    <path d="M 313.291154 162.632022 
L 316.213222 160.369776 
L 316.213222 160.369776 
L 316.213173 170.739701 
L 316.213173 170.739701 
" clip-path="url(#p36efe7544e)" style="fill: none; stroke: #ffffff; stroke-width: 0.538176; stroke-linecap: round"/>
   </g>
   <g id="line2d_210">
    <path d="M 313.291328 170.739484 
L 319.136152 170.739484 
" clip-path="url(#p36efe7544e)" style="fill: none; stroke: #ffffff; stroke-width: 0.538176; stroke-linecap: round"/>
   </g>
   <g id="line2d_211">
    <path d="M 324.239165 160.369451 
L 323.673537 160.463722 
L 323.013638 160.746536 
L 322.542281 161.217893 
L 322.259467 161.783521 
L 321.78811 163.009048 
L 321.505296 164.234576 
L 321.411025 165.554375 
L 321.505296 166.874173 
L 321.78811 168.099701 
L 322.259467 169.325228 
L 322.259467 169.325228 
L 322.542281 169.890856 
L 322.542281 169.890856 
L 323.013638 170.362213 
L 323.673537 170.645027 
L 324.239165 170.739299 
L 324.899064 170.645027 
L 325.558964 170.362213 
L 326.030321 169.890856 
L 326.313135 169.325228 
L 326.784491 168.099701 
L 327.067305 166.874173 
L 327.161577 165.554375 
L 327.067305 164.234576 
L 326.784491 163.009048 
L 326.313135 161.783521 
L 326.030321 161.217893 
L 325.558964 160.746536 
L 324.899064 160.463722 
L 324.239165 160.369451 
" clip-path="url(#p36efe7544e)" style="fill: none; stroke: #ffffff; stroke-width: 0.538176; stroke-linecap: round"/>
   </g>
   <g id="line2d_212">
    <path d="M 321.976592 168.477385 
L 326.595581 162.632959 
" clip-path="url(#p36efe7544e)" style="fill: none; stroke: #ffffff; stroke-width: 0.538176; stroke-linecap: round"/>
   </g>
   <g id="line2d_213">
    <path d="M 330.04929 170.544325 
L 334.668585 170.544325 
" clip-path="url(#p36efe7544e)" style="fill: none; stroke: #ffffff; stroke-width: 0.538176; stroke-linecap: round"/>
   </g>
   <g id="line2d_214">
    <path d="M 336.99107 170.739839 
L 336.99107 160.369991 
L 340.384838 166.120543 
L 340.384838 166.120543 
L 343.872878 160.369991 
L 343.872878 160.369991 
L 343.872878 170.739839 
" clip-path="url(#p36efe7544e)" style="fill: none; stroke: #ffffff; stroke-width: 0.538176; stroke-linecap: round"/>
   </g>
   <g id="line2d_215">
    <path d="M 345.582291 163.19778 
L 345.770834 162.349338 
L 346.147919 161.500896 
L 346.807819 160.935268 
L 347.656261 160.463911 
L 348.504703 160.36964 
L 349.447416 160.463911 
L 350.201587 160.935268 
L 350.861486 161.500896 
L 351.238572 162.349338 
L 351.427114 163.19778 
L 351.427114 167.817076 
L 351.238572 168.759789 
L 350.861486 169.51396 
L 350.201587 170.173859 
L 349.447416 170.645216 
L 348.504703 170.739487 
L 347.656261 170.645216 
L 346.807819 170.173859 
L 346.147919 169.51396 
L 345.770834 168.759789 
L 345.582291 167.817076 
L 345.582291 163.19778 
" clip-path="url(#p36efe7544e)" style="fill: none; stroke: #ffffff; stroke-width: 0.538176; stroke-linecap: round"/>
   </g>
   <g id="line2d_216">
    <path d="M 353.701548 169.325458 
L 354.738533 170.079629 
L 355.869789 170.550986 
L 357.189588 170.739528 
L 357.849487 170.645257 
L 358.509387 170.268172 
L 359.075015 169.796815 
L 359.357829 169.136916 
L 359.4521 168.477016 
L 359.357829 167.628574 
L 358.980744 166.968675 
L 358.980744 166.968675 
L 358.320844 166.403047 
L 358.320844 166.403047 
L 358.320844 166.403047 
L 355.115619 164.706163 
L 355.115619 164.706163 
L 354.54999 164.140534 
L 354.172905 163.480635 
L 353.984362 162.632193 
L 354.078634 161.972294 
L 354.455719 161.312394 
L 354.927076 160.746766 
L 355.586975 160.463952 
L 356.341146 160.369681 
L 357.189588 160.463952 
L 358.132301 160.746766 
L 358.886472 161.218123 
" clip-path="url(#p36efe7544e)" style="fill: none; stroke: #ffffff; stroke-width: 0.538176; stroke-linecap: round"/>
   </g>
   <g id="line2d_217">
    <path d="M 364.696697 160.370186 
L 364.696697 170.740033 
" clip-path="url(#p36efe7544e)" style="fill: none; stroke: #ffffff; stroke-width: 0.538176; stroke-linecap: round"/>
   </g>
   <g id="line2d_218">
    <path d="M 363.470877 170.739897 
L 365.827661 170.739897 
" clip-path="url(#p36efe7544e)" style="fill: none; stroke: #ffffff; stroke-width: 0.538176; stroke-linecap: round"/>
   </g>
   <g id="line2d_219">
    <path d="M 363.470877 160.369848 
L 365.827661 160.369848 
" clip-path="url(#p36efe7544e)" style="fill: none; stroke: #ffffff; stroke-width: 0.538176; stroke-linecap: round"/>
   </g>
   <g id="line2d_220">
    <path d="M 398.487273 148.467707 
L 381.400191 148.467707 
" clip-path="url(#p36efe7544e)" style="fill: none; stroke: #c90d15; stroke-width: 0.67272; stroke-linecap: square"/>
   </g>
   <g id="line2d_221">
    <path d="M 345.628944 153.652403 
L 348.457084 153.652403 
L 349.399798 153.558131 
L 350.153968 153.086775 
L 350.813868 152.426875 
L 351.190953 151.672704 
L 351.379496 150.729991 
L 351.190953 149.881549 
L 350.813868 149.033107 
L 350.153968 148.467479 
L 349.399798 147.996122 
L 348.457084 147.901851 
" clip-path="url(#p36efe7544e)" style="fill: none; stroke: #ffffff; stroke-width: 0.538176; stroke-linecap: round"/>
   </g>
   <g id="line2d_222">
    <path d="M 345.628944 143.282354 
L 349.022712 143.282354 
L 349.871154 143.376625 
L 350.531054 143.75371 
L 351.096682 144.41361 
L 351.379496 145.16778 
L 351.379496 145.921951 
L 351.096682 146.676122 
L 350.531054 147.336021 
L 349.871154 147.713107 
L 349.022712 147.901649 
L 346.7602 147.901649 
" clip-path="url(#p36efe7544e)" style="fill: none; stroke: #ffffff; stroke-width: 0.538176; stroke-linecap: round"/>
   </g>
   <g id="line2d_223">
    <path d="M 353.135766 143.282863 
L 356.623925 153.65307 
L 356.623925 153.65307 
L 360.017414 143.282596 
L 360.017414 143.282596 
" clip-path="url(#p36efe7544e)" style="fill: none; stroke: #ffffff; stroke-width: 0.538176; stroke-linecap: round"/>
   </g>
   <g id="line2d_224">
    <path d="M 361.774218 153.652403 
L 364.602358 153.652403 
L 365.545071 153.558131 
L 366.299242 153.086775 
L 366.959141 152.426875 
L 367.336227 151.672704 
L 367.524769 150.729991 
L 367.336227 149.881549 
L 366.959141 149.033107 
L 366.299242 148.467479 
L 365.545071 147.996122 
L 364.602358 147.901851 
" clip-path="url(#p36efe7544e)" style="fill: none; stroke: #ffffff; stroke-width: 0.538176; stroke-linecap: round"/>
   </g>
   <g id="line2d_225">
    <path d="M 361.774218 143.282354 
L 365.167986 143.282354 
L 366.016428 143.376625 
L 366.676327 143.75371 
L 367.241955 144.41361 
L 367.524769 145.16778 
L 367.524769 145.921951 
L 367.241955 146.676122 
L 366.676327 147.336021 
L 366.016428 147.713107 
L 365.167986 147.901649 
L 362.905474 147.901649 
" clip-path="url(#p36efe7544e)" style="fill: none; stroke: #ffffff; stroke-width: 0.538176; stroke-linecap: round"/>
   </g>
   <g id="line2d_226">
    <path d="M 398.487273 131.380626 
L 381.400191 131.380626 
" clip-path="url(#p36efe7544e)" style="fill: none; stroke: #c90d15; stroke-width: 0.67272; stroke-linecap: square"/>
   </g>
   <g id="line2d_227">
    <path d="M 349.6822 130.815427 
L 351.379088 130.815427 
L 351.379088 136.565979 
L 347.891041 136.565979 
L 347.23114 136.471708 
L 346.57124 136.094622 
L 346.005611 135.623266 
L 345.722796 134.963366 
L 345.628524 134.303467 
L 345.628524 128.458644 
L 345.817067 127.610202 
L 346.288425 126.856031 
L 347.042597 126.384674 
L 347.891041 126.196131 
L 351.379088 126.196131 
" clip-path="url(#p36efe7544e)" style="fill: none; stroke: #ffffff; stroke-width: 0.538176; stroke-linecap: round"/>
   </g>
   <g id="line2d_228">
    <path d="M 353.702064 136.56537 
L 353.702064 126.195522 
L 359.452616 136.56537 
L 359.452616 126.195522 
" clip-path="url(#p36efe7544e)" style="fill: none; stroke: #ffffff; stroke-width: 0.538176; stroke-linecap: round"/>
   </g>
   <g id="line2d_229">
    <path d="M 361.774171 136.565056 
L 361.774171 126.195208 
L 364.602311 126.195208 
L 365.545025 126.28948 
L 366.299195 126.760836 
L 366.959095 127.326464 
L 367.33618 128.174906 
L 367.524723 129.023348 
L 367.524723 133.642644 
L 367.33618 134.585358 
L 366.959095 135.339528 
L 366.299195 135.999428 
L 365.545025 136.470785 
L 364.602311 136.565056 
L 361.774171 136.565056 
" clip-path="url(#p36efe7544e)" style="fill: none; stroke: #ffffff; stroke-width: 0.538176; stroke-linecap: round"/>
   </g>
   <g id="line2d_230">
    <path d="M 398.487273 114.293544 
L 381.400191 114.293544 
" clip-path="url(#p36efe7544e)" style="fill: none; stroke: #c90d15; stroke-width: 0.67272; stroke-linecap: square"/>
   </g>
   <g id="line2d_231">
    <path d="M 353.701627 119.47824 
L 357.189666 119.47824 
L 358.038109 119.289697 
L 358.792279 118.81834 
L 359.263636 118.06417 
L 359.452179 117.215728 
L 359.452179 115.9902 
L 359.357907 115.330301 
L 358.980822 114.670401 
L 358.509465 114.104773 
L 357.849566 113.821959 
L 357.189666 113.727688 
L 353.701627 113.727688 
L 353.701627 113.727688 
L 353.701627 109.108392 
L 353.701627 109.108392 
L 353.701627 109.108392 
L 359.452179 109.108392 
L 359.452179 109.108392 
" clip-path="url(#p36efe7544e)" style="fill: none; stroke: #ffffff; stroke-width: 0.538176; stroke-linecap: round"/>
   </g>
   <g id="line2d_232">
    <path d="M 361.208403 109.108701 
L 364.696562 119.478908 
L 364.696562 119.478908 
L 368.090051 109.108434 
L 368.090051 109.108434 
" clip-path="url(#p36efe7544e)" style="fill: none; stroke: #ffffff; stroke-width: 0.538176; stroke-linecap: round"/>
   </g>
   <g id="line2d_233">
    <path d="M 90.919809 97.206463 
L 381.400191 97.206463 
" clip-path="url(#p36efe7544e)" style="fill: none; stroke: #c90d15; stroke-width: 1.025225; stroke-linecap: round"/>
   </g>
   <g id="line2d_234">
    <path d="M 381.400191 97.206463 
L 381.400191 268.077276 
" clip-path="url(#p36efe7544e)" style="fill: none; stroke: #c90d15; stroke-width: 1.025225; stroke-linecap: round"/>
   </g>
   <g id="line2d_235">
    <path d="M 381.400191 268.077276 
L 90.919809 268.077276 
" clip-path="url(#p36efe7544e)" style="fill: none; stroke: #c90d15; stroke-width: 1.025225; stroke-linecap: round"/>
   </g>
   <g id="line2d_236">
    <path d="M 90.919809 268.077276 
L 90.919809 97.206463 
" clip-path="url(#p36efe7544e)" style="fill: none; stroke: #c90d15; stroke-width: 1.025225; stroke-linecap: round"/>
   </g>
   <g id="matplotlib.axis_1">
    <g id="xtick_1">
     <g id="line2d_237">
      <defs>
       <path id="m8d1e065bb1" d="M 0 0 
L 0 3.5 
" style="stroke: #ffffff; stroke-width: 0.8"/>
      </defs>
      <g>
       <use xlink:href="#m8d1e065bb1" x="93.072512" y="277.432204" style="fill: #ffffff; stroke: #ffffff; stroke-width: 0.8"/>
      </g>
     </g>
     <g id="text_1">
      <text style="fill: #ffffff; font: 10px 'sans-serif'; text-anchor: middle" x="93.072512" y="292.030642" transform="rotate(-0, 93.072512, 292.030642)">20</text>
     </g>
    </g>
    <g id="xtick_2">
     <g id="line2d_238">
      <g>
       <use xlink:href="#m8d1e065bb1" x="160.344486" y="277.432204" style="fill: #ffffff; stroke: #ffffff; stroke-width: 0.8"/>
      </g>
     </g>
     <g id="text_2">
      <text style="fill: #ffffff; font: 10px 'sans-serif'; text-anchor: middle" x="160.344486" y="292.030642" transform="rotate(-0, 160.344486, 292.030642)">10</text>
     </g>
    </g>
    <g id="xtick_3">
     <g id="line2d_239">
      <g>
       <use xlink:href="#m8d1e065bb1" x="227.616459" y="277.432204" style="fill: #ffffff; stroke: #ffffff; stroke-width: 0.8"/>
      </g>
     </g>
     <g id="text_3">
      <text style="fill: #ffffff; font: 10px 'sans-serif'; text-anchor: middle" x="227.616459" y="292.030642" transform="rotate(-0, 227.616459, 292.030642)">0</text>
     </g>
    </g>
    <g id="xtick_4">
     <g id="line2d_240">
      <g>
       <use xlink:href="#m8d1e065bb1" x="294.888433" y="277.432204" style="fill: #ffffff; stroke: #ffffff; stroke-width: 0.8"/>
      </g>
     </g>
     <g id="text_4">
      <text style="fill: #ffffff; font: 10px 'sans-serif'; text-anchor: middle" x="294.888433" y="292.030642" transform="rotate(-0, 294.888433, 292.030642)">10</text>
     </g>
    </g>
    <g id="xtick_5">
     <g id="line2d_241">
      <g>
       <use xlink:href="#m8d1e065bb1" x="362.160407" y="277.432204" style="fill: #ffffff; stroke: #ffffff; stroke-width: 0.8"/>
      </g>
     </g>
     <g id="text_5">
      <text style="fill: #ffffff; font: 10px 'sans-serif'; text-anchor: middle" x="362.160407" y="292.030642" transform="rotate(-0, 362.160407, 292.030642)">20</text>
     </g>
    </g>
   </g>
   <g id="matplotlib.axis_2">
    <g id="ytick_1">
     <g id="line2d_242">
      <defs>
       <path id="mce52363a9d" d="M 0 0 
L -3.5 0 
" style="stroke: #ffffff; stroke-width: 0.8"/>
      </defs>
      <g>
       <use xlink:href="#mce52363a9d" x="57.6" y="266.462749" style="fill: #ffffff; stroke: #ffffff; stroke-width: 0.8"/>
      </g>
     </g>
     <g id="text_6">
      <text style="fill: #ffffff; font: 10px 'sans-serif'; text-anchor: end" x="50.6" y="270.261968" transform="rotate(-0, 50.6, 270.261968)">15</text>
     </g>
    </g>
    <g id="ytick_2">
     <g id="line2d_243">
      <g>
       <use xlink:href="#mce52363a9d" x="57.6" y="232.826762" style="fill: #ffffff; stroke: #ffffff; stroke-width: 0.8"/>
      </g>
     </g>
     <g id="text_7">
      <text style="fill: #ffffff; font: 10px 'sans-serif'; text-anchor: end" x="50.6" y="236.625981" transform="rotate(-0, 50.6, 236.625981)">10</text>
     </g>
    </g>
    <g id="ytick_3">
     <g id="line2d_244">
      <g>
       <use xlink:href="#mce52363a9d" x="57.6" y="199.190775" style="fill: #ffffff; stroke: #ffffff; stroke-width: 0.8"/>
      </g>
     </g>
     <g id="text_8">
      <text style="fill: #ffffff; font: 10px 'sans-serif'; text-anchor: end" x="50.6" y="202.989994" transform="rotate(-0, 50.6, 202.989994)">5</text>
     </g>
    </g>
    <g id="ytick_4">
     <g id="line2d_245">
      <g>
       <use xlink:href="#mce52363a9d" x="57.6" y="165.554788" style="fill: #ffffff; stroke: #ffffff; stroke-width: 0.8"/>
      </g>
     </g>
     <g id="text_9">
      <text style="fill: #ffffff; font: 10px 'sans-serif'; text-anchor: end" x="50.6" y="169.354007" transform="rotate(-0, 50.6, 169.354007)">0</text>
     </g>
    </g>
    <g id="ytick_5">
     <g id="line2d_246">
      <g>
       <use xlink:href="#mce52363a9d" x="57.6" y="131.918802" style="fill: #ffffff; stroke: #ffffff; stroke-width: 0.8"/>
      </g>
     </g>
     <g id="text_10">
      <text style="fill: #ffffff; font: 10px 'sans-serif'; text-anchor: end" x="50.6" y="135.71802" transform="rotate(-0, 50.6, 135.71802)">5</text>
     </g>
    </g>
    <g id="ytick_6">
     <g id="line2d_247">
      <g>
       <use xlink:href="#mce52363a9d" x="57.6" y="98.282815" style="fill: #ffffff; stroke: #ffffff; stroke-width: 0.8"/>
      </g>
     </g>
     <g id="text_11">
      <text style="fill: #ffffff; font: 10px 'sans-serif'; text-anchor: end" x="50.6" y="102.082033" transform="rotate(-0, 50.6, 102.082033)">10</text>
     </g>
    </g>
   </g>
   <g id="patch_5">
    <path d="M 57.6 277.432204 
L 57.6 71.623796 
" style="fill: none; stroke: #ffffff; stroke-width: 0.8; stroke-linejoin: miter; stroke-linecap: square"/>
   </g>
   <g id="patch_6">
    <path d="M 414.72 277.432204 
L 414.72 71.623796 
" style="fill: none; stroke: #ffffff; stroke-width: 0.8; stroke-linejoin: miter; stroke-linecap: square"/>
   </g>
   <g id="patch_7">
    <path d="M 57.6 277.432204 
L 414.72 277.432204 
" style="fill: none; stroke: #ffffff; stroke-width: 0.8; stroke-linejoin: miter; stroke-linecap: square"/>
   </g>
   <g id="patch_8">
    <path d="M 57.6 71.623796 
L 414.72 71.623796 
" style="fill: none; stroke: #ffffff; stroke-width: 0.8; stroke-linejoin: miter; stroke-linecap: square"/>
   </g>
   <g id="text_12">
    <text style="fill: #ffffff; font: 12px 'sans-serif'; text-anchor: middle" x="236.16" y="65.623796" transform="rotate(-0, 236.16, 65.623796)">MODULE-SEEDUINO-XIAO-R</text>
   </g>
  </g>
 </g>
 <defs>
  <clipPath id="p36efe7544e">
   <rect x="57.6" y="71.623796" width="357.12" height="205.808408"/>
  </clipPath>
 </defs>
</svg>
