<?xml version="1.0" encoding="utf-8" standalone="no"?>
<!DOCTYPE svg PUBLIC "-//W3C//DTD SVG 1.1//EN"
  "http://www.w3.org/Graphics/SVG/1.1/DTD/svg11.dtd">
<svg xmlns:xlink="http://www.w3.org/1999/xlink" width="460.8pt" height="345.6pt" viewBox="0 0 460.8 345.6" xmlns="http://www.w3.org/2000/svg" version="1.1">
 <metadata>
  <rdf:RDF xmlns:dc="http://purl.org/dc/elements/1.1/" xmlns:cc="http://creativecommons.org/ns#" xmlns:rdf="http://www.w3.org/1999/02/22-rdf-syntax-ns#">
   <cc:Work>
    <dc:type rdf:resource="http://purl.org/dc/dcmitype/StillImage"/>
    <dc:date>2021-12-22T04:54:04.583652</dc:date>
    <dc:format>image/svg+xml</dc:format>
    <dc:creator>
     <cc:Agent>
      <dc:title>Matplotlib v3.5.1, https://matplotlib.org/</dc:title>
     </cc:Agent>
    </dc:creator>
   </cc:Work>
  </rdf:RDF>
 </metadata>
 <defs>
  <style type="text/css">*{stroke-linejoin: round; stroke-linecap: butt}</style>
 </defs>
 <g id="figure_1">
  <g id="patch_1">
   <path d="M 0 345.6 
L 460.8 345.6 
L 460.8 0 
L 0 0 
z
" style="fill: #2b2b2b"/>
  </g>
  <g id="axes_1">
   <g id="patch_2">
    <path d="M 141.139008 307.584 
L 331.180992 307.584 
L 331.180992 41.472 
L 141.139008 41.472 
z
" style="fill: #2b2b2b"/>
   </g>
   <g id="patch_3">
    <path d="M 203.2416 199.984896 
C 204.172807 199.984896 205.065999 199.614924 205.724461 198.956461 
C 206.382924 198.297999 206.752896 197.404807 206.752896 196.4736 
C 206.752896 195.542393 206.382924 194.649201 205.724461 193.990739 
C 205.065999 193.332276 204.172807 192.962304 203.2416 192.962304 
C 202.310393 192.962304 201.417201 193.332276 200.758739 193.990739 
C 200.100276 194.649201 199.730304 195.542393 199.730304 196.4736 
C 199.730304 197.404807 200.100276 198.297999 200.758739 198.956461 
C 201.417201 199.614924 202.310393 199.984896 203.2416 199.984896 
L 203.2416 199.984896 
z
" clip-path="url(#p9b7c2c0805)" style="fill: none"/>
   </g>
   <g id="line2d_1">
    <path d="M 279.36 131.328 
L 192.96 131.328 
" clip-path="url(#p9b7c2c0805)" style="fill: none; stroke: #ffcd07; stroke-width: 2.19456; stroke-linecap: square"/>
   </g>
   <g id="line2d_2">
    <path d="M 192.96 131.328 
L 192.96 217.728 
" clip-path="url(#p9b7c2c0805)" style="fill: none; stroke: #ffcd07; stroke-width: 2.19456; stroke-linecap: square"/>
   </g>
   <g id="line2d_3">
    <path d="M 192.96 217.728 
L 279.36 217.728 
" clip-path="url(#p9b7c2c0805)" style="fill: none; stroke: #ffcd07; stroke-width: 2.19456; stroke-linecap: square"/>
   </g>
   <g id="line2d_4">
    <path d="M 279.36 217.728 
L 279.36 131.328 
" clip-path="url(#p9b7c2c0805)" style="fill: none; stroke: #ffcd07; stroke-width: 2.19456; stroke-linecap: square"/>
   </g>
   <g id="text_1">
    <text style="fill: #ffffff; font: 1.27px 'sans-serif'; text-anchor: start" x="236.16" y="306.2016" transform="rotate(-0, 236.16, 306.2016)">&gt;VALUE</text>
   </g>
   <g id="text_2">
    <text style="fill: #ffffff; font: 1.27px 'sans-serif'; text-anchor: start" x="236.16" y="42.8544" transform="rotate(-0, 236.16, 42.8544)">&gt;NAME</text>
   </g>
   <g id="line2d_5">
    <path d="M 276.97887 131.514624 
L 281.36799 131.514624 
" clip-path="url(#p9b7c2c0805)" style="fill: none; stroke: #808080; stroke-width: 3.511296; stroke-linecap: square"/>
   </g>
   <g id="line2d_6">
    <path d="M 281.36799 131.514624 
L 281.36799 153.992448 
" clip-path="url(#p9b7c2c0805)" style="fill: none; stroke: #808080; stroke-width: 3.511296; stroke-linecap: square"/>
   </g>
   <g id="line2d_7">
    <path d="M 281.36799 153.992448 
L 281.280186 153.992448 
" clip-path="url(#p9b7c2c0805)" style="fill: none; stroke: #808080; stroke-width: 3.511296; stroke-linecap: square"/>
   </g>
   <g id="line2d_8">
    <path d="M 281.280186 217.936386 
L 277.286076 217.936386 
" clip-path="url(#p9b7c2c0805)" style="fill: none; stroke: #808080; stroke-width: 3.511296; stroke-linecap: square"/>
   </g>
   <g id="line2d_9">
    <path d="M 196.087302 131.163516 
L 191.390976 131.163516 
" clip-path="url(#p9b7c2c0805)" style="fill: none; stroke: #808080; stroke-width: 3.511296; stroke-linecap: square"/>
   </g>
   <g id="line2d_10">
    <path d="M 191.390976 131.163516 
L 191.390976 153.64134 
" clip-path="url(#p9b7c2c0805)" style="fill: none; stroke: #808080; stroke-width: 3.511296; stroke-linecap: square"/>
   </g>
   <g id="line2d_11">
    <path d="M 191.390976 153.64134 
L 191.347074 153.64134 
" clip-path="url(#p9b7c2c0805)" style="fill: none; stroke: #808080; stroke-width: 3.511296; stroke-linecap: square"/>
   </g>
   <g id="line2d_12">
    <path d="M 191.347074 217.892484 
L 195.25338 217.892484 
" clip-path="url(#p9b7c2c0805)" style="fill: none; stroke: #808080; stroke-width: 3.511296; stroke-linecap: square"/>
   </g>
   <g id="line2d_13">
    <path d="M 220.79808 130.6368 
L 250.205184 130.6368 
" clip-path="url(#p9b7c2c0805)" style="fill: none; stroke: #808080; stroke-width: 3.511296; stroke-linecap: square"/>
   </g>
   <g id="line2d_14">
    <path d="M 225.1872 207.4464 
L 203.2416 185.5008 
" clip-path="url(#p9b7c2c0805)" style="fill: none; stroke: #808080; stroke-width: 3.511296; stroke-linecap: square"/>
   </g>
   <g id="line2d_15">
    <path d="M 175.68 53.568 
L 296.64 53.568 
" clip-path="url(#p9b7c2c0805)" style="fill: none; stroke: #808080; stroke-width: 2.19456; stroke-linecap: square"/>
   </g>
   <g id="line2d_16">
    <path d="M 296.64 295.488 
L 175.68 295.488 
" clip-path="url(#p9b7c2c0805)" style="fill: none; stroke: #808080; stroke-width: 2.19456; stroke-linecap: square"/>
   </g>
   <g id="line2d_17">
    <path d="M 220.79808 218.4192 
L 250.205184 218.4192 
" clip-path="url(#p9b7c2c0805)" style="fill: none; stroke: #808080; stroke-width: 3.511296; stroke-linecap: square"/>
   </g>
   <g id="line2d_18">
    <path d="M 191.390976 195.963516 
L 191.390976 218.44134 
" clip-path="url(#p9b7c2c0805)" style="fill: none; stroke: #808080; stroke-width: 3.511296; stroke-linecap: square"/>
   </g>
   <g id="line2d_19">
    <path d="M 281.36799 196.314624 
L 281.36799 218.792448 
" clip-path="url(#p9b7c2c0805)" style="fill: none; stroke: #808080; stroke-width: 3.511296; stroke-linecap: square"/>
   </g>
   <g id="line2d_20">
    <path d="M 175.68 295.488 
L 175.68 260.928 
" clip-path="url(#p9b7c2c0805)" style="fill: none; stroke: #808080; stroke-width: 2.19456; stroke-linecap: square"/>
   </g>
   <g id="line2d_21">
    <path d="M 296.64 295.488 
L 296.64 260.928 
" clip-path="url(#p9b7c2c0805)" style="fill: none; stroke: #808080; stroke-width: 2.19456; stroke-linecap: square"/>
   </g>
   <g id="line2d_22">
    <path d="M 175.68 53.568 
L 175.68 88.128 
" clip-path="url(#p9b7c2c0805)" style="fill: none; stroke: #808080; stroke-width: 2.19456; stroke-linecap: square"/>
   </g>
   <g id="line2d_23">
    <path d="M 296.64 53.568 
L 296.64 88.128 
" clip-path="url(#p9b7c2c0805)" style="fill: none; stroke: #808080; stroke-width: 2.19456; stroke-linecap: square"/>
   </g>
   <g id="patch_4">
    <path d="M 154.96128 129.23712 
L 185.68512 129.23712 
Q 190.86912 129.23712 190.86912 124.05312 
L 190.86912 93.32928 
Q 190.86912 88.14528 185.68512 88.14528 
L 154.96128 88.14528 
Q 149.77728 88.14528 149.77728 93.32928 
L 149.77728 124.05312 
Q 149.77728 129.23712 154.96128 129.23712 
z
" clip-path="url(#p9b7c2c0805)" style="fill: #c90d15; stroke: #ffffff; stroke-linejoin: miter"/>
   </g>
   <g id="patch_5">
    <path d="M 286.63488 129.23712 
L 317.35872 129.23712 
Q 322.54272 129.23712 322.54272 124.05312 
L 322.54272 93.32928 
Q 322.54272 88.14528 317.35872 88.14528 
L 286.63488 88.14528 
Q 281.45088 88.14528 281.45088 93.32928 
L 281.45088 124.05312 
Q 281.45088 129.23712 286.63488 129.23712 
z
" clip-path="url(#p9b7c2c0805)" style="fill: #c90d15; stroke: #ffffff; stroke-linejoin: miter"/>
   </g>
   <g id="patch_6">
    <path d="M 154.96128 173.12832 
L 185.68512 173.12832 
Q 190.86912 173.12832 190.86912 167.94432 
L 190.86912 137.22048 
Q 190.86912 132.03648 185.68512 132.03648 
L 154.96128 132.03648 
Q 149.77728 132.03648 149.77728 137.22048 
L 149.77728 167.94432 
Q 149.77728 173.12832 154.96128 173.12832 
z
" clip-path="url(#p9b7c2c0805)" style="fill: #c90d15; stroke: #ffffff; stroke-linejoin: miter"/>
   </g>
   <g id="patch_7">
    <path d="M 286.63488 173.12832 
L 317.35872 173.12832 
Q 322.54272 173.12832 322.54272 167.94432 
L 322.54272 137.22048 
Q 322.54272 132.03648 317.35872 132.03648 
L 286.63488 132.03648 
Q 281.45088 132.03648 281.45088 137.22048 
L 281.45088 167.94432 
Q 281.45088 173.12832 286.63488 173.12832 
z
" clip-path="url(#p9b7c2c0805)" style="fill: #c90d15; stroke: #ffffff; stroke-linejoin: miter"/>
   </g>
   <g id="patch_8">
    <path d="M 154.96128 217.01952 
L 185.68512 217.01952 
Q 190.86912 217.01952 190.86912 211.83552 
L 190.86912 181.11168 
Q 190.86912 175.92768 185.68512 175.92768 
L 154.96128 175.92768 
Q 149.77728 175.92768 149.77728 181.11168 
L 149.77728 211.83552 
Q 149.77728 217.01952 154.96128 217.01952 
z
" clip-path="url(#p9b7c2c0805)" style="fill: #c90d15; stroke: #ffffff; stroke-linejoin: miter"/>
   </g>
   <g id="patch_9">
    <path d="M 286.63488 217.01952 
L 317.35872 217.01952 
Q 322.54272 217.01952 322.54272 211.83552 
L 322.54272 181.11168 
Q 322.54272 175.92768 317.35872 175.92768 
L 286.63488 175.92768 
Q 281.45088 175.92768 281.45088 181.11168 
L 281.45088 211.83552 
Q 281.45088 217.01952 286.63488 217.01952 
z
" clip-path="url(#p9b7c2c0805)" style="fill: #c90d15; stroke: #ffffff; stroke-linejoin: miter"/>
   </g>
   <g id="patch_10">
    <path d="M 154.96128 260.91072 
L 185.68512 260.91072 
Q 190.86912 260.91072 190.86912 255.72672 
L 190.86912 225.00288 
Q 190.86912 219.81888 185.68512 219.81888 
L 154.96128 219.81888 
Q 149.77728 219.81888 149.77728 225.00288 
L 149.77728 255.72672 
Q 149.77728 260.91072 154.96128 260.91072 
z
" clip-path="url(#p9b7c2c0805)" style="fill: #c90d15; stroke: #ffffff; stroke-linejoin: miter"/>
   </g>
   <g id="patch_11">
    <path d="M 286.63488 260.91072 
L 317.35872 260.91072 
Q 322.54272 260.91072 322.54272 255.72672 
L 322.54272 225.00288 
Q 322.54272 219.81888 317.35872 219.81888 
L 286.63488 219.81888 
Q 281.45088 219.81888 281.45088 225.00288 
L 281.45088 255.72672 
Q 281.45088 260.91072 286.63488 260.91072 
z
" clip-path="url(#p9b7c2c0805)" style="fill: #c90d15; stroke: #ffffff; stroke-linejoin: miter"/>
   </g>
   <g id="matplotlib.axis_1">
    <g id="xtick_1">
     <g id="line2d_24">
      <defs>
       <path id="mfd943fe845" d="M 0 0 
L 0 3.5 
" style="stroke: #ffffff; stroke-width: 0.8"/>
      </defs>
      <g>
       <use xlink:href="#mfd943fe845" x="167.04" y="307.584" style="fill: #ffffff; stroke: #ffffff; stroke-width: 0.8"/>
      </g>
     </g>
     <g id="text_3">
      <text style="fill: #ffffff; font: 10px 'sans-serif'; text-anchor: middle" x="167.04" y="322.182437" transform="rotate(-0, 167.04, 322.182437)">−4</text>
     </g>
    </g>
    <g id="xtick_2">
     <g id="line2d_25">
      <g>
       <use xlink:href="#mfd943fe845" x="201.6" y="307.584" style="fill: #ffffff; stroke: #ffffff; stroke-width: 0.8"/>
      </g>
     </g>
     <g id="text_4">
      <text style="fill: #ffffff; font: 10px 'sans-serif'; text-anchor: middle" x="201.6" y="322.182437" transform="rotate(-0, 201.6, 322.182437)">−2</text>
     </g>
    </g>
    <g id="xtick_3">
     <g id="line2d_26">
      <g>
       <use xlink:href="#mfd943fe845" x="236.16" y="307.584" style="fill: #ffffff; stroke: #ffffff; stroke-width: 0.8"/>
      </g>
     </g>
     <g id="text_5">
      <text style="fill: #ffffff; font: 10px 'sans-serif'; text-anchor: middle" x="236.16" y="322.182437" transform="rotate(-0, 236.16, 322.182437)">0</text>
     </g>
    </g>
    <g id="xtick_4">
     <g id="line2d_27">
      <g>
       <use xlink:href="#mfd943fe845" x="270.72" y="307.584" style="fill: #ffffff; stroke: #ffffff; stroke-width: 0.8"/>
      </g>
     </g>
     <g id="text_6">
      <text style="fill: #ffffff; font: 10px 'sans-serif'; text-anchor: middle" x="270.72" y="322.182437" transform="rotate(-0, 270.72, 322.182437)">2</text>
     </g>
    </g>
    <g id="xtick_5">
     <g id="line2d_28">
      <g>
       <use xlink:href="#mfd943fe845" x="305.28" y="307.584" style="fill: #ffffff; stroke: #ffffff; stroke-width: 0.8"/>
      </g>
     </g>
     <g id="text_7">
      <text style="fill: #ffffff; font: 10px 'sans-serif'; text-anchor: middle" x="305.28" y="322.182437" transform="rotate(-0, 305.28, 322.182437)">4</text>
     </g>
    </g>
   </g>
   <g id="matplotlib.axis_2">
    <g id="ytick_1">
     <g id="line2d_29">
      <defs>
       <path id="m79ca179e5b" d="M 0 0 
L -3.5 0 
" style="stroke: #ffffff; stroke-width: 0.8"/>
      </defs>
      <g>
       <use xlink:href="#m79ca179e5b" x="141.139008" y="278.208" style="fill: #ffffff; stroke: #ffffff; stroke-width: 0.8"/>
      </g>
     </g>
     <g id="text_8">
      <text style="fill: #ffffff; font: 10px 'sans-serif'; text-anchor: end" x="134.139008" y="282.007219" transform="rotate(-0, 134.139008, 282.007219)">−6</text>
     </g>
    </g>
    <g id="ytick_2">
     <g id="line2d_30">
      <g>
       <use xlink:href="#m79ca179e5b" x="141.139008" y="243.648" style="fill: #ffffff; stroke: #ffffff; stroke-width: 0.8"/>
      </g>
     </g>
     <g id="text_9">
      <text style="fill: #ffffff; font: 10px 'sans-serif'; text-anchor: end" x="134.139008" y="247.447219" transform="rotate(-0, 134.139008, 247.447219)">−4</text>
     </g>
    </g>
    <g id="ytick_3">
     <g id="line2d_31">
      <g>
       <use xlink:href="#m79ca179e5b" x="141.139008" y="209.088" style="fill: #ffffff; stroke: #ffffff; stroke-width: 0.8"/>
      </g>
     </g>
     <g id="text_10">
      <text style="fill: #ffffff; font: 10px 'sans-serif'; text-anchor: end" x="134.139008" y="212.887219" transform="rotate(-0, 134.139008, 212.887219)">−2</text>
     </g>
    </g>
    <g id="ytick_4">
     <g id="line2d_32">
      <g>
       <use xlink:href="#m79ca179e5b" x="141.139008" y="174.528" style="fill: #ffffff; stroke: #ffffff; stroke-width: 0.8"/>
      </g>
     </g>
     <g id="text_11">
      <text style="fill: #ffffff; font: 10px 'sans-serif'; text-anchor: end" x="134.139008" y="178.327219" transform="rotate(-0, 134.139008, 178.327219)">0</text>
     </g>
    </g>
    <g id="ytick_5">
     <g id="line2d_33">
      <g>
       <use xlink:href="#m79ca179e5b" x="141.139008" y="139.968" style="fill: #ffffff; stroke: #ffffff; stroke-width: 0.8"/>
      </g>
     </g>
     <g id="text_12">
      <text style="fill: #ffffff; font: 10px 'sans-serif'; text-anchor: end" x="134.139008" y="143.767219" transform="rotate(-0, 134.139008, 143.767219)">2</text>
     </g>
    </g>
    <g id="ytick_6">
     <g id="line2d_34">
      <g>
       <use xlink:href="#m79ca179e5b" x="141.139008" y="105.408" style="fill: #ffffff; stroke: #ffffff; stroke-width: 0.8"/>
      </g>
     </g>
     <g id="text_13">
      <text style="fill: #ffffff; font: 10px 'sans-serif'; text-anchor: end" x="134.139008" y="109.207219" transform="rotate(-0, 134.139008, 109.207219)">4</text>
     </g>
    </g>
    <g id="ytick_7">
     <g id="line2d_35">
      <g>
       <use xlink:href="#m79ca179e5b" x="141.139008" y="70.848" style="fill: #ffffff; stroke: #ffffff; stroke-width: 0.8"/>
      </g>
     </g>
     <g id="text_14">
      <text style="fill: #ffffff; font: 10px 'sans-serif'; text-anchor: end" x="134.139008" y="74.647219" transform="rotate(-0, 134.139008, 74.647219)">6</text>
     </g>
    </g>
   </g>
   <g id="patch_12">
    <path d="M 141.139008 307.584 
L 141.139008 41.472 
" style="fill: none; stroke: #ffffff; stroke-width: 0.8; stroke-linejoin: miter; stroke-linecap: square"/>
   </g>
   <g id="patch_13">
    <path d="M 331.180992 307.584 
L 331.180992 41.472 
" style="fill: none; stroke: #ffffff; stroke-width: 0.8; stroke-linejoin: miter; stroke-linecap: square"/>
   </g>
   <g id="patch_14">
    <path d="M 141.139008 307.584 
L 331.180992 307.584 
" style="fill: none; stroke: #ffffff; stroke-width: 0.8; stroke-linejoin: miter; stroke-linecap: square"/>
   </g>
   <g id="patch_15">
    <path d="M 141.139008 41.472 
L 331.180992 41.472 
" style="fill: none; stroke: #ffffff; stroke-width: 0.8; stroke-linejoin: miter; stroke-linecap: square"/>
   </g>
   <g id="text_15">
    <text style="fill: #ffffff; font: 12px 'sans-serif'; text-anchor: middle" x="236.16" y="35.472" transform="rotate(-0, 236.16, 35.472)">APA102-STRIP-ELEMENT-144</text>
   </g>
  </g>
 </g>
 <defs>
  <clipPath id="p9b7c2c0805">
   <rect x="141.139008" y="41.472" width="190.041984" height="266.112"/>
  </clipPath>
 </defs>
</svg>
