<?xml version="1.0" encoding="utf-8" standalone="no"?>
<!DOCTYPE svg PUBLIC "-//W3C//DTD SVG 1.1//EN"
  "http://www.w3.org/Graphics/SVG/1.1/DTD/svg11.dtd">
<svg xmlns:xlink="http://www.w3.org/1999/xlink" width="460.8pt" height="345.6pt" viewBox="0 0 460.8 345.6" xmlns="http://www.w3.org/2000/svg" version="1.1">
 <metadata>
  <rdf:RDF xmlns:dc="http://purl.org/dc/elements/1.1/" xmlns:cc="http://creativecommons.org/ns#" xmlns:rdf="http://www.w3.org/1999/02/22-rdf-syntax-ns#">
   <cc:Work>
    <dc:type rdf:resource="http://purl.org/dc/dcmitype/StillImage"/>
    <dc:date>2021-12-22T04:54:08.500716</dc:date>
    <dc:format>image/svg+xml</dc:format>
    <dc:creator>
     <cc:Agent>
      <dc:title>Matplotlib v3.5.1, https://matplotlib.org/</dc:title>
     </cc:Agent>
    </dc:creator>
   </cc:Work>
  </rdf:RDF>
 </metadata>
 <defs>
  <style type="text/css">*{stroke-linejoin: round; stroke-linecap: butt}</style>
 </defs>
 <g id="figure_1">
  <g id="patch_1">
   <path d="M 0 345.6 
L 460.8 345.6 
L 460.8 0 
L 0 0 
z
" style="fill: #2b2b2b"/>
  </g>
  <g id="axes_1">
   <g id="patch_2">
    <path d="M 57.6 214.950047 
L 414.72 214.950047 
L 414.72 134.105953 
L 57.6 134.105953 
z
" style="fill: #2b2b2b"/>
   </g>
   <g id="text_1">
    <text style="fill: #ffffff; font: 1.27px 'sans-serif'; text-anchor: start" x="197.303708" y="229.297477" transform="rotate(-0, 197.303708, 229.297477)">&gt;VALUE</text>
   </g>
   <g id="text_2">
    <text style="fill: #ffffff; font: 1.27px 'sans-serif'; text-anchor: start" x="197.303708" y="131.901114" transform="rotate(-0, 197.303708, 131.901114)">&gt;NAME</text>
   </g>
   <g id="line2d_1">
    <path d="M 398.487273 211.275316 
L 73.832727 211.275316 
" clip-path="url(#p457ca83b3c)" style="fill: none; stroke: #808080; stroke-width: 1.623273; stroke-linecap: square"/>
   </g>
   <g id="line2d_2">
    <path d="M 73.832727 211.275316 
L 73.832727 137.780684 
" clip-path="url(#p457ca83b3c)" style="fill: none; stroke: #808080; stroke-width: 1.623273; stroke-linecap: square"/>
   </g>
   <g id="line2d_3">
    <path d="M 73.832727 137.780684 
L 86.614402 137.780684 
" clip-path="url(#p457ca83b3c)" style="fill: none; stroke: #808080; stroke-width: 1.623273; stroke-linecap: square"/>
   </g>
   <g id="line2d_4">
    <path d="M 385.705598 137.780684 
L 398.487273 137.780684 
" clip-path="url(#p457ca83b3c)" style="fill: none; stroke: #808080; stroke-width: 1.623273; stroke-linecap: square"/>
   </g>
   <g id="line2d_5">
    <path d="M 398.487273 137.780684 
L 398.487273 211.275316 
" clip-path="url(#p457ca83b3c)" style="fill: none; stroke: #808080; stroke-width: 1.623273; stroke-linecap: square"/>
   </g>
   <g id="line2d_6">
    <path d="M 86.614402 137.780684 
L 385.705598 137.780684 
" clip-path="url(#p457ca83b3c)" style="fill: none; stroke: #808080; stroke-width: 1.623273; stroke-linecap: square"/>
   </g>
   <g id="line2d_7">
    <path d="M 385.705598 137.780684 
L 385.705598 145.449689 
" clip-path="url(#p457ca83b3c)" style="fill: none; stroke: #808080; stroke-width: 1.623273; stroke-linecap: square"/>
   </g>
   <g id="line2d_8">
    <path d="M 385.705598 145.449689 
L 86.614402 145.449689 
" clip-path="url(#p457ca83b3c)" style="fill: none; stroke: #808080; stroke-width: 1.623273; stroke-linecap: square"/>
   </g>
   <g id="line2d_9">
    <path d="M 86.614402 145.449689 
L 86.614402 137.780684 
" clip-path="url(#p457ca83b3c)" style="fill: none; stroke: #808080; stroke-width: 1.623273; stroke-linecap: square"/>
   </g>
   <g id="text_3">
    <text style="fill: #ffffff; font: 1.27px 'sans-serif'; text-anchor: start" x="81.757366" y="199.771808" transform="rotate(-0, 81.757366, 199.771808)">1</text>
   </g>
   <g id="patch_3">
    <path d="M 92.366156 180.599296 
C 95.755896 180.599296 99.007257 179.252538 101.404165 176.85563 
C 103.801073 174.458722 105.147831 171.20736 105.147831 167.817621 
C 105.147831 164.427881 103.801073 161.17652 101.404165 158.779612 
C 99.007257 156.382704 95.755896 155.035946 92.366156 155.035946 
C 88.976416 155.035946 85.725055 156.382704 83.328147 158.779612 
C 80.931239 161.17652 79.584481 164.427881 79.584481 167.817621 
C 79.584481 171.20736 80.931239 174.458722 83.328147 176.85563 
C 85.725055 179.252538 88.976416 180.599296 92.366156 180.599296 
z
" clip-path="url(#p457ca83b3c)" style="fill: #0dab76"/>
   </g>
   <g id="patch_4">
    <path d="M 92.366156 174.208458 
C 94.061026 174.208458 95.686707 173.535079 96.885161 172.336625 
C 98.083615 171.138171 98.756994 169.512491 98.756994 167.817621 
C 98.756994 166.122751 98.083615 164.49707 96.885161 163.298616 
C 95.686707 162.100162 94.061026 161.426783 92.366156 161.426783 
C 90.671286 161.426783 89.045606 162.100162 87.847152 163.298616 
C 86.648697 164.49707 85.975319 166.122751 85.975319 167.817621 
C 85.975319 169.512491 86.648697 171.138171 87.847152 172.336625 
C 89.045606 173.535079 90.671286 174.208458 92.366156 174.208458 
z
" clip-path="url(#p457ca83b3c)" style="fill: #a0a0a0"/>
   </g>
   <g id="patch_5">
    <path d="M 124.320344 180.599296 
C 127.710083 180.599296 130.961445 179.252538 133.358353 176.85563 
C 135.755261 174.458722 137.102019 171.20736 137.102019 167.817621 
C 137.102019 164.427881 135.755261 161.17652 133.358353 158.779612 
C 130.961445 156.382704 127.710083 155.035946 124.320344 155.035946 
C 120.930604 155.035946 117.679243 156.382704 115.282335 158.779612 
C 112.885426 161.17652 111.538669 164.427881 111.538669 167.817621 
C 111.538669 171.20736 112.885426 174.458722 115.282335 176.85563 
C 117.679243 179.252538 120.930604 180.599296 124.320344 180.599296 
z
" clip-path="url(#p457ca83b3c)" style="fill: #0dab76"/>
   </g>
   <g id="patch_6">
    <path d="M 124.320344 174.208458 
C 126.015214 174.208458 127.640894 173.535079 128.839348 172.336625 
C 130.037802 171.138171 130.711181 169.512491 130.711181 167.817621 
C 130.711181 166.122751 130.037802 164.49707 128.839348 163.298616 
C 127.640894 162.100162 126.015214 161.426783 124.320344 161.426783 
C 122.625474 161.426783 120.999793 162.100162 119.801339 163.298616 
C 118.602885 164.49707 117.929506 166.122751 117.929506 167.817621 
C 117.929506 169.512491 118.602885 171.138171 119.801339 172.336625 
C 120.999793 173.535079 122.625474 174.208458 124.320344 174.208458 
z
" clip-path="url(#p457ca83b3c)" style="fill: #a0a0a0"/>
   </g>
   <g id="patch_7">
    <path d="M 156.274531 180.599296 
C 159.664271 180.599296 162.915632 179.252538 165.31254 176.85563 
C 167.709448 174.458722 169.056206 171.20736 169.056206 167.817621 
C 169.056206 164.427881 167.709448 161.17652 165.31254 158.779612 
C 162.915632 156.382704 159.664271 155.035946 156.274531 155.035946 
C 152.884791 155.035946 149.63343 156.382704 147.236522 158.779612 
C 144.839614 161.17652 143.492856 164.427881 143.492856 167.817621 
C 143.492856 171.20736 144.839614 174.458722 147.236522 176.85563 
C 149.63343 179.252538 152.884791 180.599296 156.274531 180.599296 
z
" clip-path="url(#p457ca83b3c)" style="fill: #0dab76"/>
   </g>
   <g id="patch_8">
    <path d="M 156.274531 174.208458 
C 157.969401 174.208458 159.595082 173.535079 160.793536 172.336625 
C 161.99199 171.138171 162.665369 169.512491 162.665369 167.817621 
C 162.665369 166.122751 161.99199 164.49707 160.793536 163.298616 
C 159.595082 162.100162 157.969401 161.426783 156.274531 161.426783 
C 154.579661 161.426783 152.953981 162.100162 151.755527 163.298616 
C 150.557073 164.49707 149.883694 166.122751 149.883694 167.817621 
C 149.883694 169.512491 150.557073 171.138171 151.755527 172.336625 
C 152.953981 173.535079 154.579661 174.208458 156.274531 174.208458 
z
" clip-path="url(#p457ca83b3c)" style="fill: #a0a0a0"/>
   </g>
   <g id="patch_9">
    <path d="M 188.228719 180.599296 
C 191.618459 180.599296 194.86982 179.252538 197.266728 176.85563 
C 199.663636 174.458722 201.010394 171.20736 201.010394 167.817621 
C 201.010394 164.427881 199.663636 161.17652 197.266728 158.779612 
C 194.86982 156.382704 191.618459 155.035946 188.228719 155.035946 
C 184.838979 155.035946 181.587618 156.382704 179.19071 158.779612 
C 176.793802 161.17652 175.447044 164.427881 175.447044 167.817621 
C 175.447044 171.20736 176.793802 174.458722 179.19071 176.85563 
C 181.587618 179.252538 184.838979 180.599296 188.228719 180.599296 
z
" clip-path="url(#p457ca83b3c)" style="fill: #0dab76"/>
   </g>
   <g id="patch_10">
    <path d="M 188.228719 174.208458 
C 189.923589 174.208458 191.549269 173.535079 192.747723 172.336625 
C 193.946177 171.138171 194.619556 169.512491 194.619556 167.817621 
C 194.619556 166.122751 193.946177 164.49707 192.747723 163.298616 
C 191.549269 162.100162 189.923589 161.426783 188.228719 161.426783 
C 186.533849 161.426783 184.908168 162.100162 183.709714 163.298616 
C 182.51126 164.49707 181.837881 166.122751 181.837881 167.817621 
C 181.837881 169.512491 182.51126 171.138171 183.709714 172.336625 
C 184.908168 173.535079 186.533849 174.208458 188.228719 174.208458 
z
" clip-path="url(#p457ca83b3c)" style="fill: #a0a0a0"/>
   </g>
   <g id="patch_11">
    <path d="M 220.182906 180.599296 
C 223.572646 180.599296 226.824007 179.252538 229.220915 176.85563 
C 231.617823 174.458722 232.964581 171.20736 232.964581 167.817621 
C 232.964581 164.427881 231.617823 161.17652 229.220915 158.779612 
C 226.824007 156.382704 223.572646 155.035946 220.182906 155.035946 
C 216.793166 155.035946 213.541805 156.382704 211.144897 158.779612 
C 208.747989 161.17652 207.401231 164.427881 207.401231 167.817621 
C 207.401231 171.20736 208.747989 174.458722 211.144897 176.85563 
C 213.541805 179.252538 216.793166 180.599296 220.182906 180.599296 
z
" clip-path="url(#p457ca83b3c)" style="fill: #0dab76"/>
   </g>
   <g id="patch_12">
    <path d="M 220.182906 174.208458 
C 221.877776 174.208458 223.503457 173.535079 224.701911 172.336625 
C 225.900365 171.138171 226.573744 169.512491 226.573744 167.817621 
C 226.573744 166.122751 225.900365 164.49707 224.701911 163.298616 
C 223.503457 162.100162 221.877776 161.426783 220.182906 161.426783 
C 218.488036 161.426783 216.862356 162.100162 215.663902 163.298616 
C 214.465448 164.49707 213.792069 166.122751 213.792069 167.817621 
C 213.792069 169.512491 214.465448 171.138171 215.663902 172.336625 
C 216.862356 173.535079 218.488036 174.208458 220.182906 174.208458 
z
" clip-path="url(#p457ca83b3c)" style="fill: #a0a0a0"/>
   </g>
   <g id="patch_13">
    <path d="M 252.137094 180.599296 
C 255.526834 180.599296 258.778195 179.252538 261.175103 176.85563 
C 263.572011 174.458722 264.918769 171.20736 264.918769 167.817621 
C 264.918769 164.427881 263.572011 161.17652 261.175103 158.779612 
C 258.778195 156.382704 255.526834 155.035946 252.137094 155.035946 
C 248.747354 155.035946 245.495993 156.382704 243.099085 158.779612 
C 240.702177 161.17652 239.355419 164.427881 239.355419 167.817621 
C 239.355419 171.20736 240.702177 174.458722 243.099085 176.85563 
C 245.495993 179.252538 248.747354 180.599296 252.137094 180.599296 
z
" clip-path="url(#p457ca83b3c)" style="fill: #0dab76"/>
   </g>
   <g id="patch_14">
    <path d="M 252.137094 174.208458 
C 253.831964 174.208458 255.457644 173.535079 256.656098 172.336625 
C 257.854552 171.138171 258.527931 169.512491 258.527931 167.817621 
C 258.527931 166.122751 257.854552 164.49707 256.656098 163.298616 
C 255.457644 162.100162 253.831964 161.426783 252.137094 161.426783 
C 250.442224 161.426783 248.816543 162.100162 247.618089 163.298616 
C 246.419635 164.49707 245.746256 166.122751 245.746256 167.817621 
C 245.746256 169.512491 246.419635 171.138171 247.618089 172.336625 
C 248.816543 173.535079 250.442224 174.208458 252.137094 174.208458 
z
" clip-path="url(#p457ca83b3c)" style="fill: #a0a0a0"/>
   </g>
   <g id="patch_15">
    <path d="M 284.091281 180.599296 
C 287.481021 180.599296 290.732382 179.252538 293.12929 176.85563 
C 295.526198 174.458722 296.872956 171.20736 296.872956 167.817621 
C 296.872956 164.427881 295.526198 161.17652 293.12929 158.779612 
C 290.732382 156.382704 287.481021 155.035946 284.091281 155.035946 
C 280.701541 155.035946 277.45018 156.382704 275.053272 158.779612 
C 272.656364 161.17652 271.309606 164.427881 271.309606 167.817621 
C 271.309606 171.20736 272.656364 174.458722 275.053272 176.85563 
C 277.45018 179.252538 280.701541 180.599296 284.091281 180.599296 
z
" clip-path="url(#p457ca83b3c)" style="fill: #0dab76"/>
   </g>
   <g id="patch_16">
    <path d="M 284.091281 174.208458 
C 285.786151 174.208458 287.411832 173.535079 288.610286 172.336625 
C 289.80874 171.138171 290.482119 169.512491 290.482119 167.817621 
C 290.482119 166.122751 289.80874 164.49707 288.610286 163.298616 
C 287.411832 162.100162 285.786151 161.426783 284.091281 161.426783 
C 282.396411 161.426783 280.770731 162.100162 279.572277 163.298616 
C 278.373823 164.49707 277.700444 166.122751 277.700444 167.817621 
C 277.700444 169.512491 278.373823 171.138171 279.572277 172.336625 
C 280.770731 173.535079 282.396411 174.208458 284.091281 174.208458 
z
" clip-path="url(#p457ca83b3c)" style="fill: #a0a0a0"/>
   </g>
   <g id="patch_17">
    <path d="M 316.045469 180.599296 
C 319.435209 180.599296 322.68657 179.252538 325.083478 176.85563 
C 327.480386 174.458722 328.827144 171.20736 328.827144 167.817621 
C 328.827144 164.427881 327.480386 161.17652 325.083478 158.779612 
C 322.68657 156.382704 319.435209 155.035946 316.045469 155.035946 
C 312.655729 155.035946 309.404368 156.382704 307.00746 158.779612 
C 304.610552 161.17652 303.263794 164.427881 303.263794 167.817621 
C 303.263794 171.20736 304.610552 174.458722 307.00746 176.85563 
C 309.404368 179.252538 312.655729 180.599296 316.045469 180.599296 
z
" clip-path="url(#p457ca83b3c)" style="fill: #0dab76"/>
   </g>
   <g id="patch_18">
    <path d="M 316.045469 174.208458 
C 317.740339 174.208458 319.366019 173.535079 320.564473 172.336625 
C 321.762927 171.138171 322.436306 169.512491 322.436306 167.817621 
C 322.436306 166.122751 321.762927 164.49707 320.564473 163.298616 
C 319.366019 162.100162 317.740339 161.426783 316.045469 161.426783 
C 314.350599 161.426783 312.724918 162.100162 311.526464 163.298616 
C 310.32801 164.49707 309.654631 166.122751 309.654631 167.817621 
C 309.654631 169.512491 310.32801 171.138171 311.526464 172.336625 
C 312.724918 173.535079 314.350599 174.208458 316.045469 174.208458 
z
" clip-path="url(#p457ca83b3c)" style="fill: #a0a0a0"/>
   </g>
   <g id="patch_19">
    <path d="M 347.999656 180.599296 
C 351.389396 180.599296 354.640757 179.252538 357.037665 176.85563 
C 359.434574 174.458722 360.781331 171.20736 360.781331 167.817621 
C 360.781331 164.427881 359.434574 161.17652 357.037665 158.779612 
C 354.640757 156.382704 351.389396 155.035946 347.999656 155.035946 
C 344.609917 155.035946 341.358555 156.382704 338.961647 158.779612 
C 336.564739 161.17652 335.217981 164.427881 335.217981 167.817621 
C 335.217981 171.20736 336.564739 174.458722 338.961647 176.85563 
C 341.358555 179.252538 344.609917 180.599296 347.999656 180.599296 
z
" clip-path="url(#p457ca83b3c)" style="fill: #0dab76"/>
   </g>
   <g id="patch_20">
    <path d="M 347.999656 174.208458 
C 349.694526 174.208458 351.320207 173.535079 352.518661 172.336625 
C 353.717115 171.138171 354.390494 169.512491 354.390494 167.817621 
C 354.390494 166.122751 353.717115 164.49707 352.518661 163.298616 
C 351.320207 162.100162 349.694526 161.426783 347.999656 161.426783 
C 346.304786 161.426783 344.679106 162.100162 343.480652 163.298616 
C 342.282198 164.49707 341.608819 166.122751 341.608819 167.817621 
C 341.608819 169.512491 342.282198 171.138171 343.480652 172.336625 
C 344.679106 173.535079 346.304786 174.208458 347.999656 174.208458 
z
" clip-path="url(#p457ca83b3c)" style="fill: #a0a0a0"/>
   </g>
   <g id="patch_21">
    <path d="M 379.953844 180.599296 
C 383.343584 180.599296 386.594945 179.252538 388.991853 176.85563 
C 391.388761 174.458722 392.735519 171.20736 392.735519 167.817621 
C 392.735519 164.427881 391.388761 161.17652 388.991853 158.779612 
C 386.594945 156.382704 383.343584 155.035946 379.953844 155.035946 
C 376.564104 155.035946 373.312743 156.382704 370.915835 158.779612 
C 368.518927 161.17652 367.172169 164.427881 367.172169 167.817621 
C 367.172169 171.20736 368.518927 174.458722 370.915835 176.85563 
C 373.312743 179.252538 376.564104 180.599296 379.953844 180.599296 
z
" clip-path="url(#p457ca83b3c)" style="fill: #0dab76"/>
   </g>
   <g id="patch_22">
    <path d="M 379.953844 174.208458 
C 381.648714 174.208458 383.274394 173.535079 384.472848 172.336625 
C 385.671303 171.138171 386.344681 169.512491 386.344681 167.817621 
C 386.344681 166.122751 385.671303 164.49707 384.472848 163.298616 
C 383.274394 162.100162 381.648714 161.426783 379.953844 161.426783 
C 378.258974 161.426783 376.633293 162.100162 375.434839 163.298616 
C 374.236385 164.49707 373.563006 166.122751 373.563006 167.817621 
C 373.563006 169.512491 374.236385 171.138171 375.434839 172.336625 
C 376.633293 173.535079 378.258974 174.208458 379.953844 174.208458 
z
" clip-path="url(#p457ca83b3c)" style="fill: #a0a0a0"/>
   </g>
   <g id="matplotlib.axis_1">
    <g id="xtick_1">
     <g id="line2d_10">
      <defs>
       <path id="m9e6a3cd878" d="M 0 0 
L 0 3.5 
" style="stroke: #ffffff; stroke-width: 0.8"/>
      </defs>
      <g>
       <use xlink:href="#m9e6a3cd878" x="108.34325" y="214.950047" style="fill: #ffffff; stroke: #ffffff; stroke-width: 0.8"/>
      </g>
     </g>
     <g id="text_4">
      <text style="fill: #ffffff; font: 10px 'sans-serif'; text-anchor: middle" x="108.34325" y="229.548485" transform="rotate(-0, 108.34325, 229.548485)">−10</text>
     </g>
    </g>
    <g id="xtick_2">
     <g id="line2d_11">
      <g>
       <use xlink:href="#m9e6a3cd878" x="172.251625" y="214.950047" style="fill: #ffffff; stroke: #ffffff; stroke-width: 0.8"/>
      </g>
     </g>
     <g id="text_5">
      <text style="fill: #ffffff; font: 10px 'sans-serif'; text-anchor: middle" x="172.251625" y="229.548485" transform="rotate(-0, 172.251625, 229.548485)">−5</text>
     </g>
    </g>
    <g id="xtick_3">
     <g id="line2d_12">
      <g>
       <use xlink:href="#m9e6a3cd878" x="236.16" y="214.950047" style="fill: #ffffff; stroke: #ffffff; stroke-width: 0.8"/>
      </g>
     </g>
     <g id="text_6">
      <text style="fill: #ffffff; font: 10px 'sans-serif'; text-anchor: middle" x="236.16" y="229.548485" transform="rotate(-0, 236.16, 229.548485)">0</text>
     </g>
    </g>
    <g id="xtick_4">
     <g id="line2d_13">
      <g>
       <use xlink:href="#m9e6a3cd878" x="300.068375" y="214.950047" style="fill: #ffffff; stroke: #ffffff; stroke-width: 0.8"/>
      </g>
     </g>
     <g id="text_7">
      <text style="fill: #ffffff; font: 10px 'sans-serif'; text-anchor: middle" x="300.068375" y="229.548485" transform="rotate(-0, 300.068375, 229.548485)">5</text>
     </g>
    </g>
    <g id="xtick_5">
     <g id="line2d_14">
      <g>
       <use xlink:href="#m9e6a3cd878" x="363.97675" y="214.950047" style="fill: #ffffff; stroke: #ffffff; stroke-width: 0.8"/>
      </g>
     </g>
     <g id="text_8">
      <text style="fill: #ffffff; font: 10px 'sans-serif'; text-anchor: middle" x="363.97675" y="229.548485" transform="rotate(-0, 363.97675, 229.548485)">10</text>
     </g>
    </g>
   </g>
   <g id="matplotlib.axis_2">
    <g id="ytick_1">
     <g id="line2d_15">
      <defs>
       <path id="mb81aeefb17" d="M 0 0 
L -3.5 0 
" style="stroke: #ffffff; stroke-width: 0.8"/>
      </defs>
      <g>
       <use xlink:href="#mb81aeefb17" x="57.6" y="193.380971" style="fill: #ffffff; stroke: #ffffff; stroke-width: 0.8"/>
      </g>
     </g>
     <g id="text_9">
      <text style="fill: #ffffff; font: 10px 'sans-serif'; text-anchor: end" x="50.6" y="197.180189" transform="rotate(-0, 50.6, 197.180189)">−2</text>
     </g>
    </g>
    <g id="ytick_2">
     <g id="line2d_16">
      <g>
       <use xlink:href="#mb81aeefb17" x="57.6" y="167.817621" style="fill: #ffffff; stroke: #ffffff; stroke-width: 0.8"/>
      </g>
     </g>
     <g id="text_10">
      <text style="fill: #ffffff; font: 10px 'sans-serif'; text-anchor: end" x="50.6" y="171.616839" transform="rotate(-0, 50.6, 171.616839)">0</text>
     </g>
    </g>
    <g id="ytick_3">
     <g id="line2d_17">
      <g>
       <use xlink:href="#mb81aeefb17" x="57.6" y="142.254271" style="fill: #ffffff; stroke: #ffffff; stroke-width: 0.8"/>
      </g>
     </g>
     <g id="text_11">
      <text style="fill: #ffffff; font: 10px 'sans-serif'; text-anchor: end" x="50.6" y="146.053489" transform="rotate(-0, 50.6, 146.053489)">2</text>
     </g>
    </g>
   </g>
   <g id="patch_23">
    <path d="M 57.6 214.950047 
L 57.6 134.105953 
" style="fill: none; stroke: #ffffff; stroke-width: 0.8; stroke-linejoin: miter; stroke-linecap: square"/>
   </g>
   <g id="patch_24">
    <path d="M 414.72 214.950047 
L 414.72 134.105953 
" style="fill: none; stroke: #ffffff; stroke-width: 0.8; stroke-linejoin: miter; stroke-linecap: square"/>
   </g>
   <g id="patch_25">
    <path d="M 57.6 214.950047 
L 414.72 214.950047 
" style="fill: none; stroke: #ffffff; stroke-width: 0.8; stroke-linejoin: miter; stroke-linecap: square"/>
   </g>
   <g id="patch_26">
    <path d="M 57.6 134.105953 
L 414.72 134.105953 
" style="fill: none; stroke: #ffffff; stroke-width: 0.8; stroke-linejoin: miter; stroke-linecap: square"/>
   </g>
   <g id="text_12">
    <text style="fill: #ffffff; font: 12px 'sans-serif'; text-anchor: middle" x="236.16" y="128.105953" transform="rotate(-0, 236.16, 128.105953)">B10B-XH</text>
   </g>
  </g>
 </g>
 <defs>
  <clipPath id="p457ca83b3c">
   <rect x="57.6" y="134.105953" width="357.12" height="80.844094"/>
  </clipPath>
 </defs>
</svg>
