<?xml version="1.0" encoding="utf-8" standalone="no"?>
<!DOCTYPE svg PUBLIC "-//W3C//DTD SVG 1.1//EN"
  "http://www.w3.org/Graphics/SVG/1.1/DTD/svg11.dtd">
<svg xmlns:xlink="http://www.w3.org/1999/xlink" width="460.8pt" height="345.6pt" viewBox="0 0 460.8 345.6" xmlns="http://www.w3.org/2000/svg" version="1.1">
 <metadata>
  <rdf:RDF xmlns:dc="http://purl.org/dc/elements/1.1/" xmlns:cc="http://creativecommons.org/ns#" xmlns:rdf="http://www.w3.org/1999/02/22-rdf-syntax-ns#">
   <cc:Work>
    <dc:type rdf:resource="http://purl.org/dc/dcmitype/StillImage"/>
    <dc:date>2023-02-18T16:06:07.114605</dc:date>
    <dc:format>image/svg+xml</dc:format>
    <dc:creator>
     <cc:Agent>
      <dc:title>Matplotlib v3.5.1, https://matplotlib.org/</dc:title>
     </cc:Agent>
    </dc:creator>
   </cc:Work>
  </rdf:RDF>
 </metadata>
 <defs>
  <style type="text/css">*{stroke-linejoin: round; stroke-linecap: butt}</style>
 </defs>
 <g id="figure_1">
  <g id="patch_1">
   <path d="M 0 345.6 
L 460.8 345.6 
L 460.8 0 
L 0 0 
z
" style="fill: #2b2b2b"/>
  </g>
  <g id="axes_1">
   <g id="patch_2">
    <path d="M 57.6 236.196287 
L 414.72 236.196287 
L 414.72 112.859713 
L 57.6 112.859713 
z
" style="fill: #2b2b2b"/>
   </g>
   <g id="patch_3">
    <path d="M 197.303708 230.590079 
C 197.337605 230.590079 197.370119 230.576611 197.394088 230.552642 
C 197.418057 230.528673 197.431525 230.49616 197.431525 230.462262 
C 197.431525 230.428365 197.418057 230.395851 197.394088 230.371882 
C 197.370119 230.347913 197.337605 230.334446 197.303708 230.334446 
C 197.269811 230.334446 197.237297 230.347913 197.213328 230.371882 
C 197.189359 230.395851 197.175891 230.428365 197.175891 230.462262 
C 197.175891 230.49616 197.189359 230.528673 197.213328 230.552642 
C 197.237297 230.576611 197.269811 230.590079 197.303708 230.590079 
L 197.303708 230.590079 
z
" clip-path="url(#pbf69212cf3)" style="fill: none; stroke: #808080; stroke-width: 1.278168; stroke-linejoin: miter"/>
   </g>
   <g id="line2d_1">
    <path d="M 197.15385 218.820718 
L 205.569346 222.346124 
L 205.569346 222.346124 
L 197.153456 225.871722 
L 197.153456 225.871722 
" clip-path="url(#pbf69212cf3)" style="fill: none; stroke: #808080; stroke-width: 0.649309; stroke-linecap: round"/>
   </g>
   <g id="line2d_2">
    <path d="M 206.949879 216.090385 
L 211.158342 228.602039 
L 211.158342 228.602039 
L 215.252587 216.090063 
L 215.252587 216.090063 
" clip-path="url(#pbf69212cf3)" style="fill: none; stroke: #808080; stroke-width: 0.649309; stroke-linecap: round"/>
   </g>
   <g id="line2d_3">
    <path d="M 216.68939 228.373939 
L 220.897854 215.862285 
L 220.897854 215.862285 
L 224.992099 228.374261 
L 224.992099 228.374261 
" clip-path="url(#pbf69212cf3)" style="fill: none; stroke: #808080; stroke-width: 0.649309; stroke-linecap: round"/>
   </g>
   <g id="line2d_4">
    <path d="M 223.969444 225.30356 
L 217.713834 225.30356 
" clip-path="url(#pbf69212cf3)" style="fill: none; stroke: #808080; stroke-width: 0.649309; stroke-linecap: round"/>
   </g>
   <g id="line2d_5">
    <path d="M 227.793856 216.090451 
L 227.793856 228.601672 
L 233.367037 228.601672 
" clip-path="url(#pbf69212cf3)" style="fill: none; stroke: #808080; stroke-width: 0.649309; stroke-linecap: round"/>
   </g>
   <g id="line2d_6">
    <path d="M 236.851303 216.09098 
L 236.851303 225.076311 
L 236.851303 225.076311 
L 237.07878 226.213695 
L 237.07878 226.213695 
L 237.533733 227.123602 
L 238.329902 227.919771 
L 239.239809 228.488463 
L 240.377193 228.602201 
L 241.400838 228.488463 
L 242.424483 227.919771 
L 243.220652 227.123602 
L 243.675605 226.213695 
L 243.789344 225.076311 
L 243.789344 216.09098 
" clip-path="url(#pbf69212cf3)" style="fill: none; stroke: #808080; stroke-width: 0.649309; stroke-linecap: round"/>
   </g>
   <g id="line2d_7">
    <path d="M 252.846549 228.601732 
L 247.273369 228.601732 
L 247.273369 216.090511 
L 252.846549 216.090511 
" clip-path="url(#pbf69212cf3)" style="fill: none; stroke: #808080; stroke-width: 0.649309; stroke-linecap: round"/>
   </g>
   <g id="line2d_8">
    <path d="M 247.273594 221.663987 
L 251.481914 221.663987 
" clip-path="url(#pbf69212cf3)" style="fill: none; stroke: #808080; stroke-width: 0.649309; stroke-linecap: round"/>
   </g>
   <g id="patch_4">
    <path d="M 197.303708 133.193715 
C 197.337605 133.193715 197.370119 133.180248 197.394088 133.156279 
C 197.418057 133.13231 197.431525 133.099796 197.431525 133.065899 
C 197.431525 133.032001 197.418057 132.999488 197.394088 132.975519 
C 197.370119 132.951549 197.337605 132.938082 197.303708 132.938082 
C 197.269811 132.938082 197.237297 132.951549 197.213328 132.975519 
C 197.189359 132.999488 197.175891 133.032001 197.175891 133.065899 
C 197.175891 133.099796 197.189359 133.13231 197.213328 133.156279 
C 197.237297 133.180248 197.269811 133.193715 197.303708 133.193715 
L 197.303708 133.193715 
z
" clip-path="url(#pbf69212cf3)" style="fill: none; stroke: #808080; stroke-width: 1.278168; stroke-linejoin: miter"/>
   </g>
   <g id="line2d_9">
    <path d="M 197.15385 121.424354 
L 205.569346 124.94976 
L 205.569346 124.94976 
L 197.153456 128.475358 
L 197.153456 128.475358 
" clip-path="url(#pbf69212cf3)" style="fill: none; stroke: #808080; stroke-width: 0.649309; stroke-linecap: round"/>
   </g>
   <g id="line2d_10">
    <path d="M 207.633117 131.204929 
L 207.633117 118.693708 
L 214.571158 131.204929 
L 214.571158 118.693708 
" clip-path="url(#pbf69212cf3)" style="fill: none; stroke: #808080; stroke-width: 0.649309; stroke-linecap: round"/>
   </g>
   <g id="line2d_11">
    <path d="M 216.68939 130.977576 
L 220.897854 118.465921 
L 220.897854 118.465921 
L 224.992099 130.977898 
L 224.992099 130.977898 
" clip-path="url(#pbf69212cf3)" style="fill: none; stroke: #808080; stroke-width: 0.649309; stroke-linecap: round"/>
   </g>
   <g id="line2d_12">
    <path d="M 223.969444 127.907196 
L 217.713834 127.907196 
" clip-path="url(#pbf69212cf3)" style="fill: none; stroke: #808080; stroke-width: 0.649309; stroke-linecap: round"/>
   </g>
   <g id="line2d_13">
    <path d="M 226.429848 131.205298 
L 226.429848 118.694077 
L 230.52443 125.632118 
L 230.52443 125.632118 
L 234.73275 118.694077 
L 234.73275 118.694077 
L 234.73275 131.205298 
" clip-path="url(#pbf69212cf3)" style="fill: none; stroke: #808080; stroke-width: 0.649309; stroke-linecap: round"/>
   </g>
   <g id="line2d_14">
    <path d="M 243.106913 131.205369 
L 237.533732 131.205369 
L 237.533732 118.694147 
L 243.106913 118.694147 
" clip-path="url(#pbf69212cf3)" style="fill: none; stroke: #808080; stroke-width: 0.649309; stroke-linecap: round"/>
   </g>
   <g id="line2d_15">
    <path d="M 237.533958 124.267623 
L 241.742278 124.267623 
" clip-path="url(#pbf69212cf3)" style="fill: none; stroke: #808080; stroke-width: 0.649309; stroke-linecap: round"/>
   </g>
   <g id="line2d_16">
    <path d="M 398.487273 212.440101 
L 73.832727 212.440101 
" clip-path="url(#pbf69212cf3)" style="fill: none; stroke: #808080; stroke-width: 1.623273; stroke-linecap: round"/>
   </g>
   <g id="line2d_17">
    <path d="M 73.832727 212.440101 
L 73.832727 138.945469 
" clip-path="url(#pbf69212cf3)" style="fill: none; stroke: #808080; stroke-width: 1.623273; stroke-linecap: round"/>
   </g>
   <g id="line2d_18">
    <path d="M 73.832727 138.945469 
L 86.614402 138.945469 
" clip-path="url(#pbf69212cf3)" style="fill: none; stroke: #808080; stroke-width: 1.623273; stroke-linecap: round"/>
   </g>
   <g id="line2d_19">
    <path d="M 385.705598 138.945469 
L 398.487273 138.945469 
" clip-path="url(#pbf69212cf3)" style="fill: none; stroke: #808080; stroke-width: 1.623273; stroke-linecap: round"/>
   </g>
   <g id="line2d_20">
    <path d="M 398.487273 138.945469 
L 398.487273 212.440101 
" clip-path="url(#pbf69212cf3)" style="fill: none; stroke: #808080; stroke-width: 1.623273; stroke-linecap: round"/>
   </g>
   <g id="line2d_21">
    <path d="M 86.614402 138.945469 
L 385.705598 138.945469 
" clip-path="url(#pbf69212cf3)" style="fill: none; stroke: #808080; stroke-width: 1.623273; stroke-linecap: round"/>
   </g>
   <g id="line2d_22">
    <path d="M 385.705598 138.945469 
L 385.705598 146.614474 
" clip-path="url(#pbf69212cf3)" style="fill: none; stroke: #808080; stroke-width: 1.623273; stroke-linecap: round"/>
   </g>
   <g id="line2d_23">
    <path d="M 385.705598 146.614474 
L 86.614402 146.614474 
" clip-path="url(#pbf69212cf3)" style="fill: none; stroke: #808080; stroke-width: 1.623273; stroke-linecap: round"/>
   </g>
   <g id="line2d_24">
    <path d="M 86.614402 146.614474 
L 86.614402 138.945469 
" clip-path="url(#pbf69212cf3)" style="fill: none; stroke: #808080; stroke-width: 1.623273; stroke-linecap: round"/>
   </g>
   <g id="patch_5">
    <path d="M 81.757366 201.06441 
C 81.791263 201.06441 81.823777 201.050942 81.847746 201.026973 
C 81.871715 201.003004 81.885183 200.97049 81.885183 200.936593 
C 81.885183 200.902696 81.871715 200.870182 81.847746 200.846213 
C 81.823777 200.822244 81.791263 200.808776 81.757366 200.808776 
C 81.723468 200.808776 81.690955 200.822244 81.666986 200.846213 
C 81.643017 200.870182 81.629549 200.902696 81.629549 200.936593 
C 81.629549 200.97049 81.643017 201.003004 81.666986 201.026973 
C 81.690955 201.050942 81.723468 201.06441 81.757366 201.06441 
L 81.757366 201.06441 
z
" clip-path="url(#pbf69212cf3)" style="fill: none; stroke: #808080; stroke-width: 1.278168; stroke-linejoin: miter"/>
   </g>
   <g id="line2d_25">
    <path d="M 82.289558 189.293911 
L 85.815032 186.564512 
L 85.815032 186.564512 
L 85.814974 199.075826 
L 85.814974 199.075826 
" clip-path="url(#pbf69212cf3)" style="fill: none; stroke: #808080; stroke-width: 0.649309; stroke-linecap: round"/>
   </g>
   <g id="line2d_26">
    <path d="M 82.289768 199.075565 
L 89.341547 199.075565 
" clip-path="url(#pbf69212cf3)" style="fill: none; stroke: #808080; stroke-width: 0.649309; stroke-linecap: round"/>
   </g>
   <g id="patch_6">
    <path d="M 92.366156 181.76408 
C 95.755896 181.76408 99.007257 180.417323 101.404165 178.020415 
C 103.801073 175.623507 105.147831 172.372145 105.147831 168.982405 
C 105.147831 165.592666 103.801073 162.341304 101.404165 159.944396 
C 99.007257 157.547488 95.755896 156.20073 92.366156 156.20073 
C 88.976416 156.20073 85.725055 157.547488 83.328147 159.944396 
C 80.931239 162.341304 79.584481 165.592666 79.584481 168.982405 
C 79.584481 172.372145 80.931239 175.623507 83.328147 178.020415 
C 85.725055 180.417323 88.976416 181.76408 92.366156 181.76408 
z
" clip-path="url(#pbf69212cf3)" style="fill: #0dab76"/>
   </g>
   <g id="patch_7">
    <path d="M 92.366156 175.373243 
C 94.061026 175.373243 95.686707 174.699864 96.885161 173.50141 
C 98.083615 172.302956 98.756994 170.677275 98.756994 168.982405 
C 98.756994 167.287536 98.083615 165.661855 96.885161 164.463401 
C 95.686707 163.264947 94.061026 162.591568 92.366156 162.591568 
C 90.671286 162.591568 89.045606 163.264947 87.847152 164.463401 
C 86.648697 165.661855 85.975319 167.287536 85.975319 168.982405 
C 85.975319 170.677275 86.648697 172.302956 87.847152 173.50141 
C 89.045606 174.699864 90.671286 175.373243 92.366156 175.373243 
z
" clip-path="url(#pbf69212cf3)" style="fill: #a0a0a0"/>
   </g>
   <g id="patch_8">
    <path d="M 124.320344 181.76408 
C 127.710083 181.76408 130.961445 180.417323 133.358353 178.020415 
C 135.755261 175.623507 137.102019 172.372145 137.102019 168.982405 
C 137.102019 165.592666 135.755261 162.341304 133.358353 159.944396 
C 130.961445 157.547488 127.710083 156.20073 124.320344 156.20073 
C 120.930604 156.20073 117.679243 157.547488 115.282335 159.944396 
C 112.885426 162.341304 111.538669 165.592666 111.538669 168.982405 
C 111.538669 172.372145 112.885426 175.623507 115.282335 178.020415 
C 117.679243 180.417323 120.930604 181.76408 124.320344 181.76408 
z
" clip-path="url(#pbf69212cf3)" style="fill: #0dab76"/>
   </g>
   <g id="patch_9">
    <path d="M 124.320344 175.373243 
C 126.015214 175.373243 127.640894 174.699864 128.839348 173.50141 
C 130.037802 172.302956 130.711181 170.677275 130.711181 168.982405 
C 130.711181 167.287536 130.037802 165.661855 128.839348 164.463401 
C 127.640894 163.264947 126.015214 162.591568 124.320344 162.591568 
C 122.625474 162.591568 120.999793 163.264947 119.801339 164.463401 
C 118.602885 165.661855 117.929506 167.287536 117.929506 168.982405 
C 117.929506 170.677275 118.602885 172.302956 119.801339 173.50141 
C 120.999793 174.699864 122.625474 175.373243 124.320344 175.373243 
z
" clip-path="url(#pbf69212cf3)" style="fill: #a0a0a0"/>
   </g>
   <g id="patch_10">
    <path d="M 156.274531 181.76408 
C 159.664271 181.76408 162.915632 180.417323 165.31254 178.020415 
C 167.709448 175.623507 169.056206 172.372145 169.056206 168.982405 
C 169.056206 165.592666 167.709448 162.341304 165.31254 159.944396 
C 162.915632 157.547488 159.664271 156.20073 156.274531 156.20073 
C 152.884791 156.20073 149.63343 157.547488 147.236522 159.944396 
C 144.839614 162.341304 143.492856 165.592666 143.492856 168.982405 
C 143.492856 172.372145 144.839614 175.623507 147.236522 178.020415 
C 149.63343 180.417323 152.884791 181.76408 156.274531 181.76408 
z
" clip-path="url(#pbf69212cf3)" style="fill: #0dab76"/>
   </g>
   <g id="patch_11">
    <path d="M 156.274531 175.373243 
C 157.969401 175.373243 159.595082 174.699864 160.793536 173.50141 
C 161.99199 172.302956 162.665369 170.677275 162.665369 168.982405 
C 162.665369 167.287536 161.99199 165.661855 160.793536 164.463401 
C 159.595082 163.264947 157.969401 162.591568 156.274531 162.591568 
C 154.579661 162.591568 152.953981 163.264947 151.755527 164.463401 
C 150.557073 165.661855 149.883694 167.287536 149.883694 168.982405 
C 149.883694 170.677275 150.557073 172.302956 151.755527 173.50141 
C 152.953981 174.699864 154.579661 175.373243 156.274531 175.373243 
z
" clip-path="url(#pbf69212cf3)" style="fill: #a0a0a0"/>
   </g>
   <g id="patch_12">
    <path d="M 188.228719 181.76408 
C 191.618459 181.76408 194.86982 180.417323 197.266728 178.020415 
C 199.663636 175.623507 201.010394 172.372145 201.010394 168.982405 
C 201.010394 165.592666 199.663636 162.341304 197.266728 159.944396 
C 194.86982 157.547488 191.618459 156.20073 188.228719 156.20073 
C 184.838979 156.20073 181.587618 157.547488 179.19071 159.944396 
C 176.793802 162.341304 175.447044 165.592666 175.447044 168.982405 
C 175.447044 172.372145 176.793802 175.623507 179.19071 178.020415 
C 181.587618 180.417323 184.838979 181.76408 188.228719 181.76408 
z
" clip-path="url(#pbf69212cf3)" style="fill: #0dab76"/>
   </g>
   <g id="patch_13">
    <path d="M 188.228719 175.373243 
C 189.923589 175.373243 191.549269 174.699864 192.747723 173.50141 
C 193.946177 172.302956 194.619556 170.677275 194.619556 168.982405 
C 194.619556 167.287536 193.946177 165.661855 192.747723 164.463401 
C 191.549269 163.264947 189.923589 162.591568 188.228719 162.591568 
C 186.533849 162.591568 184.908168 163.264947 183.709714 164.463401 
C 182.51126 165.661855 181.837881 167.287536 181.837881 168.982405 
C 181.837881 170.677275 182.51126 172.302956 183.709714 173.50141 
C 184.908168 174.699864 186.533849 175.373243 188.228719 175.373243 
z
" clip-path="url(#pbf69212cf3)" style="fill: #a0a0a0"/>
   </g>
   <g id="patch_14">
    <path d="M 220.182906 181.76408 
C 223.572646 181.76408 226.824007 180.417323 229.220915 178.020415 
C 231.617823 175.623507 232.964581 172.372145 232.964581 168.982405 
C 232.964581 165.592666 231.617823 162.341304 229.220915 159.944396 
C 226.824007 157.547488 223.572646 156.20073 220.182906 156.20073 
C 216.793166 156.20073 213.541805 157.547488 211.144897 159.944396 
C 208.747989 162.341304 207.401231 165.592666 207.401231 168.982405 
C 207.401231 172.372145 208.747989 175.623507 211.144897 178.020415 
C 213.541805 180.417323 216.793166 181.76408 220.182906 181.76408 
z
" clip-path="url(#pbf69212cf3)" style="fill: #0dab76"/>
   </g>
   <g id="patch_15">
    <path d="M 220.182906 175.373243 
C 221.877776 175.373243 223.503457 174.699864 224.701911 173.50141 
C 225.900365 172.302956 226.573744 170.677275 226.573744 168.982405 
C 226.573744 167.287536 225.900365 165.661855 224.701911 164.463401 
C 223.503457 163.264947 221.877776 162.591568 220.182906 162.591568 
C 218.488036 162.591568 216.862356 163.264947 215.663902 164.463401 
C 214.465448 165.661855 213.792069 167.287536 213.792069 168.982405 
C 213.792069 170.677275 214.465448 172.302956 215.663902 173.50141 
C 216.862356 174.699864 218.488036 175.373243 220.182906 175.373243 
z
" clip-path="url(#pbf69212cf3)" style="fill: #a0a0a0"/>
   </g>
   <g id="patch_16">
    <path d="M 252.137094 181.76408 
C 255.526834 181.76408 258.778195 180.417323 261.175103 178.020415 
C 263.572011 175.623507 264.918769 172.372145 264.918769 168.982405 
C 264.918769 165.592666 263.572011 162.341304 261.175103 159.944396 
C 258.778195 157.547488 255.526834 156.20073 252.137094 156.20073 
C 248.747354 156.20073 245.495993 157.547488 243.099085 159.944396 
C 240.702177 162.341304 239.355419 165.592666 239.355419 168.982405 
C 239.355419 172.372145 240.702177 175.623507 243.099085 178.020415 
C 245.495993 180.417323 248.747354 181.76408 252.137094 181.76408 
z
" clip-path="url(#pbf69212cf3)" style="fill: #0dab76"/>
   </g>
   <g id="patch_17">
    <path d="M 252.137094 175.373243 
C 253.831964 175.373243 255.457644 174.699864 256.656098 173.50141 
C 257.854552 172.302956 258.527931 170.677275 258.527931 168.982405 
C 258.527931 167.287536 257.854552 165.661855 256.656098 164.463401 
C 255.457644 163.264947 253.831964 162.591568 252.137094 162.591568 
C 250.442224 162.591568 248.816543 163.264947 247.618089 164.463401 
C 246.419635 165.661855 245.746256 167.287536 245.746256 168.982405 
C 245.746256 170.677275 246.419635 172.302956 247.618089 173.50141 
C 248.816543 174.699864 250.442224 175.373243 252.137094 175.373243 
z
" clip-path="url(#pbf69212cf3)" style="fill: #a0a0a0"/>
   </g>
   <g id="patch_18">
    <path d="M 284.091281 181.76408 
C 287.481021 181.76408 290.732382 180.417323 293.12929 178.020415 
C 295.526198 175.623507 296.872956 172.372145 296.872956 168.982405 
C 296.872956 165.592666 295.526198 162.341304 293.12929 159.944396 
C 290.732382 157.547488 287.481021 156.20073 284.091281 156.20073 
C 280.701541 156.20073 277.45018 157.547488 275.053272 159.944396 
C 272.656364 162.341304 271.309606 165.592666 271.309606 168.982405 
C 271.309606 172.372145 272.656364 175.623507 275.053272 178.020415 
C 277.45018 180.417323 280.701541 181.76408 284.091281 181.76408 
z
" clip-path="url(#pbf69212cf3)" style="fill: #0dab76"/>
   </g>
   <g id="patch_19">
    <path d="M 284.091281 175.373243 
C 285.786151 175.373243 287.411832 174.699864 288.610286 173.50141 
C 289.80874 172.302956 290.482119 170.677275 290.482119 168.982405 
C 290.482119 167.287536 289.80874 165.661855 288.610286 164.463401 
C 287.411832 163.264947 285.786151 162.591568 284.091281 162.591568 
C 282.396411 162.591568 280.770731 163.264947 279.572277 164.463401 
C 278.373823 165.661855 277.700444 167.287536 277.700444 168.982405 
C 277.700444 170.677275 278.373823 172.302956 279.572277 173.50141 
C 280.770731 174.699864 282.396411 175.373243 284.091281 175.373243 
z
" clip-path="url(#pbf69212cf3)" style="fill: #a0a0a0"/>
   </g>
   <g id="patch_20">
    <path d="M 316.045469 181.76408 
C 319.435209 181.76408 322.68657 180.417323 325.083478 178.020415 
C 327.480386 175.623507 328.827144 172.372145 328.827144 168.982405 
C 328.827144 165.592666 327.480386 162.341304 325.083478 159.944396 
C 322.68657 157.547488 319.435209 156.20073 316.045469 156.20073 
C 312.655729 156.20073 309.404368 157.547488 307.00746 159.944396 
C 304.610552 162.341304 303.263794 165.592666 303.263794 168.982405 
C 303.263794 172.372145 304.610552 175.623507 307.00746 178.020415 
C 309.404368 180.417323 312.655729 181.76408 316.045469 181.76408 
z
" clip-path="url(#pbf69212cf3)" style="fill: #0dab76"/>
   </g>
   <g id="patch_21">
    <path d="M 316.045469 175.373243 
C 317.740339 175.373243 319.366019 174.699864 320.564473 173.50141 
C 321.762927 172.302956 322.436306 170.677275 322.436306 168.982405 
C 322.436306 167.287536 321.762927 165.661855 320.564473 164.463401 
C 319.366019 163.264947 317.740339 162.591568 316.045469 162.591568 
C 314.350599 162.591568 312.724918 163.264947 311.526464 164.463401 
C 310.32801 165.661855 309.654631 167.287536 309.654631 168.982405 
C 309.654631 170.677275 310.32801 172.302956 311.526464 173.50141 
C 312.724918 174.699864 314.350599 175.373243 316.045469 175.373243 
z
" clip-path="url(#pbf69212cf3)" style="fill: #a0a0a0"/>
   </g>
   <g id="patch_22">
    <path d="M 347.999656 181.76408 
C 351.389396 181.76408 354.640757 180.417323 357.037665 178.020415 
C 359.434574 175.623507 360.781331 172.372145 360.781331 168.982405 
C 360.781331 165.592666 359.434574 162.341304 357.037665 159.944396 
C 354.640757 157.547488 351.389396 156.20073 347.999656 156.20073 
C 344.609917 156.20073 341.358555 157.547488 338.961647 159.944396 
C 336.564739 162.341304 335.217981 165.592666 335.217981 168.982405 
C 335.217981 172.372145 336.564739 175.623507 338.961647 178.020415 
C 341.358555 180.417323 344.609917 181.76408 347.999656 181.76408 
z
" clip-path="url(#pbf69212cf3)" style="fill: #0dab76"/>
   </g>
   <g id="patch_23">
    <path d="M 347.999656 175.373243 
C 349.694526 175.373243 351.320207 174.699864 352.518661 173.50141 
C 353.717115 172.302956 354.390494 170.677275 354.390494 168.982405 
C 354.390494 167.287536 353.717115 165.661855 352.518661 164.463401 
C 351.320207 163.264947 349.694526 162.591568 347.999656 162.591568 
C 346.304786 162.591568 344.679106 163.264947 343.480652 164.463401 
C 342.282198 165.661855 341.608819 167.287536 341.608819 168.982405 
C 341.608819 170.677275 342.282198 172.302956 343.480652 173.50141 
C 344.679106 174.699864 346.304786 175.373243 347.999656 175.373243 
z
" clip-path="url(#pbf69212cf3)" style="fill: #a0a0a0"/>
   </g>
   <g id="patch_24">
    <path d="M 379.953844 181.76408 
C 383.343584 181.76408 386.594945 180.417323 388.991853 178.020415 
C 391.388761 175.623507 392.735519 172.372145 392.735519 168.982405 
C 392.735519 165.592666 391.388761 162.341304 388.991853 159.944396 
C 386.594945 157.547488 383.343584 156.20073 379.953844 156.20073 
C 376.564104 156.20073 373.312743 157.547488 370.915835 159.944396 
C 368.518927 162.341304 367.172169 165.592666 367.172169 168.982405 
C 367.172169 172.372145 368.518927 175.623507 370.915835 178.020415 
C 373.312743 180.417323 376.564104 181.76408 379.953844 181.76408 
z
" clip-path="url(#pbf69212cf3)" style="fill: #0dab76"/>
   </g>
   <g id="patch_25">
    <path d="M 379.953844 175.373243 
C 381.648714 175.373243 383.274394 174.699864 384.472848 173.50141 
C 385.671303 172.302956 386.344681 170.677275 386.344681 168.982405 
C 386.344681 167.287536 385.671303 165.661855 384.472848 164.463401 
C 383.274394 163.264947 381.648714 162.591568 379.953844 162.591568 
C 378.258974 162.591568 376.633293 163.264947 375.434839 164.463401 
C 374.236385 165.661855 373.563006 167.287536 373.563006 168.982405 
C 373.563006 170.677275 374.236385 172.302956 375.434839 173.50141 
C 376.633293 174.699864 378.258974 175.373243 379.953844 175.373243 
z
" clip-path="url(#pbf69212cf3)" style="fill: #a0a0a0"/>
   </g>
   <g id="matplotlib.axis_1">
    <g id="xtick_1">
     <g id="line2d_27">
      <defs>
       <path id="md81dc7f492" d="M 0 0 
L 0 3.5 
" style="stroke: #ffffff; stroke-width: 0.8"/>
      </defs>
      <g>
       <use xlink:href="#md81dc7f492" x="108.34325" y="236.196287" style="fill: #ffffff; stroke: #ffffff; stroke-width: 0.8"/>
      </g>
     </g>
     <g id="text_1">
      <text style="fill: #ffffff; font: 10px 'sans-serif'; text-anchor: middle" x="108.34325" y="250.794724" transform="rotate(-0, 108.34325, 250.794724)">−10</text>
     </g>
    </g>
    <g id="xtick_2">
     <g id="line2d_28">
      <g>
       <use xlink:href="#md81dc7f492" x="172.251625" y="236.196287" style="fill: #ffffff; stroke: #ffffff; stroke-width: 0.8"/>
      </g>
     </g>
     <g id="text_2">
      <text style="fill: #ffffff; font: 10px 'sans-serif'; text-anchor: middle" x="172.251625" y="250.794724" transform="rotate(-0, 172.251625, 250.794724)">−5</text>
     </g>
    </g>
    <g id="xtick_3">
     <g id="line2d_29">
      <g>
       <use xlink:href="#md81dc7f492" x="236.16" y="236.196287" style="fill: #ffffff; stroke: #ffffff; stroke-width: 0.8"/>
      </g>
     </g>
     <g id="text_3">
      <text style="fill: #ffffff; font: 10px 'sans-serif'; text-anchor: middle" x="236.16" y="250.794724" transform="rotate(-0, 236.16, 250.794724)">0</text>
     </g>
    </g>
    <g id="xtick_4">
     <g id="line2d_30">
      <g>
       <use xlink:href="#md81dc7f492" x="300.068375" y="236.196287" style="fill: #ffffff; stroke: #ffffff; stroke-width: 0.8"/>
      </g>
     </g>
     <g id="text_4">
      <text style="fill: #ffffff; font: 10px 'sans-serif'; text-anchor: middle" x="300.068375" y="250.794724" transform="rotate(-0, 300.068375, 250.794724)">5</text>
     </g>
    </g>
    <g id="xtick_5">
     <g id="line2d_31">
      <g>
       <use xlink:href="#md81dc7f492" x="363.97675" y="236.196287" style="fill: #ffffff; stroke: #ffffff; stroke-width: 0.8"/>
      </g>
     </g>
     <g id="text_5">
      <text style="fill: #ffffff; font: 10px 'sans-serif'; text-anchor: middle" x="363.97675" y="250.794724" transform="rotate(-0, 363.97675, 250.794724)">10</text>
     </g>
    </g>
   </g>
   <g id="matplotlib.axis_2">
    <g id="ytick_1">
     <g id="line2d_32">
      <defs>
       <path id="m6ecd744eb8" d="M 0 0 
L -3.5 0 
" style="stroke: #ffffff; stroke-width: 0.8"/>
      </defs>
      <g>
       <use xlink:href="#m6ecd744eb8" x="57.6" y="220.109106" style="fill: #ffffff; stroke: #ffffff; stroke-width: 0.8"/>
      </g>
     </g>
     <g id="text_6">
      <text style="fill: #ffffff; font: 10px 'sans-serif'; text-anchor: end" x="50.6" y="223.908324" transform="rotate(-0, 50.6, 223.908324)">−4</text>
     </g>
    </g>
    <g id="ytick_2">
     <g id="line2d_33">
      <g>
       <use xlink:href="#m6ecd744eb8" x="57.6" y="194.545756" style="fill: #ffffff; stroke: #ffffff; stroke-width: 0.8"/>
      </g>
     </g>
     <g id="text_7">
      <text style="fill: #ffffff; font: 10px 'sans-serif'; text-anchor: end" x="50.6" y="198.344974" transform="rotate(-0, 50.6, 198.344974)">−2</text>
     </g>
    </g>
    <g id="ytick_3">
     <g id="line2d_34">
      <g>
       <use xlink:href="#m6ecd744eb8" x="57.6" y="168.982405" style="fill: #ffffff; stroke: #ffffff; stroke-width: 0.8"/>
      </g>
     </g>
     <g id="text_8">
      <text style="fill: #ffffff; font: 10px 'sans-serif'; text-anchor: end" x="50.6" y="172.781624" transform="rotate(-0, 50.6, 172.781624)">0</text>
     </g>
    </g>
    <g id="ytick_4">
     <g id="line2d_35">
      <g>
       <use xlink:href="#m6ecd744eb8" x="57.6" y="143.419055" style="fill: #ffffff; stroke: #ffffff; stroke-width: 0.8"/>
      </g>
     </g>
     <g id="text_9">
      <text style="fill: #ffffff; font: 10px 'sans-serif'; text-anchor: end" x="50.6" y="147.218274" transform="rotate(-0, 50.6, 147.218274)">2</text>
     </g>
    </g>
    <g id="ytick_5">
     <g id="line2d_36">
      <g>
       <use xlink:href="#m6ecd744eb8" x="57.6" y="117.855705" style="fill: #ffffff; stroke: #ffffff; stroke-width: 0.8"/>
      </g>
     </g>
     <g id="text_10">
      <text style="fill: #ffffff; font: 10px 'sans-serif'; text-anchor: end" x="50.6" y="121.654924" transform="rotate(-0, 50.6, 121.654924)">4</text>
     </g>
    </g>
   </g>
   <g id="patch_26">
    <path d="M 57.6 236.196287 
L 57.6 112.859713 
" style="fill: none; stroke: #ffffff; stroke-width: 0.8; stroke-linejoin: miter; stroke-linecap: square"/>
   </g>
   <g id="patch_27">
    <path d="M 414.72 236.196287 
L 414.72 112.859713 
" style="fill: none; stroke: #ffffff; stroke-width: 0.8; stroke-linejoin: miter; stroke-linecap: square"/>
   </g>
   <g id="patch_28">
    <path d="M 57.6 236.196287 
L 414.72 236.196287 
" style="fill: none; stroke: #ffffff; stroke-width: 0.8; stroke-linejoin: miter; stroke-linecap: square"/>
   </g>
   <g id="patch_29">
    <path d="M 57.6 112.859713 
L 414.72 112.859713 
" style="fill: none; stroke: #ffffff; stroke-width: 0.8; stroke-linejoin: miter; stroke-linecap: square"/>
   </g>
   <g id="text_11">
    <text style="fill: #ffffff; font: 12px 'sans-serif'; text-anchor: middle" x="236.16" y="106.859713" transform="rotate(-0, 236.16, 106.859713)">B10B-XH</text>
   </g>
  </g>
 </g>
 <defs>
  <clipPath id="pbf69212cf3">
   <rect x="57.6" y="112.859713" width="357.12" height="123.336574"/>
  </clipPath>
 </defs>
</svg>
