<?xml version="1.0" encoding="utf-8" standalone="no"?>
<!DOCTYPE svg PUBLIC "-//W3C//DTD SVG 1.1//EN"
  "http://www.w3.org/Graphics/SVG/1.1/DTD/svg11.dtd">
<svg xmlns:xlink="http://www.w3.org/1999/xlink" width="460.8pt" height="345.6pt" viewBox="0 0 460.8 345.6" xmlns="http://www.w3.org/2000/svg" version="1.1">
 <metadata>
  <rdf:RDF xmlns:dc="http://purl.org/dc/elements/1.1/" xmlns:cc="http://creativecommons.org/ns#" xmlns:rdf="http://www.w3.org/1999/02/22-rdf-syntax-ns#">
   <cc:Work>
    <dc:type rdf:resource="http://purl.org/dc/dcmitype/StillImage"/>
    <dc:date>2023-02-18T16:06:06.120984</dc:date>
    <dc:format>image/svg+xml</dc:format>
    <dc:creator>
     <cc:Agent>
      <dc:title>Matplotlib v3.5.1, https://matplotlib.org/</dc:title>
     </cc:Agent>
    </dc:creator>
   </cc:Work>
  </rdf:RDF>
 </metadata>
 <defs>
  <style type="text/css">*{stroke-linejoin: round; stroke-linecap: butt}</style>
 </defs>
 <g id="figure_1">
  <g id="patch_1">
   <path d="M 0 345.6 
L 460.8 345.6 
L 460.8 0 
L 0 0 
z
" style="fill: #2b2b2b"/>
  </g>
  <g id="axes_1">
   <g id="patch_2">
    <path d="M 93.98779 307.584 
L 378.33221 307.584 
L 378.33221 41.472 
L 93.98779 41.472 
z
" style="fill: #2b2b2b"/>
   </g>
   <g id="patch_3">
    <path d="M 107.349922 85.980267 
C 107.465918 85.980267 107.577179 85.934181 107.6592 85.85216 
C 107.741222 85.770138 107.787308 85.658877 107.787308 85.542881 
C 107.787308 85.426885 107.741222 85.315624 107.6592 85.233603 
C 107.577179 85.151581 107.465918 85.105496 107.349922 85.105496 
C 107.233926 85.105496 107.122665 85.151581 107.040644 85.233603 
C 106.958622 85.315624 106.912536 85.426885 106.912536 85.542881 
C 106.912536 85.658877 106.958622 85.770138 107.040644 85.85216 
C 107.122665 85.934181 107.233926 85.980267 107.349922 85.980267 
L 107.349922 85.980267 
z
" clip-path="url(#p5b5256f736)" style="fill: none; stroke: #808080; stroke-width: 4.373857; stroke-linejoin: miter"/>
   </g>
   <g id="line2d_1">
    <path d="M 107.021723 60.047157 
L 125.452196 67.76802 
L 125.452196 67.76802 
L 107.020861 75.489305 
L 107.020861 75.489305 
" clip-path="url(#p5b5256f736)" style="fill: none; stroke: #808080; stroke-width: 1.422028; stroke-linecap: round"/>
   </g>
   <g id="line2d_2">
    <path d="M 129.971986 81.467239 
L 129.971986 54.066868 
L 145.166737 81.467239 
L 145.166737 54.066868 
" clip-path="url(#p5b5256f736)" style="fill: none; stroke: #808080; stroke-width: 1.422028; stroke-linecap: round"/>
   </g>
   <g id="line2d_3">
    <path d="M 149.805801 80.969321 
L 159.022604 53.568 
L 159.022604 53.568 
L 167.989261 80.970026 
L 167.989261 80.970026 
" clip-path="url(#p5b5256f736)" style="fill: none; stroke: #808080; stroke-width: 1.422028; stroke-linecap: round"/>
   </g>
   <g id="line2d_4">
    <path d="M 165.749583 74.244994 
L 152.049397 74.244994 
" clip-path="url(#p5b5256f736)" style="fill: none; stroke: #808080; stroke-width: 1.422028; stroke-linecap: round"/>
   </g>
   <g id="line2d_5">
    <path d="M 171.138025 81.468048 
L 171.138025 54.067677 
L 180.105419 69.262428 
L 180.105419 69.262428 
L 189.321907 54.067677 
L 189.321907 54.067677 
L 189.321907 81.468048 
" clip-path="url(#p5b5256f736)" style="fill: none; stroke: #808080; stroke-width: 1.422028; stroke-linecap: round"/>
   </g>
   <g id="line2d_6">
    <path d="M 207.661858 81.468202 
L 195.456238 81.468202 
L 195.456238 54.067831 
L 207.661858 54.067831 
" clip-path="url(#p5b5256f736)" style="fill: none; stroke: #808080; stroke-width: 1.422028; stroke-linecap: round"/>
   </g>
   <g id="line2d_7">
    <path d="M 195.456732 66.274097 
L 204.67322 66.274097 
" clip-path="url(#p5b5256f736)" style="fill: none; stroke: #808080; stroke-width: 1.422028; stroke-linecap: round"/>
   </g>
   <g id="line2d_8">
    <path d="M 109.53685 98.664451 
L 365.407464 98.664451 
" clip-path="url(#p5b5256f736)" style="fill: none; stroke: #808080; stroke-width: 5.554798; stroke-linecap: round"/>
   </g>
   <g id="line2d_9">
    <path d="M 365.407464 98.664451 
L 365.407464 295.488 
" clip-path="url(#p5b5256f736)" style="fill: none; stroke: #808080; stroke-width: 5.554798; stroke-linecap: round"/>
   </g>
   <g id="line2d_10">
    <path d="M 365.407464 295.488 
L 109.53685 295.488 
" clip-path="url(#p5b5256f736)" style="fill: none; stroke: #808080; stroke-width: 5.554798; stroke-linecap: round"/>
   </g>
   <g id="line2d_11">
    <path d="M 109.53685 295.488 
L 109.53685 98.664451 
" clip-path="url(#p5b5256f736)" style="fill: none; stroke: #808080; stroke-width: 5.554798; stroke-linecap: round"/>
   </g>
   <g id="patch_4">
    <path d="M 329.104454 274.821527 
C 329.22045 274.821527 329.33171 274.775442 329.413732 274.69342 
C 329.495754 274.611398 329.541839 274.500138 329.541839 274.384142 
C 329.541839 274.268146 329.495754 274.156885 329.413732 274.074863 
C 329.33171 273.992842 329.22045 273.946756 329.104454 273.946756 
C 328.988458 273.946756 328.877197 273.992842 328.795175 274.074863 
C 328.713154 274.156885 328.667068 274.268146 328.667068 274.384142 
C 328.667068 274.500138 328.713154 274.611398 328.795175 274.69342 
C 328.877197 274.775442 328.988458 274.821527 329.104454 274.821527 
L 329.104454 274.821527 
z
" clip-path="url(#p5b5256f736)" style="fill: none; stroke: #808080; stroke-width: 4.373857; stroke-linejoin: miter"/>
   </g>
   <g id="line2d_12">
    <path d="M 330.269988 248.885927 
L 337.991001 242.908368 
L 337.991001 242.908368 
L 337.990873 270.308944 
L 337.990873 270.308944 
" clip-path="url(#p5b5256f736)" style="fill: none; stroke: #808080; stroke-width: 1.422028; stroke-linecap: round"/>
   </g>
   <g id="line2d_13">
    <path d="M 330.270448 270.308371 
L 345.714294 270.308371 
" clip-path="url(#p5b5256f736)" style="fill: none; stroke: #808080; stroke-width: 1.422028; stroke-linecap: round"/>
   </g>
   <g id="patch_5">
    <path d="M 194.827055 235.784857 
C 204.106737 235.784857 213.007598 232.098 219.569324 225.536273 
C 226.131051 218.974547 229.817908 210.073686 229.817908 200.794004 
C 229.817908 191.514321 226.131051 182.613461 219.569324 176.051734 
C 213.007598 169.490008 204.106737 165.803151 194.827055 165.803151 
C 185.547372 165.803151 176.646512 169.490008 170.084785 176.051734 
C 163.523059 182.613461 159.836202 191.514321 159.836202 200.794004 
C 159.836202 210.073686 163.523059 218.974547 170.084785 225.536273 
C 176.646512 232.098 185.547372 235.784857 194.827055 235.784857 
z
" clip-path="url(#p5b5256f736)" style="fill: #0dab76"/>
   </g>
   <g id="patch_6">
    <path d="M 194.827055 218.28943 
C 199.466896 218.28943 203.917326 216.446002 207.19819 213.165138 
C 210.479053 209.884275 212.322481 205.433845 212.322481 200.794004 
C 212.322481 196.154162 210.479053 191.703732 207.19819 188.422869 
C 203.917326 185.142006 199.466896 183.298577 194.827055 183.298577 
C 190.187213 183.298577 185.736783 185.142006 182.45592 188.422869 
C 179.175057 191.703732 177.331628 196.154162 177.331628 200.794004 
C 177.331628 205.433845 179.175057 209.884275 182.45592 213.165138 
C 185.736783 216.446002 190.187213 218.28943 194.827055 218.28943 
z
" clip-path="url(#p5b5256f736)" style="fill: #a0a0a0"/>
   </g>
   <g id="patch_7">
    <path d="M 282.304188 235.784857 
C 291.58387 235.784857 300.484731 232.098 307.046457 225.536273 
C 313.608184 218.974547 317.295041 210.073686 317.295041 200.794004 
C 317.295041 191.514321 313.608184 182.613461 307.046457 176.051734 
C 300.484731 169.490008 291.58387 165.803151 282.304188 165.803151 
C 273.024505 165.803151 264.123645 169.490008 257.561918 176.051734 
C 251.000191 182.613461 247.313334 191.514321 247.313334 200.794004 
C 247.313334 210.073686 251.000191 218.974547 257.561918 225.536273 
C 264.123645 232.098 273.024505 235.784857 282.304188 235.784857 
z
" clip-path="url(#p5b5256f736)" style="fill: #0dab76"/>
   </g>
   <g id="patch_8">
    <path d="M 282.304188 218.28943 
C 286.944029 218.28943 291.394459 216.446002 294.675322 213.165138 
C 297.956186 209.884275 299.799614 205.433845 299.799614 200.794004 
C 299.799614 196.154162 297.956186 191.703732 294.675322 188.422869 
C 291.394459 185.142006 286.944029 183.298577 282.304188 183.298577 
C 277.664346 183.298577 273.213916 185.142006 269.933053 188.422869 
C 266.65219 191.703732 264.808761 196.154162 264.808761 200.794004 
C 264.808761 205.433845 266.65219 209.884275 269.933053 213.165138 
C 273.213916 216.446002 277.664346 218.28943 282.304188 218.28943 
z
" clip-path="url(#p5b5256f736)" style="fill: #a0a0a0"/>
   </g>
   <g id="matplotlib.axis_1">
    <g id="xtick_1">
     <g id="line2d_14">
      <defs>
       <path id="mcdf4ad9fb4" d="M 0 0 
L 0 3.5 
" style="stroke: #ffffff; stroke-width: 0.8"/>
      </defs>
      <g>
       <use xlink:href="#mcdf4ad9fb4" x="104.069529" y="307.584" style="fill: #ffffff; stroke: #ffffff; stroke-width: 0.8"/>
      </g>
     </g>
     <g id="text_1">
      <text style="fill: #ffffff; font: 10px 'sans-serif'; text-anchor: middle" x="104.069529" y="322.182437" transform="rotate(-0, 104.069529, 322.182437)">−3</text>
     </g>
    </g>
    <g id="xtick_2">
     <g id="line2d_15">
      <g>
       <use xlink:href="#mcdf4ad9fb4" x="147.808096" y="307.584" style="fill: #ffffff; stroke: #ffffff; stroke-width: 0.8"/>
      </g>
     </g>
     <g id="text_2">
      <text style="fill: #ffffff; font: 10px 'sans-serif'; text-anchor: middle" x="147.808096" y="322.182437" transform="rotate(-0, 147.808096, 322.182437)">−2</text>
     </g>
    </g>
    <g id="xtick_3">
     <g id="line2d_16">
      <g>
       <use xlink:href="#mcdf4ad9fb4" x="191.546662" y="307.584" style="fill: #ffffff; stroke: #ffffff; stroke-width: 0.8"/>
      </g>
     </g>
     <g id="text_3">
      <text style="fill: #ffffff; font: 10px 'sans-serif'; text-anchor: middle" x="191.546662" y="322.182437" transform="rotate(-0, 191.546662, 322.182437)">−1</text>
     </g>
    </g>
    <g id="xtick_4">
     <g id="line2d_17">
      <g>
       <use xlink:href="#mcdf4ad9fb4" x="235.285229" y="307.584" style="fill: #ffffff; stroke: #ffffff; stroke-width: 0.8"/>
      </g>
     </g>
     <g id="text_4">
      <text style="fill: #ffffff; font: 10px 'sans-serif'; text-anchor: middle" x="235.285229" y="322.182437" transform="rotate(-0, 235.285229, 322.182437)">0</text>
     </g>
    </g>
    <g id="xtick_5">
     <g id="line2d_18">
      <g>
       <use xlink:href="#mcdf4ad9fb4" x="279.023795" y="307.584" style="fill: #ffffff; stroke: #ffffff; stroke-width: 0.8"/>
      </g>
     </g>
     <g id="text_5">
      <text style="fill: #ffffff; font: 10px 'sans-serif'; text-anchor: middle" x="279.023795" y="322.182437" transform="rotate(-0, 279.023795, 322.182437)">1</text>
     </g>
    </g>
    <g id="xtick_6">
     <g id="line2d_19">
      <g>
       <use xlink:href="#mcdf4ad9fb4" x="322.762361" y="307.584" style="fill: #ffffff; stroke: #ffffff; stroke-width: 0.8"/>
      </g>
     </g>
     <g id="text_6">
      <text style="fill: #ffffff; font: 10px 'sans-serif'; text-anchor: middle" x="322.762361" y="322.182437" transform="rotate(-0, 322.762361, 322.182437)">2</text>
     </g>
    </g>
    <g id="xtick_7">
     <g id="line2d_20">
      <g>
       <use xlink:href="#mcdf4ad9fb4" x="366.500928" y="307.584" style="fill: #ffffff; stroke: #ffffff; stroke-width: 0.8"/>
      </g>
     </g>
     <g id="text_7">
      <text style="fill: #ffffff; font: 10px 'sans-serif'; text-anchor: middle" x="366.500928" y="322.182437" transform="rotate(-0, 366.500928, 322.182437)">3</text>
     </g>
    </g>
   </g>
   <g id="matplotlib.axis_2">
    <g id="ytick_1">
     <g id="line2d_21">
      <defs>
       <path id="m04c9220705" d="M 0 0 
L -3.5 0 
" style="stroke: #ffffff; stroke-width: 0.8"/>
      </defs>
      <g>
       <use xlink:href="#m04c9220705" x="93.98779" y="290.348718" style="fill: #ffffff; stroke: #ffffff; stroke-width: 0.8"/>
      </g>
     </g>
     <g id="text_8">
      <text style="fill: #ffffff; font: 10px 'sans-serif'; text-anchor: end" x="86.98779" y="294.147937" transform="rotate(-0, 86.98779, 294.147937)">−2</text>
     </g>
    </g>
    <g id="ytick_2">
     <g id="line2d_22">
      <g>
       <use xlink:href="#m04c9220705" x="93.98779" y="246.610152" style="fill: #ffffff; stroke: #ffffff; stroke-width: 0.8"/>
      </g>
     </g>
     <g id="text_9">
      <text style="fill: #ffffff; font: 10px 'sans-serif'; text-anchor: end" x="86.98779" y="250.409371" transform="rotate(-0, 86.98779, 250.409371)">−1</text>
     </g>
    </g>
    <g id="ytick_3">
     <g id="line2d_23">
      <g>
       <use xlink:href="#m04c9220705" x="93.98779" y="202.871586" style="fill: #ffffff; stroke: #ffffff; stroke-width: 0.8"/>
      </g>
     </g>
     <g id="text_10">
      <text style="fill: #ffffff; font: 10px 'sans-serif'; text-anchor: end" x="86.98779" y="206.670804" transform="rotate(-0, 86.98779, 206.670804)">0</text>
     </g>
    </g>
    <g id="ytick_4">
     <g id="line2d_24">
      <g>
       <use xlink:href="#m04c9220705" x="93.98779" y="159.133019" style="fill: #ffffff; stroke: #ffffff; stroke-width: 0.8"/>
      </g>
     </g>
     <g id="text_11">
      <text style="fill: #ffffff; font: 10px 'sans-serif'; text-anchor: end" x="86.98779" y="162.932238" transform="rotate(-0, 86.98779, 162.932238)">1</text>
     </g>
    </g>
    <g id="ytick_5">
     <g id="line2d_25">
      <g>
       <use xlink:href="#m04c9220705" x="93.98779" y="115.394453" style="fill: #ffffff; stroke: #ffffff; stroke-width: 0.8"/>
      </g>
     </g>
     <g id="text_12">
      <text style="fill: #ffffff; font: 10px 'sans-serif'; text-anchor: end" x="86.98779" y="119.193672" transform="rotate(-0, 86.98779, 119.193672)">2</text>
     </g>
    </g>
    <g id="ytick_6">
     <g id="line2d_26">
      <g>
       <use xlink:href="#m04c9220705" x="93.98779" y="71.655886" style="fill: #ffffff; stroke: #ffffff; stroke-width: 0.8"/>
      </g>
     </g>
     <g id="text_13">
      <text style="fill: #ffffff; font: 10px 'sans-serif'; text-anchor: end" x="86.98779" y="75.455105" transform="rotate(-0, 86.98779, 75.455105)">3</text>
     </g>
    </g>
   </g>
   <g id="patch_9">
    <path d="M 93.98779 307.584 
L 93.98779 41.472 
" style="fill: none; stroke: #ffffff; stroke-width: 0.8; stroke-linejoin: miter; stroke-linecap: square"/>
   </g>
   <g id="patch_10">
    <path d="M 378.33221 307.584 
L 378.33221 41.472 
" style="fill: none; stroke: #ffffff; stroke-width: 0.8; stroke-linejoin: miter; stroke-linecap: square"/>
   </g>
   <g id="patch_11">
    <path d="M 93.98779 307.584 
L 378.33221 307.584 
" style="fill: none; stroke: #ffffff; stroke-width: 0.8; stroke-linejoin: miter; stroke-linecap: square"/>
   </g>
   <g id="patch_12">
    <path d="M 93.98779 41.472 
L 378.33221 41.472 
" style="fill: none; stroke: #ffffff; stroke-width: 0.8; stroke-linejoin: miter; stroke-linecap: square"/>
   </g>
   <g id="text_14">
    <text style="fill: #ffffff; font: 12px 'sans-serif'; text-anchor: middle" x="236.16" y="35.472" transform="rotate(-0, 236.16, 35.472)">B2B-PH</text>
   </g>
  </g>
 </g>
 <defs>
  <clipPath id="p5b5256f736">
   <rect x="93.98779" y="41.472" width="284.34442" height="266.112"/>
  </clipPath>
 </defs>
</svg>
