<?xml version="1.0" encoding="utf-8" standalone="no"?>
<!DOCTYPE svg PUBLIC "-//W3C//DTD SVG 1.1//EN"
  "http://www.w3.org/Graphics/SVG/1.1/DTD/svg11.dtd">
<svg xmlns:xlink="http://www.w3.org/1999/xlink" width="460.8pt" height="345.6pt" viewBox="0 0 460.8 345.6" xmlns="http://www.w3.org/2000/svg" version="1.1">
 <metadata>
  <rdf:RDF xmlns:dc="http://purl.org/dc/elements/1.1/" xmlns:cc="http://creativecommons.org/ns#" xmlns:rdf="http://www.w3.org/1999/02/22-rdf-syntax-ns#">
   <cc:Work>
    <dc:type rdf:resource="http://purl.org/dc/dcmitype/StillImage"/>
    <dc:date>2023-02-18T16:06:05.987756</dc:date>
    <dc:format>image/svg+xml</dc:format>
    <dc:creator>
     <cc:Agent>
      <dc:title>Matplotlib v3.5.1, https://matplotlib.org/</dc:title>
     </cc:Agent>
    </dc:creator>
   </cc:Work>
  </rdf:RDF>
 </metadata>
 <defs>
  <style type="text/css">*{stroke-linejoin: round; stroke-linecap: butt}</style>
 </defs>
 <g id="figure_1">
  <g id="patch_1">
   <path d="M 0 345.6 
L 460.8 345.6 
L 460.8 0 
L 0 0 
z
" style="fill: #2b2b2b"/>
  </g>
  <g id="axes_1">
   <g id="patch_2">
    <path d="M 57.6 299.385583 
L 414.72 299.385583 
L 414.72 49.670417 
L 57.6 49.670417 
z
" style="fill: #2b2b2b"/>
   </g>
   <g id="patch_3">
    <path d="M 74.243163 91.43625 
C 74.352012 91.43625 74.456417 91.393004 74.533385 91.316036 
C 74.610352 91.239068 74.653598 91.134663 74.653598 91.025814 
C 74.653598 90.916965 74.610352 90.81256 74.533385 90.735592 
C 74.456417 90.658625 74.352012 90.615379 74.243163 90.615379 
C 74.134314 90.615379 74.029909 90.658625 73.952941 90.735592 
C 73.875973 90.81256 73.832727 90.916965 73.832727 91.025814 
C 73.832727 91.134663 73.875973 91.239068 73.952941 91.316036 
C 74.029909 91.393004 74.134314 91.43625 74.243163 91.43625 
L 74.243163 91.43625 
z
" clip-path="url(#p8dbe857b08)" style="fill: none; stroke: #808080; stroke-width: 4.104356; stroke-linejoin: miter"/>
   </g>
   <g id="line2d_1">
    <path d="M 73.935186 67.101041 
L 91.230042 74.346174 
L 91.230042 74.346174 
L 73.934377 81.591702 
L 73.934377 81.591702 
" clip-path="url(#p8dbe857b08)" style="fill: none; stroke: #808080; stroke-width: 1.334408; stroke-linecap: round"/>
   </g>
   <g id="line2d_2">
    <path d="M 95.471339 87.201298 
L 95.471339 61.489236 
L 109.729846 87.201298 
L 109.729846 61.489236 
" clip-path="url(#p8dbe857b08)" style="fill: none; stroke: #808080; stroke-width: 1.334408; stroke-linecap: round"/>
   </g>
   <g id="line2d_3">
    <path d="M 114.083068 86.734059 
L 122.731966 61.021106 
L 122.731966 61.021106 
L 131.146131 86.734721 
L 131.146131 86.734721 
" clip-path="url(#p8dbe857b08)" style="fill: none; stroke: #808080; stroke-width: 1.334408; stroke-linecap: round"/>
   </g>
   <g id="line2d_4">
    <path d="M 129.044453 80.424061 
L 116.188422 80.424061 
" clip-path="url(#p8dbe857b08)" style="fill: none; stroke: #808080; stroke-width: 1.334408; stroke-linecap: round"/>
   </g>
   <g id="line2d_5">
    <path d="M 134.100879 87.202057 
L 134.100879 61.489995 
L 142.515736 75.748502 
L 142.515736 75.748502 
L 151.164339 61.489995 
L 151.164339 61.489995 
L 151.164339 87.202057 
" clip-path="url(#p8dbe857b08)" style="fill: none; stroke: #808080; stroke-width: 1.334408; stroke-linecap: round"/>
   </g>
   <g id="line2d_6">
    <path d="M 168.374249 87.202202 
L 156.920694 87.202202 
L 156.920694 61.490139 
L 168.374249 61.490139 
" clip-path="url(#p8dbe857b08)" style="fill: none; stroke: #808080; stroke-width: 1.334408; stroke-linecap: round"/>
   </g>
   <g id="line2d_7">
    <path d="M 156.921158 72.944301 
L 165.569761 72.944301 
" clip-path="url(#p8dbe857b08)" style="fill: none; stroke: #808080; stroke-width: 1.334408; stroke-linecap: round"/>
   </g>
   <g id="line2d_8">
    <path d="M 76.295341 103.338882 
L 398.487273 103.338882 
" clip-path="url(#p8dbe857b08)" style="fill: none; stroke: #808080; stroke-width: 5.212532; stroke-linecap: round"/>
   </g>
   <g id="line2d_9">
    <path d="M 398.487273 103.338882 
L 398.487273 288.034894 
" clip-path="url(#p8dbe857b08)" style="fill: none; stroke: #808080; stroke-width: 5.212532; stroke-linecap: round"/>
   </g>
   <g id="line2d_10">
    <path d="M 398.487273 288.034894 
L 76.295341 288.034894 
" clip-path="url(#p8dbe857b08)" style="fill: none; stroke: #808080; stroke-width: 5.212532; stroke-linecap: round"/>
   </g>
   <g id="line2d_11">
    <path d="M 76.295341 288.034894 
L 76.295341 103.338882 
" clip-path="url(#p8dbe857b08)" style="fill: none; stroke: #808080; stroke-width: 5.212532; stroke-linecap: round"/>
   </g>
   <g id="patch_4">
    <path d="M 325.32713 268.641812 
C 325.435979 268.641812 325.540384 268.598566 325.617352 268.521598 
C 325.69432 268.444631 325.737566 268.340226 325.737566 268.231377 
C 325.737566 268.122528 325.69432 268.018123 325.617352 267.941155 
C 325.540384 267.864187 325.435979 267.820941 325.32713 267.820941 
C 325.218281 267.820941 325.113876 267.864187 325.036908 267.941155 
C 324.959941 268.018123 324.916695 268.122528 324.916695 268.231377 
C 324.916695 268.340226 324.959941 268.444631 325.036908 268.521598 
C 325.113876 268.598566 325.218281 268.641812 325.32713 268.641812 
L 325.32713 268.641812 
z
" clip-path="url(#p8dbe857b08)" style="fill: none; stroke: #808080; stroke-width: 4.104356; stroke-linejoin: miter"/>
   </g>
   <g id="line2d_12">
    <path d="M 326.420848 244.304267 
L 333.666122 238.695024 
L 333.666122 238.695024 
L 333.666002 264.407277 
L 333.666002 264.407277 
" clip-path="url(#p8dbe857b08)" style="fill: none; stroke: #808080; stroke-width: 1.334408; stroke-linecap: round"/>
   </g>
   <g id="line2d_13">
    <path d="M 326.421281 264.40674 
L 340.913534 264.40674 
" clip-path="url(#p8dbe857b08)" style="fill: none; stroke: #808080; stroke-width: 1.334408; stroke-linecap: round"/>
   </g>
   <g id="patch_5">
    <path d="M 156.330279 232.010437 
C 165.038182 232.010437 173.390605 228.55075 179.548022 222.393333 
C 185.705439 216.235915 189.165126 207.883493 189.165126 199.17559 
C 189.165126 190.467687 185.705439 182.115265 179.548022 175.957847 
C 173.390605 169.80043 165.038182 166.340743 156.330279 166.340743 
C 147.622376 166.340743 139.269954 169.80043 133.112537 175.957847 
C 126.955119 182.115265 123.495433 190.467687 123.495433 199.17559 
C 123.495433 207.883493 126.955119 216.235915 133.112537 222.393333 
C 139.269954 228.55075 147.622376 232.010437 156.330279 232.010437 
z
" clip-path="url(#p8dbe857b08)" style="fill: #0dab76"/>
   </g>
   <g id="patch_6">
    <path d="M 156.330279 215.593013 
C 160.684231 215.593013 164.860442 213.86317 167.939151 210.784461 
C 171.017859 207.705753 172.747703 203.529542 172.747703 199.17559 
C 172.747703 194.821638 171.017859 190.645427 167.939151 187.566719 
C 164.860442 184.48801 160.684231 182.758167 156.330279 182.758167 
C 151.976328 182.758167 147.800117 184.48801 144.721408 187.566719 
C 141.642699 190.645427 139.912856 194.821638 139.912856 199.17559 
C 139.912856 203.529542 141.642699 207.705753 144.721408 210.784461 
C 147.800117 213.86317 151.976328 215.593013 156.330279 215.593013 
z
" clip-path="url(#p8dbe857b08)" style="fill: #a0a0a0"/>
   </g>
   <g id="patch_7">
    <path d="M 238.417396 232.010437 
C 247.125299 232.010437 255.477721 228.55075 261.635138 222.393333 
C 267.792556 216.235915 271.252242 207.883493 271.252242 199.17559 
C 271.252242 190.467687 267.792556 182.115265 261.635138 175.957847 
C 255.477721 169.80043 247.125299 166.340743 238.417396 166.340743 
C 229.709493 166.340743 221.35707 169.80043 215.199653 175.957847 
C 209.042236 182.115265 205.582549 190.467687 205.582549 199.17559 
C 205.582549 207.883493 209.042236 216.235915 215.199653 222.393333 
C 221.35707 228.55075 229.709493 232.010437 238.417396 232.010437 
z
" clip-path="url(#p8dbe857b08)" style="fill: #0dab76"/>
   </g>
   <g id="patch_8">
    <path d="M 238.417396 215.593013 
C 242.771347 215.593013 246.947558 213.86317 250.026267 210.784461 
C 253.104976 207.705753 254.834819 203.529542 254.834819 199.17559 
C 254.834819 194.821638 253.104976 190.645427 250.026267 187.566719 
C 246.947558 184.48801 242.771347 182.758167 238.417396 182.758167 
C 234.063444 182.758167 229.887233 184.48801 226.808524 187.566719 
C 223.729816 190.645427 221.999972 194.821638 221.999972 199.17559 
C 221.999972 203.529542 223.729816 207.705753 226.808524 210.784461 
C 229.887233 213.86317 234.063444 215.593013 238.417396 215.593013 
z
" clip-path="url(#p8dbe857b08)" style="fill: #a0a0a0"/>
   </g>
   <g id="patch_9">
    <path d="M 320.504512 232.010437 
C 329.212415 232.010437 337.564837 228.55075 343.722255 222.393333 
C 349.879672 216.235915 353.339359 207.883493 353.339359 199.17559 
C 353.339359 190.467687 349.879672 182.115265 343.722255 175.957847 
C 337.564837 169.80043 329.212415 166.340743 320.504512 166.340743 
C 311.796609 166.340743 303.444187 169.80043 297.286769 175.957847 
C 291.129352 182.115265 287.669666 190.467687 287.669666 199.17559 
C 287.669666 207.883493 291.129352 216.235915 297.286769 222.393333 
C 303.444187 228.55075 311.796609 232.010437 320.504512 232.010437 
z
" clip-path="url(#p8dbe857b08)" style="fill: #0dab76"/>
   </g>
   <g id="patch_10">
    <path d="M 320.504512 215.593013 
C 324.858464 215.593013 329.034675 213.86317 332.113383 210.784461 
C 335.192092 207.705753 336.921935 203.529542 336.921935 199.17559 
C 336.921935 194.821638 335.192092 190.645427 332.113383 187.566719 
C 329.034675 184.48801 324.858464 182.758167 320.504512 182.758167 
C 316.150561 182.758167 311.974349 184.48801 308.895641 187.566719 
C 305.816932 190.645427 304.087089 194.821638 304.087089 199.17559 
C 304.087089 203.529542 305.816932 207.705753 308.895641 210.784461 
C 311.974349 213.86317 316.150561 215.593013 320.504512 215.593013 
z
" clip-path="url(#p8dbe857b08)" style="fill: #a0a0a0"/>
   </g>
   <g id="matplotlib.axis_1">
    <g id="xtick_1">
     <g id="line2d_14">
      <defs>
       <path id="m8aa2001e11" d="M 0 0 
L 0 3.5 
" style="stroke: #ffffff; stroke-width: 0.8"/>
      </defs>
      <g>
       <use xlink:href="#m8aa2001e11" x="73.114465" y="299.385583" style="fill: #ffffff; stroke: #ffffff; stroke-width: 0.8"/>
      </g>
     </g>
     <g id="text_1">
      <text style="fill: #ffffff; font: 10px 'sans-serif'; text-anchor: middle" x="73.114465" y="313.98402" transform="rotate(-0, 73.114465, 313.98402)">−4</text>
     </g>
    </g>
    <g id="xtick_2">
     <g id="line2d_15">
      <g>
       <use xlink:href="#m8aa2001e11" x="114.158023" y="299.385583" style="fill: #ffffff; stroke: #ffffff; stroke-width: 0.8"/>
      </g>
     </g>
     <g id="text_2">
      <text style="fill: #ffffff; font: 10px 'sans-serif'; text-anchor: middle" x="114.158023" y="313.98402" transform="rotate(-0, 114.158023, 313.98402)">−3</text>
     </g>
    </g>
    <g id="xtick_3">
     <g id="line2d_16">
      <g>
       <use xlink:href="#m8aa2001e11" x="155.201581" y="299.385583" style="fill: #ffffff; stroke: #ffffff; stroke-width: 0.8"/>
      </g>
     </g>
     <g id="text_3">
      <text style="fill: #ffffff; font: 10px 'sans-serif'; text-anchor: middle" x="155.201581" y="313.98402" transform="rotate(-0, 155.201581, 313.98402)">−2</text>
     </g>
    </g>
    <g id="xtick_4">
     <g id="line2d_17">
      <g>
       <use xlink:href="#m8aa2001e11" x="196.24514" y="299.385583" style="fill: #ffffff; stroke: #ffffff; stroke-width: 0.8"/>
      </g>
     </g>
     <g id="text_4">
      <text style="fill: #ffffff; font: 10px 'sans-serif'; text-anchor: middle" x="196.24514" y="313.98402" transform="rotate(-0, 196.24514, 313.98402)">−1</text>
     </g>
    </g>
    <g id="xtick_5">
     <g id="line2d_18">
      <g>
       <use xlink:href="#m8aa2001e11" x="237.288698" y="299.385583" style="fill: #ffffff; stroke: #ffffff; stroke-width: 0.8"/>
      </g>
     </g>
     <g id="text_5">
      <text style="fill: #ffffff; font: 10px 'sans-serif'; text-anchor: middle" x="237.288698" y="313.98402" transform="rotate(-0, 237.288698, 313.98402)">0</text>
     </g>
    </g>
    <g id="xtick_6">
     <g id="line2d_19">
      <g>
       <use xlink:href="#m8aa2001e11" x="278.332256" y="299.385583" style="fill: #ffffff; stroke: #ffffff; stroke-width: 0.8"/>
      </g>
     </g>
     <g id="text_6">
      <text style="fill: #ffffff; font: 10px 'sans-serif'; text-anchor: middle" x="278.332256" y="313.98402" transform="rotate(-0, 278.332256, 313.98402)">1</text>
     </g>
    </g>
    <g id="xtick_7">
     <g id="line2d_20">
      <g>
       <use xlink:href="#m8aa2001e11" x="319.375814" y="299.385583" style="fill: #ffffff; stroke: #ffffff; stroke-width: 0.8"/>
      </g>
     </g>
     <g id="text_7">
      <text style="fill: #ffffff; font: 10px 'sans-serif'; text-anchor: middle" x="319.375814" y="313.98402" transform="rotate(-0, 319.375814, 313.98402)">2</text>
     </g>
    </g>
    <g id="xtick_8">
     <g id="line2d_21">
      <g>
       <use xlink:href="#m8aa2001e11" x="360.419372" y="299.385583" style="fill: #ffffff; stroke: #ffffff; stroke-width: 0.8"/>
      </g>
     </g>
     <g id="text_8">
      <text style="fill: #ffffff; font: 10px 'sans-serif'; text-anchor: middle" x="360.419372" y="313.98402" transform="rotate(-0, 360.419372, 313.98402)">3</text>
     </g>
    </g>
    <g id="xtick_9">
     <g id="line2d_22">
      <g>
       <use xlink:href="#m8aa2001e11" x="401.462931" y="299.385583" style="fill: #ffffff; stroke: #ffffff; stroke-width: 0.8"/>
      </g>
     </g>
     <g id="text_9">
      <text style="fill: #ffffff; font: 10px 'sans-serif'; text-anchor: middle" x="401.462931" y="313.98402" transform="rotate(-0, 401.462931, 313.98402)">4</text>
     </g>
    </g>
   </g>
   <g id="matplotlib.axis_2">
    <g id="ytick_1">
     <g id="line2d_23">
      <defs>
       <path id="m14d13fcd69" d="M 0 0 
L -3.5 0 
" style="stroke: #ffffff; stroke-width: 0.8"/>
      </defs>
      <g>
       <use xlink:href="#m14d13fcd69" x="57.6" y="283.212275" style="fill: #ffffff; stroke: #ffffff; stroke-width: 0.8"/>
      </g>
     </g>
     <g id="text_10">
      <text style="fill: #ffffff; font: 10px 'sans-serif'; text-anchor: end" x="50.6" y="287.011494" transform="rotate(-0, 50.6, 287.011494)">−2</text>
     </g>
    </g>
    <g id="ytick_2">
     <g id="line2d_24">
      <g>
       <use xlink:href="#m14d13fcd69" x="57.6" y="242.168717" style="fill: #ffffff; stroke: #ffffff; stroke-width: 0.8"/>
      </g>
     </g>
     <g id="text_11">
      <text style="fill: #ffffff; font: 10px 'sans-serif'; text-anchor: end" x="50.6" y="245.967936" transform="rotate(-0, 50.6, 245.967936)">−1</text>
     </g>
    </g>
    <g id="ytick_3">
     <g id="line2d_25">
      <g>
       <use xlink:href="#m14d13fcd69" x="57.6" y="201.125159" style="fill: #ffffff; stroke: #ffffff; stroke-width: 0.8"/>
      </g>
     </g>
     <g id="text_12">
      <text style="fill: #ffffff; font: 10px 'sans-serif'; text-anchor: end" x="50.6" y="204.924378" transform="rotate(-0, 50.6, 204.924378)">0</text>
     </g>
    </g>
    <g id="ytick_4">
     <g id="line2d_26">
      <g>
       <use xlink:href="#m14d13fcd69" x="57.6" y="160.081601" style="fill: #ffffff; stroke: #ffffff; stroke-width: 0.8"/>
      </g>
     </g>
     <g id="text_13">
      <text style="fill: #ffffff; font: 10px 'sans-serif'; text-anchor: end" x="50.6" y="163.88082" transform="rotate(-0, 50.6, 163.88082)">1</text>
     </g>
    </g>
    <g id="ytick_5">
     <g id="line2d_27">
      <g>
       <use xlink:href="#m14d13fcd69" x="57.6" y="119.038043" style="fill: #ffffff; stroke: #ffffff; stroke-width: 0.8"/>
      </g>
     </g>
     <g id="text_14">
      <text style="fill: #ffffff; font: 10px 'sans-serif'; text-anchor: end" x="50.6" y="122.837261" transform="rotate(-0, 50.6, 122.837261)">2</text>
     </g>
    </g>
    <g id="ytick_6">
     <g id="line2d_28">
      <g>
       <use xlink:href="#m14d13fcd69" x="57.6" y="77.994484" style="fill: #ffffff; stroke: #ffffff; stroke-width: 0.8"/>
      </g>
     </g>
     <g id="text_15">
      <text style="fill: #ffffff; font: 10px 'sans-serif'; text-anchor: end" x="50.6" y="81.793703" transform="rotate(-0, 50.6, 81.793703)">3</text>
     </g>
    </g>
   </g>
   <g id="patch_11">
    <path d="M 57.6 299.385583 
L 57.6 49.670417 
" style="fill: none; stroke: #ffffff; stroke-width: 0.8; stroke-linejoin: miter; stroke-linecap: square"/>
   </g>
   <g id="patch_12">
    <path d="M 414.72 299.385583 
L 414.72 49.670417 
" style="fill: none; stroke: #ffffff; stroke-width: 0.8; stroke-linejoin: miter; stroke-linecap: square"/>
   </g>
   <g id="patch_13">
    <path d="M 57.6 299.385583 
L 414.72 299.385583 
" style="fill: none; stroke: #ffffff; stroke-width: 0.8; stroke-linejoin: miter; stroke-linecap: square"/>
   </g>
   <g id="patch_14">
    <path d="M 57.6 49.670417 
L 414.72 49.670417 
" style="fill: none; stroke: #ffffff; stroke-width: 0.8; stroke-linejoin: miter; stroke-linecap: square"/>
   </g>
   <g id="text_16">
    <text style="fill: #ffffff; font: 12px 'sans-serif'; text-anchor: middle" x="236.16" y="43.670417" transform="rotate(-0, 236.16, 43.670417)">B3B-PH</text>
   </g>
  </g>
 </g>
 <defs>
  <clipPath id="p8dbe857b08">
   <rect x="57.6" y="49.670417" width="357.12" height="249.715166"/>
  </clipPath>
 </defs>
</svg>
