<?xml version="1.0" encoding="utf-8" standalone="no"?>
<!DOCTYPE svg PUBLIC "-//W3C//DTD SVG 1.1//EN"
  "http://www.w3.org/Graphics/SVG/1.1/DTD/svg11.dtd">
<svg xmlns:xlink="http://www.w3.org/1999/xlink" width="460.8pt" height="345.6pt" viewBox="0 0 460.8 345.6" xmlns="http://www.w3.org/2000/svg" version="1.1">
 <metadata>
  <rdf:RDF xmlns:dc="http://purl.org/dc/elements/1.1/" xmlns:cc="http://creativecommons.org/ns#" xmlns:rdf="http://www.w3.org/1999/02/22-rdf-syntax-ns#">
   <cc:Work>
    <dc:type rdf:resource="http://purl.org/dc/dcmitype/StillImage"/>
    <dc:date>2021-12-22T04:54:07.775801</dc:date>
    <dc:format>image/svg+xml</dc:format>
    <dc:creator>
     <cc:Agent>
      <dc:title>Matplotlib v3.5.1, https://matplotlib.org/</dc:title>
     </cc:Agent>
    </dc:creator>
   </cc:Work>
  </rdf:RDF>
 </metadata>
 <defs>
  <style type="text/css">*{stroke-linejoin: round; stroke-linecap: butt}</style>
 </defs>
 <g id="figure_1">
  <g id="patch_1">
   <path d="M 0 345.6 
L 460.8 345.6 
L 460.8 0 
L 0 0 
z
" style="fill: #2b2b2b"/>
  </g>
  <g id="axes_1">
   <g id="patch_2">
    <path d="M 57.6 276.887236 
L 414.72 276.887236 
L 414.72 72.168764 
L 57.6 72.168764 
z
" style="fill: #2b2b2b"/>
   </g>
   <g id="text_1">
    <text style="fill: #ffffff; font: 1px 'sans-serif'; text-anchor: start" x="71.764864" y="69.066969" transform="rotate(-0, 71.764864, 69.066969)">&gt;NAME</text>
   </g>
   <g id="line2d_1">
    <path d="M 73.832727 81.474149 
L 398.487273 81.474149 
" clip-path="url(#pd247298312)" style="fill: none; stroke: #808080; stroke-width: 5.252373; stroke-linecap: square"/>
   </g>
   <g id="line2d_2">
    <path d="M 398.487273 81.474149 
L 398.487273 267.581851 
" clip-path="url(#pd247298312)" style="fill: none; stroke: #808080; stroke-width: 5.252373; stroke-linecap: square"/>
   </g>
   <g id="line2d_3">
    <path d="M 398.487273 267.581851 
L 73.832727 267.581851 
" clip-path="url(#pd247298312)" style="fill: none; stroke: #808080; stroke-width: 5.252373; stroke-linecap: square"/>
   </g>
   <g id="line2d_4">
    <path d="M 73.832727 267.581851 
L 73.832727 81.474149 
" clip-path="url(#pd247298312)" style="fill: none; stroke: #808080; stroke-width: 5.252373; stroke-linecap: square"/>
   </g>
   <g id="text_2">
    <text style="fill: #ffffff; font: 1px 'sans-serif'; text-anchor: start" x="324.767944" y="247.626969" transform="rotate(-0, 324.767944, 247.626969)">1</text>
   </g>
   <g id="patch_3">
    <path d="M 154.479398 211.129181 
C 163.253858 211.129181 171.670121 207.643051 177.874601 201.438571 
C 184.079081 195.23409 187.565211 186.817828 187.565211 178.043368 
C 187.565211 169.268907 184.079081 160.852645 177.874601 154.648165 
C 171.670121 148.443684 163.253858 144.957554 154.479398 144.957554 
C 145.704937 144.957554 137.288675 148.443684 131.084195 154.648165 
C 124.879714 160.852645 121.393584 169.268907 121.393584 178.043368 
C 121.393584 186.817828 124.879714 195.23409 131.084195 201.438571 
C 137.288675 207.643051 145.704937 211.129181 154.479398 211.129181 
z
" clip-path="url(#pd247298312)" style="fill: #0dab76"/>
   </g>
   <g id="patch_4">
    <path d="M 154.479398 194.586274 
C 158.866628 194.586274 163.074759 192.843209 166.176999 189.740969 
C 169.27924 186.638729 171.022305 182.430598 171.022305 178.043368 
C 171.022305 173.656138 169.27924 169.448006 166.176999 166.345766 
C 163.074759 163.243526 158.866628 161.500461 154.479398 161.500461 
C 150.092168 161.500461 145.884036 163.243526 142.781796 166.345766 
C 139.679556 169.448006 137.936491 173.656138 137.936491 178.043368 
C 137.936491 182.430598 139.679556 186.638729 142.781796 189.740969 
C 145.884036 192.843209 150.092168 194.586274 154.479398 194.586274 
z
" clip-path="url(#pd247298312)" style="fill: #a0a0a0"/>
   </g>
   <g id="patch_5">
    <path d="M 237.193932 211.129181 
C 245.968392 211.129181 254.384654 207.643051 260.589135 201.438571 
C 266.793615 195.23409 270.279745 186.817828 270.279745 178.043368 
C 270.279745 169.268907 266.793615 160.852645 260.589135 154.648165 
C 254.384654 148.443684 245.968392 144.957554 237.193932 144.957554 
C 228.419471 144.957554 220.003209 148.443684 213.798729 154.648165 
C 207.594248 160.852645 204.108118 169.268907 204.108118 178.043368 
C 204.108118 186.817828 207.594248 195.23409 213.798729 201.438571 
C 220.003209 207.643051 228.419471 211.129181 237.193932 211.129181 
z
" clip-path="url(#pd247298312)" style="fill: #0dab76"/>
   </g>
   <g id="patch_6">
    <path d="M 237.193932 194.586274 
C 241.581162 194.586274 245.789293 192.843209 248.891533 189.740969 
C 251.993773 186.638729 253.736838 182.430598 253.736838 178.043368 
C 253.736838 173.656138 251.993773 169.448006 248.891533 166.345766 
C 245.789293 163.243526 241.581162 161.500461 237.193932 161.500461 
C 232.806702 161.500461 228.59857 163.243526 225.49633 166.345766 
C 222.39409 169.448006 220.651025 173.656138 220.651025 178.043368 
C 220.651025 182.430598 222.39409 186.638729 225.49633 189.740969 
C 228.59857 192.843209 232.806702 194.586274 237.193932 194.586274 
z
" clip-path="url(#pd247298312)" style="fill: #a0a0a0"/>
   </g>
   <g id="patch_7">
    <path d="M 319.908466 211.129181 
C 328.682926 211.129181 337.099188 207.643051 343.303669 201.438571 
C 349.508149 195.23409 352.994279 186.817828 352.994279 178.043368 
C 352.994279 169.268907 349.508149 160.852645 343.303669 154.648165 
C 337.099188 148.443684 328.682926 144.957554 319.908466 144.957554 
C 311.134005 144.957554 302.717743 148.443684 296.513262 154.648165 
C 290.308782 160.852645 286.822652 169.268907 286.822652 178.043368 
C 286.822652 186.817828 290.308782 195.23409 296.513262 201.438571 
C 302.717743 207.643051 311.134005 211.129181 319.908466 211.129181 
z
" clip-path="url(#pd247298312)" style="fill: #0dab76"/>
   </g>
   <g id="patch_8">
    <path d="M 319.908466 194.586274 
C 324.295696 194.586274 328.503827 192.843209 331.606067 189.740969 
C 334.708307 186.638729 336.451372 182.430598 336.451372 178.043368 
C 336.451372 173.656138 334.708307 169.448006 331.606067 166.345766 
C 328.503827 163.243526 324.295696 161.500461 319.908466 161.500461 
C 315.521235 161.500461 311.313104 163.243526 308.210864 166.345766 
C 305.108624 169.448006 303.365559 173.656138 303.365559 178.043368 
C 303.365559 182.430598 305.108624 186.638729 308.210864 189.740969 
C 311.313104 192.843209 315.521235 194.586274 319.908466 194.586274 
z
" clip-path="url(#pd247298312)" style="fill: #a0a0a0"/>
   </g>
   <g id="matplotlib.axis_1">
    <g id="xtick_1">
     <g id="line2d_5">
      <defs>
       <path id="mdcfd9b2c43" d="M 0 0 
L 0 3.5 
" style="stroke: #ffffff; stroke-width: 0.8"/>
      </defs>
      <g>
       <use xlink:href="#mdcfd9b2c43" x="70.627539" y="276.887236" style="fill: #ffffff; stroke: #ffffff; stroke-width: 0.8"/>
      </g>
     </g>
     <g id="text_3">
      <text style="fill: #ffffff; font: 10px 'sans-serif'; text-anchor: middle" x="70.627539" y="291.485673" transform="rotate(-0, 70.627539, 291.485673)">−4</text>
     </g>
    </g>
    <g id="xtick_2">
     <g id="line2d_6">
      <g>
       <use xlink:href="#mdcfd9b2c43" x="111.984806" y="276.887236" style="fill: #ffffff; stroke: #ffffff; stroke-width: 0.8"/>
      </g>
     </g>
     <g id="text_4">
      <text style="fill: #ffffff; font: 10px 'sans-serif'; text-anchor: middle" x="111.984806" y="291.485673" transform="rotate(-0, 111.984806, 291.485673)">−3</text>
     </g>
    </g>
    <g id="xtick_3">
     <g id="line2d_7">
      <g>
       <use xlink:href="#mdcfd9b2c43" x="153.342073" y="276.887236" style="fill: #ffffff; stroke: #ffffff; stroke-width: 0.8"/>
      </g>
     </g>
     <g id="text_5">
      <text style="fill: #ffffff; font: 10px 'sans-serif'; text-anchor: middle" x="153.342073" y="291.485673" transform="rotate(-0, 153.342073, 291.485673)">−2</text>
     </g>
    </g>
    <g id="xtick_4">
     <g id="line2d_8">
      <g>
       <use xlink:href="#mdcfd9b2c43" x="194.69934" y="276.887236" style="fill: #ffffff; stroke: #ffffff; stroke-width: 0.8"/>
      </g>
     </g>
     <g id="text_6">
      <text style="fill: #ffffff; font: 10px 'sans-serif'; text-anchor: middle" x="194.69934" y="291.485673" transform="rotate(-0, 194.69934, 291.485673)">−1</text>
     </g>
    </g>
    <g id="xtick_5">
     <g id="line2d_9">
      <g>
       <use xlink:href="#mdcfd9b2c43" x="236.056607" y="276.887236" style="fill: #ffffff; stroke: #ffffff; stroke-width: 0.8"/>
      </g>
     </g>
     <g id="text_7">
      <text style="fill: #ffffff; font: 10px 'sans-serif'; text-anchor: middle" x="236.056607" y="291.485673" transform="rotate(-0, 236.056607, 291.485673)">0</text>
     </g>
    </g>
    <g id="xtick_6">
     <g id="line2d_10">
      <g>
       <use xlink:href="#mdcfd9b2c43" x="277.413874" y="276.887236" style="fill: #ffffff; stroke: #ffffff; stroke-width: 0.8"/>
      </g>
     </g>
     <g id="text_8">
      <text style="fill: #ffffff; font: 10px 'sans-serif'; text-anchor: middle" x="277.413874" y="291.485673" transform="rotate(-0, 277.413874, 291.485673)">1</text>
     </g>
    </g>
    <g id="xtick_7">
     <g id="line2d_11">
      <g>
       <use xlink:href="#mdcfd9b2c43" x="318.771141" y="276.887236" style="fill: #ffffff; stroke: #ffffff; stroke-width: 0.8"/>
      </g>
     </g>
     <g id="text_9">
      <text style="fill: #ffffff; font: 10px 'sans-serif'; text-anchor: middle" x="318.771141" y="291.485673" transform="rotate(-0, 318.771141, 291.485673)">2</text>
     </g>
    </g>
    <g id="xtick_8">
     <g id="line2d_12">
      <g>
       <use xlink:href="#mdcfd9b2c43" x="360.128408" y="276.887236" style="fill: #ffffff; stroke: #ffffff; stroke-width: 0.8"/>
      </g>
     </g>
     <g id="text_10">
      <text style="fill: #ffffff; font: 10px 'sans-serif'; text-anchor: middle" x="360.128408" y="291.485673" transform="rotate(-0, 360.128408, 291.485673)">3</text>
     </g>
    </g>
    <g id="xtick_9">
     <g id="line2d_13">
      <g>
       <use xlink:href="#mdcfd9b2c43" x="401.485675" y="276.887236" style="fill: #ffffff; stroke: #ffffff; stroke-width: 0.8"/>
      </g>
     </g>
     <g id="text_11">
      <text style="fill: #ffffff; font: 10px 'sans-serif'; text-anchor: middle" x="401.485675" y="291.485673" transform="rotate(-0, 401.485675, 291.485673)">4</text>
     </g>
    </g>
   </g>
   <g id="matplotlib.axis_2">
    <g id="ytick_1">
     <g id="line2d_14">
      <defs>
       <path id="m8f55a93d78" d="M 0 0 
L -3.5 0 
" style="stroke: #ffffff; stroke-width: 0.8"/>
      </defs>
      <g>
       <use xlink:href="#m8f55a93d78" x="57.6" y="262.722372" style="fill: #ffffff; stroke: #ffffff; stroke-width: 0.8"/>
      </g>
     </g>
     <g id="text_12">
      <text style="fill: #ffffff; font: 10px 'sans-serif'; text-anchor: end" x="50.6" y="266.52159" transform="rotate(-0, 50.6, 266.52159)">−2</text>
     </g>
    </g>
    <g id="ytick_2">
     <g id="line2d_15">
      <g>
       <use xlink:href="#m8f55a93d78" x="57.6" y="221.365105" style="fill: #ffffff; stroke: #ffffff; stroke-width: 0.8"/>
      </g>
     </g>
     <g id="text_13">
      <text style="fill: #ffffff; font: 10px 'sans-serif'; text-anchor: end" x="50.6" y="225.164324" transform="rotate(-0, 50.6, 225.164324)">−1</text>
     </g>
    </g>
    <g id="ytick_3">
     <g id="line2d_16">
      <g>
       <use xlink:href="#m8f55a93d78" x="57.6" y="180.007838" style="fill: #ffffff; stroke: #ffffff; stroke-width: 0.8"/>
      </g>
     </g>
     <g id="text_14">
      <text style="fill: #ffffff; font: 10px 'sans-serif'; text-anchor: end" x="50.6" y="183.807057" transform="rotate(-0, 50.6, 183.807057)">0</text>
     </g>
    </g>
    <g id="ytick_4">
     <g id="line2d_17">
      <g>
       <use xlink:href="#m8f55a93d78" x="57.6" y="138.650571" style="fill: #ffffff; stroke: #ffffff; stroke-width: 0.8"/>
      </g>
     </g>
     <g id="text_15">
      <text style="fill: #ffffff; font: 10px 'sans-serif'; text-anchor: end" x="50.6" y="142.44979" transform="rotate(-0, 50.6, 142.44979)">1</text>
     </g>
    </g>
    <g id="ytick_5">
     <g id="line2d_18">
      <g>
       <use xlink:href="#m8f55a93d78" x="57.6" y="97.293304" style="fill: #ffffff; stroke: #ffffff; stroke-width: 0.8"/>
      </g>
     </g>
     <g id="text_16">
      <text style="fill: #ffffff; font: 10px 'sans-serif'; text-anchor: end" x="50.6" y="101.092523" transform="rotate(-0, 50.6, 101.092523)">2</text>
     </g>
    </g>
   </g>
   <g id="patch_9">
    <path d="M 57.6 276.887236 
L 57.6 72.168764 
" style="fill: none; stroke: #ffffff; stroke-width: 0.8; stroke-linejoin: miter; stroke-linecap: square"/>
   </g>
   <g id="patch_10">
    <path d="M 414.72 276.887236 
L 414.72 72.168764 
" style="fill: none; stroke: #ffffff; stroke-width: 0.8; stroke-linejoin: miter; stroke-linecap: square"/>
   </g>
   <g id="patch_11">
    <path d="M 57.6 276.887236 
L 414.72 276.887236 
" style="fill: none; stroke: #ffffff; stroke-width: 0.8; stroke-linejoin: miter; stroke-linecap: square"/>
   </g>
   <g id="patch_12">
    <path d="M 57.6 72.168764 
L 414.72 72.168764 
" style="fill: none; stroke: #ffffff; stroke-width: 0.8; stroke-linejoin: miter; stroke-linecap: square"/>
   </g>
   <g id="text_17">
    <text style="fill: #ffffff; font: 12px 'sans-serif'; text-anchor: middle" x="236.16" y="66.168764" transform="rotate(-0, 236.16, 66.168764)">B3B-PH</text>
   </g>
  </g>
 </g>
 <defs>
  <clipPath id="pd247298312">
   <rect x="57.6" y="72.168764" width="357.12" height="204.718471"/>
  </clipPath>
 </defs>
</svg>
