<?xml version="1.0" encoding="utf-8" standalone="no"?>
<!DOCTYPE svg PUBLIC "-//W3C//DTD SVG 1.1//EN"
  "http://www.w3.org/Graphics/SVG/1.1/DTD/svg11.dtd">
<svg xmlns:xlink="http://www.w3.org/1999/xlink" width="460.8pt" height="345.6pt" viewBox="0 0 460.8 345.6" xmlns="http://www.w3.org/2000/svg" version="1.1">
 <metadata>
  <rdf:RDF xmlns:dc="http://purl.org/dc/elements/1.1/" xmlns:cc="http://creativecommons.org/ns#" xmlns:rdf="http://www.w3.org/1999/02/22-rdf-syntax-ns#">
   <cc:Work>
    <dc:type rdf:resource="http://purl.org/dc/dcmitype/StillImage"/>
    <dc:date>2023-02-18T16:06:05.875843</dc:date>
    <dc:format>image/svg+xml</dc:format>
    <dc:creator>
     <cc:Agent>
      <dc:title>Matplotlib v3.5.1, https://matplotlib.org/</dc:title>
     </cc:Agent>
    </dc:creator>
   </cc:Work>
  </rdf:RDF>
 </metadata>
 <defs>
  <style type="text/css">*{stroke-linejoin: round; stroke-linecap: butt}</style>
 </defs>
 <g id="figure_1">
  <g id="patch_1">
   <path d="M 0 345.6 
L 460.8 345.6 
L 460.8 0 
L 0 0 
z
" style="fill: #2b2b2b"/>
  </g>
  <g id="axes_1">
   <g id="patch_2">
    <path d="M 57.6 274.794343 
L 414.72 274.794343 
L 414.72 74.261657 
L 57.6 74.261657 
z
" style="fill: #2b2b2b"/>
   </g>
   <g id="patch_3">
    <path d="M 138.104439 107.801528 
C 138.19185 107.801528 138.275692 107.7668 138.337501 107.704991 
C 138.399309 107.643183 138.434038 107.55934 138.434038 107.47193 
C 138.434038 107.384519 138.399309 107.300677 138.337501 107.238869 
C 138.275692 107.17706 138.19185 107.142331 138.104439 107.142331 
C 138.017029 107.142331 137.933187 107.17706 137.871378 107.238869 
C 137.809569 107.300677 137.774841 107.384519 137.774841 107.47193 
C 137.774841 107.55934 137.809569 107.643183 137.871378 107.704991 
C 137.933187 107.7668 138.017029 107.801528 138.104439 107.801528 
L 138.104439 107.801528 
z
" clip-path="url(#p252546b170)" style="fill: none; stroke: #808080; stroke-width: 3.295985; stroke-linejoin: miter"/>
   </g>
   <g id="line2d_1">
    <path d="M 137.85712 88.259244 
L 151.745679 94.077417 
L 151.745679 94.077417 
L 137.85647 99.895907 
L 137.85647 99.895907 
" clip-path="url(#p252546b170)" style="fill: none; stroke: #808080; stroke-width: 1.071591; stroke-linecap: round"/>
   </g>
   <g id="line2d_2">
    <path d="M 155.151635 104.400669 
L 155.151635 83.752708 
L 166.601867 104.400669 
L 166.601867 83.752708 
" clip-path="url(#p252546b170)" style="fill: none; stroke: #808080; stroke-width: 1.071591; stroke-linecap: round"/>
   </g>
   <g id="line2d_3">
    <path d="M 170.097703 104.025455 
L 177.043163 83.376779 
L 177.043163 83.376779 
L 183.800122 104.025986 
L 183.800122 104.025986 
" clip-path="url(#p252546b170)" style="fill: none; stroke: #808080; stroke-width: 1.071591; stroke-linecap: round"/>
   </g>
   <g id="line2d_4">
    <path d="M 182.112379 98.958238 
L 171.788399 98.958238 
" clip-path="url(#p252546b170)" style="fill: none; stroke: #808080; stroke-width: 1.071591; stroke-linecap: round"/>
   </g>
   <g id="line2d_5">
    <path d="M 186.17292 104.401278 
L 186.17292 83.753318 
L 192.930435 95.20355 
L 192.930435 95.20355 
L 199.875658 83.753318 
L 199.875658 83.753318 
L 199.875658 104.401278 
" clip-path="url(#p252546b170)" style="fill: none; stroke: #808080; stroke-width: 1.071591; stroke-linecap: round"/>
   </g>
   <g id="line2d_6">
    <path d="M 213.696002 104.401394 
L 204.498274 104.401394 
L 204.498274 83.753434 
L 213.696002 83.753434 
" clip-path="url(#p252546b170)" style="fill: none; stroke: #808080; stroke-width: 1.071591; stroke-linecap: round"/>
   </g>
   <g id="line2d_7">
    <path d="M 204.498647 92.951649 
L 211.44387 92.951649 
" clip-path="url(#p252546b170)" style="fill: none; stroke: #808080; stroke-width: 1.071591; stroke-linecap: round"/>
   </g>
   <g id="line2d_8">
    <path d="M 73.832727 117.359886 
L 398.487273 117.359886 
" clip-path="url(#p252546b170)" style="fill: none; stroke: #808080; stroke-width: 4.185901; stroke-linecap: round"/>
   </g>
   <g id="line2d_9">
    <path d="M 398.487273 117.359886 
L 398.487273 265.679221 
" clip-path="url(#p252546b170)" style="fill: none; stroke: #808080; stroke-width: 4.185901; stroke-linecap: round"/>
   </g>
   <g id="line2d_10">
    <path d="M 398.487273 265.679221 
L 73.832727 265.679221 
" clip-path="url(#p252546b170)" style="fill: none; stroke: #808080; stroke-width: 4.185901; stroke-linecap: round"/>
   </g>
   <g id="line2d_11">
    <path d="M 73.832727 265.679221 
L 73.832727 117.359886 
" clip-path="url(#p252546b170)" style="fill: none; stroke: #808080; stroke-width: 4.185901; stroke-linecap: round"/>
   </g>
   <g id="patch_4">
    <path d="M 329.271583 250.105691 
C 329.358993 250.105691 329.442836 250.070962 329.504644 250.009154 
C 329.566453 249.947345 329.601181 249.863503 329.601181 249.776092 
C 329.601181 249.688682 329.566453 249.60484 329.504644 249.543031 
C 329.442836 249.481222 329.358993 249.446494 329.271583 249.446494 
C 329.184172 249.446494 329.10033 249.481222 329.038521 249.543031 
C 328.976713 249.60484 328.941984 249.688682 328.941984 249.776092 
C 328.941984 249.863503 328.976713 249.947345 329.038521 250.009154 
C 329.10033 250.070962 329.184172 250.105691 329.271583 250.105691 
L 329.271583 250.105691 
z
" clip-path="url(#p252546b170)" style="fill: none; stroke: #808080; stroke-width: 3.295985; stroke-linejoin: miter"/>
   </g>
   <g id="line2d_12">
    <path d="M 330.149889 230.56153 
L 335.968174 226.057051 
L 335.968174 226.057051 
L 335.968078 246.705166 
L 335.968078 246.705166 
" clip-path="url(#p252546b170)" style="fill: none; stroke: #808080; stroke-width: 1.071591; stroke-linecap: round"/>
   </g>
   <g id="line2d_13">
    <path d="M 330.150236 246.704734 
L 341.788177 246.704734 
" clip-path="url(#p252546b170)" style="fill: none; stroke: #808080; stroke-width: 1.071591; stroke-linecap: round"/>
   </g>
   <g id="patch_5">
    <path d="M 138.104439 220.689023 
C 145.097283 220.689023 151.80466 217.910736 156.749347 212.966049 
C 161.694035 208.021361 164.472321 201.313985 164.472321 194.321141 
C 164.472321 187.328297 161.694035 180.62092 156.749347 175.676233 
C 151.80466 170.731545 145.097283 167.953259 138.104439 167.953259 
C 131.111595 167.953259 124.404219 170.731545 119.459531 175.676233 
C 114.514844 180.62092 111.736557 187.328297 111.736557 194.321141 
C 111.736557 201.313985 114.514844 208.021361 119.459531 212.966049 
C 124.404219 217.910736 131.111595 220.689023 138.104439 220.689023 
z
" clip-path="url(#p252546b170)" style="fill: #0dab76"/>
   </g>
   <g id="patch_6">
    <path d="M 138.104439 207.505082 
C 141.600861 207.505082 144.95455 206.115939 147.426893 203.643595 
C 149.899237 201.171251 151.28838 197.817563 151.28838 194.321141 
C 151.28838 190.824719 149.899237 187.47103 147.426893 184.998687 
C 144.95455 182.526343 141.600861 181.1372 138.104439 181.1372 
C 134.608017 181.1372 131.254329 182.526343 128.781985 184.998687 
C 126.309642 187.47103 124.920498 190.824719 124.920498 194.321141 
C 124.920498 197.817563 126.309642 201.171251 128.781985 203.643595 
C 131.254329 206.115939 134.608017 207.505082 138.104439 207.505082 
z
" clip-path="url(#p252546b170)" style="fill: #a0a0a0"/>
   </g>
   <g id="patch_7">
    <path d="M 204.024144 220.689023 
C 211.016988 220.689023 217.724365 217.910736 222.669052 212.966049 
C 227.613739 208.021361 230.392026 201.313985 230.392026 194.321141 
C 230.392026 187.328297 227.613739 180.62092 222.669052 175.676233 
C 217.724365 170.731545 211.016988 167.953259 204.024144 167.953259 
C 197.0313 167.953259 190.323923 170.731545 185.379236 175.676233 
C 180.434548 180.62092 177.656262 187.328297 177.656262 194.321141 
C 177.656262 201.313985 180.434548 208.021361 185.379236 212.966049 
C 190.323923 217.910736 197.0313 220.689023 204.024144 220.689023 
z
" clip-path="url(#p252546b170)" style="fill: #0dab76"/>
   </g>
   <g id="patch_8">
    <path d="M 204.024144 207.505082 
C 207.520566 207.505082 210.874254 206.115939 213.346598 203.643595 
C 215.818942 201.171251 217.208085 197.817563 217.208085 194.321141 
C 217.208085 190.824719 215.818942 187.47103 213.346598 184.998687 
C 210.874254 182.526343 207.520566 181.1372 204.024144 181.1372 
C 200.527722 181.1372 197.174034 182.526343 194.70169 184.998687 
C 192.229346 187.47103 190.840203 190.824719 190.840203 194.321141 
C 190.840203 197.817563 192.229346 201.171251 194.70169 203.643595 
C 197.174034 206.115939 200.527722 207.505082 204.024144 207.505082 
z
" clip-path="url(#p252546b170)" style="fill: #a0a0a0"/>
   </g>
   <g id="patch_9">
    <path d="M 269.943849 220.689023 
C 276.936693 220.689023 283.644069 217.910736 288.588757 212.966049 
C 293.533444 208.021361 296.311731 201.313985 296.311731 194.321141 
C 296.311731 187.328297 293.533444 180.62092 288.588757 175.676233 
C 283.644069 170.731545 276.936693 167.953259 269.943849 167.953259 
C 262.951005 167.953259 256.243628 170.731545 251.298941 175.676233 
C 246.354253 180.62092 243.575967 187.328297 243.575967 194.321141 
C 243.575967 201.313985 246.354253 208.021361 251.298941 212.966049 
C 256.243628 217.910736 262.951005 220.689023 269.943849 220.689023 
z
" clip-path="url(#p252546b170)" style="fill: #0dab76"/>
   </g>
   <g id="patch_10">
    <path d="M 269.943849 207.505082 
C 273.440271 207.505082 276.793959 206.115939 279.266303 203.643595 
C 281.738646 201.171251 283.12779 197.817563 283.12779 194.321141 
C 283.12779 190.824719 281.738646 187.47103 279.266303 184.998687 
C 276.793959 182.526343 273.440271 181.1372 269.943849 181.1372 
C 266.447427 181.1372 263.093738 182.526343 260.621395 184.998687 
C 258.149051 187.47103 256.759908 190.824719 256.759908 194.321141 
C 256.759908 197.817563 258.149051 201.171251 260.621395 203.643595 
C 263.093738 206.115939 266.447427 207.505082 269.943849 207.505082 
z
" clip-path="url(#p252546b170)" style="fill: #a0a0a0"/>
   </g>
   <g id="patch_11">
    <path d="M 335.863553 220.689023 
C 342.856397 220.689023 349.563774 217.910736 354.508461 212.966049 
C 359.453149 208.021361 362.231435 201.313985 362.231435 194.321141 
C 362.231435 187.328297 359.453149 180.62092 354.508461 175.676233 
C 349.563774 170.731545 342.856397 167.953259 335.863553 167.953259 
C 328.870709 167.953259 322.163333 170.731545 317.218645 175.676233 
C 312.273958 180.62092 309.495671 187.328297 309.495671 194.321141 
C 309.495671 201.313985 312.273958 208.021361 317.218645 212.966049 
C 322.163333 217.910736 328.870709 220.689023 335.863553 220.689023 
z
" clip-path="url(#p252546b170)" style="fill: #0dab76"/>
   </g>
   <g id="patch_12">
    <path d="M 335.863553 207.505082 
C 339.359975 207.505082 342.713664 206.115939 345.186007 203.643595 
C 347.658351 201.171251 349.047494 197.817563 349.047494 194.321141 
C 349.047494 190.824719 347.658351 187.47103 345.186007 184.998687 
C 342.713664 182.526343 339.359975 181.1372 335.863553 181.1372 
C 332.367131 181.1372 329.013443 182.526343 326.541099 184.998687 
C 324.068756 187.47103 322.679612 190.824719 322.679612 194.321141 
C 322.679612 197.817563 324.068756 201.171251 326.541099 203.643595 
C 329.013443 206.115939 332.367131 207.505082 335.863553 207.505082 
z
" clip-path="url(#p252546b170)" style="fill: #a0a0a0"/>
   </g>
   <g id="matplotlib.axis_1">
    <g id="xtick_1">
     <g id="line2d_14">
      <defs>
       <path id="md040066b74" d="M 0 0 
L 0 3.5 
" style="stroke: #ffffff; stroke-width: 0.8"/>
      </defs>
      <g>
       <use xlink:href="#md040066b74" x="105.803784" y="274.794343" style="fill: #ffffff; stroke: #ffffff; stroke-width: 0.8"/>
      </g>
     </g>
     <g id="text_1">
      <text style="fill: #ffffff; font: 10px 'sans-serif'; text-anchor: middle" x="105.803784" y="289.392781" transform="rotate(-0, 105.803784, 289.392781)">−4</text>
     </g>
    </g>
    <g id="xtick_2">
     <g id="line2d_15">
      <g>
       <use xlink:href="#md040066b74" x="171.723489" y="274.794343" style="fill: #ffffff; stroke: #ffffff; stroke-width: 0.8"/>
      </g>
     </g>
     <g id="text_2">
      <text style="fill: #ffffff; font: 10px 'sans-serif'; text-anchor: middle" x="171.723489" y="289.392781" transform="rotate(-0, 171.723489, 289.392781)">−2</text>
     </g>
    </g>
    <g id="xtick_3">
     <g id="line2d_16">
      <g>
       <use xlink:href="#md040066b74" x="237.643193" y="274.794343" style="fill: #ffffff; stroke: #ffffff; stroke-width: 0.8"/>
      </g>
     </g>
     <g id="text_3">
      <text style="fill: #ffffff; font: 10px 'sans-serif'; text-anchor: middle" x="237.643193" y="289.392781" transform="rotate(-0, 237.643193, 289.392781)">0</text>
     </g>
    </g>
    <g id="xtick_4">
     <g id="line2d_17">
      <g>
       <use xlink:href="#md040066b74" x="303.562898" y="274.794343" style="fill: #ffffff; stroke: #ffffff; stroke-width: 0.8"/>
      </g>
     </g>
     <g id="text_4">
      <text style="fill: #ffffff; font: 10px 'sans-serif'; text-anchor: middle" x="303.562898" y="289.392781" transform="rotate(-0, 303.562898, 289.392781)">2</text>
     </g>
    </g>
    <g id="xtick_5">
     <g id="line2d_18">
      <g>
       <use xlink:href="#md040066b74" x="369.482603" y="274.794343" style="fill: #ffffff; stroke: #ffffff; stroke-width: 0.8"/>
      </g>
     </g>
     <g id="text_5">
      <text style="fill: #ffffff; font: 10px 'sans-serif'; text-anchor: middle" x="369.482603" y="289.392781" transform="rotate(-0, 369.482603, 289.392781)">4</text>
     </g>
    </g>
   </g>
   <g id="matplotlib.axis_2">
    <g id="ytick_1">
     <g id="line2d_19">
      <defs>
       <path id="m1bc663fd81" d="M 0 0 
L -3.5 0 
" style="stroke: #ffffff; stroke-width: 0.8"/>
      </defs>
      <g>
       <use xlink:href="#m1bc663fd81" x="57.6" y="261.806438" style="fill: #ffffff; stroke: #ffffff; stroke-width: 0.8"/>
      </g>
     </g>
     <g id="text_6">
      <text style="fill: #ffffff; font: 10px 'sans-serif'; text-anchor: end" x="50.6" y="265.605657" transform="rotate(-0, 50.6, 265.605657)">−2</text>
     </g>
    </g>
    <g id="ytick_2">
     <g id="line2d_20">
      <g>
       <use xlink:href="#m1bc663fd81" x="57.6" y="228.846586" style="fill: #ffffff; stroke: #ffffff; stroke-width: 0.8"/>
      </g>
     </g>
     <g id="text_7">
      <text style="fill: #ffffff; font: 10px 'sans-serif'; text-anchor: end" x="50.6" y="232.645805" transform="rotate(-0, 50.6, 232.645805)">−1</text>
     </g>
    </g>
    <g id="ytick_3">
     <g id="line2d_21">
      <g>
       <use xlink:href="#m1bc663fd81" x="57.6" y="195.886734" style="fill: #ffffff; stroke: #ffffff; stroke-width: 0.8"/>
      </g>
     </g>
     <g id="text_8">
      <text style="fill: #ffffff; font: 10px 'sans-serif'; text-anchor: end" x="50.6" y="199.685953" transform="rotate(-0, 50.6, 199.685953)">0</text>
     </g>
    </g>
    <g id="ytick_4">
     <g id="line2d_22">
      <g>
       <use xlink:href="#m1bc663fd81" x="57.6" y="162.926881" style="fill: #ffffff; stroke: #ffffff; stroke-width: 0.8"/>
      </g>
     </g>
     <g id="text_9">
      <text style="fill: #ffffff; font: 10px 'sans-serif'; text-anchor: end" x="50.6" y="166.7261" transform="rotate(-0, 50.6, 166.7261)">1</text>
     </g>
    </g>
    <g id="ytick_5">
     <g id="line2d_23">
      <g>
       <use xlink:href="#m1bc663fd81" x="57.6" y="129.967029" style="fill: #ffffff; stroke: #ffffff; stroke-width: 0.8"/>
      </g>
     </g>
     <g id="text_10">
      <text style="fill: #ffffff; font: 10px 'sans-serif'; text-anchor: end" x="50.6" y="133.766248" transform="rotate(-0, 50.6, 133.766248)">2</text>
     </g>
    </g>
    <g id="ytick_6">
     <g id="line2d_24">
      <g>
       <use xlink:href="#m1bc663fd81" x="57.6" y="97.007177" style="fill: #ffffff; stroke: #ffffff; stroke-width: 0.8"/>
      </g>
     </g>
     <g id="text_11">
      <text style="fill: #ffffff; font: 10px 'sans-serif'; text-anchor: end" x="50.6" y="100.806396" transform="rotate(-0, 50.6, 100.806396)">3</text>
     </g>
    </g>
   </g>
   <g id="patch_13">
    <path d="M 57.6 274.794343 
L 57.6 74.261657 
" style="fill: none; stroke: #ffffff; stroke-width: 0.8; stroke-linejoin: miter; stroke-linecap: square"/>
   </g>
   <g id="patch_14">
    <path d="M 414.72 274.794343 
L 414.72 74.261657 
" style="fill: none; stroke: #ffffff; stroke-width: 0.8; stroke-linejoin: miter; stroke-linecap: square"/>
   </g>
   <g id="patch_15">
    <path d="M 57.6 274.794343 
L 414.72 274.794343 
" style="fill: none; stroke: #ffffff; stroke-width: 0.8; stroke-linejoin: miter; stroke-linecap: square"/>
   </g>
   <g id="patch_16">
    <path d="M 57.6 74.261657 
L 414.72 74.261657 
" style="fill: none; stroke: #ffffff; stroke-width: 0.8; stroke-linejoin: miter; stroke-linecap: square"/>
   </g>
   <g id="text_12">
    <text style="fill: #ffffff; font: 12px 'sans-serif'; text-anchor: middle" x="236.16" y="68.261657" transform="rotate(-0, 236.16, 68.261657)">B4B-PH</text>
   </g>
  </g>
 </g>
 <defs>
  <clipPath id="p252546b170">
   <rect x="57.6" y="74.261657" width="357.12" height="200.532686"/>
  </clipPath>
 </defs>
</svg>
