<?xml version="1.0" encoding="utf-8" standalone="no"?>
<!DOCTYPE svg PUBLIC "-//W3C//DTD SVG 1.1//EN"
  "http://www.w3.org/Graphics/SVG/1.1/DTD/svg11.dtd">
<svg xmlns:xlink="http://www.w3.org/1999/xlink" width="460.8pt" height="345.6pt" viewBox="0 0 460.8 345.6" xmlns="http://www.w3.org/2000/svg" version="1.1">
 <metadata>
  <rdf:RDF xmlns:dc="http://purl.org/dc/elements/1.1/" xmlns:cc="http://creativecommons.org/ns#" xmlns:rdf="http://www.w3.org/1999/02/22-rdf-syntax-ns#">
   <cc:Work>
    <dc:type rdf:resource="http://purl.org/dc/dcmitype/StillImage"/>
    <dc:date>2023-02-18T16:06:06.785445</dc:date>
    <dc:format>image/svg+xml</dc:format>
    <dc:creator>
     <cc:Agent>
      <dc:title>Matplotlib v3.5.1, https://matplotlib.org/</dc:title>
     </cc:Agent>
    </dc:creator>
   </cc:Work>
  </rdf:RDF>
 </metadata>
 <defs>
  <style type="text/css">*{stroke-linejoin: round; stroke-linecap: butt}</style>
 </defs>
 <g id="figure_1">
  <g id="patch_1">
   <path d="M 0 345.6 
L 460.8 345.6 
L 460.8 0 
L 0 0 
z
" style="fill: #2b2b2b"/>
  </g>
  <g id="axes_1">
   <g id="patch_2">
    <path d="M 57.6 300.848523 
L 414.72 300.848523 
L 414.72 48.207477 
L 57.6 48.207477 
z
" style="fill: #2b2b2b"/>
   </g>
   <g id="patch_3">
    <path d="M 156.567273 289.364839 
C 156.636708 289.364839 156.703308 289.337253 156.752406 289.288155 
C 156.801504 289.239057 156.829091 289.172456 156.829091 289.103021 
C 156.829091 289.033586 156.801504 288.966986 156.752406 288.917888 
C 156.703308 288.86879 156.636708 288.841203 156.567273 288.841203 
C 156.497838 288.841203 156.431237 288.86879 156.382139 288.917888 
C 156.333041 288.966986 156.305455 289.033586 156.305455 289.103021 
C 156.305455 289.172456 156.333041 289.239057 156.382139 289.288155 
C 156.431237 289.337253 156.497838 289.364839 156.567273 289.364839 
L 156.567273 289.364839 
z
" clip-path="url(#p0d9ed64015)" style="fill: none; stroke: #808080; stroke-width: 2.618182; stroke-linejoin: miter"/>
   </g>
   <g id="line2d_1">
    <path d="M 156.260305 265.256631 
L 173.498499 272.478027 
L 173.498499 272.478027 
L 156.259499 279.699817 
L 156.259499 279.699817 
" clip-path="url(#p0d9ed64015)" style="fill: none; stroke: #808080; stroke-width: 1.330036; stroke-linecap: round"/>
   </g>
   <g id="line2d_2">
    <path d="M 176.326365 259.663853 
L 184.946927 285.292565 
L 184.946927 285.292565 
L 193.333525 259.663193 
L 193.333525 259.663193 
" clip-path="url(#p0d9ed64015)" style="fill: none; stroke: #808080; stroke-width: 1.330036; stroke-linecap: round"/>
   </g>
   <g id="line2d_3">
    <path d="M 196.276654 284.825327 
L 204.897216 259.196615 
L 204.897216 259.196615 
L 213.283815 284.825987 
L 213.283815 284.825987 
" clip-path="url(#p0d9ed64015)" style="fill: none; stroke: #808080; stroke-width: 1.330036; stroke-linecap: round"/>
   </g>
   <g id="line2d_4">
    <path d="M 211.189023 278.536001 
L 198.375111 278.536001 
" clip-path="url(#p0d9ed64015)" style="fill: none; stroke: #808080; stroke-width: 1.330036; stroke-linecap: round"/>
   </g>
   <g id="line2d_5">
    <path d="M 219.022899 259.663988 
L 219.022899 285.291812 
L 230.43893 285.291812 
" clip-path="url(#p0d9ed64015)" style="fill: none; stroke: #808080; stroke-width: 1.330036; stroke-linecap: round"/>
   </g>
   <g id="line2d_6">
    <path d="M 237.576056 259.665072 
L 237.576056 278.070509 
L 237.576056 278.070509 
L 238.042017 280.400311 
L 238.042017 280.400311 
L 238.973937 282.264153 
L 240.604799 283.895014 
L 242.468641 285.059915 
L 244.798443 285.292896 
L 246.895265 285.059915 
L 248.992087 283.895014 
L 250.622948 282.264153 
L 251.554869 280.400311 
L 251.787849 278.070509 
L 251.787849 259.665072 
" clip-path="url(#p0d9ed64015)" style="fill: none; stroke: #808080; stroke-width: 1.330036; stroke-linecap: round"/>
   </g>
   <g id="line2d_7">
    <path d="M 270.340512 285.291935 
L 258.924481 285.291935 
L 258.924481 259.664111 
L 270.340512 259.664111 
" clip-path="url(#p0d9ed64015)" style="fill: none; stroke: #808080; stroke-width: 1.330036; stroke-linecap: round"/>
   </g>
   <g id="line2d_8">
    <path d="M 258.924943 271.080747 
L 267.545211 271.080747 
" clip-path="url(#p0d9ed64015)" style="fill: none; stroke: #808080; stroke-width: 1.330036; stroke-linecap: round"/>
   </g>
   <g id="patch_4">
    <path d="M 156.567273 89.859385 
C 156.636708 89.859385 156.703308 89.831798 156.752406 89.7827 
C 156.801504 89.733602 156.829091 89.667002 156.829091 89.597567 
C 156.829091 89.528132 156.801504 89.461531 156.752406 89.412433 
C 156.703308 89.363335 156.636708 89.335748 156.567273 89.335748 
C 156.497838 89.335748 156.431237 89.363335 156.382139 89.412433 
C 156.333041 89.461531 156.305455 89.528132 156.305455 89.597567 
C 156.305455 89.667002 156.333041 89.733602 156.382139 89.7827 
C 156.431237 89.831798 156.497838 89.859385 156.567273 89.859385 
L 156.567273 89.859385 
z
" clip-path="url(#p0d9ed64015)" style="fill: none; stroke: #808080; stroke-width: 2.618182; stroke-linejoin: miter"/>
   </g>
   <g id="line2d_9">
    <path d="M 156.260305 65.751176 
L 173.498499 72.972573 
L 173.498499 72.972573 
L 156.259499 80.194362 
L 156.259499 80.194362 
" clip-path="url(#p0d9ed64015)" style="fill: none; stroke: #808080; stroke-width: 1.330036; stroke-linecap: round"/>
   </g>
   <g id="line2d_10">
    <path d="M 177.725901 85.78558 
L 177.725901 60.157756 
L 191.937694 85.78558 
L 191.937694 60.157756 
" clip-path="url(#p0d9ed64015)" style="fill: none; stroke: #808080; stroke-width: 1.330036; stroke-linecap: round"/>
   </g>
   <g id="line2d_11">
    <path d="M 196.276654 85.319873 
L 204.897216 59.691161 
L 204.897216 59.691161 
L 213.283815 85.320532 
L 213.283815 85.320532 
" clip-path="url(#p0d9ed64015)" style="fill: none; stroke: #808080; stroke-width: 1.330036; stroke-linecap: round"/>
   </g>
   <g id="line2d_12">
    <path d="M 211.189023 79.030547 
L 198.375111 79.030547 
" clip-path="url(#p0d9ed64015)" style="fill: none; stroke: #808080; stroke-width: 1.330036; stroke-linecap: round"/>
   </g>
   <g id="line2d_13">
    <path d="M 216.228883 85.786337 
L 216.228883 60.158513 
L 224.616171 74.370306 
L 224.616171 74.370306 
L 233.236439 60.158513 
L 233.236439 60.158513 
L 233.236439 85.786337 
" clip-path="url(#p0d9ed64015)" style="fill: none; stroke: #808080; stroke-width: 1.330036; stroke-linecap: round"/>
   </g>
   <g id="line2d_14">
    <path d="M 250.389966 85.786481 
L 238.973935 85.786481 
L 238.973935 60.158657 
L 250.389966 60.158657 
" clip-path="url(#p0d9ed64015)" style="fill: none; stroke: #808080; stroke-width: 1.330036; stroke-linecap: round"/>
   </g>
   <g id="line2d_15">
    <path d="M 238.974398 71.575292 
L 247.594666 71.575292 
" clip-path="url(#p0d9ed64015)" style="fill: none; stroke: #808080; stroke-width: 1.330036; stroke-linecap: round"/>
   </g>
   <g id="line2d_16">
    <path d="M 398.487273 252.186658 
L 73.832727 252.186658 
" clip-path="url(#p0d9ed64015)" style="fill: none; stroke: #808080; stroke-width: 3.325091; stroke-linecap: round"/>
   </g>
   <g id="line2d_17">
    <path d="M 73.832727 252.186658 
L 73.832727 101.641203 
" clip-path="url(#p0d9ed64015)" style="fill: none; stroke: #808080; stroke-width: 3.325091; stroke-linecap: round"/>
   </g>
   <g id="line2d_18">
    <path d="M 73.832727 101.641203 
L 139.025455 101.641203 
" clip-path="url(#p0d9ed64015)" style="fill: none; stroke: #808080; stroke-width: 3.325091; stroke-linecap: round"/>
   </g>
   <g id="line2d_19">
    <path d="M 139.025455 101.641203 
L 333.294545 101.641203 
" clip-path="url(#p0d9ed64015)" style="fill: none; stroke: #808080; stroke-width: 3.325091; stroke-linecap: round"/>
   </g>
   <g id="line2d_20">
    <path d="M 333.294545 101.641203 
L 398.487273 101.641203 
" clip-path="url(#p0d9ed64015)" style="fill: none; stroke: #808080; stroke-width: 3.325091; stroke-linecap: round"/>
   </g>
   <g id="line2d_21">
    <path d="M 398.487273 101.641203 
L 398.487273 252.186658 
" clip-path="url(#p0d9ed64015)" style="fill: none; stroke: #808080; stroke-width: 3.325091; stroke-linecap: round"/>
   </g>
   <g id="line2d_22">
    <path d="M 333.294545 117.350294 
L 139.025455 117.350294 
" clip-path="url(#p0d9ed64015)" style="fill: none; stroke: #808080; stroke-width: 3.325091; stroke-linecap: round"/>
   </g>
   <g id="line2d_23">
    <path d="M 333.294545 101.641203 
L 333.294545 117.350294 
" clip-path="url(#p0d9ed64015)" style="fill: none; stroke: #808080; stroke-width: 3.325091; stroke-linecap: round"/>
   </g>
   <g id="line2d_24">
    <path d="M 139.025455 117.350294 
L 139.025455 101.641203 
" clip-path="url(#p0d9ed64015)" style="fill: none; stroke: #808080; stroke-width: 3.325091; stroke-linecap: round"/>
   </g>
   <g id="patch_5">
    <path d="M 118.341818 228.884839 
C 118.411253 228.884839 118.477854 228.857253 118.526952 228.808155 
C 118.57605 228.759057 118.603636 228.692456 118.603636 228.623021 
C 118.603636 228.553586 118.57605 228.486986 118.526952 228.437888 
C 118.477854 228.38879 118.411253 228.361203 118.341818 228.361203 
C 118.272383 228.361203 118.205783 228.38879 118.156685 228.437888 
C 118.107587 228.486986 118.08 228.553586 118.08 228.623021 
C 118.08 228.692456 118.107587 228.759057 118.156685 228.808155 
C 118.205783 228.857253 118.272383 228.884839 118.341818 228.884839 
L 118.341818 228.884839 
z
" clip-path="url(#p0d9ed64015)" style="fill: none; stroke: #808080; stroke-width: 2.618182; stroke-linejoin: miter"/>
   </g>
   <g id="line2d_25">
    <path d="M 119.431953 204.774302 
L 126.65349 199.183435 
L 126.65349 199.183435 
L 126.65337 224.81145 
L 126.65337 224.81145 
" clip-path="url(#p0d9ed64015)" style="fill: none; stroke: #808080; stroke-width: 1.330036; stroke-linecap: round"/>
   </g>
   <g id="line2d_26">
    <path d="M 119.432384 224.810914 
L 133.877157 224.810914 
" clip-path="url(#p0d9ed64015)" style="fill: none; stroke: #808080; stroke-width: 1.330036; stroke-linecap: round"/>
   </g>
   <g id="patch_6">
    <path d="M 137.978182 189.350294 
C 144.921681 189.350294 151.581728 186.591612 156.491523 181.681817 
C 161.401318 176.772021 164.16 170.111975 164.16 163.168476 
C 164.16 156.224976 161.401318 149.56493 156.491523 144.655135 
C 151.581728 139.745339 144.921681 136.986658 137.978182 136.986658 
C 131.034682 136.986658 124.374636 139.745339 119.464841 144.655135 
C 114.555045 149.56493 111.796364 156.224976 111.796364 163.168476 
C 111.796364 170.111975 114.555045 176.772021 119.464841 181.681817 
C 124.374636 186.591612 131.034682 189.350294 137.978182 189.350294 
z
" clip-path="url(#p0d9ed64015)" style="fill: #0dab76"/>
   </g>
   <g id="patch_7">
    <path d="M 137.978182 176.259385 
C 141.449931 176.259385 144.779955 174.880044 147.234852 172.425146 
C 149.68975 169.970249 151.069091 166.640225 151.069091 163.168476 
C 151.069091 159.696726 149.68975 156.366703 147.234852 153.911805 
C 144.779955 151.456907 141.449931 150.077567 137.978182 150.077567 
C 134.506432 150.077567 131.176409 151.456907 128.721511 153.911805 
C 126.266613 156.366703 124.887273 159.696726 124.887273 163.168476 
C 124.887273 166.640225 126.266613 169.970249 128.721511 172.425146 
C 131.176409 174.880044 134.506432 176.259385 137.978182 176.259385 
z
" clip-path="url(#p0d9ed64015)" style="fill: #a0a0a0"/>
   </g>
   <g id="patch_8">
    <path d="M 203.432727 189.350294 
C 210.376227 189.350294 217.036273 186.591612 221.946068 181.681817 
C 226.855864 176.772021 229.614545 170.111975 229.614545 163.168476 
C 229.614545 156.224976 226.855864 149.56493 221.946068 144.655135 
C 217.036273 139.745339 210.376227 136.986658 203.432727 136.986658 
C 196.489228 136.986658 189.829182 139.745339 184.919386 144.655135 
C 180.009591 149.56493 177.250909 156.224976 177.250909 163.168476 
C 177.250909 170.111975 180.009591 176.772021 184.919386 181.681817 
C 189.829182 186.591612 196.489228 189.350294 203.432727 189.350294 
z
" clip-path="url(#p0d9ed64015)" style="fill: #0dab76"/>
   </g>
   <g id="patch_9">
    <path d="M 203.432727 176.259385 
C 206.904477 176.259385 210.2345 174.880044 212.689398 172.425146 
C 215.144296 169.970249 216.523636 166.640225 216.523636 163.168476 
C 216.523636 159.696726 215.144296 156.366703 212.689398 153.911805 
C 210.2345 151.456907 206.904477 150.077567 203.432727 150.077567 
C 199.960978 150.077567 196.630954 151.456907 194.176057 153.911805 
C 191.721159 156.366703 190.341818 159.696726 190.341818 163.168476 
C 190.341818 166.640225 191.721159 169.970249 194.176057 172.425146 
C 196.630954 174.880044 199.960978 176.259385 203.432727 176.259385 
z
" clip-path="url(#p0d9ed64015)" style="fill: #a0a0a0"/>
   </g>
   <g id="patch_10">
    <path d="M 268.887273 189.350294 
C 275.830772 189.350294 282.490818 186.591612 287.400614 181.681817 
C 292.310409 176.772021 295.069091 170.111975 295.069091 163.168476 
C 295.069091 156.224976 292.310409 149.56493 287.400614 144.655135 
C 282.490818 139.745339 275.830772 136.986658 268.887273 136.986658 
C 261.943773 136.986658 255.283727 139.745339 250.373932 144.655135 
C 245.464136 149.56493 242.705455 156.224976 242.705455 163.168476 
C 242.705455 170.111975 245.464136 176.772021 250.373932 181.681817 
C 255.283727 186.591612 261.943773 189.350294 268.887273 189.350294 
z
" clip-path="url(#p0d9ed64015)" style="fill: #0dab76"/>
   </g>
   <g id="patch_11">
    <path d="M 268.887273 176.259385 
C 272.359022 176.259385 275.689046 174.880044 278.143943 172.425146 
C 280.598841 169.970249 281.978182 166.640225 281.978182 163.168476 
C 281.978182 159.696726 280.598841 156.366703 278.143943 153.911805 
C 275.689046 151.456907 272.359022 150.077567 268.887273 150.077567 
C 265.415523 150.077567 262.0855 151.456907 259.630602 153.911805 
C 257.175704 156.366703 255.796364 159.696726 255.796364 163.168476 
C 255.796364 166.640225 257.175704 169.970249 259.630602 172.425146 
C 262.0855 174.880044 265.415523 176.259385 268.887273 176.259385 
z
" clip-path="url(#p0d9ed64015)" style="fill: #a0a0a0"/>
   </g>
   <g id="patch_12">
    <path d="M 334.341818 189.350294 
C 341.285318 189.350294 347.945364 186.591612 352.855159 181.681817 
C 357.764955 176.772021 360.523636 170.111975 360.523636 163.168476 
C 360.523636 156.224976 357.764955 149.56493 352.855159 144.655135 
C 347.945364 139.745339 341.285318 136.986658 334.341818 136.986658 
C 327.398319 136.986658 320.738272 139.745339 315.828477 144.655135 
C 310.918682 149.56493 308.16 156.224976 308.16 163.168476 
C 308.16 170.111975 310.918682 176.772021 315.828477 181.681817 
C 320.738272 186.591612 327.398319 189.350294 334.341818 189.350294 
z
" clip-path="url(#p0d9ed64015)" style="fill: #0dab76"/>
   </g>
   <g id="patch_13">
    <path d="M 334.341818 176.259385 
C 337.813568 176.259385 341.143591 174.880044 343.598489 172.425146 
C 346.053387 169.970249 347.432727 166.640225 347.432727 163.168476 
C 347.432727 159.696726 346.053387 156.366703 343.598489 153.911805 
C 341.143591 151.456907 337.813568 150.077567 334.341818 150.077567 
C 330.870069 150.077567 327.540045 151.456907 325.085148 153.911805 
C 322.63025 156.366703 321.250909 159.696726 321.250909 163.168476 
C 321.250909 166.640225 322.63025 169.970249 325.085148 172.425146 
C 327.540045 174.880044 330.870069 176.259385 334.341818 176.259385 
z
" clip-path="url(#p0d9ed64015)" style="fill: #a0a0a0"/>
   </g>
   <g id="matplotlib.axis_1">
    <g id="xtick_1">
     <g id="line2d_27">
      <defs>
       <path id="mc903d1d18d" d="M 0 0 
L 0 3.5 
" style="stroke: #ffffff; stroke-width: 0.8"/>
      </defs>
      <g>
       <use xlink:href="#mc903d1d18d" x="79.069091" y="300.848523" style="fill: #ffffff; stroke: #ffffff; stroke-width: 0.8"/>
      </g>
     </g>
     <g id="text_1">
      <text style="fill: #ffffff; font: 10px 'sans-serif'; text-anchor: middle" x="79.069091" y="315.446961" transform="rotate(-0, 79.069091, 315.446961)">−6</text>
     </g>
    </g>
    <g id="xtick_2">
     <g id="line2d_28">
      <g>
       <use xlink:href="#mc903d1d18d" x="131.432727" y="300.848523" style="fill: #ffffff; stroke: #ffffff; stroke-width: 0.8"/>
      </g>
     </g>
     <g id="text_2">
      <text style="fill: #ffffff; font: 10px 'sans-serif'; text-anchor: middle" x="131.432727" y="315.446961" transform="rotate(-0, 131.432727, 315.446961)">−4</text>
     </g>
    </g>
    <g id="xtick_3">
     <g id="line2d_29">
      <g>
       <use xlink:href="#mc903d1d18d" x="183.796364" y="300.848523" style="fill: #ffffff; stroke: #ffffff; stroke-width: 0.8"/>
      </g>
     </g>
     <g id="text_3">
      <text style="fill: #ffffff; font: 10px 'sans-serif'; text-anchor: middle" x="183.796364" y="315.446961" transform="rotate(-0, 183.796364, 315.446961)">−2</text>
     </g>
    </g>
    <g id="xtick_4">
     <g id="line2d_30">
      <g>
       <use xlink:href="#mc903d1d18d" x="236.16" y="300.848523" style="fill: #ffffff; stroke: #ffffff; stroke-width: 0.8"/>
      </g>
     </g>
     <g id="text_4">
      <text style="fill: #ffffff; font: 10px 'sans-serif'; text-anchor: middle" x="236.16" y="315.446961" transform="rotate(-0, 236.16, 315.446961)">0</text>
     </g>
    </g>
    <g id="xtick_5">
     <g id="line2d_31">
      <g>
       <use xlink:href="#mc903d1d18d" x="288.523636" y="300.848523" style="fill: #ffffff; stroke: #ffffff; stroke-width: 0.8"/>
      </g>
     </g>
     <g id="text_5">
      <text style="fill: #ffffff; font: 10px 'sans-serif'; text-anchor: middle" x="288.523636" y="315.446961" transform="rotate(-0, 288.523636, 315.446961)">2</text>
     </g>
    </g>
    <g id="xtick_6">
     <g id="line2d_32">
      <g>
       <use xlink:href="#mc903d1d18d" x="340.887273" y="300.848523" style="fill: #ffffff; stroke: #ffffff; stroke-width: 0.8"/>
      </g>
     </g>
     <g id="text_6">
      <text style="fill: #ffffff; font: 10px 'sans-serif'; text-anchor: middle" x="340.887273" y="315.446961" transform="rotate(-0, 340.887273, 315.446961)">4</text>
     </g>
    </g>
    <g id="xtick_7">
     <g id="line2d_33">
      <g>
       <use xlink:href="#mc903d1d18d" x="393.250909" y="300.848523" style="fill: #ffffff; stroke: #ffffff; stroke-width: 0.8"/>
      </g>
     </g>
     <g id="text_7">
      <text style="fill: #ffffff; font: 10px 'sans-serif'; text-anchor: middle" x="393.250909" y="315.446961" transform="rotate(-0, 393.250909, 315.446961)">6</text>
     </g>
    </g>
   </g>
   <g id="matplotlib.axis_2">
    <g id="ytick_1">
     <g id="line2d_34">
      <defs>
       <path id="m231f9d4d28" d="M 0 0 
L -3.5 0 
" style="stroke: #ffffff; stroke-width: 0.8"/>
      </defs>
      <g>
       <use xlink:href="#m231f9d4d28" x="57.6" y="267.895748" style="fill: #ffffff; stroke: #ffffff; stroke-width: 0.8"/>
      </g>
     </g>
     <g id="text_8">
      <text style="fill: #ffffff; font: 10px 'sans-serif'; text-anchor: end" x="50.6" y="271.694967" transform="rotate(-0, 50.6, 271.694967)">−4</text>
     </g>
    </g>
    <g id="ytick_2">
     <g id="line2d_35">
      <g>
       <use xlink:href="#m231f9d4d28" x="57.6" y="215.532112" style="fill: #ffffff; stroke: #ffffff; stroke-width: 0.8"/>
      </g>
     </g>
     <g id="text_9">
      <text style="fill: #ffffff; font: 10px 'sans-serif'; text-anchor: end" x="50.6" y="219.331331" transform="rotate(-0, 50.6, 219.331331)">−2</text>
     </g>
    </g>
    <g id="ytick_3">
     <g id="line2d_36">
      <g>
       <use xlink:href="#m231f9d4d28" x="57.6" y="163.168476" style="fill: #ffffff; stroke: #ffffff; stroke-width: 0.8"/>
      </g>
     </g>
     <g id="text_10">
      <text style="fill: #ffffff; font: 10px 'sans-serif'; text-anchor: end" x="50.6" y="166.967694" transform="rotate(-0, 50.6, 166.967694)">0</text>
     </g>
    </g>
    <g id="ytick_4">
     <g id="line2d_37">
      <g>
       <use xlink:href="#m231f9d4d28" x="57.6" y="110.804839" style="fill: #ffffff; stroke: #ffffff; stroke-width: 0.8"/>
      </g>
     </g>
     <g id="text_11">
      <text style="fill: #ffffff; font: 10px 'sans-serif'; text-anchor: end" x="50.6" y="114.604058" transform="rotate(-0, 50.6, 114.604058)">2</text>
     </g>
    </g>
    <g id="ytick_5">
     <g id="line2d_38">
      <g>
       <use xlink:href="#m231f9d4d28" x="57.6" y="58.441203" style="fill: #ffffff; stroke: #ffffff; stroke-width: 0.8"/>
      </g>
     </g>
     <g id="text_12">
      <text style="fill: #ffffff; font: 10px 'sans-serif'; text-anchor: end" x="50.6" y="62.240422" transform="rotate(-0, 50.6, 62.240422)">4</text>
     </g>
    </g>
   </g>
   <g id="patch_14">
    <path d="M 57.6 300.848523 
L 57.6 48.207477 
" style="fill: none; stroke: #ffffff; stroke-width: 0.8; stroke-linejoin: miter; stroke-linecap: square"/>
   </g>
   <g id="patch_15">
    <path d="M 414.72 300.848523 
L 414.72 48.207477 
" style="fill: none; stroke: #ffffff; stroke-width: 0.8; stroke-linejoin: miter; stroke-linecap: square"/>
   </g>
   <g id="patch_16">
    <path d="M 57.6 300.848523 
L 414.72 300.848523 
" style="fill: none; stroke: #ffffff; stroke-width: 0.8; stroke-linejoin: miter; stroke-linecap: square"/>
   </g>
   <g id="patch_17">
    <path d="M 57.6 48.207477 
L 414.72 48.207477 
" style="fill: none; stroke: #ffffff; stroke-width: 0.8; stroke-linejoin: miter; stroke-linecap: square"/>
   </g>
   <g id="text_13">
    <text style="fill: #ffffff; font: 12px 'sans-serif'; text-anchor: middle" x="236.16" y="42.207477" transform="rotate(-0, 236.16, 42.207477)">B4B-XH</text>
   </g>
  </g>
 </g>
 <defs>
  <clipPath id="p0d9ed64015">
   <rect x="57.6" y="48.207477" width="357.12" height="252.641047"/>
  </clipPath>
 </defs>
</svg>
