<?xml version="1.0" encoding="utf-8" standalone="no"?>
<!DOCTYPE svg PUBLIC "-//W3C//DTD SVG 1.1//EN"
  "http://www.w3.org/Graphics/SVG/1.1/DTD/svg11.dtd">
<svg xmlns:xlink="http://www.w3.org/1999/xlink" width="460.8pt" height="345.6pt" viewBox="0 0 460.8 345.6" xmlns="http://www.w3.org/2000/svg" version="1.1">
 <metadata>
  <rdf:RDF xmlns:dc="http://purl.org/dc/elements/1.1/" xmlns:cc="http://creativecommons.org/ns#" xmlns:rdf="http://www.w3.org/1999/02/22-rdf-syntax-ns#">
   <cc:Work>
    <dc:type rdf:resource="http://purl.org/dc/dcmitype/StillImage"/>
    <dc:date>2023-02-18T16:06:05.751717</dc:date>
    <dc:format>image/svg+xml</dc:format>
    <dc:creator>
     <cc:Agent>
      <dc:title>Matplotlib v3.5.1, https://matplotlib.org/</dc:title>
     </cc:Agent>
    </dc:creator>
   </cc:Work>
  </rdf:RDF>
 </metadata>
 <defs>
  <style type="text/css">*{stroke-linejoin: round; stroke-linecap: butt}</style>
 </defs>
 <g id="figure_1">
  <g id="patch_1">
   <path d="M 0 345.6 
L 460.8 345.6 
L 460.8 0 
L 0 0 
z
" style="fill: #2b2b2b"/>
  </g>
  <g id="axes_1">
   <g id="patch_2">
    <path d="M 57.6 257.871754 
L 414.72 257.871754 
L 414.72 91.184246 
L 57.6 91.184246 
z
" style="fill: #2b2b2b"/>
   </g>
   <g id="patch_3">
    <path d="M 182.050909 119.06338 
C 182.123567 119.06338 182.193258 119.034513 182.244635 118.983136 
C 182.296012 118.931759 182.324879 118.862068 182.324879 118.78941 
C 182.324879 118.716752 182.296012 118.647061 182.244635 118.595684 
C 182.193258 118.544307 182.123567 118.51544 182.050909 118.51544 
C 181.978251 118.51544 181.90856 118.544307 181.857183 118.595684 
C 181.805806 118.647061 181.776939 118.716752 181.776939 118.78941 
C 181.776939 118.862068 181.805806 118.931759 181.857183 118.983136 
C 181.90856 119.034513 181.978251 119.06338 182.050909 119.06338 
L 182.050909 119.06338 
z
" clip-path="url(#p22b1b0531b)" style="fill: none; stroke: #808080; stroke-width: 2.739701; stroke-linejoin: miter"/>
   </g>
   <g id="line2d_1">
    <path d="M 181.845332 102.819372 
L 193.38983 107.655575 
L 193.38983 107.655575 
L 181.844792 112.492041 
L 181.844792 112.492041 
" clip-path="url(#p22b1b0531b)" style="fill: none; stroke: #808080; stroke-width: 0.890732; stroke-linecap: round"/>
   </g>
   <g id="line2d_2">
    <path d="M 196.220941 116.236505 
L 196.220941 99.073432 
L 205.738645 116.236505 
L 205.738645 99.073432 
" clip-path="url(#p22b1b0531b)" style="fill: none; stroke: #808080; stroke-width: 0.890732; stroke-linecap: round"/>
   </g>
   <g id="line2d_3">
    <path d="M 208.644466 115.924619 
L 214.417697 98.760951 
L 214.417697 98.760951 
L 220.03424 115.92506 
L 220.03424 115.92506 
" clip-path="url(#p22b1b0531b)" style="fill: none; stroke: #808080; stroke-width: 0.890732; stroke-linecap: round"/>
   </g>
   <g id="line2d_4">
    <path d="M 218.631349 111.712628 
L 210.049812 111.712628 
" clip-path="url(#p22b1b0531b)" style="fill: none; stroke: #808080; stroke-width: 0.890732; stroke-linecap: round"/>
   </g>
   <g id="line2d_5">
    <path d="M 222.006566 116.237012 
L 222.006566 99.073939 
L 227.623572 108.591643 
L 227.623572 108.591643 
L 233.396605 99.073939 
L 233.396605 99.073939 
L 233.396605 116.237012 
" clip-path="url(#p22b1b0531b)" style="fill: none; stroke: #808080; stroke-width: 0.890732; stroke-linecap: round"/>
   </g>
   <g id="line2d_6">
    <path d="M 244.884402 116.237108 
L 237.239034 116.237108 
L 237.239034 99.074036 
L 244.884402 99.074036 
" clip-path="url(#p22b1b0531b)" style="fill: none; stroke: #808080; stroke-width: 0.890732; stroke-linecap: round"/>
   </g>
   <g id="line2d_7">
    <path d="M 237.239343 106.719809 
L 243.012377 106.719809 
" clip-path="url(#p22b1b0531b)" style="fill: none; stroke: #808080; stroke-width: 0.890732; stroke-linecap: round"/>
   </g>
   <g id="line2d_8">
    <path d="M 73.832727 127.008513 
L 398.487273 127.008513 
" clip-path="url(#p22b1b0531b)" style="fill: none; stroke: #808080; stroke-width: 3.47942; stroke-linecap: round"/>
   </g>
   <g id="line2d_9">
    <path d="M 398.487273 127.008513 
L 398.487273 250.295049 
" clip-path="url(#p22b1b0531b)" style="fill: none; stroke: #808080; stroke-width: 3.47942; stroke-linecap: round"/>
   </g>
   <g id="line2d_10">
    <path d="M 398.487273 250.295049 
L 73.832727 250.295049 
" clip-path="url(#p22b1b0531b)" style="fill: none; stroke: #808080; stroke-width: 3.47942; stroke-linecap: round"/>
   </g>
   <g id="line2d_11">
    <path d="M 73.832727 250.295049 
L 73.832727 127.008513 
" clip-path="url(#p22b1b0531b)" style="fill: none; stroke: #808080; stroke-width: 3.47942; stroke-linecap: round"/>
   </g>
   <g id="patch_4">
    <path d="M 340.953556 237.349962 
C 341.026214 237.349962 341.095905 237.321095 341.147282 237.269718 
C 341.198659 237.218342 341.227526 237.14865 341.227526 237.075992 
C 341.227526 237.003335 341.198659 236.933643 341.147282 236.882266 
C 341.095905 236.83089 341.026214 236.802022 340.953556 236.802022 
C 340.880898 236.802022 340.811206 236.83089 340.75983 236.882266 
C 340.708453 236.933643 340.679586 237.003335 340.679586 237.075992 
C 340.679586 237.14865 340.708453 237.218342 340.75983 237.269718 
C 340.811206 237.321095 340.880898 237.349962 340.953556 237.349962 
L 340.953556 237.349962 
z
" clip-path="url(#p22b1b0531b)" style="fill: none; stroke: #808080; stroke-width: 2.739701; stroke-linejoin: miter"/>
   </g>
   <g id="line2d_12">
    <path d="M 341.683624 221.104394 
L 346.519921 217.360165 
L 346.519921 217.360165 
L 346.519841 234.523366 
L 346.519841 234.523366 
" clip-path="url(#p22b1b0531b)" style="fill: none; stroke: #808080; stroke-width: 0.890732; stroke-linecap: round"/>
   </g>
   <g id="line2d_13">
    <path d="M 341.683913 234.523007 
L 351.357645 234.523007 
" clip-path="url(#p22b1b0531b)" style="fill: none; stroke: #808080; stroke-width: 0.890732; stroke-linecap: round"/>
   </g>
   <g id="patch_5">
    <path d="M 127.256893 212.898133 
C 133.06951 212.898133 138.64484 210.588755 142.754981 206.478614 
C 146.865122 202.368473 149.174499 196.793144 149.174499 190.980526 
C 149.174499 185.167909 146.865122 179.592579 142.754981 175.482438 
C 138.64484 171.372297 133.06951 169.06292 127.256893 169.06292 
C 121.444276 169.06292 115.868946 171.372297 111.758805 175.482438 
C 107.648664 179.592579 105.339287 185.167909 105.339287 190.980526 
C 105.339287 196.793144 107.648664 202.368473 111.758805 206.478614 
C 115.868946 210.588755 121.444276 212.898133 127.256893 212.898133 
z
" clip-path="url(#p22b1b0531b)" style="fill: #0dab76"/>
   </g>
   <g id="patch_6">
    <path d="M 127.256893 201.93933 
C 130.163202 201.93933 132.950867 200.784641 135.005937 198.72957 
C 137.061008 196.6745 138.215696 193.886835 138.215696 190.980526 
C 138.215696 188.074218 137.061008 185.286553 135.005937 183.231482 
C 132.950867 181.176412 130.163202 180.021723 127.256893 180.021723 
C 124.350584 180.021723 121.562919 181.176412 119.507849 183.231482 
C 117.452778 185.286553 116.29809 188.074218 116.29809 190.980526 
C 116.29809 193.886835 117.452778 196.6745 119.507849 198.72957 
C 121.562919 200.784641 124.350584 201.93933 127.256893 201.93933 
z
" clip-path="url(#p22b1b0531b)" style="fill: #a0a0a0"/>
   </g>
   <g id="patch_7">
    <path d="M 182.050909 212.898133 
C 187.863526 212.898133 193.438856 210.588755 197.548997 206.478614 
C 201.659138 202.368473 203.968516 196.793144 203.968516 190.980526 
C 203.968516 185.167909 201.659138 179.592579 197.548997 175.482438 
C 193.438856 171.372297 187.863526 169.06292 182.050909 169.06292 
C 176.238292 169.06292 170.662962 171.372297 166.552821 175.482438 
C 162.44268 179.592579 160.133303 185.167909 160.133303 190.980526 
C 160.133303 196.793144 162.44268 202.368473 166.552821 206.478614 
C 170.662962 210.588755 176.238292 212.898133 182.050909 212.898133 
z
" clip-path="url(#p22b1b0531b)" style="fill: #0dab76"/>
   </g>
   <g id="patch_8">
    <path d="M 182.050909 201.93933 
C 184.957218 201.93933 187.744883 200.784641 189.799953 198.72957 
C 191.855024 196.6745 193.009712 193.886835 193.009712 190.980526 
C 193.009712 188.074218 191.855024 185.286553 189.799953 183.231482 
C 187.744883 181.176412 184.957218 180.021723 182.050909 180.021723 
C 179.144601 180.021723 176.356936 181.176412 174.301865 183.231482 
C 172.246795 185.286553 171.092106 188.074218 171.092106 190.980526 
C 171.092106 193.886835 172.246795 196.6745 174.301865 198.72957 
C 176.356936 200.784641 179.144601 201.93933 182.050909 201.93933 
z
" clip-path="url(#p22b1b0531b)" style="fill: #a0a0a0"/>
   </g>
   <g id="patch_9">
    <path d="M 236.844925 212.898133 
C 242.657542 212.898133 248.232872 210.588755 252.343013 206.478614 
C 256.453154 202.368473 258.762532 196.793144 258.762532 190.980526 
C 258.762532 185.167909 256.453154 179.592579 252.343013 175.482438 
C 248.232872 171.372297 242.657542 169.06292 236.844925 169.06292 
C 231.032308 169.06292 225.456978 171.372297 221.346837 175.482438 
C 217.236696 179.592579 214.927319 185.167909 214.927319 190.980526 
C 214.927319 196.793144 217.236696 202.368473 221.346837 206.478614 
C 225.456978 210.588755 231.032308 212.898133 236.844925 212.898133 
z
" clip-path="url(#p22b1b0531b)" style="fill: #0dab76"/>
   </g>
   <g id="patch_10">
    <path d="M 236.844925 201.93933 
C 239.751234 201.93933 242.538899 200.784641 244.593969 198.72957 
C 246.64904 196.6745 247.803728 193.886835 247.803728 190.980526 
C 247.803728 188.074218 246.64904 185.286553 244.593969 183.231482 
C 242.538899 181.176412 239.751234 180.021723 236.844925 180.021723 
C 233.938617 180.021723 231.150952 181.176412 229.095881 183.231482 
C 227.040811 185.286553 225.886122 188.074218 225.886122 190.980526 
C 225.886122 193.886835 227.040811 196.6745 229.095881 198.72957 
C 231.150952 200.784641 233.938617 201.93933 236.844925 201.93933 
z
" clip-path="url(#p22b1b0531b)" style="fill: #a0a0a0"/>
   </g>
   <g id="patch_11">
    <path d="M 291.638941 212.898133 
C 297.451558 212.898133 303.026888 210.588755 307.137029 206.478614 
C 311.24717 202.368473 313.556548 196.793144 313.556548 190.980526 
C 313.556548 185.167909 311.24717 179.592579 307.137029 175.482438 
C 303.026888 171.372297 297.451558 169.06292 291.638941 169.06292 
C 285.826324 169.06292 280.250994 171.372297 276.140853 175.482438 
C 272.030712 179.592579 269.721335 185.167909 269.721335 190.980526 
C 269.721335 196.793144 272.030712 202.368473 276.140853 206.478614 
C 280.250994 210.588755 285.826324 212.898133 291.638941 212.898133 
z
" clip-path="url(#p22b1b0531b)" style="fill: #0dab76"/>
   </g>
   <g id="patch_12">
    <path d="M 291.638941 201.93933 
C 294.54525 201.93933 297.332915 200.784641 299.387985 198.72957 
C 301.443056 196.6745 302.597745 193.886835 302.597745 190.980526 
C 302.597745 188.074218 301.443056 185.286553 299.387985 183.231482 
C 297.332915 181.176412 294.54525 180.021723 291.638941 180.021723 
C 288.732633 180.021723 285.944968 181.176412 283.889897 183.231482 
C 281.834827 185.286553 280.680138 188.074218 280.680138 190.980526 
C 280.680138 193.886835 281.834827 196.6745 283.889897 198.72957 
C 285.944968 200.784641 288.732633 201.93933 291.638941 201.93933 
z
" clip-path="url(#p22b1b0531b)" style="fill: #a0a0a0"/>
   </g>
   <g id="patch_13">
    <path d="M 346.432957 212.898133 
C 352.245575 212.898133 357.820905 210.588755 361.931046 206.478614 
C 366.041187 202.368473 368.350564 196.793144 368.350564 190.980526 
C 368.350564 185.167909 366.041187 179.592579 361.931046 175.482438 
C 357.820905 171.372297 352.245575 169.06292 346.432957 169.06292 
C 340.62034 169.06292 335.04501 171.372297 330.934869 175.482438 
C 326.824728 179.592579 324.515351 185.167909 324.515351 190.980526 
C 324.515351 196.793144 326.824728 202.368473 330.934869 206.478614 
C 335.04501 210.588755 340.62034 212.898133 346.432957 212.898133 
z
" clip-path="url(#p22b1b0531b)" style="fill: #0dab76"/>
   </g>
   <g id="patch_14">
    <path d="M 346.432957 201.93933 
C 349.339266 201.93933 352.126931 200.784641 354.182001 198.72957 
C 356.237072 196.6745 357.391761 193.886835 357.391761 190.980526 
C 357.391761 188.074218 356.237072 185.286553 354.182001 183.231482 
C 352.126931 181.176412 349.339266 180.021723 346.432957 180.021723 
C 343.526649 180.021723 340.738984 181.176412 338.683913 183.231482 
C 336.628843 185.286553 335.474154 188.074218 335.474154 190.980526 
C 335.474154 193.886835 336.628843 196.6745 338.683913 198.72957 
C 340.738984 200.784641 343.526649 201.93933 346.432957 201.93933 
z
" clip-path="url(#p22b1b0531b)" style="fill: #a0a0a0"/>
   </g>
   <g id="matplotlib.axis_1">
    <g id="xtick_1">
     <g id="line2d_14">
      <defs>
       <path id="m94cc40d32c" d="M 0 0 
L 0 3.5 
" style="stroke: #ffffff; stroke-width: 0.8"/>
      </defs>
      <g>
       <use xlink:href="#m94cc40d32c" x="72.462877" y="257.871754" style="fill: #ffffff; stroke: #ffffff; stroke-width: 0.8"/>
      </g>
     </g>
     <g id="text_1">
      <text style="fill: #ffffff; font: 10px 'sans-serif'; text-anchor: middle" x="72.462877" y="272.470191" transform="rotate(-0, 72.462877, 272.470191)">−6</text>
     </g>
    </g>
    <g id="xtick_2">
     <g id="line2d_15">
      <g>
       <use xlink:href="#m94cc40d32c" x="127.256893" y="257.871754" style="fill: #ffffff; stroke: #ffffff; stroke-width: 0.8"/>
      </g>
     </g>
     <g id="text_2">
      <text style="fill: #ffffff; font: 10px 'sans-serif'; text-anchor: middle" x="127.256893" y="272.470191" transform="rotate(-0, 127.256893, 272.470191)">−4</text>
     </g>
    </g>
    <g id="xtick_3">
     <g id="line2d_16">
      <g>
       <use xlink:href="#m94cc40d32c" x="182.050909" y="257.871754" style="fill: #ffffff; stroke: #ffffff; stroke-width: 0.8"/>
      </g>
     </g>
     <g id="text_3">
      <text style="fill: #ffffff; font: 10px 'sans-serif'; text-anchor: middle" x="182.050909" y="272.470191" transform="rotate(-0, 182.050909, 272.470191)">−2</text>
     </g>
    </g>
    <g id="xtick_4">
     <g id="line2d_17">
      <g>
       <use xlink:href="#m94cc40d32c" x="236.844925" y="257.871754" style="fill: #ffffff; stroke: #ffffff; stroke-width: 0.8"/>
      </g>
     </g>
     <g id="text_4">
      <text style="fill: #ffffff; font: 10px 'sans-serif'; text-anchor: middle" x="236.844925" y="272.470191" transform="rotate(-0, 236.844925, 272.470191)">0</text>
     </g>
    </g>
    <g id="xtick_5">
     <g id="line2d_18">
      <g>
       <use xlink:href="#m94cc40d32c" x="291.638941" y="257.871754" style="fill: #ffffff; stroke: #ffffff; stroke-width: 0.8"/>
      </g>
     </g>
     <g id="text_5">
      <text style="fill: #ffffff; font: 10px 'sans-serif'; text-anchor: middle" x="291.638941" y="272.470191" transform="rotate(-0, 291.638941, 272.470191)">2</text>
     </g>
    </g>
    <g id="xtick_6">
     <g id="line2d_19">
      <g>
       <use xlink:href="#m94cc40d32c" x="346.432957" y="257.871754" style="fill: #ffffff; stroke: #ffffff; stroke-width: 0.8"/>
      </g>
     </g>
     <g id="text_6">
      <text style="fill: #ffffff; font: 10px 'sans-serif'; text-anchor: middle" x="346.432957" y="272.470191" transform="rotate(-0, 346.432957, 272.470191)">4</text>
     </g>
    </g>
    <g id="xtick_7">
     <g id="line2d_20">
      <g>
       <use xlink:href="#m94cc40d32c" x="401.226974" y="257.871754" style="fill: #ffffff; stroke: #ffffff; stroke-width: 0.8"/>
      </g>
     </g>
     <g id="text_7">
      <text style="fill: #ffffff; font: 10px 'sans-serif'; text-anchor: middle" x="401.226974" y="272.470191" transform="rotate(-0, 401.226974, 272.470191)">6</text>
     </g>
    </g>
   </g>
   <g id="matplotlib.axis_2">
    <g id="ytick_1">
     <g id="line2d_21">
      <defs>
       <path id="m947c6fff60" d="M 0 0 
L -3.5 0 
" style="stroke: #ffffff; stroke-width: 0.8"/>
      </defs>
      <g>
       <use xlink:href="#m947c6fff60" x="57.6" y="247.0759" style="fill: #ffffff; stroke: #ffffff; stroke-width: 0.8"/>
      </g>
     </g>
     <g id="text_8">
      <text style="fill: #ffffff; font: 10px 'sans-serif'; text-anchor: end" x="50.6" y="250.875119" transform="rotate(-0, 50.6, 250.875119)">−2</text>
     </g>
    </g>
    <g id="ytick_2">
     <g id="line2d_22">
      <g>
       <use xlink:href="#m947c6fff60" x="57.6" y="219.678892" style="fill: #ffffff; stroke: #ffffff; stroke-width: 0.8"/>
      </g>
     </g>
     <g id="text_9">
      <text style="fill: #ffffff; font: 10px 'sans-serif'; text-anchor: end" x="50.6" y="223.478111" transform="rotate(-0, 50.6, 223.478111)">−1</text>
     </g>
    </g>
    <g id="ytick_3">
     <g id="line2d_23">
      <g>
       <use xlink:href="#m947c6fff60" x="57.6" y="192.281884" style="fill: #ffffff; stroke: #ffffff; stroke-width: 0.8"/>
      </g>
     </g>
     <g id="text_10">
      <text style="fill: #ffffff; font: 10px 'sans-serif'; text-anchor: end" x="50.6" y="196.081103" transform="rotate(-0, 50.6, 196.081103)">0</text>
     </g>
    </g>
    <g id="ytick_4">
     <g id="line2d_24">
      <g>
       <use xlink:href="#m947c6fff60" x="57.6" y="164.884876" style="fill: #ffffff; stroke: #ffffff; stroke-width: 0.8"/>
      </g>
     </g>
     <g id="text_11">
      <text style="fill: #ffffff; font: 10px 'sans-serif'; text-anchor: end" x="50.6" y="168.684095" transform="rotate(-0, 50.6, 168.684095)">1</text>
     </g>
    </g>
    <g id="ytick_5">
     <g id="line2d_25">
      <g>
       <use xlink:href="#m947c6fff60" x="57.6" y="137.487868" style="fill: #ffffff; stroke: #ffffff; stroke-width: 0.8"/>
      </g>
     </g>
     <g id="text_12">
      <text style="fill: #ffffff; font: 10px 'sans-serif'; text-anchor: end" x="50.6" y="141.287087" transform="rotate(-0, 50.6, 141.287087)">2</text>
     </g>
    </g>
    <g id="ytick_6">
     <g id="line2d_26">
      <g>
       <use xlink:href="#m947c6fff60" x="57.6" y="110.09086" style="fill: #ffffff; stroke: #ffffff; stroke-width: 0.8"/>
      </g>
     </g>
     <g id="text_13">
      <text style="fill: #ffffff; font: 10px 'sans-serif'; text-anchor: end" x="50.6" y="113.890079" transform="rotate(-0, 50.6, 113.890079)">3</text>
     </g>
    </g>
   </g>
   <g id="patch_15">
    <path d="M 57.6 257.871754 
L 57.6 91.184246 
" style="fill: none; stroke: #ffffff; stroke-width: 0.8; stroke-linejoin: miter; stroke-linecap: square"/>
   </g>
   <g id="patch_16">
    <path d="M 414.72 257.871754 
L 414.72 91.184246 
" style="fill: none; stroke: #ffffff; stroke-width: 0.8; stroke-linejoin: miter; stroke-linecap: square"/>
   </g>
   <g id="patch_17">
    <path d="M 57.6 257.871754 
L 414.72 257.871754 
" style="fill: none; stroke: #ffffff; stroke-width: 0.8; stroke-linejoin: miter; stroke-linecap: square"/>
   </g>
   <g id="patch_18">
    <path d="M 57.6 91.184246 
L 414.72 91.184246 
" style="fill: none; stroke: #ffffff; stroke-width: 0.8; stroke-linejoin: miter; stroke-linecap: square"/>
   </g>
   <g id="text_14">
    <text style="fill: #ffffff; font: 12px 'sans-serif'; text-anchor: middle" x="236.16" y="85.184246" transform="rotate(-0, 236.16, 85.184246)">B5B-PH</text>
   </g>
  </g>
 </g>
 <defs>
  <clipPath id="p22b1b0531b">
   <rect x="57.6" y="91.184246" width="357.12" height="166.687507"/>
  </clipPath>
 </defs>
</svg>
