<?xml version="1.0" encoding="utf-8" standalone="no"?>
<!DOCTYPE svg PUBLIC "-//W3C//DTD SVG 1.1//EN"
  "http://www.w3.org/Graphics/SVG/1.1/DTD/svg11.dtd">
<svg xmlns:xlink="http://www.w3.org/1999/xlink" width="460.8pt" height="345.6pt" viewBox="0 0 460.8 345.6" xmlns="http://www.w3.org/2000/svg" version="1.1">
 <metadata>
  <rdf:RDF xmlns:dc="http://purl.org/dc/elements/1.1/" xmlns:cc="http://creativecommons.org/ns#" xmlns:rdf="http://www.w3.org/1999/02/22-rdf-syntax-ns#">
   <cc:Work>
    <dc:type rdf:resource="http://purl.org/dc/dcmitype/StillImage"/>
    <dc:date>2023-02-18T16:06:06.965606</dc:date>
    <dc:format>image/svg+xml</dc:format>
    <dc:creator>
     <cc:Agent>
      <dc:title>Matplotlib v3.5.1, https://matplotlib.org/</dc:title>
     </cc:Agent>
    </dc:creator>
   </cc:Work>
  </rdf:RDF>
 </metadata>
 <defs>
  <style type="text/css">*{stroke-linejoin: round; stroke-linecap: butt}</style>
 </defs>
 <g id="figure_1">
  <g id="patch_1">
   <path d="M 0 345.6 
L 460.8 345.6 
L 460.8 0 
L 0 0 
z
" style="fill: #2b2b2b"/>
  </g>
  <g id="axes_1">
   <g id="patch_2">
    <path d="M 57.6 264.549522 
L 414.72 264.549522 
L 414.72 84.506478 
L 57.6 84.506478 
z
" style="fill: #2b2b2b"/>
   </g>
   <g id="patch_3">
    <path d="M 179.438746 256.365748 
C 179.488228 256.365748 179.535691 256.346088 179.57068 256.311099 
C 179.60567 256.276109 179.625329 256.228647 179.625329 256.179165 
C 179.625329 256.129682 179.60567 256.08222 179.57068 256.04723 
C 179.535691 256.012241 179.488228 255.992581 179.438746 255.992581 
C 179.389264 255.992581 179.341801 256.012241 179.306812 256.04723 
C 179.271823 256.08222 179.252163 256.129682 179.252163 256.179165 
C 179.252163 256.228647 179.271823 256.276109 179.306812 256.311099 
C 179.341801 256.346088 179.389264 256.365748 179.438746 256.365748 
L 179.438746 256.365748 
z
" clip-path="url(#p60b80f0b66)" style="fill: none; stroke: #808080; stroke-width: 1.865831; stroke-linejoin: miter"/>
   </g>
   <g id="line2d_1">
    <path d="M 179.219988 239.185185 
L 191.504678 244.331468 
L 191.504678 244.331468 
L 179.219413 249.47803 
L 179.219413 249.47803 
" clip-path="url(#p60b80f0b66)" style="fill: none; stroke: #808080; stroke-width: 0.947842; stroke-linecap: round"/>
   </g>
   <g id="line2d_2">
    <path d="M 193.519938 235.199527 
L 199.663327 253.463667 
L 199.663327 253.463667 
L 205.639984 235.199057 
L 205.639984 235.199057 
" clip-path="url(#p60b80f0b66)" style="fill: none; stroke: #808080; stroke-width: 0.947842; stroke-linecap: round"/>
   </g>
   <g id="line2d_3">
    <path d="M 207.737386 253.130693 
L 213.880775 234.866553 
L 213.880775 234.866553 
L 219.857431 253.131163 
L 219.857431 253.131163 
" clip-path="url(#p60b80f0b66)" style="fill: none; stroke: #808080; stroke-width: 0.947842; stroke-linecap: round"/>
   </g>
   <g id="line2d_4">
    <path d="M 218.364591 248.648645 
L 209.232838 248.648645 
" clip-path="url(#p60b80f0b66)" style="fill: none; stroke: #808080; stroke-width: 0.947842; stroke-linecap: round"/>
   </g>
   <g id="line2d_5">
    <path d="M 223.947353 235.199624 
L 223.947353 253.463131 
L 232.082915 253.463131 
" clip-path="url(#p60b80f0b66)" style="fill: none; stroke: #808080; stroke-width: 0.947842; stroke-linecap: round"/>
   </g>
   <g id="line2d_6">
    <path d="M 237.169143 235.200396 
L 237.169143 248.316914 
L 237.169143 248.316914 
L 237.501207 249.977233 
L 237.501207 249.977233 
L 238.165335 251.305488 
L 239.327558 252.467711 
L 240.655813 253.297871 
L 242.316132 253.463903 
L 243.810419 253.297871 
L 245.304706 252.467711 
L 246.466929 251.305488 
L 247.131056 249.977233 
L 247.297088 248.316914 
L 247.297088 235.200396 
" clip-path="url(#p60b80f0b66)" style="fill: none; stroke: #808080; stroke-width: 0.947842; stroke-linecap: round"/>
   </g>
   <g id="line2d_7">
    <path d="M 260.518525 253.463218 
L 252.382963 253.463218 
L 252.382963 235.199712 
L 260.518525 235.199712 
" clip-path="url(#p60b80f0b66)" style="fill: none; stroke: #808080; stroke-width: 0.947842; stroke-linecap: round"/>
   </g>
   <g id="line2d_8">
    <path d="M 252.383293 243.335705 
L 258.526472 243.335705 
" clip-path="url(#p60b80f0b66)" style="fill: none; stroke: #808080; stroke-width: 0.947842; stroke-linecap: round"/>
   </g>
   <g id="patch_4">
    <path d="M 179.438746 114.189447 
C 179.488228 114.189447 179.535691 114.169787 179.57068 114.134798 
C 179.60567 114.099808 179.625329 114.052346 179.625329 114.002864 
C 179.625329 113.953381 179.60567 113.905919 179.57068 113.870929 
C 179.535691 113.83594 179.488228 113.81628 179.438746 113.81628 
C 179.389264 113.81628 179.341801 113.83594 179.306812 113.870929 
C 179.271823 113.905919 179.252163 113.953381 179.252163 114.002864 
C 179.252163 114.052346 179.271823 114.099808 179.306812 114.134798 
C 179.341801 114.169787 179.389264 114.189447 179.438746 114.189447 
L 179.438746 114.189447 
z
" clip-path="url(#p60b80f0b66)" style="fill: none; stroke: #808080; stroke-width: 1.865831; stroke-linejoin: miter"/>
   </g>
   <g id="line2d_9">
    <path d="M 179.219988 97.008884 
L 191.504678 102.155167 
L 191.504678 102.155167 
L 179.219413 107.30173 
L 179.219413 107.30173 
" clip-path="url(#p60b80f0b66)" style="fill: none; stroke: #808080; stroke-width: 0.947842; stroke-linecap: round"/>
   </g>
   <g id="line2d_10">
    <path d="M 194.517309 111.286276 
L 194.517309 93.022769 
L 204.645253 111.286276 
L 204.645253 93.022769 
" clip-path="url(#p60b80f0b66)" style="fill: none; stroke: #808080; stroke-width: 0.947842; stroke-linecap: round"/>
   </g>
   <g id="line2d_11">
    <path d="M 207.737386 110.954392 
L 213.880775 92.690252 
L 213.880775 92.690252 
L 219.857431 110.954862 
L 219.857431 110.954862 
" clip-path="url(#p60b80f0b66)" style="fill: none; stroke: #808080; stroke-width: 0.947842; stroke-linecap: round"/>
   </g>
   <g id="line2d_12">
    <path d="M 218.364591 106.472344 
L 209.232838 106.472344 
" clip-path="url(#p60b80f0b66)" style="fill: none; stroke: #808080; stroke-width: 0.947842; stroke-linecap: round"/>
   </g>
   <g id="line2d_13">
    <path d="M 221.956215 111.286815 
L 221.956215 93.023308 
L 227.933363 103.151253 
L 227.933363 103.151253 
L 234.076543 93.023308 
L 234.076543 93.023308 
L 234.076543 111.286815 
" clip-path="url(#p60b80f0b66)" style="fill: none; stroke: #808080; stroke-width: 0.947842; stroke-linecap: round"/>
   </g>
   <g id="line2d_14">
    <path d="M 246.300895 111.286917 
L 238.165333 111.286917 
L 238.165333 93.023411 
L 246.300895 93.023411 
" clip-path="url(#p60b80f0b66)" style="fill: none; stroke: #808080; stroke-width: 0.947842; stroke-linecap: round"/>
   </g>
   <g id="line2d_15">
    <path d="M 238.165663 101.159404 
L 244.308842 101.159404 
" clip-path="url(#p60b80f0b66)" style="fill: none; stroke: #808080; stroke-width: 0.947842; stroke-linecap: round"/>
   </g>
   <g id="line2d_16">
    <path d="M 398.487273 229.870951 
L 73.832727 229.870951 
" clip-path="url(#p60b80f0b66)" style="fill: none; stroke: #808080; stroke-width: 2.369605; stroke-linecap: round"/>
   </g>
   <g id="line2d_17">
    <path d="M 73.832727 229.870951 
L 73.832727 122.585685 
" clip-path="url(#p60b80f0b66)" style="fill: none; stroke: #808080; stroke-width: 2.369605; stroke-linecap: round"/>
   </g>
   <g id="line2d_18">
    <path d="M 73.832727 122.585685 
L 119.54558 122.585685 
" clip-path="url(#p60b80f0b66)" style="fill: none; stroke: #808080; stroke-width: 2.369605; stroke-linecap: round"/>
   </g>
   <g id="line2d_19">
    <path d="M 352.77442 122.585685 
L 398.487273 122.585685 
" clip-path="url(#p60b80f0b66)" style="fill: none; stroke: #808080; stroke-width: 2.369605; stroke-linecap: round"/>
   </g>
   <g id="line2d_20">
    <path d="M 398.487273 122.585685 
L 398.487273 229.870951 
" clip-path="url(#p60b80f0b66)" style="fill: none; stroke: #808080; stroke-width: 2.369605; stroke-linecap: round"/>
   </g>
   <g id="line2d_21">
    <path d="M 119.54558 122.585685 
L 352.77442 122.585685 
" clip-path="url(#p60b80f0b66)" style="fill: none; stroke: #808080; stroke-width: 2.369605; stroke-linecap: round"/>
   </g>
   <g id="line2d_22">
    <path d="M 352.77442 122.585685 
L 352.77442 133.780669 
" clip-path="url(#p60b80f0b66)" style="fill: none; stroke: #808080; stroke-width: 2.369605; stroke-linecap: round"/>
   </g>
   <g id="line2d_23">
    <path d="M 352.77442 133.780669 
L 119.54558 133.780669 
" clip-path="url(#p60b80f0b66)" style="fill: none; stroke: #808080; stroke-width: 2.369605; stroke-linecap: round"/>
   </g>
   <g id="line2d_24">
    <path d="M 119.54558 133.780669 
L 119.54558 122.585685 
" clip-path="url(#p60b80f0b66)" style="fill: none; stroke: #808080; stroke-width: 2.369605; stroke-linecap: round"/>
   </g>
   <g id="patch_5">
    <path d="M 105.55185 213.265058 
C 105.601332 213.265058 105.648794 213.245398 105.683784 213.210409 
C 105.718773 213.17542 105.738433 213.127957 105.738433 213.078475 
C 105.738433 213.028992 105.718773 212.98153 105.683784 212.946541 
C 105.648794 212.911551 105.601332 212.891892 105.55185 212.891892 
C 105.502367 212.891892 105.454905 212.911551 105.419915 212.946541 
C 105.384926 212.98153 105.365266 213.028992 105.365266 213.078475 
C 105.365266 213.127957 105.384926 213.17542 105.419915 213.210409 
C 105.454905 213.245398 105.502367 213.265058 105.55185 213.265058 
L 105.55185 213.265058 
z
" clip-path="url(#p60b80f0b66)" style="fill: none; stroke: #808080; stroke-width: 1.865831; stroke-linejoin: miter"/>
   </g>
   <g id="line2d_25">
    <path d="M 106.328727 196.082836 
L 111.47511 192.09854 
L 111.47511 192.09854 
L 111.475024 210.362183 
L 111.475024 210.362183 
" clip-path="url(#p60b80f0b66)" style="fill: none; stroke: #808080; stroke-width: 0.947842; stroke-linecap: round"/>
   </g>
   <g id="line2d_26">
    <path d="M 106.329034 210.361801 
L 116.623011 210.361801 
" clip-path="url(#p60b80f0b66)" style="fill: none; stroke: #808080; stroke-width: 0.947842; stroke-linecap: round"/>
   </g>
   <g id="patch_6">
    <path d="M 119.54558 185.091014 
C 124.493821 185.091014 129.240061 183.125057 132.738995 179.626122 
C 136.23793 176.127188 138.203887 171.380948 138.203887 166.432707 
C 138.203887 161.484466 136.23793 156.738226 132.738995 153.239291 
C 129.240061 149.740357 124.493821 147.7744 119.54558 147.7744 
C 114.597339 147.7744 109.851099 149.740357 106.352164 153.239291 
C 102.85323 156.738226 100.887273 161.484466 100.887273 166.432707 
C 100.887273 171.380948 102.85323 176.127188 106.352164 179.626122 
C 109.851099 183.125057 114.597339 185.091014 119.54558 185.091014 
z
" clip-path="url(#p60b80f0b66)" style="fill: #0dab76"/>
   </g>
   <g id="patch_7">
    <path d="M 119.54558 175.76186 
C 122.0197 175.76186 124.39282 174.778882 126.142288 173.029415 
C 127.891755 171.279947 128.874734 168.906827 128.874734 166.432707 
C 128.874734 163.958586 127.891755 161.585466 126.142288 159.835999 
C 124.39282 158.086532 122.0197 157.103553 119.54558 157.103553 
C 117.071459 157.103553 114.69834 158.086532 112.948872 159.835999 
C 111.199405 161.585466 110.216426 163.958586 110.216426 166.432707 
C 110.216426 168.906827 111.199405 171.279947 112.948872 173.029415 
C 114.69834 174.778882 117.071459 175.76186 119.54558 175.76186 
z
" clip-path="url(#p60b80f0b66)" style="fill: #a0a0a0"/>
   </g>
   <g id="patch_8">
    <path d="M 166.191348 185.091014 
C 171.139589 185.091014 175.885829 183.125057 179.384764 179.626122 
C 182.883698 176.127188 184.849655 171.380948 184.849655 166.432707 
C 184.849655 161.484466 182.883698 156.738226 179.384764 153.239291 
C 175.885829 149.740357 171.139589 147.7744 166.191348 147.7744 
C 161.243107 147.7744 156.496867 149.740357 152.997932 153.239291 
C 149.498998 156.738226 147.533041 161.484466 147.533041 166.432707 
C 147.533041 171.380948 149.498998 176.127188 152.997932 179.626122 
C 156.496867 183.125057 161.243107 185.091014 166.191348 185.091014 
z
" clip-path="url(#p60b80f0b66)" style="fill: #0dab76"/>
   </g>
   <g id="patch_9">
    <path d="M 166.191348 175.76186 
C 168.665468 175.76186 171.038588 174.778882 172.788056 173.029415 
C 174.537523 171.279947 175.520502 168.906827 175.520502 166.432707 
C 175.520502 163.958586 174.537523 161.585466 172.788056 159.835999 
C 171.038588 158.086532 168.665468 157.103553 166.191348 157.103553 
C 163.717228 157.103553 161.344108 158.086532 159.59464 159.835999 
C 157.845173 161.585466 156.862194 163.958586 156.862194 166.432707 
C 156.862194 168.906827 157.845173 171.279947 159.59464 173.029415 
C 161.344108 174.778882 163.717228 175.76186 166.191348 175.76186 
z
" clip-path="url(#p60b80f0b66)" style="fill: #a0a0a0"/>
   </g>
   <g id="patch_10">
    <path d="M 212.837116 185.091014 
C 217.785357 185.091014 222.531597 183.125057 226.030532 179.626122 
C 229.529466 176.127188 231.495423 171.380948 231.495423 166.432707 
C 231.495423 161.484466 229.529466 156.738226 226.030532 153.239291 
C 222.531597 149.740357 217.785357 147.7744 212.837116 147.7744 
C 207.888875 147.7744 203.142635 149.740357 199.6437 153.239291 
C 196.144766 156.738226 194.178809 161.484466 194.178809 166.432707 
C 194.178809 171.380948 196.144766 176.127188 199.6437 179.626122 
C 203.142635 183.125057 207.888875 185.091014 212.837116 185.091014 
z
" clip-path="url(#p60b80f0b66)" style="fill: #0dab76"/>
   </g>
   <g id="patch_11">
    <path d="M 212.837116 175.76186 
C 215.311236 175.76186 217.684356 174.778882 219.433824 173.029415 
C 221.183291 171.279947 222.16627 168.906827 222.16627 166.432707 
C 222.16627 163.958586 221.183291 161.585466 219.433824 159.835999 
C 217.684356 158.086532 215.311236 157.103553 212.837116 157.103553 
C 210.362996 157.103553 207.989876 158.086532 206.240408 159.835999 
C 204.490941 161.585466 203.507962 163.958586 203.507962 166.432707 
C 203.507962 168.906827 204.490941 171.279947 206.240408 173.029415 
C 207.989876 174.778882 210.362996 175.76186 212.837116 175.76186 
z
" clip-path="url(#p60b80f0b66)" style="fill: #a0a0a0"/>
   </g>
   <g id="patch_12">
    <path d="M 259.482884 185.091014 
C 264.431125 185.091014 269.177365 183.125057 272.6763 179.626122 
C 276.175234 176.127188 278.141191 171.380948 278.141191 166.432707 
C 278.141191 161.484466 276.175234 156.738226 272.6763 153.239291 
C 269.177365 149.740357 264.431125 147.7744 259.482884 147.7744 
C 254.534643 147.7744 249.788403 149.740357 246.289468 153.239291 
C 242.790534 156.738226 240.824577 161.484466 240.824577 166.432707 
C 240.824577 171.380948 242.790534 176.127188 246.289468 179.626122 
C 249.788403 183.125057 254.534643 185.091014 259.482884 185.091014 
z
" clip-path="url(#p60b80f0b66)" style="fill: #0dab76"/>
   </g>
   <g id="patch_13">
    <path d="M 259.482884 175.76186 
C 261.957004 175.76186 264.330124 174.778882 266.079592 173.029415 
C 267.829059 171.279947 268.812038 168.906827 268.812038 166.432707 
C 268.812038 163.958586 267.829059 161.585466 266.079592 159.835999 
C 264.330124 158.086532 261.957004 157.103553 259.482884 157.103553 
C 257.008764 157.103553 254.635644 158.086532 252.886176 159.835999 
C 251.136709 161.585466 250.15373 163.958586 250.15373 166.432707 
C 250.15373 168.906827 251.136709 171.279947 252.886176 173.029415 
C 254.635644 174.778882 257.008764 175.76186 259.482884 175.76186 
z
" clip-path="url(#p60b80f0b66)" style="fill: #a0a0a0"/>
   </g>
   <g id="patch_14">
    <path d="M 306.128652 185.091014 
C 311.076893 185.091014 315.823133 183.125057 319.322068 179.626122 
C 322.821002 176.127188 324.786959 171.380948 324.786959 166.432707 
C 324.786959 161.484466 322.821002 156.738226 319.322068 153.239291 
C 315.823133 149.740357 311.076893 147.7744 306.128652 147.7744 
C 301.180411 147.7744 296.434171 149.740357 292.935236 153.239291 
C 289.436302 156.738226 287.470345 161.484466 287.470345 166.432707 
C 287.470345 171.380948 289.436302 176.127188 292.935236 179.626122 
C 296.434171 183.125057 301.180411 185.091014 306.128652 185.091014 
z
" clip-path="url(#p60b80f0b66)" style="fill: #0dab76"/>
   </g>
   <g id="patch_15">
    <path d="M 306.128652 175.76186 
C 308.602772 175.76186 310.975892 174.778882 312.72536 173.029415 
C 314.474827 171.279947 315.457806 168.906827 315.457806 166.432707 
C 315.457806 163.958586 314.474827 161.585466 312.72536 159.835999 
C 310.975892 158.086532 308.602772 157.103553 306.128652 157.103553 
C 303.654532 157.103553 301.281412 158.086532 299.531944 159.835999 
C 297.782477 161.585466 296.799498 163.958586 296.799498 166.432707 
C 296.799498 168.906827 297.782477 171.279947 299.531944 173.029415 
C 301.281412 174.778882 303.654532 175.76186 306.128652 175.76186 
z
" clip-path="url(#p60b80f0b66)" style="fill: #a0a0a0"/>
   </g>
   <g id="patch_16">
    <path d="M 352.77442 185.091014 
C 357.722661 185.091014 362.468901 183.125057 365.967836 179.626122 
C 369.46677 176.127188 371.432727 171.380948 371.432727 166.432707 
C 371.432727 161.484466 369.46677 156.738226 365.967836 153.239291 
C 362.468901 149.740357 357.722661 147.7744 352.77442 147.7744 
C 347.826179 147.7744 343.079939 149.740357 339.581005 153.239291 
C 336.08207 156.738226 334.116113 161.484466 334.116113 166.432707 
C 334.116113 171.380948 336.08207 176.127188 339.581005 179.626122 
C 343.079939 183.125057 347.826179 185.091014 352.77442 185.091014 
z
" clip-path="url(#p60b80f0b66)" style="fill: #0dab76"/>
   </g>
   <g id="patch_17">
    <path d="M 352.77442 175.76186 
C 355.248541 175.76186 357.62166 174.778882 359.371128 173.029415 
C 361.120595 171.279947 362.103574 168.906827 362.103574 166.432707 
C 362.103574 163.958586 361.120595 161.585466 359.371128 159.835999 
C 357.62166 158.086532 355.248541 157.103553 352.77442 157.103553 
C 350.3003 157.103553 347.92718 158.086532 346.177712 159.835999 
C 344.428245 161.585466 343.445266 163.958586 343.445266 166.432707 
C 343.445266 168.906827 344.428245 171.279947 346.177712 173.029415 
C 347.92718 174.778882 350.3003 175.76186 352.77442 175.76186 
z
" clip-path="url(#p60b80f0b66)" style="fill: #a0a0a0"/>
   </g>
   <g id="matplotlib.axis_1">
    <g id="xtick_1">
     <g id="line2d_27">
      <defs>
       <path id="m1e41ce76dd" d="M 0 0 
L 0 3.5 
" style="stroke: #ffffff; stroke-width: 0.8"/>
      </defs>
      <g>
       <use xlink:href="#m1e41ce76dd" x="96.222696" y="264.549522" style="fill: #ffffff; stroke: #ffffff; stroke-width: 0.8"/>
      </g>
     </g>
     <g id="text_1">
      <text style="fill: #ffffff; font: 10px 'sans-serif'; text-anchor: middle" x="96.222696" y="279.14796" transform="rotate(-0, 96.222696, 279.14796)">−7.5</text>
     </g>
    </g>
    <g id="xtick_2">
     <g id="line2d_28">
      <g>
       <use xlink:href="#m1e41ce76dd" x="142.868464" y="264.549522" style="fill: #ffffff; stroke: #ffffff; stroke-width: 0.8"/>
      </g>
     </g>
     <g id="text_2">
      <text style="fill: #ffffff; font: 10px 'sans-serif'; text-anchor: middle" x="142.868464" y="279.14796" transform="rotate(-0, 142.868464, 279.14796)">−5.0</text>
     </g>
    </g>
    <g id="xtick_3">
     <g id="line2d_29">
      <g>
       <use xlink:href="#m1e41ce76dd" x="189.514232" y="264.549522" style="fill: #ffffff; stroke: #ffffff; stroke-width: 0.8"/>
      </g>
     </g>
     <g id="text_3">
      <text style="fill: #ffffff; font: 10px 'sans-serif'; text-anchor: middle" x="189.514232" y="279.14796" transform="rotate(-0, 189.514232, 279.14796)">−2.5</text>
     </g>
    </g>
    <g id="xtick_4">
     <g id="line2d_30">
      <g>
       <use xlink:href="#m1e41ce76dd" x="236.16" y="264.549522" style="fill: #ffffff; stroke: #ffffff; stroke-width: 0.8"/>
      </g>
     </g>
     <g id="text_4">
      <text style="fill: #ffffff; font: 10px 'sans-serif'; text-anchor: middle" x="236.16" y="279.14796" transform="rotate(-0, 236.16, 279.14796)">0.0</text>
     </g>
    </g>
    <g id="xtick_5">
     <g id="line2d_31">
      <g>
       <use xlink:href="#m1e41ce76dd" x="282.805768" y="264.549522" style="fill: #ffffff; stroke: #ffffff; stroke-width: 0.8"/>
      </g>
     </g>
     <g id="text_5">
      <text style="fill: #ffffff; font: 10px 'sans-serif'; text-anchor: middle" x="282.805768" y="279.14796" transform="rotate(-0, 282.805768, 279.14796)">2.5</text>
     </g>
    </g>
    <g id="xtick_6">
     <g id="line2d_32">
      <g>
       <use xlink:href="#m1e41ce76dd" x="329.451536" y="264.549522" style="fill: #ffffff; stroke: #ffffff; stroke-width: 0.8"/>
      </g>
     </g>
     <g id="text_6">
      <text style="fill: #ffffff; font: 10px 'sans-serif'; text-anchor: middle" x="329.451536" y="279.14796" transform="rotate(-0, 329.451536, 279.14796)">5.0</text>
     </g>
    </g>
    <g id="xtick_7">
     <g id="line2d_33">
      <g>
       <use xlink:href="#m1e41ce76dd" x="376.097304" y="264.549522" style="fill: #ffffff; stroke: #ffffff; stroke-width: 0.8"/>
      </g>
     </g>
     <g id="text_7">
      <text style="fill: #ffffff; font: 10px 'sans-serif'; text-anchor: middle" x="376.097304" y="279.14796" transform="rotate(-0, 376.097304, 279.14796)">7.5</text>
     </g>
    </g>
   </g>
   <g id="matplotlib.axis_2">
    <g id="ytick_1">
     <g id="line2d_34">
      <defs>
       <path id="m45796477d8" d="M 0 0 
L -3.5 0 
" style="stroke: #ffffff; stroke-width: 0.8"/>
      </defs>
      <g>
       <use xlink:href="#m45796477d8" x="57.6" y="241.065936" style="fill: #ffffff; stroke: #ffffff; stroke-width: 0.8"/>
      </g>
     </g>
     <g id="text_8">
      <text style="fill: #ffffff; font: 10px 'sans-serif'; text-anchor: end" x="50.6" y="244.865154" transform="rotate(-0, 50.6, 244.865154)">−4</text>
     </g>
    </g>
    <g id="ytick_2">
     <g id="line2d_35">
      <g>
       <use xlink:href="#m45796477d8" x="57.6" y="203.749321" style="fill: #ffffff; stroke: #ffffff; stroke-width: 0.8"/>
      </g>
     </g>
     <g id="text_9">
      <text style="fill: #ffffff; font: 10px 'sans-serif'; text-anchor: end" x="50.6" y="207.54854" transform="rotate(-0, 50.6, 207.54854)">−2</text>
     </g>
    </g>
    <g id="ytick_3">
     <g id="line2d_36">
      <g>
       <use xlink:href="#m45796477d8" x="57.6" y="166.432707" style="fill: #ffffff; stroke: #ffffff; stroke-width: 0.8"/>
      </g>
     </g>
     <g id="text_10">
      <text style="fill: #ffffff; font: 10px 'sans-serif'; text-anchor: end" x="50.6" y="170.231926" transform="rotate(-0, 50.6, 170.231926)">0</text>
     </g>
    </g>
    <g id="ytick_4">
     <g id="line2d_37">
      <g>
       <use xlink:href="#m45796477d8" x="57.6" y="129.116092" style="fill: #ffffff; stroke: #ffffff; stroke-width: 0.8"/>
      </g>
     </g>
     <g id="text_11">
      <text style="fill: #ffffff; font: 10px 'sans-serif'; text-anchor: end" x="50.6" y="132.915311" transform="rotate(-0, 50.6, 132.915311)">2</text>
     </g>
    </g>
    <g id="ytick_5">
     <g id="line2d_38">
      <g>
       <use xlink:href="#m45796477d8" x="57.6" y="91.799478" style="fill: #ffffff; stroke: #ffffff; stroke-width: 0.8"/>
      </g>
     </g>
     <g id="text_12">
      <text style="fill: #ffffff; font: 10px 'sans-serif'; text-anchor: end" x="50.6" y="95.598697" transform="rotate(-0, 50.6, 95.598697)">4</text>
     </g>
    </g>
   </g>
   <g id="patch_18">
    <path d="M 57.6 264.549522 
L 57.6 84.506478 
" style="fill: none; stroke: #ffffff; stroke-width: 0.8; stroke-linejoin: miter; stroke-linecap: square"/>
   </g>
   <g id="patch_19">
    <path d="M 414.72 264.549522 
L 414.72 84.506478 
" style="fill: none; stroke: #ffffff; stroke-width: 0.8; stroke-linejoin: miter; stroke-linecap: square"/>
   </g>
   <g id="patch_20">
    <path d="M 57.6 264.549522 
L 414.72 264.549522 
" style="fill: none; stroke: #ffffff; stroke-width: 0.8; stroke-linejoin: miter; stroke-linecap: square"/>
   </g>
   <g id="patch_21">
    <path d="M 57.6 84.506478 
L 414.72 84.506478 
" style="fill: none; stroke: #ffffff; stroke-width: 0.8; stroke-linejoin: miter; stroke-linecap: square"/>
   </g>
   <g id="text_13">
    <text style="fill: #ffffff; font: 12px 'sans-serif'; text-anchor: middle" x="236.16" y="78.506478" transform="rotate(-0, 236.16, 78.506478)">B6B-XH</text>
   </g>
  </g>
 </g>
 <defs>
  <clipPath id="p60b80f0b66">
   <rect x="57.6" y="84.506478" width="357.12" height="180.043045"/>
  </clipPath>
 </defs>
</svg>
