<?xml version="1.0" encoding="utf-8" standalone="no"?>
<!DOCTYPE svg PUBLIC "-//W3C//DTD SVG 1.1//EN"
  "http://www.w3.org/Graphics/SVG/1.1/DTD/svg11.dtd">
<svg xmlns:xlink="http://www.w3.org/1999/xlink" width="460.8pt" height="345.6pt" viewBox="0 0 460.8 345.6" xmlns="http://www.w3.org/2000/svg" version="1.1">
 <metadata>
  <rdf:RDF xmlns:dc="http://purl.org/dc/elements/1.1/" xmlns:cc="http://creativecommons.org/ns#" xmlns:rdf="http://www.w3.org/1999/02/22-rdf-syntax-ns#">
   <cc:Work>
    <dc:type rdf:resource="http://purl.org/dc/dcmitype/StillImage"/>
    <dc:date>2021-12-22T04:54:08.031461</dc:date>
    <dc:format>image/svg+xml</dc:format>
    <dc:creator>
     <cc:Agent>
      <dc:title>Matplotlib v3.5.1, https://matplotlib.org/</dc:title>
     </cc:Agent>
    </dc:creator>
   </cc:Work>
  </rdf:RDF>
 </metadata>
 <defs>
  <style type="text/css">*{stroke-linejoin: round; stroke-linecap: butt}</style>
 </defs>
 <g id="figure_1">
  <g id="patch_1">
   <path d="M 0 345.6 
L 460.8 345.6 
L 460.8 0 
L 0 0 
z
" style="fill: #2b2b2b"/>
  </g>
  <g id="axes_1">
   <g id="patch_2">
    <path d="M 57.6 232.543884 
L 414.72 232.543884 
L 414.72 116.512116 
L 57.6 116.512116 
z
" style="fill: #2b2b2b"/>
   </g>
   <g id="text_1">
    <text style="fill: #ffffff; font: 1px 'sans-serif'; text-anchor: start" x="189.864496" y="114.754058" transform="rotate(-0, 189.864496, 114.754058)">&gt;NAME</text>
   </g>
   <g id="line2d_1">
    <path d="M 73.832727 121.786287 
L 398.487273 121.786287 
" clip-path="url(#p191005904c)" style="fill: none; stroke: #808080; stroke-width: 2.976977; stroke-linecap: square"/>
   </g>
   <g id="line2d_2">
    <path d="M 398.487273 121.786287 
L 398.487273 227.269713 
" clip-path="url(#p191005904c)" style="fill: none; stroke: #808080; stroke-width: 2.976977; stroke-linecap: square"/>
   </g>
   <g id="line2d_3">
    <path d="M 398.487273 227.269713 
L 73.832727 227.269713 
" clip-path="url(#p191005904c)" style="fill: none; stroke: #808080; stroke-width: 2.976977; stroke-linecap: square"/>
   </g>
   <g id="line2d_4">
    <path d="M 73.832727 227.269713 
L 73.832727 121.786287 
" clip-path="url(#p191005904c)" style="fill: none; stroke: #808080; stroke-width: 2.976977; stroke-linecap: square"/>
   </g>
   <g id="text_2">
    <text style="fill: #ffffff; font: 1px 'sans-serif'; text-anchor: start" x="372.702435" y="215.959546" transform="rotate(-0, 372.702435, 215.959546)">1</text>
   </g>
   <g id="patch_3">
    <path d="M 166.423735 195.273074 
C 171.396985 195.273074 176.167213 193.297181 179.683832 189.780562 
C 183.200451 186.263943 185.176344 181.493715 185.176344 176.520465 
C 185.176344 171.547215 183.200451 166.776986 179.683832 163.260368 
C 176.167213 159.743749 171.396985 157.767856 166.423735 157.767856 
C 161.450485 157.767856 156.680257 159.743749 153.163638 163.260368 
C 149.647019 166.776986 147.671126 171.547215 147.671126 176.520465 
C 147.671126 181.493715 149.647019 186.263943 153.163638 189.780562 
C 156.680257 193.297181 161.450485 195.273074 166.423735 195.273074 
z
" clip-path="url(#p191005904c)" style="fill: #0dab76"/>
   </g>
   <g id="patch_4">
    <path d="M 166.423735 185.896769 
C 168.91036 185.896769 171.295474 184.908823 173.053783 183.150513 
C 174.812093 181.392204 175.800039 179.00709 175.800039 176.520465 
C 175.800039 174.03384 174.812093 171.648726 173.053783 169.890416 
C 171.295474 168.132107 168.91036 167.14416 166.423735 167.14416 
C 163.93711 167.14416 161.551996 168.132107 159.793686 169.890416 
C 158.035377 171.648726 157.04743 174.03384 157.04743 176.520465 
C 157.04743 179.00709 158.035377 181.392204 159.793686 183.150513 
C 161.551996 184.908823 163.93711 185.896769 166.423735 185.896769 
z
" clip-path="url(#p191005904c)" style="fill: #a0a0a0"/>
   </g>
   <g id="patch_5">
    <path d="M 213.305258 195.273074 
C 218.278508 195.273074 223.048736 193.297181 226.565355 189.780562 
C 230.081974 186.263943 232.057867 181.493715 232.057867 176.520465 
C 232.057867 171.547215 230.081974 166.776986 226.565355 163.260368 
C 223.048736 159.743749 218.278508 157.767856 213.305258 157.767856 
C 208.332008 157.767856 203.561779 159.743749 200.045161 163.260368 
C 196.528542 166.776986 194.552649 171.547215 194.552649 176.520465 
C 194.552649 181.493715 196.528542 186.263943 200.045161 189.780562 
C 203.561779 193.297181 208.332008 195.273074 213.305258 195.273074 
z
" clip-path="url(#p191005904c)" style="fill: #0dab76"/>
   </g>
   <g id="patch_6">
    <path d="M 213.305258 185.896769 
C 215.791883 185.896769 218.176997 184.908823 219.935306 183.150513 
C 221.693616 181.392204 222.681562 179.00709 222.681562 176.520465 
C 222.681562 174.03384 221.693616 171.648726 219.935306 169.890416 
C 218.176997 168.132107 215.791883 167.14416 213.305258 167.14416 
C 210.818633 167.14416 208.433519 168.132107 206.675209 169.890416 
C 204.9169 171.648726 203.928953 174.03384 203.928953 176.520465 
C 203.928953 179.00709 204.9169 181.392204 206.675209 183.150513 
C 208.433519 184.908823 210.818633 185.896769 213.305258 185.896769 
z
" clip-path="url(#p191005904c)" style="fill: #a0a0a0"/>
   </g>
   <g id="patch_7">
    <path d="M 260.18678 195.273074 
C 265.160031 195.273074 269.930259 193.297181 273.446878 189.780562 
C 276.963496 186.263943 278.93939 181.493715 278.93939 176.520465 
C 278.93939 171.547215 276.963496 166.776986 273.446878 163.260368 
C 269.930259 159.743749 265.160031 157.767856 260.18678 157.767856 
C 255.21353 157.767856 250.443302 159.743749 246.926683 163.260368 
C 243.410065 166.776986 241.434171 171.547215 241.434171 176.520465 
C 241.434171 181.493715 243.410065 186.263943 246.926683 189.780562 
C 250.443302 193.297181 255.21353 195.273074 260.18678 195.273074 
z
" clip-path="url(#p191005904c)" style="fill: #0dab76"/>
   </g>
   <g id="patch_8">
    <path d="M 260.18678 185.896769 
C 262.673405 185.896769 265.05852 184.908823 266.816829 183.150513 
C 268.575138 181.392204 269.563085 179.00709 269.563085 176.520465 
C 269.563085 174.03384 268.575138 171.648726 266.816829 169.890416 
C 265.05852 168.132107 262.673405 167.14416 260.18678 167.14416 
C 257.700155 167.14416 255.315041 168.132107 253.556732 169.890416 
C 251.798422 171.648726 250.810476 174.03384 250.810476 176.520465 
C 250.810476 179.00709 251.798422 181.392204 253.556732 183.150513 
C 255.315041 184.908823 257.700155 185.896769 260.18678 185.896769 
z
" clip-path="url(#p191005904c)" style="fill: #a0a0a0"/>
   </g>
   <g id="patch_9">
    <path d="M 307.068303 195.273074 
C 312.041553 195.273074 316.811781 193.297181 320.3284 189.780562 
C 323.845019 186.263943 325.820912 181.493715 325.820912 176.520465 
C 325.820912 171.547215 323.845019 166.776986 320.3284 163.260368 
C 316.811781 159.743749 312.041553 157.767856 307.068303 157.767856 
C 302.095053 157.767856 297.324825 159.743749 293.808206 163.260368 
C 290.291587 166.776986 288.315694 171.547215 288.315694 176.520465 
C 288.315694 181.493715 290.291587 186.263943 293.808206 189.780562 
C 297.324825 193.297181 302.095053 195.273074 307.068303 195.273074 
z
" clip-path="url(#p191005904c)" style="fill: #0dab76"/>
   </g>
   <g id="patch_10">
    <path d="M 307.068303 185.896769 
C 309.554928 185.896769 311.940042 184.908823 313.698352 183.150513 
C 315.456661 181.392204 316.444608 179.00709 316.444608 176.520465 
C 316.444608 174.03384 315.456661 171.648726 313.698352 169.890416 
C 311.940042 168.132107 309.554928 167.14416 307.068303 167.14416 
C 304.581678 167.14416 302.196564 168.132107 300.438255 169.890416 
C 298.679945 171.648726 297.691999 174.03384 297.691999 176.520465 
C 297.691999 179.00709 298.679945 181.392204 300.438255 183.150513 
C 302.196564 184.908823 304.581678 185.896769 307.068303 185.896769 
z
" clip-path="url(#p191005904c)" style="fill: #a0a0a0"/>
   </g>
   <g id="patch_11">
    <path d="M 353.949826 195.273074 
C 358.923076 195.273074 363.693304 193.297181 367.209923 189.780562 
C 370.726542 186.263943 372.702435 181.493715 372.702435 176.520465 
C 372.702435 171.547215 370.726542 166.776986 367.209923 163.260368 
C 363.693304 159.743749 358.923076 157.767856 353.949826 157.767856 
C 348.976576 157.767856 344.206348 159.743749 340.689729 163.260368 
C 337.17311 166.776986 335.197217 171.547215 335.197217 176.520465 
C 335.197217 181.493715 337.17311 186.263943 340.689729 189.780562 
C 344.206348 193.297181 348.976576 195.273074 353.949826 195.273074 
z
" clip-path="url(#p191005904c)" style="fill: #0dab76"/>
   </g>
   <g id="patch_12">
    <path d="M 353.949826 185.896769 
C 356.436451 185.896769 358.821565 184.908823 360.579875 183.150513 
C 362.338184 181.392204 363.326131 179.00709 363.326131 176.520465 
C 363.326131 174.03384 362.338184 171.648726 360.579875 169.890416 
C 358.821565 168.132107 356.436451 167.14416 353.949826 167.14416 
C 351.463201 167.14416 349.078087 168.132107 347.319778 169.890416 
C 345.561468 171.648726 344.573521 174.03384 344.573521 176.520465 
C 344.573521 179.00709 345.561468 181.392204 347.319778 183.150513 
C 349.078087 184.908823 351.463201 185.896769 353.949826 185.896769 
z
" clip-path="url(#p191005904c)" style="fill: #a0a0a0"/>
   </g>
   <g id="patch_13">
    <path d="M 119.542212 195.273074 
C 124.515462 195.273074 129.28569 193.297181 132.802309 189.780562 
C 136.318928 186.263943 138.294821 181.493715 138.294821 176.520465 
C 138.294821 171.547215 136.318928 166.776986 132.802309 163.260368 
C 129.28569 159.743749 124.515462 157.767856 119.542212 157.767856 
C 114.568962 157.767856 109.798734 159.743749 106.282115 163.260368 
C 102.765496 166.776986 100.789603 171.547215 100.789603 176.520465 
C 100.789603 181.493715 102.765496 186.263943 106.282115 189.780562 
C 109.798734 193.297181 114.568962 195.273074 119.542212 195.273074 
z
" clip-path="url(#p191005904c)" style="fill: #0dab76"/>
   </g>
   <g id="patch_14">
    <path d="M 119.542212 185.896769 
C 122.028837 185.896769 124.413951 184.908823 126.172261 183.150513 
C 127.93057 181.392204 128.918517 179.00709 128.918517 176.520465 
C 128.918517 174.03384 127.93057 171.648726 126.172261 169.890416 
C 124.413951 168.132107 122.028837 167.14416 119.542212 167.14416 
C 117.055587 167.14416 114.670473 168.132107 112.912163 169.890416 
C 111.153854 171.648726 110.165907 174.03384 110.165907 176.520465 
C 110.165907 179.00709 111.153854 181.392204 112.912163 183.150513 
C 114.670473 184.908823 117.055587 185.896769 119.542212 185.896769 
z
" clip-path="url(#p191005904c)" style="fill: #a0a0a0"/>
   </g>
   <g id="matplotlib.axis_1">
    <g id="xtick_1">
     <g id="line2d_5">
      <defs>
       <path id="m7d68317750" d="M 0 0 
L 0 3.5 
" style="stroke: #ffffff; stroke-width: 0.8"/>
      </defs>
      <g>
       <use xlink:href="#m7d68317750" x="96.101451" y="232.543884" style="fill: #ffffff; stroke: #ffffff; stroke-width: 0.8"/>
      </g>
     </g>
     <g id="text_3">
      <text style="fill: #ffffff; font: 10px 'sans-serif'; text-anchor: middle" x="96.101451" y="247.142322" transform="rotate(-0, 96.101451, 247.142322)">−6</text>
     </g>
    </g>
    <g id="xtick_2">
     <g id="line2d_6">
      <g>
       <use xlink:href="#m7d68317750" x="142.982973" y="232.543884" style="fill: #ffffff; stroke: #ffffff; stroke-width: 0.8"/>
      </g>
     </g>
     <g id="text_4">
      <text style="fill: #ffffff; font: 10px 'sans-serif'; text-anchor: middle" x="142.982973" y="247.142322" transform="rotate(-0, 142.982973, 247.142322)">−4</text>
     </g>
    </g>
    <g id="xtick_3">
     <g id="line2d_7">
      <g>
       <use xlink:href="#m7d68317750" x="189.864496" y="232.543884" style="fill: #ffffff; stroke: #ffffff; stroke-width: 0.8"/>
      </g>
     </g>
     <g id="text_5">
      <text style="fill: #ffffff; font: 10px 'sans-serif'; text-anchor: middle" x="189.864496" y="247.142322" transform="rotate(-0, 189.864496, 247.142322)">−2</text>
     </g>
    </g>
    <g id="xtick_4">
     <g id="line2d_8">
      <g>
       <use xlink:href="#m7d68317750" x="236.746019" y="232.543884" style="fill: #ffffff; stroke: #ffffff; stroke-width: 0.8"/>
      </g>
     </g>
     <g id="text_6">
      <text style="fill: #ffffff; font: 10px 'sans-serif'; text-anchor: middle" x="236.746019" y="247.142322" transform="rotate(-0, 236.746019, 247.142322)">0</text>
     </g>
    </g>
    <g id="xtick_5">
     <g id="line2d_9">
      <g>
       <use xlink:href="#m7d68317750" x="283.627542" y="232.543884" style="fill: #ffffff; stroke: #ffffff; stroke-width: 0.8"/>
      </g>
     </g>
     <g id="text_7">
      <text style="fill: #ffffff; font: 10px 'sans-serif'; text-anchor: middle" x="283.627542" y="247.142322" transform="rotate(-0, 283.627542, 247.142322)">2</text>
     </g>
    </g>
    <g id="xtick_6">
     <g id="line2d_10">
      <g>
       <use xlink:href="#m7d68317750" x="330.509065" y="232.543884" style="fill: #ffffff; stroke: #ffffff; stroke-width: 0.8"/>
      </g>
     </g>
     <g id="text_8">
      <text style="fill: #ffffff; font: 10px 'sans-serif'; text-anchor: middle" x="330.509065" y="247.142322" transform="rotate(-0, 330.509065, 247.142322)">4</text>
     </g>
    </g>
    <g id="xtick_7">
     <g id="line2d_11">
      <g>
       <use xlink:href="#m7d68317750" x="377.390587" y="232.543884" style="fill: #ffffff; stroke: #ffffff; stroke-width: 0.8"/>
      </g>
     </g>
     <g id="text_9">
      <text style="fill: #ffffff; font: 10px 'sans-serif'; text-anchor: middle" x="377.390587" y="247.142322" transform="rotate(-0, 377.390587, 247.142322)">6</text>
     </g>
    </g>
   </g>
   <g id="matplotlib.axis_2">
    <g id="ytick_1">
     <g id="line2d_12">
      <defs>
       <path id="m530c29d4a4" d="M 0 0 
L -3.5 0 
" style="stroke: #ffffff; stroke-width: 0.8"/>
      </defs>
      <g>
       <use xlink:href="#m530c29d4a4" x="57.6" y="224.515424" style="fill: #ffffff; stroke: #ffffff; stroke-width: 0.8"/>
      </g>
     </g>
     <g id="text_10">
      <text style="fill: #ffffff; font: 10px 'sans-serif'; text-anchor: end" x="50.6" y="228.314642" transform="rotate(-0, 50.6, 228.314642)">−2</text>
     </g>
    </g>
    <g id="ytick_2">
     <g id="line2d_13">
      <g>
       <use xlink:href="#m530c29d4a4" x="57.6" y="201.074662" style="fill: #ffffff; stroke: #ffffff; stroke-width: 0.8"/>
      </g>
     </g>
     <g id="text_11">
      <text style="fill: #ffffff; font: 10px 'sans-serif'; text-anchor: end" x="50.6" y="204.873881" transform="rotate(-0, 50.6, 204.873881)">−1</text>
     </g>
    </g>
    <g id="ytick_3">
     <g id="line2d_14">
      <g>
       <use xlink:href="#m530c29d4a4" x="57.6" y="177.633901" style="fill: #ffffff; stroke: #ffffff; stroke-width: 0.8"/>
      </g>
     </g>
     <g id="text_12">
      <text style="fill: #ffffff; font: 10px 'sans-serif'; text-anchor: end" x="50.6" y="181.43312" transform="rotate(-0, 50.6, 181.43312)">0</text>
     </g>
    </g>
    <g id="ytick_4">
     <g id="line2d_15">
      <g>
       <use xlink:href="#m530c29d4a4" x="57.6" y="154.193139" style="fill: #ffffff; stroke: #ffffff; stroke-width: 0.8"/>
      </g>
     </g>
     <g id="text_13">
      <text style="fill: #ffffff; font: 10px 'sans-serif'; text-anchor: end" x="50.6" y="157.992358" transform="rotate(-0, 50.6, 157.992358)">1</text>
     </g>
    </g>
    <g id="ytick_5">
     <g id="line2d_16">
      <g>
       <use xlink:href="#m530c29d4a4" x="57.6" y="130.752378" style="fill: #ffffff; stroke: #ffffff; stroke-width: 0.8"/>
      </g>
     </g>
     <g id="text_14">
      <text style="fill: #ffffff; font: 10px 'sans-serif'; text-anchor: end" x="50.6" y="134.551597" transform="rotate(-0, 50.6, 134.551597)">2</text>
     </g>
    </g>
   </g>
   <g id="patch_15">
    <path d="M 57.6 232.543884 
L 57.6 116.512116 
" style="fill: none; stroke: #ffffff; stroke-width: 0.8; stroke-linejoin: miter; stroke-linecap: square"/>
   </g>
   <g id="patch_16">
    <path d="M 414.72 232.543884 
L 414.72 116.512116 
" style="fill: none; stroke: #ffffff; stroke-width: 0.8; stroke-linejoin: miter; stroke-linecap: square"/>
   </g>
   <g id="patch_17">
    <path d="M 57.6 232.543884 
L 414.72 232.543884 
" style="fill: none; stroke: #ffffff; stroke-width: 0.8; stroke-linejoin: miter; stroke-linecap: square"/>
   </g>
   <g id="patch_18">
    <path d="M 57.6 116.512116 
L 414.72 116.512116 
" style="fill: none; stroke: #ffffff; stroke-width: 0.8; stroke-linejoin: miter; stroke-linecap: square"/>
   </g>
   <g id="text_15">
    <text style="fill: #ffffff; font: 12px 'sans-serif'; text-anchor: middle" x="236.16" y="110.512116" transform="rotate(-0, 236.16, 110.512116)">B6B-PH</text>
   </g>
  </g>
 </g>
 <defs>
  <clipPath id="p191005904c">
   <rect x="57.6" y="116.512116" width="357.12" height="116.031769"/>
  </clipPath>
 </defs>
</svg>
