<?xml version="1.0" encoding="utf-8" standalone="no"?>
<!DOCTYPE svg PUBLIC "-//W3C//DTD SVG 1.1//EN"
  "http://www.w3.org/Graphics/SVG/1.1/DTD/svg11.dtd">
<svg xmlns:xlink="http://www.w3.org/1999/xlink" width="460.8pt" height="345.6pt" viewBox="0 0 460.8 345.6" xmlns="http://www.w3.org/2000/svg" version="1.1">
 <metadata>
  <rdf:RDF xmlns:dc="http://purl.org/dc/elements/1.1/" xmlns:cc="http://creativecommons.org/ns#" xmlns:rdf="http://www.w3.org/1999/02/22-rdf-syntax-ns#">
   <cc:Work>
    <dc:type rdf:resource="http://purl.org/dc/dcmitype/StillImage"/>
    <dc:date>2021-12-22T04:54:08.407749</dc:date>
    <dc:format>image/svg+xml</dc:format>
    <dc:creator>
     <cc:Agent>
      <dc:title>Matplotlib v3.5.1, https://matplotlib.org/</dc:title>
     </cc:Agent>
    </dc:creator>
   </cc:Work>
  </rdf:RDF>
 </metadata>
 <defs>
  <style type="text/css">*{stroke-linejoin: round; stroke-linecap: butt}</style>
 </defs>
 <g id="figure_1">
  <g id="patch_1">
   <path d="M 0 345.6 
L 460.8 345.6 
L 460.8 0 
L 0 0 
z
" style="fill: #2b2b2b"/>
  </g>
  <g id="axes_1">
   <g id="patch_2">
    <path d="M 57.6 233.534897 
L 414.72 233.534897 
L 414.72 115.521103 
L 57.6 115.521103 
z
" style="fill: #2b2b2b"/>
   </g>
   <g id="text_1">
    <text style="fill: #ffffff; font: 1.27px 'sans-serif'; text-anchor: start" x="179.438746" y="254.478846" transform="rotate(-0, 179.438746, 254.478846)">&gt;VALUE</text>
   </g>
   <g id="text_2">
    <text style="fill: #ffffff; font: 1.27px 'sans-serif'; text-anchor: start" x="179.438746" y="112.302545" transform="rotate(-0, 179.438746, 112.302545)">&gt;NAME</text>
   </g>
   <g id="line2d_1">
    <path d="M 398.487273 228.170633 
L 73.832727 228.170633 
" clip-path="url(#pc587612faa)" style="fill: none; stroke: #808080; stroke-width: 2.369605; stroke-linecap: square"/>
   </g>
   <g id="line2d_2">
    <path d="M 73.832727 228.170633 
L 73.832727 120.885367 
" clip-path="url(#pc587612faa)" style="fill: none; stroke: #808080; stroke-width: 2.369605; stroke-linecap: square"/>
   </g>
   <g id="line2d_3">
    <path d="M 73.832727 120.885367 
L 119.54558 120.885367 
" clip-path="url(#pc587612faa)" style="fill: none; stroke: #808080; stroke-width: 2.369605; stroke-linecap: square"/>
   </g>
   <g id="line2d_4">
    <path d="M 352.77442 120.885367 
L 398.487273 120.885367 
" clip-path="url(#pc587612faa)" style="fill: none; stroke: #808080; stroke-width: 2.369605; stroke-linecap: square"/>
   </g>
   <g id="line2d_5">
    <path d="M 398.487273 120.885367 
L 398.487273 228.170633 
" clip-path="url(#pc587612faa)" style="fill: none; stroke: #808080; stroke-width: 2.369605; stroke-linecap: square"/>
   </g>
   <g id="line2d_6">
    <path d="M 119.54558 120.885367 
L 352.77442 120.885367 
" clip-path="url(#pc587612faa)" style="fill: none; stroke: #808080; stroke-width: 2.369605; stroke-linecap: square"/>
   </g>
   <g id="line2d_7">
    <path d="M 352.77442 120.885367 
L 352.77442 132.080351 
" clip-path="url(#pc587612faa)" style="fill: none; stroke: #808080; stroke-width: 2.369605; stroke-linecap: square"/>
   </g>
   <g id="line2d_8">
    <path d="M 352.77442 132.080351 
L 119.54558 132.080351 
" clip-path="url(#pc587612faa)" style="fill: none; stroke: #808080; stroke-width: 2.369605; stroke-linecap: square"/>
   </g>
   <g id="line2d_9">
    <path d="M 119.54558 132.080351 
L 119.54558 120.885367 
" clip-path="url(#pc587612faa)" style="fill: none; stroke: #808080; stroke-width: 2.369605; stroke-linecap: square"/>
   </g>
   <g id="text_3">
    <text style="fill: #ffffff; font: 1.27px 'sans-serif'; text-anchor: start" x="105.55185" y="211.378157" transform="rotate(-0, 105.55185, 211.378157)">1</text>
   </g>
   <g id="patch_3">
    <path d="M 119.54558 183.390696 
C 124.493821 183.390696 129.240061 181.424739 132.738995 177.925804 
C 136.23793 174.42687 138.203887 169.68063 138.203887 164.732389 
C 138.203887 159.784148 136.23793 155.037908 132.738995 151.538973 
C 129.240061 148.040038 124.493821 146.074082 119.54558 146.074082 
C 114.597339 146.074082 109.851099 148.040038 106.352164 151.538973 
C 102.85323 155.037908 100.887273 159.784148 100.887273 164.732389 
C 100.887273 169.68063 102.85323 174.42687 106.352164 177.925804 
C 109.851099 181.424739 114.597339 183.390696 119.54558 183.390696 
z
" clip-path="url(#pc587612faa)" style="fill: #0dab76"/>
   </g>
   <g id="patch_4">
    <path d="M 119.54558 174.061542 
C 122.0197 174.061542 124.39282 173.078564 126.142288 171.329096 
C 127.891755 169.579629 128.874734 167.206509 128.874734 164.732389 
C 128.874734 162.258268 127.891755 159.885148 126.142288 158.135681 
C 124.39282 156.386214 122.0197 155.403235 119.54558 155.403235 
C 117.071459 155.403235 114.69834 156.386214 112.948872 158.135681 
C 111.199405 159.885148 110.216426 162.258268 110.216426 164.732389 
C 110.216426 167.206509 111.199405 169.579629 112.948872 171.329096 
C 114.69834 173.078564 117.071459 174.061542 119.54558 174.061542 
z
" clip-path="url(#pc587612faa)" style="fill: #a0a0a0"/>
   </g>
   <g id="patch_5">
    <path d="M 166.191348 183.390696 
C 171.139589 183.390696 175.885829 181.424739 179.384764 177.925804 
C 182.883698 174.42687 184.849655 169.68063 184.849655 164.732389 
C 184.849655 159.784148 182.883698 155.037908 179.384764 151.538973 
C 175.885829 148.040038 171.139589 146.074082 166.191348 146.074082 
C 161.243107 146.074082 156.496867 148.040038 152.997932 151.538973 
C 149.498998 155.037908 147.533041 159.784148 147.533041 164.732389 
C 147.533041 169.68063 149.498998 174.42687 152.997932 177.925804 
C 156.496867 181.424739 161.243107 183.390696 166.191348 183.390696 
z
" clip-path="url(#pc587612faa)" style="fill: #0dab76"/>
   </g>
   <g id="patch_6">
    <path d="M 166.191348 174.061542 
C 168.665468 174.061542 171.038588 173.078564 172.788056 171.329096 
C 174.537523 169.579629 175.520502 167.206509 175.520502 164.732389 
C 175.520502 162.258268 174.537523 159.885148 172.788056 158.135681 
C 171.038588 156.386214 168.665468 155.403235 166.191348 155.403235 
C 163.717228 155.403235 161.344108 156.386214 159.59464 158.135681 
C 157.845173 159.885148 156.862194 162.258268 156.862194 164.732389 
C 156.862194 167.206509 157.845173 169.579629 159.59464 171.329096 
C 161.344108 173.078564 163.717228 174.061542 166.191348 174.061542 
z
" clip-path="url(#pc587612faa)" style="fill: #a0a0a0"/>
   </g>
   <g id="patch_7">
    <path d="M 212.837116 183.390696 
C 217.785357 183.390696 222.531597 181.424739 226.030532 177.925804 
C 229.529466 174.42687 231.495423 169.68063 231.495423 164.732389 
C 231.495423 159.784148 229.529466 155.037908 226.030532 151.538973 
C 222.531597 148.040038 217.785357 146.074082 212.837116 146.074082 
C 207.888875 146.074082 203.142635 148.040038 199.6437 151.538973 
C 196.144766 155.037908 194.178809 159.784148 194.178809 164.732389 
C 194.178809 169.68063 196.144766 174.42687 199.6437 177.925804 
C 203.142635 181.424739 207.888875 183.390696 212.837116 183.390696 
z
" clip-path="url(#pc587612faa)" style="fill: #0dab76"/>
   </g>
   <g id="patch_8">
    <path d="M 212.837116 174.061542 
C 215.311236 174.061542 217.684356 173.078564 219.433824 171.329096 
C 221.183291 169.579629 222.16627 167.206509 222.16627 164.732389 
C 222.16627 162.258268 221.183291 159.885148 219.433824 158.135681 
C 217.684356 156.386214 215.311236 155.403235 212.837116 155.403235 
C 210.362996 155.403235 207.989876 156.386214 206.240408 158.135681 
C 204.490941 159.885148 203.507962 162.258268 203.507962 164.732389 
C 203.507962 167.206509 204.490941 169.579629 206.240408 171.329096 
C 207.989876 173.078564 210.362996 174.061542 212.837116 174.061542 
z
" clip-path="url(#pc587612faa)" style="fill: #a0a0a0"/>
   </g>
   <g id="patch_9">
    <path d="M 259.482884 183.390696 
C 264.431125 183.390696 269.177365 181.424739 272.6763 177.925804 
C 276.175234 174.42687 278.141191 169.68063 278.141191 164.732389 
C 278.141191 159.784148 276.175234 155.037908 272.6763 151.538973 
C 269.177365 148.040038 264.431125 146.074082 259.482884 146.074082 
C 254.534643 146.074082 249.788403 148.040038 246.289468 151.538973 
C 242.790534 155.037908 240.824577 159.784148 240.824577 164.732389 
C 240.824577 169.68063 242.790534 174.42687 246.289468 177.925804 
C 249.788403 181.424739 254.534643 183.390696 259.482884 183.390696 
z
" clip-path="url(#pc587612faa)" style="fill: #0dab76"/>
   </g>
   <g id="patch_10">
    <path d="M 259.482884 174.061542 
C 261.957004 174.061542 264.330124 173.078564 266.079592 171.329096 
C 267.829059 169.579629 268.812038 167.206509 268.812038 164.732389 
C 268.812038 162.258268 267.829059 159.885148 266.079592 158.135681 
C 264.330124 156.386214 261.957004 155.403235 259.482884 155.403235 
C 257.008764 155.403235 254.635644 156.386214 252.886176 158.135681 
C 251.136709 159.885148 250.15373 162.258268 250.15373 164.732389 
C 250.15373 167.206509 251.136709 169.579629 252.886176 171.329096 
C 254.635644 173.078564 257.008764 174.061542 259.482884 174.061542 
z
" clip-path="url(#pc587612faa)" style="fill: #a0a0a0"/>
   </g>
   <g id="patch_11">
    <path d="M 306.128652 183.390696 
C 311.076893 183.390696 315.823133 181.424739 319.322068 177.925804 
C 322.821002 174.42687 324.786959 169.68063 324.786959 164.732389 
C 324.786959 159.784148 322.821002 155.037908 319.322068 151.538973 
C 315.823133 148.040038 311.076893 146.074082 306.128652 146.074082 
C 301.180411 146.074082 296.434171 148.040038 292.935236 151.538973 
C 289.436302 155.037908 287.470345 159.784148 287.470345 164.732389 
C 287.470345 169.68063 289.436302 174.42687 292.935236 177.925804 
C 296.434171 181.424739 301.180411 183.390696 306.128652 183.390696 
z
" clip-path="url(#pc587612faa)" style="fill: #0dab76"/>
   </g>
   <g id="patch_12">
    <path d="M 306.128652 174.061542 
C 308.602772 174.061542 310.975892 173.078564 312.72536 171.329096 
C 314.474827 169.579629 315.457806 167.206509 315.457806 164.732389 
C 315.457806 162.258268 314.474827 159.885148 312.72536 158.135681 
C 310.975892 156.386214 308.602772 155.403235 306.128652 155.403235 
C 303.654532 155.403235 301.281412 156.386214 299.531944 158.135681 
C 297.782477 159.885148 296.799498 162.258268 296.799498 164.732389 
C 296.799498 167.206509 297.782477 169.579629 299.531944 171.329096 
C 301.281412 173.078564 303.654532 174.061542 306.128652 174.061542 
z
" clip-path="url(#pc587612faa)" style="fill: #a0a0a0"/>
   </g>
   <g id="patch_13">
    <path d="M 352.77442 183.390696 
C 357.722661 183.390696 362.468901 181.424739 365.967836 177.925804 
C 369.46677 174.42687 371.432727 169.68063 371.432727 164.732389 
C 371.432727 159.784148 369.46677 155.037908 365.967836 151.538973 
C 362.468901 148.040038 357.722661 146.074082 352.77442 146.074082 
C 347.826179 146.074082 343.079939 148.040038 339.581005 151.538973 
C 336.08207 155.037908 334.116113 159.784148 334.116113 164.732389 
C 334.116113 169.68063 336.08207 174.42687 339.581005 177.925804 
C 343.079939 181.424739 347.826179 183.390696 352.77442 183.390696 
z
" clip-path="url(#pc587612faa)" style="fill: #0dab76"/>
   </g>
   <g id="patch_14">
    <path d="M 352.77442 174.061542 
C 355.248541 174.061542 357.62166 173.078564 359.371128 171.329096 
C 361.120595 169.579629 362.103574 167.206509 362.103574 164.732389 
C 362.103574 162.258268 361.120595 159.885148 359.371128 158.135681 
C 357.62166 156.386214 355.248541 155.403235 352.77442 155.403235 
C 350.3003 155.403235 347.92718 156.386214 346.177712 158.135681 
C 344.428245 159.885148 343.445266 162.258268 343.445266 164.732389 
C 343.445266 167.206509 344.428245 169.579629 346.177712 171.329096 
C 347.92718 173.078564 350.3003 174.061542 352.77442 174.061542 
z
" clip-path="url(#pc587612faa)" style="fill: #a0a0a0"/>
   </g>
   <g id="matplotlib.axis_1">
    <g id="xtick_1">
     <g id="line2d_10">
      <defs>
       <path id="mf4ae72af3b" d="M 0 0 
L 0 3.5 
" style="stroke: #ffffff; stroke-width: 0.8"/>
      </defs>
      <g>
       <use xlink:href="#mf4ae72af3b" x="96.222696" y="233.534897" style="fill: #ffffff; stroke: #ffffff; stroke-width: 0.8"/>
      </g>
     </g>
     <g id="text_4">
      <text style="fill: #ffffff; font: 10px 'sans-serif'; text-anchor: middle" x="96.222696" y="248.133334" transform="rotate(-0, 96.222696, 248.133334)">−7.5</text>
     </g>
    </g>
    <g id="xtick_2">
     <g id="line2d_11">
      <g>
       <use xlink:href="#mf4ae72af3b" x="142.868464" y="233.534897" style="fill: #ffffff; stroke: #ffffff; stroke-width: 0.8"/>
      </g>
     </g>
     <g id="text_5">
      <text style="fill: #ffffff; font: 10px 'sans-serif'; text-anchor: middle" x="142.868464" y="248.133334" transform="rotate(-0, 142.868464, 248.133334)">−5.0</text>
     </g>
    </g>
    <g id="xtick_3">
     <g id="line2d_12">
      <g>
       <use xlink:href="#mf4ae72af3b" x="189.514232" y="233.534897" style="fill: #ffffff; stroke: #ffffff; stroke-width: 0.8"/>
      </g>
     </g>
     <g id="text_6">
      <text style="fill: #ffffff; font: 10px 'sans-serif'; text-anchor: middle" x="189.514232" y="248.133334" transform="rotate(-0, 189.514232, 248.133334)">−2.5</text>
     </g>
    </g>
    <g id="xtick_4">
     <g id="line2d_13">
      <g>
       <use xlink:href="#mf4ae72af3b" x="236.16" y="233.534897" style="fill: #ffffff; stroke: #ffffff; stroke-width: 0.8"/>
      </g>
     </g>
     <g id="text_7">
      <text style="fill: #ffffff; font: 10px 'sans-serif'; text-anchor: middle" x="236.16" y="248.133334" transform="rotate(-0, 236.16, 248.133334)">0.0</text>
     </g>
    </g>
    <g id="xtick_5">
     <g id="line2d_14">
      <g>
       <use xlink:href="#mf4ae72af3b" x="282.805768" y="233.534897" style="fill: #ffffff; stroke: #ffffff; stroke-width: 0.8"/>
      </g>
     </g>
     <g id="text_8">
      <text style="fill: #ffffff; font: 10px 'sans-serif'; text-anchor: middle" x="282.805768" y="248.133334" transform="rotate(-0, 282.805768, 248.133334)">2.5</text>
     </g>
    </g>
    <g id="xtick_6">
     <g id="line2d_15">
      <g>
       <use xlink:href="#mf4ae72af3b" x="329.451536" y="233.534897" style="fill: #ffffff; stroke: #ffffff; stroke-width: 0.8"/>
      </g>
     </g>
     <g id="text_9">
      <text style="fill: #ffffff; font: 10px 'sans-serif'; text-anchor: middle" x="329.451536" y="248.133334" transform="rotate(-0, 329.451536, 248.133334)">5.0</text>
     </g>
    </g>
    <g id="xtick_7">
     <g id="line2d_16">
      <g>
       <use xlink:href="#mf4ae72af3b" x="376.097304" y="233.534897" style="fill: #ffffff; stroke: #ffffff; stroke-width: 0.8"/>
      </g>
     </g>
     <g id="text_10">
      <text style="fill: #ffffff; font: 10px 'sans-serif'; text-anchor: middle" x="376.097304" y="248.133334" transform="rotate(-0, 376.097304, 248.133334)">7.5</text>
     </g>
    </g>
   </g>
   <g id="matplotlib.axis_2">
    <g id="ytick_1">
     <g id="line2d_17">
      <defs>
       <path id="m9382dc256e" d="M 0 0 
L -3.5 0 
" style="stroke: #ffffff; stroke-width: 0.8"/>
      </defs>
      <g>
       <use xlink:href="#m9382dc256e" x="57.6" y="202.049003" style="fill: #ffffff; stroke: #ffffff; stroke-width: 0.8"/>
      </g>
     </g>
     <g id="text_11">
      <text style="fill: #ffffff; font: 10px 'sans-serif'; text-anchor: end" x="50.6" y="205.848222" transform="rotate(-0, 50.6, 205.848222)">−2</text>
     </g>
    </g>
    <g id="ytick_2">
     <g id="line2d_18">
      <g>
       <use xlink:href="#m9382dc256e" x="57.6" y="164.732389" style="fill: #ffffff; stroke: #ffffff; stroke-width: 0.8"/>
      </g>
     </g>
     <g id="text_12">
      <text style="fill: #ffffff; font: 10px 'sans-serif'; text-anchor: end" x="50.6" y="168.531607" transform="rotate(-0, 50.6, 168.531607)">0</text>
     </g>
    </g>
    <g id="ytick_3">
     <g id="line2d_19">
      <g>
       <use xlink:href="#m9382dc256e" x="57.6" y="127.415774" style="fill: #ffffff; stroke: #ffffff; stroke-width: 0.8"/>
      </g>
     </g>
     <g id="text_13">
      <text style="fill: #ffffff; font: 10px 'sans-serif'; text-anchor: end" x="50.6" y="131.214993" transform="rotate(-0, 50.6, 131.214993)">2</text>
     </g>
    </g>
   </g>
   <g id="patch_15">
    <path d="M 57.6 233.534897 
L 57.6 115.521103 
" style="fill: none; stroke: #ffffff; stroke-width: 0.8; stroke-linejoin: miter; stroke-linecap: square"/>
   </g>
   <g id="patch_16">
    <path d="M 414.72 233.534897 
L 414.72 115.521103 
" style="fill: none; stroke: #ffffff; stroke-width: 0.8; stroke-linejoin: miter; stroke-linecap: square"/>
   </g>
   <g id="patch_17">
    <path d="M 57.6 233.534897 
L 414.72 233.534897 
" style="fill: none; stroke: #ffffff; stroke-width: 0.8; stroke-linejoin: miter; stroke-linecap: square"/>
   </g>
   <g id="patch_18">
    <path d="M 57.6 115.521103 
L 414.72 115.521103 
" style="fill: none; stroke: #ffffff; stroke-width: 0.8; stroke-linejoin: miter; stroke-linecap: square"/>
   </g>
   <g id="text_14">
    <text style="fill: #ffffff; font: 12px 'sans-serif'; text-anchor: middle" x="236.16" y="109.521103" transform="rotate(-0, 236.16, 109.521103)">B6B-XH</text>
   </g>
  </g>
 </g>
 <defs>
  <clipPath id="pc587612faa">
   <rect x="57.6" y="115.521103" width="357.12" height="118.013793"/>
  </clipPath>
 </defs>
</svg>
