<?xml version="1.0" encoding="utf-8" standalone="no"?>
<!DOCTYPE svg PUBLIC "-//W3C//DTD SVG 1.1//EN"
  "http://www.w3.org/Graphics/SVG/1.1/DTD/svg11.dtd">
<svg xmlns:xlink="http://www.w3.org/1999/xlink" width="460.8pt" height="345.6pt" viewBox="0 0 460.8 345.6" xmlns="http://www.w3.org/2000/svg" version="1.1">
 <metadata>
  <rdf:RDF xmlns:dc="http://purl.org/dc/elements/1.1/" xmlns:cc="http://creativecommons.org/ns#" xmlns:rdf="http://www.w3.org/1999/02/22-rdf-syntax-ns#">
   <cc:Work>
    <dc:type rdf:resource="http://purl.org/dc/dcmitype/StillImage"/>
    <dc:date>2023-02-18T16:06:06.393637</dc:date>
    <dc:format>image/svg+xml</dc:format>
    <dc:creator>
     <cc:Agent>
      <dc:title>Matplotlib v3.5.1, https://matplotlib.org/</dc:title>
     </cc:Agent>
    </dc:creator>
   </cc:Work>
  </rdf:RDF>
 </metadata>
 <defs>
  <style type="text/css">*{stroke-linejoin: round; stroke-linecap: butt}</style>
 </defs>
 <g id="figure_1">
  <g id="patch_1">
   <path d="M 0 345.6 
L 460.8 345.6 
L 460.8 0 
L 0 0 
z
" style="fill: #2b2b2b"/>
  </g>
  <g id="axes_1">
   <g id="patch_2">
    <path d="M 57.6 245.836555 
L 414.72 245.836555 
L 414.72 103.219445 
L 57.6 103.219445 
z
" style="fill: #2b2b2b"/>
   </g>
   <g id="patch_3">
    <path d="M 189.864496 127.072712 
C 189.926662 127.072712 189.98629 127.048013 190.030247 127.004055 
C 190.074205 126.960097 190.098904 126.90047 190.098904 126.838304 
C 190.098904 126.776138 190.074205 126.71651 190.030247 126.672553 
C 189.98629 126.628595 189.926662 126.603896 189.864496 126.603896 
C 189.802331 126.603896 189.742703 126.628595 189.698745 126.672553 
C 189.654787 126.71651 189.630089 126.776138 189.630089 126.838304 
C 189.630089 126.90047 189.654787 126.960097 189.698745 127.004055 
C 189.742703 127.048013 189.802331 127.072712 189.864496 127.072712 
L 189.864496 127.072712 
z
" clip-path="url(#p92fd89fb3b)" style="fill: none; stroke: #808080; stroke-width: 2.344076; stroke-linejoin: miter"/>
   </g>
   <g id="line2d_1">
    <path d="M 189.688605 113.174408 
L 199.566028 117.312242 
L 199.566028 117.312242 
L 189.688143 121.450302 
L 189.688143 121.450302 
" clip-path="url(#p92fd89fb3b)" style="fill: none; stroke: #808080; stroke-width: 0.762106; stroke-linecap: round"/>
   </g>
   <g id="line2d_2">
    <path d="M 201.988314 124.65405 
L 201.988314 109.969399 
L 210.13162 124.65405 
L 210.13162 109.969399 
" clip-path="url(#p92fd89fb3b)" style="fill: none; stroke: #808080; stroke-width: 0.762106; stroke-linecap: round"/>
   </g>
   <g id="line2d_3">
    <path d="M 212.617828 124.387201 
L 217.557379 109.702041 
L 217.557379 109.702041 
L 222.36287 124.387579 
L 222.36287 124.387579 
" clip-path="url(#p92fd89fb3b)" style="fill: none; stroke: #808080; stroke-width: 0.762106; stroke-linecap: round"/>
   </g>
   <g id="line2d_4">
    <path d="M 221.162562 120.78344 
L 213.820237 120.78344 
" clip-path="url(#p92fd89fb3b)" style="fill: none; stroke: #808080; stroke-width: 0.762106; stroke-linecap: round"/>
   </g>
   <g id="line2d_5">
    <path d="M 224.050383 124.654483 
L 224.050383 109.969832 
L 228.856269 118.113139 
L 228.856269 118.113139 
L 233.795652 109.969832 
L 233.795652 109.969832 
L 233.795652 124.654483 
" clip-path="url(#p92fd89fb3b)" style="fill: none; stroke: #808080; stroke-width: 0.762106; stroke-linecap: round"/>
   </g>
   <g id="line2d_6">
    <path d="M 243.624561 124.654566 
L 237.083216 124.654566 
L 237.083216 109.969915 
L 243.624561 109.969915 
" clip-path="url(#p92fd89fb3b)" style="fill: none; stroke: #808080; stroke-width: 0.762106; stroke-linecap: round"/>
   </g>
   <g id="line2d_7">
    <path d="M 237.083481 116.511606 
L 242.022864 116.511606 
" clip-path="url(#p92fd89fb3b)" style="fill: none; stroke: #808080; stroke-width: 0.762106; stroke-linecap: round"/>
   </g>
   <g id="line2d_8">
    <path d="M 73.832727 133.870532 
L 398.487273 133.870532 
" clip-path="url(#p92fd89fb3b)" style="fill: none; stroke: #808080; stroke-width: 2.976977; stroke-linecap: round"/>
   </g>
   <g id="line2d_9">
    <path d="M 398.487273 133.870532 
L 398.487273 239.353959 
" clip-path="url(#p92fd89fb3b)" style="fill: none; stroke: #808080; stroke-width: 2.976977; stroke-linecap: round"/>
   </g>
   <g id="line2d_10">
    <path d="M 398.487273 239.353959 
L 73.832727 239.353959 
" clip-path="url(#p92fd89fb3b)" style="fill: none; stroke: #808080; stroke-width: 2.976977; stroke-linecap: round"/>
   </g>
   <g id="line2d_11">
    <path d="M 73.832727 239.353959 
L 73.832727 133.870532 
" clip-path="url(#p92fd89fb3b)" style="fill: none; stroke: #808080; stroke-width: 2.976977; stroke-linecap: round"/>
   </g>
   <g id="patch_4">
    <path d="M 372.702435 228.278199 
C 372.764601 228.278199 372.824229 228.2535 372.868186 228.209543 
C 372.912144 228.165585 372.936843 228.105957 372.936843 228.043791 
C 372.936843 227.981626 372.912144 227.921998 372.868186 227.87804 
C 372.824229 227.834082 372.764601 227.809384 372.702435 227.809384 
C 372.64027 227.809384 372.580642 227.834082 372.536684 227.87804 
C 372.492726 227.921998 372.468028 227.981626 372.468028 228.043791 
C 372.468028 228.105957 372.492726 228.165585 372.536684 228.209543 
C 372.580642 228.2535 372.64027 228.278199 372.702435 228.278199 
L 372.702435 228.278199 
z
" clip-path="url(#p92fd89fb3b)" style="fill: none; stroke: #808080; stroke-width: 2.344076; stroke-linejoin: miter"/>
   </g>
   <g id="line2d_12">
    <path d="M 373.327079 214.378561 
L 377.464993 211.175015 
L 377.464993 211.175015 
L 377.464924 225.859775 
L 377.464924 225.859775 
" clip-path="url(#p92fd89fb3b)" style="fill: none; stroke: #808080; stroke-width: 0.762106; stroke-linecap: round"/>
   </g>
   <g id="line2d_13">
    <path d="M 373.327325 225.859468 
L 381.604128 225.859468 
" clip-path="url(#p92fd89fb3b)" style="fill: none; stroke: #808080; stroke-width: 0.762106; stroke-linecap: round"/>
   </g>
   <g id="patch_5">
    <path d="M 166.423735 207.357319 
C 171.396985 207.357319 176.167213 205.381426 179.683832 201.864807 
C 183.200451 198.348188 185.176344 193.57796 185.176344 188.60471 
C 185.176344 183.63146 183.200451 178.861232 179.683832 175.344613 
C 176.167213 171.827994 171.396985 169.852101 166.423735 169.852101 
C 161.450485 169.852101 156.680257 171.827994 153.163638 175.344613 
C 149.647019 178.861232 147.671126 183.63146 147.671126 188.60471 
C 147.671126 193.57796 149.647019 198.348188 153.163638 201.864807 
C 156.680257 205.381426 161.450485 207.357319 166.423735 207.357319 
z
" clip-path="url(#p92fd89fb3b)" style="fill: #0dab76"/>
   </g>
   <g id="patch_6">
    <path d="M 166.423735 197.981015 
C 168.91036 197.981015 171.295474 196.993068 173.053783 195.234759 
C 174.812093 193.476449 175.800039 191.091335 175.800039 188.60471 
C 175.800039 186.118085 174.812093 183.732971 173.053783 181.974662 
C 171.295474 180.216352 168.91036 179.228406 166.423735 179.228406 
C 163.93711 179.228406 161.551996 180.216352 159.793686 181.974662 
C 158.035377 183.732971 157.04743 186.118085 157.04743 188.60471 
C 157.04743 191.091335 158.035377 193.476449 159.793686 195.234759 
C 161.551996 196.993068 163.93711 197.981015 166.423735 197.981015 
z
" clip-path="url(#p92fd89fb3b)" style="fill: #a0a0a0"/>
   </g>
   <g id="patch_7">
    <path d="M 213.305258 207.357319 
C 218.278508 207.357319 223.048736 205.381426 226.565355 201.864807 
C 230.081974 198.348188 232.057867 193.57796 232.057867 188.60471 
C 232.057867 183.63146 230.081974 178.861232 226.565355 175.344613 
C 223.048736 171.827994 218.278508 169.852101 213.305258 169.852101 
C 208.332008 169.852101 203.561779 171.827994 200.045161 175.344613 
C 196.528542 178.861232 194.552649 183.63146 194.552649 188.60471 
C 194.552649 193.57796 196.528542 198.348188 200.045161 201.864807 
C 203.561779 205.381426 208.332008 207.357319 213.305258 207.357319 
z
" clip-path="url(#p92fd89fb3b)" style="fill: #0dab76"/>
   </g>
   <g id="patch_8">
    <path d="M 213.305258 197.981015 
C 215.791883 197.981015 218.176997 196.993068 219.935306 195.234759 
C 221.693616 193.476449 222.681562 191.091335 222.681562 188.60471 
C 222.681562 186.118085 221.693616 183.732971 219.935306 181.974662 
C 218.176997 180.216352 215.791883 179.228406 213.305258 179.228406 
C 210.818633 179.228406 208.433519 180.216352 206.675209 181.974662 
C 204.9169 183.732971 203.928953 186.118085 203.928953 188.60471 
C 203.928953 191.091335 204.9169 193.476449 206.675209 195.234759 
C 208.433519 196.993068 210.818633 197.981015 213.305258 197.981015 
z
" clip-path="url(#p92fd89fb3b)" style="fill: #a0a0a0"/>
   </g>
   <g id="patch_9">
    <path d="M 260.18678 207.357319 
C 265.160031 207.357319 269.930259 205.381426 273.446878 201.864807 
C 276.963496 198.348188 278.93939 193.57796 278.93939 188.60471 
C 278.93939 183.63146 276.963496 178.861232 273.446878 175.344613 
C 269.930259 171.827994 265.160031 169.852101 260.18678 169.852101 
C 255.21353 169.852101 250.443302 171.827994 246.926683 175.344613 
C 243.410065 178.861232 241.434171 183.63146 241.434171 188.60471 
C 241.434171 193.57796 243.410065 198.348188 246.926683 201.864807 
C 250.443302 205.381426 255.21353 207.357319 260.18678 207.357319 
z
" clip-path="url(#p92fd89fb3b)" style="fill: #0dab76"/>
   </g>
   <g id="patch_10">
    <path d="M 260.18678 197.981015 
C 262.673405 197.981015 265.05852 196.993068 266.816829 195.234759 
C 268.575138 193.476449 269.563085 191.091335 269.563085 188.60471 
C 269.563085 186.118085 268.575138 183.732971 266.816829 181.974662 
C 265.05852 180.216352 262.673405 179.228406 260.18678 179.228406 
C 257.700155 179.228406 255.315041 180.216352 253.556732 181.974662 
C 251.798422 183.732971 250.810476 186.118085 250.810476 188.60471 
C 250.810476 191.091335 251.798422 193.476449 253.556732 195.234759 
C 255.315041 196.993068 257.700155 197.981015 260.18678 197.981015 
z
" clip-path="url(#p92fd89fb3b)" style="fill: #a0a0a0"/>
   </g>
   <g id="patch_11">
    <path d="M 307.068303 207.357319 
C 312.041553 207.357319 316.811781 205.381426 320.3284 201.864807 
C 323.845019 198.348188 325.820912 193.57796 325.820912 188.60471 
C 325.820912 183.63146 323.845019 178.861232 320.3284 175.344613 
C 316.811781 171.827994 312.041553 169.852101 307.068303 169.852101 
C 302.095053 169.852101 297.324825 171.827994 293.808206 175.344613 
C 290.291587 178.861232 288.315694 183.63146 288.315694 188.60471 
C 288.315694 193.57796 290.291587 198.348188 293.808206 201.864807 
C 297.324825 205.381426 302.095053 207.357319 307.068303 207.357319 
z
" clip-path="url(#p92fd89fb3b)" style="fill: #0dab76"/>
   </g>
   <g id="patch_12">
    <path d="M 307.068303 197.981015 
C 309.554928 197.981015 311.940042 196.993068 313.698352 195.234759 
C 315.456661 193.476449 316.444608 191.091335 316.444608 188.60471 
C 316.444608 186.118085 315.456661 183.732971 313.698352 181.974662 
C 311.940042 180.216352 309.554928 179.228406 307.068303 179.228406 
C 304.581678 179.228406 302.196564 180.216352 300.438255 181.974662 
C 298.679945 183.732971 297.691999 186.118085 297.691999 188.60471 
C 297.691999 191.091335 298.679945 193.476449 300.438255 195.234759 
C 302.196564 196.993068 304.581678 197.981015 307.068303 197.981015 
z
" clip-path="url(#p92fd89fb3b)" style="fill: #a0a0a0"/>
   </g>
   <g id="patch_13">
    <path d="M 353.949826 207.357319 
C 358.923076 207.357319 363.693304 205.381426 367.209923 201.864807 
C 370.726542 198.348188 372.702435 193.57796 372.702435 188.60471 
C 372.702435 183.63146 370.726542 178.861232 367.209923 175.344613 
C 363.693304 171.827994 358.923076 169.852101 353.949826 169.852101 
C 348.976576 169.852101 344.206348 171.827994 340.689729 175.344613 
C 337.17311 178.861232 335.197217 183.63146 335.197217 188.60471 
C 335.197217 193.57796 337.17311 198.348188 340.689729 201.864807 
C 344.206348 205.381426 348.976576 207.357319 353.949826 207.357319 
z
" clip-path="url(#p92fd89fb3b)" style="fill: #0dab76"/>
   </g>
   <g id="patch_14">
    <path d="M 353.949826 197.981015 
C 356.436451 197.981015 358.821565 196.993068 360.579875 195.234759 
C 362.338184 193.476449 363.326131 191.091335 363.326131 188.60471 
C 363.326131 186.118085 362.338184 183.732971 360.579875 181.974662 
C 358.821565 180.216352 356.436451 179.228406 353.949826 179.228406 
C 351.463201 179.228406 349.078087 180.216352 347.319778 181.974662 
C 345.561468 183.732971 344.573521 186.118085 344.573521 188.60471 
C 344.573521 191.091335 345.561468 193.476449 347.319778 195.234759 
C 349.078087 196.993068 351.463201 197.981015 353.949826 197.981015 
z
" clip-path="url(#p92fd89fb3b)" style="fill: #a0a0a0"/>
   </g>
   <g id="patch_15">
    <path d="M 119.542212 207.357319 
C 124.515462 207.357319 129.28569 205.381426 132.802309 201.864807 
C 136.318928 198.348188 138.294821 193.57796 138.294821 188.60471 
C 138.294821 183.63146 136.318928 178.861232 132.802309 175.344613 
C 129.28569 171.827994 124.515462 169.852101 119.542212 169.852101 
C 114.568962 169.852101 109.798734 171.827994 106.282115 175.344613 
C 102.765496 178.861232 100.789603 183.63146 100.789603 188.60471 
C 100.789603 193.57796 102.765496 198.348188 106.282115 201.864807 
C 109.798734 205.381426 114.568962 207.357319 119.542212 207.357319 
z
" clip-path="url(#p92fd89fb3b)" style="fill: #0dab76"/>
   </g>
   <g id="patch_16">
    <path d="M 119.542212 197.981015 
C 122.028837 197.981015 124.413951 196.993068 126.172261 195.234759 
C 127.93057 193.476449 128.918517 191.091335 128.918517 188.60471 
C 128.918517 186.118085 127.93057 183.732971 126.172261 181.974662 
C 124.413951 180.216352 122.028837 179.228406 119.542212 179.228406 
C 117.055587 179.228406 114.670473 180.216352 112.912163 181.974662 
C 111.153854 183.732971 110.165907 186.118085 110.165907 188.60471 
C 110.165907 191.091335 111.153854 193.476449 112.912163 195.234759 
C 114.670473 196.993068 117.055587 197.981015 119.542212 197.981015 
z
" clip-path="url(#p92fd89fb3b)" style="fill: #a0a0a0"/>
   </g>
   <g id="matplotlib.axis_1">
    <g id="xtick_1">
     <g id="line2d_14">
      <defs>
       <path id="mf06b09208f" d="M 0 0 
L 0 3.5 
" style="stroke: #ffffff; stroke-width: 0.8"/>
      </defs>
      <g>
       <use xlink:href="#mf06b09208f" x="96.101451" y="245.836555" style="fill: #ffffff; stroke: #ffffff; stroke-width: 0.8"/>
      </g>
     </g>
     <g id="text_1">
      <text style="fill: #ffffff; font: 10px 'sans-serif'; text-anchor: middle" x="96.101451" y="260.434992" transform="rotate(-0, 96.101451, 260.434992)">−6</text>
     </g>
    </g>
    <g id="xtick_2">
     <g id="line2d_15">
      <g>
       <use xlink:href="#mf06b09208f" x="142.982973" y="245.836555" style="fill: #ffffff; stroke: #ffffff; stroke-width: 0.8"/>
      </g>
     </g>
     <g id="text_2">
      <text style="fill: #ffffff; font: 10px 'sans-serif'; text-anchor: middle" x="142.982973" y="260.434992" transform="rotate(-0, 142.982973, 260.434992)">−4</text>
     </g>
    </g>
    <g id="xtick_3">
     <g id="line2d_16">
      <g>
       <use xlink:href="#mf06b09208f" x="189.864496" y="245.836555" style="fill: #ffffff; stroke: #ffffff; stroke-width: 0.8"/>
      </g>
     </g>
     <g id="text_3">
      <text style="fill: #ffffff; font: 10px 'sans-serif'; text-anchor: middle" x="189.864496" y="260.434992" transform="rotate(-0, 189.864496, 260.434992)">−2</text>
     </g>
    </g>
    <g id="xtick_4">
     <g id="line2d_17">
      <g>
       <use xlink:href="#mf06b09208f" x="236.746019" y="245.836555" style="fill: #ffffff; stroke: #ffffff; stroke-width: 0.8"/>
      </g>
     </g>
     <g id="text_4">
      <text style="fill: #ffffff; font: 10px 'sans-serif'; text-anchor: middle" x="236.746019" y="260.434992" transform="rotate(-0, 236.746019, 260.434992)">0</text>
     </g>
    </g>
    <g id="xtick_5">
     <g id="line2d_18">
      <g>
       <use xlink:href="#mf06b09208f" x="283.627542" y="245.836555" style="fill: #ffffff; stroke: #ffffff; stroke-width: 0.8"/>
      </g>
     </g>
     <g id="text_5">
      <text style="fill: #ffffff; font: 10px 'sans-serif'; text-anchor: middle" x="283.627542" y="260.434992" transform="rotate(-0, 283.627542, 260.434992)">2</text>
     </g>
    </g>
    <g id="xtick_6">
     <g id="line2d_19">
      <g>
       <use xlink:href="#mf06b09208f" x="330.509065" y="245.836555" style="fill: #ffffff; stroke: #ffffff; stroke-width: 0.8"/>
      </g>
     </g>
     <g id="text_6">
      <text style="fill: #ffffff; font: 10px 'sans-serif'; text-anchor: middle" x="330.509065" y="260.434992" transform="rotate(-0, 330.509065, 260.434992)">4</text>
     </g>
    </g>
    <g id="xtick_7">
     <g id="line2d_20">
      <g>
       <use xlink:href="#mf06b09208f" x="377.390587" y="245.836555" style="fill: #ffffff; stroke: #ffffff; stroke-width: 0.8"/>
      </g>
     </g>
     <g id="text_7">
      <text style="fill: #ffffff; font: 10px 'sans-serif'; text-anchor: middle" x="377.390587" y="260.434992" transform="rotate(-0, 377.390587, 260.434992)">6</text>
     </g>
    </g>
   </g>
   <g id="matplotlib.axis_2">
    <g id="ytick_1">
     <g id="line2d_21">
      <defs>
       <path id="m362669bf15" d="M 0 0 
L -3.5 0 
" style="stroke: #ffffff; stroke-width: 0.8"/>
      </defs>
      <g>
       <use xlink:href="#m362669bf15" x="57.6" y="236.599669" style="fill: #ffffff; stroke: #ffffff; stroke-width: 0.8"/>
      </g>
     </g>
     <g id="text_8">
      <text style="fill: #ffffff; font: 10px 'sans-serif'; text-anchor: end" x="50.6" y="240.398888" transform="rotate(-0, 50.6, 240.398888)">−2</text>
     </g>
    </g>
    <g id="ytick_2">
     <g id="line2d_22">
      <g>
       <use xlink:href="#m362669bf15" x="57.6" y="213.158908" style="fill: #ffffff; stroke: #ffffff; stroke-width: 0.8"/>
      </g>
     </g>
     <g id="text_9">
      <text style="fill: #ffffff; font: 10px 'sans-serif'; text-anchor: end" x="50.6" y="216.958127" transform="rotate(-0, 50.6, 216.958127)">−1</text>
     </g>
    </g>
    <g id="ytick_3">
     <g id="line2d_23">
      <g>
       <use xlink:href="#m362669bf15" x="57.6" y="189.718146" style="fill: #ffffff; stroke: #ffffff; stroke-width: 0.8"/>
      </g>
     </g>
     <g id="text_10">
      <text style="fill: #ffffff; font: 10px 'sans-serif'; text-anchor: end" x="50.6" y="193.517365" transform="rotate(-0, 50.6, 193.517365)">0</text>
     </g>
    </g>
    <g id="ytick_4">
     <g id="line2d_24">
      <g>
       <use xlink:href="#m362669bf15" x="57.6" y="166.277385" style="fill: #ffffff; stroke: #ffffff; stroke-width: 0.8"/>
      </g>
     </g>
     <g id="text_11">
      <text style="fill: #ffffff; font: 10px 'sans-serif'; text-anchor: end" x="50.6" y="170.076604" transform="rotate(-0, 50.6, 170.076604)">1</text>
     </g>
    </g>
    <g id="ytick_5">
     <g id="line2d_25">
      <g>
       <use xlink:href="#m362669bf15" x="57.6" y="142.836624" style="fill: #ffffff; stroke: #ffffff; stroke-width: 0.8"/>
      </g>
     </g>
     <g id="text_12">
      <text style="fill: #ffffff; font: 10px 'sans-serif'; text-anchor: end" x="50.6" y="146.635842" transform="rotate(-0, 50.6, 146.635842)">2</text>
     </g>
    </g>
    <g id="ytick_6">
     <g id="line2d_26">
      <g>
       <use xlink:href="#m362669bf15" x="57.6" y="119.395862" style="fill: #ffffff; stroke: #ffffff; stroke-width: 0.8"/>
      </g>
     </g>
     <g id="text_13">
      <text style="fill: #ffffff; font: 10px 'sans-serif'; text-anchor: end" x="50.6" y="123.195081" transform="rotate(-0, 50.6, 123.195081)">3</text>
     </g>
    </g>
   </g>
   <g id="patch_17">
    <path d="M 57.6 245.836555 
L 57.6 103.219445 
" style="fill: none; stroke: #ffffff; stroke-width: 0.8; stroke-linejoin: miter; stroke-linecap: square"/>
   </g>
   <g id="patch_18">
    <path d="M 414.72 245.836555 
L 414.72 103.219445 
" style="fill: none; stroke: #ffffff; stroke-width: 0.8; stroke-linejoin: miter; stroke-linecap: square"/>
   </g>
   <g id="patch_19">
    <path d="M 57.6 245.836555 
L 414.72 245.836555 
" style="fill: none; stroke: #ffffff; stroke-width: 0.8; stroke-linejoin: miter; stroke-linecap: square"/>
   </g>
   <g id="patch_20">
    <path d="M 57.6 103.219445 
L 414.72 103.219445 
" style="fill: none; stroke: #ffffff; stroke-width: 0.8; stroke-linejoin: miter; stroke-linecap: square"/>
   </g>
   <g id="text_14">
    <text style="fill: #ffffff; font: 12px 'sans-serif'; text-anchor: middle" x="236.16" y="97.219445" transform="rotate(-0, 236.16, 97.219445)">B6B-PH</text>
   </g>
  </g>
 </g>
 <defs>
  <clipPath id="p92fd89fb3b">
   <rect x="57.6" y="103.219445" width="357.12" height="142.617109"/>
  </clipPath>
 </defs>
</svg>
