<?xml version="1.0" encoding="utf-8" standalone="no"?>
<!DOCTYPE svg PUBLIC "-//W3C//DTD SVG 1.1//EN"
  "http://www.w3.org/Graphics/SVG/1.1/DTD/svg11.dtd">
<svg xmlns:xlink="http://www.w3.org/1999/xlink" width="460.8pt" height="345.6pt" viewBox="0 0 460.8 345.6" xmlns="http://www.w3.org/2000/svg" version="1.1">
 <metadata>
  <rdf:RDF xmlns:dc="http://purl.org/dc/elements/1.1/" xmlns:cc="http://creativecommons.org/ns#" xmlns:rdf="http://www.w3.org/1999/02/22-rdf-syntax-ns#">
   <cc:Work>
    <dc:type rdf:resource="http://purl.org/dc/dcmitype/StillImage"/>
    <dc:date>2023-02-18T16:06:06.524166</dc:date>
    <dc:format>image/svg+xml</dc:format>
    <dc:creator>
     <cc:Agent>
      <dc:title>Matplotlib v3.5.1, https://matplotlib.org/</dc:title>
     </cc:Agent>
    </dc:creator>
   </cc:Work>
  </rdf:RDF>
 </metadata>
 <defs>
  <style type="text/css">*{stroke-linejoin: round; stroke-linecap: butt}</style>
 </defs>
 <g id="figure_1">
  <g id="patch_1">
   <path d="M 0 345.6 
L 460.8 345.6 
L 460.8 0 
L 0 0 
z
" style="fill: #2b2b2b"/>
  </g>
  <g id="axes_1">
   <g id="patch_2">
    <path d="M 57.6 236.83863 
L 414.72 236.83863 
L 414.72 112.21737 
L 57.6 112.21737 
z
" style="fill: #2b2b2b"/>
   </g>
   <g id="patch_3">
    <path d="M 195.7062 133.060761 
C 195.760522 133.060761 195.812625 133.039178 195.851036 133.000767 
C 195.889447 132.962356 195.91103 132.910253 195.91103 132.855931 
C 195.91103 132.80161 195.889447 132.749506 195.851036 132.711095 
C 195.812625 132.672684 195.760522 132.651102 195.7062 132.651102 
C 195.651879 132.651102 195.599775 132.672684 195.561364 132.711095 
C 195.522953 132.749506 195.501371 132.80161 195.501371 132.855931 
C 195.501371 132.910253 195.522953 132.962356 195.561364 133.000767 
C 195.599775 133.039178 195.651879 133.060761 195.7062 133.060761 
L 195.7062 133.060761 
z
" clip-path="url(#pf216958944)" style="fill: none; stroke: #808080; stroke-width: 2.048294; stroke-linejoin: miter"/>
   </g>
   <g id="line2d_1">
    <path d="M 195.552503 120.916187 
L 204.183564 124.531896 
L 204.183564 124.531896 
L 195.5521 128.147803 
L 195.5521 128.147803 
" clip-path="url(#pf216958944)" style="fill: none; stroke: #808080; stroke-width: 0.665941; stroke-linecap: round"/>
   </g>
   <g id="line2d_2">
    <path d="M 206.300199 130.947293 
L 206.300199 118.115595 
L 213.415958 130.947293 
L 213.415958 118.115595 
" clip-path="url(#pf216958944)" style="fill: none; stroke: #808080; stroke-width: 0.665941; stroke-linecap: round"/>
   </g>
   <g id="line2d_3">
    <path d="M 215.588449 130.714115 
L 219.904713 117.881973 
L 219.904713 117.881973 
L 224.103833 130.714446 
L 224.103833 130.714446 
" clip-path="url(#pf216958944)" style="fill: none; stroke: #808080; stroke-width: 0.665941; stroke-linecap: round"/>
   </g>
   <g id="line2d_4">
    <path d="M 223.054983 127.565088 
L 216.639134 127.565088 
" clip-path="url(#pf216958944)" style="fill: none; stroke: #808080; stroke-width: 0.665941; stroke-linecap: round"/>
   </g>
   <g id="line2d_5">
    <path d="M 225.578411 130.947671 
L 225.578411 118.115973 
L 229.777875 125.231733 
L 229.777875 125.231733 
L 234.093992 118.115973 
L 234.093992 118.115973 
L 234.093992 130.947671 
" clip-path="url(#pf216958944)" style="fill: none; stroke: #808080; stroke-width: 0.665941; stroke-linecap: round"/>
   </g>
   <g id="line2d_6">
    <path d="M 242.68266 130.947743 
L 236.966722 130.947743 
L 236.966722 118.116046 
L 242.68266 118.116046 
" clip-path="url(#pf216958944)" style="fill: none; stroke: #808080; stroke-width: 0.665941; stroke-linecap: round"/>
   </g>
   <g id="line2d_7">
    <path d="M 236.966954 123.832287 
L 241.28307 123.832287 
" clip-path="url(#pf216958944)" style="fill: none; stroke: #808080; stroke-width: 0.665941; stroke-linecap: round"/>
   </g>
   <g id="line2d_8">
    <path d="M 73.832727 139.000812 
L 398.487273 139.000812 
" clip-path="url(#pf216958944)" style="fill: none; stroke: #808080; stroke-width: 2.601333; stroke-linecap: round"/>
   </g>
   <g id="line2d_9">
    <path d="M 398.487273 139.000812 
L 398.487273 231.174027 
" clip-path="url(#pf216958944)" style="fill: none; stroke: #808080; stroke-width: 2.601333; stroke-linecap: round"/>
   </g>
   <g id="line2d_10">
    <path d="M 398.487273 231.174027 
L 73.832727 231.174027 
" clip-path="url(#pf216958944)" style="fill: none; stroke: #808080; stroke-width: 2.601333; stroke-linecap: round"/>
   </g>
   <g id="line2d_11">
    <path d="M 73.832727 231.174027 
L 73.832727 139.000812 
" clip-path="url(#pf216958944)" style="fill: none; stroke: #808080; stroke-width: 2.601333; stroke-linecap: round"/>
   </g>
   <g id="patch_4">
    <path d="M 375.956042 221.495839 
C 376.010364 221.495839 376.062468 221.474257 376.100879 221.435846 
C 376.13929 221.397435 376.160872 221.345331 376.160872 221.29101 
C 376.160872 221.236689 376.13929 221.184585 376.100879 221.146174 
C 376.062468 221.107763 376.010364 221.086181 375.956042 221.086181 
C 375.901721 221.086181 375.849617 221.107763 375.811206 221.146174 
C 375.772795 221.184585 375.751213 221.236689 375.751213 221.29101 
C 375.751213 221.345331 375.772795 221.397435 375.811206 221.435846 
C 375.849617 221.474257 375.901721 221.495839 375.956042 221.495839 
L 375.956042 221.495839 
z
" clip-path="url(#pf216958944)" style="fill: none; stroke: #808080; stroke-width: 2.048294; stroke-linejoin: miter"/>
   </g>
   <g id="line2d_12">
    <path d="M 376.501867 209.350099 
L 380.117646 206.550786 
L 380.117646 206.550786 
L 380.117587 219.382579 
L 380.117587 219.382579 
" clip-path="url(#pf216958944)" style="fill: none; stroke: #808080; stroke-width: 0.665941; stroke-linecap: round"/>
   </g>
   <g id="line2d_13">
    <path d="M 376.502082 219.382311 
L 383.734494 219.382311 
" clip-path="url(#pf216958944)" style="fill: none; stroke: #808080; stroke-width: 0.665941; stroke-linecap: round"/>
   </g>
   <g id="patch_5">
    <path d="M 195.7062 203.214819 
C 200.051911 203.214819 204.220217 201.488249 207.293099 198.415368 
C 210.36598 195.342486 212.092549 191.17418 212.092549 186.828469 
C 212.092549 182.482759 210.36598 178.314452 207.293099 175.241571 
C 204.220217 172.168689 200.051911 170.44212 195.7062 170.44212 
C 191.36049 170.44212 187.192183 172.168689 184.119301 175.241571 
C 181.04642 178.314452 179.319851 182.482759 179.319851 186.828469 
C 179.319851 191.17418 181.04642 195.342486 184.119301 198.415368 
C 187.192183 201.488249 191.36049 203.214819 195.7062 203.214819 
z
" clip-path="url(#pf216958944)" style="fill: #0dab76"/>
   </g>
   <g id="patch_6">
    <path d="M 195.7062 195.021644 
C 197.879055 195.021644 199.963209 194.158359 201.49965 192.621919 
C 203.03609 191.085478 203.899375 189.001325 203.899375 186.828469 
C 203.899375 184.655614 203.03609 182.571461 201.49965 181.03502 
C 199.963209 179.498579 197.879055 178.635295 195.7062 178.635295 
C 193.533345 178.635295 191.449192 179.498579 189.912751 181.03502 
C 188.37631 182.571461 187.513026 184.655614 187.513026 186.828469 
C 187.513026 189.001325 188.37631 191.085478 189.912751 192.621919 
C 191.449192 194.158359 193.533345 195.021644 195.7062 195.021644 
z
" clip-path="url(#pf216958944)" style="fill: #a0a0a0"/>
   </g>
   <g id="patch_7">
    <path d="M 236.672073 203.214819 
C 241.017784 203.214819 245.186091 201.488249 248.258972 198.415368 
C 251.331854 195.342486 253.058423 191.17418 253.058423 186.828469 
C 253.058423 182.482759 251.331854 178.314452 248.258972 175.241571 
C 245.186091 172.168689 241.017784 170.44212 236.672073 170.44212 
C 232.326363 170.44212 228.158056 172.168689 225.085175 175.241571 
C 222.012293 178.314452 220.285724 182.482759 220.285724 186.828469 
C 220.285724 191.17418 222.012293 195.342486 225.085175 198.415368 
C 228.158056 201.488249 232.326363 203.214819 236.672073 203.214819 
z
" clip-path="url(#pf216958944)" style="fill: #0dab76"/>
   </g>
   <g id="patch_8">
    <path d="M 236.672073 195.021644 
C 238.844929 195.021644 240.929082 194.158359 242.465523 192.621919 
C 244.001963 191.085478 244.865248 189.001325 244.865248 186.828469 
C 244.865248 184.655614 244.001963 182.571461 242.465523 181.03502 
C 240.929082 179.498579 238.844929 178.635295 236.672073 178.635295 
C 234.499218 178.635295 232.415065 179.498579 230.878624 181.03502 
C 229.342183 182.571461 228.478899 184.655614 228.478899 186.828469 
C 228.478899 189.001325 229.342183 191.085478 230.878624 192.621919 
C 232.415065 194.158359 234.499218 195.021644 236.672073 195.021644 
z
" clip-path="url(#pf216958944)" style="fill: #a0a0a0"/>
   </g>
   <g id="patch_9">
    <path d="M 277.637947 203.214819 
C 281.983657 203.214819 286.151964 201.488249 289.224845 198.415368 
C 292.297727 195.342486 294.024296 191.17418 294.024296 186.828469 
C 294.024296 182.482759 292.297727 178.314452 289.224845 175.241571 
C 286.151964 172.168689 281.983657 170.44212 277.637947 170.44212 
C 273.292236 170.44212 269.123929 172.168689 266.051048 175.241571 
C 262.978166 178.314452 261.251597 182.482759 261.251597 186.828469 
C 261.251597 191.17418 262.978166 195.342486 266.051048 198.415368 
C 269.123929 201.488249 273.292236 203.214819 277.637947 203.214819 
z
" clip-path="url(#pf216958944)" style="fill: #0dab76"/>
   </g>
   <g id="patch_10">
    <path d="M 277.637947 195.021644 
C 279.810802 195.021644 281.894955 194.158359 283.431396 192.621919 
C 284.967837 191.085478 285.831121 189.001325 285.831121 186.828469 
C 285.831121 184.655614 284.967837 182.571461 283.431396 181.03502 
C 281.894955 179.498579 279.810802 178.635295 277.637947 178.635295 
C 275.465091 178.635295 273.380938 179.498579 271.844497 181.03502 
C 270.308057 182.571461 269.444772 184.655614 269.444772 186.828469 
C 269.444772 189.001325 270.308057 191.085478 271.844497 192.621919 
C 273.380938 194.158359 275.465091 195.021644 277.637947 195.021644 
z
" clip-path="url(#pf216958944)" style="fill: #a0a0a0"/>
   </g>
   <g id="patch_11">
    <path d="M 318.60382 203.214819 
C 322.949531 203.214819 327.117837 201.488249 330.190719 198.415368 
C 333.2636 195.342486 334.990169 191.17418 334.990169 186.828469 
C 334.990169 182.482759 333.2636 178.314452 330.190719 175.241571 
C 327.117837 172.168689 322.949531 170.44212 318.60382 170.44212 
C 314.258109 170.44212 310.089803 172.168689 307.016921 175.241571 
C 303.94404 178.314452 302.217471 182.482759 302.217471 186.828469 
C 302.217471 191.17418 303.94404 195.342486 307.016921 198.415368 
C 310.089803 201.488249 314.258109 203.214819 318.60382 203.214819 
z
" clip-path="url(#pf216958944)" style="fill: #0dab76"/>
   </g>
   <g id="patch_12">
    <path d="M 318.60382 195.021644 
C 320.776675 195.021644 322.860829 194.158359 324.397269 192.621919 
C 325.93371 191.085478 326.796995 189.001325 326.796995 186.828469 
C 326.796995 184.655614 325.93371 182.571461 324.397269 181.03502 
C 322.860829 179.498579 320.776675 178.635295 318.60382 178.635295 
C 316.430965 178.635295 314.346811 179.498579 312.810371 181.03502 
C 311.27393 182.571461 310.410645 184.655614 310.410645 186.828469 
C 310.410645 189.001325 311.27393 191.085478 312.810371 192.621919 
C 314.346811 194.158359 316.430965 195.021644 318.60382 195.021644 
z
" clip-path="url(#pf216958944)" style="fill: #a0a0a0"/>
   </g>
   <g id="patch_13">
    <path d="M 359.569693 203.214819 
C 363.915404 203.214819 368.08371 201.488249 371.156592 198.415368 
C 374.229473 195.342486 375.956042 191.17418 375.956042 186.828469 
C 375.956042 182.482759 374.229473 178.314452 371.156592 175.241571 
C 368.08371 172.168689 363.915404 170.44212 359.569693 170.44212 
C 355.223983 170.44212 351.055676 172.168689 347.982794 175.241571 
C 344.909913 178.314452 343.183344 182.482759 343.183344 186.828469 
C 343.183344 191.17418 344.909913 195.342486 347.982794 198.415368 
C 351.055676 201.488249 355.223983 203.214819 359.569693 203.214819 
z
" clip-path="url(#pf216958944)" style="fill: #0dab76"/>
   </g>
   <g id="patch_14">
    <path d="M 359.569693 195.021644 
C 361.742548 195.021644 363.826702 194.158359 365.363142 192.621919 
C 366.899583 191.085478 367.762868 189.001325 367.762868 186.828469 
C 367.762868 184.655614 366.899583 182.571461 365.363142 181.03502 
C 363.826702 179.498579 361.742548 178.635295 359.569693 178.635295 
C 357.396838 178.635295 355.312685 179.498579 353.776244 181.03502 
C 352.239803 182.571461 351.376518 184.655614 351.376518 186.828469 
C 351.376518 189.001325 352.239803 191.085478 353.776244 192.621919 
C 355.312685 194.158359 357.396838 195.021644 359.569693 195.021644 
z
" clip-path="url(#pf216958944)" style="fill: #a0a0a0"/>
   </g>
   <g id="patch_15">
    <path d="M 154.740327 203.214819 
C 159.086038 203.214819 163.254344 201.488249 166.327226 198.415368 
C 169.400107 195.342486 171.126676 191.17418 171.126676 186.828469 
C 171.126676 182.482759 169.400107 178.314452 166.327226 175.241571 
C 163.254344 172.168689 159.086038 170.44212 154.740327 170.44212 
C 150.394616 170.44212 146.22631 172.168689 143.153428 175.241571 
C 140.080547 178.314452 138.353978 182.482759 138.353978 186.828469 
C 138.353978 191.17418 140.080547 195.342486 143.153428 198.415368 
C 146.22631 201.488249 150.394616 203.214819 154.740327 203.214819 
z
" clip-path="url(#pf216958944)" style="fill: #0dab76"/>
   </g>
   <g id="patch_16">
    <path d="M 154.740327 195.021644 
C 156.913182 195.021644 158.997336 194.158359 160.533776 192.621919 
C 162.070217 191.085478 162.933502 189.001325 162.933502 186.828469 
C 162.933502 184.655614 162.070217 182.571461 160.533776 181.03502 
C 158.997336 179.498579 156.913182 178.635295 154.740327 178.635295 
C 152.567472 178.635295 150.483318 179.498579 148.946878 181.03502 
C 147.410437 182.571461 146.547152 184.655614 146.547152 186.828469 
C 146.547152 189.001325 147.410437 191.085478 148.946878 192.621919 
C 150.483318 194.158359 152.567472 195.021644 154.740327 195.021644 
z
" clip-path="url(#pf216958944)" style="fill: #a0a0a0"/>
   </g>
   <g id="patch_17">
    <path d="M 113.774454 203.214819 
C 118.120164 203.214819 122.288471 201.488249 125.361352 198.415368 
C 128.434234 195.342486 130.160803 191.17418 130.160803 186.828469 
C 130.160803 182.482759 128.434234 178.314452 125.361352 175.241571 
C 122.288471 172.168689 118.120164 170.44212 113.774454 170.44212 
C 109.428743 170.44212 105.260436 172.168689 102.187555 175.241571 
C 99.114674 178.314452 97.388104 182.482759 97.388104 186.828469 
C 97.388104 191.17418 99.114674 195.342486 102.187555 198.415368 
C 105.260436 201.488249 109.428743 203.214819 113.774454 203.214819 
z
" clip-path="url(#pf216958944)" style="fill: #0dab76"/>
   </g>
   <g id="patch_18">
    <path d="M 113.774454 195.021644 
C 115.947309 195.021644 118.031462 194.158359 119.567903 192.621919 
C 121.104344 191.085478 121.967628 189.001325 121.967628 186.828469 
C 121.967628 184.655614 121.104344 182.571461 119.567903 181.03502 
C 118.031462 179.498579 115.947309 178.635295 113.774454 178.635295 
C 111.601598 178.635295 109.517445 179.498579 107.981004 181.03502 
C 106.444564 182.571461 105.581279 184.655614 105.581279 186.828469 
C 105.581279 189.001325 106.444564 191.085478 107.981004 192.621919 
C 109.517445 194.158359 111.601598 195.021644 113.774454 195.021644 
z
" clip-path="url(#pf216958944)" style="fill: #a0a0a0"/>
   </g>
   <g id="matplotlib.axis_1">
    <g id="xtick_1">
     <g id="line2d_14">
      <defs>
       <path id="m98ee2068b2" d="M 0 0 
L 0 3.5 
" style="stroke: #ffffff; stroke-width: 0.8"/>
      </defs>
      <g>
       <use xlink:href="#m98ee2068b2" x="72.80858" y="236.83863" style="fill: #ffffff; stroke: #ffffff; stroke-width: 0.8"/>
      </g>
     </g>
     <g id="text_1">
      <text style="fill: #ffffff; font: 10px 'sans-serif'; text-anchor: middle" x="72.80858" y="251.437067" transform="rotate(-0, 72.80858, 251.437067)">−8</text>
     </g>
    </g>
    <g id="xtick_2">
     <g id="line2d_15">
      <g>
       <use xlink:href="#m98ee2068b2" x="113.774454" y="236.83863" style="fill: #ffffff; stroke: #ffffff; stroke-width: 0.8"/>
      </g>
     </g>
     <g id="text_2">
      <text style="fill: #ffffff; font: 10px 'sans-serif'; text-anchor: middle" x="113.774454" y="251.437067" transform="rotate(-0, 113.774454, 251.437067)">−6</text>
     </g>
    </g>
    <g id="xtick_3">
     <g id="line2d_16">
      <g>
       <use xlink:href="#m98ee2068b2" x="154.740327" y="236.83863" style="fill: #ffffff; stroke: #ffffff; stroke-width: 0.8"/>
      </g>
     </g>
     <g id="text_3">
      <text style="fill: #ffffff; font: 10px 'sans-serif'; text-anchor: middle" x="154.740327" y="251.437067" transform="rotate(-0, 154.740327, 251.437067)">−4</text>
     </g>
    </g>
    <g id="xtick_4">
     <g id="line2d_17">
      <g>
       <use xlink:href="#m98ee2068b2" x="195.7062" y="236.83863" style="fill: #ffffff; stroke: #ffffff; stroke-width: 0.8"/>
      </g>
     </g>
     <g id="text_4">
      <text style="fill: #ffffff; font: 10px 'sans-serif'; text-anchor: middle" x="195.7062" y="251.437067" transform="rotate(-0, 195.7062, 251.437067)">−2</text>
     </g>
    </g>
    <g id="xtick_5">
     <g id="line2d_18">
      <g>
       <use xlink:href="#m98ee2068b2" x="236.672073" y="236.83863" style="fill: #ffffff; stroke: #ffffff; stroke-width: 0.8"/>
      </g>
     </g>
     <g id="text_5">
      <text style="fill: #ffffff; font: 10px 'sans-serif'; text-anchor: middle" x="236.672073" y="251.437067" transform="rotate(-0, 236.672073, 251.437067)">0</text>
     </g>
    </g>
    <g id="xtick_6">
     <g id="line2d_19">
      <g>
       <use xlink:href="#m98ee2068b2" x="277.637947" y="236.83863" style="fill: #ffffff; stroke: #ffffff; stroke-width: 0.8"/>
      </g>
     </g>
     <g id="text_6">
      <text style="fill: #ffffff; font: 10px 'sans-serif'; text-anchor: middle" x="277.637947" y="251.437067" transform="rotate(-0, 277.637947, 251.437067)">2</text>
     </g>
    </g>
    <g id="xtick_7">
     <g id="line2d_20">
      <g>
       <use xlink:href="#m98ee2068b2" x="318.60382" y="236.83863" style="fill: #ffffff; stroke: #ffffff; stroke-width: 0.8"/>
      </g>
     </g>
     <g id="text_7">
      <text style="fill: #ffffff; font: 10px 'sans-serif'; text-anchor: middle" x="318.60382" y="251.437067" transform="rotate(-0, 318.60382, 251.437067)">4</text>
     </g>
    </g>
    <g id="xtick_8">
     <g id="line2d_21">
      <g>
       <use xlink:href="#m98ee2068b2" x="359.569693" y="236.83863" style="fill: #ffffff; stroke: #ffffff; stroke-width: 0.8"/>
      </g>
     </g>
     <g id="text_8">
      <text style="fill: #ffffff; font: 10px 'sans-serif'; text-anchor: middle" x="359.569693" y="251.437067" transform="rotate(-0, 359.569693, 251.437067)">6</text>
     </g>
    </g>
    <g id="xtick_9">
     <g id="line2d_22">
      <g>
       <use xlink:href="#m98ee2068b2" x="400.535566" y="236.83863" style="fill: #ffffff; stroke: #ffffff; stroke-width: 0.8"/>
      </g>
     </g>
     <g id="text_9">
      <text style="fill: #ffffff; font: 10px 'sans-serif'; text-anchor: middle" x="400.535566" y="251.437067" transform="rotate(-0, 400.535566, 251.437067)">8</text>
     </g>
    </g>
   </g>
   <g id="matplotlib.axis_2">
    <g id="ytick_1">
     <g id="line2d_23">
      <defs>
       <path id="me461cbf6ce" d="M 0 0 
L -3.5 0 
" style="stroke: #ffffff; stroke-width: 0.8"/>
      </defs>
      <g>
       <use xlink:href="#me461cbf6ce" x="57.6" y="228.767282" style="fill: #ffffff; stroke: #ffffff; stroke-width: 0.8"/>
      </g>
     </g>
     <g id="text_10">
      <text style="fill: #ffffff; font: 10px 'sans-serif'; text-anchor: end" x="50.6" y="232.566501" transform="rotate(-0, 50.6, 232.566501)">−2</text>
     </g>
    </g>
    <g id="ytick_2">
     <g id="line2d_24">
      <g>
       <use xlink:href="#me461cbf6ce" x="57.6" y="187.801409" style="fill: #ffffff; stroke: #ffffff; stroke-width: 0.8"/>
      </g>
     </g>
     <g id="text_11">
      <text style="fill: #ffffff; font: 10px 'sans-serif'; text-anchor: end" x="50.6" y="191.600627" transform="rotate(-0, 50.6, 191.600627)">0</text>
     </g>
    </g>
    <g id="ytick_3">
     <g id="line2d_25">
      <g>
       <use xlink:href="#me461cbf6ce" x="57.6" y="146.835535" style="fill: #ffffff; stroke: #ffffff; stroke-width: 0.8"/>
      </g>
     </g>
     <g id="text_12">
      <text style="fill: #ffffff; font: 10px 'sans-serif'; text-anchor: end" x="50.6" y="150.634754" transform="rotate(-0, 50.6, 150.634754)">2</text>
     </g>
    </g>
   </g>
   <g id="patch_19">
    <path d="M 57.6 236.83863 
L 57.6 112.21737 
" style="fill: none; stroke: #ffffff; stroke-width: 0.8; stroke-linejoin: miter; stroke-linecap: square"/>
   </g>
   <g id="patch_20">
    <path d="M 414.72 236.83863 
L 414.72 112.21737 
" style="fill: none; stroke: #ffffff; stroke-width: 0.8; stroke-linejoin: miter; stroke-linecap: square"/>
   </g>
   <g id="patch_21">
    <path d="M 57.6 236.83863 
L 414.72 236.83863 
" style="fill: none; stroke: #ffffff; stroke-width: 0.8; stroke-linejoin: miter; stroke-linecap: square"/>
   </g>
   <g id="patch_22">
    <path d="M 57.6 112.21737 
L 414.72 112.21737 
" style="fill: none; stroke: #ffffff; stroke-width: 0.8; stroke-linejoin: miter; stroke-linecap: square"/>
   </g>
   <g id="text_13">
    <text style="fill: #ffffff; font: 12px 'sans-serif'; text-anchor: middle" x="236.16" y="106.21737" transform="rotate(-0, 236.16, 106.21737)">B7B-PH</text>
   </g>
  </g>
 </g>
 <defs>
  <clipPath id="pf216958944">
   <rect x="57.6" y="112.21737" width="357.12" height="124.621259"/>
  </clipPath>
 </defs>
</svg>
