<?xml version="1.0" encoding="utf-8" standalone="no"?>
<!DOCTYPE svg PUBLIC "-//W3C//DTD SVG 1.1//EN"
  "http://www.w3.org/Graphics/SVG/1.1/DTD/svg11.dtd">
<svg xmlns:xlink="http://www.w3.org/1999/xlink" width="460.8pt" height="345.6pt" viewBox="0 0 460.8 345.6" xmlns="http://www.w3.org/2000/svg" version="1.1">
 <metadata>
  <rdf:RDF xmlns:dc="http://purl.org/dc/elements/1.1/" xmlns:cc="http://creativecommons.org/ns#" xmlns:rdf="http://www.w3.org/1999/02/22-rdf-syntax-ns#">
   <cc:Work>
    <dc:type rdf:resource="http://purl.org/dc/dcmitype/StillImage"/>
    <dc:date>2021-12-22T04:54:08.120945</dc:date>
    <dc:format>image/svg+xml</dc:format>
    <dc:creator>
     <cc:Agent>
      <dc:title>Matplotlib v3.5.1, https://matplotlib.org/</dc:title>
     </cc:Agent>
    </dc:creator>
   </cc:Work>
  </rdf:RDF>
 </metadata>
 <defs>
  <style type="text/css">*{stroke-linejoin: round; stroke-linecap: butt}</style>
 </defs>
 <g id="figure_1">
  <g id="patch_1">
   <path d="M 0 345.6 
L 460.8 345.6 
L 460.8 0 
L 0 0 
z
" style="fill: #2b2b2b"/>
  </g>
  <g id="axes_1">
   <g id="patch_2">
    <path d="M 57.6 225.223268 
L 414.72 225.223268 
L 414.72 123.832732 
L 57.6 123.832732 
z
" style="fill: #2b2b2b"/>
   </g>
   <g id="text_1">
    <text style="fill: #ffffff; font: 1px 'sans-serif'; text-anchor: start" x="195.7062" y="122.296512" transform="rotate(-0, 195.7062, 122.296512)">&gt;NAME</text>
   </g>
   <g id="line2d_1">
    <path d="M 73.832727 128.441393 
L 398.487273 128.441393 
" clip-path="url(#p374978ed5a)" style="fill: none; stroke: #808080; stroke-width: 2.601333; stroke-linecap: square"/>
   </g>
   <g id="line2d_2">
    <path d="M 398.487273 128.441393 
L 398.487273 220.614607 
" clip-path="url(#p374978ed5a)" style="fill: none; stroke: #808080; stroke-width: 2.601333; stroke-linecap: square"/>
   </g>
   <g id="line2d_3">
    <path d="M 398.487273 220.614607 
L 73.832727 220.614607 
" clip-path="url(#p374978ed5a)" style="fill: none; stroke: #808080; stroke-width: 2.601333; stroke-linecap: square"/>
   </g>
   <g id="line2d_4">
    <path d="M 73.832727 220.614607 
L 73.832727 128.441393 
" clip-path="url(#p374978ed5a)" style="fill: none; stroke: #808080; stroke-width: 2.601333; stroke-linecap: square"/>
   </g>
   <g id="text_2">
    <text style="fill: #ffffff; font: 1px 'sans-serif'; text-anchor: start" x="375.956042" y="210.73159" transform="rotate(-0, 375.956042, 210.73159)">1</text>
   </g>
   <g id="patch_3">
    <path d="M 195.7062 192.655399 
C 200.051911 192.655399 204.220217 190.92883 207.293099 187.855948 
C 210.36598 184.783067 212.092549 180.61476 212.092549 176.26905 
C 212.092549 171.923339 210.36598 167.755032 207.293099 164.682151 
C 204.220217 161.609269 200.051911 159.8827 195.7062 159.8827 
C 191.36049 159.8827 187.192183 161.609269 184.119301 164.682151 
C 181.04642 167.755032 179.319851 171.923339 179.319851 176.26905 
C 179.319851 180.61476 181.04642 184.783067 184.119301 187.855948 
C 187.192183 190.92883 191.36049 192.655399 195.7062 192.655399 
z
" clip-path="url(#p374978ed5a)" style="fill: #0dab76"/>
   </g>
   <g id="patch_4">
    <path d="M 195.7062 184.462224 
C 197.879055 184.462224 199.963209 183.59894 201.49965 182.062499 
C 203.03609 180.526058 203.899375 178.441905 203.899375 176.26905 
C 203.899375 174.096194 203.03609 172.012041 201.49965 170.4756 
C 199.963209 168.93916 197.879055 168.075875 195.7062 168.075875 
C 193.533345 168.075875 191.449192 168.93916 189.912751 170.4756 
C 188.37631 172.012041 187.513026 174.096194 187.513026 176.26905 
C 187.513026 178.441905 188.37631 180.526058 189.912751 182.062499 
C 191.449192 183.59894 193.533345 184.462224 195.7062 184.462224 
z
" clip-path="url(#p374978ed5a)" style="fill: #a0a0a0"/>
   </g>
   <g id="patch_5">
    <path d="M 236.672073 192.655399 
C 241.017784 192.655399 245.186091 190.92883 248.258972 187.855948 
C 251.331854 184.783067 253.058423 180.61476 253.058423 176.26905 
C 253.058423 171.923339 251.331854 167.755032 248.258972 164.682151 
C 245.186091 161.609269 241.017784 159.8827 236.672073 159.8827 
C 232.326363 159.8827 228.158056 161.609269 225.085175 164.682151 
C 222.012293 167.755032 220.285724 171.923339 220.285724 176.26905 
C 220.285724 180.61476 222.012293 184.783067 225.085175 187.855948 
C 228.158056 190.92883 232.326363 192.655399 236.672073 192.655399 
z
" clip-path="url(#p374978ed5a)" style="fill: #0dab76"/>
   </g>
   <g id="patch_6">
    <path d="M 236.672073 184.462224 
C 238.844929 184.462224 240.929082 183.59894 242.465523 182.062499 
C 244.001963 180.526058 244.865248 178.441905 244.865248 176.26905 
C 244.865248 174.096194 244.001963 172.012041 242.465523 170.4756 
C 240.929082 168.93916 238.844929 168.075875 236.672073 168.075875 
C 234.499218 168.075875 232.415065 168.93916 230.878624 170.4756 
C 229.342183 172.012041 228.478899 174.096194 228.478899 176.26905 
C 228.478899 178.441905 229.342183 180.526058 230.878624 182.062499 
C 232.415065 183.59894 234.499218 184.462224 236.672073 184.462224 
z
" clip-path="url(#p374978ed5a)" style="fill: #a0a0a0"/>
   </g>
   <g id="patch_7">
    <path d="M 277.637947 192.655399 
C 281.983657 192.655399 286.151964 190.92883 289.224845 187.855948 
C 292.297727 184.783067 294.024296 180.61476 294.024296 176.26905 
C 294.024296 171.923339 292.297727 167.755032 289.224845 164.682151 
C 286.151964 161.609269 281.983657 159.8827 277.637947 159.8827 
C 273.292236 159.8827 269.123929 161.609269 266.051048 164.682151 
C 262.978166 167.755032 261.251597 171.923339 261.251597 176.26905 
C 261.251597 180.61476 262.978166 184.783067 266.051048 187.855948 
C 269.123929 190.92883 273.292236 192.655399 277.637947 192.655399 
z
" clip-path="url(#p374978ed5a)" style="fill: #0dab76"/>
   </g>
   <g id="patch_8">
    <path d="M 277.637947 184.462224 
C 279.810802 184.462224 281.894955 183.59894 283.431396 182.062499 
C 284.967837 180.526058 285.831121 178.441905 285.831121 176.26905 
C 285.831121 174.096194 284.967837 172.012041 283.431396 170.4756 
C 281.894955 168.93916 279.810802 168.075875 277.637947 168.075875 
C 275.465091 168.075875 273.380938 168.93916 271.844497 170.4756 
C 270.308057 172.012041 269.444772 174.096194 269.444772 176.26905 
C 269.444772 178.441905 270.308057 180.526058 271.844497 182.062499 
C 273.380938 183.59894 275.465091 184.462224 277.637947 184.462224 
z
" clip-path="url(#p374978ed5a)" style="fill: #a0a0a0"/>
   </g>
   <g id="patch_9">
    <path d="M 318.60382 192.655399 
C 322.949531 192.655399 327.117837 190.92883 330.190719 187.855948 
C 333.2636 184.783067 334.990169 180.61476 334.990169 176.26905 
C 334.990169 171.923339 333.2636 167.755032 330.190719 164.682151 
C 327.117837 161.609269 322.949531 159.8827 318.60382 159.8827 
C 314.258109 159.8827 310.089803 161.609269 307.016921 164.682151 
C 303.94404 167.755032 302.217471 171.923339 302.217471 176.26905 
C 302.217471 180.61476 303.94404 184.783067 307.016921 187.855948 
C 310.089803 190.92883 314.258109 192.655399 318.60382 192.655399 
z
" clip-path="url(#p374978ed5a)" style="fill: #0dab76"/>
   </g>
   <g id="patch_10">
    <path d="M 318.60382 184.462224 
C 320.776675 184.462224 322.860829 183.59894 324.397269 182.062499 
C 325.93371 180.526058 326.796995 178.441905 326.796995 176.26905 
C 326.796995 174.096194 325.93371 172.012041 324.397269 170.4756 
C 322.860829 168.93916 320.776675 168.075875 318.60382 168.075875 
C 316.430965 168.075875 314.346811 168.93916 312.810371 170.4756 
C 311.27393 172.012041 310.410645 174.096194 310.410645 176.26905 
C 310.410645 178.441905 311.27393 180.526058 312.810371 182.062499 
C 314.346811 183.59894 316.430965 184.462224 318.60382 184.462224 
z
" clip-path="url(#p374978ed5a)" style="fill: #a0a0a0"/>
   </g>
   <g id="patch_11">
    <path d="M 359.569693 192.655399 
C 363.915404 192.655399 368.08371 190.92883 371.156592 187.855948 
C 374.229473 184.783067 375.956042 180.61476 375.956042 176.26905 
C 375.956042 171.923339 374.229473 167.755032 371.156592 164.682151 
C 368.08371 161.609269 363.915404 159.8827 359.569693 159.8827 
C 355.223983 159.8827 351.055676 161.609269 347.982794 164.682151 
C 344.909913 167.755032 343.183344 171.923339 343.183344 176.26905 
C 343.183344 180.61476 344.909913 184.783067 347.982794 187.855948 
C 351.055676 190.92883 355.223983 192.655399 359.569693 192.655399 
z
" clip-path="url(#p374978ed5a)" style="fill: #0dab76"/>
   </g>
   <g id="patch_12">
    <path d="M 359.569693 184.462224 
C 361.742548 184.462224 363.826702 183.59894 365.363142 182.062499 
C 366.899583 180.526058 367.762868 178.441905 367.762868 176.26905 
C 367.762868 174.096194 366.899583 172.012041 365.363142 170.4756 
C 363.826702 168.93916 361.742548 168.075875 359.569693 168.075875 
C 357.396838 168.075875 355.312685 168.93916 353.776244 170.4756 
C 352.239803 172.012041 351.376518 174.096194 351.376518 176.26905 
C 351.376518 178.441905 352.239803 180.526058 353.776244 182.062499 
C 355.312685 183.59894 357.396838 184.462224 359.569693 184.462224 
z
" clip-path="url(#p374978ed5a)" style="fill: #a0a0a0"/>
   </g>
   <g id="patch_13">
    <path d="M 154.740327 192.655399 
C 159.086038 192.655399 163.254344 190.92883 166.327226 187.855948 
C 169.400107 184.783067 171.126676 180.61476 171.126676 176.26905 
C 171.126676 171.923339 169.400107 167.755032 166.327226 164.682151 
C 163.254344 161.609269 159.086038 159.8827 154.740327 159.8827 
C 150.394616 159.8827 146.22631 161.609269 143.153428 164.682151 
C 140.080547 167.755032 138.353978 171.923339 138.353978 176.26905 
C 138.353978 180.61476 140.080547 184.783067 143.153428 187.855948 
C 146.22631 190.92883 150.394616 192.655399 154.740327 192.655399 
z
" clip-path="url(#p374978ed5a)" style="fill: #0dab76"/>
   </g>
   <g id="patch_14">
    <path d="M 154.740327 184.462224 
C 156.913182 184.462224 158.997336 183.59894 160.533776 182.062499 
C 162.070217 180.526058 162.933502 178.441905 162.933502 176.26905 
C 162.933502 174.096194 162.070217 172.012041 160.533776 170.4756 
C 158.997336 168.93916 156.913182 168.075875 154.740327 168.075875 
C 152.567472 168.075875 150.483318 168.93916 148.946878 170.4756 
C 147.410437 172.012041 146.547152 174.096194 146.547152 176.26905 
C 146.547152 178.441905 147.410437 180.526058 148.946878 182.062499 
C 150.483318 183.59894 152.567472 184.462224 154.740327 184.462224 
z
" clip-path="url(#p374978ed5a)" style="fill: #a0a0a0"/>
   </g>
   <g id="patch_15">
    <path d="M 113.774454 192.655399 
C 118.120164 192.655399 122.288471 190.92883 125.361352 187.855948 
C 128.434234 184.783067 130.160803 180.61476 130.160803 176.26905 
C 130.160803 171.923339 128.434234 167.755032 125.361352 164.682151 
C 122.288471 161.609269 118.120164 159.8827 113.774454 159.8827 
C 109.428743 159.8827 105.260436 161.609269 102.187555 164.682151 
C 99.114674 167.755032 97.388104 171.923339 97.388104 176.26905 
C 97.388104 180.61476 99.114674 184.783067 102.187555 187.855948 
C 105.260436 190.92883 109.428743 192.655399 113.774454 192.655399 
z
" clip-path="url(#p374978ed5a)" style="fill: #0dab76"/>
   </g>
   <g id="patch_16">
    <path d="M 113.774454 184.462224 
C 115.947309 184.462224 118.031462 183.59894 119.567903 182.062499 
C 121.104344 180.526058 121.967628 178.441905 121.967628 176.26905 
C 121.967628 174.096194 121.104344 172.012041 119.567903 170.4756 
C 118.031462 168.93916 115.947309 168.075875 113.774454 168.075875 
C 111.601598 168.075875 109.517445 168.93916 107.981004 170.4756 
C 106.444564 172.012041 105.581279 174.096194 105.581279 176.26905 
C 105.581279 178.441905 106.444564 180.526058 107.981004 182.062499 
C 109.517445 183.59894 111.601598 184.462224 113.774454 184.462224 
z
" clip-path="url(#p374978ed5a)" style="fill: #a0a0a0"/>
   </g>
   <g id="matplotlib.axis_1">
    <g id="xtick_1">
     <g id="line2d_5">
      <defs>
       <path id="m70f28ca284" d="M 0 0 
L 0 3.5 
" style="stroke: #ffffff; stroke-width: 0.8"/>
      </defs>
      <g>
       <use xlink:href="#m70f28ca284" x="72.80858" y="225.223268" style="fill: #ffffff; stroke: #ffffff; stroke-width: 0.8"/>
      </g>
     </g>
     <g id="text_3">
      <text style="fill: #ffffff; font: 10px 'sans-serif'; text-anchor: middle" x="72.80858" y="239.821706" transform="rotate(-0, 72.80858, 239.821706)">−8</text>
     </g>
    </g>
    <g id="xtick_2">
     <g id="line2d_6">
      <g>
       <use xlink:href="#m70f28ca284" x="113.774454" y="225.223268" style="fill: #ffffff; stroke: #ffffff; stroke-width: 0.8"/>
      </g>
     </g>
     <g id="text_4">
      <text style="fill: #ffffff; font: 10px 'sans-serif'; text-anchor: middle" x="113.774454" y="239.821706" transform="rotate(-0, 113.774454, 239.821706)">−6</text>
     </g>
    </g>
    <g id="xtick_3">
     <g id="line2d_7">
      <g>
       <use xlink:href="#m70f28ca284" x="154.740327" y="225.223268" style="fill: #ffffff; stroke: #ffffff; stroke-width: 0.8"/>
      </g>
     </g>
     <g id="text_5">
      <text style="fill: #ffffff; font: 10px 'sans-serif'; text-anchor: middle" x="154.740327" y="239.821706" transform="rotate(-0, 154.740327, 239.821706)">−4</text>
     </g>
    </g>
    <g id="xtick_4">
     <g id="line2d_8">
      <g>
       <use xlink:href="#m70f28ca284" x="195.7062" y="225.223268" style="fill: #ffffff; stroke: #ffffff; stroke-width: 0.8"/>
      </g>
     </g>
     <g id="text_6">
      <text style="fill: #ffffff; font: 10px 'sans-serif'; text-anchor: middle" x="195.7062" y="239.821706" transform="rotate(-0, 195.7062, 239.821706)">−2</text>
     </g>
    </g>
    <g id="xtick_5">
     <g id="line2d_9">
      <g>
       <use xlink:href="#m70f28ca284" x="236.672073" y="225.223268" style="fill: #ffffff; stroke: #ffffff; stroke-width: 0.8"/>
      </g>
     </g>
     <g id="text_7">
      <text style="fill: #ffffff; font: 10px 'sans-serif'; text-anchor: middle" x="236.672073" y="239.821706" transform="rotate(-0, 236.672073, 239.821706)">0</text>
     </g>
    </g>
    <g id="xtick_6">
     <g id="line2d_10">
      <g>
       <use xlink:href="#m70f28ca284" x="277.637947" y="225.223268" style="fill: #ffffff; stroke: #ffffff; stroke-width: 0.8"/>
      </g>
     </g>
     <g id="text_8">
      <text style="fill: #ffffff; font: 10px 'sans-serif'; text-anchor: middle" x="277.637947" y="239.821706" transform="rotate(-0, 277.637947, 239.821706)">2</text>
     </g>
    </g>
    <g id="xtick_7">
     <g id="line2d_11">
      <g>
       <use xlink:href="#m70f28ca284" x="318.60382" y="225.223268" style="fill: #ffffff; stroke: #ffffff; stroke-width: 0.8"/>
      </g>
     </g>
     <g id="text_9">
      <text style="fill: #ffffff; font: 10px 'sans-serif'; text-anchor: middle" x="318.60382" y="239.821706" transform="rotate(-0, 318.60382, 239.821706)">4</text>
     </g>
    </g>
    <g id="xtick_8">
     <g id="line2d_12">
      <g>
       <use xlink:href="#m70f28ca284" x="359.569693" y="225.223268" style="fill: #ffffff; stroke: #ffffff; stroke-width: 0.8"/>
      </g>
     </g>
     <g id="text_10">
      <text style="fill: #ffffff; font: 10px 'sans-serif'; text-anchor: middle" x="359.569693" y="239.821706" transform="rotate(-0, 359.569693, 239.821706)">6</text>
     </g>
    </g>
    <g id="xtick_9">
     <g id="line2d_13">
      <g>
       <use xlink:href="#m70f28ca284" x="400.535566" y="225.223268" style="fill: #ffffff; stroke: #ffffff; stroke-width: 0.8"/>
      </g>
     </g>
     <g id="text_11">
      <text style="fill: #ffffff; font: 10px 'sans-serif'; text-anchor: middle" x="400.535566" y="239.821706" transform="rotate(-0, 400.535566, 239.821706)">8</text>
     </g>
    </g>
   </g>
   <g id="matplotlib.axis_2">
    <g id="ytick_1">
     <g id="line2d_14">
      <defs>
       <path id="mbec670ffb3" d="M 0 0 
L -3.5 0 
" style="stroke: #ffffff; stroke-width: 0.8"/>
      </defs>
      <g>
       <use xlink:href="#mbec670ffb3" x="57.6" y="218.207862" style="fill: #ffffff; stroke: #ffffff; stroke-width: 0.8"/>
      </g>
     </g>
     <g id="text_12">
      <text style="fill: #ffffff; font: 10px 'sans-serif'; text-anchor: end" x="50.6" y="222.007081" transform="rotate(-0, 50.6, 222.007081)">−2</text>
     </g>
    </g>
    <g id="ytick_2">
     <g id="line2d_15">
      <g>
       <use xlink:href="#mbec670ffb3" x="57.6" y="197.724926" style="fill: #ffffff; stroke: #ffffff; stroke-width: 0.8"/>
      </g>
     </g>
     <g id="text_13">
      <text style="fill: #ffffff; font: 10px 'sans-serif'; text-anchor: end" x="50.6" y="201.524144" transform="rotate(-0, 50.6, 201.524144)">−1</text>
     </g>
    </g>
    <g id="ytick_3">
     <g id="line2d_16">
      <g>
       <use xlink:href="#mbec670ffb3" x="57.6" y="177.241989" style="fill: #ffffff; stroke: #ffffff; stroke-width: 0.8"/>
      </g>
     </g>
     <g id="text_14">
      <text style="fill: #ffffff; font: 10px 'sans-serif'; text-anchor: end" x="50.6" y="181.041208" transform="rotate(-0, 50.6, 181.041208)">0</text>
     </g>
    </g>
    <g id="ytick_4">
     <g id="line2d_17">
      <g>
       <use xlink:href="#mbec670ffb3" x="57.6" y="156.759052" style="fill: #ffffff; stroke: #ffffff; stroke-width: 0.8"/>
      </g>
     </g>
     <g id="text_15">
      <text style="fill: #ffffff; font: 10px 'sans-serif'; text-anchor: end" x="50.6" y="160.558271" transform="rotate(-0, 50.6, 160.558271)">1</text>
     </g>
    </g>
    <g id="ytick_5">
     <g id="line2d_18">
      <g>
       <use xlink:href="#mbec670ffb3" x="57.6" y="136.276116" style="fill: #ffffff; stroke: #ffffff; stroke-width: 0.8"/>
      </g>
     </g>
     <g id="text_16">
      <text style="fill: #ffffff; font: 10px 'sans-serif'; text-anchor: end" x="50.6" y="140.075335" transform="rotate(-0, 50.6, 140.075335)">2</text>
     </g>
    </g>
   </g>
   <g id="patch_17">
    <path d="M 57.6 225.223268 
L 57.6 123.832732 
" style="fill: none; stroke: #ffffff; stroke-width: 0.8; stroke-linejoin: miter; stroke-linecap: square"/>
   </g>
   <g id="patch_18">
    <path d="M 414.72 225.223268 
L 414.72 123.832732 
" style="fill: none; stroke: #ffffff; stroke-width: 0.8; stroke-linejoin: miter; stroke-linecap: square"/>
   </g>
   <g id="patch_19">
    <path d="M 57.6 225.223268 
L 414.72 225.223268 
" style="fill: none; stroke: #ffffff; stroke-width: 0.8; stroke-linejoin: miter; stroke-linecap: square"/>
   </g>
   <g id="patch_20">
    <path d="M 57.6 123.832732 
L 414.72 123.832732 
" style="fill: none; stroke: #ffffff; stroke-width: 0.8; stroke-linejoin: miter; stroke-linecap: square"/>
   </g>
   <g id="text_17">
    <text style="fill: #ffffff; font: 12px 'sans-serif'; text-anchor: middle" x="236.16" y="117.832732" transform="rotate(-0, 236.16, 117.832732)">B7B-PH</text>
   </g>
  </g>
 </g>
 <defs>
  <clipPath id="p374978ed5a">
   <rect x="57.6" y="123.832732" width="357.12" height="101.390536"/>
  </clipPath>
 </defs>
</svg>
