<?xml version="1.0" encoding="utf-8" standalone="no"?>
<!DOCTYPE svg PUBLIC "-//W3C//DTD SVG 1.1//EN"
  "http://www.w3.org/Graphics/SVG/1.1/DTD/svg11.dtd">
<svg xmlns:xlink="http://www.w3.org/1999/xlink" width="460.8pt" height="345.6pt" viewBox="0 0 460.8 345.6" xmlns="http://www.w3.org/2000/svg" version="1.1">
 <metadata>
  <rdf:RDF xmlns:dc="http://purl.org/dc/elements/1.1/" xmlns:cc="http://creativecommons.org/ns#" xmlns:rdf="http://www.w3.org/1999/02/22-rdf-syntax-ns#">
   <cc:Work>
    <dc:type rdf:resource="http://purl.org/dc/dcmitype/StillImage"/>
    <dc:date>2021-12-22T04:54:09.065065</dc:date>
    <dc:format>image/svg+xml</dc:format>
    <dc:creator>
     <cc:Agent>
      <dc:title>Matplotlib v3.5.1, https://matplotlib.org/</dc:title>
     </cc:Agent>
    </dc:creator>
   </cc:Work>
  </rdf:RDF>
 </metadata>
 <defs>
  <style type="text/css">*{stroke-linejoin: round; stroke-linecap: butt}</style>
 </defs>
 <g id="figure_1">
  <g id="patch_1">
   <path d="M 0 345.6 
L 460.8 345.6 
L 460.8 0 
L 0 0 
z
" style="fill: #2b2b2b"/>
  </g>
  <g id="axes_1">
   <g id="patch_2">
    <path d="M 57.6 249.471066 
L 414.72 249.471066 
L 414.72 99.584934 
L 57.6 99.584934 
z
" style="fill: #2b2b2b"/>
   </g>
   <g id="text_1">
    <text style="fill: #ffffff; font: 1.27px 'sans-serif'; text-anchor: start" x="410.809927" y="133.649964" transform="rotate(-0, 410.809927, 133.649964)">&gt;VALUE</text>
   </g>
   <g id="text_2">
    <text style="fill: #ffffff; font: 1.27px 'sans-serif'; text-anchor: start" x="49.661367" y="133.649964" transform="rotate(-0, 49.661367, 133.649964)">&gt;NAME</text>
   </g>
   <g id="line2d_1">
    <path d="M 85.681433 159.717117 
L 386.638567 159.717117 
" clip-path="url(#p30b1c2345e)" style="fill: none; stroke: #808080; stroke-width: 1.504786; stroke-linecap: square"/>
   </g>
   <g id="line2d_2">
    <path d="M 386.638567 159.717117 
L 398.487273 159.717117 
" clip-path="url(#p30b1c2345e)" style="fill: none; stroke: #808080; stroke-width: 1.504786; stroke-linecap: square"/>
   </g>
   <g id="line2d_3">
    <path d="M 398.487273 159.717117 
L 398.487273 242.65806 
" clip-path="url(#p30b1c2345e)" style="fill: none; stroke: #808080; stroke-width: 1.504786; stroke-linecap: square"/>
   </g>
   <g id="line2d_4">
    <path d="M 398.487273 242.65806 
L 384.979748 242.65806 
" clip-path="url(#p30b1c2345e)" style="fill: none; stroke: #808080; stroke-width: 1.504786; stroke-linecap: square"/>
   </g>
   <g id="line2d_5">
    <path d="M 87.340252 242.65806 
L 73.832727 242.65806 
" clip-path="url(#p30b1c2345e)" style="fill: none; stroke: #808080; stroke-width: 1.504786; stroke-linecap: square"/>
   </g>
   <g id="line2d_6">
    <path d="M 73.832727 242.65806 
L 73.832727 159.717117 
" clip-path="url(#p30b1c2345e)" style="fill: none; stroke: #808080; stroke-width: 1.504786; stroke-linecap: square"/>
   </g>
   <g id="line2d_7">
    <path d="M 384.979748 242.65806 
L 87.340252 242.65806 
" clip-path="url(#p30b1c2345e)" style="fill: none; stroke: #808080; stroke-width: 1.504786; stroke-linecap: square"/>
   </g>
   <g id="line2d_8">
    <path d="M 87.340252 242.65806 
L 87.340252 199.52877 
" clip-path="url(#p30b1c2345e)" style="fill: none; stroke: #808080; stroke-width: 1.504786; stroke-linecap: square"/>
   </g>
   <g id="line2d_9">
    <path d="M 87.340252 199.52877 
L 384.979748 199.52877 
" clip-path="url(#p30b1c2345e)" style="fill: none; stroke: #808080; stroke-width: 1.504786; stroke-linecap: square"/>
   </g>
   <g id="line2d_10">
    <path d="M 384.979748 199.52877 
L 384.979748 242.65806 
" clip-path="url(#p30b1c2345e)" style="fill: none; stroke: #808080; stroke-width: 1.504786; stroke-linecap: square"/>
   </g>
   <g id="line2d_11">
    <path d="M 398.487273 159.717117 
L 398.487273 106.39794 
" clip-path="url(#p30b1c2345e)" style="fill: none; stroke: #808080; stroke-width: 1.504786; stroke-linecap: square"/>
   </g>
   <g id="line2d_12">
    <path d="M 398.487273 106.39794 
L 386.638567 106.39794 
" clip-path="url(#p30b1c2345e)" style="fill: none; stroke: #808080; stroke-width: 1.504786; stroke-linecap: square"/>
   </g>
   <g id="line2d_13">
    <path d="M 386.638567 106.39794 
L 386.638567 159.717117 
" clip-path="url(#p30b1c2345e)" style="fill: none; stroke: #808080; stroke-width: 1.504786; stroke-linecap: square"/>
   </g>
   <g id="line2d_14">
    <path d="M 73.832727 159.717117 
L 85.681433 159.717117 
" clip-path="url(#p30b1c2345e)" style="fill: none; stroke: #808080; stroke-width: 1.504786; stroke-linecap: square"/>
   </g>
   <g id="line2d_15">
    <path d="M 85.681433 159.717117 
L 85.681433 106.39794 
" clip-path="url(#p30b1c2345e)" style="fill: none; stroke: #808080; stroke-width: 1.504786; stroke-linecap: square"/>
   </g>
   <g id="line2d_16">
    <path d="M 85.681433 106.39794 
L 73.832727 106.39794 
" clip-path="url(#p30b1c2345e)" style="fill: none; stroke: #808080; stroke-width: 1.504786; stroke-linecap: square"/>
   </g>
   <g id="line2d_17">
    <path d="M 73.832727 106.39794 
L 73.832727 159.717117 
" clip-path="url(#p30b1c2345e)" style="fill: none; stroke: #808080; stroke-width: 1.504786; stroke-linecap: square"/>
   </g>
   <g id="text_3">
    <text style="fill: #ffffff; font: 1.27px 'sans-serif'; text-anchor: start" x="93.027631" y="178.319586" transform="rotate(-0, 93.027631, 178.319586)">1</text>
   </g>
   <g id="patch_3">
    <path d="M 102.862057 145.49867 
C 106.004371 145.49867 109.018406 144.250216 111.240357 142.028265 
C 113.462309 139.806313 114.710763 136.792278 114.710763 133.649964 
C 114.710763 130.507651 113.462309 127.493615 111.240357 125.271664 
C 109.018406 123.049713 106.004371 121.801258 102.862057 121.801258 
C 99.719743 121.801258 96.705708 123.049713 94.483757 125.271664 
C 92.261805 127.493615 91.013351 130.507651 91.013351 133.649964 
C 91.013351 136.792278 92.261805 139.806313 94.483757 142.028265 
C 96.705708 144.250216 99.719743 145.49867 102.862057 145.49867 
z
" clip-path="url(#p30b1c2345e)" style="fill: #0dab76"/>
   </g>
   <g id="patch_4">
    <path d="M 102.862057 139.574317 
C 104.433214 139.574317 105.940232 138.95009 107.051207 137.839114 
C 108.162183 136.728139 108.78641 135.221121 108.78641 133.649964 
C 108.78641 132.078807 108.162183 130.57179 107.051207 129.460814 
C 105.940232 128.349838 104.433214 127.725611 102.862057 127.725611 
C 101.2909 127.725611 99.783882 128.349838 98.672907 129.460814 
C 97.561931 130.57179 96.937704 132.078807 96.937704 133.649964 
C 96.937704 135.221121 97.561931 136.728139 98.672907 137.839114 
C 99.783882 138.95009 101.2909 139.574317 102.862057 139.574317 
z
" clip-path="url(#p30b1c2345e)" style="fill: #a0a0a0"/>
   </g>
   <g id="patch_5">
    <path d="M 132.483822 145.49867 
C 135.626136 145.49867 138.640171 144.250216 140.862123 142.028265 
C 143.084074 139.806313 144.332528 136.792278 144.332528 133.649964 
C 144.332528 130.507651 143.084074 127.493615 140.862123 125.271664 
C 138.640171 123.049713 135.626136 121.801258 132.483822 121.801258 
C 129.341509 121.801258 126.327473 123.049713 124.105522 125.271664 
C 121.883571 127.493615 120.635116 130.507651 120.635116 133.649964 
C 120.635116 136.792278 121.883571 139.806313 124.105522 142.028265 
C 126.327473 144.250216 129.341509 145.49867 132.483822 145.49867 
z
" clip-path="url(#p30b1c2345e)" style="fill: #0dab76"/>
   </g>
   <g id="patch_6">
    <path d="M 132.483822 139.574317 
C 134.054979 139.574317 135.561997 138.95009 136.672972 137.839114 
C 137.783948 136.728139 138.408175 135.221121 138.408175 133.649964 
C 138.408175 132.078807 137.783948 130.57179 136.672972 129.460814 
C 135.561997 128.349838 134.054979 127.725611 132.483822 127.725611 
C 130.912665 127.725611 129.405648 128.349838 128.294672 129.460814 
C 127.183696 130.57179 126.559469 132.078807 126.559469 133.649964 
C 126.559469 135.221121 127.183696 136.728139 128.294672 137.839114 
C 129.405648 138.95009 130.912665 139.574317 132.483822 139.574317 
z
" clip-path="url(#p30b1c2345e)" style="fill: #a0a0a0"/>
   </g>
   <g id="patch_7">
    <path d="M 162.105587 145.49867 
C 165.247901 145.49867 168.261936 144.250216 170.483888 142.028265 
C 172.705839 139.806313 173.954293 136.792278 173.954293 133.649964 
C 173.954293 130.507651 172.705839 127.493615 170.483888 125.271664 
C 168.261936 123.049713 165.247901 121.801258 162.105587 121.801258 
C 158.963274 121.801258 155.949238 123.049713 153.727287 125.271664 
C 151.505336 127.493615 150.256881 130.507651 150.256881 133.649964 
C 150.256881 136.792278 151.505336 139.806313 153.727287 142.028265 
C 155.949238 144.250216 158.963274 145.49867 162.105587 145.49867 
z
" clip-path="url(#p30b1c2345e)" style="fill: #0dab76"/>
   </g>
   <g id="patch_8">
    <path d="M 162.105587 139.574317 
C 163.676744 139.574317 165.183762 138.95009 166.294737 137.839114 
C 167.405713 136.728139 168.02994 135.221121 168.02994 133.649964 
C 168.02994 132.078807 167.405713 130.57179 166.294737 129.460814 
C 165.183762 128.349838 163.676744 127.725611 162.105587 127.725611 
C 160.53443 127.725611 159.027413 128.349838 157.916437 129.460814 
C 156.805461 130.57179 156.181234 132.078807 156.181234 133.649964 
C 156.181234 135.221121 156.805461 136.728139 157.916437 137.839114 
C 159.027413 138.95009 160.53443 139.574317 162.105587 139.574317 
z
" clip-path="url(#p30b1c2345e)" style="fill: #a0a0a0"/>
   </g>
   <g id="patch_9">
    <path d="M 191.727352 145.49867 
C 194.869666 145.49867 197.883702 144.250216 200.105653 142.028265 
C 202.327604 139.806313 203.576058 136.792278 203.576058 133.649964 
C 203.576058 130.507651 202.327604 127.493615 200.105653 125.271664 
C 197.883702 123.049713 194.869666 121.801258 191.727352 121.801258 
C 188.585039 121.801258 185.571003 123.049713 183.349052 125.271664 
C 181.127101 127.493615 179.878646 130.507651 179.878646 133.649964 
C 179.878646 136.792278 181.127101 139.806313 183.349052 142.028265 
C 185.571003 144.250216 188.585039 145.49867 191.727352 145.49867 
z
" clip-path="url(#p30b1c2345e)" style="fill: #0dab76"/>
   </g>
   <g id="patch_10">
    <path d="M 191.727352 139.574317 
C 193.298509 139.574317 194.805527 138.95009 195.916503 137.839114 
C 197.027478 136.728139 197.651705 135.221121 197.651705 133.649964 
C 197.651705 132.078807 197.027478 130.57179 195.916503 129.460814 
C 194.805527 128.349838 193.298509 127.725611 191.727352 127.725611 
C 190.156196 127.725611 188.649178 128.349838 187.538202 129.460814 
C 186.427227 130.57179 185.802999 132.078807 185.802999 133.649964 
C 185.802999 135.221121 186.427227 136.728139 187.538202 137.839114 
C 188.649178 138.95009 190.156196 139.574317 191.727352 139.574317 
z
" clip-path="url(#p30b1c2345e)" style="fill: #a0a0a0"/>
   </g>
   <g id="patch_11">
    <path d="M 221.349117 145.49867 
C 224.491431 145.49867 227.505467 144.250216 229.727418 142.028265 
C 231.949369 139.806313 233.197823 136.792278 233.197823 133.649964 
C 233.197823 130.507651 231.949369 127.493615 229.727418 125.271664 
C 227.505467 123.049713 224.491431 121.801258 221.349117 121.801258 
C 218.206804 121.801258 215.192768 123.049713 212.970817 125.271664 
C 210.748866 127.493615 209.500411 130.507651 209.500411 133.649964 
C 209.500411 136.792278 210.748866 139.806313 212.970817 142.028265 
C 215.192768 144.250216 218.206804 145.49867 221.349117 145.49867 
z
" clip-path="url(#p30b1c2345e)" style="fill: #0dab76"/>
   </g>
   <g id="patch_12">
    <path d="M 221.349117 139.574317 
C 222.920274 139.574317 224.427292 138.95009 225.538268 137.839114 
C 226.649243 136.728139 227.27347 135.221121 227.27347 133.649964 
C 227.27347 132.078807 226.649243 130.57179 225.538268 129.460814 
C 224.427292 128.349838 222.920274 127.725611 221.349117 127.725611 
C 219.777961 127.725611 218.270943 128.349838 217.159967 129.460814 
C 216.048992 130.57179 215.424764 132.078807 215.424764 133.649964 
C 215.424764 135.221121 216.048992 136.728139 217.159967 137.839114 
C 218.270943 138.95009 219.777961 139.574317 221.349117 139.574317 
z
" clip-path="url(#p30b1c2345e)" style="fill: #a0a0a0"/>
   </g>
   <g id="patch_13">
    <path d="M 250.970883 145.49867 
C 254.113196 145.49867 257.127232 144.250216 259.349183 142.028265 
C 261.571134 139.806313 262.819589 136.792278 262.819589 133.649964 
C 262.819589 130.507651 261.571134 127.493615 259.349183 125.271664 
C 257.127232 123.049713 254.113196 121.801258 250.970883 121.801258 
C 247.828569 121.801258 244.814533 123.049713 242.592582 125.271664 
C 240.370631 127.493615 239.122177 130.507651 239.122177 133.649964 
C 239.122177 136.792278 240.370631 139.806313 242.592582 142.028265 
C 244.814533 144.250216 247.828569 145.49867 250.970883 145.49867 
z
" clip-path="url(#p30b1c2345e)" style="fill: #0dab76"/>
   </g>
   <g id="patch_14">
    <path d="M 250.970883 139.574317 
C 252.542039 139.574317 254.049057 138.95009 255.160033 137.839114 
C 256.271008 136.728139 256.895236 135.221121 256.895236 133.649964 
C 256.895236 132.078807 256.271008 130.57179 255.160033 129.460814 
C 254.049057 128.349838 252.542039 127.725611 250.970883 127.725611 
C 249.399726 127.725611 247.892708 128.349838 246.781732 129.460814 
C 245.670757 130.57179 245.04653 132.078807 245.04653 133.649964 
C 245.04653 135.221121 245.670757 136.728139 246.781732 137.839114 
C 247.892708 138.95009 249.399726 139.574317 250.970883 139.574317 
z
" clip-path="url(#p30b1c2345e)" style="fill: #a0a0a0"/>
   </g>
   <g id="patch_15">
    <path d="M 280.592648 145.49867 
C 283.734961 145.49867 286.748997 144.250216 288.970948 142.028265 
C 291.192899 139.806313 292.441354 136.792278 292.441354 133.649964 
C 292.441354 130.507651 291.192899 127.493615 288.970948 125.271664 
C 286.748997 123.049713 283.734961 121.801258 280.592648 121.801258 
C 277.450334 121.801258 274.436298 123.049713 272.214347 125.271664 
C 269.992396 127.493615 268.743942 130.507651 268.743942 133.649964 
C 268.743942 136.792278 269.992396 139.806313 272.214347 142.028265 
C 274.436298 144.250216 277.450334 145.49867 280.592648 145.49867 
z
" clip-path="url(#p30b1c2345e)" style="fill: #0dab76"/>
   </g>
   <g id="patch_16">
    <path d="M 280.592648 139.574317 
C 282.163804 139.574317 283.670822 138.95009 284.781798 137.839114 
C 285.892773 136.728139 286.517001 135.221121 286.517001 133.649964 
C 286.517001 132.078807 285.892773 130.57179 284.781798 129.460814 
C 283.670822 128.349838 282.163804 127.725611 280.592648 127.725611 
C 279.021491 127.725611 277.514473 128.349838 276.403497 129.460814 
C 275.292522 130.57179 274.668295 132.078807 274.668295 133.649964 
C 274.668295 135.221121 275.292522 136.728139 276.403497 137.839114 
C 277.514473 138.95009 279.021491 139.574317 280.592648 139.574317 
z
" clip-path="url(#p30b1c2345e)" style="fill: #a0a0a0"/>
   </g>
   <g id="patch_17">
    <path d="M 310.214413 145.49867 
C 313.356726 145.49867 316.370762 144.250216 318.592713 142.028265 
C 320.814664 139.806313 322.063119 136.792278 322.063119 133.649964 
C 322.063119 130.507651 320.814664 127.493615 318.592713 125.271664 
C 316.370762 123.049713 313.356726 121.801258 310.214413 121.801258 
C 307.072099 121.801258 304.058064 123.049713 301.836112 125.271664 
C 299.614161 127.493615 298.365707 130.507651 298.365707 133.649964 
C 298.365707 136.792278 299.614161 139.806313 301.836112 142.028265 
C 304.058064 144.250216 307.072099 145.49867 310.214413 145.49867 
z
" clip-path="url(#p30b1c2345e)" style="fill: #0dab76"/>
   </g>
   <g id="patch_18">
    <path d="M 310.214413 139.574317 
C 311.78557 139.574317 313.292587 138.95009 314.403563 137.839114 
C 315.514539 136.728139 316.138766 135.221121 316.138766 133.649964 
C 316.138766 132.078807 315.514539 130.57179 314.403563 129.460814 
C 313.292587 128.349838 311.78557 127.725611 310.214413 127.725611 
C 308.643256 127.725611 307.136238 128.349838 306.025263 129.460814 
C 304.914287 130.57179 304.29006 132.078807 304.29006 133.649964 
C 304.29006 135.221121 304.914287 136.728139 306.025263 137.839114 
C 307.136238 138.95009 308.643256 139.574317 310.214413 139.574317 
z
" clip-path="url(#p30b1c2345e)" style="fill: #a0a0a0"/>
   </g>
   <g id="patch_19">
    <path d="M 339.836178 145.49867 
C 342.978491 145.49867 345.992527 144.250216 348.214478 142.028265 
C 350.436429 139.806313 351.684884 136.792278 351.684884 133.649964 
C 351.684884 130.507651 350.436429 127.493615 348.214478 125.271664 
C 345.992527 123.049713 342.978491 121.801258 339.836178 121.801258 
C 336.693864 121.801258 333.679829 123.049713 331.457877 125.271664 
C 329.235926 127.493615 327.987472 130.507651 327.987472 133.649964 
C 327.987472 136.792278 329.235926 139.806313 331.457877 142.028265 
C 333.679829 144.250216 336.693864 145.49867 339.836178 145.49867 
z
" clip-path="url(#p30b1c2345e)" style="fill: #0dab76"/>
   </g>
   <g id="patch_20">
    <path d="M 339.836178 139.574317 
C 341.407335 139.574317 342.914352 138.95009 344.025328 137.839114 
C 345.136304 136.728139 345.760531 135.221121 345.760531 133.649964 
C 345.760531 132.078807 345.136304 130.57179 344.025328 129.460814 
C 342.914352 128.349838 341.407335 127.725611 339.836178 127.725611 
C 338.265021 127.725611 336.758003 128.349838 335.647028 129.460814 
C 334.536052 130.57179 333.911825 132.078807 333.911825 133.649964 
C 333.911825 135.221121 334.536052 136.728139 335.647028 137.839114 
C 336.758003 138.95009 338.265021 139.574317 339.836178 139.574317 
z
" clip-path="url(#p30b1c2345e)" style="fill: #a0a0a0"/>
   </g>
   <g id="patch_21">
    <path d="M 369.457943 145.49867 
C 372.600257 145.49867 375.614292 144.250216 377.836243 142.028265 
C 380.058195 139.806313 381.306649 136.792278 381.306649 133.649964 
C 381.306649 130.507651 380.058195 127.493615 377.836243 125.271664 
C 375.614292 123.049713 372.600257 121.801258 369.457943 121.801258 
C 366.315629 121.801258 363.301594 123.049713 361.079643 125.271664 
C 358.857691 127.493615 357.609237 130.507651 357.609237 133.649964 
C 357.609237 136.792278 358.857691 139.806313 361.079643 142.028265 
C 363.301594 144.250216 366.315629 145.49867 369.457943 145.49867 
z
" clip-path="url(#p30b1c2345e)" style="fill: #0dab76"/>
   </g>
   <g id="patch_22">
    <path d="M 369.457943 139.574317 
C 371.0291 139.574317 372.536118 138.95009 373.647093 137.839114 
C 374.758069 136.728139 375.382296 135.221121 375.382296 133.649964 
C 375.382296 132.078807 374.758069 130.57179 373.647093 129.460814 
C 372.536118 128.349838 371.0291 127.725611 369.457943 127.725611 
C 367.886786 127.725611 366.379768 128.349838 365.268793 129.460814 
C 364.157817 130.57179 363.53359 132.078807 363.53359 133.649964 
C 363.53359 135.221121 364.157817 136.728139 365.268793 137.839114 
C 366.379768 138.95009 367.886786 139.574317 369.457943 139.574317 
z
" clip-path="url(#p30b1c2345e)" style="fill: #a0a0a0"/>
   </g>
   <g id="matplotlib.axis_1">
    <g id="xtick_1">
     <g id="line2d_18">
      <defs>
       <path id="ma11a09e578" d="M 0 0 
L 0 3.5 
" style="stroke: #ffffff; stroke-width: 0.8"/>
      </defs>
      <g>
       <use xlink:href="#ma11a09e578" x="58.429409" y="249.471066" style="fill: #ffffff; stroke: #ffffff; stroke-width: 0.8"/>
      </g>
     </g>
     <g id="text_4">
      <text style="fill: #ffffff; font: 10px 'sans-serif'; text-anchor: middle" x="58.429409" y="264.069503" transform="rotate(-0, 58.429409, 264.069503)">−15</text>
     </g>
    </g>
    <g id="xtick_2">
     <g id="line2d_19">
      <g>
       <use xlink:href="#ma11a09e578" x="117.67294" y="249.471066" style="fill: #ffffff; stroke: #ffffff; stroke-width: 0.8"/>
      </g>
     </g>
     <g id="text_5">
      <text style="fill: #ffffff; font: 10px 'sans-serif'; text-anchor: middle" x="117.67294" y="264.069503" transform="rotate(-0, 117.67294, 264.069503)">−10</text>
     </g>
    </g>
    <g id="xtick_3">
     <g id="line2d_20">
      <g>
       <use xlink:href="#ma11a09e578" x="176.91647" y="249.471066" style="fill: #ffffff; stroke: #ffffff; stroke-width: 0.8"/>
      </g>
     </g>
     <g id="text_6">
      <text style="fill: #ffffff; font: 10px 'sans-serif'; text-anchor: middle" x="176.91647" y="264.069503" transform="rotate(-0, 176.91647, 264.069503)">−5</text>
     </g>
    </g>
    <g id="xtick_4">
     <g id="line2d_21">
      <g>
       <use xlink:href="#ma11a09e578" x="236.16" y="249.471066" style="fill: #ffffff; stroke: #ffffff; stroke-width: 0.8"/>
      </g>
     </g>
     <g id="text_7">
      <text style="fill: #ffffff; font: 10px 'sans-serif'; text-anchor: middle" x="236.16" y="264.069503" transform="rotate(-0, 236.16, 264.069503)">0</text>
     </g>
    </g>
    <g id="xtick_5">
     <g id="line2d_22">
      <g>
       <use xlink:href="#ma11a09e578" x="295.40353" y="249.471066" style="fill: #ffffff; stroke: #ffffff; stroke-width: 0.8"/>
      </g>
     </g>
     <g id="text_8">
      <text style="fill: #ffffff; font: 10px 'sans-serif'; text-anchor: middle" x="295.40353" y="264.069503" transform="rotate(-0, 295.40353, 264.069503)">5</text>
     </g>
    </g>
    <g id="xtick_6">
     <g id="line2d_23">
      <g>
       <use xlink:href="#ma11a09e578" x="354.64706" y="249.471066" style="fill: #ffffff; stroke: #ffffff; stroke-width: 0.8"/>
      </g>
     </g>
     <g id="text_9">
      <text style="fill: #ffffff; font: 10px 'sans-serif'; text-anchor: middle" x="354.64706" y="264.069503" transform="rotate(-0, 354.64706, 264.069503)">10</text>
     </g>
    </g>
    <g id="xtick_7">
     <g id="line2d_24">
      <g>
       <use xlink:href="#ma11a09e578" x="413.890591" y="249.471066" style="fill: #ffffff; stroke: #ffffff; stroke-width: 0.8"/>
      </g>
     </g>
     <g id="text_10">
      <text style="fill: #ffffff; font: 10px 'sans-serif'; text-anchor: middle" x="413.890591" y="264.069503" transform="rotate(-0, 413.890591, 264.069503)">15</text>
     </g>
    </g>
   </g>
   <g id="matplotlib.axis_2">
    <g id="ytick_1">
     <g id="line2d_25">
      <defs>
       <path id="m2541130c1a" d="M 0 0 
L -3.5 0 
" style="stroke: #ffffff; stroke-width: 0.8"/>
      </defs>
      <g>
       <use xlink:href="#m2541130c1a" x="57.6" y="228.439612" style="fill: #ffffff; stroke: #ffffff; stroke-width: 0.8"/>
      </g>
     </g>
     <g id="text_11">
      <text style="fill: #ffffff; font: 10px 'sans-serif'; text-anchor: end" x="50.6" y="232.238831" transform="rotate(-0, 50.6, 232.238831)">−8</text>
     </g>
    </g>
    <g id="ytick_2">
     <g id="line2d_26">
      <g>
       <use xlink:href="#m2541130c1a" x="57.6" y="204.7422" style="fill: #ffffff; stroke: #ffffff; stroke-width: 0.8"/>
      </g>
     </g>
     <g id="text_12">
      <text style="fill: #ffffff; font: 10px 'sans-serif'; text-anchor: end" x="50.6" y="208.541419" transform="rotate(-0, 50.6, 208.541419)">−6</text>
     </g>
    </g>
    <g id="ytick_3">
     <g id="line2d_27">
      <g>
       <use xlink:href="#m2541130c1a" x="57.6" y="181.044788" style="fill: #ffffff; stroke: #ffffff; stroke-width: 0.8"/>
      </g>
     </g>
     <g id="text_13">
      <text style="fill: #ffffff; font: 10px 'sans-serif'; text-anchor: end" x="50.6" y="184.844007" transform="rotate(-0, 50.6, 184.844007)">−4</text>
     </g>
    </g>
    <g id="ytick_4">
     <g id="line2d_28">
      <g>
       <use xlink:href="#m2541130c1a" x="57.6" y="157.347376" style="fill: #ffffff; stroke: #ffffff; stroke-width: 0.8"/>
      </g>
     </g>
     <g id="text_14">
      <text style="fill: #ffffff; font: 10px 'sans-serif'; text-anchor: end" x="50.6" y="161.146595" transform="rotate(-0, 50.6, 161.146595)">−2</text>
     </g>
    </g>
    <g id="ytick_5">
     <g id="line2d_29">
      <g>
       <use xlink:href="#m2541130c1a" x="57.6" y="133.649964" style="fill: #ffffff; stroke: #ffffff; stroke-width: 0.8"/>
      </g>
     </g>
     <g id="text_15">
      <text style="fill: #ffffff; font: 10px 'sans-serif'; text-anchor: end" x="50.6" y="137.449183" transform="rotate(-0, 50.6, 137.449183)">0</text>
     </g>
    </g>
    <g id="ytick_6">
     <g id="line2d_30">
      <g>
       <use xlink:href="#m2541130c1a" x="57.6" y="109.952552" style="fill: #ffffff; stroke: #ffffff; stroke-width: 0.8"/>
      </g>
     </g>
     <g id="text_16">
      <text style="fill: #ffffff; font: 10px 'sans-serif'; text-anchor: end" x="50.6" y="113.751771" transform="rotate(-0, 50.6, 113.751771)">2</text>
     </g>
    </g>
   </g>
   <g id="patch_23">
    <path d="M 57.6 249.471066 
L 57.6 99.584934 
" style="fill: none; stroke: #ffffff; stroke-width: 0.8; stroke-linejoin: miter; stroke-linecap: square"/>
   </g>
   <g id="patch_24">
    <path d="M 414.72 249.471066 
L 414.72 99.584934 
" style="fill: none; stroke: #ffffff; stroke-width: 0.8; stroke-linejoin: miter; stroke-linecap: square"/>
   </g>
   <g id="patch_25">
    <path d="M 57.6 249.471066 
L 414.72 249.471066 
" style="fill: none; stroke: #ffffff; stroke-width: 0.8; stroke-linejoin: miter; stroke-linecap: square"/>
   </g>
   <g id="patch_26">
    <path d="M 57.6 99.584934 
L 414.72 99.584934 
" style="fill: none; stroke: #ffffff; stroke-width: 0.8; stroke-linejoin: miter; stroke-linecap: square"/>
   </g>
   <g id="text_17">
    <text style="fill: #ffffff; font: 12px 'sans-serif'; text-anchor: middle" x="236.16" y="93.584934" transform="rotate(-0, 236.16, 93.584934)">S10B-XH</text>
   </g>
  </g>
 </g>
 <defs>
  <clipPath id="p30b1c2345e">
   <rect x="57.6" y="99.584934" width="357.12" height="149.886131"/>
  </clipPath>
 </defs>
</svg>
