<?xml version="1.0" encoding="utf-8" standalone="no"?>
<!DOCTYPE svg PUBLIC "-//W3C//DTD SVG 1.1//EN"
  "http://www.w3.org/Graphics/SVG/1.1/DTD/svg11.dtd">
<svg xmlns:xlink="http://www.w3.org/1999/xlink" width="460.8pt" height="345.6pt" viewBox="0 0 460.8 345.6" xmlns="http://www.w3.org/2000/svg" version="1.1">
 <metadata>
  <rdf:RDF xmlns:dc="http://purl.org/dc/elements/1.1/" xmlns:cc="http://creativecommons.org/ns#" xmlns:rdf="http://www.w3.org/1999/02/22-rdf-syntax-ns#">
   <cc:Work>
    <dc:type rdf:resource="http://purl.org/dc/dcmitype/StillImage"/>
    <dc:date>2023-02-18T16:06:08.012460</dc:date>
    <dc:format>image/svg+xml</dc:format>
    <dc:creator>
     <cc:Agent>
      <dc:title>Matplotlib v3.5.1, https://matplotlib.org/</dc:title>
     </cc:Agent>
    </dc:creator>
   </cc:Work>
  </rdf:RDF>
 </metadata>
 <defs>
  <style type="text/css">*{stroke-linejoin: round; stroke-linecap: butt}</style>
 </defs>
 <g id="figure_1">
  <g id="patch_1">
   <path d="M 0 345.6 
L 460.8 345.6 
L 460.8 0 
L 0 0 
z
" style="fill: #2b2b2b"/>
  </g>
  <g id="axes_1">
   <g id="patch_2">
    <path d="M 57.6 251.033637 
L 414.72 251.033637 
L 414.72 98.022363 
L 57.6 98.022363 
z
" style="fill: #2b2b2b"/>
   </g>
   <g id="patch_3">
    <path d="M 386.939849 149.704868 
C 386.967084 149.704868 386.993206 149.694047 387.012463 149.67479 
C 387.031721 149.655532 387.042541 149.62941 387.042541 149.602176 
C 387.042541 149.574942 387.031721 149.548819 387.012463 149.529562 
C 386.993206 149.510304 386.967084 149.499484 386.939849 149.499484 
C 386.912615 149.499484 386.886493 149.510304 386.867235 149.529562 
C 386.847978 149.548819 386.837158 149.574942 386.837158 149.602176 
C 386.837158 149.62941 386.847978 149.655532 386.867235 149.67479 
C 386.886493 149.694047 386.912615 149.704868 386.939849 149.704868 
L 386.939849 149.704868 
z
" clip-path="url(#p6482eb0743)" style="fill: none; stroke: #808080; stroke-width: 1.026917; stroke-linejoin: miter"/>
   </g>
   <g id="line2d_1">
    <path d="M 390.628541 149.722576 
L 393.460956 142.961319 
L 393.460956 142.961319 
L 396.293525 149.722893 
L 396.293525 149.722893 
" clip-path="url(#p6482eb0743)" style="fill: none; stroke: #808080; stroke-width: 0.521674; stroke-linecap: round"/>
   </g>
   <g id="line2d_2">
    <path d="M 388.434911 141.852158 
L 398.487143 138.470955 
L 398.487143 138.470955 
L 388.434652 135.181518 
L 388.434652 135.181518 
" clip-path="url(#p6482eb0743)" style="fill: none; stroke: #808080; stroke-width: 0.521674; stroke-linecap: round"/>
   </g>
   <g id="line2d_3">
    <path d="M 398.30388 134.027148 
L 388.251649 130.645944 
L 388.251649 130.645944 
L 398.304139 127.356507 
L 398.304139 127.356507 
" clip-path="url(#p6482eb0743)" style="fill: none; stroke: #808080; stroke-width: 0.521674; stroke-linecap: round"/>
   </g>
   <g id="line2d_4">
    <path d="M 395.837047 128.178138 
L 395.837047 133.20408 
" clip-path="url(#p6482eb0743)" style="fill: none; stroke: #808080; stroke-width: 0.521674; stroke-linecap: round"/>
   </g>
   <g id="line2d_5">
    <path d="M 388.434964 125.105493 
L 398.486848 125.105493 
L 398.486848 120.627835 
" clip-path="url(#p6482eb0743)" style="fill: none; stroke: #808080; stroke-width: 0.521674; stroke-linecap: round"/>
   </g>
   <g id="line2d_6">
    <path d="M 388.435389 117.828473 
L 395.654469 117.828473 
L 395.654469 117.828473 
L 396.568277 117.645712 
L 396.568277 117.645712 
L 397.299323 117.280188 
L 397.938988 116.640523 
L 398.395892 115.909477 
L 398.487273 114.995669 
L 398.395892 114.173243 
L 397.938988 113.350816 
L 397.299323 112.71115 
L 396.568277 112.345627 
L 395.654469 112.254247 
L 388.435389 112.254247 
" clip-path="url(#p6482eb0743)" style="fill: none; stroke: #808080; stroke-width: 0.521674; stroke-linecap: round"/>
   </g>
   <g id="line2d_7">
    <path d="M 398.486896 104.977421 
L 398.486896 109.455078 
L 388.435012 109.455078 
L 388.435012 104.977421 
" clip-path="url(#p6482eb0743)" style="fill: none; stroke: #808080; stroke-width: 0.521674; stroke-linecap: round"/>
   </g>
   <g id="line2d_8">
    <path d="M 392.912907 109.454897 
L 392.912907 106.073809 
" clip-path="url(#p6482eb0743)" style="fill: none; stroke: #808080; stroke-width: 0.521674; stroke-linecap: round"/>
   </g>
   <g id="patch_4">
    <path d="M 73.935419 149.704868 
C 73.962653 149.704868 73.988776 149.694047 74.008033 149.67479 
C 74.027291 149.655532 74.038111 149.62941 74.038111 149.602176 
C 74.038111 149.574942 74.027291 149.548819 74.008033 149.529562 
C 73.988776 149.510304 73.962653 149.499484 73.935419 149.499484 
C 73.908185 149.499484 73.882062 149.510304 73.862805 149.529562 
C 73.843548 149.548819 73.832727 149.574942 73.832727 149.602176 
C 73.832727 149.62941 73.843548 149.655532 73.862805 149.67479 
C 73.882062 149.694047 73.908185 149.704868 73.935419 149.704868 
L 73.935419 149.704868 
z
" clip-path="url(#p6482eb0743)" style="fill: none; stroke: #808080; stroke-width: 1.026917; stroke-linejoin: miter"/>
   </g>
   <g id="line2d_9">
    <path d="M 77.62411 149.722576 
L 80.456525 142.961319 
L 80.456525 142.961319 
L 83.289095 149.722893 
L 83.289095 149.722893 
" clip-path="url(#p6482eb0743)" style="fill: none; stroke: #808080; stroke-width: 0.521674; stroke-linecap: round"/>
   </g>
   <g id="line2d_10">
    <path d="M 85.482112 141.303224 
L 75.430229 141.303224 
L 85.482112 135.728998 
L 75.430229 135.728998 
" clip-path="url(#p6482eb0743)" style="fill: none; stroke: #808080; stroke-width: 0.521674; stroke-linecap: round"/>
   </g>
   <g id="line2d_11">
    <path d="M 85.29945 134.027148 
L 75.247218 130.645944 
L 75.247218 130.645944 
L 85.299709 127.356507 
L 85.299709 127.356507 
" clip-path="url(#p6482eb0743)" style="fill: none; stroke: #808080; stroke-width: 0.521674; stroke-linecap: round"/>
   </g>
   <g id="line2d_12">
    <path d="M 82.832617 128.178138 
L 82.832617 133.20408 
" clip-path="url(#p6482eb0743)" style="fill: none; stroke: #808080; stroke-width: 0.521674; stroke-linecap: round"/>
   </g>
   <g id="line2d_13">
    <path d="M 85.482409 126.201377 
L 75.430526 126.201377 
L 81.004752 122.911669 
L 81.004752 122.911669 
L 75.430526 119.530581 
L 75.430526 119.530581 
L 85.482409 119.530581 
" clip-path="url(#p6482eb0743)" style="fill: none; stroke: #808080; stroke-width: 0.521674; stroke-linecap: round"/>
   </g>
   <g id="line2d_14">
    <path d="M 85.482466 112.802532 
L 85.482466 117.280189 
L 75.430582 117.280189 
L 75.430582 112.802532 
" clip-path="url(#p6482eb0743)" style="fill: none; stroke: #808080; stroke-width: 0.521674; stroke-linecap: round"/>
   </g>
   <g id="line2d_15">
    <path d="M 79.908477 117.280008 
L 79.908477 113.89892 
" clip-path="url(#p6482eb0743)" style="fill: none; stroke: #808080; stroke-width: 0.521674; stroke-linecap: round"/>
   </g>
   <g id="line2d_16">
    <path d="M 105.153709 172.194359 
L 365.990734 172.194359 
" clip-path="url(#p6482eb0743)" style="fill: none; stroke: #808080; stroke-width: 1.304185; stroke-linecap: round"/>
   </g>
   <g id="line2d_17">
    <path d="M 365.990734 172.194359 
L 376.259908 172.194359 
" clip-path="url(#p6482eb0743)" style="fill: none; stroke: #808080; stroke-width: 1.304185; stroke-linecap: round"/>
   </g>
   <g id="line2d_18">
    <path d="M 376.259908 172.194359 
L 376.259908 244.078579 
" clip-path="url(#p6482eb0743)" style="fill: none; stroke: #808080; stroke-width: 1.304185; stroke-linecap: round"/>
   </g>
   <g id="line2d_19">
    <path d="M 376.259908 244.078579 
L 364.55305 244.078579 
" clip-path="url(#p6482eb0743)" style="fill: none; stroke: #808080; stroke-width: 1.304185; stroke-linecap: round"/>
   </g>
   <g id="line2d_20">
    <path d="M 106.591393 244.078579 
L 94.884534 244.078579 
" clip-path="url(#p6482eb0743)" style="fill: none; stroke: #808080; stroke-width: 1.304185; stroke-linecap: round"/>
   </g>
   <g id="line2d_21">
    <path d="M 94.884534 244.078579 
L 94.884534 172.194359 
" clip-path="url(#p6482eb0743)" style="fill: none; stroke: #808080; stroke-width: 1.304185; stroke-linecap: round"/>
   </g>
   <g id="line2d_22">
    <path d="M 364.55305 244.078579 
L 106.591393 244.078579 
" clip-path="url(#p6482eb0743)" style="fill: none; stroke: #808080; stroke-width: 1.304185; stroke-linecap: round"/>
   </g>
   <g id="line2d_23">
    <path d="M 106.591393 244.078579 
L 106.591393 206.698785 
" clip-path="url(#p6482eb0743)" style="fill: none; stroke: #808080; stroke-width: 1.304185; stroke-linecap: round"/>
   </g>
   <g id="line2d_24">
    <path d="M 106.591393 206.698785 
L 364.55305 206.698785 
" clip-path="url(#p6482eb0743)" style="fill: none; stroke: #808080; stroke-width: 1.304185; stroke-linecap: round"/>
   </g>
   <g id="line2d_25">
    <path d="M 364.55305 206.698785 
L 364.55305 244.078579 
" clip-path="url(#p6482eb0743)" style="fill: none; stroke: #808080; stroke-width: 1.304185; stroke-linecap: round"/>
   </g>
   <g id="line2d_26">
    <path d="M 376.259908 172.194359 
L 376.259908 125.983075 
" clip-path="url(#p6482eb0743)" style="fill: none; stroke: #808080; stroke-width: 1.304185; stroke-linecap: round"/>
   </g>
   <g id="line2d_27">
    <path d="M 376.259908 125.983075 
L 365.990734 125.983075 
" clip-path="url(#p6482eb0743)" style="fill: none; stroke: #808080; stroke-width: 1.304185; stroke-linecap: round"/>
   </g>
   <g id="line2d_28">
    <path d="M 365.990734 125.983075 
L 365.990734 172.194359 
" clip-path="url(#p6482eb0743)" style="fill: none; stroke: #808080; stroke-width: 1.304185; stroke-linecap: round"/>
   </g>
   <g id="line2d_29">
    <path d="M 94.884534 172.194359 
L 105.153709 172.194359 
" clip-path="url(#p6482eb0743)" style="fill: none; stroke: #808080; stroke-width: 1.304185; stroke-linecap: round"/>
   </g>
   <g id="line2d_30">
    <path d="M 105.153709 172.194359 
L 105.153709 125.983075 
" clip-path="url(#p6482eb0743)" style="fill: none; stroke: #808080; stroke-width: 1.304185; stroke-linecap: round"/>
   </g>
   <g id="line2d_31">
    <path d="M 105.153709 125.983075 
L 94.884534 125.983075 
" clip-path="url(#p6482eb0743)" style="fill: none; stroke: #808080; stroke-width: 1.304185; stroke-linecap: round"/>
   </g>
   <g id="line2d_32">
    <path d="M 94.884534 125.983075 
L 94.884534 172.194359 
" clip-path="url(#p6482eb0743)" style="fill: none; stroke: #808080; stroke-width: 1.304185; stroke-linecap: round"/>
   </g>
   <g id="patch_5">
    <path d="M 111.520597 188.419654 
C 111.547831 188.419654 111.573953 188.408834 111.593211 188.389577 
C 111.612468 188.370319 111.623288 188.344197 111.623288 188.316963 
C 111.623288 188.289729 111.612468 188.263606 111.593211 188.244349 
C 111.573953 188.225091 111.547831 188.214271 111.520597 188.214271 
C 111.493363 188.214271 111.46724 188.225091 111.447983 188.244349 
C 111.428725 188.263606 111.417905 188.289729 111.417905 188.316963 
C 111.417905 188.344197 111.428725 188.370319 111.447983 188.389577 
C 111.46724 188.408834 111.493363 188.419654 111.520597 188.419654 
L 111.520597 188.419654 
z
" clip-path="url(#p6482eb0743)" style="fill: none; stroke: #808080; stroke-width: 1.026917; stroke-linejoin: miter"/>
   </g>
   <g id="line2d_33">
    <path d="M 111.948175 178.962889 
L 114.780645 176.770009 
L 114.780645 176.770009 
L 114.780598 186.821968 
L 114.780598 186.821968 
" clip-path="url(#p6482eb0743)" style="fill: none; stroke: #808080; stroke-width: 0.521674; stroke-linecap: round"/>
   </g>
   <g id="line2d_34">
    <path d="M 111.948344 186.821758 
L 117.613951 186.821758 
" clip-path="url(#p6482eb0743)" style="fill: none; stroke: #808080; stroke-width: 0.521674; stroke-linecap: round"/>
   </g>
   <g id="patch_6">
    <path d="M 120.044011 159.87135 
C 122.767428 159.87135 125.379668 158.789325 127.305414 156.863579 
C 129.231161 154.937832 130.313186 152.325593 130.313186 149.602176 
C 130.313186 146.878759 129.231161 144.26652 127.305414 142.340773 
C 125.379668 140.415027 122.767428 139.333002 120.044011 139.333002 
C 117.320594 139.333002 114.708355 140.415027 112.782609 142.340773 
C 110.856862 144.26652 109.774837 146.878759 109.774837 149.602176 
C 109.774837 152.325593 110.856862 154.937832 112.782609 156.863579 
C 114.708355 158.789325 117.320594 159.87135 120.044011 159.87135 
z
" clip-path="url(#p6482eb0743)" style="fill: #0dab76"/>
   </g>
   <g id="patch_7">
    <path d="M 120.044011 154.736763 
C 121.40572 154.736763 122.711839 154.19575 123.674713 153.232877 
C 124.637586 152.270004 125.178598 150.963884 125.178598 149.602176 
C 125.178598 148.240467 124.637586 146.934348 123.674713 145.971475 
C 122.711839 145.008601 121.40572 144.467589 120.044011 144.467589 
C 118.682303 144.467589 117.376183 145.008601 116.41331 145.971475 
C 115.450437 146.934348 114.909424 148.240467 114.909424 149.602176 
C 114.909424 150.963884 115.450437 152.270004 116.41331 153.232877 
C 117.376183 154.19575 118.682303 154.736763 120.044011 154.736763 
z
" clip-path="url(#p6482eb0743)" style="fill: #a0a0a0"/>
   </g>
   <g id="patch_8">
    <path d="M 145.716947 159.87135 
C 148.440364 159.87135 151.052603 158.789325 152.97835 156.863579 
C 154.904096 154.937832 155.986121 152.325593 155.986121 149.602176 
C 155.986121 146.878759 154.904096 144.26652 152.97835 142.340773 
C 151.052603 140.415027 148.440364 139.333002 145.716947 139.333002 
C 142.99353 139.333002 140.381291 140.415027 138.455544 142.340773 
C 136.529798 144.26652 135.447773 146.878759 135.447773 149.602176 
C 135.447773 152.325593 136.529798 154.937832 138.455544 156.863579 
C 140.381291 158.789325 142.99353 159.87135 145.716947 159.87135 
z
" clip-path="url(#p6482eb0743)" style="fill: #0dab76"/>
   </g>
   <g id="patch_9">
    <path d="M 145.716947 154.736763 
C 147.078655 154.736763 148.384775 154.19575 149.347648 153.232877 
C 150.310521 152.270004 150.851534 150.963884 150.851534 149.602176 
C 150.851534 148.240467 150.310521 146.934348 149.347648 145.971475 
C 148.384775 145.008601 147.078655 144.467589 145.716947 144.467589 
C 144.355238 144.467589 143.049119 145.008601 142.086245 145.971475 
C 141.123372 146.934348 140.58236 148.240467 140.58236 149.602176 
C 140.58236 150.963884 141.123372 152.270004 142.086245 153.232877 
C 143.049119 154.19575 144.355238 154.736763 145.716947 154.736763 
z
" clip-path="url(#p6482eb0743)" style="fill: #a0a0a0"/>
   </g>
   <g id="patch_10">
    <path d="M 171.389882 159.87135 
C 174.113299 159.87135 176.725539 158.789325 178.651285 156.863579 
C 180.577032 154.937832 181.659057 152.325593 181.659057 149.602176 
C 181.659057 146.878759 180.577032 144.26652 178.651285 142.340773 
C 176.725539 140.415027 174.113299 139.333002 171.389882 139.333002 
C 168.666466 139.333002 166.054226 140.415027 164.12848 142.340773 
C 162.202733 144.26652 161.120708 146.878759 161.120708 149.602176 
C 161.120708 152.325593 162.202733 154.937832 164.12848 156.863579 
C 166.054226 158.789325 168.666466 159.87135 171.389882 159.87135 
z
" clip-path="url(#p6482eb0743)" style="fill: #0dab76"/>
   </g>
   <g id="patch_11">
    <path d="M 171.389882 154.736763 
C 172.751591 154.736763 174.057711 154.19575 175.020584 153.232877 
C 175.983457 152.270004 176.52447 150.963884 176.52447 149.602176 
C 176.52447 148.240467 175.983457 146.934348 175.020584 145.971475 
C 174.057711 145.008601 172.751591 144.467589 171.389882 144.467589 
C 170.028174 144.467589 168.722054 145.008601 167.759181 145.971475 
C 166.796308 146.934348 166.255295 148.240467 166.255295 149.602176 
C 166.255295 150.963884 166.796308 152.270004 167.759181 153.232877 
C 168.722054 154.19575 170.028174 154.736763 171.389882 154.736763 
z
" clip-path="url(#p6482eb0743)" style="fill: #a0a0a0"/>
   </g>
   <g id="patch_12">
    <path d="M 197.062818 159.87135 
C 199.786235 159.87135 202.398474 158.789325 204.324221 156.863579 
C 206.249967 154.937832 207.331992 152.325593 207.331992 149.602176 
C 207.331992 146.878759 206.249967 144.26652 204.324221 142.340773 
C 202.398474 140.415027 199.786235 139.333002 197.062818 139.333002 
C 194.339401 139.333002 191.727162 140.415027 189.801415 142.340773 
C 187.875669 144.26652 186.793644 146.878759 186.793644 149.602176 
C 186.793644 152.325593 187.875669 154.937832 189.801415 156.863579 
C 191.727162 158.789325 194.339401 159.87135 197.062818 159.87135 
z
" clip-path="url(#p6482eb0743)" style="fill: #0dab76"/>
   </g>
   <g id="patch_13">
    <path d="M 197.062818 154.736763 
C 198.424526 154.736763 199.730646 154.19575 200.693519 153.232877 
C 201.656393 152.270004 202.197405 150.963884 202.197405 149.602176 
C 202.197405 148.240467 201.656393 146.934348 200.693519 145.971475 
C 199.730646 145.008601 198.424526 144.467589 197.062818 144.467589 
C 195.70111 144.467589 194.39499 145.008601 193.432117 145.971475 
C 192.469243 146.934348 191.928231 148.240467 191.928231 149.602176 
C 191.928231 150.963884 192.469243 152.270004 193.432117 153.232877 
C 194.39499 154.19575 195.70111 154.736763 197.062818 154.736763 
z
" clip-path="url(#p6482eb0743)" style="fill: #a0a0a0"/>
   </g>
   <g id="patch_14">
    <path d="M 222.735754 159.87135 
C 225.45917 159.87135 228.07141 158.789325 229.997156 156.863579 
C 231.922903 154.937832 233.004928 152.325593 233.004928 149.602176 
C 233.004928 146.878759 231.922903 144.26652 229.997156 142.340773 
C 228.07141 140.415027 225.45917 139.333002 222.735754 139.333002 
C 220.012337 139.333002 217.400097 140.415027 215.474351 142.340773 
C 213.548604 144.26652 212.466579 146.878759 212.466579 149.602176 
C 212.466579 152.325593 213.548604 154.937832 215.474351 156.863579 
C 217.400097 158.789325 220.012337 159.87135 222.735754 159.87135 
z
" clip-path="url(#p6482eb0743)" style="fill: #0dab76"/>
   </g>
   <g id="patch_15">
    <path d="M 222.735754 154.736763 
C 224.097462 154.736763 225.403582 154.19575 226.366455 153.232877 
C 227.329328 152.270004 227.870341 150.963884 227.870341 149.602176 
C 227.870341 148.240467 227.329328 146.934348 226.366455 145.971475 
C 225.403582 145.008601 224.097462 144.467589 222.735754 144.467589 
C 221.374045 144.467589 220.067925 145.008601 219.105052 145.971475 
C 218.142179 146.934348 217.601166 148.240467 217.601166 149.602176 
C 217.601166 150.963884 218.142179 152.270004 219.105052 153.232877 
C 220.067925 154.19575 221.374045 154.736763 222.735754 154.736763 
z
" clip-path="url(#p6482eb0743)" style="fill: #a0a0a0"/>
   </g>
   <g id="patch_16">
    <path d="M 248.408689 159.87135 
C 251.132106 159.87135 253.744345 158.789325 255.670092 156.863579 
C 257.595838 154.937832 258.677863 152.325593 258.677863 149.602176 
C 258.677863 146.878759 257.595838 144.26652 255.670092 142.340773 
C 253.744345 140.415027 251.132106 139.333002 248.408689 139.333002 
C 245.685272 139.333002 243.073033 140.415027 241.147286 142.340773 
C 239.22154 144.26652 238.139515 146.878759 238.139515 149.602176 
C 238.139515 152.325593 239.22154 154.937832 241.147286 156.863579 
C 243.073033 158.789325 245.685272 159.87135 248.408689 159.87135 
z
" clip-path="url(#p6482eb0743)" style="fill: #0dab76"/>
   </g>
   <g id="patch_17">
    <path d="M 248.408689 154.736763 
C 249.770398 154.736763 251.076517 154.19575 252.03939 153.232877 
C 253.002264 152.270004 253.543276 150.963884 253.543276 149.602176 
C 253.543276 148.240467 253.002264 146.934348 252.03939 145.971475 
C 251.076517 145.008601 249.770398 144.467589 248.408689 144.467589 
C 247.046981 144.467589 245.740861 145.008601 244.777988 145.971475 
C 243.815115 146.934348 243.274102 148.240467 243.274102 149.602176 
C 243.274102 150.963884 243.815115 152.270004 244.777988 153.232877 
C 245.740861 154.19575 247.046981 154.736763 248.408689 154.736763 
z
" clip-path="url(#p6482eb0743)" style="fill: #a0a0a0"/>
   </g>
   <g id="patch_18">
    <path d="M 274.081625 159.87135 
C 276.805042 159.87135 279.417281 158.789325 281.343027 156.863579 
C 283.268774 154.937832 284.350799 152.325593 284.350799 149.602176 
C 284.350799 146.878759 283.268774 144.26652 281.343027 142.340773 
C 279.417281 140.415027 276.805042 139.333002 274.081625 139.333002 
C 271.358208 139.333002 268.745968 140.415027 266.820222 142.340773 
C 264.894475 144.26652 263.81245 146.878759 263.81245 149.602176 
C 263.81245 152.325593 264.894475 154.937832 266.820222 156.863579 
C 268.745968 158.789325 271.358208 159.87135 274.081625 159.87135 
z
" clip-path="url(#p6482eb0743)" style="fill: #0dab76"/>
   </g>
   <g id="patch_19">
    <path d="M 274.081625 154.736763 
C 275.443333 154.736763 276.749453 154.19575 277.712326 153.232877 
C 278.675199 152.270004 279.216212 150.963884 279.216212 149.602176 
C 279.216212 148.240467 278.675199 146.934348 277.712326 145.971475 
C 276.749453 145.008601 275.443333 144.467589 274.081625 144.467589 
C 272.719916 144.467589 271.413797 145.008601 270.450923 145.971475 
C 269.48805 146.934348 268.947038 148.240467 268.947038 149.602176 
C 268.947038 150.963884 269.48805 152.270004 270.450923 153.232877 
C 271.413797 154.19575 272.719916 154.736763 274.081625 154.736763 
z
" clip-path="url(#p6482eb0743)" style="fill: #a0a0a0"/>
   </g>
   <g id="patch_20">
    <path d="M 299.75456 159.87135 
C 302.477977 159.87135 305.090216 158.789325 307.015963 156.863579 
C 308.94171 154.937832 310.023734 152.325593 310.023734 149.602176 
C 310.023734 146.878759 308.94171 144.26652 307.015963 142.340773 
C 305.090216 140.415027 302.477977 139.333002 299.75456 139.333002 
C 297.031143 139.333002 294.418904 140.415027 292.493158 142.340773 
C 290.567411 144.26652 289.485386 146.878759 289.485386 149.602176 
C 289.485386 152.325593 290.567411 154.937832 292.493158 156.863579 
C 294.418904 158.789325 297.031143 159.87135 299.75456 159.87135 
z
" clip-path="url(#p6482eb0743)" style="fill: #0dab76"/>
   </g>
   <g id="patch_21">
    <path d="M 299.75456 154.736763 
C 301.116269 154.736763 302.422388 154.19575 303.385262 153.232877 
C 304.348135 152.270004 304.889147 150.963884 304.889147 149.602176 
C 304.889147 148.240467 304.348135 146.934348 303.385262 145.971475 
C 302.422388 145.008601 301.116269 144.467589 299.75456 144.467589 
C 298.392852 144.467589 297.086732 145.008601 296.123859 145.971475 
C 295.160986 146.934348 294.619973 148.240467 294.619973 149.602176 
C 294.619973 150.963884 295.160986 152.270004 296.123859 153.232877 
C 297.086732 154.19575 298.392852 154.736763 299.75456 154.736763 
z
" clip-path="url(#p6482eb0743)" style="fill: #a0a0a0"/>
   </g>
   <g id="patch_22">
    <path d="M 325.427496 159.87135 
C 328.150913 159.87135 330.763152 158.789325 332.688899 156.863579 
C 334.614645 154.937832 335.69667 152.325593 335.69667 149.602176 
C 335.69667 146.878759 334.614645 144.26652 332.688899 142.340773 
C 330.763152 140.415027 328.150913 139.333002 325.427496 139.333002 
C 322.704079 139.333002 320.09184 140.415027 318.166093 142.340773 
C 316.240347 144.26652 315.158322 146.878759 315.158322 149.602176 
C 315.158322 152.325593 316.240347 154.937832 318.166093 156.863579 
C 320.09184 158.789325 322.704079 159.87135 325.427496 159.87135 
z
" clip-path="url(#p6482eb0743)" style="fill: #0dab76"/>
   </g>
   <g id="patch_23">
    <path d="M 325.427496 154.736763 
C 326.789204 154.736763 328.095324 154.19575 329.058197 153.232877 
C 330.02107 152.270004 330.562083 150.963884 330.562083 149.602176 
C 330.562083 148.240467 330.02107 146.934348 329.058197 145.971475 
C 328.095324 145.008601 326.789204 144.467589 325.427496 144.467589 
C 324.065787 144.467589 322.759668 145.008601 321.796794 145.971475 
C 320.833921 146.934348 320.292909 148.240467 320.292909 149.602176 
C 320.292909 150.963884 320.833921 152.270004 321.796794 153.232877 
C 322.759668 154.19575 324.065787 154.736763 325.427496 154.736763 
z
" clip-path="url(#p6482eb0743)" style="fill: #a0a0a0"/>
   </g>
   <g id="patch_24">
    <path d="M 351.100431 159.87135 
C 353.823848 159.87135 356.436088 158.789325 358.361834 156.863579 
C 360.287581 154.937832 361.369606 152.325593 361.369606 149.602176 
C 361.369606 146.878759 360.287581 144.26652 358.361834 142.340773 
C 356.436088 140.415027 353.823848 139.333002 351.100431 139.333002 
C 348.377015 139.333002 345.764775 140.415027 343.839029 142.340773 
C 341.913282 144.26652 340.831257 146.878759 340.831257 149.602176 
C 340.831257 152.325593 341.913282 154.937832 343.839029 156.863579 
C 345.764775 158.789325 348.377015 159.87135 351.100431 159.87135 
z
" clip-path="url(#p6482eb0743)" style="fill: #0dab76"/>
   </g>
   <g id="patch_25">
    <path d="M 351.100431 154.736763 
C 352.46214 154.736763 353.76826 154.19575 354.731133 153.232877 
C 355.694006 152.270004 356.235019 150.963884 356.235019 149.602176 
C 356.235019 148.240467 355.694006 146.934348 354.731133 145.971475 
C 353.76826 145.008601 352.46214 144.467589 351.100431 144.467589 
C 349.738723 144.467589 348.432603 145.008601 347.46973 145.971475 
C 346.506857 146.934348 345.965844 148.240467 345.965844 149.602176 
C 345.965844 150.963884 346.506857 152.270004 347.46973 153.232877 
C 348.432603 154.19575 349.738723 154.736763 351.100431 154.736763 
z
" clip-path="url(#p6482eb0743)" style="fill: #a0a0a0"/>
   </g>
   <g id="matplotlib.axis_1">
    <g id="xtick_1">
     <g id="line2d_35">
      <defs>
       <path id="m47bb641a27" d="M 0 0 
L 0 3.5 
" style="stroke: #ffffff; stroke-width: 0.8"/>
      </defs>
      <g>
       <use xlink:href="#m47bb641a27" x="81.534608" y="251.033637" style="fill: #ffffff; stroke: #ffffff; stroke-width: 0.8"/>
      </g>
     </g>
     <g id="text_1">
      <text style="fill: #ffffff; font: 10px 'sans-serif'; text-anchor: middle" x="81.534608" y="265.632074" transform="rotate(-0, 81.534608, 265.632074)">−15</text>
     </g>
    </g>
    <g id="xtick_2">
     <g id="line2d_36">
      <g>
       <use xlink:href="#m47bb641a27" x="132.880479" y="251.033637" style="fill: #ffffff; stroke: #ffffff; stroke-width: 0.8"/>
      </g>
     </g>
     <g id="text_2">
      <text style="fill: #ffffff; font: 10px 'sans-serif'; text-anchor: middle" x="132.880479" y="265.632074" transform="rotate(-0, 132.880479, 265.632074)">−10</text>
     </g>
    </g>
    <g id="xtick_3">
     <g id="line2d_37">
      <g>
       <use xlink:href="#m47bb641a27" x="184.22635" y="251.033637" style="fill: #ffffff; stroke: #ffffff; stroke-width: 0.8"/>
      </g>
     </g>
     <g id="text_3">
      <text style="fill: #ffffff; font: 10px 'sans-serif'; text-anchor: middle" x="184.22635" y="265.632074" transform="rotate(-0, 184.22635, 265.632074)">−5</text>
     </g>
    </g>
    <g id="xtick_4">
     <g id="line2d_38">
      <g>
       <use xlink:href="#m47bb641a27" x="235.572221" y="251.033637" style="fill: #ffffff; stroke: #ffffff; stroke-width: 0.8"/>
      </g>
     </g>
     <g id="text_4">
      <text style="fill: #ffffff; font: 10px 'sans-serif'; text-anchor: middle" x="235.572221" y="265.632074" transform="rotate(-0, 235.572221, 265.632074)">0</text>
     </g>
    </g>
    <g id="xtick_5">
     <g id="line2d_39">
      <g>
       <use xlink:href="#m47bb641a27" x="286.918092" y="251.033637" style="fill: #ffffff; stroke: #ffffff; stroke-width: 0.8"/>
      </g>
     </g>
     <g id="text_5">
      <text style="fill: #ffffff; font: 10px 'sans-serif'; text-anchor: middle" x="286.918092" y="265.632074" transform="rotate(-0, 286.918092, 265.632074)">5</text>
     </g>
    </g>
    <g id="xtick_6">
     <g id="line2d_40">
      <g>
       <use xlink:href="#m47bb641a27" x="338.263964" y="251.033637" style="fill: #ffffff; stroke: #ffffff; stroke-width: 0.8"/>
      </g>
     </g>
     <g id="text_6">
      <text style="fill: #ffffff; font: 10px 'sans-serif'; text-anchor: middle" x="338.263964" y="265.632074" transform="rotate(-0, 338.263964, 265.632074)">10</text>
     </g>
    </g>
    <g id="xtick_7">
     <g id="line2d_41">
      <g>
       <use xlink:href="#m47bb641a27" x="389.609835" y="251.033637" style="fill: #ffffff; stroke: #ffffff; stroke-width: 0.8"/>
      </g>
     </g>
     <g id="text_7">
      <text style="fill: #ffffff; font: 10px 'sans-serif'; text-anchor: middle" x="389.609835" y="265.632074" transform="rotate(-0, 389.609835, 265.632074)">15</text>
     </g>
    </g>
   </g>
   <g id="matplotlib.axis_2">
    <g id="ytick_1">
     <g id="line2d_42">
      <defs>
       <path id="md6112d153e" d="M 0 0 
L -3.5 0 
" style="stroke: #ffffff; stroke-width: 0.8"/>
      </defs>
      <g>
       <use xlink:href="#md6112d153e" x="57.6" y="226.620983" style="fill: #ffffff; stroke: #ffffff; stroke-width: 0.8"/>
      </g>
     </g>
     <g id="text_8">
      <text style="fill: #ffffff; font: 10px 'sans-serif'; text-anchor: end" x="50.6" y="230.420201" transform="rotate(-0, 50.6, 230.420201)">−7.5</text>
     </g>
    </g>
    <g id="ytick_2">
     <g id="line2d_43">
      <g>
       <use xlink:href="#md6112d153e" x="57.6" y="200.948047" style="fill: #ffffff; stroke: #ffffff; stroke-width: 0.8"/>
      </g>
     </g>
     <g id="text_9">
      <text style="fill: #ffffff; font: 10px 'sans-serif'; text-anchor: end" x="50.6" y="204.747266" transform="rotate(-0, 50.6, 204.747266)">−5.0</text>
     </g>
    </g>
    <g id="ytick_3">
     <g id="line2d_44">
      <g>
       <use xlink:href="#md6112d153e" x="57.6" y="175.275111" style="fill: #ffffff; stroke: #ffffff; stroke-width: 0.8"/>
      </g>
     </g>
     <g id="text_10">
      <text style="fill: #ffffff; font: 10px 'sans-serif'; text-anchor: end" x="50.6" y="179.07433" transform="rotate(-0, 50.6, 179.07433)">−2.5</text>
     </g>
    </g>
    <g id="ytick_4">
     <g id="line2d_45">
      <g>
       <use xlink:href="#md6112d153e" x="57.6" y="149.602176" style="fill: #ffffff; stroke: #ffffff; stroke-width: 0.8"/>
      </g>
     </g>
     <g id="text_11">
      <text style="fill: #ffffff; font: 10px 'sans-serif'; text-anchor: end" x="50.6" y="153.401395" transform="rotate(-0, 50.6, 153.401395)">0.0</text>
     </g>
    </g>
    <g id="ytick_5">
     <g id="line2d_46">
      <g>
       <use xlink:href="#md6112d153e" x="57.6" y="123.92924" style="fill: #ffffff; stroke: #ffffff; stroke-width: 0.8"/>
      </g>
     </g>
     <g id="text_12">
      <text style="fill: #ffffff; font: 10px 'sans-serif'; text-anchor: end" x="50.6" y="127.728459" transform="rotate(-0, 50.6, 127.728459)">2.5</text>
     </g>
    </g>
    <g id="ytick_6">
     <g id="line2d_47">
      <g>
       <use xlink:href="#md6112d153e" x="57.6" y="98.256305" style="fill: #ffffff; stroke: #ffffff; stroke-width: 0.8"/>
      </g>
     </g>
     <g id="text_13">
      <text style="fill: #ffffff; font: 10px 'sans-serif'; text-anchor: end" x="50.6" y="102.055523" transform="rotate(-0, 50.6, 102.055523)">5.0</text>
     </g>
    </g>
   </g>
   <g id="patch_26">
    <path d="M 57.6 251.033637 
L 57.6 98.022363 
" style="fill: none; stroke: #ffffff; stroke-width: 0.8; stroke-linejoin: miter; stroke-linecap: square"/>
   </g>
   <g id="patch_27">
    <path d="M 414.72 251.033637 
L 414.72 98.022363 
" style="fill: none; stroke: #ffffff; stroke-width: 0.8; stroke-linejoin: miter; stroke-linecap: square"/>
   </g>
   <g id="patch_28">
    <path d="M 57.6 251.033637 
L 414.72 251.033637 
" style="fill: none; stroke: #ffffff; stroke-width: 0.8; stroke-linejoin: miter; stroke-linecap: square"/>
   </g>
   <g id="patch_29">
    <path d="M 57.6 98.022363 
L 414.72 98.022363 
" style="fill: none; stroke: #ffffff; stroke-width: 0.8; stroke-linejoin: miter; stroke-linecap: square"/>
   </g>
   <g id="text_14">
    <text style="fill: #ffffff; font: 12px 'sans-serif'; text-anchor: middle" x="236.16" y="92.022363" transform="rotate(-0, 236.16, 92.022363)">S10B-XH</text>
   </g>
  </g>
 </g>
 <defs>
  <clipPath id="p6482eb0743">
   <rect x="57.6" y="98.022363" width="357.12" height="153.011273"/>
  </clipPath>
 </defs>
</svg>
