<?xml version="1.0" encoding="utf-8" standalone="no"?>
<!DOCTYPE svg PUBLIC "-//W3C//DTD SVG 1.1//EN"
  "http://www.w3.org/Graphics/SVG/1.1/DTD/svg11.dtd">
<svg xmlns:xlink="http://www.w3.org/1999/xlink" width="460.8pt" height="345.6pt" viewBox="0 0 460.8 345.6" xmlns="http://www.w3.org/2000/svg" version="1.1">
 <metadata>
  <rdf:RDF xmlns:dc="http://purl.org/dc/elements/1.1/" xmlns:cc="http://creativecommons.org/ns#" xmlns:rdf="http://www.w3.org/1999/02/22-rdf-syntax-ns#">
   <cc:Work>
    <dc:type rdf:resource="http://purl.org/dc/dcmitype/StillImage"/>
    <dc:date>2023-02-18T16:06:07.546056</dc:date>
    <dc:format>image/svg+xml</dc:format>
    <dc:creator>
     <cc:Agent>
      <dc:title>Matplotlib v3.5.1, https://matplotlib.org/</dc:title>
     </cc:Agent>
    </dc:creator>
   </cc:Work>
  </rdf:RDF>
 </metadata>
 <defs>
  <style type="text/css">*{stroke-linejoin: round; stroke-linecap: butt}</style>
 </defs>
 <g id="figure_1">
  <g id="patch_1">
   <path d="M 0 345.6 
L 460.8 345.6 
L 460.8 0 
L 0 0 
z
" style="fill: #2b2b2b"/>
  </g>
  <g id="axes_1">
   <g id="patch_2">
    <path d="M 57.6 287.263714 
L 414.72 287.263714 
L 414.72 61.792286 
L 57.6 61.792286 
z
" style="fill: #2b2b2b"/>
   </g>
   <g id="patch_3">
    <path d="M 381.471441 137.949603 
C 381.511573 137.949603 381.550066 137.933659 381.578443 137.905282 
C 381.60682 137.876905 381.622764 137.838412 381.622764 137.79828 
C 381.622764 137.758149 381.60682 137.719656 381.578443 137.691279 
C 381.550066 137.662902 381.511573 137.646958 381.471441 137.646958 
C 381.43131 137.646958 381.392817 137.662902 381.36444 137.691279 
C 381.336063 137.719656 381.320119 137.758149 381.320119 137.79828 
C 381.320119 137.838412 381.336063 137.876905 381.36444 137.905282 
C 381.392817 137.933659 381.43131 137.949603 381.471441 137.949603 
L 381.471441 137.949603 
z
" clip-path="url(#p89efae5c9a)" style="fill: none; stroke: #808080; stroke-width: 1.513225; stroke-linejoin: miter"/>
   </g>
   <g id="line2d_1">
    <path d="M 386.906953 137.975698 
L 391.080689 128.012573 
L 391.080689 128.012573 
L 395.254652 137.976164 
L 395.254652 137.976164 
" clip-path="url(#p89efae5c9a)" style="fill: none; stroke: #808080; stroke-width: 0.768718; stroke-linecap: round"/>
   </g>
   <g id="line2d_2">
    <path d="M 383.674506 126.378157 
L 398.487081 121.395748 
L 398.487081 121.395748 
L 383.674124 116.548562 
L 383.674124 116.548562 
" clip-path="url(#p89efae5c9a)" style="fill: none; stroke: #808080; stroke-width: 0.768718; stroke-linecap: round"/>
   </g>
   <g id="line2d_3">
    <path d="M 398.217033 114.847528 
L 383.404457 109.865119 
L 383.404457 109.865119 
L 398.217414 105.017933 
L 398.217414 105.017933 
" clip-path="url(#p89efae5c9a)" style="fill: none; stroke: #808080; stroke-width: 0.768718; stroke-linecap: round"/>
   </g>
   <g id="line2d_4">
    <path d="M 394.582004 106.228656 
L 394.582004 113.634687 
" clip-path="url(#p89efae5c9a)" style="fill: none; stroke: #808080; stroke-width: 0.768718; stroke-linecap: round"/>
   </g>
   <g id="line2d_5">
    <path d="M 383.674584 101.700926 
L 398.486647 101.700926 
L 398.486647 95.102825 
" clip-path="url(#p89efae5c9a)" style="fill: none; stroke: #808080; stroke-width: 0.768718; stroke-linecap: round"/>
   </g>
   <g id="line2d_6">
    <path d="M 383.67521 90.977795 
L 394.312964 90.977795 
L 394.312964 90.977795 
L 395.659515 90.708484 
L 395.659515 90.708484 
L 396.736756 90.169864 
L 397.679342 89.227278 
L 398.352618 88.150037 
L 398.487273 86.803486 
L 398.352618 85.59159 
L 397.679342 84.379694 
L 396.736756 83.437108 
L 395.659515 82.898488 
L 394.312964 82.763833 
L 383.67521 82.763833 
" clip-path="url(#p89efae5c9a)" style="fill: none; stroke: #808080; stroke-width: 0.768718; stroke-linecap: round"/>
   </g>
   <g id="line2d_7">
    <path d="M 398.486718 72.040987 
L 398.486718 78.639088 
L 383.674655 78.639088 
L 383.674655 72.040987 
" clip-path="url(#p89efae5c9a)" style="fill: none; stroke: #808080; stroke-width: 0.768718; stroke-linecap: round"/>
   </g>
   <g id="line2d_8">
    <path d="M 390.273105 78.638821 
L 390.273105 73.656581 
" clip-path="url(#p89efae5c9a)" style="fill: none; stroke: #808080; stroke-width: 0.768718; stroke-linecap: round"/>
   </g>
   <g id="patch_4">
    <path d="M 73.98405 137.949603 
C 74.024181 137.949603 74.062674 137.933659 74.091051 137.905282 
C 74.119428 137.876905 74.135372 137.838412 74.135372 137.79828 
C 74.135372 137.758149 74.119428 137.719656 74.091051 137.691279 
C 74.062674 137.662902 74.024181 137.646958 73.98405 137.646958 
C 73.943919 137.646958 73.905426 137.662902 73.877049 137.691279 
C 73.848672 137.719656 73.832727 137.758149 73.832727 137.79828 
C 73.832727 137.838412 73.848672 137.876905 73.877049 137.905282 
C 73.905426 137.933659 73.943919 137.949603 73.98405 137.949603 
L 73.98405 137.949603 
z
" clip-path="url(#p89efae5c9a)" style="fill: none; stroke: #808080; stroke-width: 1.513225; stroke-linejoin: miter"/>
   </g>
   <g id="line2d_9">
    <path d="M 79.419561 137.975698 
L 83.593297 128.012573 
L 83.593297 128.012573 
L 87.76726 137.976164 
L 87.76726 137.976164 
" clip-path="url(#p89efae5c9a)" style="fill: none; stroke: #808080; stroke-width: 0.768718; stroke-linecap: round"/>
   </g>
   <g id="line2d_10">
    <path d="M 90.998806 125.56927 
L 76.186743 125.56927 
L 90.998806 117.355308 
L 76.186743 117.355308 
" clip-path="url(#p89efae5c9a)" style="fill: none; stroke: #808080; stroke-width: 0.768718; stroke-linecap: round"/>
   </g>
   <g id="line2d_11">
    <path d="M 90.729641 114.847528 
L 75.917066 109.865119 
L 75.917066 109.865119 
L 90.730023 105.017933 
L 90.730023 105.017933 
" clip-path="url(#p89efae5c9a)" style="fill: none; stroke: #808080; stroke-width: 0.768718; stroke-linecap: round"/>
   </g>
   <g id="line2d_12">
    <path d="M 87.094612 106.228656 
L 87.094612 113.634687 
" clip-path="url(#p89efae5c9a)" style="fill: none; stroke: #808080; stroke-width: 0.768718; stroke-linecap: round"/>
   </g>
   <g id="line2d_13">
    <path d="M 90.999243 103.315778 
L 76.18718 103.315778 
L 84.401142 98.468194 
L 84.401142 98.468194 
L 76.18718 93.485955 
L 76.18718 93.485955 
L 90.999243 93.485955 
" clip-path="url(#p89efae5c9a)" style="fill: none; stroke: #808080; stroke-width: 0.768718; stroke-linecap: round"/>
   </g>
   <g id="line2d_14">
    <path d="M 90.999326 83.571764 
L 90.999326 90.169865 
L 76.187264 90.169865 
L 76.187264 83.571764 
" clip-path="url(#p89efae5c9a)" style="fill: none; stroke: #808080; stroke-width: 0.768718; stroke-linecap: round"/>
   </g>
   <g id="line2d_15">
    <path d="M 82.785714 90.169598 
L 82.785714 85.187359 
" clip-path="url(#p89efae5c9a)" style="fill: none; stroke: #808080; stroke-width: 0.768718; stroke-linecap: round"/>
   </g>
   <g id="line2d_16">
    <path d="M 119.986101 171.089238 
L 350.601644 171.089238 
" clip-path="url(#p89efae5c9a)" style="fill: none; stroke: #808080; stroke-width: 1.921796; stroke-linecap: round"/>
   </g>
   <g id="line2d_17">
    <path d="M 350.601644 171.089238 
L 366.944478 171.089238 
" clip-path="url(#p89efae5c9a)" style="fill: none; stroke: #808080; stroke-width: 1.921796; stroke-linecap: round"/>
   </g>
   <g id="line2d_18">
    <path d="M 366.944478 171.089238 
L 366.944478 277.015013 
" clip-path="url(#p89efae5c9a)" style="fill: none; stroke: #808080; stroke-width: 1.921796; stroke-linecap: round"/>
   </g>
   <g id="line2d_19">
    <path d="M 366.944478 277.015013 
L 329.870457 277.015013 
" clip-path="url(#p89efae5c9a)" style="fill: none; stroke: #808080; stroke-width: 1.921796; stroke-linecap: round"/>
   </g>
   <g id="line2d_20">
    <path d="M 140.717288 277.015013 
L 103.643267 277.015013 
" clip-path="url(#p89efae5c9a)" style="fill: none; stroke: #808080; stroke-width: 1.921796; stroke-linecap: round"/>
   </g>
   <g id="line2d_21">
    <path d="M 103.643267 277.015013 
L 103.643267 171.089238 
" clip-path="url(#p89efae5c9a)" style="fill: none; stroke: #808080; stroke-width: 1.921796; stroke-linecap: round"/>
   </g>
   <g id="line2d_22">
    <path d="M 329.870457 277.015013 
L 140.717288 277.015013 
" clip-path="url(#p89efae5c9a)" style="fill: none; stroke: #808080; stroke-width: 1.921796; stroke-linecap: round"/>
   </g>
   <g id="line2d_23">
    <path d="M 140.717288 277.015013 
L 140.717288 221.93361 
" clip-path="url(#p89efae5c9a)" style="fill: none; stroke: #808080; stroke-width: 1.921796; stroke-linecap: round"/>
   </g>
   <g id="line2d_24">
    <path d="M 140.717288 221.93361 
L 329.870457 221.93361 
" clip-path="url(#p89efae5c9a)" style="fill: none; stroke: #808080; stroke-width: 1.921796; stroke-linecap: round"/>
   </g>
   <g id="line2d_25">
    <path d="M 329.870457 221.93361 
L 329.870457 277.015013 
" clip-path="url(#p89efae5c9a)" style="fill: none; stroke: #808080; stroke-width: 1.921796; stroke-linecap: round"/>
   </g>
   <g id="line2d_26">
    <path d="M 366.944478 171.089238 
L 366.944478 102.994097 
" clip-path="url(#p89efae5c9a)" style="fill: none; stroke: #808080; stroke-width: 1.921796; stroke-linecap: round"/>
   </g>
   <g id="line2d_27">
    <path d="M 366.944478 102.994097 
L 350.601644 102.994097 
" clip-path="url(#p89efae5c9a)" style="fill: none; stroke: #808080; stroke-width: 1.921796; stroke-linecap: round"/>
   </g>
   <g id="line2d_28">
    <path d="M 350.601644 102.994097 
L 350.601644 171.089238 
" clip-path="url(#p89efae5c9a)" style="fill: none; stroke: #808080; stroke-width: 1.921796; stroke-linecap: round"/>
   </g>
   <g id="line2d_29">
    <path d="M 103.643267 171.089238 
L 119.986101 171.089238 
" clip-path="url(#p89efae5c9a)" style="fill: none; stroke: #808080; stroke-width: 1.921796; stroke-linecap: round"/>
   </g>
   <g id="line2d_30">
    <path d="M 119.986101 171.089238 
L 119.986101 102.994097 
" clip-path="url(#p89efae5c9a)" style="fill: none; stroke: #808080; stroke-width: 1.921796; stroke-linecap: round"/>
   </g>
   <g id="line2d_31">
    <path d="M 119.986101 102.994097 
L 103.643267 102.994097 
" clip-path="url(#p89efae5c9a)" style="fill: none; stroke: #808080; stroke-width: 1.921796; stroke-linecap: round"/>
   </g>
   <g id="line2d_32">
    <path d="M 103.643267 102.994097 
L 103.643267 171.089238 
" clip-path="url(#p89efae5c9a)" style="fill: none; stroke: #808080; stroke-width: 1.921796; stroke-linecap: round"/>
   </g>
   <g id="patch_5">
    <path d="M 129.368098 175.780237 
C 129.408229 175.780237 129.446722 175.764292 129.475099 175.735915 
C 129.503476 175.707538 129.51942 175.669045 129.51942 175.628914 
C 129.51942 175.588783 129.503476 175.55029 129.475099 175.521913 
C 129.446722 175.493536 129.408229 175.477592 129.368098 175.477592 
C 129.327966 175.477592 129.289474 175.493536 129.261097 175.521913 
C 129.232719 175.55029 129.216775 175.588783 129.216775 175.628914 
C 129.216775 175.669045 129.232719 175.707538 129.261097 175.735915 
C 129.289474 175.764292 129.327966 175.780237 129.368098 175.780237 
L 129.368098 175.780237 
z
" clip-path="url(#p89efae5c9a)" style="fill: none; stroke: #808080; stroke-width: 1.513225; stroke-linejoin: miter"/>
   </g>
   <g id="line2d_33">
    <path d="M 129.998161 161.845117 
L 134.171978 158.613775 
L 134.171978 158.613775 
L 134.171909 173.425948 
L 134.171909 173.425948 
" clip-path="url(#p89efae5c9a)" style="fill: none; stroke: #808080; stroke-width: 0.768718; stroke-linecap: round"/>
   </g>
   <g id="line2d_34">
    <path d="M 129.99841 173.425638 
L 138.347027 173.425638 
" clip-path="url(#p89efae5c9a)" style="fill: none; stroke: #808080; stroke-width: 0.768718; stroke-linecap: round"/>
   </g>
   <g id="patch_6">
    <path d="M 140.717288 152.930534 
C 144.730408 152.930534 148.579702 151.336104 151.417407 148.498399 
C 154.255112 145.660695 155.849541 141.811401 155.849541 137.79828 
C 155.849541 133.78516 154.255112 129.935866 151.417407 127.098161 
C 148.579702 124.260457 144.730408 122.666027 140.717288 122.666027 
C 136.704167 122.666027 132.854874 124.260457 130.017169 127.098161 
C 127.179464 129.935866 125.585034 133.78516 125.585034 137.79828 
C 125.585034 141.811401 127.179464 145.660695 130.017169 148.498399 
C 132.854874 151.336104 136.704167 152.930534 140.717288 152.930534 
z
" clip-path="url(#p89efae5c9a)" style="fill: #0dab76"/>
   </g>
   <g id="patch_7">
    <path d="M 140.717288 145.364407 
C 142.723848 145.364407 144.648495 144.567192 146.067347 143.14834 
C 147.4862 141.729488 148.283415 139.804841 148.283415 137.79828 
C 148.283415 135.79172 147.4862 133.867073 146.067347 132.448221 
C 144.648495 131.029368 142.723848 130.232154 140.717288 130.232154 
C 138.710728 130.232154 136.786081 131.029368 135.367228 132.448221 
C 133.948376 133.867073 133.151161 135.79172 133.151161 137.79828 
C 133.151161 139.804841 133.948376 141.729488 135.367228 143.14834 
C 136.786081 144.567192 138.710728 145.364407 140.717288 145.364407 
z
" clip-path="url(#p89efae5c9a)" style="fill: #a0a0a0"/>
   </g>
   <g id="patch_8">
    <path d="M 178.547922 152.930534 
C 182.561042 152.930534 186.410336 151.336104 189.248041 148.498399 
C 192.085745 145.660695 193.680175 141.811401 193.680175 137.79828 
C 193.680175 133.78516 192.085745 129.935866 189.248041 127.098161 
C 186.410336 124.260457 182.561042 122.666027 178.547922 122.666027 
C 174.534801 122.666027 170.685507 124.260457 167.847803 127.098161 
C 165.010098 129.935866 163.415668 133.78516 163.415668 137.79828 
C 163.415668 141.811401 165.010098 145.660695 167.847803 148.498399 
C 170.685507 151.336104 174.534801 152.930534 178.547922 152.930534 
z
" clip-path="url(#p89efae5c9a)" style="fill: #0dab76"/>
   </g>
   <g id="patch_9">
    <path d="M 178.547922 145.364407 
C 180.554482 145.364407 182.479129 144.567192 183.897981 143.14834 
C 185.316834 141.729488 186.114048 139.804841 186.114048 137.79828 
C 186.114048 135.79172 185.316834 133.867073 183.897981 132.448221 
C 182.479129 131.029368 180.554482 130.232154 178.547922 130.232154 
C 176.541361 130.232154 174.616714 131.029368 173.197862 132.448221 
C 171.77901 133.867073 170.981795 135.79172 170.981795 137.79828 
C 170.981795 139.804841 171.77901 141.729488 173.197862 143.14834 
C 174.616714 144.567192 176.541361 145.364407 178.547922 145.364407 
z
" clip-path="url(#p89efae5c9a)" style="fill: #a0a0a0"/>
   </g>
   <g id="patch_10">
    <path d="M 216.378555 152.930534 
C 220.391676 152.930534 224.24097 151.336104 227.078675 148.498399 
C 229.916379 145.660695 231.510809 141.811401 231.510809 137.79828 
C 231.510809 133.78516 229.916379 129.935866 227.078675 127.098161 
C 224.24097 124.260457 220.391676 122.666027 216.378555 122.666027 
C 212.365435 122.666027 208.516141 124.260457 205.678436 127.098161 
C 202.840732 129.935866 201.246302 133.78516 201.246302 137.79828 
C 201.246302 141.811401 202.840732 145.660695 205.678436 148.498399 
C 208.516141 151.336104 212.365435 152.930534 216.378555 152.930534 
z
" clip-path="url(#p89efae5c9a)" style="fill: #0dab76"/>
   </g>
   <g id="patch_11">
    <path d="M 216.378555 145.364407 
C 218.385116 145.364407 220.309763 144.567192 221.728615 143.14834 
C 223.147467 141.729488 223.944682 139.804841 223.944682 137.79828 
C 223.944682 135.79172 223.147467 133.867073 221.728615 132.448221 
C 220.309763 131.029368 218.385116 130.232154 216.378555 130.232154 
C 214.371995 130.232154 212.447348 131.029368 211.028496 132.448221 
C 209.609644 133.867073 208.812429 135.79172 208.812429 137.79828 
C 208.812429 139.804841 209.609644 141.729488 211.028496 143.14834 
C 212.447348 144.567192 214.371995 145.364407 216.378555 145.364407 
z
" clip-path="url(#p89efae5c9a)" style="fill: #a0a0a0"/>
   </g>
   <g id="patch_12">
    <path d="M 254.209189 152.930534 
C 258.22231 152.930534 262.071604 151.336104 264.909308 148.498399 
C 267.747013 145.660695 269.341443 141.811401 269.341443 137.79828 
C 269.341443 133.78516 267.747013 129.935866 264.909308 127.098161 
C 262.071604 124.260457 258.22231 122.666027 254.209189 122.666027 
C 250.196069 122.666027 246.346775 124.260457 243.50907 127.098161 
C 240.671365 129.935866 239.076936 133.78516 239.076936 137.79828 
C 239.076936 141.811401 240.671365 145.660695 243.50907 148.498399 
C 246.346775 151.336104 250.196069 152.930534 254.209189 152.930534 
z
" clip-path="url(#p89efae5c9a)" style="fill: #0dab76"/>
   </g>
   <g id="patch_13">
    <path d="M 254.209189 145.364407 
C 256.21575 145.364407 258.140396 144.567192 259.559249 143.14834 
C 260.978101 141.729488 261.775316 139.804841 261.775316 137.79828 
C 261.775316 135.79172 260.978101 133.867073 259.559249 132.448221 
C 258.140396 131.029368 256.21575 130.232154 254.209189 130.232154 
C 252.202629 130.232154 250.277982 131.029368 248.85913 132.448221 
C 247.440277 133.867073 246.643063 135.79172 246.643063 137.79828 
C 246.643063 139.804841 247.440277 141.729488 248.85913 143.14834 
C 250.277982 144.567192 252.202629 145.364407 254.209189 145.364407 
z
" clip-path="url(#p89efae5c9a)" style="fill: #a0a0a0"/>
   </g>
   <g id="patch_14">
    <path d="M 292.039823 152.930534 
C 296.052944 152.930534 299.902237 151.336104 302.739942 148.498399 
C 305.577647 145.660695 307.172077 141.811401 307.172077 137.79828 
C 307.172077 133.78516 305.577647 129.935866 302.739942 127.098161 
C 299.902237 124.260457 296.052944 122.666027 292.039823 122.666027 
C 288.026703 122.666027 284.177409 124.260457 281.339704 127.098161 
C 278.501999 129.935866 276.90757 133.78516 276.90757 137.79828 
C 276.90757 141.811401 278.501999 145.660695 281.339704 148.498399 
C 284.177409 151.336104 288.026703 152.930534 292.039823 152.930534 
z
" clip-path="url(#p89efae5c9a)" style="fill: #0dab76"/>
   </g>
   <g id="patch_15">
    <path d="M 292.039823 145.364407 
C 294.046383 145.364407 295.97103 144.567192 297.389883 143.14834 
C 298.808735 141.729488 299.60595 139.804841 299.60595 137.79828 
C 299.60595 135.79172 298.808735 133.867073 297.389883 132.448221 
C 295.97103 131.029368 294.046383 130.232154 292.039823 130.232154 
C 290.033263 130.232154 288.108616 131.029368 286.689764 132.448221 
C 285.270911 133.867073 284.473696 135.79172 284.473696 137.79828 
C 284.473696 139.804841 285.270911 141.729488 286.689764 143.14834 
C 288.108616 144.567192 290.033263 145.364407 292.039823 145.364407 
z
" clip-path="url(#p89efae5c9a)" style="fill: #a0a0a0"/>
   </g>
   <g id="patch_16">
    <path d="M 329.870457 152.930534 
C 333.883577 152.930534 337.732871 151.336104 340.570576 148.498399 
C 343.408281 145.660695 345.00271 141.811401 345.00271 137.79828 
C 345.00271 133.78516 343.408281 129.935866 340.570576 127.098161 
C 337.732871 124.260457 333.883577 122.666027 329.870457 122.666027 
C 325.857336 122.666027 322.008043 124.260457 319.170338 127.098161 
C 316.332633 129.935866 314.738203 133.78516 314.738203 137.79828 
C 314.738203 141.811401 316.332633 145.660695 319.170338 148.498399 
C 322.008043 151.336104 325.857336 152.930534 329.870457 152.930534 
z
" clip-path="url(#p89efae5c9a)" style="fill: #0dab76"/>
   </g>
   <g id="patch_17">
    <path d="M 329.870457 145.364407 
C 331.877017 145.364407 333.801664 144.567192 335.220516 143.14834 
C 336.639369 141.729488 337.436584 139.804841 337.436584 137.79828 
C 337.436584 135.79172 336.639369 133.867073 335.220516 132.448221 
C 333.801664 131.029368 331.877017 130.232154 329.870457 130.232154 
C 327.863897 130.232154 325.93925 131.029368 324.520397 132.448221 
C 323.101545 133.867073 322.30433 135.79172 322.30433 137.79828 
C 322.30433 139.804841 323.101545 141.729488 324.520397 143.14834 
C 325.93925 144.567192 327.863897 145.364407 329.870457 145.364407 
z
" clip-path="url(#p89efae5c9a)" style="fill: #a0a0a0"/>
   </g>
   <g id="matplotlib.axis_1">
    <g id="xtick_1">
     <g id="line2d_35">
      <defs>
       <path id="mdc85664509" d="M 0 0 
L 0 3.5 
" style="stroke: #ffffff; stroke-width: 0.8"/>
      </defs>
      <g>
       <use xlink:href="#mdc85664509" x="83.971337" y="287.263714" style="fill: #ffffff; stroke: #ffffff; stroke-width: 0.8"/>
      </g>
     </g>
     <g id="text_1">
      <text style="fill: #ffffff; font: 10px 'sans-serif'; text-anchor: middle" x="83.971337" y="301.862152" transform="rotate(-0, 83.971337, 301.862152)">−10</text>
     </g>
    </g>
    <g id="xtick_2">
     <g id="line2d_36">
      <g>
       <use xlink:href="#mdc85664509" x="159.632605" y="287.263714" style="fill: #ffffff; stroke: #ffffff; stroke-width: 0.8"/>
      </g>
     </g>
     <g id="text_2">
      <text style="fill: #ffffff; font: 10px 'sans-serif'; text-anchor: middle" x="159.632605" y="301.862152" transform="rotate(-0, 159.632605, 301.862152)">−5</text>
     </g>
    </g>
    <g id="xtick_3">
     <g id="line2d_37">
      <g>
       <use xlink:href="#mdc85664509" x="235.293872" y="287.263714" style="fill: #ffffff; stroke: #ffffff; stroke-width: 0.8"/>
      </g>
     </g>
     <g id="text_3">
      <text style="fill: #ffffff; font: 10px 'sans-serif'; text-anchor: middle" x="235.293872" y="301.862152" transform="rotate(-0, 235.293872, 301.862152)">0</text>
     </g>
    </g>
    <g id="xtick_4">
     <g id="line2d_38">
      <g>
       <use xlink:href="#mdc85664509" x="310.95514" y="287.263714" style="fill: #ffffff; stroke: #ffffff; stroke-width: 0.8"/>
      </g>
     </g>
     <g id="text_4">
      <text style="fill: #ffffff; font: 10px 'sans-serif'; text-anchor: middle" x="310.95514" y="301.862152" transform="rotate(-0, 310.95514, 301.862152)">5</text>
     </g>
    </g>
    <g id="xtick_5">
     <g id="line2d_39">
      <g>
       <use xlink:href="#mdc85664509" x="386.616408" y="287.263714" style="fill: #ffffff; stroke: #ffffff; stroke-width: 0.8"/>
      </g>
     </g>
     <g id="text_5">
      <text style="fill: #ffffff; font: 10px 'sans-serif'; text-anchor: middle" x="386.616408" y="301.862152" transform="rotate(-0, 386.616408, 301.862152)">10</text>
     </g>
    </g>
   </g>
   <g id="matplotlib.axis_2">
    <g id="ytick_1">
     <g id="line2d_40">
      <defs>
       <path id="m8e63e1c002" d="M 0 0 
L -3.5 0 
" style="stroke: #ffffff; stroke-width: 0.8"/>
      </defs>
      <g>
       <use xlink:href="#m8e63e1c002" x="57.6" y="258.856309" style="fill: #ffffff; stroke: #ffffff; stroke-width: 0.8"/>
      </g>
     </g>
     <g id="text_6">
      <text style="fill: #ffffff; font: 10px 'sans-serif'; text-anchor: end" x="50.6" y="262.655527" transform="rotate(-0, 50.6, 262.655527)">−8</text>
     </g>
    </g>
    <g id="ytick_2">
     <g id="line2d_41">
      <g>
       <use xlink:href="#m8e63e1c002" x="57.6" y="228.591802" style="fill: #ffffff; stroke: #ffffff; stroke-width: 0.8"/>
      </g>
     </g>
     <g id="text_7">
      <text style="fill: #ffffff; font: 10px 'sans-serif'; text-anchor: end" x="50.6" y="232.39102" transform="rotate(-0, 50.6, 232.39102)">−6</text>
     </g>
    </g>
    <g id="ytick_3">
     <g id="line2d_42">
      <g>
       <use xlink:href="#m8e63e1c002" x="57.6" y="198.327294" style="fill: #ffffff; stroke: #ffffff; stroke-width: 0.8"/>
      </g>
     </g>
     <g id="text_8">
      <text style="fill: #ffffff; font: 10px 'sans-serif'; text-anchor: end" x="50.6" y="202.126513" transform="rotate(-0, 50.6, 202.126513)">−4</text>
     </g>
    </g>
    <g id="ytick_4">
     <g id="line2d_43">
      <g>
       <use xlink:href="#m8e63e1c002" x="57.6" y="168.062787" style="fill: #ffffff; stroke: #ffffff; stroke-width: 0.8"/>
      </g>
     </g>
     <g id="text_9">
      <text style="fill: #ffffff; font: 10px 'sans-serif'; text-anchor: end" x="50.6" y="171.862006" transform="rotate(-0, 50.6, 171.862006)">−2</text>
     </g>
    </g>
    <g id="ytick_5">
     <g id="line2d_44">
      <g>
       <use xlink:href="#m8e63e1c002" x="57.6" y="137.79828" style="fill: #ffffff; stroke: #ffffff; stroke-width: 0.8"/>
      </g>
     </g>
     <g id="text_10">
      <text style="fill: #ffffff; font: 10px 'sans-serif'; text-anchor: end" x="50.6" y="141.597499" transform="rotate(-0, 50.6, 141.597499)">0</text>
     </g>
    </g>
    <g id="ytick_6">
     <g id="line2d_45">
      <g>
       <use xlink:href="#m8e63e1c002" x="57.6" y="107.533773" style="fill: #ffffff; stroke: #ffffff; stroke-width: 0.8"/>
      </g>
     </g>
     <g id="text_11">
      <text style="fill: #ffffff; font: 10px 'sans-serif'; text-anchor: end" x="50.6" y="111.332992" transform="rotate(-0, 50.6, 111.332992)">2</text>
     </g>
    </g>
    <g id="ytick_7">
     <g id="line2d_46">
      <g>
       <use xlink:href="#m8e63e1c002" x="57.6" y="77.269266" style="fill: #ffffff; stroke: #ffffff; stroke-width: 0.8"/>
      </g>
     </g>
     <g id="text_12">
      <text style="fill: #ffffff; font: 10px 'sans-serif'; text-anchor: end" x="50.6" y="81.068485" transform="rotate(-0, 50.6, 81.068485)">4</text>
     </g>
    </g>
   </g>
   <g id="patch_18">
    <path d="M 57.6 287.263714 
L 57.6 61.792286 
" style="fill: none; stroke: #ffffff; stroke-width: 0.8; stroke-linejoin: miter; stroke-linecap: square"/>
   </g>
   <g id="patch_19">
    <path d="M 414.72 287.263714 
L 414.72 61.792286 
" style="fill: none; stroke: #ffffff; stroke-width: 0.8; stroke-linejoin: miter; stroke-linecap: square"/>
   </g>
   <g id="patch_20">
    <path d="M 57.6 287.263714 
L 414.72 287.263714 
" style="fill: none; stroke: #ffffff; stroke-width: 0.8; stroke-linejoin: miter; stroke-linecap: square"/>
   </g>
   <g id="patch_21">
    <path d="M 57.6 61.792286 
L 414.72 61.792286 
" style="fill: none; stroke: #ffffff; stroke-width: 0.8; stroke-linejoin: miter; stroke-linecap: square"/>
   </g>
   <g id="text_13">
    <text style="fill: #ffffff; font: 12px 'sans-serif'; text-anchor: middle" x="236.16" y="55.792286" transform="rotate(-0, 236.16, 55.792286)">S6B-XH</text>
   </g>
  </g>
 </g>
 <defs>
  <clipPath id="p89efae5c9a">
   <rect x="57.6" y="61.792286" width="357.12" height="225.471428"/>
  </clipPath>
 </defs>
</svg>
