<?xml version="1.0" encoding="utf-8" standalone="no"?>
<!DOCTYPE svg PUBLIC "-//W3C//DTD SVG 1.1//EN"
  "http://www.w3.org/Graphics/SVG/1.1/DTD/svg11.dtd">
<svg xmlns:xlink="http://www.w3.org/1999/xlink" width="460.8pt" height="345.6pt" viewBox="0 0 460.8 345.6" xmlns="http://www.w3.org/2000/svg" version="1.1">
 <metadata>
  <rdf:RDF xmlns:dc="http://purl.org/dc/elements/1.1/" xmlns:cc="http://creativecommons.org/ns#" xmlns:rdf="http://www.w3.org/1999/02/22-rdf-syntax-ns#">
   <cc:Work>
    <dc:type rdf:resource="http://purl.org/dc/dcmitype/StillImage"/>
    <dc:date>2023-02-18T16:06:06.264042</dc:date>
    <dc:format>image/svg+xml</dc:format>
    <dc:creator>
     <cc:Agent>
      <dc:title>Matplotlib v3.5.1, https://matplotlib.org/</dc:title>
     </cc:Agent>
    </dc:creator>
   </cc:Work>
  </rdf:RDF>
 </metadata>
 <defs>
  <style type="text/css">*{stroke-linejoin: round; stroke-linecap: butt}</style>
 </defs>
 <g id="figure_1">
  <g id="patch_1">
   <path d="M 0 345.6 
L 460.8 345.6 
L 460.8 0 
L 0 0 
z
" style="fill: #2b2b2b"/>
  </g>
  <g id="axes_1">
   <g id="patch_2">
    <path d="M 106.481138 307.584 
L 365.838862 307.584 
L 365.838862 41.472 
L 106.481138 41.472 
z
" style="fill: #2b2b2b"/>
   </g>
   <g id="line2d_1">
    <path d="M 154.54151 53.568 
L 311.07798 53.568 
" clip-path="url(#p56957d2edf)" style="fill: none; stroke: #c90d15; stroke-width: 3.557647; stroke-linecap: round"/>
   </g>
   <g id="line2d_2">
    <path d="M 311.07798 53.568 
L 311.07798 295.488 
" clip-path="url(#p56957d2edf)" style="fill: none; stroke: #c90d15; stroke-width: 3.557647; stroke-linecap: round"/>
   </g>
   <g id="line2d_3">
    <path d="M 311.07798 295.488 
L 154.54151 295.488 
" clip-path="url(#p56957d2edf)" style="fill: none; stroke: #c90d15; stroke-width: 3.557647; stroke-linecap: round"/>
   </g>
   <g id="line2d_4">
    <path d="M 154.54151 295.488 
L 154.54151 53.568 
" clip-path="url(#p56957d2edf)" style="fill: none; stroke: #c90d15; stroke-width: 3.557647; stroke-linecap: round"/>
   </g>
   <g id="patch_3">
    <path d="M 353.769745 245.961071 
C 353.844036 245.961071 353.915295 245.931555 353.967826 245.879023 
C 354.020358 245.826491 354.049875 245.755232 354.049875 245.680941 
C 354.049875 245.60665 354.020358 245.535391 353.967826 245.48286 
C 353.915295 245.430328 353.844036 245.400811 353.769745 245.400811 
C 353.695454 245.400811 353.624195 245.430328 353.571663 245.48286 
C 353.519131 245.535391 353.489615 245.60665 353.489615 245.680941 
C 353.489615 245.755232 353.519131 245.826491 353.571663 245.879023 
C 353.624195 245.931555 353.695454 245.961071 353.769745 245.961071 
L 353.769745 245.961071 
z
" clip-path="url(#p56957d2edf)" style="fill: none; stroke: #808080; stroke-width: 2.801297; stroke-linejoin: miter"/>
   </g>
   <g id="line2d_5">
    <path d="M 333.358384 245.943691 
L 339.539551 231.188627 
L 339.539551 231.188627 
L 345.721055 245.944381 
L 345.721055 245.944381 
" clip-path="url(#p56957d2edf)" style="fill: none; stroke: #808080; stroke-width: 1.138447; stroke-linecap: round"/>
   </g>
   <g id="line2d_6">
    <path d="M 328.571235 228.76811 
L 350.508178 221.389324 
L 350.508178 221.389324 
L 328.57067 214.2108 
L 328.57067 214.2108 
" clip-path="url(#p56957d2edf)" style="fill: none; stroke: #808080; stroke-width: 1.138447; stroke-linecap: round"/>
   </g>
   <g id="line2d_7">
    <path d="M 350.108245 211.691624 
L 328.171302 204.312838 
L 328.171302 204.312838 
L 350.108809 197.134313 
L 350.108809 197.134313 
" clip-path="url(#p56957d2edf)" style="fill: none; stroke: #808080; stroke-width: 1.138447; stroke-linecap: round"/>
   </g>
   <g id="line2d_8">
    <path d="M 344.724885 198.927354 
L 344.724885 209.895446 
" clip-path="url(#p56957d2edf)" style="fill: none; stroke: #808080; stroke-width: 1.138447; stroke-linecap: round"/>
   </g>
   <g id="line2d_9">
    <path d="M 328.571351 192.221934 
L 350.507534 192.221934 
L 350.507534 182.450361 
" clip-path="url(#p56957d2edf)" style="fill: none; stroke: #808080; stroke-width: 1.138447; stroke-linecap: round"/>
   </g>
   <g id="line2d_10">
    <path d="M 328.572278 176.341325 
L 344.326446 176.341325 
L 344.326446 176.341325 
L 346.320644 175.942485 
L 346.320644 175.942485 
L 347.916003 175.144806 
L 349.311942 173.748867 
L 350.309041 172.153508 
L 350.508461 170.15931 
L 350.309041 168.364531 
L 349.311942 166.569753 
L 347.916003 165.173814 
L 346.320644 164.376134 
L 344.326446 164.176714 
L 328.572278 164.176714 
" clip-path="url(#p56957d2edf)" style="fill: none; stroke: #808080; stroke-width: 1.138447; stroke-linecap: round"/>
   </g>
   <g id="line2d_11">
    <path d="M 350.507639 148.296529 
L 350.507639 158.068102 
L 328.571456 158.068102 
L 328.571456 148.296529 
" clip-path="url(#p56957d2edf)" style="fill: none; stroke: #808080; stroke-width: 1.138447; stroke-linecap: round"/>
   </g>
   <g id="line2d_12">
    <path d="M 338.343546 158.067706 
L 338.343546 150.689172 
" clip-path="url(#p56957d2edf)" style="fill: none; stroke: #808080; stroke-width: 1.138447; stroke-linecap: round"/>
   </g>
   <g id="patch_4">
    <path d="M 143.868568 245.961071 
C 143.94286 245.961071 144.014118 245.931555 144.06665 245.879023 
C 144.119182 245.826491 144.148698 245.755232 144.148698 245.680941 
C 144.148698 245.60665 144.119182 245.535391 144.06665 245.48286 
C 144.014118 245.430328 143.94286 245.400811 143.868568 245.400811 
C 143.794277 245.400811 143.723019 245.430328 143.670487 245.48286 
C 143.617955 245.535391 143.588439 245.60665 143.588439 245.680941 
C 143.588439 245.755232 143.617955 245.826491 143.670487 245.879023 
C 143.723019 245.931555 143.794277 245.961071 143.868568 245.961071 
L 143.868568 245.961071 
z
" clip-path="url(#p56957d2edf)" style="fill: none; stroke: #808080; stroke-width: 2.801297; stroke-linejoin: miter"/>
   </g>
   <g id="line2d_13">
    <path d="M 123.457207 245.943691 
L 129.638374 231.188627 
L 129.638374 231.188627 
L 135.819878 245.944381 
L 135.819878 245.944381 
" clip-path="url(#p56957d2edf)" style="fill: none; stroke: #808080; stroke-width: 1.138447; stroke-linecap: round"/>
   </g>
   <g id="line2d_14">
    <path d="M 140.605692 227.570175 
L 118.669509 227.570175 
L 140.605692 215.405564 
L 118.669509 215.405564 
" clip-path="url(#p56957d2edf)" style="fill: none; stroke: #808080; stroke-width: 1.138447; stroke-linecap: round"/>
   </g>
   <g id="line2d_15">
    <path d="M 140.207068 211.691624 
L 118.270125 204.312838 
L 118.270125 204.312838 
L 140.207633 197.134313 
L 140.207633 197.134313 
" clip-path="url(#p56957d2edf)" style="fill: none; stroke: #808080; stroke-width: 1.138447; stroke-linecap: round"/>
   </g>
   <g id="line2d_16">
    <path d="M 134.823708 198.927354 
L 134.823708 209.895446 
" clip-path="url(#p56957d2edf)" style="fill: none; stroke: #808080; stroke-width: 1.138447; stroke-linecap: round"/>
   </g>
   <g id="line2d_17">
    <path d="M 140.606339 194.613477 
L 118.670157 194.613477 
L 130.834767 187.434363 
L 130.834767 187.434363 
L 118.670157 180.055828 
L 118.670157 180.055828 
L 140.606339 180.055828 
" clip-path="url(#p56957d2edf)" style="fill: none; stroke: #808080; stroke-width: 1.138447; stroke-linecap: round"/>
   </g>
   <g id="line2d_18">
    <path d="M 140.606463 165.373235 
L 140.606463 175.144807 
L 118.67028 175.144807 
L 118.67028 165.373235 
" clip-path="url(#p56957d2edf)" style="fill: none; stroke: #808080; stroke-width: 1.138447; stroke-linecap: round"/>
   </g>
   <g id="line2d_19">
    <path d="M 128.44237 175.144412 
L 128.44237 167.765878 
" clip-path="url(#p56957d2edf)" style="fill: none; stroke: #808080; stroke-width: 1.138447; stroke-linecap: round"/>
   </g>
   <g id="line2d_20">
    <path d="M 293.289745 119.740235 
L 172.329745 119.740235 
" clip-path="url(#p56957d2edf)" style="fill: none; stroke: #808080; stroke-width: 4.269176; stroke-linecap: round"/>
   </g>
   <g id="patch_5">
    <path d="M 293.289745 229.31622 
C 294.691387 229.316286 296.079412 229.040243 297.374375 228.503892 
C 298.669338 227.967541 299.846053 227.181313 300.83717 226.190209 
C 301.828287 225.199104 302.61453 224.022399 303.150897 222.727443 
C 303.687265 221.432487 303.963325 220.044466 303.963278 218.642824 
" clip-path="url(#p56957d2edf)" style="fill: none; stroke: #808080; stroke-width: 4.269176; stroke-linejoin: miter"/>
   </g>
   <g id="patch_6">
    <path d="M 172.329745 119.740691 
C 169.500364 119.740823 166.784013 120.866056 164.783352 122.866744 
C 162.78269 124.867431 161.657491 127.583796 161.657395 130.413176 
" clip-path="url(#p56957d2edf)" style="fill: none; stroke: #808080; stroke-width: 4.269176; stroke-linejoin: miter"/>
   </g>
   <g id="patch_7">
    <path d="M 303.962094 130.413176 
C 303.961999 127.583796 302.8368 124.867431 300.836138 122.866744 
C 298.835476 120.866056 296.119126 119.740823 293.289745 119.740691 
" clip-path="url(#p56957d2edf)" style="fill: none; stroke: #808080; stroke-width: 4.269176; stroke-linejoin: miter"/>
   </g>
   <g id="patch_8">
    <path d="M 161.656212 218.642824 
C 161.656165 220.044466 161.932225 221.432487 162.468592 222.727443 
C 163.00496 224.022399 163.791203 225.199104 164.78232 226.190209 
C 165.773437 227.181313 166.950152 227.967541 168.245115 228.503892 
C 169.540078 229.040243 170.928102 229.316286 172.329745 229.31622 
" clip-path="url(#p56957d2edf)" style="fill: none; stroke: #808080; stroke-width: 4.269176; stroke-linejoin: miter"/>
   </g>
   <g id="line2d_21">
    <path d="M 172.329745 229.315765 
L 293.289745 229.315765 
" clip-path="url(#p56957d2edf)" style="fill: none; stroke: #808080; stroke-width: 4.269176; stroke-linecap: round"/>
   </g>
   <g id="line2d_22">
    <path d="M 303.962686 218.642824 
L 303.962686 130.413176 
" clip-path="url(#p56957d2edf)" style="fill: none; stroke: #808080; stroke-width: 4.269176; stroke-linecap: round"/>
   </g>
   <g id="line2d_23">
    <path d="M 161.656804 130.413176 
L 161.656804 218.642824 
" clip-path="url(#p56957d2edf)" style="fill: none; stroke: #808080; stroke-width: 4.269176; stroke-linecap: round"/>
   </g>
   <g id="patch_9">
    <path d="M 161.656804 188.758574 
C 163.525552 188.758584 165.376131 188.39049 167.102632 187.675358 
C 168.829133 186.960226 170.39798 185.911964 171.719389 184.590563 
C 173.040797 183.269162 174.089068 181.70032 174.804209 179.973823 
C 175.51935 178.247325 175.887454 176.396748 175.887454 174.528 
C 175.887454 172.659252 175.51935 170.808675 174.804209 169.082177 
C 174.089068 167.35568 173.040797 165.786838 171.719389 164.465437 
C 170.39798 163.144036 168.829133 162.095774 167.102632 161.380642 
C 165.376131 160.66551 163.525552 160.297416 161.656804 160.297426 
" clip-path="url(#p56957d2edf)" style="fill: none; stroke: #808080; stroke-width: 4.269176; stroke-linejoin: miter"/>
   </g>
   <g id="line2d_24">
    <path d="M 161.656804 219.354353 
L 303.962686 219.354353 
" clip-path="url(#p56957d2edf)" style="fill: none; stroke: #808080; stroke-width: 1.423059; stroke-linecap: round"/>
   </g>
   <g id="patch_10">
    <path d="M 170.195157 289.084235 
L 188.694921 289.084235 
L 188.694921 232.161882 
L 170.195157 232.161882 
z
" clip-path="url(#p56957d2edf)" style="fill: #c90d15"/>
   </g>
   <g id="patch_11">
    <path d="M 170.195157 116.894118 
L 188.694921 116.894118 
L 188.694921 59.971765 
L 170.195157 59.971765 
z
" clip-path="url(#p56957d2edf)" style="fill: #c90d15"/>
   </g>
   <g id="patch_12">
    <path d="M 205.771627 289.084235 
L 224.271392 289.084235 
L 224.271392 232.161882 
L 205.771627 232.161882 
z
" clip-path="url(#p56957d2edf)" style="fill: #c90d15"/>
   </g>
   <g id="patch_13">
    <path d="M 241.348098 289.084235 
L 259.847862 289.084235 
L 259.847862 232.161882 
L 241.348098 232.161882 
z
" clip-path="url(#p56957d2edf)" style="fill: #c90d15"/>
   </g>
   <g id="patch_14">
    <path d="M 205.771627 116.894118 
L 224.271392 116.894118 
L 224.271392 59.971765 
L 205.771627 59.971765 
z
" clip-path="url(#p56957d2edf)" style="fill: #c90d15"/>
   </g>
   <g id="patch_15">
    <path d="M 241.348098 116.894118 
L 259.847862 116.894118 
L 259.847862 59.971765 
L 241.348098 59.971765 
z
" clip-path="url(#p56957d2edf)" style="fill: #c90d15"/>
   </g>
   <g id="patch_16">
    <path d="M 276.924568 289.084235 
L 295.424333 289.084235 
L 295.424333 232.161882 
L 276.924568 232.161882 
z
" clip-path="url(#p56957d2edf)" style="fill: #c90d15"/>
   </g>
   <g id="patch_17">
    <path d="M 276.924568 116.894118 
L 295.424333 116.894118 
L 295.424333 59.971765 
L 276.924568 59.971765 
z
" clip-path="url(#p56957d2edf)" style="fill: #c90d15"/>
   </g>
   <g id="matplotlib.axis_1">
    <g id="xtick_1">
     <g id="line2d_25">
      <defs>
       <path id="mb3ff4de48c" d="M 0 0 
L 0 3.5 
" style="stroke: #ffffff; stroke-width: 0.8"/>
      </defs>
      <g>
       <use xlink:href="#mb3ff4de48c" x="120.757869" y="307.584" style="fill: #ffffff; stroke: #ffffff; stroke-width: 0.8"/>
      </g>
     </g>
     <g id="text_1">
      <text style="fill: #ffffff; font: 10px 'sans-serif'; text-anchor: middle" x="120.757869" y="322.182437" transform="rotate(-0, 120.757869, 322.182437)">−4</text>
     </g>
    </g>
    <g id="xtick_2">
     <g id="line2d_26">
      <g>
       <use xlink:href="#mb3ff4de48c" x="176.783807" y="307.584" style="fill: #ffffff; stroke: #ffffff; stroke-width: 0.8"/>
      </g>
     </g>
     <g id="text_2">
      <text style="fill: #ffffff; font: 10px 'sans-serif'; text-anchor: middle" x="176.783807" y="322.182437" transform="rotate(-0, 176.783807, 322.182437)">−2</text>
     </g>
    </g>
    <g id="xtick_3">
     <g id="line2d_27">
      <g>
       <use xlink:href="#mb3ff4de48c" x="232.809745" y="307.584" style="fill: #ffffff; stroke: #ffffff; stroke-width: 0.8"/>
      </g>
     </g>
     <g id="text_3">
      <text style="fill: #ffffff; font: 10px 'sans-serif'; text-anchor: middle" x="232.809745" y="322.182437" transform="rotate(-0, 232.809745, 322.182437)">0</text>
     </g>
    </g>
    <g id="xtick_4">
     <g id="line2d_28">
      <g>
       <use xlink:href="#mb3ff4de48c" x="288.835683" y="307.584" style="fill: #ffffff; stroke: #ffffff; stroke-width: 0.8"/>
      </g>
     </g>
     <g id="text_4">
      <text style="fill: #ffffff; font: 10px 'sans-serif'; text-anchor: middle" x="288.835683" y="322.182437" transform="rotate(-0, 288.835683, 322.182437)">2</text>
     </g>
    </g>
    <g id="xtick_5">
     <g id="line2d_29">
      <g>
       <use xlink:href="#mb3ff4de48c" x="344.861621" y="307.584" style="fill: #ffffff; stroke: #ffffff; stroke-width: 0.8"/>
      </g>
     </g>
     <g id="text_5">
      <text style="fill: #ffffff; font: 10px 'sans-serif'; text-anchor: middle" x="344.861621" y="322.182437" transform="rotate(-0, 344.861621, 322.182437)">4</text>
     </g>
    </g>
   </g>
   <g id="matplotlib.axis_2">
    <g id="ytick_1">
     <g id="line2d_30">
      <defs>
       <path id="m7b4d02b952" d="M 0 0 
L -3.5 0 
" style="stroke: #ffffff; stroke-width: 0.8"/>
      </defs>
      <g>
       <use xlink:href="#m7b4d02b952" x="106.481138" y="286.579876" style="fill: #ffffff; stroke: #ffffff; stroke-width: 0.8"/>
      </g>
     </g>
     <g id="text_6">
      <text style="fill: #ffffff; font: 10px 'sans-serif'; text-anchor: end" x="99.481138" y="290.379095" transform="rotate(-0, 99.481138, 290.379095)">−4</text>
     </g>
    </g>
    <g id="ytick_2">
     <g id="line2d_31">
      <g>
       <use xlink:href="#m7b4d02b952" x="106.481138" y="230.553938" style="fill: #ffffff; stroke: #ffffff; stroke-width: 0.8"/>
      </g>
     </g>
     <g id="text_7">
      <text style="fill: #ffffff; font: 10px 'sans-serif'; text-anchor: end" x="99.481138" y="234.353157" transform="rotate(-0, 99.481138, 234.353157)">−2</text>
     </g>
    </g>
    <g id="ytick_3">
     <g id="line2d_32">
      <g>
       <use xlink:href="#m7b4d02b952" x="106.481138" y="174.528" style="fill: #ffffff; stroke: #ffffff; stroke-width: 0.8"/>
      </g>
     </g>
     <g id="text_8">
      <text style="fill: #ffffff; font: 10px 'sans-serif'; text-anchor: end" x="99.481138" y="178.327219" transform="rotate(-0, 99.481138, 178.327219)">0</text>
     </g>
    </g>
    <g id="ytick_4">
     <g id="line2d_33">
      <g>
       <use xlink:href="#m7b4d02b952" x="106.481138" y="118.502062" style="fill: #ffffff; stroke: #ffffff; stroke-width: 0.8"/>
      </g>
     </g>
     <g id="text_9">
      <text style="fill: #ffffff; font: 10px 'sans-serif'; text-anchor: end" x="99.481138" y="122.301281" transform="rotate(-0, 99.481138, 122.301281)">2</text>
     </g>
    </g>
    <g id="ytick_5">
     <g id="line2d_34">
      <g>
       <use xlink:href="#m7b4d02b952" x="106.481138" y="62.476124" style="fill: #ffffff; stroke: #ffffff; stroke-width: 0.8"/>
      </g>
     </g>
     <g id="text_10">
      <text style="fill: #ffffff; font: 10px 'sans-serif'; text-anchor: end" x="99.481138" y="66.275343" transform="rotate(-0, 99.481138, 66.275343)">4</text>
     </g>
    </g>
   </g>
   <g id="patch_18">
    <path d="M 106.481138 307.584 
L 106.481138 41.472 
" style="fill: none; stroke: #ffffff; stroke-width: 0.8; stroke-linejoin: miter; stroke-linecap: square"/>
   </g>
   <g id="patch_19">
    <path d="M 365.838862 307.584 
L 365.838862 41.472 
" style="fill: none; stroke: #ffffff; stroke-width: 0.8; stroke-linejoin: miter; stroke-linecap: square"/>
   </g>
   <g id="patch_20">
    <path d="M 106.481138 307.584 
L 365.838862 307.584 
" style="fill: none; stroke: #ffffff; stroke-width: 0.8; stroke-linejoin: miter; stroke-linecap: square"/>
   </g>
   <g id="patch_21">
    <path d="M 106.481138 41.472 
L 365.838862 41.472 
" style="fill: none; stroke: #ffffff; stroke-width: 0.8; stroke-linejoin: miter; stroke-linecap: square"/>
   </g>
   <g id="text_11">
    <text style="fill: #ffffff; font: 12px 'sans-serif'; text-anchor: middle" x="236.16" y="35.472" transform="rotate(-0, 236.16, 35.472)">SOIC-8</text>
   </g>
  </g>
 </g>
 <defs>
  <clipPath id="p56957d2edf">
   <rect x="106.481138" y="41.472" width="259.357724" height="266.112"/>
  </clipPath>
 </defs>
</svg>
