<?xml version="1.0" encoding="utf-8" standalone="no"?>
<!DOCTYPE svg PUBLIC "-//W3C//DTD SVG 1.1//EN"
  "http://www.w3.org/Graphics/SVG/1.1/DTD/svg11.dtd">
<svg xmlns:xlink="http://www.w3.org/1999/xlink" width="460.8pt" height="345.6pt" viewBox="0 0 460.8 345.6" xmlns="http://www.w3.org/2000/svg" version="1.1">
 <metadata>
  <rdf:RDF xmlns:dc="http://purl.org/dc/elements/1.1/" xmlns:cc="http://creativecommons.org/ns#" xmlns:rdf="http://www.w3.org/1999/02/22-rdf-syntax-ns#">
   <cc:Work>
    <dc:type rdf:resource="http://purl.org/dc/dcmitype/StillImage"/>
    <dc:date>2021-12-22T04:54:07.950255</dc:date>
    <dc:format>image/svg+xml</dc:format>
    <dc:creator>
     <cc:Agent>
      <dc:title>Matplotlib v3.5.1, https://matplotlib.org/</dc:title>
     </cc:Agent>
    </dc:creator>
   </cc:Work>
  </rdf:RDF>
 </metadata>
 <defs>
  <style type="text/css">*{stroke-linejoin: round; stroke-linecap: butt}</style>
 </defs>
 <g id="figure_1">
  <g id="patch_1">
   <path d="M 0 345.6 
L 460.8 345.6 
L 460.8 0 
L 0 0 
z
" style="fill: #2b2b2b"/>
  </g>
  <g id="axes_1">
   <g id="patch_2">
    <path d="M 151.465403 307.584 
L 320.854597 307.584 
L 320.854597 41.472 
L 151.465403 41.472 
z
" style="fill: #2b2b2b"/>
   </g>
   <g id="line2d_1">
    <path d="M 159.164912 55.535591 
L 313.155088 55.535591 
" clip-path="url(#paa8dbd7cee)" style="fill: none; stroke: #c90d15; stroke-width: 3.499777; stroke-linecap: square"/>
   </g>
   <g id="line2d_2">
    <path d="M 313.155088 55.535591 
L 313.155088 293.520409 
" clip-path="url(#paa8dbd7cee)" style="fill: none; stroke: #c90d15; stroke-width: 3.499777; stroke-linecap: square"/>
   </g>
   <g id="line2d_3">
    <path d="M 313.155088 293.520409 
L 159.164912 293.520409 
" clip-path="url(#paa8dbd7cee)" style="fill: none; stroke: #c90d15; stroke-width: 3.499777; stroke-linecap: square"/>
   </g>
   <g id="line2d_4">
    <path d="M 159.164912 293.520409 
L 159.164912 55.535591 
" clip-path="url(#paa8dbd7cee)" style="fill: none; stroke: #c90d15; stroke-width: 3.499777; stroke-linecap: square"/>
   </g>
   <g id="text_1">
    <text style="fill: #ffffff; font: 1.016px 'sans-serif'; text-anchor: start" x="355.152409" y="244.523535" transform="rotate(-0, 355.152409, 244.523535)">&gt;VALUE</text>
   </g>
   <g id="text_2">
    <text style="fill: #ffffff; font: 1.016px 'sans-serif'; text-anchor: start" x="148.665582" y="244.523535" transform="rotate(-0, 148.665582, 244.523535)">&gt;NAME</text>
   </g>
   <g id="line2d_5">
    <path d="M 295.656204 120.631438 
L 176.663796 120.631438 
" clip-path="url(#paa8dbd7cee)" style="fill: none; stroke: #808080; stroke-width: 4.199732; stroke-linecap: square"/>
   </g>
   <g id="line2d_6">
    <path d="M 295.656204 228.424562 
L 306.155535 217.925232 
" clip-path="url(#paa8dbd7cee)" style="fill: none; stroke: #808080; stroke-width: 4.199732; stroke-linecap: square"/>
   </g>
   <g id="line2d_7">
    <path d="M 166.164465 131.130768 
L 176.663796 120.631438 
" clip-path="url(#paa8dbd7cee)" style="fill: none; stroke: #808080; stroke-width: 4.199732; stroke-linecap: square"/>
   </g>
   <g id="line2d_8">
    <path d="M 295.656204 120.631438 
L 306.155535 131.130768 
" clip-path="url(#paa8dbd7cee)" style="fill: none; stroke: #808080; stroke-width: 4.199732; stroke-linecap: square"/>
   </g>
   <g id="line2d_9">
    <path d="M 166.164465 217.925232 
L 176.663796 228.424562 
" clip-path="url(#paa8dbd7cee)" style="fill: none; stroke: #808080; stroke-width: 4.199732; stroke-linecap: square"/>
   </g>
   <g id="line2d_10">
    <path d="M 176.663796 228.424562 
L 295.656204 228.424562 
" clip-path="url(#paa8dbd7cee)" style="fill: none; stroke: #808080; stroke-width: 4.199732; stroke-linecap: square"/>
   </g>
   <g id="line2d_11">
    <path d="M 306.155535 217.925232 
L 306.155535 131.130768 
" clip-path="url(#paa8dbd7cee)" style="fill: none; stroke: #808080; stroke-width: 4.199732; stroke-linecap: square"/>
   </g>
   <g id="line2d_12">
    <path d="M 166.164465 131.130768 
L 166.164465 217.925232 
" clip-path="url(#paa8dbd7cee)" style="fill: none; stroke: #808080; stroke-width: 4.199732; stroke-linecap: square"/>
   </g>
   <g id="line2d_13">
    <path d="M 166.164465 160.528893 
L 166.164465 188.527107 
" clip-path="url(#paa8dbd7cee)" style="fill: none; stroke: #808080; stroke-width: 4.199732; stroke-linecap: square"/>
   </g>
   <g id="line2d_14">
    <path d="M 166.164465 218.625187 
L 306.155535 218.625187 
" clip-path="url(#paa8dbd7cee)" style="fill: none; stroke: #808080; stroke-width: 1.399911; stroke-linecap: square"/>
   </g>
   <g id="patch_3">
    <path d="M 174.563929 295.488 
L 192.762768 295.488 
Q 201.029958 295.488 201.029958 287.220811 
L 201.029958 231.224383 
Q 201.029958 222.957194 192.762768 222.957194 
L 174.563929 222.957194 
Q 166.29674 222.957194 166.29674 231.224383 
L 166.29674 287.220811 
Q 166.29674 295.488 174.563929 295.488 
z
" clip-path="url(#paa8dbd7cee)" style="fill: #c90d15; stroke: #ffffff; stroke-linejoin: miter"/>
   </g>
   <g id="patch_4">
    <path d="M 174.563929 126.098806 
L 192.762768 126.098806 
Q 201.029958 126.098806 201.029958 117.831617 
L 201.029958 61.835189 
Q 201.029958 53.568 192.762768 53.568 
L 174.563929 53.568 
Q 166.29674 53.568 166.29674 61.835189 
L 166.29674 117.831617 
Q 166.29674 126.098806 174.563929 126.098806 
z
" clip-path="url(#paa8dbd7cee)" style="fill: #c90d15; stroke: #ffffff; stroke-linejoin: miter"/>
   </g>
   <g id="patch_5">
    <path d="M 209.561697 295.488 
L 227.760536 295.488 
Q 236.027725 295.488 236.027725 287.220811 
L 236.027725 231.224383 
Q 236.027725 222.957194 227.760536 222.957194 
L 209.561697 222.957194 
Q 201.294508 222.957194 201.294508 231.224383 
L 201.294508 287.220811 
Q 201.294508 295.488 209.561697 295.488 
z
" clip-path="url(#paa8dbd7cee)" style="fill: #c90d15; stroke: #ffffff; stroke-linejoin: miter"/>
   </g>
   <g id="patch_6">
    <path d="M 244.559464 295.488 
L 262.758303 295.488 
Q 271.025492 295.488 271.025492 287.220811 
L 271.025492 231.224383 
Q 271.025492 222.957194 262.758303 222.957194 
L 244.559464 222.957194 
Q 236.292275 222.957194 236.292275 231.224383 
L 236.292275 287.220811 
Q 236.292275 295.488 244.559464 295.488 
z
" clip-path="url(#paa8dbd7cee)" style="fill: #c90d15; stroke: #ffffff; stroke-linejoin: miter"/>
   </g>
   <g id="patch_7">
    <path d="M 209.561697 126.098806 
L 227.760536 126.098806 
Q 236.027725 126.098806 236.027725 117.831617 
L 236.027725 61.835189 
Q 236.027725 53.568 227.760536 53.568 
L 209.561697 53.568 
Q 201.294508 53.568 201.294508 61.835189 
L 201.294508 117.831617 
Q 201.294508 126.098806 209.561697 126.098806 
z
" clip-path="url(#paa8dbd7cee)" style="fill: #c90d15; stroke: #ffffff; stroke-linejoin: miter"/>
   </g>
   <g id="patch_8">
    <path d="M 244.559464 126.098806 
L 262.758303 126.098806 
Q 271.025492 126.098806 271.025492 117.831617 
L 271.025492 61.835189 
Q 271.025492 53.568 262.758303 53.568 
L 244.559464 53.568 
Q 236.292275 53.568 236.292275 61.835189 
L 236.292275 117.831617 
Q 236.292275 126.098806 244.559464 126.098806 
z
" clip-path="url(#paa8dbd7cee)" style="fill: #c90d15; stroke: #ffffff; stroke-linejoin: miter"/>
   </g>
   <g id="patch_9">
    <path d="M 279.557232 295.488 
L 297.756071 295.488 
Q 306.02326 295.488 306.02326 287.220811 
L 306.02326 231.224383 
Q 306.02326 222.957194 297.756071 222.957194 
L 279.557232 222.957194 
Q 271.290042 222.957194 271.290042 231.224383 
L 271.290042 287.220811 
Q 271.290042 295.488 279.557232 295.488 
z
" clip-path="url(#paa8dbd7cee)" style="fill: #c90d15; stroke: #ffffff; stroke-linejoin: miter"/>
   </g>
   <g id="patch_10">
    <path d="M 279.557232 126.098806 
L 297.756071 126.098806 
Q 306.02326 126.098806 306.02326 117.831617 
L 306.02326 61.835189 
Q 306.02326 53.568 297.756071 53.568 
L 279.557232 53.568 
Q 271.290042 53.568 271.290042 61.835189 
L 271.290042 117.831617 
Q 271.290042 126.098806 279.557232 126.098806 
z
" clip-path="url(#paa8dbd7cee)" style="fill: #c90d15; stroke: #ffffff; stroke-linejoin: miter"/>
   </g>
   <g id="matplotlib.axis_1">
    <g id="xtick_1">
     <g id="line2d_15">
      <defs>
       <path id="m375be09f43" d="M 0 0 
L 0 3.5 
" style="stroke: #ffffff; stroke-width: 0.8"/>
      </defs>
      <g>
       <use xlink:href="#m375be09f43" x="181.045406" y="307.584" style="fill: #ffffff; stroke: #ffffff; stroke-width: 0.8"/>
      </g>
     </g>
     <g id="text_3">
      <text style="fill: #ffffff; font: 10px 'sans-serif'; text-anchor: middle" x="181.045406" y="322.182437" transform="rotate(-0, 181.045406, 322.182437)">−2</text>
     </g>
    </g>
    <g id="xtick_2">
     <g id="line2d_16">
      <g>
       <use xlink:href="#m375be09f43" x="236.16" y="307.584" style="fill: #ffffff; stroke: #ffffff; stroke-width: 0.8"/>
      </g>
     </g>
     <g id="text_4">
      <text style="fill: #ffffff; font: 10px 'sans-serif'; text-anchor: middle" x="236.16" y="322.182437" transform="rotate(-0, 236.16, 322.182437)">0</text>
     </g>
    </g>
    <g id="xtick_3">
     <g id="line2d_17">
      <g>
       <use xlink:href="#m375be09f43" x="291.274594" y="307.584" style="fill: #ffffff; stroke: #ffffff; stroke-width: 0.8"/>
      </g>
     </g>
     <g id="text_5">
      <text style="fill: #ffffff; font: 10px 'sans-serif'; text-anchor: middle" x="291.274594" y="322.182437" transform="rotate(-0, 291.274594, 322.182437)">2</text>
     </g>
    </g>
   </g>
   <g id="matplotlib.axis_2">
    <g id="ytick_1">
     <g id="line2d_18">
      <defs>
       <path id="m325759048a" d="M 0 0 
L -3.5 0 
" style="stroke: #ffffff; stroke-width: 0.8"/>
      </defs>
      <g>
       <use xlink:href="#m325759048a" x="151.465403" y="284.757188" style="fill: #ffffff; stroke: #ffffff; stroke-width: 0.8"/>
      </g>
     </g>
     <g id="text_6">
      <text style="fill: #ffffff; font: 10px 'sans-serif'; text-anchor: end" x="144.465403" y="288.556407" transform="rotate(-0, 144.465403, 288.556407)">−4</text>
     </g>
    </g>
    <g id="ytick_2">
     <g id="line2d_19">
      <g>
       <use xlink:href="#m325759048a" x="151.465403" y="229.642594" style="fill: #ffffff; stroke: #ffffff; stroke-width: 0.8"/>
      </g>
     </g>
     <g id="text_7">
      <text style="fill: #ffffff; font: 10px 'sans-serif'; text-anchor: end" x="144.465403" y="233.441813" transform="rotate(-0, 144.465403, 233.441813)">−2</text>
     </g>
    </g>
    <g id="ytick_3">
     <g id="line2d_20">
      <g>
       <use xlink:href="#m325759048a" x="151.465403" y="174.528" style="fill: #ffffff; stroke: #ffffff; stroke-width: 0.8"/>
      </g>
     </g>
     <g id="text_8">
      <text style="fill: #ffffff; font: 10px 'sans-serif'; text-anchor: end" x="144.465403" y="178.327219" transform="rotate(-0, 144.465403, 178.327219)">0</text>
     </g>
    </g>
    <g id="ytick_4">
     <g id="line2d_21">
      <g>
       <use xlink:href="#m325759048a" x="151.465403" y="119.413406" style="fill: #ffffff; stroke: #ffffff; stroke-width: 0.8"/>
      </g>
     </g>
     <g id="text_9">
      <text style="fill: #ffffff; font: 10px 'sans-serif'; text-anchor: end" x="144.465403" y="123.212625" transform="rotate(-0, 144.465403, 123.212625)">2</text>
     </g>
    </g>
    <g id="ytick_5">
     <g id="line2d_22">
      <g>
       <use xlink:href="#m325759048a" x="151.465403" y="64.298812" style="fill: #ffffff; stroke: #ffffff; stroke-width: 0.8"/>
      </g>
     </g>
     <g id="text_10">
      <text style="fill: #ffffff; font: 10px 'sans-serif'; text-anchor: end" x="144.465403" y="68.09803" transform="rotate(-0, 144.465403, 68.09803)">4</text>
     </g>
    </g>
   </g>
   <g id="patch_11">
    <path d="M 151.465403 307.584 
L 151.465403 41.472 
" style="fill: none; stroke: #ffffff; stroke-width: 0.8; stroke-linejoin: miter; stroke-linecap: square"/>
   </g>
   <g id="patch_12">
    <path d="M 320.854597 307.584 
L 320.854597 41.472 
" style="fill: none; stroke: #ffffff; stroke-width: 0.8; stroke-linejoin: miter; stroke-linecap: square"/>
   </g>
   <g id="patch_13">
    <path d="M 151.465403 307.584 
L 320.854597 307.584 
" style="fill: none; stroke: #ffffff; stroke-width: 0.8; stroke-linejoin: miter; stroke-linecap: square"/>
   </g>
   <g id="patch_14">
    <path d="M 151.465403 41.472 
L 320.854597 41.472 
" style="fill: none; stroke: #ffffff; stroke-width: 0.8; stroke-linejoin: miter; stroke-linecap: square"/>
   </g>
   <g id="text_11">
    <text style="fill: #ffffff; font: 12px 'sans-serif'; text-anchor: middle" x="236.16" y="35.472" transform="rotate(-0, 236.16, 35.472)">SOIC-8</text>
   </g>
  </g>
 </g>
 <defs>
  <clipPath id="paa8dbd7cee">
   <rect x="151.465403" y="41.472" width="169.389194" height="266.112"/>
  </clipPath>
 </defs>
</svg>
