<?xml version="1.0" encoding="utf-8" standalone="no"?>
<!DOCTYPE svg PUBLIC "-//W3C//DTD SVG 1.1//EN"
  "http://www.w3.org/Graphics/SVG/1.1/DTD/svg11.dtd">
<svg xmlns:xlink="http://www.w3.org/1999/xlink" width="460.8pt" height="345.6pt" viewBox="0 0 460.8 345.6" xmlns="http://www.w3.org/2000/svg" version="1.1">
 <metadata>
  <rdf:RDF xmlns:dc="http://purl.org/dc/elements/1.1/" xmlns:cc="http://creativecommons.org/ns#" xmlns:rdf="http://www.w3.org/1999/02/22-rdf-syntax-ns#">
   <cc:Work>
    <dc:type rdf:resource="http://purl.org/dc/dcmitype/StillImage"/>
    <dc:date>2021-12-22T04:54:06.210002</dc:date>
    <dc:format>image/svg+xml</dc:format>
    <dc:creator>
     <cc:Agent>
      <dc:title>Matplotlib v3.5.1, https://matplotlib.org/</dc:title>
     </cc:Agent>
    </dc:creator>
   </cc:Work>
  </rdf:RDF>
 </metadata>
 <defs>
  <style type="text/css">*{stroke-linejoin: round; stroke-linecap: butt}</style>
 </defs>
 <g id="figure_1">
  <g id="patch_1">
   <path d="M 0 345.6 
L 460.8 345.6 
L 460.8 0 
L 0 0 
z
" style="fill: #2b2b2b"/>
  </g>
  <g id="axes_1">
   <g id="patch_2">
    <path d="M 103.104 307.584 
L 369.216 307.584 
L 369.216 41.472 
L 103.104 41.472 
z
" style="fill: #2b2b2b"/>
   </g>
   <g id="text_1">
    <text style="fill: #ffffff; font: 1.27px 'sans-serif'; text-anchor: start" x="325.7712" y="148.9248" transform="rotate(-0, 325.7712, 148.9248)">3V3</text>
   </g>
   <g id="text_2">
    <text style="fill: #ffffff; font: 1.27px 'sans-serif'; text-anchor: start" x="325.7712" y="174.528" transform="rotate(-0, 325.7712, 174.528)">G22</text>
   </g>
   <g id="text_3">
    <text style="fill: #ffffff; font: 1.27px 'sans-serif'; text-anchor: start" x="325.7712" y="200.1312" transform="rotate(-0, 325.7712, 200.1312)">G19</text>
   </g>
   <g id="text_4">
    <text style="fill: #ffffff; font: 1.27px 'sans-serif'; text-anchor: start" x="325.7712" y="225.7344" transform="rotate(-0, 325.7712, 225.7344)">G23</text>
   </g>
   <g id="text_5">
    <text style="fill: #ffffff; font: 1.27px 'sans-serif'; text-anchor: start" x="325.7712" y="251.3376" transform="rotate(-0, 325.7712, 251.3376)">G33</text>
   </g>
   <g id="text_6">
    <text style="fill: #ffffff; font: 1.27px 'sans-serif'; text-anchor: start" x="146.5488" y="174.528" transform="rotate(-0, 146.5488, 174.528)">G21</text>
   </g>
   <g id="text_7">
    <text style="fill: #ffffff; font: 1.27px 'sans-serif'; text-anchor: start" x="146.5488" y="200.1312" transform="rotate(-0, 146.5488, 200.1312)">G25</text>
   </g>
   <g id="text_8">
    <text style="fill: #ffffff; font: 1.27px 'sans-serif'; text-anchor: start" x="146.5488" y="225.7344" transform="rotate(-0, 146.5488, 225.7344)">5V</text>
   </g>
   <g id="text_9">
    <text style="fill: #ffffff; font: 1.27px 'sans-serif'; text-anchor: start" x="146.5488" y="251.3376" transform="rotate(-0, 146.5488, 251.3376)">GND</text>
   </g>
   <g id="text_10">
    <text style="fill: #ffffff; font: 1.27px 'sans-serif'; text-anchor: start" x="236.16" y="305.568" transform="rotate(-0, 236.16, 305.568)">&gt;VALUE</text>
   </g>
   <g id="text_11">
    <text style="fill: #ffffff; font: 1.27px 'sans-serif'; text-anchor: start" x="236.16" y="43.488" transform="rotate(-0, 236.16, 43.488)">&gt;NAME</text>
   </g>
   <g id="line2d_1">
    <path d="M 145.44 53.568 
L 115.2 83.808 
" clip-path="url(#p8b8da1507b)" style="fill: none; stroke: #808080; stroke-width: 1.28016; stroke-linecap: square"/>
   </g>
   <g id="line2d_2">
    <path d="M 115.2 83.808 
L 115.2 265.248 
" clip-path="url(#p8b8da1507b)" style="fill: none; stroke: #808080; stroke-width: 1.28016; stroke-linecap: square"/>
   </g>
   <g id="line2d_3">
    <path d="M 115.2 265.248 
L 145.44 295.488 
" clip-path="url(#p8b8da1507b)" style="fill: none; stroke: #808080; stroke-width: 1.28016; stroke-linecap: square"/>
   </g>
   <g id="line2d_4">
    <path d="M 145.44 295.488 
L 326.88 295.488 
" clip-path="url(#p8b8da1507b)" style="fill: none; stroke: #808080; stroke-width: 1.28016; stroke-linecap: square"/>
   </g>
   <g id="line2d_5">
    <path d="M 326.88 295.488 
L 357.12 265.248 
" clip-path="url(#p8b8da1507b)" style="fill: none; stroke: #808080; stroke-width: 1.28016; stroke-linecap: square"/>
   </g>
   <g id="line2d_6">
    <path d="M 357.12 265.248 
L 357.12 83.808 
" clip-path="url(#p8b8da1507b)" style="fill: none; stroke: #808080; stroke-width: 1.28016; stroke-linecap: square"/>
   </g>
   <g id="line2d_7">
    <path d="M 357.12 83.808 
L 326.88 53.568 
" clip-path="url(#p8b8da1507b)" style="fill: none; stroke: #808080; stroke-width: 1.28016; stroke-linecap: square"/>
   </g>
   <g id="line2d_8">
    <path d="M 326.88 53.568 
L 145.44 53.568 
" clip-path="url(#p8b8da1507b)" style="fill: none; stroke: #808080; stroke-width: 1.28016; stroke-linecap: square"/>
   </g>
   <g id="line2d_9">
    <path d="M 185.76 285.408 
L 185.76 275.328 
" clip-path="url(#p8b8da1507b)" style="fill: none; stroke: #808080; stroke-width: 1.28016; stroke-linecap: square"/>
   </g>
   <g id="line2d_10">
    <path d="M 185.76 275.328 
L 195.84 265.248 
" clip-path="url(#p8b8da1507b)" style="fill: none; stroke: #808080; stroke-width: 1.28016; stroke-linecap: square"/>
   </g>
   <g id="line2d_11">
    <path d="M 195.84 265.248 
L 276.48 265.248 
" clip-path="url(#p8b8da1507b)" style="fill: none; stroke: #808080; stroke-width: 1.28016; stroke-linecap: square"/>
   </g>
   <g id="line2d_12">
    <path d="M 276.48 265.248 
L 286.56 275.328 
" clip-path="url(#p8b8da1507b)" style="fill: none; stroke: #808080; stroke-width: 1.28016; stroke-linecap: square"/>
   </g>
   <g id="line2d_13">
    <path d="M 286.56 275.328 
L 286.56 285.408 
" clip-path="url(#p8b8da1507b)" style="fill: none; stroke: #808080; stroke-width: 1.28016; stroke-linecap: square"/>
   </g>
   <g id="patch_3">
    <path d="M 159.3504 182.592 
C 161.488998 182.592 163.540292 181.742326 165.052509 180.230109 
C 166.564726 178.717892 167.4144 176.666598 167.4144 174.528 
C 167.4144 172.389402 166.564726 170.338108 165.052509 168.825891 
C 163.540292 167.313674 161.488998 166.464 159.3504 166.464 
C 157.211802 166.464 155.160508 167.313674 153.648291 168.825891 
C 152.136074 170.338108 151.2864 172.389402 151.2864 174.528 
C 151.2864 176.666598 152.136074 178.717892 153.648291 180.230109 
C 155.160508 181.742326 157.211802 182.592 159.3504 182.592 
z
" clip-path="url(#p8b8da1507b)" style="fill: #0dab76"/>
   </g>
   <g id="patch_4">
    <path d="M 159.3504 178.56 
C 160.419699 178.56 161.445346 178.135163 162.201455 177.379055 
C 162.957563 176.622946 163.3824 175.597299 163.3824 174.528 
C 163.3824 173.458701 162.957563 172.433054 162.201455 171.676945 
C 161.445346 170.920837 160.419699 170.496 159.3504 170.496 
C 158.281101 170.496 157.255454 170.920837 156.499345 171.676945 
C 155.743237 172.433054 155.3184 173.458701 155.3184 174.528 
C 155.3184 175.597299 155.743237 176.622946 156.499345 177.379055 
C 157.255454 178.135163 158.281101 178.56 159.3504 178.56 
z
" clip-path="url(#p8b8da1507b)" style="fill: #a0a0a0"/>
   </g>
   <g id="patch_5">
    <path d="M 312.9696 182.592 
C 315.108198 182.592 317.159492 181.742326 318.671709 180.230109 
C 320.183926 178.717892 321.0336 176.666598 321.0336 174.528 
C 321.0336 172.389402 320.183926 170.338108 318.671709 168.825891 
C 317.159492 167.313674 315.108198 166.464 312.9696 166.464 
C 310.831002 166.464 308.779708 167.313674 307.267491 168.825891 
C 305.755274 170.338108 304.9056 172.389402 304.9056 174.528 
C 304.9056 176.666598 305.755274 178.717892 307.267491 180.230109 
C 308.779708 181.742326 310.831002 182.592 312.9696 182.592 
z
" clip-path="url(#p8b8da1507b)" style="fill: #0dab76"/>
   </g>
   <g id="patch_6">
    <path d="M 312.9696 178.56 
C 314.038899 178.56 315.064546 178.135163 315.820655 177.379055 
C 316.576763 176.622946 317.0016 175.597299 317.0016 174.528 
C 317.0016 173.458701 316.576763 172.433054 315.820655 171.676945 
C 315.064546 170.920837 314.038899 170.496 312.9696 170.496 
C 311.900301 170.496 310.874654 170.920837 310.118545 171.676945 
C 309.362437 172.433054 308.9376 173.458701 308.9376 174.528 
C 308.9376 175.597299 309.362437 176.622946 310.118545 177.379055 
C 310.874654 178.135163 311.900301 178.56 312.9696 178.56 
z
" clip-path="url(#p8b8da1507b)" style="fill: #a0a0a0"/>
   </g>
   <g id="patch_7">
    <path d="M 159.3504 208.1952 
C 161.488998 208.1952 163.540292 207.345526 165.052509 205.833309 
C 166.564726 204.321092 167.4144 202.269798 167.4144 200.1312 
C 167.4144 197.992602 166.564726 195.941308 165.052509 194.429091 
C 163.540292 192.916874 161.488998 192.0672 159.3504 192.0672 
C 157.211802 192.0672 155.160508 192.916874 153.648291 194.429091 
C 152.136074 195.941308 151.2864 197.992602 151.2864 200.1312 
C 151.2864 202.269798 152.136074 204.321092 153.648291 205.833309 
C 155.160508 207.345526 157.211802 208.1952 159.3504 208.1952 
z
" clip-path="url(#p8b8da1507b)" style="fill: #0dab76"/>
   </g>
   <g id="patch_8">
    <path d="M 159.3504 204.1632 
C 160.419699 204.1632 161.445346 203.738363 162.201455 202.982255 
C 162.957563 202.226146 163.3824 201.200499 163.3824 200.1312 
C 163.3824 199.061901 162.957563 198.036254 162.201455 197.280145 
C 161.445346 196.524037 160.419699 196.0992 159.3504 196.0992 
C 158.281101 196.0992 157.255454 196.524037 156.499345 197.280145 
C 155.743237 198.036254 155.3184 199.061901 155.3184 200.1312 
C 155.3184 201.200499 155.743237 202.226146 156.499345 202.982255 
C 157.255454 203.738363 158.281101 204.1632 159.3504 204.1632 
z
" clip-path="url(#p8b8da1507b)" style="fill: #a0a0a0"/>
   </g>
   <g id="patch_9">
    <path d="M 159.3504 233.7984 
C 161.488998 233.7984 163.540292 232.948726 165.052509 231.436509 
C 166.564726 229.924292 167.4144 227.872998 167.4144 225.7344 
C 167.4144 223.595802 166.564726 221.544508 165.052509 220.032291 
C 163.540292 218.520074 161.488998 217.6704 159.3504 217.6704 
C 157.211802 217.6704 155.160508 218.520074 153.648291 220.032291 
C 152.136074 221.544508 151.2864 223.595802 151.2864 225.7344 
C 151.2864 227.872998 152.136074 229.924292 153.648291 231.436509 
C 155.160508 232.948726 157.211802 233.7984 159.3504 233.7984 
z
" clip-path="url(#p8b8da1507b)" style="fill: #0dab76"/>
   </g>
   <g id="patch_10">
    <path d="M 159.3504 229.7664 
C 160.419699 229.7664 161.445346 229.341563 162.201455 228.585455 
C 162.957563 227.829346 163.3824 226.803699 163.3824 225.7344 
C 163.3824 224.665101 162.957563 223.639454 162.201455 222.883345 
C 161.445346 222.127237 160.419699 221.7024 159.3504 221.7024 
C 158.281101 221.7024 157.255454 222.127237 156.499345 222.883345 
C 155.743237 223.639454 155.3184 224.665101 155.3184 225.7344 
C 155.3184 226.803699 155.743237 227.829346 156.499345 228.585455 
C 157.255454 229.341563 158.281101 229.7664 159.3504 229.7664 
z
" clip-path="url(#p8b8da1507b)" style="fill: #a0a0a0"/>
   </g>
   <g id="patch_11">
    <path d="M 159.3504 259.4016 
C 161.488998 259.4016 163.540292 258.551926 165.052509 257.039709 
C 166.564726 255.527492 167.4144 253.476198 167.4144 251.3376 
C 167.4144 249.199002 166.564726 247.147708 165.052509 245.635491 
C 163.540292 244.123274 161.488998 243.2736 159.3504 243.2736 
C 157.211802 243.2736 155.160508 244.123274 153.648291 245.635491 
C 152.136074 247.147708 151.2864 249.199002 151.2864 251.3376 
C 151.2864 253.476198 152.136074 255.527492 153.648291 257.039709 
C 155.160508 258.551926 157.211802 259.4016 159.3504 259.4016 
z
" clip-path="url(#p8b8da1507b)" style="fill: #0dab76"/>
   </g>
   <g id="patch_12">
    <path d="M 159.3504 255.3696 
C 160.419699 255.3696 161.445346 254.944763 162.201455 254.188655 
C 162.957563 253.432546 163.3824 252.406899 163.3824 251.3376 
C 163.3824 250.268301 162.957563 249.242654 162.201455 248.486545 
C 161.445346 247.730437 160.419699 247.3056 159.3504 247.3056 
C 158.281101 247.3056 157.255454 247.730437 156.499345 248.486545 
C 155.743237 249.242654 155.3184 250.268301 155.3184 251.3376 
C 155.3184 252.406899 155.743237 253.432546 156.499345 254.188655 
C 157.255454 254.944763 158.281101 255.3696 159.3504 255.3696 
z
" clip-path="url(#p8b8da1507b)" style="fill: #a0a0a0"/>
   </g>
   <g id="patch_13">
    <path d="M 312.9696 156.9888 
C 315.108198 156.9888 317.159492 156.139126 318.671709 154.626909 
C 320.183926 153.114692 321.0336 151.063398 321.0336 148.9248 
C 321.0336 146.786202 320.183926 144.734908 318.671709 143.222691 
C 317.159492 141.710474 315.108198 140.8608 312.9696 140.8608 
C 310.831002 140.8608 308.779708 141.710474 307.267491 143.222691 
C 305.755274 144.734908 304.9056 146.786202 304.9056 148.9248 
C 304.9056 151.063398 305.755274 153.114692 307.267491 154.626909 
C 308.779708 156.139126 310.831002 156.9888 312.9696 156.9888 
z
" clip-path="url(#p8b8da1507b)" style="fill: #0dab76"/>
   </g>
   <g id="patch_14">
    <path d="M 312.9696 152.9568 
C 314.038899 152.9568 315.064546 152.531963 315.820655 151.775855 
C 316.576763 151.019746 317.0016 149.994099 317.0016 148.9248 
C 317.0016 147.855501 316.576763 146.829854 315.820655 146.073745 
C 315.064546 145.317637 314.038899 144.8928 312.9696 144.8928 
C 311.900301 144.8928 310.874654 145.317637 310.118545 146.073745 
C 309.362437 146.829854 308.9376 147.855501 308.9376 148.9248 
C 308.9376 149.994099 309.362437 151.019746 310.118545 151.775855 
C 310.874654 152.531963 311.900301 152.9568 312.9696 152.9568 
z
" clip-path="url(#p8b8da1507b)" style="fill: #a0a0a0"/>
   </g>
   <g id="patch_15">
    <path d="M 312.9696 208.1952 
C 315.108198 208.1952 317.159492 207.345526 318.671709 205.833309 
C 320.183926 204.321092 321.0336 202.269798 321.0336 200.1312 
C 321.0336 197.992602 320.183926 195.941308 318.671709 194.429091 
C 317.159492 192.916874 315.108198 192.0672 312.9696 192.0672 
C 310.831002 192.0672 308.779708 192.916874 307.267491 194.429091 
C 305.755274 195.941308 304.9056 197.992602 304.9056 200.1312 
C 304.9056 202.269798 305.755274 204.321092 307.267491 205.833309 
C 308.779708 207.345526 310.831002 208.1952 312.9696 208.1952 
z
" clip-path="url(#p8b8da1507b)" style="fill: #0dab76"/>
   </g>
   <g id="patch_16">
    <path d="M 312.9696 204.1632 
C 314.038899 204.1632 315.064546 203.738363 315.820655 202.982255 
C 316.576763 202.226146 317.0016 201.200499 317.0016 200.1312 
C 317.0016 199.061901 316.576763 198.036254 315.820655 197.280145 
C 315.064546 196.524037 314.038899 196.0992 312.9696 196.0992 
C 311.900301 196.0992 310.874654 196.524037 310.118545 197.280145 
C 309.362437 198.036254 308.9376 199.061901 308.9376 200.1312 
C 308.9376 201.200499 309.362437 202.226146 310.118545 202.982255 
C 310.874654 203.738363 311.900301 204.1632 312.9696 204.1632 
z
" clip-path="url(#p8b8da1507b)" style="fill: #a0a0a0"/>
   </g>
   <g id="patch_17">
    <path d="M 312.9696 233.7984 
C 315.108198 233.7984 317.159492 232.948726 318.671709 231.436509 
C 320.183926 229.924292 321.0336 227.872998 321.0336 225.7344 
C 321.0336 223.595802 320.183926 221.544508 318.671709 220.032291 
C 317.159492 218.520074 315.108198 217.6704 312.9696 217.6704 
C 310.831002 217.6704 308.779708 218.520074 307.267491 220.032291 
C 305.755274 221.544508 304.9056 223.595802 304.9056 225.7344 
C 304.9056 227.872998 305.755274 229.924292 307.267491 231.436509 
C 308.779708 232.948726 310.831002 233.7984 312.9696 233.7984 
z
" clip-path="url(#p8b8da1507b)" style="fill: #0dab76"/>
   </g>
   <g id="patch_18">
    <path d="M 312.9696 229.7664 
C 314.038899 229.7664 315.064546 229.341563 315.820655 228.585455 
C 316.576763 227.829346 317.0016 226.803699 317.0016 225.7344 
C 317.0016 224.665101 316.576763 223.639454 315.820655 222.883345 
C 315.064546 222.127237 314.038899 221.7024 312.9696 221.7024 
C 311.900301 221.7024 310.874654 222.127237 310.118545 222.883345 
C 309.362437 223.639454 308.9376 224.665101 308.9376 225.7344 
C 308.9376 226.803699 309.362437 227.829346 310.118545 228.585455 
C 310.874654 229.341563 311.900301 229.7664 312.9696 229.7664 
z
" clip-path="url(#p8b8da1507b)" style="fill: #a0a0a0"/>
   </g>
   <g id="patch_19">
    <path d="M 312.9696 259.4016 
C 315.108198 259.4016 317.159492 258.551926 318.671709 257.039709 
C 320.183926 255.527492 321.0336 253.476198 321.0336 251.3376 
C 321.0336 249.199002 320.183926 247.147708 318.671709 245.635491 
C 317.159492 244.123274 315.108198 243.2736 312.9696 243.2736 
C 310.831002 243.2736 308.779708 244.123274 307.267491 245.635491 
C 305.755274 247.147708 304.9056 249.199002 304.9056 251.3376 
C 304.9056 253.476198 305.755274 255.527492 307.267491 257.039709 
C 308.779708 258.551926 310.831002 259.4016 312.9696 259.4016 
z
" clip-path="url(#p8b8da1507b)" style="fill: #0dab76"/>
   </g>
   <g id="patch_20">
    <path d="M 312.9696 255.3696 
C 314.038899 255.3696 315.064546 254.944763 315.820655 254.188655 
C 316.576763 253.432546 317.0016 252.406899 317.0016 251.3376 
C 317.0016 250.268301 316.576763 249.242654 315.820655 248.486545 
C 315.064546 247.730437 314.038899 247.3056 312.9696 247.3056 
C 311.900301 247.3056 310.874654 247.730437 310.118545 248.486545 
C 309.362437 249.242654 308.9376 250.268301 308.9376 251.3376 
C 308.9376 252.406899 309.362437 253.432546 310.118545 254.188655 
C 310.874654 254.944763 311.900301 255.3696 312.9696 255.3696 
z
" clip-path="url(#p8b8da1507b)" style="fill: #a0a0a0"/>
   </g>
   <g id="matplotlib.axis_1">
    <g id="xtick_1">
     <g id="line2d_14">
      <defs>
       <path id="m91b3569124" d="M 0 0 
L 0 3.5 
" style="stroke: #ffffff; stroke-width: 0.8"/>
      </defs>
      <g>
       <use xlink:href="#m91b3569124" x="135.36" y="307.584" style="fill: #ffffff; stroke: #ffffff; stroke-width: 0.8"/>
      </g>
     </g>
     <g id="text_12">
      <text style="fill: #ffffff; font: 10px 'sans-serif'; text-anchor: middle" x="135.36" y="322.182437" transform="rotate(-0, 135.36, 322.182437)">−10</text>
     </g>
    </g>
    <g id="xtick_2">
     <g id="line2d_15">
      <g>
       <use xlink:href="#m91b3569124" x="185.76" y="307.584" style="fill: #ffffff; stroke: #ffffff; stroke-width: 0.8"/>
      </g>
     </g>
     <g id="text_13">
      <text style="fill: #ffffff; font: 10px 'sans-serif'; text-anchor: middle" x="185.76" y="322.182437" transform="rotate(-0, 185.76, 322.182437)">−5</text>
     </g>
    </g>
    <g id="xtick_3">
     <g id="line2d_16">
      <g>
       <use xlink:href="#m91b3569124" x="236.16" y="307.584" style="fill: #ffffff; stroke: #ffffff; stroke-width: 0.8"/>
      </g>
     </g>
     <g id="text_14">
      <text style="fill: #ffffff; font: 10px 'sans-serif'; text-anchor: middle" x="236.16" y="322.182437" transform="rotate(-0, 236.16, 322.182437)">0</text>
     </g>
    </g>
    <g id="xtick_4">
     <g id="line2d_17">
      <g>
       <use xlink:href="#m91b3569124" x="286.56" y="307.584" style="fill: #ffffff; stroke: #ffffff; stroke-width: 0.8"/>
      </g>
     </g>
     <g id="text_15">
      <text style="fill: #ffffff; font: 10px 'sans-serif'; text-anchor: middle" x="286.56" y="322.182437" transform="rotate(-0, 286.56, 322.182437)">5</text>
     </g>
    </g>
    <g id="xtick_5">
     <g id="line2d_18">
      <g>
       <use xlink:href="#m91b3569124" x="336.96" y="307.584" style="fill: #ffffff; stroke: #ffffff; stroke-width: 0.8"/>
      </g>
     </g>
     <g id="text_16">
      <text style="fill: #ffffff; font: 10px 'sans-serif'; text-anchor: middle" x="336.96" y="322.182437" transform="rotate(-0, 336.96, 322.182437)">10</text>
     </g>
    </g>
   </g>
   <g id="matplotlib.axis_2">
    <g id="ytick_1">
     <g id="line2d_19">
      <defs>
       <path id="mf652c8589c" d="M 0 0 
L -3.5 0 
" style="stroke: #ffffff; stroke-width: 0.8"/>
      </defs>
      <g>
       <use xlink:href="#mf652c8589c" x="103.104" y="275.328" style="fill: #ffffff; stroke: #ffffff; stroke-width: 0.8"/>
      </g>
     </g>
     <g id="text_17">
      <text style="fill: #ffffff; font: 10px 'sans-serif'; text-anchor: end" x="96.104" y="279.127219" transform="rotate(-0, 96.104, 279.127219)">−10</text>
     </g>
    </g>
    <g id="ytick_2">
     <g id="line2d_20">
      <g>
       <use xlink:href="#mf652c8589c" x="103.104" y="224.928" style="fill: #ffffff; stroke: #ffffff; stroke-width: 0.8"/>
      </g>
     </g>
     <g id="text_18">
      <text style="fill: #ffffff; font: 10px 'sans-serif'; text-anchor: end" x="96.104" y="228.727219" transform="rotate(-0, 96.104, 228.727219)">−5</text>
     </g>
    </g>
    <g id="ytick_3">
     <g id="line2d_21">
      <g>
       <use xlink:href="#mf652c8589c" x="103.104" y="174.528" style="fill: #ffffff; stroke: #ffffff; stroke-width: 0.8"/>
      </g>
     </g>
     <g id="text_19">
      <text style="fill: #ffffff; font: 10px 'sans-serif'; text-anchor: end" x="96.104" y="178.327219" transform="rotate(-0, 96.104, 178.327219)">0</text>
     </g>
    </g>
    <g id="ytick_4">
     <g id="line2d_22">
      <g>
       <use xlink:href="#mf652c8589c" x="103.104" y="124.128" style="fill: #ffffff; stroke: #ffffff; stroke-width: 0.8"/>
      </g>
     </g>
     <g id="text_20">
      <text style="fill: #ffffff; font: 10px 'sans-serif'; text-anchor: end" x="96.104" y="127.927219" transform="rotate(-0, 96.104, 127.927219)">5</text>
     </g>
    </g>
    <g id="ytick_5">
     <g id="line2d_23">
      <g>
       <use xlink:href="#mf652c8589c" x="103.104" y="73.728" style="fill: #ffffff; stroke: #ffffff; stroke-width: 0.8"/>
      </g>
     </g>
     <g id="text_21">
      <text style="fill: #ffffff; font: 10px 'sans-serif'; text-anchor: end" x="96.104" y="77.527219" transform="rotate(-0, 96.104, 77.527219)">10</text>
     </g>
    </g>
   </g>
   <g id="patch_21">
    <path d="M 103.104 307.584 
L 103.104 41.472 
" style="fill: none; stroke: #ffffff; stroke-width: 0.8; stroke-linejoin: miter; stroke-linecap: square"/>
   </g>
   <g id="patch_22">
    <path d="M 369.216 307.584 
L 369.216 41.472 
" style="fill: none; stroke: #ffffff; stroke-width: 0.8; stroke-linejoin: miter; stroke-linecap: square"/>
   </g>
   <g id="patch_23">
    <path d="M 103.104 307.584 
L 369.216 307.584 
" style="fill: none; stroke: #ffffff; stroke-width: 0.8; stroke-linejoin: miter; stroke-linecap: square"/>
   </g>
   <g id="patch_24">
    <path d="M 103.104 41.472 
L 369.216 41.472 
" style="fill: none; stroke: #ffffff; stroke-width: 0.8; stroke-linejoin: miter; stroke-linecap: square"/>
   </g>
   <g id="text_22">
    <text style="fill: #ffffff; font: 12px 'sans-serif'; text-anchor: middle" x="236.16" y="35.472" transform="rotate(-0, 236.16, 35.472)">M5ATOM-WITH-HLABELS</text>
   </g>
  </g>
 </g>
 <defs>
  <clipPath id="p8b8da1507b">
   <rect x="103.104" y="41.472" width="266.112" height="266.112"/>
  </clipPath>
 </defs>
</svg>
