<?xml version="1.0" encoding="utf-8" standalone="no"?>
<!DOCTYPE svg PUBLIC "-//W3C//DTD SVG 1.1//EN"
  "http://www.w3.org/Graphics/SVG/1.1/DTD/svg11.dtd">
<svg xmlns:xlink="http://www.w3.org/1999/xlink" width="460.8pt" height="345.6pt" viewBox="0 0 460.8 345.6" xmlns="http://www.w3.org/2000/svg" version="1.1">
 <metadata>
  <rdf:RDF xmlns:dc="http://purl.org/dc/elements/1.1/" xmlns:cc="http://creativecommons.org/ns#" xmlns:rdf="http://www.w3.org/1999/02/22-rdf-syntax-ns#">
   <cc:Work>
    <dc:type rdf:resource="http://purl.org/dc/dcmitype/StillImage"/>
    <dc:date>2023-02-18T16:06:05.084883</dc:date>
    <dc:format>image/svg+xml</dc:format>
    <dc:creator>
     <cc:Agent>
      <dc:title>Matplotlib v3.5.1, https://matplotlib.org/</dc:title>
     </cc:Agent>
    </dc:creator>
   </cc:Work>
  </rdf:RDF>
 </metadata>
 <defs>
  <style type="text/css">*{stroke-linejoin: round; stroke-linecap: butt}</style>
 </defs>
 <g id="figure_1">
  <g id="patch_1">
   <path d="M 0 345.6 
L 460.8 345.6 
L 460.8 0 
L 0 0 
z
" style="fill: #2b2b2b"/>
  </g>
  <g id="axes_1">
   <g id="patch_2">
    <path d="M 90.144912 307.584 
L 382.175088 307.584 
L 382.175088 41.472 
L 90.144912 41.472 
z
" style="fill: #2b2b2b"/>
   </g>
   <g id="patch_3">
    <path d="M 236.159043 291.19139 
C 236.182808 291.19139 236.205603 291.181948 236.222407 291.165143 
C 236.239212 291.148339 236.248654 291.125544 236.248654 291.101779 
C 236.248654 291.078014 236.239212 291.055219 236.222407 291.038414 
C 236.205603 291.02161 236.182808 291.012168 236.159043 291.012168 
C 236.135278 291.012168 236.112483 291.02161 236.095678 291.038414 
C 236.078874 291.055219 236.069432 291.078014 236.069432 291.101779 
C 236.069432 291.125544 236.078874 291.148339 236.095678 291.165143 
C 236.112483 291.181948 236.135278 291.19139 236.159043 291.19139 
L 236.159043 291.19139 
z
" clip-path="url(#pa3a46fe59d)" style="fill: none; stroke: #ffcd07; stroke-width: 0.896108; stroke-linejoin: miter"/>
   </g>
   <g id="line2d_1">
    <path d="M 216.137969 288.630315 
L 222.037976 291.101937 
L 222.037976 291.101937 
L 216.137693 293.573693 
L 216.137693 293.573693 
" clip-path="url(#pa3a46fe59d)" style="fill: none; stroke: #ffcd07; stroke-width: 0.455223; stroke-linecap: round"/>
   </g>
   <g id="line2d_2">
    <path d="M 223.005852 286.716111 
L 225.956357 295.487887 
L 225.956357 295.487887 
L 228.826784 286.715885 
L 228.826784 286.715885 
" clip-path="url(#pa3a46fe59d)" style="fill: none; stroke: #ffcd07; stroke-width: 0.455223; stroke-linecap: round"/>
   </g>
   <g id="line2d_3">
    <path d="M 229.83411 295.327968 
L 232.784615 286.556192 
L 232.784615 286.556192 
L 235.655043 295.328194 
L 235.655043 295.328194 
" clip-path="url(#pa3a46fe59d)" style="fill: none; stroke: #ffcd07; stroke-width: 0.455223; stroke-linecap: round"/>
   </g>
   <g id="line2d_4">
    <path d="M 234.938072 293.175361 
L 230.552336 293.175361 
" clip-path="url(#pa3a46fe59d)" style="fill: none; stroke: #ffcd07; stroke-width: 0.455223; stroke-linecap: round"/>
   </g>
   <g id="line2d_5">
    <path d="M 237.619323 286.716157 
L 237.619323 295.487629 
L 241.526615 295.487629 
" clip-path="url(#pa3a46fe59d)" style="fill: none; stroke: #ffcd07; stroke-width: 0.455223; stroke-linecap: round"/>
   </g>
   <g id="line2d_6">
    <path d="M 243.969394 286.716528 
L 243.969394 293.01604 
L 243.969394 293.01604 
L 244.128875 293.813446 
L 244.128875 293.813446 
L 244.447838 294.451371 
L 245.006022 295.009556 
L 245.643948 295.408259 
L 246.441354 295.488 
L 247.15902 295.408259 
L 247.876686 295.009556 
L 248.434871 294.451371 
L 248.753833 293.813446 
L 248.833574 293.01604 
L 248.833574 286.716528 
" clip-path="url(#pa3a46fe59d)" style="fill: none; stroke: #ffcd07; stroke-width: 0.455223; stroke-linecap: round"/>
   </g>
   <g id="line2d_7">
    <path d="M 255.183476 295.487671 
L 251.276183 295.487671 
L 251.276183 286.716199 
L 255.183476 286.716199 
" clip-path="url(#pa3a46fe59d)" style="fill: none; stroke: #ffcd07; stroke-width: 0.455223; stroke-linecap: round"/>
   </g>
   <g id="line2d_8">
    <path d="M 251.276342 290.623698 
L 254.226746 290.623698 
" clip-path="url(#pa3a46fe59d)" style="fill: none; stroke: #ffcd07; stroke-width: 0.455223; stroke-linecap: round"/>
   </g>
   <g id="patch_4">
    <path d="M 236.159043 58.203198 
C 236.182808 58.203198 236.205603 58.193756 236.222407 58.176951 
C 236.239212 58.160147 236.248654 58.137352 236.248654 58.113587 
C 236.248654 58.089822 236.239212 58.067027 236.222407 58.050222 
C 236.205603 58.033418 236.182808 58.023976 236.159043 58.023976 
C 236.135278 58.023976 236.112483 58.033418 236.095678 58.050222 
C 236.078874 58.067027 236.069432 58.089822 236.069432 58.113587 
C 236.069432 58.137352 236.078874 58.160147 236.095678 58.176951 
C 236.112483 58.193756 236.135278 58.203198 236.159043 58.203198 
L 236.159043 58.203198 
z
" clip-path="url(#pa3a46fe59d)" style="fill: none; stroke: #808080; stroke-width: 0.896108; stroke-linejoin: miter"/>
   </g>
   <g id="line2d_9">
    <path d="M 219.552142 55.642123 
L 225.452149 58.113744 
L 225.452149 58.113744 
L 219.551866 60.5855 
L 219.551866 60.5855 
" clip-path="url(#pa3a46fe59d)" style="fill: none; stroke: #808080; stroke-width: 0.455223; stroke-linecap: round"/>
   </g>
   <g id="line2d_10">
    <path d="M 226.899035 62.499171 
L 226.899035 53.727699 
L 231.763215 62.499171 
L 231.763215 53.727699 
" clip-path="url(#pa3a46fe59d)" style="fill: none; stroke: #808080; stroke-width: 0.455223; stroke-linecap: round"/>
   </g>
   <g id="line2d_11">
    <path d="M 233.248283 62.339776 
L 236.198788 53.568 
L 236.198788 53.568 
L 239.069216 62.340002 
L 239.069216 62.340002 
" clip-path="url(#pa3a46fe59d)" style="fill: none; stroke: #808080; stroke-width: 0.455223; stroke-linecap: round"/>
   </g>
   <g id="line2d_12">
    <path d="M 238.352245 60.187169 
L 233.966509 60.187169 
" clip-path="url(#pa3a46fe59d)" style="fill: none; stroke: #808080; stroke-width: 0.455223; stroke-linecap: round"/>
   </g>
   <g id="line2d_13">
    <path d="M 240.077206 62.49943 
L 240.077206 53.727958 
L 242.947869 58.592138 
L 242.947869 58.592138 
L 245.898274 53.727958 
L 245.898274 53.727958 
L 245.898274 62.49943 
" clip-path="url(#pa3a46fe59d)" style="fill: none; stroke: #808080; stroke-width: 0.455223; stroke-linecap: round"/>
   </g>
   <g id="line2d_14">
    <path d="M 251.769302 62.499479 
L 247.86201 62.499479 
L 247.86201 53.728007 
L 251.769302 53.728007 
" clip-path="url(#pa3a46fe59d)" style="fill: none; stroke: #808080; stroke-width: 0.455223; stroke-linecap: round"/>
   </g>
   <g id="line2d_15">
    <path d="M 247.862168 57.635506 
L 250.812573 57.635506 
" clip-path="url(#pa3a46fe59d)" style="fill: none; stroke: #808080; stroke-width: 0.455223; stroke-linecap: round"/>
   </g>
   <g id="patch_5">
    <path d="M 349.964814 151.936139 
C 349.988579 151.936139 350.011374 151.926698 350.028178 151.909893 
C 350.044983 151.893089 350.054425 151.870294 350.054425 151.846529 
C 350.054425 151.822764 350.044983 151.799969 350.028178 151.783164 
C 350.011374 151.76636 349.988579 151.756918 349.964814 151.756918 
C 349.941049 151.756918 349.918254 151.76636 349.901449 151.783164 
C 349.884645 151.799969 349.875203 151.822764 349.875203 151.846529 
C 349.875203 151.870294 349.884645 151.893089 349.901449 151.909893 
C 349.918254 151.926698 349.941049 151.936139 349.964814 151.936139 
L 349.964814 151.936139 
z
" clip-path="url(#pa3a46fe59d)" style="fill: none; stroke: #808080; stroke-width: 0.896108; stroke-linejoin: miter"/>
   </g>
   <g id="line2d_16">
    <path d="M 350.377888 156.232072 
L 352.770108 156.232072 
L 353.567514 156.152331 
L 354.205439 155.753628 
L 354.763624 155.195443 
L 355.082587 154.557518 
L 355.242068 153.760111 
L 355.082587 153.042445 
L 354.763624 152.324779 
L 354.205439 151.846336 
L 353.567514 151.447632 
L 352.770108 151.367892 
" clip-path="url(#pa3a46fe59d)" style="fill: none; stroke: #808080; stroke-width: 0.455223; stroke-linecap: round"/>
   </g>
   <g id="line2d_17">
    <path d="M 350.377888 147.460429 
L 353.248552 147.460429 
L 353.966217 147.54017 
L 354.524402 147.859132 
L 355.002846 148.417317 
L 355.242068 149.055242 
L 355.242068 149.693168 
L 355.002846 150.331093 
L 354.524402 150.889277 
L 353.966217 151.20824 
L 353.248552 151.367721 
L 351.334776 151.367721 
" clip-path="url(#pa3a46fe59d)" style="fill: none; stroke: #808080; stroke-width: 0.455223; stroke-linecap: round"/>
   </g>
   <g id="line2d_18">
    <path d="M 356.727632 147.46086 
L 359.678137 156.232636 
L 359.678137 156.232636 
L 362.548565 147.460635 
L 362.548565 147.460635 
" clip-path="url(#pa3a46fe59d)" style="fill: none; stroke: #808080; stroke-width: 0.455223; stroke-linecap: round"/>
   </g>
   <g id="line2d_19">
    <path d="M 364.03458 156.232072 
L 366.4268 156.232072 
L 367.224207 156.152331 
L 367.862132 155.753628 
L 368.420316 155.195443 
L 368.739279 154.557518 
L 368.89876 153.760111 
L 368.739279 153.042445 
L 368.420316 152.324779 
L 367.862132 151.846336 
L 367.224207 151.447632 
L 366.4268 151.367892 
" clip-path="url(#pa3a46fe59d)" style="fill: none; stroke: #808080; stroke-width: 0.455223; stroke-linecap: round"/>
   </g>
   <g id="line2d_20">
    <path d="M 364.03458 147.460429 
L 366.905244 147.460429 
L 367.62291 147.54017 
L 368.181095 147.859132 
L 368.659538 148.417317 
L 368.89876 149.055242 
L 368.89876 149.693168 
L 368.659538 150.331093 
L 368.181095 150.889277 
L 367.62291 151.20824 
L 366.905244 151.367721 
L 364.991468 151.367721 
" clip-path="url(#pa3a46fe59d)" style="fill: none; stroke: #808080; stroke-width: 0.455223; stroke-linecap: round"/>
   </g>
   <g id="patch_6">
    <path d="M 349.964814 174.697294 
C 349.988579 174.697294 350.011374 174.687852 350.028178 174.671047 
C 350.044983 174.654243 350.054425 174.631448 350.054425 174.607683 
C 350.054425 174.583918 350.044983 174.561123 350.028178 174.544318 
C 350.011374 174.527514 349.988579 174.518072 349.964814 174.518072 
C 349.941049 174.518072 349.918254 174.527514 349.901449 174.544318 
C 349.884645 174.561123 349.875203 174.583918 349.875203 174.607683 
C 349.875203 174.631448 349.884645 174.654243 349.901449 174.671047 
C 349.918254 174.687852 349.941049 174.697294 349.964814 174.697294 
L 349.964814 174.697294 
z
" clip-path="url(#pa3a46fe59d)" style="fill: none; stroke: #808080; stroke-width: 0.896108; stroke-linejoin: miter"/>
   </g>
   <g id="line2d_21">
    <path d="M 353.806388 174.129602 
L 355.241723 174.129602 
L 355.241723 178.993782 
L 352.291313 178.993782 
L 351.733127 178.914042 
L 351.174941 178.595079 
L 350.696496 178.196376 
L 350.457274 177.638191 
L 350.377533 177.080007 
L 350.377533 172.136086 
L 350.537015 171.41842 
L 350.935719 170.780495 
L 351.573645 170.381791 
L 352.291313 170.22231 
L 355.241723 170.22231 
" clip-path="url(#pa3a46fe59d)" style="fill: none; stroke: #808080; stroke-width: 0.455223; stroke-linecap: round"/>
   </g>
   <g id="line2d_22">
    <path d="M 362.070446 178.993406 
L 357.206266 178.993406 
L 357.206266 178.993406 
L 361.35278 174.129226 
L 361.35278 174.129226 
L 361.35278 174.129226 
L 361.751483 173.650782 
L 361.751483 173.650782 
L 361.990705 173.012857 
L 362.070446 172.374932 
L 361.990705 171.737007 
L 361.671743 171.099081 
L 361.193299 170.620637 
L 360.555374 170.301675 
L 359.917448 170.221934 
L 359.040301 170.301675 
L 358.242894 170.700378 
L 357.604969 171.338303 
L 357.206266 172.13571 
" clip-path="url(#pa3a46fe59d)" style="fill: none; stroke: #808080; stroke-width: 0.455223; stroke-linecap: round"/>
   </g>
   <g id="line2d_23">
    <path d="M 368.898792 178.993406 
L 364.034612 178.993406 
L 364.034612 178.993406 
L 368.181126 174.129226 
L 368.181126 174.129226 
L 368.181126 174.129226 
L 368.57983 173.650782 
L 368.57983 173.650782 
L 368.819052 173.012857 
L 368.898792 172.374932 
L 368.819052 171.737007 
L 368.500089 171.099081 
L 368.021645 170.620637 
L 367.38372 170.301675 
L 366.745795 170.221934 
L 365.868647 170.301675 
L 365.071241 170.700378 
L 364.433315 171.338303 
L 364.034612 172.13571 
" clip-path="url(#pa3a46fe59d)" style="fill: none; stroke: #808080; stroke-width: 0.455223; stroke-linecap: round"/>
   </g>
   <g id="patch_7">
    <path d="M 349.964814 197.458448 
C 349.988579 197.458448 350.011374 197.449006 350.028178 197.432201 
C 350.044983 197.415397 350.054425 197.392602 350.054425 197.368837 
C 350.054425 197.345072 350.044983 197.322277 350.028178 197.305473 
C 350.011374 197.288668 349.988579 197.279226 349.964814 197.279226 
C 349.941049 197.279226 349.918254 197.288668 349.901449 197.305473 
C 349.884645 197.322277 349.875203 197.345072 349.875203 197.368837 
C 349.875203 197.392602 349.884645 197.415397 349.901449 197.432201 
C 349.918254 197.449006 349.941049 197.458448 349.964814 197.458448 
L 349.964814 197.458448 
z
" clip-path="url(#pa3a46fe59d)" style="fill: none; stroke: #808080; stroke-width: 0.896108; stroke-linejoin: miter"/>
   </g>
   <g id="line2d_24">
    <path d="M 353.806388 196.890756 
L 355.241723 196.890756 
L 355.241723 201.754936 
L 352.291313 201.754936 
L 351.733127 201.675196 
L 351.174941 201.356233 
L 350.696496 200.95753 
L 350.457274 200.399345 
L 350.377533 199.841161 
L 350.377533 194.89724 
L 350.537015 194.179574 
L 350.935719 193.541649 
L 351.573645 193.142946 
L 352.291313 192.983464 
L 355.241723 192.983464 
" clip-path="url(#pa3a46fe59d)" style="fill: none; stroke: #808080; stroke-width: 0.455223; stroke-linecap: round"/>
   </g>
   <g id="line2d_25">
    <path d="M 357.166274 194.896576 
L 359.637943 192.983026 
L 359.637943 192.983026 
L 359.637902 201.754563 
L 359.637902 201.754563 
" clip-path="url(#pa3a46fe59d)" style="fill: none; stroke: #808080; stroke-width: 0.455223; stroke-linecap: round"/>
   </g>
   <g id="line2d_26">
    <path d="M 357.166421 201.75438 
L 362.110342 201.75438 
" clip-path="url(#pa3a46fe59d)" style="fill: none; stroke: #808080; stroke-width: 0.455223; stroke-linecap: round"/>
   </g>
   <g id="line2d_27">
    <path d="M 368.900989 197.847607 
L 366.030326 197.847607 
L 365.392401 197.767866 
L 364.834216 197.448903 
L 364.435513 197.0502 
L 364.11655 196.492015 
L 364.036809 195.85409 
L 364.036809 195.375646 
L 364.196291 194.65798 
L 364.515253 193.940314 
L 365.073438 193.461871 
L 365.711363 193.063167 
L 366.50877 192.983427 
L 367.226436 193.063167 
L 367.944102 193.461871 
L 368.502286 193.940314 
L 368.821249 194.65798 
L 368.900989 195.375646 
L 368.900989 197.847607 
L 368.821249 198.884235 
L 368.422546 199.841123 
L 367.78462 200.63853 
L 366.987214 201.196714 
L 366.030326 201.595417 
L 364.993697 201.754899 
" clip-path="url(#pa3a46fe59d)" style="fill: none; stroke: #808080; stroke-width: 0.455223; stroke-linecap: round"/>
   </g>
   <g id="patch_8">
    <path d="M 349.964814 220.219602 
C 349.988579 220.219602 350.011374 220.21016 350.028178 220.193356 
C 350.044983 220.176551 350.054425 220.153756 350.054425 220.129991 
C 350.054425 220.106226 350.044983 220.083431 350.028178 220.066627 
C 350.011374 220.049822 349.988579 220.04038 349.964814 220.04038 
C 349.941049 220.04038 349.918254 220.049822 349.901449 220.066627 
C 349.884645 220.083431 349.875203 220.106226 349.875203 220.129991 
C 349.875203 220.153756 349.884645 220.176551 349.901449 220.193356 
C 349.918254 220.21016 349.941049 220.219602 349.964814 220.219602 
L 349.964814 220.219602 
z
" clip-path="url(#pa3a46fe59d)" style="fill: none; stroke: #808080; stroke-width: 0.896108; stroke-linejoin: miter"/>
   </g>
   <g id="line2d_28">
    <path d="M 353.806388 219.651911 
L 355.241723 219.651911 
L 355.241723 224.516091 
L 352.291313 224.516091 
L 351.733127 224.43635 
L 351.174941 224.117387 
L 350.696496 223.718684 
L 350.457274 223.160499 
L 350.377533 222.602315 
L 350.377533 217.658394 
L 350.537015 216.940728 
L 350.935719 216.302803 
L 351.573645 215.9041 
L 352.291313 215.744618 
L 355.241723 215.744618 
" clip-path="url(#pa3a46fe59d)" style="fill: none; stroke: #808080; stroke-width: 0.455223; stroke-linecap: round"/>
   </g>
   <g id="line2d_29">
    <path d="M 362.070446 224.515715 
L 357.206266 224.515715 
L 357.206266 224.515715 
L 361.35278 219.651535 
L 361.35278 219.651535 
L 361.35278 219.651535 
L 361.751483 219.173091 
L 361.751483 219.173091 
L 361.990705 218.535165 
L 362.070446 217.89724 
L 361.990705 217.259315 
L 361.671743 216.62139 
L 361.193299 216.142946 
L 360.555374 215.823983 
L 359.917448 215.744242 
L 359.040301 215.823983 
L 358.242894 216.222686 
L 357.604969 216.860612 
L 357.206266 217.658018 
" clip-path="url(#pa3a46fe59d)" style="fill: none; stroke: #808080; stroke-width: 0.455223; stroke-linecap: round"/>
   </g>
   <g id="line2d_30">
    <path d="M 364.03458 224.515534 
L 366.4268 224.515534 
L 367.224207 224.435793 
L 367.862132 224.03709 
L 368.420316 223.478906 
L 368.739279 222.84098 
L 368.89876 222.043574 
L 368.739279 221.325908 
L 368.420316 220.608242 
L 367.862132 220.129798 
L 367.224207 219.731095 
L 366.4268 219.651354 
" clip-path="url(#pa3a46fe59d)" style="fill: none; stroke: #808080; stroke-width: 0.455223; stroke-linecap: round"/>
   </g>
   <g id="line2d_31">
    <path d="M 364.03458 215.743892 
L 366.905244 215.743892 
L 367.62291 215.823632 
L 368.181095 216.142595 
L 368.659538 216.700779 
L 368.89876 217.338705 
L 368.89876 217.97663 
L 368.659538 218.614555 
L 368.181095 219.17274 
L 367.62291 219.491702 
L 366.905244 219.651184 
L 364.991468 219.651184 
" clip-path="url(#pa3a46fe59d)" style="fill: none; stroke: #808080; stroke-width: 0.455223; stroke-linecap: round"/>
   </g>
   <g id="patch_9">
    <path d="M 349.964814 242.980756 
C 349.988579 242.980756 350.011374 242.971314 350.028178 242.95451 
C 350.044983 242.937705 350.054425 242.91491 350.054425 242.891145 
C 350.054425 242.86738 350.044983 242.844585 350.028178 242.827781 
C 350.011374 242.810976 349.988579 242.801534 349.964814 242.801534 
C 349.941049 242.801534 349.918254 242.810976 349.901449 242.827781 
C 349.884645 242.844585 349.875203 242.86738 349.875203 242.891145 
C 349.875203 242.91491 349.884645 242.937705 349.901449 242.95451 
C 349.918254 242.971314 349.941049 242.980756 349.964814 242.980756 
L 349.964814 242.980756 
z
" clip-path="url(#pa3a46fe59d)" style="fill: none; stroke: #808080; stroke-width: 0.896108; stroke-linejoin: miter"/>
   </g>
   <g id="line2d_32">
    <path d="M 353.806388 242.413065 
L 355.241723 242.413065 
L 355.241723 247.277245 
L 352.291313 247.277245 
L 351.733127 247.197504 
L 351.174941 246.878541 
L 350.696496 246.479838 
L 350.457274 245.921654 
L 350.377533 245.363469 
L 350.377533 240.419548 
L 350.537015 239.701882 
L 350.935719 239.063957 
L 351.573645 238.665254 
L 352.291313 238.505773 
L 355.241723 238.505773 
" clip-path="url(#pa3a46fe59d)" style="fill: none; stroke: #808080; stroke-width: 0.455223; stroke-linecap: round"/>
   </g>
   <g id="line2d_33">
    <path d="M 357.206234 247.276688 
L 359.598454 247.276688 
L 360.39586 247.196948 
L 361.033786 246.798244 
L 361.59197 246.24006 
L 361.910933 245.602134 
L 362.070414 244.804728 
L 361.910933 244.087062 
L 361.59197 243.369396 
L 361.033786 242.890952 
L 360.39586 242.492249 
L 359.598454 242.412508 
" clip-path="url(#pa3a46fe59d)" style="fill: none; stroke: #808080; stroke-width: 0.455223; stroke-linecap: round"/>
   </g>
   <g id="line2d_34">
    <path d="M 357.206234 238.505046 
L 360.076898 238.505046 
L 360.794564 238.584786 
L 361.352748 238.903749 
L 361.831192 239.461934 
L 362.070414 240.099859 
L 362.070414 240.737784 
L 361.831192 241.375709 
L 361.352748 241.933894 
L 360.794564 242.252857 
L 360.076898 242.412338 
L 358.163122 242.412338 
" clip-path="url(#pa3a46fe59d)" style="fill: none; stroke: #808080; stroke-width: 0.455223; stroke-linecap: round"/>
   </g>
   <g id="line2d_35">
    <path d="M 364.03458 247.276688 
L 366.4268 247.276688 
L 367.224207 247.196948 
L 367.862132 246.798244 
L 368.420316 246.24006 
L 368.739279 245.602134 
L 368.89876 244.804728 
L 368.739279 244.087062 
L 368.420316 243.369396 
L 367.862132 242.890952 
L 367.224207 242.492249 
L 366.4268 242.412508 
" clip-path="url(#pa3a46fe59d)" style="fill: none; stroke: #808080; stroke-width: 0.455223; stroke-linecap: round"/>
   </g>
   <g id="line2d_36">
    <path d="M 364.03458 238.505046 
L 366.905244 238.505046 
L 367.62291 238.584786 
L 368.181095 238.903749 
L 368.659538 239.461934 
L 368.89876 240.099859 
L 368.89876 240.737784 
L 368.659538 241.375709 
L 368.181095 241.933894 
L 367.62291 242.252857 
L 366.905244 242.412338 
L 364.991468 242.412338 
" clip-path="url(#pa3a46fe59d)" style="fill: none; stroke: #808080; stroke-width: 0.455223; stroke-linecap: round"/>
   </g>
   <g id="patch_10">
    <path d="M 122.353272 174.697294 
C 122.377037 174.697294 122.399832 174.687852 122.416637 174.671047 
C 122.433441 174.654243 122.442883 174.631448 122.442883 174.607683 
C 122.442883 174.583918 122.433441 174.561123 122.416637 174.544318 
C 122.399832 174.527514 122.377037 174.518072 122.353272 174.518072 
C 122.329507 174.518072 122.306712 174.527514 122.289908 174.544318 
C 122.273103 174.561123 122.263661 174.583918 122.263661 174.607683 
C 122.263661 174.631448 122.273103 174.654243 122.289908 174.671047 
C 122.306712 174.687852 122.329507 174.697294 122.353272 174.697294 
L 122.353272 174.697294 
z
" clip-path="url(#pa3a46fe59d)" style="fill: none; stroke: #808080; stroke-width: 0.896108; stroke-linejoin: miter"/>
   </g>
   <g id="line2d_37">
    <path d="M 106.847866 174.129602 
L 108.2832 174.129602 
L 108.2832 178.993782 
L 105.33279 178.993782 
L 104.774604 178.914042 
L 104.216419 178.595079 
L 103.737974 178.196376 
L 103.498751 177.638191 
L 103.419011 177.080007 
L 103.419011 172.136086 
L 103.578492 171.41842 
L 103.977196 170.780495 
L 104.615123 170.381791 
L 105.33279 170.22231 
L 108.2832 170.22231 
" clip-path="url(#pa3a46fe59d)" style="fill: none; stroke: #808080; stroke-width: 0.455223; stroke-linecap: round"/>
   </g>
   <g id="line2d_38">
    <path d="M 115.111923 178.993406 
L 110.247743 178.993406 
L 110.247743 178.993406 
L 114.394258 174.129226 
L 114.394258 174.129226 
L 114.394258 174.129226 
L 114.792961 173.650782 
L 114.792961 173.650782 
L 115.032183 173.012857 
L 115.111923 172.374932 
L 115.032183 171.737007 
L 114.71322 171.099081 
L 114.234776 170.620637 
L 113.596851 170.301675 
L 112.958926 170.221934 
L 112.081778 170.301675 
L 111.284372 170.700378 
L 110.646447 171.338303 
L 110.247743 172.13571 
" clip-path="url(#pa3a46fe59d)" style="fill: none; stroke: #808080; stroke-width: 0.455223; stroke-linecap: round"/>
   </g>
   <g id="line2d_39">
    <path d="M 117.036097 172.135422 
L 119.507766 170.221872 
L 119.507766 170.221872 
L 119.507726 178.993409 
L 119.507726 178.993409 
" clip-path="url(#pa3a46fe59d)" style="fill: none; stroke: #808080; stroke-width: 0.455223; stroke-linecap: round"/>
   </g>
   <g id="line2d_40">
    <path d="M 117.036245 178.993226 
L 121.980165 178.993226 
" clip-path="url(#pa3a46fe59d)" style="fill: none; stroke: #808080; stroke-width: 0.455223; stroke-linecap: round"/>
   </g>
   <g id="patch_11">
    <path d="M 122.353272 197.458448 
C 122.377037 197.458448 122.399832 197.449006 122.416637 197.432201 
C 122.433441 197.415397 122.442883 197.392602 122.442883 197.368837 
C 122.442883 197.345072 122.433441 197.322277 122.416637 197.305473 
C 122.399832 197.288668 122.377037 197.279226 122.353272 197.279226 
C 122.329507 197.279226 122.306712 197.288668 122.289908 197.305473 
C 122.273103 197.322277 122.263661 197.345072 122.263661 197.368837 
C 122.263661 197.392602 122.273103 197.415397 122.289908 197.432201 
C 122.306712 197.449006 122.329507 197.458448 122.353272 197.458448 
L 122.353272 197.458448 
z
" clip-path="url(#pa3a46fe59d)" style="fill: none; stroke: #808080; stroke-width: 0.896108; stroke-linejoin: miter"/>
   </g>
   <g id="line2d_41">
    <path d="M 106.847866 196.890756 
L 108.2832 196.890756 
L 108.2832 201.754936 
L 105.33279 201.754936 
L 104.774604 201.675196 
L 104.216419 201.356233 
L 103.737974 200.95753 
L 103.498751 200.399345 
L 103.419011 199.841161 
L 103.419011 194.89724 
L 103.578492 194.179574 
L 103.977196 193.541649 
L 104.615123 193.142946 
L 105.33279 192.983464 
L 108.2832 192.983464 
" clip-path="url(#pa3a46fe59d)" style="fill: none; stroke: #808080; stroke-width: 0.455223; stroke-linecap: round"/>
   </g>
   <g id="line2d_42">
    <path d="M 115.111923 201.754561 
L 110.247743 201.754561 
L 110.247743 201.754561 
L 114.394258 196.89038 
L 114.394258 196.89038 
L 114.394258 196.89038 
L 114.792961 196.411937 
L 114.792961 196.411937 
L 115.032183 195.774011 
L 115.111923 195.136086 
L 115.032183 194.498161 
L 114.71322 193.860236 
L 114.234776 193.381792 
L 113.596851 193.062829 
L 112.958926 192.983088 
L 112.081778 193.062829 
L 111.284372 193.461532 
L 110.646447 194.099457 
L 110.247743 194.896864 
" clip-path="url(#pa3a46fe59d)" style="fill: none; stroke: #808080; stroke-width: 0.455223; stroke-linecap: round"/>
   </g>
   <g id="line2d_43">
    <path d="M 117.076097 201.75438 
L 120.026501 201.75438 
L 120.744167 201.594899 
L 121.382092 201.196195 
L 121.780796 200.55827 
L 121.940277 199.840604 
L 121.940277 198.803976 
L 121.860536 198.245791 
L 121.541574 197.687606 
L 121.14287 197.209163 
L 120.584686 196.969941 
L 120.026501 196.8902 
L 117.076097 196.8902 
L 117.076097 196.8902 
L 117.076097 192.982908 
L 117.076097 192.982908 
L 117.076097 192.982908 
L 121.940277 192.982908 
L 121.940277 192.982908 
" clip-path="url(#pa3a46fe59d)" style="fill: none; stroke: #808080; stroke-width: 0.455223; stroke-linecap: round"/>
   </g>
   <g id="patch_12">
    <path d="M 122.353272 220.219602 
C 122.377037 220.219602 122.399832 220.21016 122.416637 220.193356 
C 122.433441 220.176551 122.442883 220.153756 122.442883 220.129991 
C 122.442883 220.106226 122.433441 220.083431 122.416637 220.066627 
C 122.399832 220.049822 122.377037 220.04038 122.353272 220.04038 
C 122.329507 220.04038 122.306712 220.049822 122.289908 220.066627 
C 122.273103 220.083431 122.263661 220.106226 122.263661 220.129991 
C 122.263661 220.153756 122.273103 220.176551 122.289908 220.193356 
C 122.306712 220.21016 122.329507 220.219602 122.353272 220.219602 
L 122.353272 220.219602 
z
" clip-path="url(#pa3a46fe59d)" style="fill: none; stroke: #808080; stroke-width: 0.896108; stroke-linejoin: miter"/>
   </g>
   <g id="line2d_44">
    <path d="M 110.247751 224.515534 
L 113.198155 224.515534 
L 113.915821 224.356053 
L 114.553746 223.95735 
L 114.952449 223.319424 
L 115.111931 222.601758 
L 115.111931 221.56513 
L 115.03219 221.006945 
L 114.713227 220.448761 
L 114.314524 219.970317 
L 113.756339 219.731095 
L 113.198155 219.651354 
L 110.247751 219.651354 
L 110.247751 219.651354 
L 110.247751 215.744062 
L 110.247751 215.744062 
L 110.247751 215.744062 
L 115.111931 215.744062 
L 115.111931 215.744062 
" clip-path="url(#pa3a46fe59d)" style="fill: none; stroke: #808080; stroke-width: 0.455223; stroke-linecap: round"/>
   </g>
   <g id="line2d_45">
    <path d="M 116.597456 215.744323 
L 119.547961 224.516099 
L 119.547961 224.516099 
L 122.418389 215.744097 
L 122.418389 215.744097 
" clip-path="url(#pa3a46fe59d)" style="fill: none; stroke: #808080; stroke-width: 0.455223; stroke-linecap: round"/>
   </g>
   <g id="patch_13">
    <path d="M 122.353272 242.980756 
C 122.377037 242.980756 122.399832 242.971314 122.416637 242.95451 
C 122.433441 242.937705 122.442883 242.91491 122.442883 242.891145 
C 122.442883 242.86738 122.433441 242.844585 122.416637 242.827781 
C 122.399832 242.810976 122.377037 242.801534 122.353272 242.801534 
C 122.329507 242.801534 122.306712 242.810976 122.289908 242.827781 
C 122.273103 242.844585 122.263661 242.86738 122.263661 242.891145 
C 122.263661 242.91491 122.273103 242.937705 122.289908 242.95451 
C 122.306712 242.971314 122.329507 242.980756 122.353272 242.980756 
L 122.353272 242.980756 
z
" clip-path="url(#pa3a46fe59d)" style="fill: none; stroke: #808080; stroke-width: 0.896108; stroke-linejoin: miter"/>
   </g>
   <g id="line2d_46">
    <path d="M 106.847866 242.413065 
L 108.2832 242.413065 
L 108.2832 247.277245 
L 105.33279 247.277245 
L 104.774604 247.197504 
L 104.216419 246.878541 
L 103.737974 246.479838 
L 103.498751 245.921654 
L 103.419011 245.363469 
L 103.419011 240.419548 
L 103.578492 239.701882 
L 103.977196 239.063957 
L 104.615123 238.665254 
L 105.33279 238.505773 
L 108.2832 238.505773 
" clip-path="url(#pa3a46fe59d)" style="fill: none; stroke: #808080; stroke-width: 0.455223; stroke-linecap: round"/>
   </g>
   <g id="line2d_47">
    <path d="M 110.24812 247.276729 
L 110.24812 238.505257 
L 115.1123 247.276729 
L 115.1123 238.505257 
" clip-path="url(#pa3a46fe59d)" style="fill: none; stroke: #808080; stroke-width: 0.455223; stroke-linecap: round"/>
   </g>
   <g id="line2d_48">
    <path d="M 117.076018 247.276464 
L 117.076018 238.504992 
L 119.468238 238.504992 
L 120.265645 238.584732 
L 120.90357 238.983435 
L 121.461754 239.461879 
L 121.780717 240.179545 
L 121.940198 240.897211 
L 121.940198 244.804503 
L 121.780717 245.60191 
L 121.461754 246.239835 
L 120.90357 246.79802 
L 120.265645 247.196723 
L 119.468238 247.276464 
L 117.076018 247.276464 
" clip-path="url(#pa3a46fe59d)" style="fill: none; stroke: #808080; stroke-width: 0.455223; stroke-linecap: round"/>
   </g>
   <g id="patch_14">
    <path d="M 155.509284 67.074657 
C 148.382133 67.074657 141.539601 69.908927 136.499944 74.948584 
C 131.460287 79.988241 128.626017 86.830773 128.626017 93.957924 
" clip-path="url(#pa3a46fe59d)" style="fill: none; stroke: #808080; stroke-width: 1.138058; stroke-linejoin: miter"/>
   </g>
   <g id="line2d_49">
    <path d="M 128.626031 93.957924 
L 128.626031 255.257442 
" clip-path="url(#pa3a46fe59d)" style="fill: none; stroke: #808080; stroke-width: 1.138058; stroke-linecap: round"/>
   </g>
   <g id="patch_15">
    <path d="M 128.626017 255.257442 
C 128.626017 262.384593 131.460287 269.227125 136.499944 274.266781 
C 141.539601 279.306438 148.382133 282.140708 155.509284 282.140709 
" clip-path="url(#pa3a46fe59d)" style="fill: none; stroke: #808080; stroke-width: 1.138058; stroke-linejoin: miter"/>
   </g>
   <g id="line2d_50">
    <path d="M 155.509284 282.140695 
L 316.808802 282.140695 
" clip-path="url(#pa3a46fe59d)" style="fill: none; stroke: #808080; stroke-width: 1.138058; stroke-linecap: round"/>
   </g>
   <g id="patch_16">
    <path d="M 316.808802 282.140709 
C 323.935953 282.140708 330.778485 279.306438 335.818142 274.266781 
C 340.857799 269.227125 343.692068 262.384593 343.692069 255.257442 
" clip-path="url(#pa3a46fe59d)" style="fill: none; stroke: #808080; stroke-width: 1.138058; stroke-linejoin: miter"/>
   </g>
   <g id="line2d_51">
    <path d="M 343.692055 255.257442 
L 343.692055 93.957924 
" clip-path="url(#pa3a46fe59d)" style="fill: none; stroke: #808080; stroke-width: 1.138058; stroke-linecap: round"/>
   </g>
   <g id="patch_17">
    <path d="M 343.692069 93.957924 
C 343.692068 86.830773 340.857799 79.988241 335.818142 74.948584 
C 330.778485 69.908927 323.935953 67.074657 316.808802 67.074657 
" clip-path="url(#pa3a46fe59d)" style="fill: none; stroke: #808080; stroke-width: 1.138058; stroke-linejoin: miter"/>
   </g>
   <g id="line2d_52">
    <path d="M 316.808802 67.074671 
L 155.509284 67.074671 
" clip-path="url(#pa3a46fe59d)" style="fill: none; stroke: #808080; stroke-width: 1.138058; stroke-linecap: round"/>
   </g>
   <g id="line2d_53">
    <path d="M 191.353621 273.17961 
L 191.353621 264.218526 
" clip-path="url(#pa3a46fe59d)" style="fill: none; stroke: #808080; stroke-width: 1.138058; stroke-linecap: round"/>
   </g>
   <g id="patch_18">
    <path d="M 200.314706 255.257344 
C 199.137943 255.257349 197.972623 255.489152 196.885439 255.939487 
C 195.798255 256.389822 194.810348 257.04993 193.978258 257.882034 
C 193.146168 258.714138 192.486076 259.702056 192.03576 260.789248 
C 191.585444 261.87644 191.353661 263.041763 191.353675 264.218526 
" clip-path="url(#pa3a46fe59d)" style="fill: none; stroke: #808080; stroke-width: 1.138058; stroke-linejoin: miter"/>
   </g>
   <g id="line2d_54">
    <path d="M 200.314706 255.257442 
L 272.00338 255.257442 
" clip-path="url(#pa3a46fe59d)" style="fill: none; stroke: #808080; stroke-width: 1.138058; stroke-linecap: round"/>
   </g>
   <g id="patch_19">
    <path d="M 280.96441 264.218526 
C 280.964425 263.041763 280.732642 261.87644 280.282326 260.789248 
C 279.832009 259.702056 279.171918 258.714138 278.339828 257.882034 
C 277.507738 257.04993 276.519831 256.389822 275.432647 255.939487 
C 274.345463 255.489152 273.180143 255.257349 272.00338 255.257344 
" clip-path="url(#pa3a46fe59d)" style="fill: none; stroke: #808080; stroke-width: 1.138058; stroke-linejoin: miter"/>
   </g>
   <g id="line2d_55">
    <path d="M 280.964464 264.218526 
L 280.964464 273.17961 
" clip-path="url(#pa3a46fe59d)" style="fill: none; stroke: #808080; stroke-width: 1.138058; stroke-linecap: round"/>
   </g>
   <g id="patch_20">
    <path d="M 167.87558 181.77655 
C 169.776786 181.77655 171.60038 181.021193 172.944735 179.676838 
C 174.289091 178.332482 175.044448 176.508889 175.044448 174.607683 
C 175.044448 172.706477 174.289091 170.882884 172.944735 169.538528 
C 171.60038 168.194172 169.776786 167.438815 167.87558 167.438815 
C 165.974375 167.438815 164.150781 168.194172 162.806426 169.538528 
C 161.46207 170.882884 160.706713 172.706477 160.706713 174.607683 
C 160.706713 176.508889 161.46207 178.332482 162.806426 179.676838 
C 164.150781 181.021193 165.974375 181.77655 167.87558 181.77655 
z
" clip-path="url(#pa3a46fe59d)" style="fill: #0dab76"/>
   </g>
   <g id="patch_21">
    <path d="M 167.87558 178.192117 
C 168.826183 178.192117 169.73798 177.814438 170.410158 177.14226 
C 171.082336 176.470082 171.460014 175.558286 171.460014 174.607683 
C 171.460014 173.65708 171.082336 172.745283 170.410158 172.073105 
C 169.73798 171.400928 168.826183 171.023249 167.87558 171.023249 
C 166.924978 171.023249 166.013181 171.400928 165.341003 172.073105 
C 164.668825 172.745283 164.291147 173.65708 164.291147 174.607683 
C 164.291147 175.558286 164.668825 176.470082 165.341003 177.14226 
C 166.013181 177.814438 166.924978 178.192117 167.87558 178.192117 
z
" clip-path="url(#pa3a46fe59d)" style="fill: #a0a0a0"/>
   </g>
   <g id="patch_22">
    <path d="M 304.442505 181.77655 
C 306.343711 181.77655 308.167305 181.021193 309.51166 179.676838 
C 310.856016 178.332482 311.611373 176.508889 311.611373 174.607683 
C 311.611373 172.706477 310.856016 170.882884 309.51166 169.538528 
C 308.167305 168.194172 306.343711 167.438815 304.442505 167.438815 
C 302.5413 167.438815 300.717706 168.194172 299.373351 169.538528 
C 298.028995 170.882884 297.273638 172.706477 297.273638 174.607683 
C 297.273638 176.508889 298.028995 178.332482 299.373351 179.676838 
C 300.717706 181.021193 302.5413 181.77655 304.442505 181.77655 
z
" clip-path="url(#pa3a46fe59d)" style="fill: #0dab76"/>
   </g>
   <g id="patch_23">
    <path d="M 304.442505 178.192117 
C 305.393108 178.192117 306.304905 177.814438 306.977083 177.14226 
C 307.649261 176.470082 308.026939 175.558286 308.026939 174.607683 
C 308.026939 173.65708 307.649261 172.745283 306.977083 172.073105 
C 306.304905 171.400928 305.393108 171.023249 304.442505 171.023249 
C 303.491902 171.023249 302.580106 171.400928 301.907928 172.073105 
C 301.23575 172.745283 300.858072 173.65708 300.858072 174.607683 
C 300.858072 175.558286 301.23575 176.470082 301.907928 177.14226 
C 302.580106 177.814438 303.491902 178.192117 304.442505 178.192117 
z
" clip-path="url(#pa3a46fe59d)" style="fill: #a0a0a0"/>
   </g>
   <g id="patch_24">
    <path d="M 167.87558 204.537704 
C 169.776786 204.537704 171.60038 203.782347 172.944735 202.437992 
C 174.289091 201.093636 175.044448 199.270043 175.044448 197.368837 
C 175.044448 195.467631 174.289091 193.644038 172.944735 192.299682 
C 171.60038 190.955327 169.776786 190.199969 167.87558 190.199969 
C 165.974375 190.199969 164.150781 190.955327 162.806426 192.299682 
C 161.46207 193.644038 160.706713 195.467631 160.706713 197.368837 
C 160.706713 199.270043 161.46207 201.093636 162.806426 202.437992 
C 164.150781 203.782347 165.974375 204.537704 167.87558 204.537704 
z
" clip-path="url(#pa3a46fe59d)" style="fill: #0dab76"/>
   </g>
   <g id="patch_25">
    <path d="M 167.87558 200.953271 
C 168.826183 200.953271 169.73798 200.575592 170.410158 199.903414 
C 171.082336 199.231237 171.460014 198.31944 171.460014 197.368837 
C 171.460014 196.418234 171.082336 195.506437 170.410158 194.83426 
C 169.73798 194.162082 168.826183 193.784403 167.87558 193.784403 
C 166.924978 193.784403 166.013181 194.162082 165.341003 194.83426 
C 164.668825 195.506437 164.291147 196.418234 164.291147 197.368837 
C 164.291147 198.31944 164.668825 199.231237 165.341003 199.903414 
C 166.013181 200.575592 166.924978 200.953271 167.87558 200.953271 
z
" clip-path="url(#pa3a46fe59d)" style="fill: #a0a0a0"/>
   </g>
   <g id="patch_26">
    <path d="M 167.87558 227.298859 
C 169.776786 227.298859 171.60038 226.543501 172.944735 225.199146 
C 174.289091 223.85479 175.044448 222.031197 175.044448 220.129991 
C 175.044448 218.228785 174.289091 216.405192 172.944735 215.060836 
C 171.60038 213.716481 169.776786 212.961124 167.87558 212.961124 
C 165.974375 212.961124 164.150781 213.716481 162.806426 215.060836 
C 161.46207 216.405192 160.706713 218.228785 160.706713 220.129991 
C 160.706713 222.031197 161.46207 223.85479 162.806426 225.199146 
C 164.150781 226.543501 165.974375 227.298859 167.87558 227.298859 
z
" clip-path="url(#pa3a46fe59d)" style="fill: #0dab76"/>
   </g>
   <g id="patch_27">
    <path d="M 167.87558 223.714425 
C 168.826183 223.714425 169.73798 223.336746 170.410158 222.664568 
C 171.082336 221.992391 171.460014 221.080594 171.460014 220.129991 
C 171.460014 219.179388 171.082336 218.267591 170.410158 217.595414 
C 169.73798 216.923236 168.826183 216.545557 167.87558 216.545557 
C 166.924978 216.545557 166.013181 216.923236 165.341003 217.595414 
C 164.668825 218.267591 164.291147 219.179388 164.291147 220.129991 
C 164.291147 221.080594 164.668825 221.992391 165.341003 222.664568 
C 166.013181 223.336746 166.924978 223.714425 167.87558 223.714425 
z
" clip-path="url(#pa3a46fe59d)" style="fill: #a0a0a0"/>
   </g>
   <g id="patch_28">
    <path d="M 167.87558 250.060013 
C 169.776786 250.060013 171.60038 249.304656 172.944735 247.9603 
C 174.289091 246.615944 175.044448 244.792351 175.044448 242.891145 
C 175.044448 240.989939 174.289091 239.166346 172.944735 237.82199 
C 171.60038 236.477635 169.776786 235.722278 167.87558 235.722278 
C 165.974375 235.722278 164.150781 236.477635 162.806426 237.82199 
C 161.46207 239.166346 160.706713 240.989939 160.706713 242.891145 
C 160.706713 244.792351 161.46207 246.615944 162.806426 247.9603 
C 164.150781 249.304656 165.974375 250.060013 167.87558 250.060013 
z
" clip-path="url(#pa3a46fe59d)" style="fill: #0dab76"/>
   </g>
   <g id="patch_29">
    <path d="M 167.87558 246.475579 
C 168.826183 246.475579 169.73798 246.0979 170.410158 245.425723 
C 171.082336 244.753545 171.460014 243.841748 171.460014 242.891145 
C 171.460014 241.940542 171.082336 241.028746 170.410158 240.356568 
C 169.73798 239.68439 168.826183 239.306712 167.87558 239.306712 
C 166.924978 239.306712 166.013181 239.68439 165.341003 240.356568 
C 164.668825 241.028746 164.291147 241.940542 164.291147 242.891145 
C 164.291147 243.841748 164.668825 244.753545 165.341003 245.425723 
C 166.013181 246.0979 166.924978 246.475579 167.87558 246.475579 
z
" clip-path="url(#pa3a46fe59d)" style="fill: #a0a0a0"/>
   </g>
   <g id="patch_30">
    <path d="M 304.442505 159.015396 
C 306.343711 159.015396 308.167305 158.260039 309.51166 156.915683 
C 310.856016 155.571328 311.611373 153.747735 311.611373 151.846529 
C 311.611373 149.945323 310.856016 148.121729 309.51166 146.777374 
C 308.167305 145.433018 306.343711 144.677661 304.442505 144.677661 
C 302.5413 144.677661 300.717706 145.433018 299.373351 146.777374 
C 298.028995 148.121729 297.273638 149.945323 297.273638 151.846529 
C 297.273638 153.747735 298.028995 155.571328 299.373351 156.915683 
C 300.717706 158.260039 302.5413 159.015396 304.442505 159.015396 
z
" clip-path="url(#pa3a46fe59d)" style="fill: #0dab76"/>
   </g>
   <g id="patch_31">
    <path d="M 304.442505 155.430962 
C 305.393108 155.430962 306.304905 155.053284 306.977083 154.381106 
C 307.649261 153.708928 308.026939 152.797132 308.026939 151.846529 
C 308.026939 150.895926 307.649261 149.984129 306.977083 149.311951 
C 306.304905 148.639773 305.393108 148.262095 304.442505 148.262095 
C 303.491902 148.262095 302.580106 148.639773 301.907928 149.311951 
C 301.23575 149.984129 300.858072 150.895926 300.858072 151.846529 
C 300.858072 152.797132 301.23575 153.708928 301.907928 154.381106 
C 302.580106 155.053284 303.491902 155.430962 304.442505 155.430962 
z
" clip-path="url(#pa3a46fe59d)" style="fill: #a0a0a0"/>
   </g>
   <g id="patch_32">
    <path d="M 304.442505 204.537704 
C 306.343711 204.537704 308.167305 203.782347 309.51166 202.437992 
C 310.856016 201.093636 311.611373 199.270043 311.611373 197.368837 
C 311.611373 195.467631 310.856016 193.644038 309.51166 192.299682 
C 308.167305 190.955327 306.343711 190.199969 304.442505 190.199969 
C 302.5413 190.199969 300.717706 190.955327 299.373351 192.299682 
C 298.028995 193.644038 297.273638 195.467631 297.273638 197.368837 
C 297.273638 199.270043 298.028995 201.093636 299.373351 202.437992 
C 300.717706 203.782347 302.5413 204.537704 304.442505 204.537704 
z
" clip-path="url(#pa3a46fe59d)" style="fill: #0dab76"/>
   </g>
   <g id="patch_33">
    <path d="M 304.442505 200.953271 
C 305.393108 200.953271 306.304905 200.575592 306.977083 199.903414 
C 307.649261 199.231237 308.026939 198.31944 308.026939 197.368837 
C 308.026939 196.418234 307.649261 195.506437 306.977083 194.83426 
C 306.304905 194.162082 305.393108 193.784403 304.442505 193.784403 
C 303.491902 193.784403 302.580106 194.162082 301.907928 194.83426 
C 301.23575 195.506437 300.858072 196.418234 300.858072 197.368837 
C 300.858072 198.31944 301.23575 199.231237 301.907928 199.903414 
C 302.580106 200.575592 303.491902 200.953271 304.442505 200.953271 
z
" clip-path="url(#pa3a46fe59d)" style="fill: #a0a0a0"/>
   </g>
   <g id="patch_34">
    <path d="M 304.442505 227.298859 
C 306.343711 227.298859 308.167305 226.543501 309.51166 225.199146 
C 310.856016 223.85479 311.611373 222.031197 311.611373 220.129991 
C 311.611373 218.228785 310.856016 216.405192 309.51166 215.060836 
C 308.167305 213.716481 306.343711 212.961124 304.442505 212.961124 
C 302.5413 212.961124 300.717706 213.716481 299.373351 215.060836 
C 298.028995 216.405192 297.273638 218.228785 297.273638 220.129991 
C 297.273638 222.031197 298.028995 223.85479 299.373351 225.199146 
C 300.717706 226.543501 302.5413 227.298859 304.442505 227.298859 
z
" clip-path="url(#pa3a46fe59d)" style="fill: #0dab76"/>
   </g>
   <g id="patch_35">
    <path d="M 304.442505 223.714425 
C 305.393108 223.714425 306.304905 223.336746 306.977083 222.664568 
C 307.649261 221.992391 308.026939 221.080594 308.026939 220.129991 
C 308.026939 219.179388 307.649261 218.267591 306.977083 217.595414 
C 306.304905 216.923236 305.393108 216.545557 304.442505 216.545557 
C 303.491902 216.545557 302.580106 216.923236 301.907928 217.595414 
C 301.23575 218.267591 300.858072 219.179388 300.858072 220.129991 
C 300.858072 221.080594 301.23575 221.992391 301.907928 222.664568 
C 302.580106 223.336746 303.491902 223.714425 304.442505 223.714425 
z
" clip-path="url(#pa3a46fe59d)" style="fill: #a0a0a0"/>
   </g>
   <g id="patch_36">
    <path d="M 304.442505 250.060013 
C 306.343711 250.060013 308.167305 249.304656 309.51166 247.9603 
C 310.856016 246.615944 311.611373 244.792351 311.611373 242.891145 
C 311.611373 240.989939 310.856016 239.166346 309.51166 237.82199 
C 308.167305 236.477635 306.343711 235.722278 304.442505 235.722278 
C 302.5413 235.722278 300.717706 236.477635 299.373351 237.82199 
C 298.028995 239.166346 297.273638 240.989939 297.273638 242.891145 
C 297.273638 244.792351 298.028995 246.615944 299.373351 247.9603 
C 300.717706 249.304656 302.5413 250.060013 304.442505 250.060013 
z
" clip-path="url(#pa3a46fe59d)" style="fill: #0dab76"/>
   </g>
   <g id="patch_37">
    <path d="M 304.442505 246.475579 
C 305.393108 246.475579 306.304905 246.0979 306.977083 245.425723 
C 307.649261 244.753545 308.026939 243.841748 308.026939 242.891145 
C 308.026939 241.940542 307.649261 241.028746 306.977083 240.356568 
C 306.304905 239.68439 305.393108 239.306712 304.442505 239.306712 
C 303.491902 239.306712 302.580106 239.68439 301.907928 240.356568 
C 301.23575 241.028746 300.858072 241.940542 300.858072 242.891145 
C 300.858072 243.841748 301.23575 244.753545 301.907928 245.425723 
C 302.580106 246.0979 303.491902 246.475579 304.442505 246.475579 
z
" clip-path="url(#pa3a46fe59d)" style="fill: #a0a0a0"/>
   </g>
   <g id="matplotlib.axis_1">
    <g id="xtick_1">
     <g id="line2d_56">
      <defs>
       <path id="maa8980f892" d="M 0 0 
L 0 3.5 
" style="stroke: #ffffff; stroke-width: 0.8"/>
      </defs>
      <g>
       <use xlink:href="#maa8980f892" x="101.742778" y="307.584" style="fill: #ffffff; stroke: #ffffff; stroke-width: 0.8"/>
      </g>
     </g>
     <g id="text_1">
      <text style="fill: #ffffff; font: 10px 'sans-serif'; text-anchor: middle" x="101.742778" y="322.182437" transform="rotate(-0, 101.742778, 322.182437)">−15</text>
     </g>
    </g>
    <g id="xtick_2">
     <g id="line2d_57">
      <g>
       <use xlink:href="#maa8980f892" x="146.5482" y="307.584" style="fill: #ffffff; stroke: #ffffff; stroke-width: 0.8"/>
      </g>
     </g>
     <g id="text_2">
      <text style="fill: #ffffff; font: 10px 'sans-serif'; text-anchor: middle" x="146.5482" y="322.182437" transform="rotate(-0, 146.5482, 322.182437)">−10</text>
     </g>
    </g>
    <g id="xtick_3">
     <g id="line2d_58">
      <g>
       <use xlink:href="#maa8980f892" x="191.353621" y="307.584" style="fill: #ffffff; stroke: #ffffff; stroke-width: 0.8"/>
      </g>
     </g>
     <g id="text_3">
      <text style="fill: #ffffff; font: 10px 'sans-serif'; text-anchor: middle" x="191.353621" y="322.182437" transform="rotate(-0, 191.353621, 322.182437)">−5</text>
     </g>
    </g>
    <g id="xtick_4">
     <g id="line2d_59">
      <g>
       <use xlink:href="#maa8980f892" x="236.159043" y="307.584" style="fill: #ffffff; stroke: #ffffff; stroke-width: 0.8"/>
      </g>
     </g>
     <g id="text_4">
      <text style="fill: #ffffff; font: 10px 'sans-serif'; text-anchor: middle" x="236.159043" y="322.182437" transform="rotate(-0, 236.159043, 322.182437)">0</text>
     </g>
    </g>
    <g id="xtick_5">
     <g id="line2d_60">
      <g>
       <use xlink:href="#maa8980f892" x="280.964464" y="307.584" style="fill: #ffffff; stroke: #ffffff; stroke-width: 0.8"/>
      </g>
     </g>
     <g id="text_5">
      <text style="fill: #ffffff; font: 10px 'sans-serif'; text-anchor: middle" x="280.964464" y="322.182437" transform="rotate(-0, 280.964464, 322.182437)">5</text>
     </g>
    </g>
    <g id="xtick_6">
     <g id="line2d_61">
      <g>
       <use xlink:href="#maa8980f892" x="325.769886" y="307.584" style="fill: #ffffff; stroke: #ffffff; stroke-width: 0.8"/>
      </g>
     </g>
     <g id="text_6">
      <text style="fill: #ffffff; font: 10px 'sans-serif'; text-anchor: middle" x="325.769886" y="322.182437" transform="rotate(-0, 325.769886, 322.182437)">10</text>
     </g>
    </g>
    <g id="xtick_7">
     <g id="line2d_62">
      <g>
       <use xlink:href="#maa8980f892" x="370.575308" y="307.584" style="fill: #ffffff; stroke: #ffffff; stroke-width: 0.8"/>
      </g>
     </g>
     <g id="text_7">
      <text style="fill: #ffffff; font: 10px 'sans-serif'; text-anchor: middle" x="370.575308" y="322.182437" transform="rotate(-0, 370.575308, 322.182437)">15</text>
     </g>
    </g>
   </g>
   <g id="matplotlib.axis_2">
    <g id="ytick_1">
     <g id="line2d_63">
      <defs>
       <path id="mb4e74fddc9" d="M 0 0 
L -3.5 0 
" style="stroke: #ffffff; stroke-width: 0.8"/>
      </defs>
      <g>
       <use xlink:href="#mb4e74fddc9" x="90.144912" y="264.218526" style="fill: #ffffff; stroke: #ffffff; stroke-width: 0.8"/>
      </g>
     </g>
     <g id="text_8">
      <text style="fill: #ffffff; font: 10px 'sans-serif'; text-anchor: end" x="83.144912" y="268.017745" transform="rotate(-0, 83.144912, 268.017745)">−10</text>
     </g>
    </g>
    <g id="ytick_2">
     <g id="line2d_64">
      <g>
       <use xlink:href="#mb4e74fddc9" x="90.144912" y="219.413104" style="fill: #ffffff; stroke: #ffffff; stroke-width: 0.8"/>
      </g>
     </g>
     <g id="text_9">
      <text style="fill: #ffffff; font: 10px 'sans-serif'; text-anchor: end" x="83.144912" y="223.212323" transform="rotate(-0, 83.144912, 223.212323)">−5</text>
     </g>
    </g>
    <g id="ytick_3">
     <g id="line2d_65">
      <g>
       <use xlink:href="#mb4e74fddc9" x="90.144912" y="174.607683" style="fill: #ffffff; stroke: #ffffff; stroke-width: 0.8"/>
      </g>
     </g>
     <g id="text_10">
      <text style="fill: #ffffff; font: 10px 'sans-serif'; text-anchor: end" x="83.144912" y="178.406902" transform="rotate(-0, 83.144912, 178.406902)">0</text>
     </g>
    </g>
    <g id="ytick_4">
     <g id="line2d_66">
      <g>
       <use xlink:href="#mb4e74fddc9" x="90.144912" y="129.802261" style="fill: #ffffff; stroke: #ffffff; stroke-width: 0.8"/>
      </g>
     </g>
     <g id="text_11">
      <text style="fill: #ffffff; font: 10px 'sans-serif'; text-anchor: end" x="83.144912" y="133.60148" transform="rotate(-0, 83.144912, 133.60148)">5</text>
     </g>
    </g>
    <g id="ytick_5">
     <g id="line2d_67">
      <g>
       <use xlink:href="#mb4e74fddc9" x="90.144912" y="84.99684" style="fill: #ffffff; stroke: #ffffff; stroke-width: 0.8"/>
      </g>
     </g>
     <g id="text_12">
      <text style="fill: #ffffff; font: 10px 'sans-serif'; text-anchor: end" x="83.144912" y="88.796058" transform="rotate(-0, 83.144912, 88.796058)">10</text>
     </g>
    </g>
   </g>
   <g id="patch_38">
    <path d="M 90.144912 307.584 
L 90.144912 41.472 
" style="fill: none; stroke: #ffffff; stroke-width: 0.8; stroke-linejoin: miter; stroke-linecap: square"/>
   </g>
   <g id="patch_39">
    <path d="M 382.175088 307.584 
L 382.175088 41.472 
" style="fill: none; stroke: #ffffff; stroke-width: 0.8; stroke-linejoin: miter; stroke-linecap: square"/>
   </g>
   <g id="patch_40">
    <path d="M 90.144912 307.584 
L 382.175088 307.584 
" style="fill: none; stroke: #ffffff; stroke-width: 0.8; stroke-linejoin: miter; stroke-linecap: square"/>
   </g>
   <g id="patch_41">
    <path d="M 90.144912 41.472 
L 382.175088 41.472 
" style="fill: none; stroke: #ffffff; stroke-width: 0.8; stroke-linejoin: miter; stroke-linecap: square"/>
   </g>
   <g id="text_13">
    <text style="fill: #ffffff; font: 12px 'sans-serif'; text-anchor: middle" x="236.16" y="35.472" transform="rotate(-0, 236.16, 35.472)">M5ATOM-WITH-LABELS</text>
   </g>
  </g>
 </g>
 <defs>
  <clipPath id="pa3a46fe59d">
   <rect x="90.144912" y="41.472" width="292.030177" height="266.112"/>
  </clipPath>
 </defs>
</svg>
