<?xml version="1.0" encoding="utf-8" standalone="no"?>
<!DOCTYPE svg PUBLIC "-//W3C//DTD SVG 1.1//EN"
  "http://www.w3.org/Graphics/SVG/1.1/DTD/svg11.dtd">
<svg xmlns:xlink="http://www.w3.org/1999/xlink" width="460.8pt" height="345.6pt" viewBox="0 0 460.8 345.6" xmlns="http://www.w3.org/2000/svg" version="1.1">
 <metadata>
  <rdf:RDF xmlns:dc="http://purl.org/dc/elements/1.1/" xmlns:cc="http://creativecommons.org/ns#" xmlns:rdf="http://www.w3.org/1999/02/22-rdf-syntax-ns#">
   <cc:Work>
    <dc:type rdf:resource="http://purl.org/dc/dcmitype/StillImage"/>
    <dc:date>2023-02-18T16:06:05.326656</dc:date>
    <dc:format>image/svg+xml</dc:format>
    <dc:creator>
     <cc:Agent>
      <dc:title>Matplotlib v3.5.1, https://matplotlib.org/</dc:title>
     </cc:Agent>
    </dc:creator>
   </cc:Work>
  </rdf:RDF>
 </metadata>
 <defs>
  <style type="text/css">*{stroke-linejoin: round; stroke-linecap: butt}</style>
 </defs>
 <g id="figure_1">
  <g id="patch_1">
   <path d="M 0 345.6 
L 460.8 345.6 
L 460.8 0 
L 0 0 
z
" style="fill: #2b2b2b"/>
  </g>
  <g id="axes_1">
   <g id="patch_2">
    <path d="M 117.873671 307.584 
L 354.446329 307.584 
L 354.446329 41.472 
L 117.873671 41.472 
z
" style="fill: #2b2b2b"/>
   </g>
   <g id="patch_3">
    <path d="M 315.82404 151.936139 
C 315.847805 151.936139 315.8706 151.926698 315.887404 151.909893 
C 315.904208 151.893089 315.91365 151.870294 315.91365 151.846529 
C 315.91365 151.822764 315.904208 151.799969 315.887404 151.783164 
C 315.8706 151.76636 315.847805 151.756918 315.82404 151.756918 
C 315.800274 151.756918 315.77748 151.76636 315.760675 151.783164 
C 315.743871 151.799969 315.734429 151.822764 315.734429 151.846529 
C 315.734429 151.870294 315.743871 151.893089 315.760675 151.909893 
C 315.77748 151.926698 315.800274 151.936139 315.82404 151.936139 
L 315.82404 151.936139 
z
" clip-path="url(#pa561da9244)" style="fill: none; stroke: #ffcd07; stroke-width: 0.896108; stroke-linejoin: miter"/>
   </g>
   <g id="line2d_1">
    <path d="M 316.237114 156.232072 
L 318.629333 156.232072 
L 319.42674 156.152331 
L 320.064665 155.753628 
L 320.62285 155.195443 
L 320.941812 154.557518 
L 321.101294 153.760111 
L 320.941812 153.042445 
L 320.62285 152.324779 
L 320.064665 151.846336 
L 319.42674 151.447632 
L 318.629333 151.367892 
" clip-path="url(#pa561da9244)" style="fill: none; stroke: #ffcd07; stroke-width: 0.455223; stroke-linecap: round"/>
   </g>
   <g id="line2d_2">
    <path d="M 316.237114 147.460429 
L 319.107777 147.460429 
L 319.825443 147.54017 
L 320.383628 147.859132 
L 320.862072 148.417317 
L 321.101294 149.055242 
L 321.101294 149.693168 
L 320.862072 150.331093 
L 320.383628 150.889277 
L 319.825443 151.20824 
L 319.107777 151.367721 
L 317.194002 151.367721 
" clip-path="url(#pa561da9244)" style="fill: none; stroke: #ffcd07; stroke-width: 0.455223; stroke-linecap: round"/>
   </g>
   <g id="line2d_3">
    <path d="M 322.586858 147.46086 
L 325.537363 156.232636 
L 325.537363 156.232636 
L 328.407791 147.460635 
L 328.407791 147.460635 
" clip-path="url(#pa561da9244)" style="fill: none; stroke: #ffcd07; stroke-width: 0.455223; stroke-linecap: round"/>
   </g>
   <g id="line2d_4">
    <path d="M 329.893806 156.232072 
L 332.286026 156.232072 
L 333.083432 156.152331 
L 333.721358 155.753628 
L 334.279542 155.195443 
L 334.598505 154.557518 
L 334.757986 153.760111 
L 334.598505 153.042445 
L 334.279542 152.324779 
L 333.721358 151.846336 
L 333.083432 151.447632 
L 332.286026 151.367892 
" clip-path="url(#pa561da9244)" style="fill: none; stroke: #ffcd07; stroke-width: 0.455223; stroke-linecap: round"/>
   </g>
   <g id="line2d_5">
    <path d="M 329.893806 147.460429 
L 332.76447 147.460429 
L 333.482136 147.54017 
L 334.04032 147.859132 
L 334.518764 148.417317 
L 334.757986 149.055242 
L 334.757986 149.693168 
L 334.518764 150.331093 
L 334.04032 150.889277 
L 333.482136 151.20824 
L 332.76447 151.367721 
L 330.850694 151.367721 
" clip-path="url(#pa561da9244)" style="fill: none; stroke: #ffcd07; stroke-width: 0.455223; stroke-linecap: round"/>
   </g>
   <g id="patch_4">
    <path d="M 315.82404 174.697294 
C 315.847805 174.697294 315.8706 174.687852 315.887404 174.671047 
C 315.904208 174.654243 315.91365 174.631448 315.91365 174.607683 
C 315.91365 174.583918 315.904208 174.561123 315.887404 174.544318 
C 315.8706 174.527514 315.847805 174.518072 315.82404 174.518072 
C 315.800274 174.518072 315.77748 174.527514 315.760675 174.544318 
C 315.743871 174.561123 315.734429 174.583918 315.734429 174.607683 
C 315.734429 174.631448 315.743871 174.654243 315.760675 174.671047 
C 315.77748 174.687852 315.800274 174.697294 315.82404 174.697294 
L 315.82404 174.697294 
z
" clip-path="url(#pa561da9244)" style="fill: none; stroke: #ffcd07; stroke-width: 0.896108; stroke-linejoin: miter"/>
   </g>
   <g id="line2d_6">
    <path d="M 319.665614 174.129602 
L 321.100949 174.129602 
L 321.100949 178.993782 
L 318.150539 178.993782 
L 317.592353 178.914042 
L 317.034167 178.595079 
L 316.555722 178.196376 
L 316.3165 177.638191 
L 316.236759 177.080007 
L 316.236759 172.136086 
L 316.396241 171.41842 
L 316.794945 170.780495 
L 317.432871 170.381791 
L 318.150539 170.22231 
L 321.100949 170.22231 
" clip-path="url(#pa561da9244)" style="fill: none; stroke: #ffcd07; stroke-width: 0.455223; stroke-linecap: round"/>
   </g>
   <g id="line2d_7">
    <path d="M 327.929672 178.993406 
L 323.065492 178.993406 
L 323.065492 178.993406 
L 327.212006 174.129226 
L 327.212006 174.129226 
L 327.212006 174.129226 
L 327.610709 173.650782 
L 327.610709 173.650782 
L 327.849931 173.012857 
L 327.929672 172.374932 
L 327.849931 171.737007 
L 327.530969 171.099081 
L 327.052525 170.620637 
L 326.414599 170.301675 
L 325.776674 170.221934 
L 324.899527 170.301675 
L 324.10212 170.700378 
L 323.464195 171.338303 
L 323.065492 172.13571 
" clip-path="url(#pa561da9244)" style="fill: none; stroke: #ffcd07; stroke-width: 0.455223; stroke-linecap: round"/>
   </g>
   <g id="line2d_8">
    <path d="M 334.758018 178.993406 
L 329.893838 178.993406 
L 329.893838 178.993406 
L 334.040352 174.129226 
L 334.040352 174.129226 
L 334.040352 174.129226 
L 334.439055 173.650782 
L 334.439055 173.650782 
L 334.678277 173.012857 
L 334.758018 172.374932 
L 334.678277 171.737007 
L 334.359315 171.099081 
L 333.880871 170.620637 
L 333.242946 170.301675 
L 332.60502 170.221934 
L 331.727873 170.301675 
L 330.930467 170.700378 
L 330.292541 171.338303 
L 329.893838 172.13571 
" clip-path="url(#pa561da9244)" style="fill: none; stroke: #ffcd07; stroke-width: 0.455223; stroke-linecap: round"/>
   </g>
   <g id="patch_5">
    <path d="M 315.82404 197.458448 
C 315.847805 197.458448 315.8706 197.449006 315.887404 197.432201 
C 315.904208 197.415397 315.91365 197.392602 315.91365 197.368837 
C 315.91365 197.345072 315.904208 197.322277 315.887404 197.305473 
C 315.8706 197.288668 315.847805 197.279226 315.82404 197.279226 
C 315.800274 197.279226 315.77748 197.288668 315.760675 197.305473 
C 315.743871 197.322277 315.734429 197.345072 315.734429 197.368837 
C 315.734429 197.392602 315.743871 197.415397 315.760675 197.432201 
C 315.77748 197.449006 315.800274 197.458448 315.82404 197.458448 
L 315.82404 197.458448 
z
" clip-path="url(#pa561da9244)" style="fill: none; stroke: #ffcd07; stroke-width: 0.896108; stroke-linejoin: miter"/>
   </g>
   <g id="line2d_9">
    <path d="M 319.665614 196.890756 
L 321.100949 196.890756 
L 321.100949 201.754936 
L 318.150539 201.754936 
L 317.592353 201.675196 
L 317.034167 201.356233 
L 316.555722 200.95753 
L 316.3165 200.399345 
L 316.236759 199.841161 
L 316.236759 194.89724 
L 316.396241 194.179574 
L 316.794945 193.541649 
L 317.432871 193.142946 
L 318.150539 192.983464 
L 321.100949 192.983464 
" clip-path="url(#pa561da9244)" style="fill: none; stroke: #ffcd07; stroke-width: 0.455223; stroke-linecap: round"/>
   </g>
   <g id="line2d_10">
    <path d="M 323.025499 194.896576 
L 325.497169 192.983026 
L 325.497169 192.983026 
L 325.497128 201.754563 
L 325.497128 201.754563 
" clip-path="url(#pa561da9244)" style="fill: none; stroke: #ffcd07; stroke-width: 0.455223; stroke-linecap: round"/>
   </g>
   <g id="line2d_11">
    <path d="M 323.025647 201.75438 
L 327.969567 201.75438 
" clip-path="url(#pa561da9244)" style="fill: none; stroke: #ffcd07; stroke-width: 0.455223; stroke-linecap: round"/>
   </g>
   <g id="line2d_12">
    <path d="M 334.760215 197.847607 
L 331.889552 197.847607 
L 331.251626 197.767866 
L 330.693442 197.448903 
L 330.294739 197.0502 
L 329.975776 196.492015 
L 329.896035 195.85409 
L 329.896035 195.375646 
L 330.055517 194.65798 
L 330.374479 193.940314 
L 330.932664 193.461871 
L 331.570589 193.063167 
L 332.367996 192.983427 
L 333.085662 193.063167 
L 333.803327 193.461871 
L 334.361512 193.940314 
L 334.680475 194.65798 
L 334.760215 195.375646 
L 334.760215 197.847607 
L 334.680475 198.884235 
L 334.281771 199.841123 
L 333.643846 200.63853 
L 332.84644 201.196714 
L 331.889552 201.595417 
L 330.852923 201.754899 
" clip-path="url(#pa561da9244)" style="fill: none; stroke: #ffcd07; stroke-width: 0.455223; stroke-linecap: round"/>
   </g>
   <g id="patch_6">
    <path d="M 315.82404 220.219602 
C 315.847805 220.219602 315.8706 220.21016 315.887404 220.193356 
C 315.904208 220.176551 315.91365 220.153756 315.91365 220.129991 
C 315.91365 220.106226 315.904208 220.083431 315.887404 220.066627 
C 315.8706 220.049822 315.847805 220.04038 315.82404 220.04038 
C 315.800274 220.04038 315.77748 220.049822 315.760675 220.066627 
C 315.743871 220.083431 315.734429 220.106226 315.734429 220.129991 
C 315.734429 220.153756 315.743871 220.176551 315.760675 220.193356 
C 315.77748 220.21016 315.800274 220.219602 315.82404 220.219602 
L 315.82404 220.219602 
z
" clip-path="url(#pa561da9244)" style="fill: none; stroke: #ffcd07; stroke-width: 0.896108; stroke-linejoin: miter"/>
   </g>
   <g id="line2d_13">
    <path d="M 319.665614 219.651911 
L 321.100949 219.651911 
L 321.100949 224.516091 
L 318.150539 224.516091 
L 317.592353 224.43635 
L 317.034167 224.117387 
L 316.555722 223.718684 
L 316.3165 223.160499 
L 316.236759 222.602315 
L 316.236759 217.658394 
L 316.396241 216.940728 
L 316.794945 216.302803 
L 317.432871 215.9041 
L 318.150539 215.744618 
L 321.100949 215.744618 
" clip-path="url(#pa561da9244)" style="fill: none; stroke: #ffcd07; stroke-width: 0.455223; stroke-linecap: round"/>
   </g>
   <g id="line2d_14">
    <path d="M 327.929672 224.515715 
L 323.065492 224.515715 
L 323.065492 224.515715 
L 327.212006 219.651535 
L 327.212006 219.651535 
L 327.212006 219.651535 
L 327.610709 219.173091 
L 327.610709 219.173091 
L 327.849931 218.535165 
L 327.929672 217.89724 
L 327.849931 217.259315 
L 327.530969 216.62139 
L 327.052525 216.142946 
L 326.414599 215.823983 
L 325.776674 215.744242 
L 324.899527 215.823983 
L 324.10212 216.222686 
L 323.464195 216.860612 
L 323.065492 217.658018 
" clip-path="url(#pa561da9244)" style="fill: none; stroke: #ffcd07; stroke-width: 0.455223; stroke-linecap: round"/>
   </g>
   <g id="line2d_15">
    <path d="M 329.893806 224.515534 
L 332.286026 224.515534 
L 333.083432 224.435793 
L 333.721358 224.03709 
L 334.279542 223.478906 
L 334.598505 222.84098 
L 334.757986 222.043574 
L 334.598505 221.325908 
L 334.279542 220.608242 
L 333.721358 220.129798 
L 333.083432 219.731095 
L 332.286026 219.651354 
" clip-path="url(#pa561da9244)" style="fill: none; stroke: #ffcd07; stroke-width: 0.455223; stroke-linecap: round"/>
   </g>
   <g id="line2d_16">
    <path d="M 329.893806 215.743892 
L 332.76447 215.743892 
L 333.482136 215.823632 
L 334.04032 216.142595 
L 334.518764 216.700779 
L 334.757986 217.338705 
L 334.757986 217.97663 
L 334.518764 218.614555 
L 334.04032 219.17274 
L 333.482136 219.491702 
L 332.76447 219.651184 
L 330.850694 219.651184 
" clip-path="url(#pa561da9244)" style="fill: none; stroke: #ffcd07; stroke-width: 0.455223; stroke-linecap: round"/>
   </g>
   <g id="patch_7">
    <path d="M 315.82404 242.980756 
C 315.847805 242.980756 315.8706 242.971314 315.887404 242.95451 
C 315.904208 242.937705 315.91365 242.91491 315.91365 242.891145 
C 315.91365 242.86738 315.904208 242.844585 315.887404 242.827781 
C 315.8706 242.810976 315.847805 242.801534 315.82404 242.801534 
C 315.800274 242.801534 315.77748 242.810976 315.760675 242.827781 
C 315.743871 242.844585 315.734429 242.86738 315.734429 242.891145 
C 315.734429 242.91491 315.743871 242.937705 315.760675 242.95451 
C 315.77748 242.971314 315.800274 242.980756 315.82404 242.980756 
L 315.82404 242.980756 
z
" clip-path="url(#pa561da9244)" style="fill: none; stroke: #ffcd07; stroke-width: 0.896108; stroke-linejoin: miter"/>
   </g>
   <g id="line2d_17">
    <path d="M 319.665614 242.413065 
L 321.100949 242.413065 
L 321.100949 247.277245 
L 318.150539 247.277245 
L 317.592353 247.197504 
L 317.034167 246.878541 
L 316.555722 246.479838 
L 316.3165 245.921654 
L 316.236759 245.363469 
L 316.236759 240.419548 
L 316.396241 239.701882 
L 316.794945 239.063957 
L 317.432871 238.665254 
L 318.150539 238.505773 
L 321.100949 238.505773 
" clip-path="url(#pa561da9244)" style="fill: none; stroke: #ffcd07; stroke-width: 0.455223; stroke-linecap: round"/>
   </g>
   <g id="line2d_18">
    <path d="M 323.06546 247.276688 
L 325.45768 247.276688 
L 326.255086 247.196948 
L 326.893011 246.798244 
L 327.451196 246.24006 
L 327.770159 245.602134 
L 327.92964 244.804728 
L 327.770159 244.087062 
L 327.451196 243.369396 
L 326.893011 242.890952 
L 326.255086 242.492249 
L 325.45768 242.412508 
" clip-path="url(#pa561da9244)" style="fill: none; stroke: #ffcd07; stroke-width: 0.455223; stroke-linecap: round"/>
   </g>
   <g id="line2d_19">
    <path d="M 323.06546 238.505046 
L 325.936124 238.505046 
L 326.65379 238.584786 
L 327.211974 238.903749 
L 327.690418 239.461934 
L 327.92964 240.099859 
L 327.92964 240.737784 
L 327.690418 241.375709 
L 327.211974 241.933894 
L 326.65379 242.252857 
L 325.936124 242.412338 
L 324.022348 242.412338 
" clip-path="url(#pa561da9244)" style="fill: none; stroke: #ffcd07; stroke-width: 0.455223; stroke-linecap: round"/>
   </g>
   <g id="line2d_20">
    <path d="M 329.893806 247.276688 
L 332.286026 247.276688 
L 333.083432 247.196948 
L 333.721358 246.798244 
L 334.279542 246.24006 
L 334.598505 245.602134 
L 334.757986 244.804728 
L 334.598505 244.087062 
L 334.279542 243.369396 
L 333.721358 242.890952 
L 333.083432 242.492249 
L 332.286026 242.412508 
" clip-path="url(#pa561da9244)" style="fill: none; stroke: #ffcd07; stroke-width: 0.455223; stroke-linecap: round"/>
   </g>
   <g id="line2d_21">
    <path d="M 329.893806 238.505046 
L 332.76447 238.505046 
L 333.482136 238.584786 
L 334.04032 238.903749 
L 334.518764 239.461934 
L 334.757986 240.099859 
L 334.757986 240.737784 
L 334.518764 241.375709 
L 334.04032 241.933894 
L 333.482136 242.252857 
L 332.76447 242.412338 
L 330.850694 242.412338 
" clip-path="url(#pa561da9244)" style="fill: none; stroke: #ffcd07; stroke-width: 0.455223; stroke-linecap: round"/>
   </g>
   <g id="patch_8">
    <path d="M 156.49596 174.697294 
C 156.519726 174.697294 156.54252 174.687852 156.559325 174.671047 
C 156.576129 174.654243 156.585571 174.631448 156.585571 174.607683 
C 156.585571 174.583918 156.576129 174.561123 156.559325 174.544318 
C 156.54252 174.527514 156.519726 174.518072 156.49596 174.518072 
C 156.472195 174.518072 156.4494 174.527514 156.432596 174.544318 
C 156.415792 174.561123 156.40635 174.583918 156.40635 174.607683 
C 156.40635 174.631448 156.415792 174.654243 156.432596 174.671047 
C 156.4494 174.687852 156.472195 174.697294 156.49596 174.697294 
L 156.49596 174.697294 
z
" clip-path="url(#pa561da9244)" style="fill: none; stroke: #ffcd07; stroke-width: 0.896108; stroke-linejoin: miter"/>
   </g>
   <g id="line2d_22">
    <path d="M 140.990554 174.129602 
L 142.425889 174.129602 
L 142.425889 178.993782 
L 139.475478 178.993782 
L 138.917293 178.914042 
L 138.359107 178.595079 
L 137.880662 178.196376 
L 137.64144 177.638191 
L 137.561699 177.080007 
L 137.561699 172.136086 
L 137.72118 171.41842 
L 138.119885 170.780495 
L 138.757811 170.381791 
L 139.475478 170.22231 
L 142.425889 170.22231 
" clip-path="url(#pa561da9244)" style="fill: none; stroke: #ffcd07; stroke-width: 0.455223; stroke-linecap: round"/>
   </g>
   <g id="line2d_23">
    <path d="M 149.254612 178.993406 
L 144.390432 178.993406 
L 144.390432 178.993406 
L 148.536946 174.129226 
L 148.536946 174.129226 
L 148.536946 174.129226 
L 148.935649 173.650782 
L 148.935649 173.650782 
L 149.174871 173.012857 
L 149.254612 172.374932 
L 149.174871 171.737007 
L 148.855908 171.099081 
L 148.377465 170.620637 
L 147.739539 170.301675 
L 147.101614 170.221934 
L 146.224467 170.301675 
L 145.42706 170.700378 
L 144.789135 171.338303 
L 144.390432 172.13571 
" clip-path="url(#pa561da9244)" style="fill: none; stroke: #ffcd07; stroke-width: 0.455223; stroke-linecap: round"/>
   </g>
   <g id="line2d_24">
    <path d="M 151.178785 172.135422 
L 153.650455 170.221872 
L 153.650455 170.221872 
L 153.650414 178.993409 
L 153.650414 178.993409 
" clip-path="url(#pa561da9244)" style="fill: none; stroke: #ffcd07; stroke-width: 0.455223; stroke-linecap: round"/>
   </g>
   <g id="line2d_25">
    <path d="M 151.178933 178.993226 
L 156.122854 178.993226 
" clip-path="url(#pa561da9244)" style="fill: none; stroke: #ffcd07; stroke-width: 0.455223; stroke-linecap: round"/>
   </g>
   <g id="patch_9">
    <path d="M 156.49596 197.458448 
C 156.519726 197.458448 156.54252 197.449006 156.559325 197.432201 
C 156.576129 197.415397 156.585571 197.392602 156.585571 197.368837 
C 156.585571 197.345072 156.576129 197.322277 156.559325 197.305473 
C 156.54252 197.288668 156.519726 197.279226 156.49596 197.279226 
C 156.472195 197.279226 156.4494 197.288668 156.432596 197.305473 
C 156.415792 197.322277 156.40635 197.345072 156.40635 197.368837 
C 156.40635 197.392602 156.415792 197.415397 156.432596 197.432201 
C 156.4494 197.449006 156.472195 197.458448 156.49596 197.458448 
L 156.49596 197.458448 
z
" clip-path="url(#pa561da9244)" style="fill: none; stroke: #ffcd07; stroke-width: 0.896108; stroke-linejoin: miter"/>
   </g>
   <g id="line2d_26">
    <path d="M 140.990554 196.890756 
L 142.425889 196.890756 
L 142.425889 201.754936 
L 139.475478 201.754936 
L 138.917293 201.675196 
L 138.359107 201.356233 
L 137.880662 200.95753 
L 137.64144 200.399345 
L 137.561699 199.841161 
L 137.561699 194.89724 
L 137.72118 194.179574 
L 138.119885 193.541649 
L 138.757811 193.142946 
L 139.475478 192.983464 
L 142.425889 192.983464 
" clip-path="url(#pa561da9244)" style="fill: none; stroke: #ffcd07; stroke-width: 0.455223; stroke-linecap: round"/>
   </g>
   <g id="line2d_27">
    <path d="M 149.254612 201.754561 
L 144.390432 201.754561 
L 144.390432 201.754561 
L 148.536946 196.89038 
L 148.536946 196.89038 
L 148.536946 196.89038 
L 148.935649 196.411937 
L 148.935649 196.411937 
L 149.174871 195.774011 
L 149.254612 195.136086 
L 149.174871 194.498161 
L 148.855908 193.860236 
L 148.377465 193.381792 
L 147.739539 193.062829 
L 147.101614 192.983088 
L 146.224467 193.062829 
L 145.42706 193.461532 
L 144.789135 194.099457 
L 144.390432 194.896864 
" clip-path="url(#pa561da9244)" style="fill: none; stroke: #ffcd07; stroke-width: 0.455223; stroke-linecap: round"/>
   </g>
   <g id="line2d_28">
    <path d="M 151.218785 201.75438 
L 154.169189 201.75438 
L 154.886855 201.594899 
L 155.524781 201.196195 
L 155.923484 200.55827 
L 156.082965 199.840604 
L 156.082965 198.803976 
L 156.003224 198.245791 
L 155.684262 197.687606 
L 155.285559 197.209163 
L 154.727374 196.969941 
L 154.169189 196.8902 
L 151.218785 196.8902 
L 151.218785 196.8902 
L 151.218785 192.982908 
L 151.218785 192.982908 
L 151.218785 192.982908 
L 156.082965 192.982908 
L 156.082965 192.982908 
" clip-path="url(#pa561da9244)" style="fill: none; stroke: #ffcd07; stroke-width: 0.455223; stroke-linecap: round"/>
   </g>
   <g id="patch_10">
    <path d="M 156.49596 220.219602 
C 156.519726 220.219602 156.54252 220.21016 156.559325 220.193356 
C 156.576129 220.176551 156.585571 220.153756 156.585571 220.129991 
C 156.585571 220.106226 156.576129 220.083431 156.559325 220.066627 
C 156.54252 220.049822 156.519726 220.04038 156.49596 220.04038 
C 156.472195 220.04038 156.4494 220.049822 156.432596 220.066627 
C 156.415792 220.083431 156.40635 220.106226 156.40635 220.129991 
C 156.40635 220.153756 156.415792 220.176551 156.432596 220.193356 
C 156.4494 220.21016 156.472195 220.219602 156.49596 220.219602 
L 156.49596 220.219602 
z
" clip-path="url(#pa561da9244)" style="fill: none; stroke: #ffcd07; stroke-width: 0.896108; stroke-linejoin: miter"/>
   </g>
   <g id="line2d_29">
    <path d="M 144.390439 224.515534 
L 147.340843 224.515534 
L 148.058509 224.356053 
L 148.696434 223.95735 
L 149.095138 223.319424 
L 149.254619 222.601758 
L 149.254619 221.56513 
L 149.174878 221.006945 
L 148.855916 220.448761 
L 148.457212 219.970317 
L 147.899028 219.731095 
L 147.340843 219.651354 
L 144.390439 219.651354 
L 144.390439 219.651354 
L 144.390439 215.744062 
L 144.390439 215.744062 
L 144.390439 215.744062 
L 149.254619 215.744062 
L 149.254619 215.744062 
" clip-path="url(#pa561da9244)" style="fill: none; stroke: #ffcd07; stroke-width: 0.455223; stroke-linecap: round"/>
   </g>
   <g id="line2d_30">
    <path d="M 150.740144 215.744323 
L 153.690649 224.516099 
L 153.690649 224.516099 
L 156.561077 215.744097 
L 156.561077 215.744097 
" clip-path="url(#pa561da9244)" style="fill: none; stroke: #ffcd07; stroke-width: 0.455223; stroke-linecap: round"/>
   </g>
   <g id="patch_11">
    <path d="M 156.49596 242.980756 
C 156.519726 242.980756 156.54252 242.971314 156.559325 242.95451 
C 156.576129 242.937705 156.585571 242.91491 156.585571 242.891145 
C 156.585571 242.86738 156.576129 242.844585 156.559325 242.827781 
C 156.54252 242.810976 156.519726 242.801534 156.49596 242.801534 
C 156.472195 242.801534 156.4494 242.810976 156.432596 242.827781 
C 156.415792 242.844585 156.40635 242.86738 156.40635 242.891145 
C 156.40635 242.91491 156.415792 242.937705 156.432596 242.95451 
C 156.4494 242.971314 156.472195 242.980756 156.49596 242.980756 
L 156.49596 242.980756 
z
" clip-path="url(#pa561da9244)" style="fill: none; stroke: #ffcd07; stroke-width: 0.896108; stroke-linejoin: miter"/>
   </g>
   <g id="line2d_31">
    <path d="M 140.990554 242.413065 
L 142.425889 242.413065 
L 142.425889 247.277245 
L 139.475478 247.277245 
L 138.917293 247.197504 
L 138.359107 246.878541 
L 137.880662 246.479838 
L 137.64144 245.921654 
L 137.561699 245.363469 
L 137.561699 240.419548 
L 137.72118 239.701882 
L 138.119885 239.063957 
L 138.757811 238.665254 
L 139.475478 238.505773 
L 142.425889 238.505773 
" clip-path="url(#pa561da9244)" style="fill: none; stroke: #ffcd07; stroke-width: 0.455223; stroke-linecap: round"/>
   </g>
   <g id="line2d_32">
    <path d="M 144.390808 247.276729 
L 144.390808 238.505257 
L 149.254989 247.276729 
L 149.254989 238.505257 
" clip-path="url(#pa561da9244)" style="fill: none; stroke: #ffcd07; stroke-width: 0.455223; stroke-linecap: round"/>
   </g>
   <g id="line2d_33">
    <path d="M 151.218707 247.276464 
L 151.218707 238.504992 
L 153.610926 238.504992 
L 154.408333 238.584732 
L 155.046258 238.983435 
L 155.604443 239.461879 
L 155.923405 240.179545 
L 156.082887 240.897211 
L 156.082887 244.804503 
L 155.923405 245.60191 
L 155.604443 246.239835 
L 155.046258 246.79802 
L 154.408333 247.196723 
L 153.610926 247.276464 
L 151.218707 247.276464 
" clip-path="url(#pa561da9244)" style="fill: none; stroke: #ffcd07; stroke-width: 0.455223; stroke-linecap: round"/>
   </g>
   <g id="patch_12">
    <path d="M 236.16 291.19139 
C 236.183765 291.19139 236.20656 291.181948 236.223364 291.165143 
C 236.240169 291.148339 236.249611 291.125544 236.249611 291.101779 
C 236.249611 291.078014 236.240169 291.055219 236.223364 291.038414 
C 236.20656 291.02161 236.183765 291.012168 236.16 291.012168 
C 236.136235 291.012168 236.11344 291.02161 236.096636 291.038414 
C 236.079831 291.055219 236.070389 291.078014 236.070389 291.101779 
C 236.070389 291.125544 236.079831 291.148339 236.096636 291.165143 
C 236.11344 291.181948 236.136235 291.19139 236.16 291.19139 
L 236.16 291.19139 
z
" clip-path="url(#pa561da9244)" style="fill: none; stroke: #ffcd07; stroke-width: 0.896108; stroke-linejoin: miter"/>
   </g>
   <g id="line2d_34">
    <path d="M 216.138926 288.630315 
L 222.038933 291.101937 
L 222.038933 291.101937 
L 216.13865 293.573693 
L 216.13865 293.573693 
" clip-path="url(#pa561da9244)" style="fill: none; stroke: #ffcd07; stroke-width: 0.455223; stroke-linecap: round"/>
   </g>
   <g id="line2d_35">
    <path d="M 223.006809 286.716111 
L 225.957314 295.487887 
L 225.957314 295.487887 
L 228.827741 286.715885 
L 228.827741 286.715885 
" clip-path="url(#pa561da9244)" style="fill: none; stroke: #ffcd07; stroke-width: 0.455223; stroke-linecap: round"/>
   </g>
   <g id="line2d_36">
    <path d="M 229.835067 295.327968 
L 232.785572 286.556192 
L 232.785572 286.556192 
L 235.656 295.328194 
L 235.656 295.328194 
" clip-path="url(#pa561da9244)" style="fill: none; stroke: #ffcd07; stroke-width: 0.455223; stroke-linecap: round"/>
   </g>
   <g id="line2d_37">
    <path d="M 234.939029 293.175361 
L 230.553293 293.175361 
" clip-path="url(#pa561da9244)" style="fill: none; stroke: #ffcd07; stroke-width: 0.455223; stroke-linecap: round"/>
   </g>
   <g id="line2d_38">
    <path d="M 237.62028 286.716157 
L 237.62028 295.487629 
L 241.527572 295.487629 
" clip-path="url(#pa561da9244)" style="fill: none; stroke: #ffcd07; stroke-width: 0.455223; stroke-linecap: round"/>
   </g>
   <g id="line2d_39">
    <path d="M 243.970351 286.716528 
L 243.970351 293.01604 
L 243.970351 293.01604 
L 244.129832 293.813446 
L 244.129832 293.813446 
L 244.448795 294.451371 
L 245.006979 295.009556 
L 245.644905 295.408259 
L 246.442311 295.488 
L 247.159977 295.408259 
L 247.877643 295.009556 
L 248.435828 294.451371 
L 248.75479 293.813446 
L 248.834531 293.01604 
L 248.834531 286.716528 
" clip-path="url(#pa561da9244)" style="fill: none; stroke: #ffcd07; stroke-width: 0.455223; stroke-linecap: round"/>
   </g>
   <g id="line2d_40">
    <path d="M 255.184433 295.487671 
L 251.27714 295.487671 
L 251.27714 286.716199 
L 255.184433 286.716199 
" clip-path="url(#pa561da9244)" style="fill: none; stroke: #ffcd07; stroke-width: 0.455223; stroke-linecap: round"/>
   </g>
   <g id="line2d_41">
    <path d="M 251.277299 290.623698 
L 254.227703 290.623698 
" clip-path="url(#pa561da9244)" style="fill: none; stroke: #ffcd07; stroke-width: 0.455223; stroke-linecap: round"/>
   </g>
   <g id="patch_13">
    <path d="M 236.16 58.203198 
C 236.183765 58.203198 236.20656 58.193756 236.223364 58.176951 
C 236.240169 58.160147 236.249611 58.137352 236.249611 58.113587 
C 236.249611 58.089822 236.240169 58.067027 236.223364 58.050222 
C 236.20656 58.033418 236.183765 58.023976 236.16 58.023976 
C 236.136235 58.023976 236.11344 58.033418 236.096636 58.050222 
C 236.079831 58.067027 236.070389 58.089822 236.070389 58.113587 
C 236.070389 58.137352 236.079831 58.160147 236.096636 58.176951 
C 236.11344 58.193756 236.136235 58.203198 236.16 58.203198 
L 236.16 58.203198 
z
" clip-path="url(#pa561da9244)" style="fill: none; stroke: #808080; stroke-width: 0.896108; stroke-linejoin: miter"/>
   </g>
   <g id="line2d_42">
    <path d="M 219.553099 55.642123 
L 225.453106 58.113744 
L 225.453106 58.113744 
L 219.552823 60.5855 
L 219.552823 60.5855 
" clip-path="url(#pa561da9244)" style="fill: none; stroke: #808080; stroke-width: 0.455223; stroke-linecap: round"/>
   </g>
   <g id="line2d_43">
    <path d="M 226.899992 62.499171 
L 226.899992 53.727699 
L 231.764172 62.499171 
L 231.764172 53.727699 
" clip-path="url(#pa561da9244)" style="fill: none; stroke: #808080; stroke-width: 0.455223; stroke-linecap: round"/>
   </g>
   <g id="line2d_44">
    <path d="M 233.249241 62.339776 
L 236.199745 53.568 
L 236.199745 53.568 
L 239.070173 62.340002 
L 239.070173 62.340002 
" clip-path="url(#pa561da9244)" style="fill: none; stroke: #808080; stroke-width: 0.455223; stroke-linecap: round"/>
   </g>
   <g id="line2d_45">
    <path d="M 238.353202 60.187169 
L 233.967466 60.187169 
" clip-path="url(#pa561da9244)" style="fill: none; stroke: #808080; stroke-width: 0.455223; stroke-linecap: round"/>
   </g>
   <g id="line2d_46">
    <path d="M 240.078163 62.49943 
L 240.078163 53.727958 
L 242.948827 58.592138 
L 242.948827 58.592138 
L 245.899231 53.727958 
L 245.899231 53.727958 
L 245.899231 62.49943 
" clip-path="url(#pa561da9244)" style="fill: none; stroke: #808080; stroke-width: 0.455223; stroke-linecap: round"/>
   </g>
   <g id="line2d_47">
    <path d="M 251.77026 62.499479 
L 247.862967 62.499479 
L 247.862967 53.728007 
L 251.77026 53.728007 
" clip-path="url(#pa561da9244)" style="fill: none; stroke: #808080; stroke-width: 0.455223; stroke-linecap: round"/>
   </g>
   <g id="line2d_48">
    <path d="M 247.863125 57.635506 
L 250.81353 57.635506 
" clip-path="url(#pa561da9244)" style="fill: none; stroke: #808080; stroke-width: 0.455223; stroke-linecap: round"/>
   </g>
   <g id="patch_14">
    <path d="M 155.510241 67.074657 
C 148.38309 67.074657 141.540558 69.908927 136.500901 74.948584 
C 131.461244 79.988241 128.626975 86.830773 128.626974 93.957924 
" clip-path="url(#pa561da9244)" style="fill: none; stroke: #808080; stroke-width: 1.138058; stroke-linejoin: miter"/>
   </g>
   <g id="line2d_49">
    <path d="M 128.626988 93.957924 
L 128.626988 255.257442 
" clip-path="url(#pa561da9244)" style="fill: none; stroke: #808080; stroke-width: 1.138058; stroke-linecap: round"/>
   </g>
   <g id="patch_15">
    <path d="M 128.626974 255.257442 
C 128.626975 262.384593 131.461244 269.227125 136.500901 274.266781 
C 141.540558 279.306438 148.38309 282.140708 155.510241 282.140709 
" clip-path="url(#pa561da9244)" style="fill: none; stroke: #808080; stroke-width: 1.138058; stroke-linejoin: miter"/>
   </g>
   <g id="line2d_50">
    <path d="M 155.510241 282.140695 
L 316.809759 282.140695 
" clip-path="url(#pa561da9244)" style="fill: none; stroke: #808080; stroke-width: 1.138058; stroke-linecap: round"/>
   </g>
   <g id="patch_16">
    <path d="M 316.809759 282.140709 
C 323.93691 282.140708 330.779442 279.306438 335.819099 274.266781 
C 340.858756 269.227125 343.693025 262.384593 343.693026 255.257442 
" clip-path="url(#pa561da9244)" style="fill: none; stroke: #808080; stroke-width: 1.138058; stroke-linejoin: miter"/>
   </g>
   <g id="line2d_51">
    <path d="M 343.693012 255.257442 
L 343.693012 93.957924 
" clip-path="url(#pa561da9244)" style="fill: none; stroke: #808080; stroke-width: 1.138058; stroke-linecap: round"/>
   </g>
   <g id="patch_17">
    <path d="M 343.693026 93.957924 
C 343.693025 86.830773 340.858756 79.988241 335.819099 74.948584 
C 330.779442 69.908927 323.93691 67.074657 316.809759 67.074657 
" clip-path="url(#pa561da9244)" style="fill: none; stroke: #808080; stroke-width: 1.138058; stroke-linejoin: miter"/>
   </g>
   <g id="line2d_52">
    <path d="M 316.809759 67.074671 
L 155.510241 67.074671 
" clip-path="url(#pa561da9244)" style="fill: none; stroke: #808080; stroke-width: 1.138058; stroke-linecap: round"/>
   </g>
   <g id="line2d_53">
    <path d="M 191.354578 273.17961 
L 191.354578 264.218526 
" clip-path="url(#pa561da9244)" style="fill: none; stroke: #808080; stroke-width: 1.138058; stroke-linecap: round"/>
   </g>
   <g id="patch_18">
    <path d="M 200.315663 255.257344 
C 199.1389 255.257349 197.97358 255.489152 196.886396 255.939487 
C 195.799212 256.389822 194.811305 257.04993 193.979215 257.882034 
C 193.147125 258.714138 192.487034 259.702056 192.036717 260.789248 
C 191.586401 261.87644 191.354618 263.041763 191.354633 264.218526 
" clip-path="url(#pa561da9244)" style="fill: none; stroke: #808080; stroke-width: 1.138058; stroke-linejoin: miter"/>
   </g>
   <g id="line2d_54">
    <path d="M 200.315663 255.257442 
L 272.004337 255.257442 
" clip-path="url(#pa561da9244)" style="fill: none; stroke: #808080; stroke-width: 1.138058; stroke-linecap: round"/>
   </g>
   <g id="patch_19">
    <path d="M 280.965367 264.218526 
C 280.965382 263.041763 280.733599 261.87644 280.283283 260.789248 
C 279.832966 259.702056 279.172875 258.714138 278.340785 257.882034 
C 277.508695 257.04993 276.520788 256.389822 275.433604 255.939487 
C 274.34642 255.489152 273.1811 255.257349 272.004337 255.257344 
" clip-path="url(#pa561da9244)" style="fill: none; stroke: #808080; stroke-width: 1.138058; stroke-linejoin: miter"/>
   </g>
   <g id="line2d_55">
    <path d="M 280.965422 264.218526 
L 280.965422 273.17961 
" clip-path="url(#pa561da9244)" style="fill: none; stroke: #808080; stroke-width: 1.138058; stroke-linecap: round"/>
   </g>
   <g id="patch_20">
    <path d="M 167.876538 181.77655 
C 169.777743 181.77655 171.601337 181.021193 172.945692 179.676838 
C 174.290048 178.332482 175.045405 176.508889 175.045405 174.607683 
C 175.045405 172.706477 174.290048 170.882884 172.945692 169.538528 
C 171.601337 168.194172 169.777743 167.438815 167.876538 167.438815 
C 165.975332 167.438815 164.151738 168.194172 162.807383 169.538528 
C 161.463027 170.882884 160.70767 172.706477 160.70767 174.607683 
C 160.70767 176.508889 161.463027 178.332482 162.807383 179.676838 
C 164.151738 181.021193 165.975332 181.77655 167.876538 181.77655 
z
" clip-path="url(#pa561da9244)" style="fill: #0dab76"/>
   </g>
   <g id="patch_21">
    <path d="M 167.876538 178.192117 
C 168.82714 178.192117 169.738937 177.814438 170.411115 177.14226 
C 171.083293 176.470082 171.460971 175.558286 171.460971 174.607683 
C 171.460971 173.65708 171.083293 172.745283 170.411115 172.073105 
C 169.738937 171.400928 168.82714 171.023249 167.876538 171.023249 
C 166.925935 171.023249 166.014138 171.400928 165.34196 172.073105 
C 164.669782 172.745283 164.292104 173.65708 164.292104 174.607683 
C 164.292104 175.558286 164.669782 176.470082 165.34196 177.14226 
C 166.014138 177.814438 166.925935 178.192117 167.876538 178.192117 
z
" clip-path="url(#pa561da9244)" style="fill: #a0a0a0"/>
   </g>
   <g id="patch_22">
    <path d="M 304.443462 181.77655 
C 306.344668 181.77655 308.168262 181.021193 309.512617 179.676838 
C 310.856973 178.332482 311.61233 176.508889 311.61233 174.607683 
C 311.61233 172.706477 310.856973 170.882884 309.512617 169.538528 
C 308.168262 168.194172 306.344668 167.438815 304.443462 167.438815 
C 302.542257 167.438815 300.718663 168.194172 299.374308 169.538528 
C 298.029952 170.882884 297.274595 172.706477 297.274595 174.607683 
C 297.274595 176.508889 298.029952 178.332482 299.374308 179.676838 
C 300.718663 181.021193 302.542257 181.77655 304.443462 181.77655 
z
" clip-path="url(#pa561da9244)" style="fill: #0dab76"/>
   </g>
   <g id="patch_23">
    <path d="M 304.443462 178.192117 
C 305.394065 178.192117 306.305862 177.814438 306.97804 177.14226 
C 307.650218 176.470082 308.027896 175.558286 308.027896 174.607683 
C 308.027896 173.65708 307.650218 172.745283 306.97804 172.073105 
C 306.305862 171.400928 305.394065 171.023249 304.443462 171.023249 
C 303.49286 171.023249 302.581063 171.400928 301.908885 172.073105 
C 301.236707 172.745283 300.859029 173.65708 300.859029 174.607683 
C 300.859029 175.558286 301.236707 176.470082 301.908885 177.14226 
C 302.581063 177.814438 303.49286 178.192117 304.443462 178.192117 
z
" clip-path="url(#pa561da9244)" style="fill: #a0a0a0"/>
   </g>
   <g id="patch_24">
    <path d="M 167.876538 204.537704 
C 169.777743 204.537704 171.601337 203.782347 172.945692 202.437992 
C 174.290048 201.093636 175.045405 199.270043 175.045405 197.368837 
C 175.045405 195.467631 174.290048 193.644038 172.945692 192.299682 
C 171.601337 190.955327 169.777743 190.199969 167.876538 190.199969 
C 165.975332 190.199969 164.151738 190.955327 162.807383 192.299682 
C 161.463027 193.644038 160.70767 195.467631 160.70767 197.368837 
C 160.70767 199.270043 161.463027 201.093636 162.807383 202.437992 
C 164.151738 203.782347 165.975332 204.537704 167.876538 204.537704 
z
" clip-path="url(#pa561da9244)" style="fill: #0dab76"/>
   </g>
   <g id="patch_25">
    <path d="M 167.876538 200.953271 
C 168.82714 200.953271 169.738937 200.575592 170.411115 199.903414 
C 171.083293 199.231237 171.460971 198.31944 171.460971 197.368837 
C 171.460971 196.418234 171.083293 195.506437 170.411115 194.83426 
C 169.738937 194.162082 168.82714 193.784403 167.876538 193.784403 
C 166.925935 193.784403 166.014138 194.162082 165.34196 194.83426 
C 164.669782 195.506437 164.292104 196.418234 164.292104 197.368837 
C 164.292104 198.31944 164.669782 199.231237 165.34196 199.903414 
C 166.014138 200.575592 166.925935 200.953271 167.876538 200.953271 
z
" clip-path="url(#pa561da9244)" style="fill: #a0a0a0"/>
   </g>
   <g id="patch_26">
    <path d="M 167.876538 227.298859 
C 169.777743 227.298859 171.601337 226.543501 172.945692 225.199146 
C 174.290048 223.85479 175.045405 222.031197 175.045405 220.129991 
C 175.045405 218.228785 174.290048 216.405192 172.945692 215.060836 
C 171.601337 213.716481 169.777743 212.961124 167.876538 212.961124 
C 165.975332 212.961124 164.151738 213.716481 162.807383 215.060836 
C 161.463027 216.405192 160.70767 218.228785 160.70767 220.129991 
C 160.70767 222.031197 161.463027 223.85479 162.807383 225.199146 
C 164.151738 226.543501 165.975332 227.298859 167.876538 227.298859 
z
" clip-path="url(#pa561da9244)" style="fill: #0dab76"/>
   </g>
   <g id="patch_27">
    <path d="M 167.876538 223.714425 
C 168.82714 223.714425 169.738937 223.336746 170.411115 222.664568 
C 171.083293 221.992391 171.460971 221.080594 171.460971 220.129991 
C 171.460971 219.179388 171.083293 218.267591 170.411115 217.595414 
C 169.738937 216.923236 168.82714 216.545557 167.876538 216.545557 
C 166.925935 216.545557 166.014138 216.923236 165.34196 217.595414 
C 164.669782 218.267591 164.292104 219.179388 164.292104 220.129991 
C 164.292104 221.080594 164.669782 221.992391 165.34196 222.664568 
C 166.014138 223.336746 166.925935 223.714425 167.876538 223.714425 
z
" clip-path="url(#pa561da9244)" style="fill: #a0a0a0"/>
   </g>
   <g id="patch_28">
    <path d="M 167.876538 250.060013 
C 169.777743 250.060013 171.601337 249.304656 172.945692 247.9603 
C 174.290048 246.615944 175.045405 244.792351 175.045405 242.891145 
C 175.045405 240.989939 174.290048 239.166346 172.945692 237.82199 
C 171.601337 236.477635 169.777743 235.722278 167.876538 235.722278 
C 165.975332 235.722278 164.151738 236.477635 162.807383 237.82199 
C 161.463027 239.166346 160.70767 240.989939 160.70767 242.891145 
C 160.70767 244.792351 161.463027 246.615944 162.807383 247.9603 
C 164.151738 249.304656 165.975332 250.060013 167.876538 250.060013 
z
" clip-path="url(#pa561da9244)" style="fill: #0dab76"/>
   </g>
   <g id="patch_29">
    <path d="M 167.876538 246.475579 
C 168.82714 246.475579 169.738937 246.0979 170.411115 245.425723 
C 171.083293 244.753545 171.460971 243.841748 171.460971 242.891145 
C 171.460971 241.940542 171.083293 241.028746 170.411115 240.356568 
C 169.738937 239.68439 168.82714 239.306712 167.876538 239.306712 
C 166.925935 239.306712 166.014138 239.68439 165.34196 240.356568 
C 164.669782 241.028746 164.292104 241.940542 164.292104 242.891145 
C 164.292104 243.841748 164.669782 244.753545 165.34196 245.425723 
C 166.014138 246.0979 166.925935 246.475579 167.876538 246.475579 
z
" clip-path="url(#pa561da9244)" style="fill: #a0a0a0"/>
   </g>
   <g id="patch_30">
    <path d="M 304.443462 159.015396 
C 306.344668 159.015396 308.168262 158.260039 309.512617 156.915683 
C 310.856973 155.571328 311.61233 153.747735 311.61233 151.846529 
C 311.61233 149.945323 310.856973 148.121729 309.512617 146.777374 
C 308.168262 145.433018 306.344668 144.677661 304.443462 144.677661 
C 302.542257 144.677661 300.718663 145.433018 299.374308 146.777374 
C 298.029952 148.121729 297.274595 149.945323 297.274595 151.846529 
C 297.274595 153.747735 298.029952 155.571328 299.374308 156.915683 
C 300.718663 158.260039 302.542257 159.015396 304.443462 159.015396 
z
" clip-path="url(#pa561da9244)" style="fill: #0dab76"/>
   </g>
   <g id="patch_31">
    <path d="M 304.443462 155.430962 
C 305.394065 155.430962 306.305862 155.053284 306.97804 154.381106 
C 307.650218 153.708928 308.027896 152.797132 308.027896 151.846529 
C 308.027896 150.895926 307.650218 149.984129 306.97804 149.311951 
C 306.305862 148.639773 305.394065 148.262095 304.443462 148.262095 
C 303.49286 148.262095 302.581063 148.639773 301.908885 149.311951 
C 301.236707 149.984129 300.859029 150.895926 300.859029 151.846529 
C 300.859029 152.797132 301.236707 153.708928 301.908885 154.381106 
C 302.581063 155.053284 303.49286 155.430962 304.443462 155.430962 
z
" clip-path="url(#pa561da9244)" style="fill: #a0a0a0"/>
   </g>
   <g id="patch_32">
    <path d="M 304.443462 204.537704 
C 306.344668 204.537704 308.168262 203.782347 309.512617 202.437992 
C 310.856973 201.093636 311.61233 199.270043 311.61233 197.368837 
C 311.61233 195.467631 310.856973 193.644038 309.512617 192.299682 
C 308.168262 190.955327 306.344668 190.199969 304.443462 190.199969 
C 302.542257 190.199969 300.718663 190.955327 299.374308 192.299682 
C 298.029952 193.644038 297.274595 195.467631 297.274595 197.368837 
C 297.274595 199.270043 298.029952 201.093636 299.374308 202.437992 
C 300.718663 203.782347 302.542257 204.537704 304.443462 204.537704 
z
" clip-path="url(#pa561da9244)" style="fill: #0dab76"/>
   </g>
   <g id="patch_33">
    <path d="M 304.443462 200.953271 
C 305.394065 200.953271 306.305862 200.575592 306.97804 199.903414 
C 307.650218 199.231237 308.027896 198.31944 308.027896 197.368837 
C 308.027896 196.418234 307.650218 195.506437 306.97804 194.83426 
C 306.305862 194.162082 305.394065 193.784403 304.443462 193.784403 
C 303.49286 193.784403 302.581063 194.162082 301.908885 194.83426 
C 301.236707 195.506437 300.859029 196.418234 300.859029 197.368837 
C 300.859029 198.31944 301.236707 199.231237 301.908885 199.903414 
C 302.581063 200.575592 303.49286 200.953271 304.443462 200.953271 
z
" clip-path="url(#pa561da9244)" style="fill: #a0a0a0"/>
   </g>
   <g id="patch_34">
    <path d="M 304.443462 227.298859 
C 306.344668 227.298859 308.168262 226.543501 309.512617 225.199146 
C 310.856973 223.85479 311.61233 222.031197 311.61233 220.129991 
C 311.61233 218.228785 310.856973 216.405192 309.512617 215.060836 
C 308.168262 213.716481 306.344668 212.961124 304.443462 212.961124 
C 302.542257 212.961124 300.718663 213.716481 299.374308 215.060836 
C 298.029952 216.405192 297.274595 218.228785 297.274595 220.129991 
C 297.274595 222.031197 298.029952 223.85479 299.374308 225.199146 
C 300.718663 226.543501 302.542257 227.298859 304.443462 227.298859 
z
" clip-path="url(#pa561da9244)" style="fill: #0dab76"/>
   </g>
   <g id="patch_35">
    <path d="M 304.443462 223.714425 
C 305.394065 223.714425 306.305862 223.336746 306.97804 222.664568 
C 307.650218 221.992391 308.027896 221.080594 308.027896 220.129991 
C 308.027896 219.179388 307.650218 218.267591 306.97804 217.595414 
C 306.305862 216.923236 305.394065 216.545557 304.443462 216.545557 
C 303.49286 216.545557 302.581063 216.923236 301.908885 217.595414 
C 301.236707 218.267591 300.859029 219.179388 300.859029 220.129991 
C 300.859029 221.080594 301.236707 221.992391 301.908885 222.664568 
C 302.581063 223.336746 303.49286 223.714425 304.443462 223.714425 
z
" clip-path="url(#pa561da9244)" style="fill: #a0a0a0"/>
   </g>
   <g id="patch_36">
    <path d="M 304.443462 250.060013 
C 306.344668 250.060013 308.168262 249.304656 309.512617 247.9603 
C 310.856973 246.615944 311.61233 244.792351 311.61233 242.891145 
C 311.61233 240.989939 310.856973 239.166346 309.512617 237.82199 
C 308.168262 236.477635 306.344668 235.722278 304.443462 235.722278 
C 302.542257 235.722278 300.718663 236.477635 299.374308 237.82199 
C 298.029952 239.166346 297.274595 240.989939 297.274595 242.891145 
C 297.274595 244.792351 298.029952 246.615944 299.374308 247.9603 
C 300.718663 249.304656 302.542257 250.060013 304.443462 250.060013 
z
" clip-path="url(#pa561da9244)" style="fill: #0dab76"/>
   </g>
   <g id="patch_37">
    <path d="M 304.443462 246.475579 
C 305.394065 246.475579 306.305862 246.0979 306.97804 245.425723 
C 307.650218 244.753545 308.027896 243.841748 308.027896 242.891145 
C 308.027896 241.940542 307.650218 241.028746 306.97804 240.356568 
C 306.305862 239.68439 305.394065 239.306712 304.443462 239.306712 
C 303.49286 239.306712 302.581063 239.68439 301.908885 240.356568 
C 301.236707 241.028746 300.859029 241.940542 300.859029 242.891145 
C 300.859029 243.841748 301.236707 244.753545 301.908885 245.425723 
C 302.581063 246.0979 303.49286 246.475579 304.443462 246.475579 
z
" clip-path="url(#pa561da9244)" style="fill: #a0a0a0"/>
   </g>
   <g id="matplotlib.axis_1">
    <g id="xtick_1">
     <g id="line2d_56">
      <defs>
       <path id="ma6061fa9f5" d="M 0 0 
L 0 3.5 
" style="stroke: #ffffff; stroke-width: 0.8"/>
      </defs>
      <g>
       <use xlink:href="#ma6061fa9f5" x="146.549157" y="307.584" style="fill: #ffffff; stroke: #ffffff; stroke-width: 0.8"/>
      </g>
     </g>
     <g id="text_1">
      <text style="fill: #ffffff; font: 10px 'sans-serif'; text-anchor: middle" x="146.549157" y="322.182437" transform="rotate(-0, 146.549157, 322.182437)">−10</text>
     </g>
    </g>
    <g id="xtick_2">
     <g id="line2d_57">
      <g>
       <use xlink:href="#ma6061fa9f5" x="191.354578" y="307.584" style="fill: #ffffff; stroke: #ffffff; stroke-width: 0.8"/>
      </g>
     </g>
     <g id="text_2">
      <text style="fill: #ffffff; font: 10px 'sans-serif'; text-anchor: middle" x="191.354578" y="322.182437" transform="rotate(-0, 191.354578, 322.182437)">−5</text>
     </g>
    </g>
    <g id="xtick_3">
     <g id="line2d_58">
      <g>
       <use xlink:href="#ma6061fa9f5" x="236.16" y="307.584" style="fill: #ffffff; stroke: #ffffff; stroke-width: 0.8"/>
      </g>
     </g>
     <g id="text_3">
      <text style="fill: #ffffff; font: 10px 'sans-serif'; text-anchor: middle" x="236.16" y="322.182437" transform="rotate(-0, 236.16, 322.182437)">0</text>
     </g>
    </g>
    <g id="xtick_4">
     <g id="line2d_59">
      <g>
       <use xlink:href="#ma6061fa9f5" x="280.965422" y="307.584" style="fill: #ffffff; stroke: #ffffff; stroke-width: 0.8"/>
      </g>
     </g>
     <g id="text_4">
      <text style="fill: #ffffff; font: 10px 'sans-serif'; text-anchor: middle" x="280.965422" y="322.182437" transform="rotate(-0, 280.965422, 322.182437)">5</text>
     </g>
    </g>
    <g id="xtick_5">
     <g id="line2d_60">
      <g>
       <use xlink:href="#ma6061fa9f5" x="325.770843" y="307.584" style="fill: #ffffff; stroke: #ffffff; stroke-width: 0.8"/>
      </g>
     </g>
     <g id="text_5">
      <text style="fill: #ffffff; font: 10px 'sans-serif'; text-anchor: middle" x="325.770843" y="322.182437" transform="rotate(-0, 325.770843, 322.182437)">10</text>
     </g>
    </g>
   </g>
   <g id="matplotlib.axis_2">
    <g id="ytick_1">
     <g id="line2d_61">
      <defs>
       <path id="meb7880eba1" d="M 0 0 
L -3.5 0 
" style="stroke: #ffffff; stroke-width: 0.8"/>
      </defs>
      <g>
       <use xlink:href="#meb7880eba1" x="117.873671" y="264.218526" style="fill: #ffffff; stroke: #ffffff; stroke-width: 0.8"/>
      </g>
     </g>
     <g id="text_6">
      <text style="fill: #ffffff; font: 10px 'sans-serif'; text-anchor: end" x="110.873671" y="268.017745" transform="rotate(-0, 110.873671, 268.017745)">−10</text>
     </g>
    </g>
    <g id="ytick_2">
     <g id="line2d_62">
      <g>
       <use xlink:href="#meb7880eba1" x="117.873671" y="219.413104" style="fill: #ffffff; stroke: #ffffff; stroke-width: 0.8"/>
      </g>
     </g>
     <g id="text_7">
      <text style="fill: #ffffff; font: 10px 'sans-serif'; text-anchor: end" x="110.873671" y="223.212323" transform="rotate(-0, 110.873671, 223.212323)">−5</text>
     </g>
    </g>
    <g id="ytick_3">
     <g id="line2d_63">
      <g>
       <use xlink:href="#meb7880eba1" x="117.873671" y="174.607683" style="fill: #ffffff; stroke: #ffffff; stroke-width: 0.8"/>
      </g>
     </g>
     <g id="text_8">
      <text style="fill: #ffffff; font: 10px 'sans-serif'; text-anchor: end" x="110.873671" y="178.406902" transform="rotate(-0, 110.873671, 178.406902)">0</text>
     </g>
    </g>
    <g id="ytick_4">
     <g id="line2d_64">
      <g>
       <use xlink:href="#meb7880eba1" x="117.873671" y="129.802261" style="fill: #ffffff; stroke: #ffffff; stroke-width: 0.8"/>
      </g>
     </g>
     <g id="text_9">
      <text style="fill: #ffffff; font: 10px 'sans-serif'; text-anchor: end" x="110.873671" y="133.60148" transform="rotate(-0, 110.873671, 133.60148)">5</text>
     </g>
    </g>
    <g id="ytick_5">
     <g id="line2d_65">
      <g>
       <use xlink:href="#meb7880eba1" x="117.873671" y="84.99684" style="fill: #ffffff; stroke: #ffffff; stroke-width: 0.8"/>
      </g>
     </g>
     <g id="text_10">
      <text style="fill: #ffffff; font: 10px 'sans-serif'; text-anchor: end" x="110.873671" y="88.796058" transform="rotate(-0, 110.873671, 88.796058)">10</text>
     </g>
    </g>
   </g>
   <g id="patch_38">
    <path d="M 117.873671 307.584 
L 117.873671 41.472 
" style="fill: none; stroke: #ffffff; stroke-width: 0.8; stroke-linejoin: miter; stroke-linecap: square"/>
   </g>
   <g id="patch_39">
    <path d="M 354.446329 307.584 
L 354.446329 41.472 
" style="fill: none; stroke: #ffffff; stroke-width: 0.8; stroke-linejoin: miter; stroke-linecap: square"/>
   </g>
   <g id="patch_40">
    <path d="M 117.873671 307.584 
L 354.446329 307.584 
" style="fill: none; stroke: #ffffff; stroke-width: 0.8; stroke-linejoin: miter; stroke-linecap: square"/>
   </g>
   <g id="patch_41">
    <path d="M 117.873671 41.472 
L 354.446329 41.472 
" style="fill: none; stroke: #ffffff; stroke-width: 0.8; stroke-linejoin: miter; stroke-linecap: square"/>
   </g>
   <g id="text_11">
    <text style="fill: #ffffff; font: 12px 'sans-serif'; text-anchor: middle" x="236.16" y="35.472" transform="rotate(-0, 236.16, 35.472)">M5ATOM-WITH-HLABELS</text>
   </g>
  </g>
 </g>
 <defs>
  <clipPath id="pa561da9244">
   <rect x="117.873671" y="41.472" width="236.572658" height="266.112"/>
  </clipPath>
 </defs>
</svg>
