<?xml version="1.0" encoding="utf-8" standalone="no"?>
<!DOCTYPE svg PUBLIC "-//W3C//DTD SVG 1.1//EN"
  "http://www.w3.org/Graphics/SVG/1.1/DTD/svg11.dtd">
<svg xmlns:xlink="http://www.w3.org/1999/xlink" width="460.8pt" height="345.6pt" viewBox="0 0 460.8 345.6" xmlns="http://www.w3.org/2000/svg" version="1.1">
 <metadata>
  <rdf:RDF xmlns:dc="http://purl.org/dc/elements/1.1/" xmlns:cc="http://creativecommons.org/ns#" xmlns:rdf="http://www.w3.org/1999/02/22-rdf-syntax-ns#">
   <cc:Work>
    <dc:type rdf:resource="http://purl.org/dc/dcmitype/StillImage"/>
    <dc:date>2023-02-18T16:06:04.870684</dc:date>
    <dc:format>image/svg+xml</dc:format>
    <dc:creator>
     <cc:Agent>
      <dc:title>Matplotlib v3.5.1, https://matplotlib.org/</dc:title>
     </cc:Agent>
    </dc:creator>
   </cc:Work>
  </rdf:RDF>
 </metadata>
 <defs>
  <style type="text/css">*{stroke-linejoin: round; stroke-linecap: butt}</style>
 </defs>
 <g id="figure_1">
  <g id="patch_1">
   <path d="M 0 345.6 
L 460.8 345.6 
L 460.8 0 
L 0 0 
z
" style="fill: #2b2b2b"/>
  </g>
  <g id="axes_1">
   <g id="patch_2">
    <path d="M 117.873671 307.584 
L 354.446329 307.584 
L 354.446329 41.472 
L 117.873671 41.472 
z
" style="fill: #2b2b2b"/>
   </g>
   <g id="patch_3">
    <path d="M 236.16 291.19139 
C 236.183765 291.19139 236.20656 291.181948 236.223364 291.165143 
C 236.240169 291.148339 236.249611 291.125544 236.249611 291.101779 
C 236.249611 291.078014 236.240169 291.055219 236.223364 291.038414 
C 236.20656 291.02161 236.183765 291.012168 236.16 291.012168 
C 236.136235 291.012168 236.11344 291.02161 236.096636 291.038414 
C 236.079831 291.055219 236.070389 291.078014 236.070389 291.101779 
C 236.070389 291.125544 236.079831 291.148339 236.096636 291.165143 
C 236.11344 291.181948 236.136235 291.19139 236.16 291.19139 
L 236.16 291.19139 
z
" clip-path="url(#p44fd4a793c)" style="fill: none; stroke: #ffcd07; stroke-width: 0.896108; stroke-linejoin: miter"/>
   </g>
   <g id="line2d_1">
    <path d="M 216.138926 288.630315 
L 222.038933 291.101937 
L 222.038933 291.101937 
L 216.13865 293.573693 
L 216.13865 293.573693 
" clip-path="url(#p44fd4a793c)" style="fill: none; stroke: #ffcd07; stroke-width: 0.455223; stroke-linecap: round"/>
   </g>
   <g id="line2d_2">
    <path d="M 223.006809 286.716111 
L 225.957314 295.487887 
L 225.957314 295.487887 
L 228.827741 286.715885 
L 228.827741 286.715885 
" clip-path="url(#p44fd4a793c)" style="fill: none; stroke: #ffcd07; stroke-width: 0.455223; stroke-linecap: round"/>
   </g>
   <g id="line2d_3">
    <path d="M 229.835067 295.327968 
L 232.785572 286.556192 
L 232.785572 286.556192 
L 235.656 295.328194 
L 235.656 295.328194 
" clip-path="url(#p44fd4a793c)" style="fill: none; stroke: #ffcd07; stroke-width: 0.455223; stroke-linecap: round"/>
   </g>
   <g id="line2d_4">
    <path d="M 234.939029 293.175361 
L 230.553293 293.175361 
" clip-path="url(#p44fd4a793c)" style="fill: none; stroke: #ffcd07; stroke-width: 0.455223; stroke-linecap: round"/>
   </g>
   <g id="line2d_5">
    <path d="M 237.62028 286.716157 
L 237.62028 295.487629 
L 241.527572 295.487629 
" clip-path="url(#p44fd4a793c)" style="fill: none; stroke: #ffcd07; stroke-width: 0.455223; stroke-linecap: round"/>
   </g>
   <g id="line2d_6">
    <path d="M 243.970351 286.716528 
L 243.970351 293.01604 
L 243.970351 293.01604 
L 244.129832 293.813446 
L 244.129832 293.813446 
L 244.448795 294.451371 
L 245.006979 295.009556 
L 245.644905 295.408259 
L 246.442311 295.488 
L 247.159977 295.408259 
L 247.877643 295.009556 
L 248.435828 294.451371 
L 248.75479 293.813446 
L 248.834531 293.01604 
L 248.834531 286.716528 
" clip-path="url(#p44fd4a793c)" style="fill: none; stroke: #ffcd07; stroke-width: 0.455223; stroke-linecap: round"/>
   </g>
   <g id="line2d_7">
    <path d="M 255.184433 295.487671 
L 251.27714 295.487671 
L 251.27714 286.716199 
L 255.184433 286.716199 
" clip-path="url(#p44fd4a793c)" style="fill: none; stroke: #ffcd07; stroke-width: 0.455223; stroke-linecap: round"/>
   </g>
   <g id="line2d_8">
    <path d="M 251.277299 290.623698 
L 254.227703 290.623698 
" clip-path="url(#p44fd4a793c)" style="fill: none; stroke: #ffcd07; stroke-width: 0.455223; stroke-linecap: round"/>
   </g>
   <g id="patch_4">
    <path d="M 236.16 58.203198 
C 236.183765 58.203198 236.20656 58.193756 236.223364 58.176951 
C 236.240169 58.160147 236.249611 58.137352 236.249611 58.113587 
C 236.249611 58.089822 236.240169 58.067027 236.223364 58.050222 
C 236.20656 58.033418 236.183765 58.023976 236.16 58.023976 
C 236.136235 58.023976 236.11344 58.033418 236.096636 58.050222 
C 236.079831 58.067027 236.070389 58.089822 236.070389 58.113587 
C 236.070389 58.137352 236.079831 58.160147 236.096636 58.176951 
C 236.11344 58.193756 236.136235 58.203198 236.16 58.203198 
L 236.16 58.203198 
z
" clip-path="url(#p44fd4a793c)" style="fill: none; stroke: #808080; stroke-width: 0.896108; stroke-linejoin: miter"/>
   </g>
   <g id="line2d_9">
    <path d="M 219.553099 55.642123 
L 225.453106 58.113744 
L 225.453106 58.113744 
L 219.552823 60.5855 
L 219.552823 60.5855 
" clip-path="url(#p44fd4a793c)" style="fill: none; stroke: #808080; stroke-width: 0.455223; stroke-linecap: round"/>
   </g>
   <g id="line2d_10">
    <path d="M 226.899992 62.499171 
L 226.899992 53.727699 
L 231.764172 62.499171 
L 231.764172 53.727699 
" clip-path="url(#p44fd4a793c)" style="fill: none; stroke: #808080; stroke-width: 0.455223; stroke-linecap: round"/>
   </g>
   <g id="line2d_11">
    <path d="M 233.249241 62.339776 
L 236.199745 53.568 
L 236.199745 53.568 
L 239.070173 62.340002 
L 239.070173 62.340002 
" clip-path="url(#p44fd4a793c)" style="fill: none; stroke: #808080; stroke-width: 0.455223; stroke-linecap: round"/>
   </g>
   <g id="line2d_12">
    <path d="M 238.353202 60.187169 
L 233.967466 60.187169 
" clip-path="url(#p44fd4a793c)" style="fill: none; stroke: #808080; stroke-width: 0.455223; stroke-linecap: round"/>
   </g>
   <g id="line2d_13">
    <path d="M 240.078163 62.49943 
L 240.078163 53.727958 
L 242.948827 58.592138 
L 242.948827 58.592138 
L 245.899231 53.727958 
L 245.899231 53.727958 
L 245.899231 62.49943 
" clip-path="url(#p44fd4a793c)" style="fill: none; stroke: #808080; stroke-width: 0.455223; stroke-linecap: round"/>
   </g>
   <g id="line2d_14">
    <path d="M 251.77026 62.499479 
L 247.862967 62.499479 
L 247.862967 53.728007 
L 251.77026 53.728007 
" clip-path="url(#p44fd4a793c)" style="fill: none; stroke: #808080; stroke-width: 0.455223; stroke-linecap: round"/>
   </g>
   <g id="line2d_15">
    <path d="M 247.863125 57.635506 
L 250.81353 57.635506 
" clip-path="url(#p44fd4a793c)" style="fill: none; stroke: #808080; stroke-width: 0.455223; stroke-linecap: round"/>
   </g>
   <g id="patch_5">
    <path d="M 155.510241 67.074657 
C 148.38309 67.074657 141.540558 69.908927 136.500901 74.948584 
C 131.461244 79.988241 128.626975 86.830773 128.626974 93.957924 
" clip-path="url(#p44fd4a793c)" style="fill: none; stroke: #808080; stroke-width: 1.138058; stroke-linejoin: miter"/>
   </g>
   <g id="line2d_16">
    <path d="M 128.626988 93.957924 
L 128.626988 255.257442 
" clip-path="url(#p44fd4a793c)" style="fill: none; stroke: #808080; stroke-width: 1.138058; stroke-linecap: round"/>
   </g>
   <g id="patch_6">
    <path d="M 128.626974 255.257442 
C 128.626975 262.384593 131.461244 269.227125 136.500901 274.266781 
C 141.540558 279.306438 148.38309 282.140708 155.510241 282.140709 
" clip-path="url(#p44fd4a793c)" style="fill: none; stroke: #808080; stroke-width: 1.138058; stroke-linejoin: miter"/>
   </g>
   <g id="line2d_17">
    <path d="M 155.510241 282.140695 
L 316.809759 282.140695 
" clip-path="url(#p44fd4a793c)" style="fill: none; stroke: #808080; stroke-width: 1.138058; stroke-linecap: round"/>
   </g>
   <g id="patch_7">
    <path d="M 316.809759 282.140709 
C 323.93691 282.140708 330.779442 279.306438 335.819099 274.266781 
C 340.858756 269.227125 343.693025 262.384593 343.693026 255.257442 
" clip-path="url(#p44fd4a793c)" style="fill: none; stroke: #808080; stroke-width: 1.138058; stroke-linejoin: miter"/>
   </g>
   <g id="line2d_18">
    <path d="M 343.693012 255.257442 
L 343.693012 93.957924 
" clip-path="url(#p44fd4a793c)" style="fill: none; stroke: #808080; stroke-width: 1.138058; stroke-linecap: round"/>
   </g>
   <g id="patch_8">
    <path d="M 343.693026 93.957924 
C 343.693025 86.830773 340.858756 79.988241 335.819099 74.948584 
C 330.779442 69.908927 323.93691 67.074657 316.809759 67.074657 
" clip-path="url(#p44fd4a793c)" style="fill: none; stroke: #808080; stroke-width: 1.138058; stroke-linejoin: miter"/>
   </g>
   <g id="line2d_19">
    <path d="M 316.809759 67.074671 
L 155.510241 67.074671 
" clip-path="url(#p44fd4a793c)" style="fill: none; stroke: #808080; stroke-width: 1.138058; stroke-linecap: round"/>
   </g>
   <g id="line2d_20">
    <path d="M 191.354578 273.17961 
L 191.354578 264.218526 
" clip-path="url(#p44fd4a793c)" style="fill: none; stroke: #808080; stroke-width: 1.138058; stroke-linecap: round"/>
   </g>
   <g id="patch_9">
    <path d="M 200.315663 255.257344 
C 199.1389 255.257349 197.97358 255.489152 196.886396 255.939487 
C 195.799212 256.389822 194.811305 257.04993 193.979215 257.882034 
C 193.147125 258.714138 192.487034 259.702056 192.036717 260.789248 
C 191.586401 261.87644 191.354618 263.041763 191.354633 264.218526 
" clip-path="url(#p44fd4a793c)" style="fill: none; stroke: #808080; stroke-width: 1.138058; stroke-linejoin: miter"/>
   </g>
   <g id="line2d_21">
    <path d="M 200.315663 255.257442 
L 272.004337 255.257442 
" clip-path="url(#p44fd4a793c)" style="fill: none; stroke: #808080; stroke-width: 1.138058; stroke-linecap: round"/>
   </g>
   <g id="patch_10">
    <path d="M 280.965367 264.218526 
C 280.965382 263.041763 280.733599 261.87644 280.283283 260.789248 
C 279.832966 259.702056 279.172875 258.714138 278.340785 257.882034 
C 277.508695 257.04993 276.520788 256.389822 275.433604 255.939487 
C 274.34642 255.489152 273.1811 255.257349 272.004337 255.257344 
" clip-path="url(#p44fd4a793c)" style="fill: none; stroke: #808080; stroke-width: 1.138058; stroke-linejoin: miter"/>
   </g>
   <g id="line2d_22">
    <path d="M 280.965422 264.218526 
L 280.965422 273.17961 
" clip-path="url(#p44fd4a793c)" style="fill: none; stroke: #808080; stroke-width: 1.138058; stroke-linecap: round"/>
   </g>
   <g id="patch_11">
    <path d="M 167.876538 181.77655 
C 169.777743 181.77655 171.601337 181.021193 172.945692 179.676838 
C 174.290048 178.332482 175.045405 176.508889 175.045405 174.607683 
C 175.045405 172.706477 174.290048 170.882884 172.945692 169.538528 
C 171.601337 168.194172 169.777743 167.438815 167.876538 167.438815 
C 165.975332 167.438815 164.151738 168.194172 162.807383 169.538528 
C 161.463027 170.882884 160.70767 172.706477 160.70767 174.607683 
C 160.70767 176.508889 161.463027 178.332482 162.807383 179.676838 
C 164.151738 181.021193 165.975332 181.77655 167.876538 181.77655 
z
" clip-path="url(#p44fd4a793c)" style="fill: #0dab76"/>
   </g>
   <g id="patch_12">
    <path d="M 167.876538 178.192117 
C 168.82714 178.192117 169.738937 177.814438 170.411115 177.14226 
C 171.083293 176.470082 171.460971 175.558286 171.460971 174.607683 
C 171.460971 173.65708 171.083293 172.745283 170.411115 172.073105 
C 169.738937 171.400928 168.82714 171.023249 167.876538 171.023249 
C 166.925935 171.023249 166.014138 171.400928 165.34196 172.073105 
C 164.669782 172.745283 164.292104 173.65708 164.292104 174.607683 
C 164.292104 175.558286 164.669782 176.470082 165.34196 177.14226 
C 166.014138 177.814438 166.925935 178.192117 167.876538 178.192117 
z
" clip-path="url(#p44fd4a793c)" style="fill: #a0a0a0"/>
   </g>
   <g id="patch_13">
    <path d="M 304.443462 181.77655 
C 306.344668 181.77655 308.168262 181.021193 309.512617 179.676838 
C 310.856973 178.332482 311.61233 176.508889 311.61233 174.607683 
C 311.61233 172.706477 310.856973 170.882884 309.512617 169.538528 
C 308.168262 168.194172 306.344668 167.438815 304.443462 167.438815 
C 302.542257 167.438815 300.718663 168.194172 299.374308 169.538528 
C 298.029952 170.882884 297.274595 172.706477 297.274595 174.607683 
C 297.274595 176.508889 298.029952 178.332482 299.374308 179.676838 
C 300.718663 181.021193 302.542257 181.77655 304.443462 181.77655 
z
" clip-path="url(#p44fd4a793c)" style="fill: #0dab76"/>
   </g>
   <g id="patch_14">
    <path d="M 304.443462 178.192117 
C 305.394065 178.192117 306.305862 177.814438 306.97804 177.14226 
C 307.650218 176.470082 308.027896 175.558286 308.027896 174.607683 
C 308.027896 173.65708 307.650218 172.745283 306.97804 172.073105 
C 306.305862 171.400928 305.394065 171.023249 304.443462 171.023249 
C 303.49286 171.023249 302.581063 171.400928 301.908885 172.073105 
C 301.236707 172.745283 300.859029 173.65708 300.859029 174.607683 
C 300.859029 175.558286 301.236707 176.470082 301.908885 177.14226 
C 302.581063 177.814438 303.49286 178.192117 304.443462 178.192117 
z
" clip-path="url(#p44fd4a793c)" style="fill: #a0a0a0"/>
   </g>
   <g id="patch_15">
    <path d="M 167.876538 204.537704 
C 169.777743 204.537704 171.601337 203.782347 172.945692 202.437992 
C 174.290048 201.093636 175.045405 199.270043 175.045405 197.368837 
C 175.045405 195.467631 174.290048 193.644038 172.945692 192.299682 
C 171.601337 190.955327 169.777743 190.199969 167.876538 190.199969 
C 165.975332 190.199969 164.151738 190.955327 162.807383 192.299682 
C 161.463027 193.644038 160.70767 195.467631 160.70767 197.368837 
C 160.70767 199.270043 161.463027 201.093636 162.807383 202.437992 
C 164.151738 203.782347 165.975332 204.537704 167.876538 204.537704 
z
" clip-path="url(#p44fd4a793c)" style="fill: #0dab76"/>
   </g>
   <g id="patch_16">
    <path d="M 167.876538 200.953271 
C 168.82714 200.953271 169.738937 200.575592 170.411115 199.903414 
C 171.083293 199.231237 171.460971 198.31944 171.460971 197.368837 
C 171.460971 196.418234 171.083293 195.506437 170.411115 194.83426 
C 169.738937 194.162082 168.82714 193.784403 167.876538 193.784403 
C 166.925935 193.784403 166.014138 194.162082 165.34196 194.83426 
C 164.669782 195.506437 164.292104 196.418234 164.292104 197.368837 
C 164.292104 198.31944 164.669782 199.231237 165.34196 199.903414 
C 166.014138 200.575592 166.925935 200.953271 167.876538 200.953271 
z
" clip-path="url(#p44fd4a793c)" style="fill: #a0a0a0"/>
   </g>
   <g id="patch_17">
    <path d="M 167.876538 227.298859 
C 169.777743 227.298859 171.601337 226.543501 172.945692 225.199146 
C 174.290048 223.85479 175.045405 222.031197 175.045405 220.129991 
C 175.045405 218.228785 174.290048 216.405192 172.945692 215.060836 
C 171.601337 213.716481 169.777743 212.961124 167.876538 212.961124 
C 165.975332 212.961124 164.151738 213.716481 162.807383 215.060836 
C 161.463027 216.405192 160.70767 218.228785 160.70767 220.129991 
C 160.70767 222.031197 161.463027 223.85479 162.807383 225.199146 
C 164.151738 226.543501 165.975332 227.298859 167.876538 227.298859 
z
" clip-path="url(#p44fd4a793c)" style="fill: #0dab76"/>
   </g>
   <g id="patch_18">
    <path d="M 167.876538 223.714425 
C 168.82714 223.714425 169.738937 223.336746 170.411115 222.664568 
C 171.083293 221.992391 171.460971 221.080594 171.460971 220.129991 
C 171.460971 219.179388 171.083293 218.267591 170.411115 217.595414 
C 169.738937 216.923236 168.82714 216.545557 167.876538 216.545557 
C 166.925935 216.545557 166.014138 216.923236 165.34196 217.595414 
C 164.669782 218.267591 164.292104 219.179388 164.292104 220.129991 
C 164.292104 221.080594 164.669782 221.992391 165.34196 222.664568 
C 166.014138 223.336746 166.925935 223.714425 167.876538 223.714425 
z
" clip-path="url(#p44fd4a793c)" style="fill: #a0a0a0"/>
   </g>
   <g id="patch_19">
    <path d="M 167.876538 250.060013 
C 169.777743 250.060013 171.601337 249.304656 172.945692 247.9603 
C 174.290048 246.615944 175.045405 244.792351 175.045405 242.891145 
C 175.045405 240.989939 174.290048 239.166346 172.945692 237.82199 
C 171.601337 236.477635 169.777743 235.722278 167.876538 235.722278 
C 165.975332 235.722278 164.151738 236.477635 162.807383 237.82199 
C 161.463027 239.166346 160.70767 240.989939 160.70767 242.891145 
C 160.70767 244.792351 161.463027 246.615944 162.807383 247.9603 
C 164.151738 249.304656 165.975332 250.060013 167.876538 250.060013 
z
" clip-path="url(#p44fd4a793c)" style="fill: #0dab76"/>
   </g>
   <g id="patch_20">
    <path d="M 167.876538 246.475579 
C 168.82714 246.475579 169.738937 246.0979 170.411115 245.425723 
C 171.083293 244.753545 171.460971 243.841748 171.460971 242.891145 
C 171.460971 241.940542 171.083293 241.028746 170.411115 240.356568 
C 169.738937 239.68439 168.82714 239.306712 167.876538 239.306712 
C 166.925935 239.306712 166.014138 239.68439 165.34196 240.356568 
C 164.669782 241.028746 164.292104 241.940542 164.292104 242.891145 
C 164.292104 243.841748 164.669782 244.753545 165.34196 245.425723 
C 166.014138 246.0979 166.925935 246.475579 167.876538 246.475579 
z
" clip-path="url(#p44fd4a793c)" style="fill: #a0a0a0"/>
   </g>
   <g id="patch_21">
    <path d="M 304.443462 159.015396 
C 306.344668 159.015396 308.168262 158.260039 309.512617 156.915683 
C 310.856973 155.571328 311.61233 153.747735 311.61233 151.846529 
C 311.61233 149.945323 310.856973 148.121729 309.512617 146.777374 
C 308.168262 145.433018 306.344668 144.677661 304.443462 144.677661 
C 302.542257 144.677661 300.718663 145.433018 299.374308 146.777374 
C 298.029952 148.121729 297.274595 149.945323 297.274595 151.846529 
C 297.274595 153.747735 298.029952 155.571328 299.374308 156.915683 
C 300.718663 158.260039 302.542257 159.015396 304.443462 159.015396 
z
" clip-path="url(#p44fd4a793c)" style="fill: #0dab76"/>
   </g>
   <g id="patch_22">
    <path d="M 304.443462 155.430962 
C 305.394065 155.430962 306.305862 155.053284 306.97804 154.381106 
C 307.650218 153.708928 308.027896 152.797132 308.027896 151.846529 
C 308.027896 150.895926 307.650218 149.984129 306.97804 149.311951 
C 306.305862 148.639773 305.394065 148.262095 304.443462 148.262095 
C 303.49286 148.262095 302.581063 148.639773 301.908885 149.311951 
C 301.236707 149.984129 300.859029 150.895926 300.859029 151.846529 
C 300.859029 152.797132 301.236707 153.708928 301.908885 154.381106 
C 302.581063 155.053284 303.49286 155.430962 304.443462 155.430962 
z
" clip-path="url(#p44fd4a793c)" style="fill: #a0a0a0"/>
   </g>
   <g id="patch_23">
    <path d="M 304.443462 204.537704 
C 306.344668 204.537704 308.168262 203.782347 309.512617 202.437992 
C 310.856973 201.093636 311.61233 199.270043 311.61233 197.368837 
C 311.61233 195.467631 310.856973 193.644038 309.512617 192.299682 
C 308.168262 190.955327 306.344668 190.199969 304.443462 190.199969 
C 302.542257 190.199969 300.718663 190.955327 299.374308 192.299682 
C 298.029952 193.644038 297.274595 195.467631 297.274595 197.368837 
C 297.274595 199.270043 298.029952 201.093636 299.374308 202.437992 
C 300.718663 203.782347 302.542257 204.537704 304.443462 204.537704 
z
" clip-path="url(#p44fd4a793c)" style="fill: #0dab76"/>
   </g>
   <g id="patch_24">
    <path d="M 304.443462 200.953271 
C 305.394065 200.953271 306.305862 200.575592 306.97804 199.903414 
C 307.650218 199.231237 308.027896 198.31944 308.027896 197.368837 
C 308.027896 196.418234 307.650218 195.506437 306.97804 194.83426 
C 306.305862 194.162082 305.394065 193.784403 304.443462 193.784403 
C 303.49286 193.784403 302.581063 194.162082 301.908885 194.83426 
C 301.236707 195.506437 300.859029 196.418234 300.859029 197.368837 
C 300.859029 198.31944 301.236707 199.231237 301.908885 199.903414 
C 302.581063 200.575592 303.49286 200.953271 304.443462 200.953271 
z
" clip-path="url(#p44fd4a793c)" style="fill: #a0a0a0"/>
   </g>
   <g id="patch_25">
    <path d="M 304.443462 227.298859 
C 306.344668 227.298859 308.168262 226.543501 309.512617 225.199146 
C 310.856973 223.85479 311.61233 222.031197 311.61233 220.129991 
C 311.61233 218.228785 310.856973 216.405192 309.512617 215.060836 
C 308.168262 213.716481 306.344668 212.961124 304.443462 212.961124 
C 302.542257 212.961124 300.718663 213.716481 299.374308 215.060836 
C 298.029952 216.405192 297.274595 218.228785 297.274595 220.129991 
C 297.274595 222.031197 298.029952 223.85479 299.374308 225.199146 
C 300.718663 226.543501 302.542257 227.298859 304.443462 227.298859 
z
" clip-path="url(#p44fd4a793c)" style="fill: #0dab76"/>
   </g>
   <g id="patch_26">
    <path d="M 304.443462 223.714425 
C 305.394065 223.714425 306.305862 223.336746 306.97804 222.664568 
C 307.650218 221.992391 308.027896 221.080594 308.027896 220.129991 
C 308.027896 219.179388 307.650218 218.267591 306.97804 217.595414 
C 306.305862 216.923236 305.394065 216.545557 304.443462 216.545557 
C 303.49286 216.545557 302.581063 216.923236 301.908885 217.595414 
C 301.236707 218.267591 300.859029 219.179388 300.859029 220.129991 
C 300.859029 221.080594 301.236707 221.992391 301.908885 222.664568 
C 302.581063 223.336746 303.49286 223.714425 304.443462 223.714425 
z
" clip-path="url(#p44fd4a793c)" style="fill: #a0a0a0"/>
   </g>
   <g id="patch_27">
    <path d="M 304.443462 250.060013 
C 306.344668 250.060013 308.168262 249.304656 309.512617 247.9603 
C 310.856973 246.615944 311.61233 244.792351 311.61233 242.891145 
C 311.61233 240.989939 310.856973 239.166346 309.512617 237.82199 
C 308.168262 236.477635 306.344668 235.722278 304.443462 235.722278 
C 302.542257 235.722278 300.718663 236.477635 299.374308 237.82199 
C 298.029952 239.166346 297.274595 240.989939 297.274595 242.891145 
C 297.274595 244.792351 298.029952 246.615944 299.374308 247.9603 
C 300.718663 249.304656 302.542257 250.060013 304.443462 250.060013 
z
" clip-path="url(#p44fd4a793c)" style="fill: #0dab76"/>
   </g>
   <g id="patch_28">
    <path d="M 304.443462 246.475579 
C 305.394065 246.475579 306.305862 246.0979 306.97804 245.425723 
C 307.650218 244.753545 308.027896 243.841748 308.027896 242.891145 
C 308.027896 241.940542 307.650218 241.028746 306.97804 240.356568 
C 306.305862 239.68439 305.394065 239.306712 304.443462 239.306712 
C 303.49286 239.306712 302.581063 239.68439 301.908885 240.356568 
C 301.236707 241.028746 300.859029 241.940542 300.859029 242.891145 
C 300.859029 243.841748 301.236707 244.753545 301.908885 245.425723 
C 302.581063 246.0979 303.49286 246.475579 304.443462 246.475579 
z
" clip-path="url(#p44fd4a793c)" style="fill: #a0a0a0"/>
   </g>
   <g id="matplotlib.axis_1">
    <g id="xtick_1">
     <g id="line2d_23">
      <defs>
       <path id="mf28b392758" d="M 0 0 
L 0 3.5 
" style="stroke: #ffffff; stroke-width: 0.8"/>
      </defs>
      <g>
       <use xlink:href="#mf28b392758" x="146.549157" y="307.584" style="fill: #ffffff; stroke: #ffffff; stroke-width: 0.8"/>
      </g>
     </g>
     <g id="text_1">
      <text style="fill: #ffffff; font: 10px 'sans-serif'; text-anchor: middle" x="146.549157" y="322.182437" transform="rotate(-0, 146.549157, 322.182437)">−10</text>
     </g>
    </g>
    <g id="xtick_2">
     <g id="line2d_24">
      <g>
       <use xlink:href="#mf28b392758" x="191.354578" y="307.584" style="fill: #ffffff; stroke: #ffffff; stroke-width: 0.8"/>
      </g>
     </g>
     <g id="text_2">
      <text style="fill: #ffffff; font: 10px 'sans-serif'; text-anchor: middle" x="191.354578" y="322.182437" transform="rotate(-0, 191.354578, 322.182437)">−5</text>
     </g>
    </g>
    <g id="xtick_3">
     <g id="line2d_25">
      <g>
       <use xlink:href="#mf28b392758" x="236.16" y="307.584" style="fill: #ffffff; stroke: #ffffff; stroke-width: 0.8"/>
      </g>
     </g>
     <g id="text_3">
      <text style="fill: #ffffff; font: 10px 'sans-serif'; text-anchor: middle" x="236.16" y="322.182437" transform="rotate(-0, 236.16, 322.182437)">0</text>
     </g>
    </g>
    <g id="xtick_4">
     <g id="line2d_26">
      <g>
       <use xlink:href="#mf28b392758" x="280.965422" y="307.584" style="fill: #ffffff; stroke: #ffffff; stroke-width: 0.8"/>
      </g>
     </g>
     <g id="text_4">
      <text style="fill: #ffffff; font: 10px 'sans-serif'; text-anchor: middle" x="280.965422" y="322.182437" transform="rotate(-0, 280.965422, 322.182437)">5</text>
     </g>
    </g>
    <g id="xtick_5">
     <g id="line2d_27">
      <g>
       <use xlink:href="#mf28b392758" x="325.770843" y="307.584" style="fill: #ffffff; stroke: #ffffff; stroke-width: 0.8"/>
      </g>
     </g>
     <g id="text_5">
      <text style="fill: #ffffff; font: 10px 'sans-serif'; text-anchor: middle" x="325.770843" y="322.182437" transform="rotate(-0, 325.770843, 322.182437)">10</text>
     </g>
    </g>
   </g>
   <g id="matplotlib.axis_2">
    <g id="ytick_1">
     <g id="line2d_28">
      <defs>
       <path id="m3c3457558b" d="M 0 0 
L -3.5 0 
" style="stroke: #ffffff; stroke-width: 0.8"/>
      </defs>
      <g>
       <use xlink:href="#m3c3457558b" x="117.873671" y="264.218526" style="fill: #ffffff; stroke: #ffffff; stroke-width: 0.8"/>
      </g>
     </g>
     <g id="text_6">
      <text style="fill: #ffffff; font: 10px 'sans-serif'; text-anchor: end" x="110.873671" y="268.017745" transform="rotate(-0, 110.873671, 268.017745)">−10</text>
     </g>
    </g>
    <g id="ytick_2">
     <g id="line2d_29">
      <g>
       <use xlink:href="#m3c3457558b" x="117.873671" y="219.413104" style="fill: #ffffff; stroke: #ffffff; stroke-width: 0.8"/>
      </g>
     </g>
     <g id="text_7">
      <text style="fill: #ffffff; font: 10px 'sans-serif'; text-anchor: end" x="110.873671" y="223.212323" transform="rotate(-0, 110.873671, 223.212323)">−5</text>
     </g>
    </g>
    <g id="ytick_3">
     <g id="line2d_30">
      <g>
       <use xlink:href="#m3c3457558b" x="117.873671" y="174.607683" style="fill: #ffffff; stroke: #ffffff; stroke-width: 0.8"/>
      </g>
     </g>
     <g id="text_8">
      <text style="fill: #ffffff; font: 10px 'sans-serif'; text-anchor: end" x="110.873671" y="178.406902" transform="rotate(-0, 110.873671, 178.406902)">0</text>
     </g>
    </g>
    <g id="ytick_4">
     <g id="line2d_31">
      <g>
       <use xlink:href="#m3c3457558b" x="117.873671" y="129.802261" style="fill: #ffffff; stroke: #ffffff; stroke-width: 0.8"/>
      </g>
     </g>
     <g id="text_9">
      <text style="fill: #ffffff; font: 10px 'sans-serif'; text-anchor: end" x="110.873671" y="133.60148" transform="rotate(-0, 110.873671, 133.60148)">5</text>
     </g>
    </g>
    <g id="ytick_5">
     <g id="line2d_32">
      <g>
       <use xlink:href="#m3c3457558b" x="117.873671" y="84.99684" style="fill: #ffffff; stroke: #ffffff; stroke-width: 0.8"/>
      </g>
     </g>
     <g id="text_10">
      <text style="fill: #ffffff; font: 10px 'sans-serif'; text-anchor: end" x="110.873671" y="88.796058" transform="rotate(-0, 110.873671, 88.796058)">10</text>
     </g>
    </g>
   </g>
   <g id="patch_29">
    <path d="M 117.873671 307.584 
L 117.873671 41.472 
" style="fill: none; stroke: #ffffff; stroke-width: 0.8; stroke-linejoin: miter; stroke-linecap: square"/>
   </g>
   <g id="patch_30">
    <path d="M 354.446329 307.584 
L 354.446329 41.472 
" style="fill: none; stroke: #ffffff; stroke-width: 0.8; stroke-linejoin: miter; stroke-linecap: square"/>
   </g>
   <g id="patch_31">
    <path d="M 117.873671 307.584 
L 354.446329 307.584 
" style="fill: none; stroke: #ffffff; stroke-width: 0.8; stroke-linejoin: miter; stroke-linecap: square"/>
   </g>
   <g id="patch_32">
    <path d="M 117.873671 41.472 
L 354.446329 41.472 
" style="fill: none; stroke: #ffffff; stroke-width: 0.8; stroke-linejoin: miter; stroke-linecap: square"/>
   </g>
   <g id="text_11">
    <text style="fill: #ffffff; font: 12px 'sans-serif'; text-anchor: middle" x="236.16" y="35.472" transform="rotate(-0, 236.16, 35.472)">M5ATOM</text>
   </g>
  </g>
 </g>
 <defs>
  <clipPath id="p44fd4a793c">
   <rect x="117.873671" y="41.472" width="236.572658" height="266.112"/>
  </clipPath>
 </defs>
</svg>
