<?xml version="1.0" encoding="utf-8" standalone="no"?>
<!DOCTYPE svg PUBLIC "-//W3C//DTD SVG 1.1//EN"
  "http://www.w3.org/Graphics/SVG/1.1/DTD/svg11.dtd">
<svg xmlns:xlink="http://www.w3.org/1999/xlink" width="460.8pt" height="345.6pt" viewBox="0 0 460.8 345.6" xmlns="http://www.w3.org/2000/svg" version="1.1">
 <metadata>
  <rdf:RDF xmlns:dc="http://purl.org/dc/elements/1.1/" xmlns:cc="http://creativecommons.org/ns#" xmlns:rdf="http://www.w3.org/1999/02/22-rdf-syntax-ns#">
   <cc:Work>
    <dc:type rdf:resource="http://purl.org/dc/dcmitype/StillImage"/>
    <dc:date>2021-12-22T04:54:04.307870</dc:date>
    <dc:format>image/svg+xml</dc:format>
    <dc:creator>
     <cc:Agent>
      <dc:title>Matplotlib v3.5.1, https://matplotlib.org/</dc:title>
     </cc:Agent>
    </dc:creator>
   </cc:Work>
  </rdf:RDF>
 </metadata>
 <defs>
  <style type="text/css">*{stroke-linejoin: round; stroke-linecap: butt}</style>
 </defs>
 <g id="figure_1">
  <g id="patch_1">
   <path d="M 0 345.6 
L 460.8 345.6 
L 460.8 0 
L 0 0 
z
" style="fill: #2b2b2b"/>
  </g>
  <g id="axes_1">
   <g id="patch_2">
    <path d="M 103.104 307.584 
L 369.216 307.584 
L 369.216 41.472 
L 103.104 41.472 
z
" style="fill: #2b2b2b"/>
   </g>
   <g id="text_1">
    <text style="fill: #ffffff; font: 1.27px 'sans-serif'; text-anchor: start" x="236.16" y="357.408" transform="rotate(-0, 236.16, 357.408)">&gt;Value</text>
   </g>
   <g id="text_2">
    <text style="fill: #ffffff; font: 1.27px 'sans-serif'; text-anchor: start" x="236.16" y="-8.352" transform="rotate(-0, 236.16, -8.352)">&gt;Name</text>
   </g>
   <g id="patch_3">
    <path d="M 236.16 295.488 
C 268.238967 295.488 299.008381 282.742891 321.691636 260.059636 
C 344.374891 237.376381 357.12 206.606967 357.12 174.528 
C 357.12 142.449033 344.374891 111.679619 321.691636 88.996364 
C 299.008381 66.313109 268.238967 53.568 236.16 53.568 
C 204.081033 53.568 173.311619 66.313109 150.628364 88.996364 
C 127.945109 111.679619 115.2 142.449033 115.2 174.528 
C 115.2 206.606967 127.945109 237.376381 150.628364 260.059636 
C 173.311619 282.742891 204.081033 295.488 236.16 295.488 
L 236.16 295.488 
z
" clip-path="url(#pb4ada9bc78)" style="fill: none; stroke: #808080; stroke-width: 11.52; stroke-linejoin: miter"/>
   </g>
   <g id="patch_4">
    <path d="M 236.16 295.488 
C 268.238967 295.488 299.008381 282.742891 321.691636 260.059636 
C 344.374891 237.376381 357.12 206.606967 357.12 174.528 
C 357.12 142.449033 344.374891 111.679619 321.691636 88.996364 
C 299.008381 66.313109 268.238967 53.568 236.16 53.568 
C 204.081033 53.568 173.311619 66.313109 150.628364 88.996364 
C 127.945109 111.679619 115.2 142.449033 115.2 174.528 
C 115.2 206.606967 127.945109 237.376381 150.628364 260.059636 
C 173.311619 282.742891 204.081033 295.488 236.16 295.488 
z
" clip-path="url(#pb4ada9bc78)" style="fill: #0dab76"/>
   </g>
   <g id="patch_5">
    <path d="M 236.16 235.008 
C 252.199483 235.008 267.584191 228.635446 278.925818 217.293818 
C 290.267446 205.952191 296.64 190.567483 296.64 174.528 
C 296.64 158.488517 290.267446 143.103809 278.925818 131.762182 
C 267.584191 120.420554 252.199483 114.048 236.16 114.048 
C 220.120517 114.048 204.735809 120.420554 193.394182 131.762182 
C 182.052554 143.103809 175.68 158.488517 175.68 174.528 
C 175.68 190.567483 182.052554 205.952191 193.394182 217.293818 
C 204.735809 228.635446 220.120517 235.008 236.16 235.008 
z
" clip-path="url(#pb4ada9bc78)" style="fill: #a0a0a0"/>
   </g>
   <g id="matplotlib.axis_1">
    <g id="xtick_1">
     <g id="line2d_1">
      <defs>
       <path id="m4d595b99b3" d="M 0 0 
L 0 3.5 
" style="stroke: #ffffff; stroke-width: 0.8"/>
      </defs>
      <g>
       <use xlink:href="#m4d595b99b3" x="120.96" y="307.584" style="fill: #ffffff; stroke: #ffffff; stroke-width: 0.8"/>
      </g>
     </g>
     <g id="text_3">
      <text style="fill: #ffffff; font: 10px 'sans-serif'; text-anchor: middle" x="120.96" y="322.182437" transform="rotate(-0, 120.96, 322.182437)">−2</text>
     </g>
    </g>
    <g id="xtick_2">
     <g id="line2d_2">
      <g>
       <use xlink:href="#m4d595b99b3" x="178.56" y="307.584" style="fill: #ffffff; stroke: #ffffff; stroke-width: 0.8"/>
      </g>
     </g>
     <g id="text_4">
      <text style="fill: #ffffff; font: 10px 'sans-serif'; text-anchor: middle" x="178.56" y="322.182437" transform="rotate(-0, 178.56, 322.182437)">−1</text>
     </g>
    </g>
    <g id="xtick_3">
     <g id="line2d_3">
      <g>
       <use xlink:href="#m4d595b99b3" x="236.16" y="307.584" style="fill: #ffffff; stroke: #ffffff; stroke-width: 0.8"/>
      </g>
     </g>
     <g id="text_5">
      <text style="fill: #ffffff; font: 10px 'sans-serif'; text-anchor: middle" x="236.16" y="322.182437" transform="rotate(-0, 236.16, 322.182437)">0</text>
     </g>
    </g>
    <g id="xtick_4">
     <g id="line2d_4">
      <g>
       <use xlink:href="#m4d595b99b3" x="293.76" y="307.584" style="fill: #ffffff; stroke: #ffffff; stroke-width: 0.8"/>
      </g>
     </g>
     <g id="text_6">
      <text style="fill: #ffffff; font: 10px 'sans-serif'; text-anchor: middle" x="293.76" y="322.182437" transform="rotate(-0, 293.76, 322.182437)">1</text>
     </g>
    </g>
    <g id="xtick_5">
     <g id="line2d_5">
      <g>
       <use xlink:href="#m4d595b99b3" x="351.36" y="307.584" style="fill: #ffffff; stroke: #ffffff; stroke-width: 0.8"/>
      </g>
     </g>
     <g id="text_7">
      <text style="fill: #ffffff; font: 10px 'sans-serif'; text-anchor: middle" x="351.36" y="322.182437" transform="rotate(-0, 351.36, 322.182437)">2</text>
     </g>
    </g>
   </g>
   <g id="matplotlib.axis_2">
    <g id="ytick_1">
     <g id="line2d_6">
      <defs>
       <path id="m4b34e22a1d" d="M 0 0 
L -3.5 0 
" style="stroke: #ffffff; stroke-width: 0.8"/>
      </defs>
      <g>
       <use xlink:href="#m4b34e22a1d" x="103.104" y="289.728" style="fill: #ffffff; stroke: #ffffff; stroke-width: 0.8"/>
      </g>
     </g>
     <g id="text_8">
      <text style="fill: #ffffff; font: 10px 'sans-serif'; text-anchor: end" x="96.104" y="293.527219" transform="rotate(-0, 96.104, 293.527219)">−2</text>
     </g>
    </g>
    <g id="ytick_2">
     <g id="line2d_7">
      <g>
       <use xlink:href="#m4b34e22a1d" x="103.104" y="232.128" style="fill: #ffffff; stroke: #ffffff; stroke-width: 0.8"/>
      </g>
     </g>
     <g id="text_9">
      <text style="fill: #ffffff; font: 10px 'sans-serif'; text-anchor: end" x="96.104" y="235.927219" transform="rotate(-0, 96.104, 235.927219)">−1</text>
     </g>
    </g>
    <g id="ytick_3">
     <g id="line2d_8">
      <g>
       <use xlink:href="#m4b34e22a1d" x="103.104" y="174.528" style="fill: #ffffff; stroke: #ffffff; stroke-width: 0.8"/>
      </g>
     </g>
     <g id="text_10">
      <text style="fill: #ffffff; font: 10px 'sans-serif'; text-anchor: end" x="96.104" y="178.327219" transform="rotate(-0, 96.104, 178.327219)">0</text>
     </g>
    </g>
    <g id="ytick_4">
     <g id="line2d_9">
      <g>
       <use xlink:href="#m4b34e22a1d" x="103.104" y="116.928" style="fill: #ffffff; stroke: #ffffff; stroke-width: 0.8"/>
      </g>
     </g>
     <g id="text_11">
      <text style="fill: #ffffff; font: 10px 'sans-serif'; text-anchor: end" x="96.104" y="120.727219" transform="rotate(-0, 96.104, 120.727219)">1</text>
     </g>
    </g>
    <g id="ytick_5">
     <g id="line2d_10">
      <g>
       <use xlink:href="#m4b34e22a1d" x="103.104" y="59.328" style="fill: #ffffff; stroke: #ffffff; stroke-width: 0.8"/>
      </g>
     </g>
     <g id="text_12">
      <text style="fill: #ffffff; font: 10px 'sans-serif'; text-anchor: end" x="96.104" y="63.127219" transform="rotate(-0, 96.104, 63.127219)">2</text>
     </g>
    </g>
   </g>
   <g id="patch_6">
    <path d="M 103.104 307.584 
L 103.104 41.472 
" style="fill: none; stroke: #ffffff; stroke-width: 0.8; stroke-linejoin: miter; stroke-linecap: square"/>
   </g>
   <g id="patch_7">
    <path d="M 369.216 307.584 
L 369.216 41.472 
" style="fill: none; stroke: #ffffff; stroke-width: 0.8; stroke-linejoin: miter; stroke-linecap: square"/>
   </g>
   <g id="patch_8">
    <path d="M 103.104 307.584 
L 369.216 307.584 
" style="fill: none; stroke: #ffffff; stroke-width: 0.8; stroke-linejoin: miter; stroke-linecap: square"/>
   </g>
   <g id="patch_9">
    <path d="M 103.104 41.472 
L 369.216 41.472 
" style="fill: none; stroke: #ffffff; stroke-width: 0.8; stroke-linejoin: miter; stroke-linecap: square"/>
   </g>
   <g id="text_13">
    <text style="fill: #ffffff; font: 12px 'sans-serif'; text-anchor: middle" x="236.16" y="35.472" transform="rotate(-0, 236.16, 35.472)">MOUNTING_HOLE_2.1</text>
   </g>
  </g>
 </g>
 <defs>
  <clipPath id="pb4ada9bc78">
   <rect x="103.104" y="41.472" width="266.112" height="266.112"/>
  </clipPath>
 </defs>
</svg>
