<?xml version="1.0" encoding="utf-8" standalone="no"?>
<!DOCTYPE svg PUBLIC "-//W3C//DTD SVG 1.1//EN"
  "http://www.w3.org/Graphics/SVG/1.1/DTD/svg11.dtd">
<svg xmlns:xlink="http://www.w3.org/1999/xlink" width="460.8pt" height="345.6pt" viewBox="0 0 460.8 345.6" xmlns="http://www.w3.org/2000/svg" version="1.1">
 <metadata>
  <rdf:RDF xmlns:dc="http://purl.org/dc/elements/1.1/" xmlns:cc="http://creativecommons.org/ns#" xmlns:rdf="http://www.w3.org/1999/02/22-rdf-syntax-ns#">
   <cc:Work>
    <dc:type rdf:resource="http://purl.org/dc/dcmitype/StillImage"/>
    <dc:date>2023-02-18T16:06:01.551619</dc:date>
    <dc:format>image/svg+xml</dc:format>
    <dc:creator>
     <cc:Agent>
      <dc:title>Matplotlib v3.5.1, https://matplotlib.org/</dc:title>
     </cc:Agent>
    </dc:creator>
   </cc:Work>
  </rdf:RDF>
 </metadata>
 <defs>
  <style type="text/css">*{stroke-linejoin: round; stroke-linecap: butt}</style>
 </defs>
 <g id="figure_1">
  <g id="patch_1">
   <path d="M 0 345.6 
L 460.8 345.6 
L 460.8 0 
L 0 0 
z
" style="fill: #2b2b2b"/>
  </g>
  <g id="axes_1">
   <g id="patch_2">
    <path d="M 103.199176 307.584 
L 369.120824 307.584 
L 369.120824 41.472 
L 103.199176 41.472 
z
" style="fill: #2b2b2b"/>
   </g>
   <g id="patch_3">
    <path d="M 159.240515 295.488 
C 159.263461 295.488 159.285471 295.478883 159.301696 295.462658 
C 159.317922 295.446432 159.327039 295.424423 159.327039 295.401476 
C 159.327039 295.37853 159.317922 295.35652 159.301696 295.340295 
C 159.285471 295.324069 159.263461 295.314953 159.240515 295.314953 
C 159.217569 295.314953 159.195559 295.324069 159.179334 295.340295 
C 159.163108 295.35652 159.153991 295.37853 159.153991 295.401476 
C 159.153991 295.424423 159.163108 295.446432 159.179334 295.462658 
C 159.195559 295.478883 159.217569 295.488 159.240515 295.488 
L 159.240515 295.488 
z
" clip-path="url(#pa830f172d8)" style="fill: none; stroke: #808080; stroke-width: 0.865236; stroke-linejoin: miter"/>
   </g>
   <g id="line2d_1">
    <path d="M 159.098493 284.368683 
L 167.073932 287.709741 
L 167.073932 287.709741 
L 159.09812 291.050981 
L 159.09812 291.050981 
" clip-path="url(#pa830f172d8)" style="fill: none; stroke: #808080; stroke-width: 0.615356; stroke-linecap: round"/>
   </g>
   <g id="line2d_2">
    <path d="M 168.382275 281.781123 
L 172.370673 293.638527 
L 172.370673 293.638527 
L 176.250824 281.780818 
L 176.250824 281.780818 
" clip-path="url(#pa830f172d8)" style="fill: none; stroke: #808080; stroke-width: 0.615356; stroke-linecap: round"/>
   </g>
   <g id="line2d_3">
    <path d="M 184.18744 288.781729 
L 181.169296 288.781729 
L 180.306969 288.997311 
L 179.552433 289.536265 
L 179.013479 290.18301 
L 178.905688 291.153128 
L 179.013479 292.015455 
L 179.552433 292.769991 
L 180.306969 293.308945 
L 181.169296 293.416736 
L 184.18744 293.416736 
L 184.18744 287.488239 
L 183.971858 286.733703 
L 183.540695 286.086958 
L 182.89395 285.655795 
L 182.139414 285.548004 
L 179.552433 285.548004 
" clip-path="url(#pa830f172d8)" style="fill: none; stroke: #808080; stroke-width: 0.615356; stroke-linecap: round"/>
   </g>
   <g id="line2d_4">
    <path d="M 189.807033 281.557512 
L 189.807033 291.47427 
L 189.914824 292.228806 
L 190.345987 292.875551 
L 190.992732 293.306715 
L 191.747268 293.414506 
" clip-path="url(#pa830f172d8)" style="fill: none; stroke: #808080; stroke-width: 0.615356; stroke-linecap: round"/>
   </g>
   <g id="line2d_5">
    <path d="M 197.366666 285.545767 
L 197.366666 291.474264 
L 197.582248 292.2288 
L 198.013411 292.875545 
L 198.660156 293.306708 
L 199.414692 293.414499 
L 202.648417 293.414499 
L 202.648417 285.545767 
" clip-path="url(#pa830f172d8)" style="fill: none; stroke: #808080; stroke-width: 0.615356; stroke-linecap: round"/>
   </g>
   <g id="line2d_6">
    <path d="M 211.879563 293.414612 
L 208.538047 293.414612 
L 207.783511 293.306821 
L 207.136766 292.875658 
L 206.705603 292.228913 
L 206.705603 292.228913 
L 206.597812 291.474377 
L 206.597812 291.474377 
L 206.597812 288.132861 
L 206.705603 287.270534 
L 207.244557 286.408207 
L 207.891302 285.869253 
L 208.753629 285.54588 
L 209.723746 285.54588 
L 210.586073 285.869253 
L 211.232818 286.408207 
L 211.663982 287.270534 
L 211.879563 288.132861 
L 211.879563 289.426351 
L 206.597812 289.426351 
" clip-path="url(#pa830f172d8)" style="fill: none; stroke: #808080; stroke-width: 0.615356; stroke-linecap: round"/>
   </g>
   <g id="patch_4">
    <path d="M 313.079485 53.741047 
C 313.102431 53.741047 313.124441 53.731931 313.140666 53.715705 
C 313.156892 53.69948 313.166009 53.67747 313.166009 53.654524 
C 313.166009 53.631577 313.156892 53.609568 313.140666 53.593342 
C 313.124441 53.577117 313.102431 53.568 313.079485 53.568 
C 313.056539 53.568 313.034529 53.577117 313.018304 53.593342 
C 313.002078 53.609568 312.992961 53.631577 312.992961 53.654524 
C 312.992961 53.67747 313.002078 53.69948 313.018304 53.715705 
C 313.034529 53.731931 313.056539 53.741047 313.079485 53.741047 
L 313.079485 53.741047 
z
" clip-path="url(#pa830f172d8)" style="fill: none; stroke: #808080; stroke-width: 0.865236; stroke-linejoin: miter"/>
   </g>
   <g id="line2d_7">
    <path d="M 312.937463 58.005627 
L 320.912902 61.346685 
L 320.912902 61.346685 
L 312.93709 64.687925 
L 312.93709 64.687925 
" clip-path="url(#pa830f172d8)" style="fill: none; stroke: #808080; stroke-width: 0.615356; stroke-linecap: round"/>
   </g>
   <g id="line2d_8">
    <path d="M 322.868756 67.274763 
L 322.868756 55.41777 
L 329.443998 67.274763 
L 329.443998 55.41777 
" clip-path="url(#pa830f172d8)" style="fill: none; stroke: #808080; stroke-width: 0.615356; stroke-linecap: round"/>
   </g>
   <g id="line2d_9">
    <path d="M 331.451465 67.059299 
L 335.439862 55.201895 
L 335.439862 55.201895 
L 339.320014 67.059604 
L 339.320014 67.059604 
" clip-path="url(#pa830f172d8)" style="fill: none; stroke: #808080; stroke-width: 0.615356; stroke-linecap: round"/>
   </g>
   <g id="line2d_10">
    <path d="M 338.350835 64.149473 
L 332.422339 64.149473 
" clip-path="url(#pa830f172d8)" style="fill: none; stroke: #808080; stroke-width: 0.615356; stroke-linecap: round"/>
   </g>
   <g id="line2d_11">
    <path d="M 340.682582 67.275113 
L 340.682582 55.41812 
L 344.563052 61.993362 
L 344.563052 61.993362 
L 348.551314 55.41812 
L 348.551314 55.41812 
L 348.551314 67.275113 
" clip-path="url(#pa830f172d8)" style="fill: none; stroke: #808080; stroke-width: 0.615356; stroke-linecap: round"/>
   </g>
   <g id="line2d_12">
    <path d="M 356.487581 67.27518 
L 351.205829 67.27518 
L 351.205829 55.418187 
L 356.487581 55.418187 
" clip-path="url(#pa830f172d8)" style="fill: none; stroke: #808080; stroke-width: 0.615356; stroke-linecap: round"/>
   </g>
   <g id="line2d_13">
    <path d="M 351.206043 60.700218 
L 355.194305 60.700218 
" clip-path="url(#pa830f172d8)" style="fill: none; stroke: #808080; stroke-width: 0.615356; stroke-linecap: round"/>
   </g>
   <g id="line2d_14">
    <path d="M 115.286524 97.608515 
L 159.240515 97.608515 
" clip-path="url(#pa830f172d8)" style="fill: none; stroke: #c90d15; stroke-width: 0.865236; stroke-linecap: square"/>
   </g>
   <g id="line2d_15">
    <path d="M 215.249424 104.277478 
L 212.339435 104.277478 
L 211.369439 104.156228 
L 210.520692 103.67123 
L 209.914444 103.064982 
L 209.429446 102.216236 
L 209.308196 101.367489 
L 209.308196 93.850017 
L 209.308196 93.850017 
L 209.550695 92.758771 
L 209.550695 92.758771 
L 210.156943 91.788775 
L 211.126939 91.182527 
L 211.126939 91.182527 
L 212.339435 90.940028 
L 212.339435 90.940028 
L 215.249424 90.940028 
" clip-path="url(#pa830f172d8)" style="fill: none; stroke: #ffffff; stroke-width: 0.692189; stroke-linecap: round"/>
   </g>
   <g id="line2d_16">
    <path d="M 218.964177 104.27732 
L 218.964177 90.93987 
" clip-path="url(#pa830f172d8)" style="fill: none; stroke: #ffffff; stroke-width: 0.692189; stroke-linecap: round"/>
   </g>
   <g id="line2d_17">
    <path d="M 218.964205 96.88157 
L 226.360428 96.88157 
" clip-path="url(#pa830f172d8)" style="fill: none; stroke: #ffffff; stroke-width: 0.692189; stroke-linecap: round"/>
   </g>
   <g id="line2d_18">
    <path d="M 226.359777 90.939868 
L 226.359777 104.277318 
" clip-path="url(#pa830f172d8)" style="fill: none; stroke: #ffffff; stroke-width: 0.692189; stroke-linecap: round"/>
   </g>
   <g id="line2d_19">
    <path d="M 232.984545 90.939258 
L 232.257048 91.060507 
L 231.408301 91.424256 
L 230.802053 92.030504 
L 230.438304 92.758001 
L 229.832057 94.334245 
L 229.468308 95.910489 
L 229.347058 97.607983 
L 229.468308 99.305477 
L 229.832057 100.881721 
L 230.438304 102.457965 
L 230.438304 102.457965 
L 230.802053 103.185462 
L 230.802053 103.185462 
L 231.408301 103.79171 
L 232.257048 104.155459 
L 232.984545 104.276708 
L 233.833292 104.155459 
L 234.682039 103.79171 
L 235.288286 103.185462 
L 235.652035 102.457965 
L 236.258283 100.881721 
L 236.622031 99.305477 
L 236.743281 97.607983 
L 236.622031 95.910489 
L 236.258283 94.334245 
L 235.652035 92.758001 
L 235.288286 92.030504 
L 234.682039 91.424256 
L 233.833292 91.060507 
L 232.984545 90.939258 
" clip-path="url(#pa830f172d8)" style="fill: none; stroke: #ffffff; stroke-width: 0.692189; stroke-linecap: round"/>
   </g>
   <g id="line2d_20">
    <path d="M 230.074478 101.367489 
L 236.01531 93.850528 
" clip-path="url(#pa830f172d8)" style="fill: none; stroke: #ffffff; stroke-width: 0.692189; stroke-linecap: round"/>
   </g>
   <g id="line2d_21">
    <path d="M 115.286524 119.585511 
L 159.240515 119.585511 
" clip-path="url(#pa830f172d8)" style="fill: none; stroke: #c90d15; stroke-width: 0.865236; stroke-linecap: square"/>
   </g>
   <g id="line2d_22">
    <path d="M 215.249424 126.254474 
L 212.339435 126.254474 
L 211.369439 126.133224 
L 210.520692 125.648226 
L 209.914444 125.041978 
L 209.429446 124.193231 
L 209.308196 123.344484 
L 209.308196 115.827013 
L 209.308196 115.827013 
L 209.550695 114.735767 
L 209.550695 114.735767 
L 210.156943 113.76577 
L 211.126939 113.159522 
L 211.126939 113.159522 
L 212.339435 112.917023 
L 212.339435 112.917023 
L 215.249424 112.917023 
" clip-path="url(#pa830f172d8)" style="fill: none; stroke: #ffffff; stroke-width: 0.692189; stroke-linecap: round"/>
   </g>
   <g id="line2d_23">
    <path d="M 218.964177 126.254316 
L 218.964177 112.916865 
" clip-path="url(#pa830f172d8)" style="fill: none; stroke: #ffffff; stroke-width: 0.692189; stroke-linecap: round"/>
   </g>
   <g id="line2d_24">
    <path d="M 218.964205 118.858566 
L 226.360428 118.858566 
" clip-path="url(#pa830f172d8)" style="fill: none; stroke: #ffffff; stroke-width: 0.692189; stroke-linecap: round"/>
   </g>
   <g id="line2d_25">
    <path d="M 226.359777 112.916863 
L 226.359777 126.254314 
" clip-path="url(#pa830f172d8)" style="fill: none; stroke: #ffffff; stroke-width: 0.692189; stroke-linecap: round"/>
   </g>
   <g id="line2d_26">
    <path d="M 229.286307 115.826318 
L 233.044601 112.916672 
L 233.044601 112.916672 
L 233.044538 126.254221 
L 233.044538 126.254221 
" clip-path="url(#pa830f172d8)" style="fill: none; stroke: #ffffff; stroke-width: 0.692189; stroke-linecap: round"/>
   </g>
   <g id="line2d_27">
    <path d="M 229.286531 126.253942 
L 236.804003 126.253942 
" clip-path="url(#pa830f172d8)" style="fill: none; stroke: #ffffff; stroke-width: 0.692189; stroke-linecap: round"/>
   </g>
   <g id="line2d_28">
    <path d="M 115.286524 141.562506 
L 159.240515 141.562506 
" clip-path="url(#pa830f172d8)" style="fill: none; stroke: #c90d15; stroke-width: 0.865236; stroke-linecap: square"/>
   </g>
   <g id="line2d_29">
    <path d="M 215.249424 148.231469 
L 212.339435 148.231469 
L 211.369439 148.11022 
L 210.520692 147.625222 
L 209.914444 147.018974 
L 209.429446 146.170227 
L 209.308196 145.32148 
L 209.308196 137.804008 
L 209.308196 137.804008 
L 209.550695 136.712762 
L 209.550695 136.712762 
L 210.156943 135.742766 
L 211.126939 135.136518 
L 211.126939 135.136518 
L 212.339435 134.894019 
L 212.339435 134.894019 
L 215.249424 134.894019 
" clip-path="url(#pa830f172d8)" style="fill: none; stroke: #ffffff; stroke-width: 0.692189; stroke-linecap: round"/>
   </g>
   <g id="line2d_30">
    <path d="M 218.964177 148.231311 
L 218.964177 134.893861 
" clip-path="url(#pa830f172d8)" style="fill: none; stroke: #ffffff; stroke-width: 0.692189; stroke-linecap: round"/>
   </g>
   <g id="line2d_31">
    <path d="M 218.964205 140.835562 
L 226.360428 140.835562 
" clip-path="url(#pa830f172d8)" style="fill: none; stroke: #ffffff; stroke-width: 0.692189; stroke-linecap: round"/>
   </g>
   <g id="line2d_32">
    <path d="M 226.359777 134.893859 
L 226.359777 148.231309 
" clip-path="url(#pa830f172d8)" style="fill: none; stroke: #ffffff; stroke-width: 0.692189; stroke-linecap: round"/>
   </g>
   <g id="line2d_33">
    <path d="M 236.74334 148.231212 
L 229.347118 148.231212 
L 229.347118 148.231212 
L 235.652094 140.83499 
L 235.652094 140.83499 
L 235.652094 140.83499 
L 236.258342 140.107493 
L 236.258342 140.107493 
L 236.622091 139.137496 
L 236.74334 138.1675 
L 236.622091 137.197504 
L 236.137092 136.227507 
L 235.409595 135.50001 
L 234.439599 135.015012 
L 233.469602 134.893762 
L 232.135857 135.015012 
L 230.923362 135.62126 
L 229.953365 136.591256 
L 229.347118 137.803751 
" clip-path="url(#pa830f172d8)" style="fill: none; stroke: #ffffff; stroke-width: 0.692189; stroke-linecap: round"/>
   </g>
   <g id="line2d_34">
    <path d="M 115.286524 163.539502 
L 159.240515 163.539502 
" clip-path="url(#pa830f172d8)" style="fill: none; stroke: #c90d15; stroke-width: 0.865236; stroke-linecap: square"/>
   </g>
   <g id="line2d_35">
    <path d="M 215.249424 170.208465 
L 212.339435 170.208465 
L 211.369439 170.087215 
L 210.520692 169.602217 
L 209.914444 168.99597 
L 209.429446 168.147223 
L 209.308196 167.298476 
L 209.308196 159.781004 
L 209.308196 159.781004 
L 209.550695 158.689758 
L 209.550695 158.689758 
L 210.156943 157.719762 
L 211.126939 157.113514 
L 211.126939 157.113514 
L 212.339435 156.871015 
L 212.339435 156.871015 
L 215.249424 156.871015 
" clip-path="url(#pa830f172d8)" style="fill: none; stroke: #ffffff; stroke-width: 0.692189; stroke-linecap: round"/>
   </g>
   <g id="line2d_36">
    <path d="M 218.964177 170.208307 
L 218.964177 156.870857 
" clip-path="url(#pa830f172d8)" style="fill: none; stroke: #ffffff; stroke-width: 0.692189; stroke-linecap: round"/>
   </g>
   <g id="line2d_37">
    <path d="M 218.964205 162.812557 
L 226.360428 162.812557 
" clip-path="url(#pa830f172d8)" style="fill: none; stroke: #ffffff; stroke-width: 0.692189; stroke-linecap: round"/>
   </g>
   <g id="line2d_38">
    <path d="M 226.359777 156.870855 
L 226.359777 170.208305 
" clip-path="url(#pa830f172d8)" style="fill: none; stroke: #ffffff; stroke-width: 0.692189; stroke-linecap: round"/>
   </g>
   <g id="line2d_39">
    <path d="M 229.347069 170.207934 
L 232.984556 170.207934 
L 234.197051 170.086684 
L 235.167048 169.480436 
L 236.015794 168.63169 
L 236.500793 167.661693 
L 236.743292 166.449198 
L 236.500793 165.357952 
L 236.015794 164.266706 
L 235.167048 163.539209 
L 234.197051 162.932961 
L 232.984556 162.811711 
" clip-path="url(#pa830f172d8)" style="fill: none; stroke: #ffffff; stroke-width: 0.692189; stroke-linecap: round"/>
   </g>
   <g id="line2d_40">
    <path d="M 229.347069 156.870225 
L 233.712053 156.870225 
L 234.803299 156.991474 
L 235.652046 157.476472 
L 236.379543 158.325219 
L 236.743292 159.295215 
L 236.743292 160.265212 
L 236.379543 161.235208 
L 235.652046 162.083955 
L 234.803299 162.568953 
L 233.712053 162.811452 
L 230.802064 162.811452 
" clip-path="url(#pa830f172d8)" style="fill: none; stroke: #ffffff; stroke-width: 0.692189; stroke-linecap: round"/>
   </g>
   <g id="line2d_41">
    <path d="M 115.286524 185.516498 
L 159.240515 185.516498 
" clip-path="url(#pa830f172d8)" style="fill: none; stroke: #c90d15; stroke-width: 0.865236; stroke-linecap: square"/>
   </g>
   <g id="line2d_42">
    <path d="M 215.249424 192.185461 
L 212.339435 192.185461 
L 211.369439 192.064211 
L 210.520692 191.579213 
L 209.914444 190.972965 
L 209.429446 190.124218 
L 209.308196 189.275472 
L 209.308196 181.758 
L 209.308196 181.758 
L 209.550695 180.666754 
L 209.550695 180.666754 
L 210.156943 179.696757 
L 211.126939 179.09051 
L 211.126939 179.09051 
L 212.339435 178.848011 
L 212.339435 178.848011 
L 215.249424 178.848011 
" clip-path="url(#pa830f172d8)" style="fill: none; stroke: #ffffff; stroke-width: 0.692189; stroke-linecap: round"/>
   </g>
   <g id="line2d_43">
    <path d="M 218.964177 192.185303 
L 218.964177 178.847852 
" clip-path="url(#pa830f172d8)" style="fill: none; stroke: #ffffff; stroke-width: 0.692189; stroke-linecap: round"/>
   </g>
   <g id="line2d_44">
    <path d="M 218.964205 184.789553 
L 226.360428 184.789553 
" clip-path="url(#pa830f172d8)" style="fill: none; stroke: #ffffff; stroke-width: 0.692189; stroke-linecap: round"/>
   </g>
   <g id="line2d_45">
    <path d="M 226.359777 178.84785 
L 226.359777 192.185301 
" clip-path="url(#pa830f172d8)" style="fill: none; stroke: #ffffff; stroke-width: 0.692189; stroke-linecap: round"/>
   </g>
   <g id="line2d_46">
    <path d="M 232.378506 178.84753 
L 229.347271 189.274987 
L 236.742962 189.274538 
" clip-path="url(#pa830f172d8)" style="fill: none; stroke: #ffffff; stroke-width: 0.692189; stroke-linecap: round"/>
   </g>
   <g id="line2d_47">
    <path d="M 234.560515 186.244352 
L 234.560515 192.18558 
" clip-path="url(#pa830f172d8)" style="fill: none; stroke: #ffffff; stroke-width: 0.692189; stroke-linecap: round"/>
   </g>
   <g id="line2d_48">
    <path d="M 115.286524 207.493494 
L 159.240515 207.493494 
" clip-path="url(#pa830f172d8)" style="fill: none; stroke: #c90d15; stroke-width: 0.865236; stroke-linecap: square"/>
   </g>
   <g id="line2d_49">
    <path d="M 215.249424 214.162456 
L 212.339435 214.162456 
L 211.369439 214.041207 
L 210.520692 213.556209 
L 209.914444 212.949961 
L 209.429446 212.101214 
L 209.308196 211.252467 
L 209.308196 203.734995 
L 209.308196 203.734995 
L 209.550695 202.643749 
L 209.550695 202.643749 
L 210.156943 201.673753 
L 211.126939 201.067505 
L 211.126939 201.067505 
L 212.339435 200.825006 
L 212.339435 200.825006 
L 215.249424 200.825006 
" clip-path="url(#pa830f172d8)" style="fill: none; stroke: #ffffff; stroke-width: 0.692189; stroke-linecap: round"/>
   </g>
   <g id="line2d_50">
    <path d="M 218.964177 214.162298 
L 218.964177 200.824848 
" clip-path="url(#pa830f172d8)" style="fill: none; stroke: #ffffff; stroke-width: 0.692189; stroke-linecap: round"/>
   </g>
   <g id="line2d_51">
    <path d="M 218.964205 206.766549 
L 226.360428 206.766549 
" clip-path="url(#pa830f172d8)" style="fill: none; stroke: #ffffff; stroke-width: 0.692189; stroke-linecap: round"/>
   </g>
   <g id="line2d_52">
    <path d="M 226.359777 200.824846 
L 226.359777 214.162296 
" clip-path="url(#pa830f172d8)" style="fill: none; stroke: #ffffff; stroke-width: 0.692189; stroke-linecap: round"/>
   </g>
   <g id="line2d_53">
    <path d="M 229.347129 214.161925 
L 233.833362 214.161925 
L 234.924608 213.919426 
L 235.894604 213.313178 
L 236.500852 212.343182 
L 236.743351 211.251936 
L 236.743351 209.675692 
L 236.622101 208.826945 
L 236.137103 207.978198 
L 235.530856 207.250701 
L 234.682109 206.886952 
L 233.833362 206.765703 
L 229.347129 206.765703 
L 229.347129 206.765703 
L 229.347129 200.824475 
L 229.347129 200.824475 
L 229.347129 200.824475 
L 236.743351 200.824475 
L 236.743351 200.824475 
" clip-path="url(#pa830f172d8)" style="fill: none; stroke: #ffffff; stroke-width: 0.692189; stroke-linecap: round"/>
   </g>
   <g id="line2d_54">
    <path d="M 115.286524 229.470489 
L 159.240515 229.470489 
" clip-path="url(#pa830f172d8)" style="fill: none; stroke: #c90d15; stroke-width: 0.865236; stroke-linecap: square"/>
   </g>
   <g id="line2d_55">
    <path d="M 215.249424 236.139452 
L 212.339435 236.139452 
L 211.369439 236.018203 
L 210.520692 235.533204 
L 209.914444 234.926957 
L 209.429446 234.07821 
L 209.308196 233.229463 
L 209.308196 225.711991 
L 209.308196 225.711991 
L 209.550695 224.620745 
L 209.550695 224.620745 
L 210.156943 223.650749 
L 211.126939 223.044501 
L 211.126939 223.044501 
L 212.339435 222.802002 
L 212.339435 222.802002 
L 215.249424 222.802002 
" clip-path="url(#pa830f172d8)" style="fill: none; stroke: #ffffff; stroke-width: 0.692189; stroke-linecap: round"/>
   </g>
   <g id="line2d_56">
    <path d="M 218.964177 236.139294 
L 218.964177 222.801844 
" clip-path="url(#pa830f172d8)" style="fill: none; stroke: #ffffff; stroke-width: 0.692189; stroke-linecap: round"/>
   </g>
   <g id="line2d_57">
    <path d="M 218.964205 228.743545 
L 226.360428 228.743545 
" clip-path="url(#pa830f172d8)" style="fill: none; stroke: #ffffff; stroke-width: 0.692189; stroke-linecap: round"/>
   </g>
   <g id="line2d_58">
    <path d="M 226.359777 222.801842 
L 226.359777 236.139292 
" clip-path="url(#pa830f172d8)" style="fill: none; stroke: #ffffff; stroke-width: 0.692189; stroke-linecap: round"/>
   </g>
   <g id="line2d_59">
    <path d="M 229.286465 228.743013 
L 233.772699 228.743013 
L 234.742695 228.864263 
L 235.591442 229.228011 
L 236.19769 229.955509 
L 236.561438 230.804255 
L 236.803937 231.653002 
L 236.803937 232.3805 
L 236.561438 233.592995 
L 236.07644 234.562991 
L 235.227693 235.411738 
L 234.257697 236.017986 
L 233.045201 236.139236 
L 231.953955 236.017986 
L 230.862709 235.411738 
L 230.013963 234.562991 
L 229.528964 233.592995 
L 229.286465 232.3805 
L 229.286465 228.743013 
L 229.286465 228.743013 
L 229.528964 227.166769 
L 229.528964 227.166769 
L 230.135212 225.711774 
L 231.105209 224.499279 
L 232.317704 223.529283 
L 233.772699 222.923035 
L 235.227693 222.801785 
" clip-path="url(#pa830f172d8)" style="fill: none; stroke: #ffffff; stroke-width: 0.692189; stroke-linecap: round"/>
   </g>
   <g id="line2d_60">
    <path d="M 115.286524 251.447485 
L 159.240515 251.447485 
" clip-path="url(#pa830f172d8)" style="fill: none; stroke: #c90d15; stroke-width: 0.865236; stroke-linecap: square"/>
   </g>
   <g id="line2d_61">
    <path d="M 215.249424 258.116448 
L 212.339435 258.116448 
L 211.369439 257.995198 
L 210.520692 257.5102 
L 209.914444 256.903952 
L 209.429446 256.055206 
L 209.308196 255.206459 
L 209.308196 247.688987 
L 209.308196 247.688987 
L 209.550695 246.597741 
L 209.550695 246.597741 
L 210.156943 245.627744 
L 211.126939 245.021497 
L 211.126939 245.021497 
L 212.339435 244.778998 
L 212.339435 244.778998 
L 215.249424 244.778998 
" clip-path="url(#pa830f172d8)" style="fill: none; stroke: #ffffff; stroke-width: 0.692189; stroke-linecap: round"/>
   </g>
   <g id="line2d_62">
    <path d="M 218.964177 258.11629 
L 218.964177 244.77884 
" clip-path="url(#pa830f172d8)" style="fill: none; stroke: #ffffff; stroke-width: 0.692189; stroke-linecap: round"/>
   </g>
   <g id="line2d_63">
    <path d="M 218.964205 250.72054 
L 226.360428 250.72054 
" clip-path="url(#pa830f172d8)" style="fill: none; stroke: #ffffff; stroke-width: 0.692189; stroke-linecap: round"/>
   </g>
   <g id="line2d_64">
    <path d="M 226.359777 244.778838 
L 226.359777 258.116288 
" clip-path="url(#pa830f172d8)" style="fill: none; stroke: #ffffff; stroke-width: 0.692189; stroke-linecap: round"/>
   </g>
   <g id="line2d_65">
    <path d="M 229.346465 246.233261 
L 229.346465 244.778267 
L 236.742687 244.778267 
L 236.742687 244.778267 
L 233.105201 258.115717 
L 233.105201 258.115717 
" clip-path="url(#pa830f172d8)" style="fill: none; stroke: #ffffff; stroke-width: 0.692189; stroke-linecap: round"/>
   </g>
   <g id="line2d_66">
    <path d="M 357.033476 251.447485 
L 313.079485 251.447485 
" clip-path="url(#pa830f172d8)" style="fill: none; stroke: #c90d15; stroke-width: 0.865236; stroke-linecap: square"/>
   </g>
   <g id="line2d_67">
    <path d="M 250.307567 250.72054 
L 252.490063 250.72054 
L 252.490063 258.116763 
L 248.003821 258.116763 
L 247.155072 257.995513 
L 246.306324 257.510515 
L 245.578825 256.904267 
L 245.215076 256.05552 
L 245.093826 255.206773 
L 245.093826 247.689302 
L 245.336326 246.598056 
L 245.942575 245.628059 
L 246.912573 245.021811 
L 248.003821 244.779312 
L 252.490063 244.779312 
" clip-path="url(#pa830f172d8)" style="fill: none; stroke: #ffffff; stroke-width: 0.692189; stroke-linecap: round"/>
   </g>
   <g id="line2d_68">
    <path d="M 255.477819 258.115979 
L 255.477819 244.778529 
L 262.874042 258.115979 
L 262.874042 244.778529 
" clip-path="url(#pa830f172d8)" style="fill: none; stroke: #ffffff; stroke-width: 0.692189; stroke-linecap: round"/>
   </g>
   <g id="line2d_69">
    <path d="M 265.859971 258.115575 
L 265.859971 244.778125 
L 269.497457 244.778125 
L 270.709953 244.899374 
L 271.679949 245.505622 
L 272.528696 246.233119 
L 273.013694 247.324365 
L 273.256193 248.415611 
L 273.256193 254.356839 
L 273.013694 255.569335 
L 272.528696 256.539331 
L 271.679949 257.388078 
L 270.709953 257.994326 
L 269.497457 258.115575 
L 265.859971 258.115575 
" clip-path="url(#pa830f172d8)" style="fill: none; stroke: #ffffff; stroke-width: 0.692189; stroke-linecap: round"/>
   </g>
   <g id="line2d_70">
    <path d="M 357.033476 97.608515 
L 313.079485 97.608515 
" clip-path="url(#pa830f172d8)" style="fill: none; stroke: #c90d15; stroke-width: 0.865236; stroke-linecap: square"/>
   </g>
   <g id="line2d_71">
    <path d="M 244.366628 90.939893 
L 248.853014 104.277805 
L 248.853014 104.277805 
L 253.217639 90.93955 
L 253.217639 90.93955 
" clip-path="url(#pa830f172d8)" style="fill: none; stroke: #ffffff; stroke-width: 0.692189; stroke-linecap: round"/>
   </g>
   <g id="line2d_72">
    <path d="M 255.477138 104.276605 
L 255.477138 90.939155 
L 259.114625 90.939155 
L 260.32712 91.060404 
L 261.297116 91.666652 
L 262.145863 92.39415 
L 262.630861 93.485395 
L 262.873361 94.576641 
L 262.873361 100.517869 
L 262.630861 101.730365 
L 262.145863 102.700361 
L 261.297116 103.549108 
L 260.32712 104.155356 
L 259.114625 104.276605 
L 255.477138 104.276605 
" clip-path="url(#pa830f172d8)" style="fill: none; stroke: #ffffff; stroke-width: 0.692189; stroke-linecap: round"/>
   </g>
   <g id="line2d_73">
    <path d="M 265.859971 104.276605 
L 265.859971 90.939155 
L 269.497457 90.939155 
L 270.709953 91.060404 
L 271.679949 91.666652 
L 272.528696 92.39415 
L 273.013694 93.485395 
L 273.256193 94.576641 
L 273.256193 100.517869 
L 273.013694 101.730365 
L 272.528696 102.700361 
L 271.679949 103.549108 
L 270.709953 104.155356 
L 269.497457 104.276605 
L 265.859971 104.276605 
" clip-path="url(#pa830f172d8)" style="fill: none; stroke: #ffffff; stroke-width: 0.692189; stroke-linecap: round"/>
   </g>
   <g id="line2d_74">
    <path d="M 357.033476 119.585511 
L 313.079485 119.585511 
" clip-path="url(#pa830f172d8)" style="fill: none; stroke: #c90d15; stroke-width: 0.865236; stroke-linecap: square"/>
   </g>
   <g id="line2d_75">
    <path d="M 233.983796 112.916889 
L 238.470182 126.254801 
L 238.470182 126.254801 
L 242.834807 112.916545 
L 242.834807 112.916545 
" clip-path="url(#pa830f172d8)" style="fill: none; stroke: #ffffff; stroke-width: 0.692189; stroke-linecap: round"/>
   </g>
   <g id="line2d_76">
    <path d="M 245.025495 126.185683 
L 245.025495 112.848232 
L 248.784231 112.848232 
L 249.875477 112.969482 
L 250.966723 113.57573 
L 251.81547 114.303227 
L 252.300468 115.394473 
L 252.421718 116.485719 
L 252.300468 117.698214 
L 251.81547 118.668211 
L 250.966723 119.516957 
L 249.875477 120.123205 
L 248.784231 120.244455 
L 245.025495 120.244455 
" clip-path="url(#pa830f172d8)" style="fill: none; stroke: #ffffff; stroke-width: 0.692189; stroke-linecap: round"/>
   </g>
   <g id="line2d_77">
    <path d="M 252.421626 126.184267 
L 249.51174 120.243242 
" clip-path="url(#pa830f172d8)" style="fill: none; stroke: #ffffff; stroke-width: 0.692189; stroke-linecap: round"/>
   </g>
   <g id="line2d_78">
    <path d="M 262.145773 126.254474 
L 256.204545 126.254474 
L 256.204545 112.917023 
L 262.145773 112.917023 
" clip-path="url(#pa830f172d8)" style="fill: none; stroke: #ffffff; stroke-width: 0.692189; stroke-linecap: round"/>
   </g>
   <g id="line2d_79">
    <path d="M 256.204785 118.858566 
L 260.691019 118.858566 
" clip-path="url(#pa830f172d8)" style="fill: none; stroke: #ffffff; stroke-width: 0.692189; stroke-linecap: round"/>
   </g>
   <g id="line2d_80">
    <path d="M 266.58745 126.25463 
L 266.58745 112.917179 
L 272.528678 112.917179 
" clip-path="url(#pa830f172d8)" style="fill: none; stroke: #ffffff; stroke-width: 0.692189; stroke-linecap: round"/>
   </g>
   <g id="line2d_81">
    <path d="M 266.587301 118.858566 
L 272.528529 118.858566 
" clip-path="url(#pa830f172d8)" style="fill: none; stroke: #ffffff; stroke-width: 0.692189; stroke-linecap: round"/>
   </g>
   <g id="line2d_82">
    <path d="M 357.033476 141.562506 
L 313.079485 141.562506 
" clip-path="url(#pa830f172d8)" style="fill: none; stroke: #c90d15; stroke-width: 0.865236; stroke-linecap: square"/>
   </g>
   <g id="line2d_83">
    <path d="M 233.983662 147.988633 
L 238.470049 134.650721 
L 238.470049 134.650721 
L 242.834674 147.988976 
L 242.834674 147.988976 
" clip-path="url(#pa830f172d8)" style="fill: none; stroke: #ffffff; stroke-width: 0.692189; stroke-linecap: round"/>
   </g>
   <g id="line2d_84">
    <path d="M 241.744484 144.715489 
L 235.075759 144.715489 
" clip-path="url(#pa830f172d8)" style="fill: none; stroke: #ffffff; stroke-width: 0.692189; stroke-linecap: round"/>
   </g>
   <g id="line2d_85">
    <path d="M 250.307567 140.835562 
L 252.490063 140.835562 
L 252.490063 148.231784 
L 248.003821 148.231784 
L 247.155072 148.110535 
L 246.306324 147.625536 
L 245.578825 147.019289 
L 245.215076 146.170542 
L 245.093826 145.321795 
L 245.093826 137.804323 
L 245.336326 136.713077 
L 245.942575 135.743081 
L 246.912573 135.136833 
L 248.003821 134.894334 
L 252.490063 134.894334 
" clip-path="url(#pa830f172d8)" style="fill: none; stroke: #ffffff; stroke-width: 0.692189; stroke-linecap: round"/>
   </g>
   <g id="line2d_86">
    <path d="M 255.477819 148.231001 
L 255.477819 134.89355 
L 262.874042 148.231001 
L 262.874042 134.89355 
" clip-path="url(#pa830f172d8)" style="fill: none; stroke: #ffffff; stroke-width: 0.692189; stroke-linecap: round"/>
   </g>
   <g id="line2d_87">
    <path d="M 265.859971 148.230597 
L 265.859971 134.893146 
L 269.497457 134.893146 
L 270.709953 135.014396 
L 271.679949 135.620644 
L 272.528696 136.348141 
L 273.013694 137.439387 
L 273.256193 138.530633 
L 273.256193 144.471861 
L 273.013694 145.684356 
L 272.528696 146.654352 
L 271.679949 147.503099 
L 270.709953 148.109347 
L 269.497457 148.230597 
L 265.859971 148.230597 
" clip-path="url(#pa830f172d8)" style="fill: none; stroke: #ffffff; stroke-width: 0.692189; stroke-linecap: round"/>
   </g>
   <g id="line2d_88">
    <path d="M 357.033476 163.539502 
L 313.079485 163.539502 
" clip-path="url(#pa830f172d8)" style="fill: none; stroke: #c90d15; stroke-width: 0.865236; stroke-linecap: square"/>
   </g>
   <g id="line2d_89">
    <path d="M 251.762385 170.208465 
L 248.852396 170.208465 
L 247.8824 170.087215 
L 247.033653 169.602217 
L 246.427405 168.99597 
L 245.942407 168.147223 
L 245.821158 167.298476 
L 245.821158 159.781004 
L 245.821158 159.781004 
L 246.063657 158.689758 
L 246.063657 158.689758 
L 246.669904 157.719762 
L 247.639901 157.113514 
L 247.639901 157.113514 
L 248.852396 156.871015 
L 248.852396 156.871015 
L 251.762385 156.871015 
" clip-path="url(#pa830f172d8)" style="fill: none; stroke: #ffffff; stroke-width: 0.692189; stroke-linecap: round"/>
   </g>
   <g id="line2d_90">
    <path d="M 256.204289 156.870951 
L 256.204289 170.208401 
L 262.145517 170.208401 
" clip-path="url(#pa830f172d8)" style="fill: none; stroke: #ffffff; stroke-width: 0.692189; stroke-linecap: round"/>
   </g>
   <g id="line2d_91">
    <path d="M 265.860652 170.219743 
L 265.860652 156.882293 
" clip-path="url(#pa830f172d8)" style="fill: none; stroke: #ffffff; stroke-width: 0.692189; stroke-linecap: round"/>
   </g>
   <g id="line2d_92">
    <path d="M 273.257028 156.880944 
L 265.85991 165.005648 
" clip-path="url(#pa830f172d8)" style="fill: none; stroke: #ffffff; stroke-width: 0.692189; stroke-linecap: round"/>
   </g>
   <g id="line2d_93">
    <path d="M 273.256426 170.219454 
L 268.770052 162.095483 
" clip-path="url(#pa830f172d8)" style="fill: none; stroke: #ffffff; stroke-width: 0.692189; stroke-linecap: round"/>
   </g>
   <g id="line2d_94">
    <path d="M 357.033476 185.516498 
L 313.079485 185.516498 
" clip-path="url(#pa830f172d8)" style="fill: none; stroke: #c90d15; stroke-width: 0.865236; stroke-linecap: square"/>
   </g>
   <g id="line2d_95">
    <path d="M 234.711473 192.184588 
L 234.711473 178.847138 
L 238.348959 178.847138 
L 239.561455 178.968387 
L 240.531451 179.574635 
L 241.380198 180.302132 
L 241.865196 181.393378 
L 242.107695 182.484624 
L 242.107695 188.425852 
L 241.865196 189.638348 
L 241.380198 190.608344 
L 240.531451 191.457091 
L 239.561455 192.063338 
L 238.348959 192.184588 
L 234.711473 192.184588 
" clip-path="url(#pa830f172d8)" style="fill: none; stroke: #ffffff; stroke-width: 0.692189; stroke-linecap: round"/>
   </g>
   <g id="line2d_96">
    <path d="M 245.034362 182.48497 
L 245.276861 181.393724 
L 245.761859 180.302478 
L 246.610606 179.574981 
L 247.701852 178.968733 
L 248.793098 178.847484 
L 250.005593 178.968733 
L 250.97559 179.574981 
L 251.824337 180.302478 
L 252.309335 181.393724 
L 252.551834 182.48497 
L 252.551834 188.426198 
L 252.309335 189.638693 
L 251.824337 190.60869 
L 250.97559 191.457436 
L 250.005593 192.063684 
L 248.793098 192.184934 
L 247.701852 192.063684 
L 246.610606 191.457436 
L 245.761859 190.60869 
L 245.276861 189.638693 
L 245.034362 188.426198 
L 245.034362 182.48497 
" clip-path="url(#pa830f172d8)" style="fill: none; stroke: #ffffff; stroke-width: 0.692189; stroke-linecap: round"/>
   </g>
   <g id="line2d_97">
    <path d="M 255.477049 178.84851 
L 255.477049 188.427224 
L 255.477049 188.427224 
L 255.719548 189.63972 
L 255.719548 189.63972 
L 256.204546 190.609716 
L 257.053293 191.458463 
L 258.023289 192.064711 
L 259.235785 192.18596 
L 260.32703 192.064711 
L 261.418276 191.458463 
L 262.267023 190.609716 
L 262.752021 189.63972 
L 262.873271 188.427224 
L 262.873271 178.84851 
" clip-path="url(#pa830f172d8)" style="fill: none; stroke: #ffffff; stroke-width: 0.692189; stroke-linecap: round"/>
   </g>
   <g id="line2d_98">
    <path d="M 269.497369 192.184939 
L 269.497369 178.847489 
" clip-path="url(#pa830f172d8)" style="fill: none; stroke: #ffffff; stroke-width: 0.692189; stroke-linecap: round"/>
   </g>
   <g id="line2d_99">
    <path d="M 265.859593 178.847752 
L 273.255816 178.847752 
" clip-path="url(#pa830f172d8)" style="fill: none; stroke: #ffffff; stroke-width: 0.692189; stroke-linecap: round"/>
   </g>
   <g id="line2d_100">
    <path d="M 357.033476 207.493494 
L 313.079485 207.493494 
" clip-path="url(#pa830f172d8)" style="fill: none; stroke: #c90d15; stroke-width: 0.865236; stroke-linecap: square"/>
   </g>
   <g id="line2d_101">
    <path d="M 245.094306 214.161584 
L 245.094306 200.824133 
L 248.731792 200.824133 
L 249.944287 200.945383 
L 250.914284 201.551631 
L 251.763031 202.279128 
L 252.248029 203.370374 
L 252.490528 204.46162 
L 252.490528 210.402848 
L 252.248029 211.615343 
L 251.763031 212.58534 
L 250.914284 213.434086 
L 249.944287 214.040334 
L 248.731792 214.161584 
L 245.094306 214.161584 
" clip-path="url(#pa830f172d8)" style="fill: none; stroke: #ffffff; stroke-width: 0.692189; stroke-linecap: round"/>
   </g>
   <g id="line2d_102">
    <path d="M 259.236022 200.825181 
L 259.236022 214.162632 
" clip-path="url(#pa830f172d8)" style="fill: none; stroke: #ffffff; stroke-width: 0.692189; stroke-linecap: round"/>
   </g>
   <g id="line2d_103">
    <path d="M 257.659401 214.162456 
L 260.69064 214.162456 
" clip-path="url(#pa830f172d8)" style="fill: none; stroke: #ffffff; stroke-width: 0.692189; stroke-linecap: round"/>
   </g>
   <g id="line2d_104">
    <path d="M 257.659401 200.824747 
L 260.69064 200.824747 
" clip-path="url(#pa830f172d8)" style="fill: none; stroke: #ffffff; stroke-width: 0.692189; stroke-linecap: round"/>
   </g>
   <g id="line2d_105">
    <path d="M 265.860652 214.161988 
L 265.860652 200.824537 
L 273.256874 214.161988 
L 273.256874 200.824537 
" clip-path="url(#pa830f172d8)" style="fill: none; stroke: #ffffff; stroke-width: 0.692189; stroke-linecap: round"/>
   </g>
   <g id="line2d_106">
    <path d="M 357.033476 229.470489 
L 313.079485 229.470489 
" clip-path="url(#pa830f172d8)" style="fill: none; stroke: #c90d15; stroke-width: 0.865236; stroke-linecap: square"/>
   </g>
   <g id="line2d_107">
    <path d="M 245.822417 237.655023 
L 251.763742 221.286048 
" clip-path="url(#pa830f172d8)" style="fill: none; stroke: #ffffff; stroke-width: 0.692189; stroke-linecap: round"/>
   </g>
   <g id="line2d_108">
    <path d="M 262.145218 236.139452 
L 259.235229 236.139452 
L 258.265233 236.018203 
L 257.416486 235.533204 
L 256.810238 234.926957 
L 256.32524 234.07821 
L 256.20399 233.229463 
L 256.20399 225.711991 
L 256.20399 225.711991 
L 256.446489 224.620745 
L 256.446489 224.620745 
L 257.052737 223.650749 
L 258.022733 223.044501 
L 258.022733 223.044501 
L 259.235229 222.802002 
L 259.235229 222.802002 
L 262.145218 222.802002 
" clip-path="url(#pa830f172d8)" style="fill: none; stroke: #ffffff; stroke-width: 0.692189; stroke-linecap: round"/>
   </g>
   <g id="line2d_109">
    <path d="M 265.859989 234.320235 
L 267.193734 235.290231 
L 268.648729 235.896479 
L 270.346222 236.138978 
L 271.194969 236.017728 
L 272.043716 235.53273 
L 272.771213 234.926483 
L 273.134962 234.077736 
L 273.256212 233.228989 
L 273.134962 232.137743 
L 272.649964 231.288996 
L 272.649964 231.288996 
L 271.801217 230.561499 
L 271.801217 230.561499 
L 271.801217 230.561499 
L 267.678732 228.379007 
L 267.678732 228.379007 
L 266.951235 227.65151 
L 266.466237 226.802763 
L 266.223738 225.711517 
L 266.344987 224.86277 
L 266.829986 224.014023 
L 267.436233 223.286526 
L 268.28498 222.922777 
L 269.254976 222.801528 
L 270.346222 222.922777 
L 271.558718 223.286526 
L 272.528714 223.892774 
" clip-path="url(#pa830f172d8)" style="fill: none; stroke: #ffffff; stroke-width: 0.692189; stroke-linecap: round"/>
   </g>
   <g id="line2d_110">
    <path d="M 159.240515 75.631519 
L 159.240515 273.424481 
" clip-path="url(#pa830f172d8)" style="fill: none; stroke: #c90d15; stroke-width: 2.1977; stroke-linecap: round"/>
   </g>
   <g id="line2d_111">
    <path d="M 159.240515 273.424481 
L 313.079485 273.424481 
" clip-path="url(#pa830f172d8)" style="fill: none; stroke: #c90d15; stroke-width: 2.1977; stroke-linecap: round"/>
   </g>
   <g id="line2d_112">
    <path d="M 313.079485 273.424481 
L 313.079485 75.631519 
" clip-path="url(#pa830f172d8)" style="fill: none; stroke: #c90d15; stroke-width: 2.1977; stroke-linecap: round"/>
   </g>
   <g id="line2d_113">
    <path d="M 313.079485 75.631519 
L 159.240515 75.631519 
" clip-path="url(#pa830f172d8)" style="fill: none; stroke: #c90d15; stroke-width: 2.1977; stroke-linecap: round"/>
   </g>
   <g id="matplotlib.axis_1">
    <g id="xtick_1">
     <g id="line2d_114">
      <defs>
       <path id="m97d97e931c" d="M 0 0 
L 0 3.5 
" style="stroke: #ffffff; stroke-width: 0.8"/>
      </defs>
      <g>
       <use xlink:href="#m97d97e931c" x="138.647897" y="307.584" style="fill: #ffffff; stroke: #ffffff; stroke-width: 0.8"/>
      </g>
     </g>
     <g id="text_1">
      <text style="fill: #ffffff; font: 10px 'sans-serif'; text-anchor: middle" x="138.647897" y="322.182437" transform="rotate(-0, 138.647897, 322.182437)">−10</text>
     </g>
    </g>
    <g id="xtick_2">
     <g id="line2d_115">
      <g>
       <use xlink:href="#m97d97e931c" x="181.9097" y="307.584" style="fill: #ffffff; stroke: #ffffff; stroke-width: 0.8"/>
      </g>
     </g>
     <g id="text_2">
      <text style="fill: #ffffff; font: 10px 'sans-serif'; text-anchor: middle" x="181.9097" y="322.182437" transform="rotate(-0, 181.9097, 322.182437)">−5</text>
     </g>
    </g>
    <g id="xtick_3">
     <g id="line2d_116">
      <g>
       <use xlink:href="#m97d97e931c" x="225.171502" y="307.584" style="fill: #ffffff; stroke: #ffffff; stroke-width: 0.8"/>
      </g>
     </g>
     <g id="text_3">
      <text style="fill: #ffffff; font: 10px 'sans-serif'; text-anchor: middle" x="225.171502" y="322.182437" transform="rotate(-0, 225.171502, 322.182437)">0</text>
     </g>
    </g>
    <g id="xtick_4">
     <g id="line2d_117">
      <g>
       <use xlink:href="#m97d97e931c" x="268.433305" y="307.584" style="fill: #ffffff; stroke: #ffffff; stroke-width: 0.8"/>
      </g>
     </g>
     <g id="text_4">
      <text style="fill: #ffffff; font: 10px 'sans-serif'; text-anchor: middle" x="268.433305" y="322.182437" transform="rotate(-0, 268.433305, 322.182437)">5</text>
     </g>
    </g>
    <g id="xtick_5">
     <g id="line2d_118">
      <g>
       <use xlink:href="#m97d97e931c" x="311.695107" y="307.584" style="fill: #ffffff; stroke: #ffffff; stroke-width: 0.8"/>
      </g>
     </g>
     <g id="text_5">
      <text style="fill: #ffffff; font: 10px 'sans-serif'; text-anchor: middle" x="311.695107" y="322.182437" transform="rotate(-0, 311.695107, 322.182437)">10</text>
     </g>
    </g>
    <g id="xtick_6">
     <g id="line2d_119">
      <g>
       <use xlink:href="#m97d97e931c" x="354.95691" y="307.584" style="fill: #ffffff; stroke: #ffffff; stroke-width: 0.8"/>
      </g>
     </g>
     <g id="text_6">
      <text style="fill: #ffffff; font: 10px 'sans-serif'; text-anchor: middle" x="354.95691" y="322.182437" transform="rotate(-0, 354.95691, 322.182437)">15</text>
     </g>
    </g>
   </g>
   <g id="matplotlib.axis_2">
    <g id="ytick_1">
     <g id="line2d_120">
      <defs>
       <path id="md5598d19d8" d="M 0 0 
L -3.5 0 
" style="stroke: #ffffff; stroke-width: 0.8"/>
      </defs>
      <g>
       <use xlink:href="#md5598d19d8" x="103.199176" y="293.32491" style="fill: #ffffff; stroke: #ffffff; stroke-width: 0.8"/>
      </g>
     </g>
     <g id="text_7">
      <text style="fill: #ffffff; font: 10px 'sans-serif'; text-anchor: end" x="96.199176" y="297.124129" transform="rotate(-0, 96.199176, 297.124129)">−15</text>
     </g>
    </g>
    <g id="ytick_2">
     <g id="line2d_121">
      <g>
       <use xlink:href="#md5598d19d8" x="103.199176" y="250.063107" style="fill: #ffffff; stroke: #ffffff; stroke-width: 0.8"/>
      </g>
     </g>
     <g id="text_8">
      <text style="fill: #ffffff; font: 10px 'sans-serif'; text-anchor: end" x="96.199176" y="253.862326" transform="rotate(-0, 96.199176, 253.862326)">−10</text>
     </g>
    </g>
    <g id="ytick_3">
     <g id="line2d_122">
      <g>
       <use xlink:href="#md5598d19d8" x="103.199176" y="206.801305" style="fill: #ffffff; stroke: #ffffff; stroke-width: 0.8"/>
      </g>
     </g>
     <g id="text_9">
      <text style="fill: #ffffff; font: 10px 'sans-serif'; text-anchor: end" x="96.199176" y="210.600523" transform="rotate(-0, 96.199176, 210.600523)">−5</text>
     </g>
    </g>
    <g id="ytick_4">
     <g id="line2d_123">
      <g>
       <use xlink:href="#md5598d19d8" x="103.199176" y="163.539502" style="fill: #ffffff; stroke: #ffffff; stroke-width: 0.8"/>
      </g>
     </g>
     <g id="text_10">
      <text style="fill: #ffffff; font: 10px 'sans-serif'; text-anchor: end" x="96.199176" y="167.338721" transform="rotate(-0, 96.199176, 167.338721)">0</text>
     </g>
    </g>
    <g id="ytick_5">
     <g id="line2d_124">
      <g>
       <use xlink:href="#md5598d19d8" x="103.199176" y="120.2777" style="fill: #ffffff; stroke: #ffffff; stroke-width: 0.8"/>
      </g>
     </g>
     <g id="text_11">
      <text style="fill: #ffffff; font: 10px 'sans-serif'; text-anchor: end" x="96.199176" y="124.076918" transform="rotate(-0, 96.199176, 124.076918)">5</text>
     </g>
    </g>
    <g id="ytick_6">
     <g id="line2d_125">
      <g>
       <use xlink:href="#md5598d19d8" x="103.199176" y="77.015897" style="fill: #ffffff; stroke: #ffffff; stroke-width: 0.8"/>
      </g>
     </g>
     <g id="text_12">
      <text style="fill: #ffffff; font: 10px 'sans-serif'; text-anchor: end" x="96.199176" y="80.815116" transform="rotate(-0, 96.199176, 80.815116)">10</text>
     </g>
    </g>
   </g>
   <g id="patch_5">
    <path d="M 103.199176 307.584 
L 103.199176 41.472 
" style="fill: none; stroke: #ffffff; stroke-width: 0.8; stroke-linejoin: miter; stroke-linecap: square"/>
   </g>
   <g id="patch_6">
    <path d="M 369.120824 307.584 
L 369.120824 41.472 
" style="fill: none; stroke: #ffffff; stroke-width: 0.8; stroke-linejoin: miter; stroke-linecap: square"/>
   </g>
   <g id="patch_7">
    <path d="M 103.199176 307.584 
L 369.120824 307.584 
" style="fill: none; stroke: #ffffff; stroke-width: 0.8; stroke-linejoin: miter; stroke-linecap: square"/>
   </g>
   <g id="patch_8">
    <path d="M 103.199176 41.472 
L 369.120824 41.472 
" style="fill: none; stroke: #ffffff; stroke-width: 0.8; stroke-linejoin: miter; stroke-linecap: square"/>
   </g>
   <g id="text_13">
    <text style="fill: #ffffff; font: 12px 'sans-serif'; text-anchor: middle" x="236.16" y="35.472" transform="rotate(-0, 236.16, 35.472)">MCP3008</text>
   </g>
  </g>
 </g>
 <defs>
  <clipPath id="pa830f172d8">
   <rect x="103.199176" y="41.472" width="265.921648" height="266.112"/>
  </clipPath>
 </defs>
</svg>
