<?xml version="1.0" encoding="utf-8" standalone="no"?>
<!DOCTYPE svg PUBLIC "-//W3C//DTD SVG 1.1//EN"
  "http://www.w3.org/Graphics/SVG/1.1/DTD/svg11.dtd">
<svg xmlns:xlink="http://www.w3.org/1999/xlink" width="460.8pt" height="345.6pt" viewBox="0 0 460.8 345.6" xmlns="http://www.w3.org/2000/svg" version="1.1">
 <metadata>
  <rdf:RDF xmlns:dc="http://purl.org/dc/elements/1.1/" xmlns:cc="http://creativecommons.org/ns#" xmlns:rdf="http://www.w3.org/1999/02/22-rdf-syntax-ns#">
   <cc:Work>
    <dc:type rdf:resource="http://purl.org/dc/dcmitype/StillImage"/>
    <dc:date>2023-02-18T16:06:02.379784</dc:date>
    <dc:format>image/svg+xml</dc:format>
    <dc:creator>
     <cc:Agent>
      <dc:title>Matplotlib v3.5.1, https://matplotlib.org/</dc:title>
     </cc:Agent>
    </dc:creator>
   </cc:Work>
  </rdf:RDF>
 </metadata>
 <defs>
  <style type="text/css">*{stroke-linejoin: round; stroke-linecap: butt}</style>
 </defs>
 <g id="figure_1">
  <g id="patch_1">
   <path d="M 0 345.6 
L 460.8 345.6 
L 460.8 0 
L 0 0 
z
" style="fill: #2b2b2b"/>
  </g>
  <g id="axes_1">
   <g id="patch_2">
    <path d="M 162.445964 307.584 
L 309.874036 307.584 
L 309.874036 41.472 
L 162.445964 41.472 
z
" style="fill: #2b2b2b"/>
   </g>
   <g id="patch_3">
    <path d="M 176.54785 295.488 
C 176.573216 295.488 176.597546 295.477922 176.615482 295.459986 
C 176.633418 295.44205 176.643496 295.41772 176.643496 295.392355 
C 176.643496 295.366989 176.633418 295.342659 176.615482 295.324723 
C 176.597546 295.306787 176.573216 295.296709 176.54785 295.296709 
C 176.522485 295.296709 176.498155 295.306787 176.480219 295.324723 
C 176.462283 295.342659 176.452205 295.366989 176.452205 295.392355 
C 176.452205 295.41772 176.462283 295.44205 176.480219 295.459986 
C 176.498155 295.477922 176.522485 295.488 176.54785 295.488 
L 176.54785 295.488 
z
" clip-path="url(#p4991c4df9b)" style="fill: none; stroke: #ffcd07; stroke-width: 0.956454; stroke-linejoin: miter"/>
   </g>
   <g id="line2d_1">
    <path d="M 176.435711 286.680979 
L 182.733033 289.319042 
L 182.733033 289.319042 
L 176.435417 291.95725 
L 176.435417 291.95725 
" clip-path="url(#p4991c4df9b)" style="fill: none; stroke: #ffcd07; stroke-width: 0.485878; stroke-linecap: round"/>
   </g>
   <g id="line2d_2">
    <path d="M 183.766087 284.637869 
L 186.915283 294.000349 
L 186.915283 294.000349 
L 189.979009 284.637628 
L 189.979009 284.637628 
" clip-path="url(#p4991c4df9b)" style="fill: none; stroke: #ffcd07; stroke-width: 0.485878; stroke-linecap: round"/>
   </g>
   <g id="line2d_3">
    <path d="M 196.245676 290.165473 
L 193.862582 290.165473 
L 193.181698 290.335694 
L 192.585925 290.761246 
L 192.160372 291.271909 
L 192.075262 292.037904 
L 192.160372 292.718788 
L 192.585925 293.314561 
L 193.181698 293.740114 
L 193.862582 293.825224 
L 196.245676 293.825224 
L 196.245676 289.144147 
L 196.075455 288.548373 
L 195.735013 288.03771 
L 195.22435 287.697268 
L 194.628577 287.612158 
L 192.585925 287.612158 
" clip-path="url(#p4991c4df9b)" style="fill: none; stroke: #ffcd07; stroke-width: 0.485878; stroke-linecap: round"/>
   </g>
   <g id="line2d_4">
    <path d="M 200.682847 284.461308 
L 200.682847 292.291475 
L 200.767958 292.887248 
L 201.1084 293.397911 
L 201.619063 293.738353 
L 202.214837 293.823464 
" clip-path="url(#p4991c4df9b)" style="fill: none; stroke: #ffcd07; stroke-width: 0.485878; stroke-linecap: round"/>
   </g>
   <g id="line2d_5">
    <path d="M 206.651853 287.610392 
L 206.651853 292.29147 
L 206.822074 292.887243 
L 207.162516 293.397906 
L 207.673179 293.738348 
L 208.268953 293.823459 
L 210.822268 293.823459 
L 210.822268 287.610392 
" clip-path="url(#p4991c4df9b)" style="fill: none; stroke: #ffcd07; stroke-width: 0.485878; stroke-linecap: round"/>
   </g>
   <g id="line2d_6">
    <path d="M 218.111082 293.823548 
L 215.472656 293.823548 
L 214.876883 293.738437 
L 214.36622 293.397995 
L 214.025778 292.887332 
L 214.025778 292.887332 
L 213.940667 292.291559 
L 213.940667 292.291559 
L 213.940667 289.653133 
L 214.025778 288.972249 
L 214.45133 288.291365 
L 214.961993 287.865812 
L 215.642877 287.610481 
L 216.408872 287.610481 
L 217.089756 287.865812 
L 217.600419 288.291365 
L 217.940861 288.972249 
L 218.111082 289.653133 
L 218.111082 290.674459 
L 213.940667 290.674459 
" clip-path="url(#p4991c4df9b)" style="fill: none; stroke: #ffcd07; stroke-width: 0.485878; stroke-linecap: round"/>
   </g>
   <g id="patch_4">
    <path d="M 169.259674 64.418366 
C 169.285039 64.418366 169.309369 64.408288 169.327305 64.390352 
C 169.345241 64.372416 169.355319 64.348086 169.355319 64.32272 
C 169.355319 64.297355 169.345241 64.273025 169.327305 64.255089 
C 169.309369 64.237153 169.285039 64.227075 169.259674 64.227075 
C 169.234308 64.227075 169.209978 64.237153 169.192042 64.255089 
C 169.174106 64.273025 169.164028 64.297355 169.164028 64.32272 
C 169.164028 64.348086 169.174106 64.372416 169.192042 64.390352 
C 169.209978 64.408288 169.234308 64.418366 169.259674 64.418366 
L 169.259674 64.418366 
z
" clip-path="url(#p4991c4df9b)" style="fill: none; stroke: #808080; stroke-width: 0.956454; stroke-linejoin: miter"/>
   </g>
   <g id="line2d_7">
    <path d="M 169.147535 55.611344 
L 175.444856 58.249408 
L 175.444856 58.249408 
L 169.14724 60.887616 
L 169.14724 60.887616 
" clip-path="url(#p4991c4df9b)" style="fill: none; stroke: #808080; stroke-width: 0.485878; stroke-linecap: round"/>
   </g>
   <g id="line2d_8">
    <path d="M 176.989178 62.930156 
L 176.989178 53.568 
L 182.180919 62.930156 
L 182.180919 53.568 
" clip-path="url(#p4991c4df9b)" style="fill: none; stroke: #808080; stroke-width: 0.485878; stroke-linecap: round"/>
   </g>
   <g id="line2d_9">
    <path d="M 188.9575 59.095839 
L 186.574406 59.095839 
L 185.893521 59.26606 
L 185.297748 59.691612 
L 184.872195 60.202275 
L 184.787085 60.96827 
L 184.872195 61.649154 
L 185.297748 62.244927 
L 185.893521 62.67048 
L 186.574406 62.75559 
L 188.9575 62.75559 
L 188.9575 58.074513 
L 188.787279 57.478739 
L 188.446837 56.968076 
L 187.936174 56.627634 
L 187.3404 56.542523 
L 185.297748 56.542523 
" clip-path="url(#p4991c4df9b)" style="fill: none; stroke: #808080; stroke-width: 0.485878; stroke-linecap: round"/>
   </g>
   <g id="line2d_10">
    <path d="M 191.011593 62.754277 
L 191.011593 56.54121 
L 195.692671 56.54121 
L 196.288444 56.626321 
L 196.799107 56.966763 
L 197.139549 57.477426 
L 197.30977 58.073199 
L 197.30977 62.754277 
" clip-path="url(#p4991c4df9b)" style="fill: none; stroke: #808080; stroke-width: 0.485878; stroke-linecap: round"/>
   </g>
   <g id="line2d_11">
    <path d="M 194.161195 62.753834 
L 194.161195 56.540767 
" clip-path="url(#p4991c4df9b)" style="fill: none; stroke: #808080; stroke-width: 0.485878; stroke-linecap: round"/>
   </g>
   <g id="line2d_12">
    <path d="M 203.534729 62.753914 
L 200.896303 62.753914 
L 200.30053 62.668803 
L 199.789866 62.328361 
L 199.449424 61.817698 
L 199.449424 61.817698 
L 199.364314 61.221925 
L 199.364314 61.221925 
L 199.364314 58.583499 
L 199.449424 57.902615 
L 199.874977 57.221731 
L 200.38564 56.796178 
L 201.066524 56.540847 
L 201.832519 56.540847 
L 202.513403 56.796178 
L 203.024066 57.221731 
L 203.364508 57.902615 
L 203.534729 58.583499 
L 203.534729 59.604825 
L 199.364314 59.604825 
" clip-path="url(#p4991c4df9b)" style="fill: none; stroke: #808080; stroke-width: 0.485878; stroke-linecap: round"/>
   </g>
   <g id="patch_5">
    <path d="M 236.364461 187.590465 
C 249.250108 187.590465 261.609727 182.470943 270.721255 173.359415 
C 279.832784 164.247887 284.952306 151.888268 284.952306 139.00262 
C 284.952306 126.116973 279.832784 113.757354 270.721255 104.645826 
C 261.609727 95.534298 249.250108 90.414776 236.364461 90.414776 
C 223.478814 90.414776 211.119195 95.534298 202.007666 104.645826 
C 192.896138 113.757354 187.776616 126.116973 187.776616 139.00262 
C 187.776616 151.888268 192.896138 164.247887 202.007666 173.359415 
C 211.119195 182.470943 223.478814 187.590465 236.364461 187.590465 
L 236.364461 187.590465 
z
" clip-path="url(#p4991c4df9b)" style="fill: none; stroke: #808080; stroke-width: 2.429392; stroke-linejoin: miter"/>
   </g>
   <g id="line2d_13">
    <path d="M 169.556174 91.629472 
L 169.556174 249.539967 
" clip-path="url(#p4991c4df9b)" style="fill: none; stroke: #808080; stroke-width: 2.429392; stroke-linecap: round"/>
   </g>
   <g id="patch_6">
    <path d="M 169.556162 249.539967 
C 169.556165 255.980647 172.117446 262.16412 176.671695 266.718367 
C 181.225943 271.272614 187.409417 273.833893 193.850097 273.833894 
" clip-path="url(#p4991c4df9b)" style="fill: none; stroke: #808080; stroke-width: 2.429392; stroke-linejoin: miter"/>
   </g>
   <g id="line2d_14">
    <path d="M 193.850097 273.83389 
L 278.878825 273.83389 
" clip-path="url(#p4991c4df9b)" style="fill: none; stroke: #808080; stroke-width: 2.429392; stroke-linecap: round"/>
   </g>
   <g id="patch_7">
    <path d="M 278.878825 273.833894 
C 285.319504 273.833893 291.502978 271.272614 296.057227 266.718367 
C 300.611476 262.16412 303.172757 255.980647 303.17276 249.539967 
" clip-path="url(#p4991c4df9b)" style="fill: none; stroke: #808080; stroke-width: 2.429392; stroke-linejoin: miter"/>
   </g>
   <g id="line2d_15">
    <path d="M 303.172747 249.539967 
L 303.172747 91.629472 
" clip-path="url(#p4991c4df9b)" style="fill: none; stroke: #808080; stroke-width: 2.429392; stroke-linecap: round"/>
   </g>
   <g id="patch_8">
    <path d="M 303.17276 91.629472 
C 303.172762 88.43922 302.544354 85.279989 301.323499 82.332579 
C 300.102644 79.38517 298.313085 76.706903 296.057237 74.451053 
C 293.80139 72.195203 291.123124 70.405642 288.175716 69.184784 
C 285.228308 67.963927 282.069077 67.335516 278.878825 67.335515 
" clip-path="url(#p4991c4df9b)" style="fill: none; stroke: #808080; stroke-width: 2.429392; stroke-linejoin: miter"/>
   </g>
   <g id="line2d_16">
    <path d="M 278.878825 67.335549 
L 193.850097 67.335549 
" clip-path="url(#p4991c4df9b)" style="fill: none; stroke: #808080; stroke-width: 2.429392; stroke-linecap: round"/>
   </g>
   <g id="patch_9">
    <path d="M 193.850097 67.335515 
C 190.659845 67.335516 187.500614 67.963927 184.553206 69.184784 
C 181.605798 70.405642 178.927532 72.195203 176.671684 74.451053 
C 174.415836 76.706903 172.626277 79.38517 171.405422 82.332579 
C 170.184568 85.279989 169.55616 88.43922 169.556162 91.629472 
" clip-path="url(#p4991c4df9b)" style="fill: none; stroke: #808080; stroke-width: 2.429392; stroke-linejoin: miter"/>
   </g>
   <g id="patch_10">
    <path d="M 212.070538 259.104504 
C 214.607083 259.104504 217.040079 258.096724 218.833687 256.303116 
C 220.627295 254.509508 221.635075 252.076512 221.635075 249.539967 
C 221.635075 247.003423 220.627295 244.570427 218.833687 242.776819 
C 217.040079 240.983211 214.607083 239.975431 212.070538 239.975431 
C 209.533994 239.975431 207.100998 240.983211 205.30739 242.776819 
C 203.513782 244.570427 202.506002 247.003423 202.506002 249.539967 
C 202.506002 252.076512 203.513782 254.509508 205.30739 256.303116 
C 207.100998 258.096724 209.533994 259.104504 212.070538 259.104504 
z
" clip-path="url(#p4991c4df9b)" style="fill: #0dab76"/>
   </g>
   <g id="patch_11">
    <path d="M 212.070538 254.322235 
C 213.338811 254.322235 214.555309 253.818346 215.452113 252.921542 
C 216.348917 252.024738 216.852807 250.80824 216.852807 249.539967 
C 216.852807 248.271695 216.348917 247.055197 215.452113 246.158393 
C 214.555309 245.261589 213.338811 244.757699 212.070538 244.757699 
C 210.802266 244.757699 209.585768 245.261589 208.688964 246.158393 
C 207.79216 247.055197 207.28827 248.271695 207.28827 249.539967 
C 207.28827 250.80824 207.79216 252.024738 208.688964 252.921542 
C 209.585768 253.818346 210.802266 254.322235 212.070538 254.322235 
z
" clip-path="url(#p4991c4df9b)" style="fill: #a0a0a0"/>
   </g>
   <g id="patch_12">
    <path d="M 236.364461 259.104504 
C 238.901006 259.104504 241.334001 258.096724 243.127609 256.303116 
C 244.921217 254.509508 245.928997 252.076512 245.928997 249.539967 
C 245.928997 247.003423 244.921217 244.570427 243.127609 242.776819 
C 241.334001 240.983211 238.901006 239.975431 236.364461 239.975431 
C 233.827916 239.975431 231.39492 240.983211 229.601312 242.776819 
C 227.807704 244.570427 226.799924 247.003423 226.799924 249.539967 
C 226.799924 252.076512 227.807704 254.509508 229.601312 256.303116 
C 231.39492 258.096724 233.827916 259.104504 236.364461 259.104504 
z
" clip-path="url(#p4991c4df9b)" style="fill: #0dab76"/>
   </g>
   <g id="patch_13">
    <path d="M 236.364461 254.322235 
C 237.632733 254.322235 238.849231 253.818346 239.746035 252.921542 
C 240.642839 252.024738 241.146729 250.80824 241.146729 249.539967 
C 241.146729 248.271695 240.642839 247.055197 239.746035 246.158393 
C 238.849231 245.261589 237.632733 244.757699 236.364461 244.757699 
C 235.096188 244.757699 233.879691 245.261589 232.982887 246.158393 
C 232.086083 247.055197 231.582193 248.271695 231.582193 249.539967 
C 231.582193 250.80824 232.086083 252.024738 232.982887 252.921542 
C 233.879691 253.818346 235.096188 254.322235 236.364461 254.322235 
z
" clip-path="url(#p4991c4df9b)" style="fill: #a0a0a0"/>
   </g>
   <g id="patch_14">
    <path d="M 260.658383 259.104504 
C 263.194928 259.104504 265.627924 258.096724 267.421532 256.303116 
C 269.21514 254.509508 270.22292 252.076512 270.22292 249.539967 
C 270.22292 247.003423 269.21514 244.570427 267.421532 242.776819 
C 265.627924 240.983211 263.194928 239.975431 260.658383 239.975431 
C 258.121839 239.975431 255.688843 240.983211 253.895235 242.776819 
C 252.101627 244.570427 251.093847 247.003423 251.093847 249.539967 
C 251.093847 252.076512 252.101627 254.509508 253.895235 256.303116 
C 255.688843 258.096724 258.121839 259.104504 260.658383 259.104504 
z
" clip-path="url(#p4991c4df9b)" style="fill: #0dab76"/>
   </g>
   <g id="patch_15">
    <path d="M 260.658383 254.322235 
C 261.926656 254.322235 263.143153 253.818346 264.039957 252.921542 
C 264.936761 252.024738 265.440651 250.80824 265.440651 249.539967 
C 265.440651 248.271695 264.936761 247.055197 264.039957 246.158393 
C 263.143153 245.261589 261.926656 244.757699 260.658383 244.757699 
C 259.390111 244.757699 258.173613 245.261589 257.276809 246.158393 
C 256.380005 247.055197 255.876115 248.271695 255.876115 249.539967 
C 255.876115 250.80824 256.380005 252.024738 257.276809 252.921542 
C 258.173613 253.818346 259.390111 254.322235 260.658383 254.322235 
z
" clip-path="url(#p4991c4df9b)" style="fill: #a0a0a0"/>
   </g>
   <g id="matplotlib.axis_1">
    <g id="xtick_1">
     <g id="line2d_17">
      <defs>
       <path id="m99eb16369a" d="M 0 0 
L 0 3.5 
" style="stroke: #ffffff; stroke-width: 0.8"/>
      </defs>
      <g>
       <use xlink:href="#m99eb16369a" x="188.541779" y="307.584" style="fill: #ffffff; stroke: #ffffff; stroke-width: 0.8"/>
      </g>
     </g>
     <g id="text_1">
      <text style="fill: #ffffff; font: 10px 'sans-serif'; text-anchor: middle" x="188.541779" y="322.182437" transform="rotate(-0, 188.541779, 322.182437)">−5</text>
     </g>
    </g>
    <g id="xtick_2">
     <g id="line2d_18">
      <g>
       <use xlink:href="#m99eb16369a" x="236.364461" y="307.584" style="fill: #ffffff; stroke: #ffffff; stroke-width: 0.8"/>
      </g>
     </g>
     <g id="text_2">
      <text style="fill: #ffffff; font: 10px 'sans-serif'; text-anchor: middle" x="236.364461" y="322.182437" transform="rotate(-0, 236.364461, 322.182437)">0</text>
     </g>
    </g>
    <g id="xtick_3">
     <g id="line2d_19">
      <g>
       <use xlink:href="#m99eb16369a" x="284.187143" y="307.584" style="fill: #ffffff; stroke: #ffffff; stroke-width: 0.8"/>
      </g>
     </g>
     <g id="text_3">
      <text style="fill: #ffffff; font: 10px 'sans-serif'; text-anchor: middle" x="284.187143" y="322.182437" transform="rotate(-0, 284.187143, 322.182437)">5</text>
     </g>
    </g>
   </g>
   <g id="matplotlib.axis_2">
    <g id="ytick_1">
     <g id="line2d_20">
      <defs>
       <path id="mfffce74d2a" d="M 0 0 
L -3.5 0 
" style="stroke: #ffffff; stroke-width: 0.8"/>
      </defs>
      <g>
       <use xlink:href="#mfffce74d2a" x="162.445964" y="297.362649" style="fill: #ffffff; stroke: #ffffff; stroke-width: 0.8"/>
      </g>
     </g>
     <g id="text_4">
      <text style="fill: #ffffff; font: 10px 'sans-serif'; text-anchor: end" x="155.445964" y="301.161868" transform="rotate(-0, 155.445964, 301.161868)">−5</text>
     </g>
    </g>
    <g id="ytick_2">
     <g id="line2d_21">
      <g>
       <use xlink:href="#mfffce74d2a" x="162.445964" y="249.539967" style="fill: #ffffff; stroke: #ffffff; stroke-width: 0.8"/>
      </g>
     </g>
     <g id="text_5">
      <text style="fill: #ffffff; font: 10px 'sans-serif'; text-anchor: end" x="155.445964" y="253.339186" transform="rotate(-0, 155.445964, 253.339186)">0</text>
     </g>
    </g>
    <g id="ytick_3">
     <g id="line2d_22">
      <g>
       <use xlink:href="#mfffce74d2a" x="162.445964" y="201.717285" style="fill: #ffffff; stroke: #ffffff; stroke-width: 0.8"/>
      </g>
     </g>
     <g id="text_6">
      <text style="fill: #ffffff; font: 10px 'sans-serif'; text-anchor: end" x="155.445964" y="205.516504" transform="rotate(-0, 155.445964, 205.516504)">5</text>
     </g>
    </g>
    <g id="ytick_4">
     <g id="line2d_23">
      <g>
       <use xlink:href="#mfffce74d2a" x="162.445964" y="153.894604" style="fill: #ffffff; stroke: #ffffff; stroke-width: 0.8"/>
      </g>
     </g>
     <g id="text_7">
      <text style="fill: #ffffff; font: 10px 'sans-serif'; text-anchor: end" x="155.445964" y="157.693822" transform="rotate(-0, 155.445964, 157.693822)">10</text>
     </g>
    </g>
    <g id="ytick_5">
     <g id="line2d_24">
      <g>
       <use xlink:href="#mfffce74d2a" x="162.445964" y="106.071922" style="fill: #ffffff; stroke: #ffffff; stroke-width: 0.8"/>
      </g>
     </g>
     <g id="text_8">
      <text style="fill: #ffffff; font: 10px 'sans-serif'; text-anchor: end" x="155.445964" y="109.87114" transform="rotate(-0, 155.445964, 109.87114)">15</text>
     </g>
    </g>
    <g id="ytick_6">
     <g id="line2d_25">
      <g>
       <use xlink:href="#mfffce74d2a" x="162.445964" y="58.24924" style="fill: #ffffff; stroke: #ffffff; stroke-width: 0.8"/>
      </g>
     </g>
     <g id="text_9">
      <text style="fill: #ffffff; font: 10px 'sans-serif'; text-anchor: end" x="155.445964" y="62.048459" transform="rotate(-0, 155.445964, 62.048459)">20</text>
     </g>
    </g>
   </g>
   <g id="patch_16">
    <path d="M 162.445964 307.584 
L 162.445964 41.472 
" style="fill: none; stroke: #ffffff; stroke-width: 0.8; stroke-linejoin: miter; stroke-linecap: square"/>
   </g>
   <g id="patch_17">
    <path d="M 309.874036 307.584 
L 309.874036 41.472 
" style="fill: none; stroke: #ffffff; stroke-width: 0.8; stroke-linejoin: miter; stroke-linecap: square"/>
   </g>
   <g id="patch_18">
    <path d="M 162.445964 307.584 
L 309.874036 307.584 
" style="fill: none; stroke: #ffffff; stroke-width: 0.8; stroke-linejoin: miter; stroke-linecap: square"/>
   </g>
   <g id="patch_19">
    <path d="M 162.445964 41.472 
L 309.874036 41.472 
" style="fill: none; stroke: #ffffff; stroke-width: 0.8; stroke-linejoin: miter; stroke-linecap: square"/>
   </g>
   <g id="text_10">
    <text style="fill: #ffffff; font: 12px 'sans-serif'; text-anchor: middle" x="236.16" y="35.472" transform="rotate(-0, 236.16, 35.472)">ADAFRUIT-1063</text>
   </g>
  </g>
 </g>
 <defs>
  <clipPath id="p4991c4df9b">
   <rect x="162.445964" y="41.472" width="147.428072" height="266.112"/>
  </clipPath>
 </defs>
</svg>
