<?xml version="1.0" encoding="utf-8" standalone="no"?>
<!DOCTYPE svg PUBLIC "-//W3C//DTD SVG 1.1//EN"
  "http://www.w3.org/Graphics/SVG/1.1/DTD/svg11.dtd">
<svg xmlns:xlink="http://www.w3.org/1999/xlink" width="460.8pt" height="345.6pt" viewBox="0 0 460.8 345.6" xmlns="http://www.w3.org/2000/svg" version="1.1">
 <metadata>
  <rdf:RDF xmlns:dc="http://purl.org/dc/elements/1.1/" xmlns:cc="http://creativecommons.org/ns#" xmlns:rdf="http://www.w3.org/1999/02/22-rdf-syntax-ns#">
   <cc:Work>
    <dc:type rdf:resource="http://purl.org/dc/dcmitype/StillImage"/>
    <dc:date>2021-12-22T04:54:06.865036</dc:date>
    <dc:format>image/svg+xml</dc:format>
    <dc:creator>
     <cc:Agent>
      <dc:title>Matplotlib v3.5.1, https://matplotlib.org/</dc:title>
     </cc:Agent>
    </dc:creator>
   </cc:Work>
  </rdf:RDF>
 </metadata>
 <defs>
  <style type="text/css">*{stroke-linejoin: round; stroke-linecap: butt}</style>
 </defs>
 <g id="figure_1">
  <g id="patch_1">
   <path d="M 0 345.6 
L 460.8 345.6 
L 460.8 0 
L 0 0 
z
" style="fill: #2b2b2b"/>
  </g>
  <g id="axes_1">
   <g id="patch_2">
    <path d="M 156.3264 307.584 
L 315.9936 307.584 
L 315.9936 41.472 
L 156.3264 41.472 
z
" style="fill: #2b2b2b"/>
   </g>
   <g id="text_1">
    <text style="fill: #ffffff; font: 1.27px 'sans-serif'; text-anchor: start" x="163.584" y="319.68" transform="rotate(-0, 163.584, 319.68)">&gt;Value</text>
   </g>
   <g id="text_2">
    <text style="fill: #ffffff; font: 1.27px 'sans-serif'; text-anchor: start" x="163.584" y="53.568" transform="rotate(-0, 163.584, 53.568)">&gt;Name</text>
   </g>
   <g id="patch_3">
    <path d="M 236.16 198.72 
C 255.40738 198.72 273.869029 191.072935 287.478982 177.462982 
C 301.088935 163.853029 308.736 145.39138 308.736 126.144 
C 308.736 106.89662 301.088935 88.434971 287.478982 74.825018 
C 273.869029 61.215065 255.40738 53.568 236.16 53.568 
C 216.91262 53.568 198.450971 61.215065 184.841018 74.825018 
C 171.231065 88.434971 163.584 106.89662 163.584 126.144 
C 163.584 145.39138 171.231065 163.853029 184.841018 177.462982 
C 198.450971 191.072935 216.91262 198.72 236.16 198.72 
L 236.16 198.72 
z
" clip-path="url(#p9f28508049)" style="fill: none; stroke: #808080; stroke-width: 1.536192; stroke-linejoin: miter"/>
   </g>
   <g id="line2d_1">
    <path d="M 163.584 53.568 
L 308.736 53.568 
" clip-path="url(#p9f28508049)" style="fill: none; stroke: #808080; stroke-width: 1.536192; stroke-linecap: square"/>
   </g>
   <g id="line2d_2">
    <path d="M 308.736 53.568 
L 308.736 295.488 
" clip-path="url(#p9f28508049)" style="fill: none; stroke: #808080; stroke-width: 1.536192; stroke-linecap: square"/>
   </g>
   <g id="line2d_3">
    <path d="M 308.736 295.488 
L 163.584 295.488 
" clip-path="url(#p9f28508049)" style="fill: none; stroke: #808080; stroke-width: 1.536192; stroke-linecap: square"/>
   </g>
   <g id="line2d_4">
    <path d="M 163.584 295.488 
L 163.584 53.568 
" clip-path="url(#p9f28508049)" style="fill: none; stroke: #808080; stroke-width: 1.536192; stroke-linecap: square"/>
   </g>
   <g id="patch_4">
    <path d="M 205.43616 274.44096 
C 208.002477 274.44096 210.46403 273.421351 212.278691 271.606691 
C 214.093351 269.79203 215.11296 267.330477 215.11296 264.76416 
C 215.11296 262.197843 214.093351 259.73629 212.278691 257.921629 
C 210.46403 256.106969 208.002477 255.08736 205.43616 255.08736 
C 202.869843 255.08736 200.40829 256.106969 198.593629 257.921629 
C 196.778969 259.73629 195.75936 262.197843 195.75936 264.76416 
C 195.75936 267.330477 196.778969 269.79203 198.593629 271.606691 
C 200.40829 273.421351 202.869843 274.44096 205.43616 274.44096 
z
" clip-path="url(#p9f28508049)" style="fill: #0dab76"/>
   </g>
   <g id="patch_5">
    <path d="M 205.43616 269.60256 
C 206.719319 269.60256 207.950095 269.092756 208.857425 268.185425 
C 209.764756 267.278095 210.27456 266.047319 210.27456 264.76416 
C 210.27456 263.481001 209.764756 262.250225 208.857425 261.342895 
C 207.950095 260.435564 206.719319 259.92576 205.43616 259.92576 
C 204.153001 259.92576 202.922225 260.435564 202.014895 261.342895 
C 201.107564 262.250225 200.59776 263.481001 200.59776 264.76416 
C 200.59776 266.047319 201.107564 267.278095 202.014895 268.185425 
C 202.922225 269.092756 204.153001 269.60256 205.43616 269.60256 
z
" clip-path="url(#p9f28508049)" style="fill: #a0a0a0"/>
   </g>
   <g id="patch_6">
    <path d="M 236.16 274.44096 
C 238.726317 274.44096 241.18787 273.421351 243.002531 271.606691 
C 244.817191 269.79203 245.8368 267.330477 245.8368 264.76416 
C 245.8368 262.197843 244.817191 259.73629 243.002531 257.921629 
C 241.18787 256.106969 238.726317 255.08736 236.16 255.08736 
C 233.593683 255.08736 231.13213 256.106969 229.317469 257.921629 
C 227.502809 259.73629 226.4832 262.197843 226.4832 264.76416 
C 226.4832 267.330477 227.502809 269.79203 229.317469 271.606691 
C 231.13213 273.421351 233.593683 274.44096 236.16 274.44096 
z
" clip-path="url(#p9f28508049)" style="fill: #0dab76"/>
   </g>
   <g id="patch_7">
    <path d="M 236.16 269.60256 
C 237.443159 269.60256 238.673935 269.092756 239.581265 268.185425 
C 240.488596 267.278095 240.9984 266.047319 240.9984 264.76416 
C 240.9984 263.481001 240.488596 262.250225 239.581265 261.342895 
C 238.673935 260.435564 237.443159 259.92576 236.16 259.92576 
C 234.876841 259.92576 233.646065 260.435564 232.738735 261.342895 
C 231.831404 262.250225 231.3216 263.481001 231.3216 264.76416 
C 231.3216 266.047319 231.831404 267.278095 232.738735 268.185425 
C 233.646065 269.092756 234.876841 269.60256 236.16 269.60256 
z
" clip-path="url(#p9f28508049)" style="fill: #a0a0a0"/>
   </g>
   <g id="patch_8">
    <path d="M 266.88384 274.44096 
C 269.450157 274.44096 271.91171 273.421351 273.726371 271.606691 
C 275.541031 269.79203 276.56064 267.330477 276.56064 264.76416 
C 276.56064 262.197843 275.541031 259.73629 273.726371 257.921629 
C 271.91171 256.106969 269.450157 255.08736 266.88384 255.08736 
C 264.317523 255.08736 261.85597 256.106969 260.041309 257.921629 
C 258.226649 259.73629 257.20704 262.197843 257.20704 264.76416 
C 257.20704 267.330477 258.226649 269.79203 260.041309 271.606691 
C 261.85597 273.421351 264.317523 274.44096 266.88384 274.44096 
z
" clip-path="url(#p9f28508049)" style="fill: #0dab76"/>
   </g>
   <g id="patch_9">
    <path d="M 266.88384 269.60256 
C 268.166999 269.60256 269.397775 269.092756 270.305105 268.185425 
C 271.212436 267.278095 271.72224 266.047319 271.72224 264.76416 
C 271.72224 263.481001 271.212436 262.250225 270.305105 261.342895 
C 269.397775 260.435564 268.166999 259.92576 266.88384 259.92576 
C 265.600681 259.92576 264.369905 260.435564 263.462575 261.342895 
C 262.555244 262.250225 262.04544 263.481001 262.04544 264.76416 
C 262.04544 266.047319 262.555244 267.278095 263.462575 268.185425 
C 264.369905 269.092756 265.600681 269.60256 266.88384 269.60256 
z
" clip-path="url(#p9f28508049)" style="fill: #a0a0a0"/>
   </g>
   <g id="matplotlib.axis_1">
    <g id="xtick_1">
     <g id="line2d_5">
      <defs>
       <path id="m1917777964" d="M 0 0 
L 0 3.5 
" style="stroke: #ffffff; stroke-width: 0.8"/>
      </defs>
      <g>
       <use xlink:href="#m1917777964" x="175.68" y="307.584" style="fill: #ffffff; stroke: #ffffff; stroke-width: 0.8"/>
      </g>
     </g>
     <g id="text_3">
      <text style="fill: #ffffff; font: 10px 'sans-serif'; text-anchor: middle" x="175.68" y="322.182437" transform="rotate(-0, 175.68, 322.182437)">−5</text>
     </g>
    </g>
    <g id="xtick_2">
     <g id="line2d_6">
      <g>
       <use xlink:href="#m1917777964" x="236.16" y="307.584" style="fill: #ffffff; stroke: #ffffff; stroke-width: 0.8"/>
      </g>
     </g>
     <g id="text_4">
      <text style="fill: #ffffff; font: 10px 'sans-serif'; text-anchor: middle" x="236.16" y="322.182437" transform="rotate(-0, 236.16, 322.182437)">0</text>
     </g>
    </g>
    <g id="xtick_3">
     <g id="line2d_7">
      <g>
       <use xlink:href="#m1917777964" x="296.64" y="307.584" style="fill: #ffffff; stroke: #ffffff; stroke-width: 0.8"/>
      </g>
     </g>
     <g id="text_5">
      <text style="fill: #ffffff; font: 10px 'sans-serif'; text-anchor: middle" x="296.64" y="322.182437" transform="rotate(-0, 296.64, 322.182437)">5</text>
     </g>
    </g>
   </g>
   <g id="matplotlib.axis_2">
    <g id="ytick_1">
     <g id="line2d_8">
      <defs>
       <path id="m5286d3c890" d="M 0 0 
L -3.5 0 
" style="stroke: #ffffff; stroke-width: 0.8"/>
      </defs>
      <g>
       <use xlink:href="#m5286d3c890" x="156.3264" y="295.00416" style="fill: #ffffff; stroke: #ffffff; stroke-width: 0.8"/>
      </g>
     </g>
     <g id="text_6">
      <text style="fill: #ffffff; font: 10px 'sans-serif'; text-anchor: end" x="149.3264" y="298.803379" transform="rotate(-0, 149.3264, 298.803379)">−2.5</text>
     </g>
    </g>
    <g id="ytick_2">
     <g id="line2d_9">
      <g>
       <use xlink:href="#m5286d3c890" x="156.3264" y="264.76416" style="fill: #ffffff; stroke: #ffffff; stroke-width: 0.8"/>
      </g>
     </g>
     <g id="text_7">
      <text style="fill: #ffffff; font: 10px 'sans-serif'; text-anchor: end" x="149.3264" y="268.563379" transform="rotate(-0, 149.3264, 268.563379)">0.0</text>
     </g>
    </g>
    <g id="ytick_3">
     <g id="line2d_10">
      <g>
       <use xlink:href="#m5286d3c890" x="156.3264" y="234.52416" style="fill: #ffffff; stroke: #ffffff; stroke-width: 0.8"/>
      </g>
     </g>
     <g id="text_8">
      <text style="fill: #ffffff; font: 10px 'sans-serif'; text-anchor: end" x="149.3264" y="238.323379" transform="rotate(-0, 149.3264, 238.323379)">2.5</text>
     </g>
    </g>
    <g id="ytick_4">
     <g id="line2d_11">
      <g>
       <use xlink:href="#m5286d3c890" x="156.3264" y="204.28416" style="fill: #ffffff; stroke: #ffffff; stroke-width: 0.8"/>
      </g>
     </g>
     <g id="text_9">
      <text style="fill: #ffffff; font: 10px 'sans-serif'; text-anchor: end" x="149.3264" y="208.083379" transform="rotate(-0, 149.3264, 208.083379)">5.0</text>
     </g>
    </g>
    <g id="ytick_5">
     <g id="line2d_12">
      <g>
       <use xlink:href="#m5286d3c890" x="156.3264" y="174.04416" style="fill: #ffffff; stroke: #ffffff; stroke-width: 0.8"/>
      </g>
     </g>
     <g id="text_10">
      <text style="fill: #ffffff; font: 10px 'sans-serif'; text-anchor: end" x="149.3264" y="177.843379" transform="rotate(-0, 149.3264, 177.843379)">7.5</text>
     </g>
    </g>
    <g id="ytick_6">
     <g id="line2d_13">
      <g>
       <use xlink:href="#m5286d3c890" x="156.3264" y="143.80416" style="fill: #ffffff; stroke: #ffffff; stroke-width: 0.8"/>
      </g>
     </g>
     <g id="text_11">
      <text style="fill: #ffffff; font: 10px 'sans-serif'; text-anchor: end" x="149.3264" y="147.603379" transform="rotate(-0, 149.3264, 147.603379)">10.0</text>
     </g>
    </g>
    <g id="ytick_7">
     <g id="line2d_14">
      <g>
       <use xlink:href="#m5286d3c890" x="156.3264" y="113.56416" style="fill: #ffffff; stroke: #ffffff; stroke-width: 0.8"/>
      </g>
     </g>
     <g id="text_12">
      <text style="fill: #ffffff; font: 10px 'sans-serif'; text-anchor: end" x="149.3264" y="117.363379" transform="rotate(-0, 149.3264, 117.363379)">12.5</text>
     </g>
    </g>
    <g id="ytick_8">
     <g id="line2d_15">
      <g>
       <use xlink:href="#m5286d3c890" x="156.3264" y="83.32416" style="fill: #ffffff; stroke: #ffffff; stroke-width: 0.8"/>
      </g>
     </g>
     <g id="text_13">
      <text style="fill: #ffffff; font: 10px 'sans-serif'; text-anchor: end" x="149.3264" y="87.123379" transform="rotate(-0, 149.3264, 87.123379)">15.0</text>
     </g>
    </g>
    <g id="ytick_9">
     <g id="line2d_16">
      <g>
       <use xlink:href="#m5286d3c890" x="156.3264" y="53.08416" style="fill: #ffffff; stroke: #ffffff; stroke-width: 0.8"/>
      </g>
     </g>
     <g id="text_14">
      <text style="fill: #ffffff; font: 10px 'sans-serif'; text-anchor: end" x="149.3264" y="56.883379" transform="rotate(-0, 149.3264, 56.883379)">17.5</text>
     </g>
    </g>
   </g>
   <g id="patch_10">
    <path d="M 156.3264 307.584 
L 156.3264 41.472 
" style="fill: none; stroke: #ffffff; stroke-width: 0.8; stroke-linejoin: miter; stroke-linecap: square"/>
   </g>
   <g id="patch_11">
    <path d="M 315.9936 307.584 
L 315.9936 41.472 
" style="fill: none; stroke: #ffffff; stroke-width: 0.8; stroke-linejoin: miter; stroke-linecap: square"/>
   </g>
   <g id="patch_12">
    <path d="M 156.3264 307.584 
L 315.9936 307.584 
" style="fill: none; stroke: #ffffff; stroke-width: 0.8; stroke-linejoin: miter; stroke-linecap: square"/>
   </g>
   <g id="patch_13">
    <path d="M 156.3264 41.472 
L 315.9936 41.472 
" style="fill: none; stroke: #ffffff; stroke-width: 0.8; stroke-linejoin: miter; stroke-linecap: square"/>
   </g>
   <g id="text_15">
    <text style="fill: #ffffff; font: 12px 'sans-serif'; text-anchor: middle" x="236.16" y="35.472" transform="rotate(-0, 236.16, 35.472)">K-05757</text>
   </g>
  </g>
 </g>
 <defs>
  <clipPath id="p9f28508049">
   <rect x="156.3264" y="41.472" width="159.6672" height="266.112"/>
  </clipPath>
 </defs>
</svg>
