<?xml version="1.0" encoding="utf-8" standalone="no"?>
<!DOCTYPE svg PUBLIC "-//W3C//DTD SVG 1.1//EN"
  "http://www.w3.org/Graphics/SVG/1.1/DTD/svg11.dtd">
<svg xmlns:xlink="http://www.w3.org/1999/xlink" width="460.8pt" height="345.6pt" viewBox="0 0 460.8 345.6" xmlns="http://www.w3.org/2000/svg" version="1.1">
 <metadata>
  <rdf:RDF xmlns:dc="http://purl.org/dc/elements/1.1/" xmlns:cc="http://creativecommons.org/ns#" xmlns:rdf="http://www.w3.org/1999/02/22-rdf-syntax-ns#">
   <cc:Work>
    <dc:type rdf:resource="http://purl.org/dc/dcmitype/StillImage"/>
    <dc:date>2023-02-18T16:06:02.263505</dc:date>
    <dc:format>image/svg+xml</dc:format>
    <dc:creator>
     <cc:Agent>
      <dc:title>Matplotlib v3.5.1, https://matplotlib.org/</dc:title>
     </cc:Agent>
    </dc:creator>
   </cc:Work>
  </rdf:RDF>
 </metadata>
 <defs>
  <style type="text/css">*{stroke-linejoin: round; stroke-linecap: butt}</style>
 </defs>
 <g id="figure_1">
  <g id="patch_1">
   <path d="M 0 345.6 
L 460.8 345.6 
L 460.8 0 
L 0 0 
z
" style="fill: #2b2b2b"/>
  </g>
  <g id="axes_1">
   <g id="patch_2">
    <path d="M 167.07528 307.584 
L 305.24472 307.584 
L 305.24472 41.472 
L 167.07528 41.472 
z
" style="fill: #2b2b2b"/>
   </g>
   <g id="patch_3">
    <path d="M 173.478636 295.488 
C 173.506368 295.488 173.532969 295.476982 173.552579 295.457372 
C 173.572189 295.437762 173.583207 295.411161 173.583207 295.383429 
C 173.583207 295.355696 173.572189 295.329095 173.552579 295.309485 
C 173.532969 295.289876 173.506368 295.278857 173.478636 295.278857 
C 173.450903 295.278857 173.424303 295.289876 173.404693 295.309485 
C 173.385083 295.329095 173.374064 295.355696 173.374064 295.383429 
C 173.374064 295.411161 173.385083 295.437762 173.404693 295.457372 
C 173.424303 295.476982 173.450903 295.488 173.478636 295.488 
L 173.478636 295.488 
z
" clip-path="url(#pfd3e22cd45)" style="fill: none; stroke: #ffcd07; stroke-width: 1.045714; stroke-linejoin: miter"/>
   </g>
   <g id="line2d_1">
    <path d="M 173.356032 285.859071 
L 180.241045 288.74333 
L 180.241045 288.74333 
L 173.355709 291.627746 
L 173.355709 291.627746 
" clip-path="url(#pfd3e22cd45)" style="fill: none; stroke: #ffcd07; stroke-width: 0.531223; stroke-linecap: round"/>
   </g>
   <g id="line2d_2">
    <path d="M 181.370507 283.62529 
L 184.813599 293.861515 
L 184.813599 293.861515 
L 188.163245 283.625027 
L 188.163245 283.625027 
" clip-path="url(#pfd3e22cd45)" style="fill: none; stroke: #ffcd07; stroke-width: 0.531223; stroke-linecap: round"/>
   </g>
   <g id="line2d_3">
    <path d="M 195.014743 289.668753 
L 192.409249 289.668753 
L 191.664822 289.85486 
L 191.013448 290.320126 
L 190.548182 290.878447 
L 190.455128 291.715927 
L 190.548182 292.460354 
L 191.013448 293.111727 
L 191.664822 293.576994 
L 192.409249 293.670047 
L 195.014743 293.670047 
L 195.014743 288.552112 
L 194.828636 287.900739 
L 194.456423 287.342419 
L 193.898103 286.970205 
L 193.246729 286.877152 
L 191.013448 286.877152 
" clip-path="url(#pfd3e22cd45)" style="fill: none; stroke: #ffcd07; stroke-width: 0.531223; stroke-linecap: round"/>
   </g>
   <g id="line2d_4">
    <path d="M 199.866009 283.432252 
L 199.866009 291.993162 
L 199.959063 292.644535 
L 200.331276 293.202856 
L 200.889596 293.575069 
L 201.54097 293.668122 
" clip-path="url(#pfd3e22cd45)" style="fill: none; stroke: #ffcd07; stroke-width: 0.531223; stroke-linecap: round"/>
   </g>
   <g id="line2d_5">
    <path d="M 206.392067 286.875221 
L 206.392067 291.993156 
L 206.578173 292.64453 
L 206.950387 293.20285 
L 207.508707 293.575063 
L 208.160081 293.668117 
L 210.951681 293.668117 
L 210.951681 286.875221 
" clip-path="url(#pfd3e22cd45)" style="fill: none; stroke: #ffcd07; stroke-width: 0.531223; stroke-linecap: round"/>
   </g>
   <g id="line2d_6">
    <path d="M 218.920718 293.668214 
L 216.036063 293.668214 
L 215.38469 293.575161 
L 214.82637 293.202948 
L 214.454156 292.644627 
L 214.454156 292.644627 
L 214.361103 291.993254 
L 214.361103 291.993254 
L 214.361103 289.108599 
L 214.454156 288.364173 
L 214.919423 287.619746 
L 215.477743 287.154479 
L 216.22217 286.875319 
L 217.05965 286.875319 
L 217.804077 287.154479 
L 218.362398 287.619746 
L 218.734611 288.364173 
L 218.920718 289.108599 
L 218.920718 290.22524 
L 214.361103 290.22524 
" clip-path="url(#pfd3e22cd45)" style="fill: none; stroke: #ffcd07; stroke-width: 0.531223; stroke-linecap: round"/>
   </g>
   <g id="patch_4">
    <path d="M 173.478636 65.430966 
C 173.506368 65.430966 173.532969 65.419948 173.552579 65.400338 
C 173.572189 65.380728 173.583207 65.354128 173.583207 65.326395 
C 173.583207 65.298662 173.572189 65.272062 173.552579 65.252452 
C 173.532969 65.232842 173.506368 65.221823 173.478636 65.221823 
C 173.450903 65.221823 173.424303 65.232842 173.404693 65.252452 
C 173.385083 65.272062 173.374064 65.298662 173.374064 65.326395 
C 173.374064 65.354128 173.385083 65.380728 173.404693 65.400338 
C 173.424303 65.419948 173.450903 65.430966 173.478636 65.430966 
L 173.478636 65.430966 
z
" clip-path="url(#pfd3e22cd45)" style="fill: none; stroke: #808080; stroke-width: 1.045714; stroke-linejoin: miter"/>
   </g>
   <g id="line2d_7">
    <path d="M 173.356032 55.802038 
L 180.241045 58.686296 
L 180.241045 58.686296 
L 173.355709 61.570712 
L 173.355709 61.570712 
" clip-path="url(#pfd3e22cd45)" style="fill: none; stroke: #808080; stroke-width: 0.531223; stroke-linecap: round"/>
   </g>
   <g id="line2d_8">
    <path d="M 181.929489 63.80387 
L 181.929489 53.568 
L 187.605744 63.80387 
L 187.605744 53.568 
" clip-path="url(#pfd3e22cd45)" style="fill: none; stroke: #808080; stroke-width: 0.531223; stroke-linecap: round"/>
   </g>
   <g id="line2d_9">
    <path d="M 195.014743 59.611719 
L 192.409249 59.611719 
L 191.664822 59.797826 
L 191.013448 60.263093 
L 190.548182 60.821413 
L 190.455128 61.658893 
L 190.548182 62.40332 
L 191.013448 63.054694 
L 191.664822 63.51996 
L 192.409249 63.613014 
L 195.014743 63.613014 
L 195.014743 58.495079 
L 194.828636 57.843705 
L 194.456423 57.285385 
L 193.898103 56.913171 
L 193.246729 56.820118 
L 191.013448 56.820118 
" clip-path="url(#pfd3e22cd45)" style="fill: none; stroke: #808080; stroke-width: 0.531223; stroke-linecap: round"/>
   </g>
   <g id="line2d_10">
    <path d="M 197.260533 63.611578 
L 197.260533 56.818682 
L 202.378468 56.818682 
L 203.029842 56.911735 
L 203.588162 57.283949 
L 203.960375 57.842269 
L 204.146482 58.493643 
L 204.146482 63.611578 
" clip-path="url(#pfd3e22cd45)" style="fill: none; stroke: #808080; stroke-width: 0.531223; stroke-linecap: round"/>
   </g>
   <g id="line2d_11">
    <path d="M 200.704069 63.611093 
L 200.704069 56.818197 
" clip-path="url(#pfd3e22cd45)" style="fill: none; stroke: #808080; stroke-width: 0.531223; stroke-linecap: round"/>
   </g>
   <g id="line2d_12">
    <path d="M 210.952379 63.611181 
L 208.067724 63.611181 
L 207.416351 63.518127 
L 206.858031 63.145914 
L 206.485817 62.587594 
L 206.485817 62.587594 
L 206.392764 61.93622 
L 206.392764 61.93622 
L 206.392764 59.051566 
L 206.485817 58.307139 
L 206.951084 57.562712 
L 207.509404 57.097445 
L 208.253831 56.818285 
L 209.091311 56.818285 
L 209.835738 57.097445 
L 210.394058 57.562712 
L 210.766272 58.307139 
L 210.952379 59.051566 
L 210.952379 60.168206 
L 206.392764 60.168206 
" clip-path="url(#pfd3e22cd45)" style="fill: none; stroke: #808080; stroke-width: 0.531223; stroke-linecap: round"/>
   </g>
   <g id="patch_5">
    <path d="M 236.221463 190.81205 
C 252.861055 190.81205 268.821373 184.20107 280.587342 172.435101 
C 292.35331 160.669132 298.964291 144.708815 298.964291 128.069222 
C 298.964291 111.42963 292.35331 95.469312 280.587342 83.703344 
C 268.821373 71.937375 252.861055 65.326395 236.221463 65.326395 
C 219.581871 65.326395 203.621553 71.937375 191.855584 83.703344 
C 180.089616 95.469312 173.478636 111.42963 173.478636 128.069222 
C 173.478636 144.708815 180.089616 160.669132 191.855584 172.435101 
C 203.621553 184.20107 219.581871 190.81205 236.221463 190.81205 
L 236.221463 190.81205 
z
" clip-path="url(#pfd3e22cd45)" style="fill: none; stroke: #808080; stroke-width: 1.328057; stroke-linejoin: miter"/>
   </g>
   <g id="line2d_13">
    <path d="M 173.478636 65.326395 
L 298.964291 65.326395 
" clip-path="url(#pfd3e22cd45)" style="fill: none; stroke: #808080; stroke-width: 1.328057; stroke-linecap: round"/>
   </g>
   <g id="line2d_14">
    <path d="M 298.964291 65.326395 
L 298.964291 274.469153 
" clip-path="url(#pfd3e22cd45)" style="fill: none; stroke: #808080; stroke-width: 1.328057; stroke-linecap: round"/>
   </g>
   <g id="line2d_15">
    <path d="M 298.964291 274.469153 
L 173.478636 274.469153 
" clip-path="url(#pfd3e22cd45)" style="fill: none; stroke: #808080; stroke-width: 1.328057; stroke-linecap: round"/>
   </g>
   <g id="line2d_16">
    <path d="M 173.478636 274.469153 
L 173.478636 65.326395 
" clip-path="url(#pfd3e22cd45)" style="fill: none; stroke: #808080; stroke-width: 1.328057; stroke-linecap: round"/>
   </g>
   <g id="patch_6">
    <path d="M 209.660333 256.273733 
C 211.878945 256.273733 214.006988 255.392269 215.575783 253.823473 
C 217.144579 252.254677 218.026043 250.126635 218.026043 247.908023 
C 218.026043 245.68941 217.144579 243.561368 215.575783 241.992572 
C 214.006988 240.423776 211.878945 239.542312 209.660333 239.542312 
C 207.441721 239.542312 205.313678 240.423776 203.744882 241.992572 
C 202.176087 243.561368 201.294623 245.68941 201.294623 247.908023 
C 201.294623 250.126635 202.176087 252.254677 203.744882 253.823473 
C 205.313678 255.392269 207.441721 256.273733 209.660333 256.273733 
z
" clip-path="url(#pfd3e22cd45)" style="fill: #0dab76"/>
   </g>
   <g id="patch_7">
    <path d="M 209.660333 252.090878 
C 210.769639 252.090878 211.83366 251.650146 212.618058 250.865748 
C 213.402456 250.08135 213.843188 249.017329 213.843188 247.908023 
C 213.843188 246.798716 213.402456 245.734695 212.618058 244.950297 
C 211.83366 244.165899 210.769639 243.725167 209.660333 243.725167 
C 208.551027 243.725167 207.487006 244.165899 206.702608 244.950297 
C 205.91821 245.734695 205.477478 246.798716 205.477478 247.908023 
C 205.477478 249.017329 205.91821 250.08135 206.702608 250.865748 
C 207.487006 251.650146 208.551027 252.090878 209.660333 252.090878 
z
" clip-path="url(#pfd3e22cd45)" style="fill: #a0a0a0"/>
   </g>
   <g id="patch_8">
    <path d="M 236.221463 256.273733 
C 238.440075 256.273733 240.568118 255.392269 242.136914 253.823473 
C 243.705709 252.254677 244.587173 250.126635 244.587173 247.908023 
C 244.587173 245.68941 243.705709 243.561368 242.136914 241.992572 
C 240.568118 240.423776 238.440075 239.542312 236.221463 239.542312 
C 234.002851 239.542312 231.874808 240.423776 230.306013 241.992572 
C 228.737217 243.561368 227.855753 245.68941 227.855753 247.908023 
C 227.855753 250.126635 228.737217 252.254677 230.306013 253.823473 
C 231.874808 255.392269 234.002851 256.273733 236.221463 256.273733 
z
" clip-path="url(#pfd3e22cd45)" style="fill: #0dab76"/>
   </g>
   <g id="patch_9">
    <path d="M 236.221463 252.090878 
C 237.330769 252.090878 238.39479 251.650146 239.179188 250.865748 
C 239.963586 250.08135 240.404318 249.017329 240.404318 247.908023 
C 240.404318 246.798716 239.963586 245.734695 239.179188 244.950297 
C 238.39479 244.165899 237.330769 243.725167 236.221463 243.725167 
C 235.112157 243.725167 234.048136 244.165899 233.263738 244.950297 
C 232.47934 245.734695 232.038608 246.798716 232.038608 247.908023 
C 232.038608 249.017329 232.47934 250.08135 233.263738 250.865748 
C 234.048136 251.650146 235.112157 252.090878 236.221463 252.090878 
z
" clip-path="url(#pfd3e22cd45)" style="fill: #a0a0a0"/>
   </g>
   <g id="patch_10">
    <path d="M 262.782593 256.273733 
C 265.001206 256.273733 267.129248 255.392269 268.698044 253.823473 
C 270.26684 252.254677 271.148304 250.126635 271.148304 247.908023 
C 271.148304 245.68941 270.26684 243.561368 268.698044 241.992572 
C 267.129248 240.423776 265.001206 239.542312 262.782593 239.542312 
C 260.563981 239.542312 258.435939 240.423776 256.867143 241.992572 
C 255.298347 243.561368 254.416883 245.68941 254.416883 247.908023 
C 254.416883 250.126635 255.298347 252.254677 256.867143 253.823473 
C 258.435939 255.392269 260.563981 256.273733 262.782593 256.273733 
z
" clip-path="url(#pfd3e22cd45)" style="fill: #0dab76"/>
   </g>
   <g id="patch_11">
    <path d="M 262.782593 252.090878 
C 263.8919 252.090878 264.955921 251.650146 265.740319 250.865748 
C 266.524717 250.08135 266.965449 249.017329 266.965449 247.908023 
C 266.965449 246.798716 266.524717 245.734695 265.740319 244.950297 
C 264.955921 244.165899 263.8919 243.725167 262.782593 243.725167 
C 261.673287 243.725167 260.609266 244.165899 259.824868 244.950297 
C 259.04047 245.734695 258.599738 246.798716 258.599738 247.908023 
C 258.599738 249.017329 259.04047 250.08135 259.824868 250.865748 
C 260.609266 251.650146 261.673287 252.090878 262.782593 252.090878 
z
" clip-path="url(#pfd3e22cd45)" style="fill: #a0a0a0"/>
   </g>
   <g id="matplotlib.axis_1">
    <g id="xtick_1">
     <g id="line2d_17">
      <defs>
       <path id="m83ae4c8f11" d="M 0 0 
L 0 3.5 
" style="stroke: #ffffff; stroke-width: 0.8"/>
      </defs>
      <g>
       <use xlink:href="#m83ae4c8f11" x="183.935774" y="307.584" style="fill: #ffffff; stroke: #ffffff; stroke-width: 0.8"/>
      </g>
     </g>
     <g id="text_1">
      <text style="fill: #ffffff; font: 10px 'sans-serif'; text-anchor: middle" x="183.935774" y="322.182437" transform="rotate(-0, 183.935774, 322.182437)">−5</text>
     </g>
    </g>
    <g id="xtick_2">
     <g id="line2d_18">
      <g>
       <use xlink:href="#m83ae4c8f11" x="236.221463" y="307.584" style="fill: #ffffff; stroke: #ffffff; stroke-width: 0.8"/>
      </g>
     </g>
     <g id="text_2">
      <text style="fill: #ffffff; font: 10px 'sans-serif'; text-anchor: middle" x="236.221463" y="322.182437" transform="rotate(-0, 236.221463, 322.182437)">0</text>
     </g>
    </g>
    <g id="xtick_3">
     <g id="line2d_19">
      <g>
       <use xlink:href="#m83ae4c8f11" x="288.507153" y="307.584" style="fill: #ffffff; stroke: #ffffff; stroke-width: 0.8"/>
      </g>
     </g>
     <g id="text_3">
      <text style="fill: #ffffff; font: 10px 'sans-serif'; text-anchor: middle" x="288.507153" y="322.182437" transform="rotate(-0, 288.507153, 322.182437)">5</text>
     </g>
    </g>
   </g>
   <g id="matplotlib.axis_2">
    <g id="ytick_1">
     <g id="line2d_20">
      <defs>
       <path id="m5003c79d96" d="M 0 0 
L -3.5 0 
" style="stroke: #ffffff; stroke-width: 0.8"/>
      </defs>
      <g>
       <use xlink:href="#m5003c79d96" x="167.07528" y="300.193712" style="fill: #ffffff; stroke: #ffffff; stroke-width: 0.8"/>
      </g>
     </g>
     <g id="text_4">
      <text style="fill: #ffffff; font: 10px 'sans-serif'; text-anchor: end" x="160.07528" y="303.992931" transform="rotate(-0, 160.07528, 303.992931)">−5</text>
     </g>
    </g>
    <g id="ytick_2">
     <g id="line2d_21">
      <g>
       <use xlink:href="#m5003c79d96" x="167.07528" y="247.908023" style="fill: #ffffff; stroke: #ffffff; stroke-width: 0.8"/>
      </g>
     </g>
     <g id="text_5">
      <text style="fill: #ffffff; font: 10px 'sans-serif'; text-anchor: end" x="160.07528" y="251.707241" transform="rotate(-0, 160.07528, 251.707241)">0</text>
     </g>
    </g>
    <g id="ytick_3">
     <g id="line2d_22">
      <g>
       <use xlink:href="#m5003c79d96" x="167.07528" y="195.622333" style="fill: #ffffff; stroke: #ffffff; stroke-width: 0.8"/>
      </g>
     </g>
     <g id="text_6">
      <text style="fill: #ffffff; font: 10px 'sans-serif'; text-anchor: end" x="160.07528" y="199.421552" transform="rotate(-0, 160.07528, 199.421552)">5</text>
     </g>
    </g>
    <g id="ytick_4">
     <g id="line2d_23">
      <g>
       <use xlink:href="#m5003c79d96" x="167.07528" y="143.336644" style="fill: #ffffff; stroke: #ffffff; stroke-width: 0.8"/>
      </g>
     </g>
     <g id="text_7">
      <text style="fill: #ffffff; font: 10px 'sans-serif'; text-anchor: end" x="160.07528" y="147.135862" transform="rotate(-0, 160.07528, 147.135862)">10</text>
     </g>
    </g>
    <g id="ytick_5">
     <g id="line2d_24">
      <g>
       <use xlink:href="#m5003c79d96" x="167.07528" y="91.050954" style="fill: #ffffff; stroke: #ffffff; stroke-width: 0.8"/>
      </g>
     </g>
     <g id="text_8">
      <text style="fill: #ffffff; font: 10px 'sans-serif'; text-anchor: end" x="160.07528" y="94.850173" transform="rotate(-0, 160.07528, 94.850173)">15</text>
     </g>
    </g>
   </g>
   <g id="patch_12">
    <path d="M 167.07528 307.584 
L 167.07528 41.472 
" style="fill: none; stroke: #ffffff; stroke-width: 0.8; stroke-linejoin: miter; stroke-linecap: square"/>
   </g>
   <g id="patch_13">
    <path d="M 305.24472 307.584 
L 305.24472 41.472 
" style="fill: none; stroke: #ffffff; stroke-width: 0.8; stroke-linejoin: miter; stroke-linecap: square"/>
   </g>
   <g id="patch_14">
    <path d="M 167.07528 307.584 
L 305.24472 307.584 
" style="fill: none; stroke: #ffffff; stroke-width: 0.8; stroke-linejoin: miter; stroke-linecap: square"/>
   </g>
   <g id="patch_15">
    <path d="M 167.07528 41.472 
L 305.24472 41.472 
" style="fill: none; stroke: #ffffff; stroke-width: 0.8; stroke-linejoin: miter; stroke-linecap: square"/>
   </g>
   <g id="text_9">
    <text style="fill: #ffffff; font: 12px 'sans-serif'; text-anchor: middle" x="236.16" y="35.472" transform="rotate(-0, 236.16, 35.472)">K-05757</text>
   </g>
  </g>
 </g>
 <defs>
  <clipPath id="pfd3e22cd45">
   <rect x="167.07528" y="41.472" width="138.169439" height="266.112"/>
  </clipPath>
 </defs>
</svg>
