<?xml version="1.0" encoding="utf-8" standalone="no"?>
<!DOCTYPE svg PUBLIC "-//W3C//DTD SVG 1.1//EN"
  "http://www.w3.org/Graphics/SVG/1.1/DTD/svg11.dtd">
<svg xmlns:xlink="http://www.w3.org/1999/xlink" width="460.8pt" height="345.6pt" viewBox="0 0 460.8 345.6" xmlns="http://www.w3.org/2000/svg" version="1.1">
 <metadata>
  <rdf:RDF xmlns:dc="http://purl.org/dc/elements/1.1/" xmlns:cc="http://creativecommons.org/ns#" xmlns:rdf="http://www.w3.org/1999/02/22-rdf-syntax-ns#">
   <cc:Work>
    <dc:type rdf:resource="http://purl.org/dc/dcmitype/StillImage"/>
    <dc:date>2023-02-18T16:05:54.587683</dc:date>
    <dc:format>image/svg+xml</dc:format>
    <dc:creator>
     <cc:Agent>
      <dc:title>Matplotlib v3.5.1, https://matplotlib.org/</dc:title>
     </cc:Agent>
    </dc:creator>
   </cc:Work>
  </rdf:RDF>
 </metadata>
 <defs>
  <style type="text/css">*{stroke-linejoin: round; stroke-linecap: butt}</style>
 </defs>
 <g id="figure_1">
  <g id="patch_1">
   <path d="M 0 345.6 
L 460.8 345.6 
L 460.8 0 
L 0 0 
z
" style="fill: #2b2b2b"/>
  </g>
  <g id="axes_1">
   <g id="patch_2">
    <path d="M 93.268331 307.584 
L 379.051669 307.584 
L 379.051669 41.472 
L 93.268331 41.472 
z
" style="fill: #2b2b2b"/>
   </g>
   <g id="patch_3">
    <path d="M 106.408693 295.488 
C 106.442582 295.488 106.475086 295.474536 106.499049 295.450574 
C 106.523011 295.426611 106.536475 295.394106 106.536475 295.360218 
C 106.536475 295.32633 106.523011 295.293825 106.499049 295.269863 
C 106.475086 295.2459 106.442582 295.232436 106.408693 295.232436 
C 106.374805 295.232436 106.342301 295.2459 106.318338 295.269863 
C 106.294375 295.293825 106.280912 295.32633 106.280912 295.360218 
C 106.280912 295.394106 106.294375 295.426611 106.318338 295.450574 
C 106.342301 295.474536 106.374805 295.488 106.408693 295.488 
L 106.408693 295.488 
z
" clip-path="url(#p678f7bdbc1)" style="fill: none; stroke: #808080; stroke-width: 1.277819; stroke-linejoin: miter"/>
   </g>
   <g id="line2d_1">
    <path d="M 106.258876 283.721847 
L 114.672078 287.246292 
L 114.672078 287.246292 
L 106.258483 290.770929 
L 106.258483 290.770929 
" clip-path="url(#p678f7bdbc1)" style="fill: none; stroke: #808080; stroke-width: 0.649132; stroke-linecap: round"/>
   </g>
   <g id="line2d_2">
    <path d="M 116.052234 280.992259 
L 120.25955 293.500502 
L 120.25955 293.500502 
L 124.352679 280.991937 
L 124.352679 280.991937 
" clip-path="url(#p678f7bdbc1)" style="fill: none; stroke: #808080; stroke-width: 0.649132; stroke-linecap: round"/>
   </g>
   <g id="line2d_3">
    <path d="M 125.78909 293.272464 
L 129.996406 280.764221 
L 129.996406 280.764221 
L 134.089535 293.272786 
L 134.089535 293.272786 
" clip-path="url(#p678f7bdbc1)" style="fill: none; stroke: #808080; stroke-width: 0.649132; stroke-linecap: round"/>
   </g>
   <g id="line2d_4">
    <path d="M 133.067159 290.202922 
L 126.813254 290.202922 
" clip-path="url(#p678f7bdbc1)" style="fill: none; stroke: #808080; stroke-width: 0.649132; stroke-linecap: round"/>
   </g>
   <g id="line2d_5">
    <path d="M 136.890529 280.992325 
L 136.890529 293.500135 
L 142.46219 293.500135 
" clip-path="url(#p678f7bdbc1)" style="fill: none; stroke: #808080; stroke-width: 0.649132; stroke-linecap: round"/>
   </g>
   <g id="line2d_6">
    <path d="M 145.945506 280.992854 
L 145.945506 289.975736 
L 145.945506 289.975736 
L 146.172921 291.112809 
L 146.172921 291.112809 
L 146.62775 292.022468 
L 147.423702 292.81842 
L 148.333361 293.386957 
L 149.470434 293.500664 
L 150.493801 293.386957 
L 151.517167 292.81842 
L 152.313118 292.022468 
L 152.767948 291.112809 
L 152.881655 289.975736 
L 152.881655 280.992854 
" clip-path="url(#p678f7bdbc1)" style="fill: none; stroke: #808080; stroke-width: 0.649132; stroke-linecap: round"/>
   </g>
   <g id="line2d_7">
    <path d="M 161.936391 293.500195 
L 156.36473 293.500195 
L 156.36473 280.992385 
L 161.936391 280.992385 
" clip-path="url(#p678f7bdbc1)" style="fill: none; stroke: #808080; stroke-width: 0.649132; stroke-linecap: round"/>
   </g>
   <g id="line2d_8">
    <path d="M 156.364956 286.564341 
L 160.572128 286.564341 
" clip-path="url(#p678f7bdbc1)" style="fill: none; stroke: #808080; stroke-width: 0.649132; stroke-linecap: round"/>
   </g>
   <g id="patch_4">
    <path d="M 106.408693 68.291779 
C 106.442582 68.291779 106.475086 68.278315 106.499049 68.254353 
C 106.523011 68.23039 106.536475 68.197885 106.536475 68.163997 
C 106.536475 68.130109 106.523011 68.097604 106.499049 68.073642 
C 106.475086 68.049679 106.442582 68.036215 106.408693 68.036215 
C 106.374805 68.036215 106.342301 68.049679 106.318338 68.073642 
C 106.294375 68.097604 106.280912 68.130109 106.280912 68.163997 
C 106.280912 68.197885 106.294375 68.23039 106.318338 68.254353 
C 106.342301 68.278315 106.374805 68.291779 106.408693 68.291779 
L 106.408693 68.291779 
z
" clip-path="url(#p678f7bdbc1)" style="fill: none; stroke: #808080; stroke-width: 1.277819; stroke-linejoin: miter"/>
   </g>
   <g id="line2d_9">
    <path d="M 106.258876 56.525626 
L 114.672078 60.050071 
L 114.672078 60.050071 
L 106.258483 63.574708 
L 106.258483 63.574708 
" clip-path="url(#p678f7bdbc1)" style="fill: none; stroke: #808080; stroke-width: 0.649132; stroke-linecap: round"/>
   </g>
   <g id="line2d_10">
    <path d="M 116.735286 66.303535 
L 116.735286 53.795725 
L 123.671435 66.303535 
L 123.671435 53.795725 
" clip-path="url(#p678f7bdbc1)" style="fill: none; stroke: #808080; stroke-width: 0.649132; stroke-linecap: round"/>
   </g>
   <g id="line2d_11">
    <path d="M 125.78909 66.076243 
L 129.996406 53.568 
L 129.996406 53.568 
L 134.089535 66.076565 
L 134.089535 66.076565 
" clip-path="url(#p678f7bdbc1)" style="fill: none; stroke: #808080; stroke-width: 0.649132; stroke-linecap: round"/>
   </g>
   <g id="line2d_12">
    <path d="M 133.067159 63.006701 
L 126.813254 63.006701 
" clip-path="url(#p678f7bdbc1)" style="fill: none; stroke: #808080; stroke-width: 0.649132; stroke-linecap: round"/>
   </g>
   <g id="line2d_13">
    <path d="M 135.526893 66.303904 
L 135.526893 53.796094 
L 139.620358 60.732243 
L 139.620358 60.732243 
L 143.82753 53.796094 
L 143.82753 53.796094 
L 143.82753 66.303904 
" clip-path="url(#p678f7bdbc1)" style="fill: none; stroke: #808080; stroke-width: 0.649132; stroke-linecap: round"/>
   </g>
   <g id="line2d_14">
    <path d="M 152.19941 66.303974 
L 146.627749 66.303974 
L 146.627749 53.796164 
L 152.19941 53.796164 
" clip-path="url(#p678f7bdbc1)" style="fill: none; stroke: #808080; stroke-width: 0.649132; stroke-linecap: round"/>
   </g>
   <g id="line2d_15">
    <path d="M 146.627975 59.36812 
L 150.835147 59.36812 
" clip-path="url(#p678f7bdbc1)" style="fill: none; stroke: #808080; stroke-width: 0.649132; stroke-linecap: round"/>
   </g>
   <g id="patch_5">
    <path d="M 138.865296 108.734751 
C 141.017194 108.734751 143.081246 107.879793 144.602867 106.358171 
C 146.124489 104.83655 146.979447 102.772498 146.979447 100.6206 
C 146.979447 98.468702 146.124489 96.404651 144.602867 94.883029 
C 143.081246 93.361407 141.017194 92.506449 138.865296 92.506449 
C 136.713398 92.506449 134.649347 93.361407 133.127725 94.883029 
C 131.606104 96.404651 130.751146 98.468702 130.751146 100.6206 
C 130.751146 102.772498 131.606104 104.83655 133.127725 106.358171 
C 134.649347 107.879793 136.713398 108.734751 138.865296 108.734751 
L 138.865296 108.734751 
z
" clip-path="url(#p678f7bdbc1)" style="fill: none; stroke: #c90d15; stroke-width: 3.24566; stroke-linejoin: miter"/>
   </g>
   <g id="patch_6">
    <path d="M 171.321899 108.734751 
C 173.473797 108.734751 175.537849 107.879793 177.05947 106.358171 
C 178.581092 104.83655 179.43605 102.772498 179.43605 100.6206 
C 179.43605 98.468702 178.581092 96.404651 177.05947 94.883029 
C 175.537849 93.361407 173.473797 92.506449 171.321899 92.506449 
C 169.170001 92.506449 167.10595 93.361407 165.584328 94.883029 
C 164.062707 96.404651 163.207749 98.468702 163.207749 100.6206 
C 163.207749 102.772498 164.062707 104.83655 165.584328 106.358171 
C 167.10595 107.879793 169.170001 108.734751 171.321899 108.734751 
L 171.321899 108.734751 
z
" clip-path="url(#p678f7bdbc1)" style="fill: none; stroke: #c90d15; stroke-width: 3.24566; stroke-linejoin: miter"/>
   </g>
   <g id="patch_7">
    <path d="M 203.778502 108.734751 
C 205.9304 108.734751 207.994452 107.879793 209.516073 106.358171 
C 211.037695 104.83655 211.892653 102.772498 211.892653 100.6206 
C 211.892653 98.468702 211.037695 96.404651 209.516073 94.883029 
C 207.994452 93.361407 205.9304 92.506449 203.778502 92.506449 
C 201.626604 92.506449 199.562553 93.361407 198.040931 94.883029 
C 196.51931 96.404651 195.664352 98.468702 195.664352 100.6206 
C 195.664352 102.772498 196.51931 104.83655 198.040931 106.358171 
C 199.562553 107.879793 201.626604 108.734751 203.778502 108.734751 
L 203.778502 108.734751 
z
" clip-path="url(#p678f7bdbc1)" style="fill: none; stroke: #c90d15; stroke-width: 3.24566; stroke-linejoin: miter"/>
   </g>
   <g id="patch_8">
    <path d="M 236.235105 108.734751 
C 238.387003 108.734751 240.451055 107.879793 241.972676 106.358171 
C 243.494298 104.83655 244.349256 102.772498 244.349256 100.6206 
C 244.349256 98.468702 243.494298 96.404651 241.972676 94.883029 
C 240.451055 93.361407 238.387003 92.506449 236.235105 92.506449 
C 234.083207 92.506449 232.019156 93.361407 230.497534 94.883029 
C 228.975913 96.404651 228.120955 98.468702 228.120955 100.6206 
C 228.120955 102.772498 228.975913 104.83655 230.497534 106.358171 
C 232.019156 107.879793 234.083207 108.734751 236.235105 108.734751 
L 236.235105 108.734751 
z
" clip-path="url(#p678f7bdbc1)" style="fill: none; stroke: #c90d15; stroke-width: 3.24566; stroke-linejoin: miter"/>
   </g>
   <g id="patch_9">
    <path d="M 268.691708 108.734751 
C 270.843606 108.734751 272.907658 107.879793 274.429279 106.358171 
C 275.950901 104.83655 276.805859 102.772498 276.805859 100.6206 
C 276.805859 98.468702 275.950901 96.404651 274.429279 94.883029 
C 272.907658 93.361407 270.843606 92.506449 268.691708 92.506449 
C 266.53981 92.506449 264.475759 93.361407 262.954137 94.883029 
C 261.432516 96.404651 260.577558 98.468702 260.577558 100.6206 
C 260.577558 102.772498 261.432516 104.83655 262.954137 106.358171 
C 264.475759 107.879793 266.53981 108.734751 268.691708 108.734751 
L 268.691708 108.734751 
z
" clip-path="url(#p678f7bdbc1)" style="fill: none; stroke: #c90d15; stroke-width: 3.24566; stroke-linejoin: miter"/>
   </g>
   <g id="patch_10">
    <path d="M 301.148311 108.734751 
C 303.300209 108.734751 305.364261 107.879793 306.885882 106.358171 
C 308.407504 104.83655 309.262462 102.772498 309.262462 100.6206 
C 309.262462 98.468702 308.407504 96.404651 306.885882 94.883029 
C 305.364261 93.361407 303.300209 92.506449 301.148311 92.506449 
C 298.996413 92.506449 296.932362 93.361407 295.41074 94.883029 
C 293.889119 96.404651 293.034161 98.468702 293.034161 100.6206 
C 293.034161 102.772498 293.889119 104.83655 295.41074 106.358171 
C 296.932362 107.879793 298.996413 108.734751 301.148311 108.734751 
L 301.148311 108.734751 
z
" clip-path="url(#p678f7bdbc1)" style="fill: none; stroke: #c90d15; stroke-width: 3.24566; stroke-linejoin: miter"/>
   </g>
   <g id="patch_11">
    <path d="M 333.604914 108.734751 
C 335.756812 108.734751 337.820864 107.879793 339.342485 106.358171 
C 340.864107 104.83655 341.719065 102.772498 341.719065 100.6206 
C 341.719065 98.468702 340.864107 96.404651 339.342485 94.883029 
C 337.820864 93.361407 335.756812 92.506449 333.604914 92.506449 
C 331.453016 92.506449 329.388965 93.361407 327.867343 94.883029 
C 326.345722 96.404651 325.490764 98.468702 325.490764 100.6206 
C 325.490764 102.772498 326.345722 104.83655 327.867343 106.358171 
C 329.388965 107.879793 331.453016 108.734751 333.604914 108.734751 
L 333.604914 108.734751 
z
" clip-path="url(#p678f7bdbc1)" style="fill: none; stroke: #c90d15; stroke-width: 3.24566; stroke-linejoin: miter"/>
   </g>
   <g id="patch_12">
    <path d="M 138.865296 141.191354 
C 141.017194 141.191354 143.081246 140.336396 144.602867 138.814774 
C 146.124489 137.293153 146.979447 135.229101 146.979447 133.077203 
C 146.979447 130.925305 146.124489 128.861254 144.602867 127.339632 
C 143.081246 125.81801 141.017194 124.963052 138.865296 124.963052 
C 136.713398 124.963052 134.649347 125.81801 133.127725 127.339632 
C 131.606104 128.861254 130.751146 130.925305 130.751146 133.077203 
C 130.751146 135.229101 131.606104 137.293153 133.127725 138.814774 
C 134.649347 140.336396 136.713398 141.191354 138.865296 141.191354 
L 138.865296 141.191354 
z
" clip-path="url(#p678f7bdbc1)" style="fill: none; stroke: #c90d15; stroke-width: 3.24566; stroke-linejoin: miter"/>
   </g>
   <g id="patch_13">
    <path d="M 171.321899 141.191354 
C 173.473797 141.191354 175.537849 140.336396 177.05947 138.814774 
C 178.581092 137.293153 179.43605 135.229101 179.43605 133.077203 
C 179.43605 130.925305 178.581092 128.861254 177.05947 127.339632 
C 175.537849 125.81801 173.473797 124.963052 171.321899 124.963052 
C 169.170001 124.963052 167.10595 125.81801 165.584328 127.339632 
C 164.062707 128.861254 163.207749 130.925305 163.207749 133.077203 
C 163.207749 135.229101 164.062707 137.293153 165.584328 138.814774 
C 167.10595 140.336396 169.170001 141.191354 171.321899 141.191354 
L 171.321899 141.191354 
z
" clip-path="url(#p678f7bdbc1)" style="fill: none; stroke: #c90d15; stroke-width: 3.24566; stroke-linejoin: miter"/>
   </g>
   <g id="patch_14">
    <path d="M 203.778502 141.191354 
C 205.9304 141.191354 207.994452 140.336396 209.516073 138.814774 
C 211.037695 137.293153 211.892653 135.229101 211.892653 133.077203 
C 211.892653 130.925305 211.037695 128.861254 209.516073 127.339632 
C 207.994452 125.81801 205.9304 124.963052 203.778502 124.963052 
C 201.626604 124.963052 199.562553 125.81801 198.040931 127.339632 
C 196.51931 128.861254 195.664352 130.925305 195.664352 133.077203 
C 195.664352 135.229101 196.51931 137.293153 198.040931 138.814774 
C 199.562553 140.336396 201.626604 141.191354 203.778502 141.191354 
L 203.778502 141.191354 
z
" clip-path="url(#p678f7bdbc1)" style="fill: none; stroke: #c90d15; stroke-width: 3.24566; stroke-linejoin: miter"/>
   </g>
   <g id="patch_15">
    <path d="M 236.235105 141.191354 
C 238.387003 141.191354 240.451055 140.336396 241.972676 138.814774 
C 243.494298 137.293153 244.349256 135.229101 244.349256 133.077203 
C 244.349256 130.925305 243.494298 128.861254 241.972676 127.339632 
C 240.451055 125.81801 238.387003 124.963052 236.235105 124.963052 
C 234.083207 124.963052 232.019156 125.81801 230.497534 127.339632 
C 228.975913 128.861254 228.120955 130.925305 228.120955 133.077203 
C 228.120955 135.229101 228.975913 137.293153 230.497534 138.814774 
C 232.019156 140.336396 234.083207 141.191354 236.235105 141.191354 
L 236.235105 141.191354 
z
" clip-path="url(#p678f7bdbc1)" style="fill: none; stroke: #c90d15; stroke-width: 3.24566; stroke-linejoin: miter"/>
   </g>
   <g id="patch_16">
    <path d="M 268.691708 141.191354 
C 270.843606 141.191354 272.907658 140.336396 274.429279 138.814774 
C 275.950901 137.293153 276.805859 135.229101 276.805859 133.077203 
C 276.805859 130.925305 275.950901 128.861254 274.429279 127.339632 
C 272.907658 125.81801 270.843606 124.963052 268.691708 124.963052 
C 266.53981 124.963052 264.475759 125.81801 262.954137 127.339632 
C 261.432516 128.861254 260.577558 130.925305 260.577558 133.077203 
C 260.577558 135.229101 261.432516 137.293153 262.954137 138.814774 
C 264.475759 140.336396 266.53981 141.191354 268.691708 141.191354 
L 268.691708 141.191354 
z
" clip-path="url(#p678f7bdbc1)" style="fill: none; stroke: #c90d15; stroke-width: 3.24566; stroke-linejoin: miter"/>
   </g>
   <g id="patch_17">
    <path d="M 301.148311 141.191354 
C 303.300209 141.191354 305.364261 140.336396 306.885882 138.814774 
C 308.407504 137.293153 309.262462 135.229101 309.262462 133.077203 
C 309.262462 130.925305 308.407504 128.861254 306.885882 127.339632 
C 305.364261 125.81801 303.300209 124.963052 301.148311 124.963052 
C 298.996413 124.963052 296.932362 125.81801 295.41074 127.339632 
C 293.889119 128.861254 293.034161 130.925305 293.034161 133.077203 
C 293.034161 135.229101 293.889119 137.293153 295.41074 138.814774 
C 296.932362 140.336396 298.996413 141.191354 301.148311 141.191354 
L 301.148311 141.191354 
z
" clip-path="url(#p678f7bdbc1)" style="fill: none; stroke: #c90d15; stroke-width: 3.24566; stroke-linejoin: miter"/>
   </g>
   <g id="patch_18">
    <path d="M 333.604914 141.191354 
C 335.756812 141.191354 337.820864 140.336396 339.342485 138.814774 
C 340.864107 137.293153 341.719065 135.229101 341.719065 133.077203 
C 341.719065 130.925305 340.864107 128.861254 339.342485 127.339632 
C 337.820864 125.81801 335.756812 124.963052 333.604914 124.963052 
C 331.453016 124.963052 329.388965 125.81801 327.867343 127.339632 
C 326.345722 128.861254 325.490764 130.925305 325.490764 133.077203 
C 325.490764 135.229101 326.345722 137.293153 327.867343 138.814774 
C 329.388965 140.336396 331.453016 141.191354 333.604914 141.191354 
L 333.604914 141.191354 
z
" clip-path="url(#p678f7bdbc1)" style="fill: none; stroke: #c90d15; stroke-width: 3.24566; stroke-linejoin: miter"/>
   </g>
   <g id="patch_19">
    <path d="M 138.865296 173.647957 
C 141.017194 173.647957 143.081246 172.792999 144.602867 171.271377 
C 146.124489 169.749756 146.979447 167.685704 146.979447 165.533806 
C 146.979447 163.381908 146.124489 161.317857 144.602867 159.796235 
C 143.081246 158.274613 141.017194 157.419655 138.865296 157.419655 
C 136.713398 157.419655 134.649347 158.274613 133.127725 159.796235 
C 131.606104 161.317857 130.751146 163.381908 130.751146 165.533806 
C 130.751146 167.685704 131.606104 169.749756 133.127725 171.271377 
C 134.649347 172.792999 136.713398 173.647957 138.865296 173.647957 
L 138.865296 173.647957 
z
" clip-path="url(#p678f7bdbc1)" style="fill: none; stroke: #c90d15; stroke-width: 3.24566; stroke-linejoin: miter"/>
   </g>
   <g id="patch_20">
    <path d="M 171.321899 173.647957 
C 173.473797 173.647957 175.537849 172.792999 177.05947 171.271377 
C 178.581092 169.749756 179.43605 167.685704 179.43605 165.533806 
C 179.43605 163.381908 178.581092 161.317857 177.05947 159.796235 
C 175.537849 158.274613 173.473797 157.419655 171.321899 157.419655 
C 169.170001 157.419655 167.10595 158.274613 165.584328 159.796235 
C 164.062707 161.317857 163.207749 163.381908 163.207749 165.533806 
C 163.207749 167.685704 164.062707 169.749756 165.584328 171.271377 
C 167.10595 172.792999 169.170001 173.647957 171.321899 173.647957 
L 171.321899 173.647957 
z
" clip-path="url(#p678f7bdbc1)" style="fill: none; stroke: #c90d15; stroke-width: 3.24566; stroke-linejoin: miter"/>
   </g>
   <g id="patch_21">
    <path d="M 203.778502 173.647957 
C 205.9304 173.647957 207.994452 172.792999 209.516073 171.271377 
C 211.037695 169.749756 211.892653 167.685704 211.892653 165.533806 
C 211.892653 163.381908 211.037695 161.317857 209.516073 159.796235 
C 207.994452 158.274613 205.9304 157.419655 203.778502 157.419655 
C 201.626604 157.419655 199.562553 158.274613 198.040931 159.796235 
C 196.51931 161.317857 195.664352 163.381908 195.664352 165.533806 
C 195.664352 167.685704 196.51931 169.749756 198.040931 171.271377 
C 199.562553 172.792999 201.626604 173.647957 203.778502 173.647957 
L 203.778502 173.647957 
z
" clip-path="url(#p678f7bdbc1)" style="fill: none; stroke: #c90d15; stroke-width: 3.24566; stroke-linejoin: miter"/>
   </g>
   <g id="patch_22">
    <path d="M 236.235105 173.647957 
C 238.387003 173.647957 240.451055 172.792999 241.972676 171.271377 
C 243.494298 169.749756 244.349256 167.685704 244.349256 165.533806 
C 244.349256 163.381908 243.494298 161.317857 241.972676 159.796235 
C 240.451055 158.274613 238.387003 157.419655 236.235105 157.419655 
C 234.083207 157.419655 232.019156 158.274613 230.497534 159.796235 
C 228.975913 161.317857 228.120955 163.381908 228.120955 165.533806 
C 228.120955 167.685704 228.975913 169.749756 230.497534 171.271377 
C 232.019156 172.792999 234.083207 173.647957 236.235105 173.647957 
L 236.235105 173.647957 
z
" clip-path="url(#p678f7bdbc1)" style="fill: none; stroke: #c90d15; stroke-width: 3.24566; stroke-linejoin: miter"/>
   </g>
   <g id="patch_23">
    <path d="M 268.691708 173.647957 
C 270.843606 173.647957 272.907658 172.792999 274.429279 171.271377 
C 275.950901 169.749756 276.805859 167.685704 276.805859 165.533806 
C 276.805859 163.381908 275.950901 161.317857 274.429279 159.796235 
C 272.907658 158.274613 270.843606 157.419655 268.691708 157.419655 
C 266.53981 157.419655 264.475759 158.274613 262.954137 159.796235 
C 261.432516 161.317857 260.577558 163.381908 260.577558 165.533806 
C 260.577558 167.685704 261.432516 169.749756 262.954137 171.271377 
C 264.475759 172.792999 266.53981 173.647957 268.691708 173.647957 
L 268.691708 173.647957 
z
" clip-path="url(#p678f7bdbc1)" style="fill: none; stroke: #c90d15; stroke-width: 3.24566; stroke-linejoin: miter"/>
   </g>
   <g id="patch_24">
    <path d="M 301.148311 173.647957 
C 303.300209 173.647957 305.364261 172.792999 306.885882 171.271377 
C 308.407504 169.749756 309.262462 167.685704 309.262462 165.533806 
C 309.262462 163.381908 308.407504 161.317857 306.885882 159.796235 
C 305.364261 158.274613 303.300209 157.419655 301.148311 157.419655 
C 298.996413 157.419655 296.932362 158.274613 295.41074 159.796235 
C 293.889119 161.317857 293.034161 163.381908 293.034161 165.533806 
C 293.034161 167.685704 293.889119 169.749756 295.41074 171.271377 
C 296.932362 172.792999 298.996413 173.647957 301.148311 173.647957 
L 301.148311 173.647957 
z
" clip-path="url(#p678f7bdbc1)" style="fill: none; stroke: #c90d15; stroke-width: 3.24566; stroke-linejoin: miter"/>
   </g>
   <g id="patch_25">
    <path d="M 333.604914 173.647957 
C 335.756812 173.647957 337.820864 172.792999 339.342485 171.271377 
C 340.864107 169.749756 341.719065 167.685704 341.719065 165.533806 
C 341.719065 163.381908 340.864107 161.317857 339.342485 159.796235 
C 337.820864 158.274613 335.756812 157.419655 333.604914 157.419655 
C 331.453016 157.419655 329.388965 158.274613 327.867343 159.796235 
C 326.345722 161.317857 325.490764 163.381908 325.490764 165.533806 
C 325.490764 167.685704 326.345722 169.749756 327.867343 171.271377 
C 329.388965 172.792999 331.453016 173.647957 333.604914 173.647957 
L 333.604914 173.647957 
z
" clip-path="url(#p678f7bdbc1)" style="fill: none; stroke: #c90d15; stroke-width: 3.24566; stroke-linejoin: miter"/>
   </g>
   <g id="patch_26">
    <path d="M 138.865296 206.10456 
C 141.017194 206.10456 143.081246 205.249602 144.602867 203.72798 
C 146.124489 202.206358 146.979447 200.142307 146.979447 197.990409 
C 146.979447 195.838511 146.124489 193.77446 144.602867 192.252838 
C 143.081246 190.731216 141.017194 189.876258 138.865296 189.876258 
C 136.713398 189.876258 134.649347 190.731216 133.127725 192.252838 
C 131.606104 193.77446 130.751146 195.838511 130.751146 197.990409 
C 130.751146 200.142307 131.606104 202.206358 133.127725 203.72798 
C 134.649347 205.249602 136.713398 206.10456 138.865296 206.10456 
L 138.865296 206.10456 
z
" clip-path="url(#p678f7bdbc1)" style="fill: none; stroke: #c90d15; stroke-width: 3.24566; stroke-linejoin: miter"/>
   </g>
   <g id="patch_27">
    <path d="M 171.321899 206.10456 
C 173.473797 206.10456 175.537849 205.249602 177.05947 203.72798 
C 178.581092 202.206358 179.43605 200.142307 179.43605 197.990409 
C 179.43605 195.838511 178.581092 193.77446 177.05947 192.252838 
C 175.537849 190.731216 173.473797 189.876258 171.321899 189.876258 
C 169.170001 189.876258 167.10595 190.731216 165.584328 192.252838 
C 164.062707 193.77446 163.207749 195.838511 163.207749 197.990409 
C 163.207749 200.142307 164.062707 202.206358 165.584328 203.72798 
C 167.10595 205.249602 169.170001 206.10456 171.321899 206.10456 
L 171.321899 206.10456 
z
" clip-path="url(#p678f7bdbc1)" style="fill: none; stroke: #c90d15; stroke-width: 3.24566; stroke-linejoin: miter"/>
   </g>
   <g id="patch_28">
    <path d="M 203.778502 206.10456 
C 205.9304 206.10456 207.994452 205.249602 209.516073 203.72798 
C 211.037695 202.206358 211.892653 200.142307 211.892653 197.990409 
C 211.892653 195.838511 211.037695 193.77446 209.516073 192.252838 
C 207.994452 190.731216 205.9304 189.876258 203.778502 189.876258 
C 201.626604 189.876258 199.562553 190.731216 198.040931 192.252838 
C 196.51931 193.77446 195.664352 195.838511 195.664352 197.990409 
C 195.664352 200.142307 196.51931 202.206358 198.040931 203.72798 
C 199.562553 205.249602 201.626604 206.10456 203.778502 206.10456 
L 203.778502 206.10456 
z
" clip-path="url(#p678f7bdbc1)" style="fill: none; stroke: #c90d15; stroke-width: 3.24566; stroke-linejoin: miter"/>
   </g>
   <g id="patch_29">
    <path d="M 236.235105 206.10456 
C 238.387003 206.10456 240.451055 205.249602 241.972676 203.72798 
C 243.494298 202.206358 244.349256 200.142307 244.349256 197.990409 
C 244.349256 195.838511 243.494298 193.77446 241.972676 192.252838 
C 240.451055 190.731216 238.387003 189.876258 236.235105 189.876258 
C 234.083207 189.876258 232.019156 190.731216 230.497534 192.252838 
C 228.975913 193.77446 228.120955 195.838511 228.120955 197.990409 
C 228.120955 200.142307 228.975913 202.206358 230.497534 203.72798 
C 232.019156 205.249602 234.083207 206.10456 236.235105 206.10456 
L 236.235105 206.10456 
z
" clip-path="url(#p678f7bdbc1)" style="fill: none; stroke: #c90d15; stroke-width: 3.24566; stroke-linejoin: miter"/>
   </g>
   <g id="patch_30">
    <path d="M 268.691708 206.10456 
C 270.843606 206.10456 272.907658 205.249602 274.429279 203.72798 
C 275.950901 202.206358 276.805859 200.142307 276.805859 197.990409 
C 276.805859 195.838511 275.950901 193.77446 274.429279 192.252838 
C 272.907658 190.731216 270.843606 189.876258 268.691708 189.876258 
C 266.53981 189.876258 264.475759 190.731216 262.954137 192.252838 
C 261.432516 193.77446 260.577558 195.838511 260.577558 197.990409 
C 260.577558 200.142307 261.432516 202.206358 262.954137 203.72798 
C 264.475759 205.249602 266.53981 206.10456 268.691708 206.10456 
L 268.691708 206.10456 
z
" clip-path="url(#p678f7bdbc1)" style="fill: none; stroke: #c90d15; stroke-width: 3.24566; stroke-linejoin: miter"/>
   </g>
   <g id="patch_31">
    <path d="M 301.148311 206.10456 
C 303.300209 206.10456 305.364261 205.249602 306.885882 203.72798 
C 308.407504 202.206358 309.262462 200.142307 309.262462 197.990409 
C 309.262462 195.838511 308.407504 193.77446 306.885882 192.252838 
C 305.364261 190.731216 303.300209 189.876258 301.148311 189.876258 
C 298.996413 189.876258 296.932362 190.731216 295.41074 192.252838 
C 293.889119 193.77446 293.034161 195.838511 293.034161 197.990409 
C 293.034161 200.142307 293.889119 202.206358 295.41074 203.72798 
C 296.932362 205.249602 298.996413 206.10456 301.148311 206.10456 
L 301.148311 206.10456 
z
" clip-path="url(#p678f7bdbc1)" style="fill: none; stroke: #c90d15; stroke-width: 3.24566; stroke-linejoin: miter"/>
   </g>
   <g id="patch_32">
    <path d="M 333.604914 206.10456 
C 335.756812 206.10456 337.820864 205.249602 339.342485 203.72798 
C 340.864107 202.206358 341.719065 200.142307 341.719065 197.990409 
C 341.719065 195.838511 340.864107 193.77446 339.342485 192.252838 
C 337.820864 190.731216 335.756812 189.876258 333.604914 189.876258 
C 331.453016 189.876258 329.388965 190.731216 327.867343 192.252838 
C 326.345722 193.77446 325.490764 195.838511 325.490764 197.990409 
C 325.490764 200.142307 326.345722 202.206358 327.867343 203.72798 
C 329.388965 205.249602 331.453016 206.10456 333.604914 206.10456 
L 333.604914 206.10456 
z
" clip-path="url(#p678f7bdbc1)" style="fill: none; stroke: #c90d15; stroke-width: 3.24566; stroke-linejoin: miter"/>
   </g>
   <g id="patch_33">
    <path d="M 138.865296 238.561163 
C 141.017194 238.561163 143.081246 237.706205 144.602867 236.184583 
C 146.124489 234.662961 146.979447 232.59891 146.979447 230.447012 
C 146.979447 228.295114 146.124489 226.231063 144.602867 224.709441 
C 143.081246 223.187819 141.017194 222.332861 138.865296 222.332861 
C 136.713398 222.332861 134.649347 223.187819 133.127725 224.709441 
C 131.606104 226.231063 130.751146 228.295114 130.751146 230.447012 
C 130.751146 232.59891 131.606104 234.662961 133.127725 236.184583 
C 134.649347 237.706205 136.713398 238.561163 138.865296 238.561163 
L 138.865296 238.561163 
z
" clip-path="url(#p678f7bdbc1)" style="fill: none; stroke: #c90d15; stroke-width: 3.24566; stroke-linejoin: miter"/>
   </g>
   <g id="patch_34">
    <path d="M 171.321899 238.561163 
C 173.473797 238.561163 175.537849 237.706205 177.05947 236.184583 
C 178.581092 234.662961 179.43605 232.59891 179.43605 230.447012 
C 179.43605 228.295114 178.581092 226.231063 177.05947 224.709441 
C 175.537849 223.187819 173.473797 222.332861 171.321899 222.332861 
C 169.170001 222.332861 167.10595 223.187819 165.584328 224.709441 
C 164.062707 226.231063 163.207749 228.295114 163.207749 230.447012 
C 163.207749 232.59891 164.062707 234.662961 165.584328 236.184583 
C 167.10595 237.706205 169.170001 238.561163 171.321899 238.561163 
L 171.321899 238.561163 
z
" clip-path="url(#p678f7bdbc1)" style="fill: none; stroke: #c90d15; stroke-width: 3.24566; stroke-linejoin: miter"/>
   </g>
   <g id="patch_35">
    <path d="M 203.778502 238.561163 
C 205.9304 238.561163 207.994452 237.706205 209.516073 236.184583 
C 211.037695 234.662961 211.892653 232.59891 211.892653 230.447012 
C 211.892653 228.295114 211.037695 226.231063 209.516073 224.709441 
C 207.994452 223.187819 205.9304 222.332861 203.778502 222.332861 
C 201.626604 222.332861 199.562553 223.187819 198.040931 224.709441 
C 196.51931 226.231063 195.664352 228.295114 195.664352 230.447012 
C 195.664352 232.59891 196.51931 234.662961 198.040931 236.184583 
C 199.562553 237.706205 201.626604 238.561163 203.778502 238.561163 
L 203.778502 238.561163 
z
" clip-path="url(#p678f7bdbc1)" style="fill: none; stroke: #c90d15; stroke-width: 3.24566; stroke-linejoin: miter"/>
   </g>
   <g id="patch_36">
    <path d="M 236.235105 238.561163 
C 238.387003 238.561163 240.451055 237.706205 241.972676 236.184583 
C 243.494298 234.662961 244.349256 232.59891 244.349256 230.447012 
C 244.349256 228.295114 243.494298 226.231063 241.972676 224.709441 
C 240.451055 223.187819 238.387003 222.332861 236.235105 222.332861 
C 234.083207 222.332861 232.019156 223.187819 230.497534 224.709441 
C 228.975913 226.231063 228.120955 228.295114 228.120955 230.447012 
C 228.120955 232.59891 228.975913 234.662961 230.497534 236.184583 
C 232.019156 237.706205 234.083207 238.561163 236.235105 238.561163 
L 236.235105 238.561163 
z
" clip-path="url(#p678f7bdbc1)" style="fill: none; stroke: #c90d15; stroke-width: 3.24566; stroke-linejoin: miter"/>
   </g>
   <g id="patch_37">
    <path d="M 268.691708 238.561163 
C 270.843606 238.561163 272.907658 237.706205 274.429279 236.184583 
C 275.950901 234.662961 276.805859 232.59891 276.805859 230.447012 
C 276.805859 228.295114 275.950901 226.231063 274.429279 224.709441 
C 272.907658 223.187819 270.843606 222.332861 268.691708 222.332861 
C 266.53981 222.332861 264.475759 223.187819 262.954137 224.709441 
C 261.432516 226.231063 260.577558 228.295114 260.577558 230.447012 
C 260.577558 232.59891 261.432516 234.662961 262.954137 236.184583 
C 264.475759 237.706205 266.53981 238.561163 268.691708 238.561163 
L 268.691708 238.561163 
z
" clip-path="url(#p678f7bdbc1)" style="fill: none; stroke: #c90d15; stroke-width: 3.24566; stroke-linejoin: miter"/>
   </g>
   <g id="patch_38">
    <path d="M 301.148311 238.561163 
C 303.300209 238.561163 305.364261 237.706205 306.885882 236.184583 
C 308.407504 234.662961 309.262462 232.59891 309.262462 230.447012 
C 309.262462 228.295114 308.407504 226.231063 306.885882 224.709441 
C 305.364261 223.187819 303.300209 222.332861 301.148311 222.332861 
C 298.996413 222.332861 296.932362 223.187819 295.41074 224.709441 
C 293.889119 226.231063 293.034161 228.295114 293.034161 230.447012 
C 293.034161 232.59891 293.889119 234.662961 295.41074 236.184583 
C 296.932362 237.706205 298.996413 238.561163 301.148311 238.561163 
L 301.148311 238.561163 
z
" clip-path="url(#p678f7bdbc1)" style="fill: none; stroke: #c90d15; stroke-width: 3.24566; stroke-linejoin: miter"/>
   </g>
   <g id="patch_39">
    <path d="M 333.604914 238.561163 
C 335.756812 238.561163 337.820864 237.706205 339.342485 236.184583 
C 340.864107 234.662961 341.719065 232.59891 341.719065 230.447012 
C 341.719065 228.295114 340.864107 226.231063 339.342485 224.709441 
C 337.820864 223.187819 335.756812 222.332861 333.604914 222.332861 
C 331.453016 222.332861 329.388965 223.187819 327.867343 224.709441 
C 326.345722 226.231063 325.490764 228.295114 325.490764 230.447012 
C 325.490764 232.59891 326.345722 234.662961 327.867343 236.184583 
C 329.388965 237.706205 331.453016 238.561163 333.604914 238.561163 
L 333.604914 238.561163 
z
" clip-path="url(#p678f7bdbc1)" style="fill: none; stroke: #c90d15; stroke-width: 3.24566; stroke-linejoin: miter"/>
   </g>
   <g id="line2d_16">
    <path d="M 106.408693 68.163997 
L 106.408693 262.903615 
" clip-path="url(#p678f7bdbc1)" style="fill: none; stroke: #c90d15; stroke-width: 3.24566; stroke-linecap: round"/>
   </g>
   <g id="line2d_17">
    <path d="M 106.408693 262.903615 
L 366.061517 262.903615 
" clip-path="url(#p678f7bdbc1)" style="fill: none; stroke: #c90d15; stroke-width: 3.24566; stroke-linecap: round"/>
   </g>
   <g id="line2d_18">
    <path d="M 366.061517 262.903615 
L 366.061517 68.163997 
" clip-path="url(#p678f7bdbc1)" style="fill: none; stroke: #c90d15; stroke-width: 3.24566; stroke-linecap: round"/>
   </g>
   <g id="line2d_19">
    <path d="M 366.061517 68.163997 
L 106.408693 68.163997 
" clip-path="url(#p678f7bdbc1)" style="fill: none; stroke: #c90d15; stroke-width: 3.24566; stroke-linecap: round"/>
   </g>
   <g id="matplotlib.axis_1">
    <g id="xtick_1">
     <g id="line2d_20">
      <defs>
       <path id="m42b99314ae" d="M 0 0 
L 0 3.5 
" style="stroke: #ffffff; stroke-width: 0.8"/>
      </defs>
      <g>
       <use xlink:href="#m42b99314ae" x="108.453204" y="307.584" style="fill: #ffffff; stroke: #ffffff; stroke-width: 0.8"/>
      </g>
     </g>
     <g id="text_1">
      <text style="fill: #ffffff; font: 10px 'sans-serif'; text-anchor: middle" x="108.453204" y="322.182437" transform="rotate(-0, 108.453204, 322.182437)">−10.0</text>
     </g>
    </g>
    <g id="xtick_2">
     <g id="line2d_21">
      <g>
       <use xlink:href="#m42b99314ae" x="140.398679" y="307.584" style="fill: #ffffff; stroke: #ffffff; stroke-width: 0.8"/>
      </g>
     </g>
     <g id="text_2">
      <text style="fill: #ffffff; font: 10px 'sans-serif'; text-anchor: middle" x="140.398679" y="322.182437" transform="rotate(-0, 140.398679, 322.182437)">−7.5</text>
     </g>
    </g>
    <g id="xtick_3">
     <g id="line2d_22">
      <g>
       <use xlink:href="#m42b99314ae" x="172.344155" y="307.584" style="fill: #ffffff; stroke: #ffffff; stroke-width: 0.8"/>
      </g>
     </g>
     <g id="text_3">
      <text style="fill: #ffffff; font: 10px 'sans-serif'; text-anchor: middle" x="172.344155" y="322.182437" transform="rotate(-0, 172.344155, 322.182437)">−5.0</text>
     </g>
    </g>
    <g id="xtick_4">
     <g id="line2d_23">
      <g>
       <use xlink:href="#m42b99314ae" x="204.28963" y="307.584" style="fill: #ffffff; stroke: #ffffff; stroke-width: 0.8"/>
      </g>
     </g>
     <g id="text_4">
      <text style="fill: #ffffff; font: 10px 'sans-serif'; text-anchor: middle" x="204.28963" y="322.182437" transform="rotate(-0, 204.28963, 322.182437)">−2.5</text>
     </g>
    </g>
    <g id="xtick_5">
     <g id="line2d_24">
      <g>
       <use xlink:href="#m42b99314ae" x="236.235105" y="307.584" style="fill: #ffffff; stroke: #ffffff; stroke-width: 0.8"/>
      </g>
     </g>
     <g id="text_5">
      <text style="fill: #ffffff; font: 10px 'sans-serif'; text-anchor: middle" x="236.235105" y="322.182437" transform="rotate(-0, 236.235105, 322.182437)">0.0</text>
     </g>
    </g>
    <g id="xtick_6">
     <g id="line2d_25">
      <g>
       <use xlink:href="#m42b99314ae" x="268.180581" y="307.584" style="fill: #ffffff; stroke: #ffffff; stroke-width: 0.8"/>
      </g>
     </g>
     <g id="text_6">
      <text style="fill: #ffffff; font: 10px 'sans-serif'; text-anchor: middle" x="268.180581" y="322.182437" transform="rotate(-0, 268.180581, 322.182437)">2.5</text>
     </g>
    </g>
    <g id="xtick_7">
     <g id="line2d_26">
      <g>
       <use xlink:href="#m42b99314ae" x="300.126056" y="307.584" style="fill: #ffffff; stroke: #ffffff; stroke-width: 0.8"/>
      </g>
     </g>
     <g id="text_7">
      <text style="fill: #ffffff; font: 10px 'sans-serif'; text-anchor: middle" x="300.126056" y="322.182437" transform="rotate(-0, 300.126056, 322.182437)">5.0</text>
     </g>
    </g>
    <g id="xtick_8">
     <g id="line2d_27">
      <g>
       <use xlink:href="#m42b99314ae" x="332.071532" y="307.584" style="fill: #ffffff; stroke: #ffffff; stroke-width: 0.8"/>
      </g>
     </g>
     <g id="text_8">
      <text style="fill: #ffffff; font: 10px 'sans-serif'; text-anchor: middle" x="332.071532" y="322.182437" transform="rotate(-0, 332.071532, 322.182437)">7.5</text>
     </g>
    </g>
    <g id="xtick_9">
     <g id="line2d_28">
      <g>
       <use xlink:href="#m42b99314ae" x="364.017007" y="307.584" style="fill: #ffffff; stroke: #ffffff; stroke-width: 0.8"/>
      </g>
     </g>
     <g id="text_9">
      <text style="fill: #ffffff; font: 10px 'sans-serif'; text-anchor: middle" x="364.017007" y="322.182437" transform="rotate(-0, 364.017007, 322.182437)">10.0</text>
     </g>
    </g>
   </g>
   <g id="matplotlib.axis_2">
    <g id="ytick_1">
     <g id="line2d_29">
      <defs>
       <path id="m10441d12f1" d="M 0 0 
L -3.5 0 
" style="stroke: #ffffff; stroke-width: 0.8"/>
      </defs>
      <g>
       <use xlink:href="#m10441d12f1" x="93.268331" y="293.315708" style="fill: #ffffff; stroke: #ffffff; stroke-width: 0.8"/>
      </g>
     </g>
     <g id="text_10">
      <text style="fill: #ffffff; font: 10px 'sans-serif'; text-anchor: end" x="86.268331" y="297.114926" transform="rotate(-0, 86.268331, 297.114926)">−10.0</text>
     </g>
    </g>
    <g id="ytick_2">
     <g id="line2d_30">
      <g>
       <use xlink:href="#m10441d12f1" x="93.268331" y="261.370232" style="fill: #ffffff; stroke: #ffffff; stroke-width: 0.8"/>
      </g>
     </g>
     <g id="text_11">
      <text style="fill: #ffffff; font: 10px 'sans-serif'; text-anchor: end" x="86.268331" y="265.169451" transform="rotate(-0, 86.268331, 265.169451)">−7.5</text>
     </g>
    </g>
    <g id="ytick_3">
     <g id="line2d_31">
      <g>
       <use xlink:href="#m10441d12f1" x="93.268331" y="229.424757" style="fill: #ffffff; stroke: #ffffff; stroke-width: 0.8"/>
      </g>
     </g>
     <g id="text_12">
      <text style="fill: #ffffff; font: 10px 'sans-serif'; text-anchor: end" x="86.268331" y="233.223976" transform="rotate(-0, 86.268331, 233.223976)">−5.0</text>
     </g>
    </g>
    <g id="ytick_4">
     <g id="line2d_32">
      <g>
       <use xlink:href="#m10441d12f1" x="93.268331" y="197.479281" style="fill: #ffffff; stroke: #ffffff; stroke-width: 0.8"/>
      </g>
     </g>
     <g id="text_13">
      <text style="fill: #ffffff; font: 10px 'sans-serif'; text-anchor: end" x="86.268331" y="201.2785" transform="rotate(-0, 86.268331, 201.2785)">−2.5</text>
     </g>
    </g>
    <g id="ytick_5">
     <g id="line2d_33">
      <g>
       <use xlink:href="#m10441d12f1" x="93.268331" y="165.533806" style="fill: #ffffff; stroke: #ffffff; stroke-width: 0.8"/>
      </g>
     </g>
     <g id="text_14">
      <text style="fill: #ffffff; font: 10px 'sans-serif'; text-anchor: end" x="86.268331" y="169.333025" transform="rotate(-0, 86.268331, 169.333025)">0.0</text>
     </g>
    </g>
    <g id="ytick_6">
     <g id="line2d_34">
      <g>
       <use xlink:href="#m10441d12f1" x="93.268331" y="133.588331" style="fill: #ffffff; stroke: #ffffff; stroke-width: 0.8"/>
      </g>
     </g>
     <g id="text_15">
      <text style="fill: #ffffff; font: 10px 'sans-serif'; text-anchor: end" x="86.268331" y="137.387549" transform="rotate(-0, 86.268331, 137.387549)">2.5</text>
     </g>
    </g>
    <g id="ytick_7">
     <g id="line2d_35">
      <g>
       <use xlink:href="#m10441d12f1" x="93.268331" y="101.642855" style="fill: #ffffff; stroke: #ffffff; stroke-width: 0.8"/>
      </g>
     </g>
     <g id="text_16">
      <text style="fill: #ffffff; font: 10px 'sans-serif'; text-anchor: end" x="86.268331" y="105.442074" transform="rotate(-0, 86.268331, 105.442074)">5.0</text>
     </g>
    </g>
    <g id="ytick_8">
     <g id="line2d_36">
      <g>
       <use xlink:href="#m10441d12f1" x="93.268331" y="69.69738" style="fill: #ffffff; stroke: #ffffff; stroke-width: 0.8"/>
      </g>
     </g>
     <g id="text_17">
      <text style="fill: #ffffff; font: 10px 'sans-serif'; text-anchor: end" x="86.268331" y="73.496599" transform="rotate(-0, 86.268331, 73.496599)">7.5</text>
     </g>
    </g>
   </g>
   <g id="patch_40">
    <path d="M 93.268331 307.584 
L 93.268331 41.472 
" style="fill: none; stroke: #ffffff; stroke-width: 0.8; stroke-linejoin: miter; stroke-linecap: square"/>
   </g>
   <g id="patch_41">
    <path d="M 379.051669 307.584 
L 379.051669 41.472 
" style="fill: none; stroke: #ffffff; stroke-width: 0.8; stroke-linejoin: miter; stroke-linecap: square"/>
   </g>
   <g id="patch_42">
    <path d="M 93.268331 307.584 
L 379.051669 307.584 
" style="fill: none; stroke: #ffffff; stroke-width: 0.8; stroke-linejoin: miter; stroke-linecap: square"/>
   </g>
   <g id="patch_43">
    <path d="M 93.268331 41.472 
L 379.051669 41.472 
" style="fill: none; stroke: #ffffff; stroke-width: 0.8; stroke-linejoin: miter; stroke-linecap: square"/>
   </g>
   <g id="text_18">
    <text style="fill: #ffffff; font: 12px 'sans-serif'; text-anchor: middle" x="236.16" y="35.472" transform="rotate(-0, 236.16, 35.472)">PROTOBOARD</text>
   </g>
  </g>
 </g>
 <defs>
  <clipPath id="p678f7bdbc1">
   <rect x="93.268331" y="41.472" width="285.783338" height="266.112"/>
  </clipPath>
 </defs>
</svg>
