<?xml version="1.0" encoding="utf-8" standalone="no"?>
<!DOCTYPE svg PUBLIC "-//W3C//DTD SVG 1.1//EN"
  "http://www.w3.org/Graphics/SVG/1.1/DTD/svg11.dtd">
<svg xmlns:xlink="http://www.w3.org/1999/xlink" width="460.8pt" height="345.6pt" viewBox="0 0 460.8 345.6" xmlns="http://www.w3.org/2000/svg" version="1.1">
 <metadata>
  <rdf:RDF xmlns:dc="http://purl.org/dc/elements/1.1/" xmlns:cc="http://creativecommons.org/ns#" xmlns:rdf="http://www.w3.org/1999/02/22-rdf-syntax-ns#">
   <cc:Work>
    <dc:type rdf:resource="http://purl.org/dc/dcmitype/StillImage"/>
    <dc:date>2021-12-22T04:54:12.054319</dc:date>
    <dc:format>image/svg+xml</dc:format>
    <dc:creator>
     <cc:Agent>
      <dc:title>Matplotlib v3.5.1, https://matplotlib.org/</dc:title>
     </cc:Agent>
    </dc:creator>
   </cc:Work>
  </rdf:RDF>
 </metadata>
 <defs>
  <style type="text/css">*{stroke-linejoin: round; stroke-linecap: butt}</style>
 </defs>
 <g id="figure_1">
  <g id="patch_1">
   <path d="M 0 345.6 
L 460.8 345.6 
L 460.8 0 
L 0 0 
z
" style="fill: #2b2b2b"/>
  </g>
  <g id="axes_1">
   <g id="patch_2">
    <path d="M 58.752 307.584 
L 413.568 307.584 
L 413.568 41.472 
L 58.752 41.472 
z
" style="fill: #2b2b2b"/>
   </g>
   <g id="text_1">
    <text style="fill: #ffffff; font: 1.27px 'sans-serif'; text-anchor: start" x="74.88" y="335.808" transform="rotate(-0, 74.88, 335.808)">&gt;VALUE</text>
   </g>
   <g id="text_2">
    <text style="fill: #ffffff; font: 1.27px 'sans-serif'; text-anchor: start" x="74.88" y="53.568" transform="rotate(-0, 74.88, 53.568)">&gt;NAME</text>
   </g>
   <g id="patch_3">
    <path d="M 115.2 103.968 
C 117.873247 103.968 120.437365 102.905908 122.327636 101.015636 
C 124.217908 99.125365 125.28 96.561247 125.28 93.888 
C 125.28 91.214753 124.217908 88.650635 122.327636 86.760364 
C 120.437365 84.870092 117.873247 83.808 115.2 83.808 
C 112.526753 83.808 109.962635 84.870092 108.072364 86.760364 
C 106.182092 88.650635 105.12 91.214753 105.12 93.888 
C 105.12 96.561247 106.182092 99.125365 108.072364 101.015636 
C 109.962635 102.905908 112.526753 103.968 115.2 103.968 
L 115.2 103.968 
z
" clip-path="url(#pf2d30a7a93)" style="fill: none; stroke: #c90d15; stroke-width: 4.032; stroke-linejoin: miter"/>
   </g>
   <g id="patch_4">
    <path d="M 155.52 103.968 
C 158.193247 103.968 160.757365 102.905908 162.647636 101.015636 
C 164.537908 99.125365 165.6 96.561247 165.6 93.888 
C 165.6 91.214753 164.537908 88.650635 162.647636 86.760364 
C 160.757365 84.870092 158.193247 83.808 155.52 83.808 
C 152.846753 83.808 150.282635 84.870092 148.392364 86.760364 
C 146.502092 88.650635 145.44 91.214753 145.44 93.888 
C 145.44 96.561247 146.502092 99.125365 148.392364 101.015636 
C 150.282635 102.905908 152.846753 103.968 155.52 103.968 
L 155.52 103.968 
z
" clip-path="url(#pf2d30a7a93)" style="fill: none; stroke: #c90d15; stroke-width: 4.032; stroke-linejoin: miter"/>
   </g>
   <g id="patch_5">
    <path d="M 195.84 103.968 
C 198.513247 103.968 201.077365 102.905908 202.967636 101.015636 
C 204.857908 99.125365 205.92 96.561247 205.92 93.888 
C 205.92 91.214753 204.857908 88.650635 202.967636 86.760364 
C 201.077365 84.870092 198.513247 83.808 195.84 83.808 
C 193.166753 83.808 190.602635 84.870092 188.712364 86.760364 
C 186.822092 88.650635 185.76 91.214753 185.76 93.888 
C 185.76 96.561247 186.822092 99.125365 188.712364 101.015636 
C 190.602635 102.905908 193.166753 103.968 195.84 103.968 
L 195.84 103.968 
z
" clip-path="url(#pf2d30a7a93)" style="fill: none; stroke: #c90d15; stroke-width: 4.032; stroke-linejoin: miter"/>
   </g>
   <g id="patch_6">
    <path d="M 236.16 103.968 
C 238.833247 103.968 241.397365 102.905908 243.287636 101.015636 
C 245.177908 99.125365 246.24 96.561247 246.24 93.888 
C 246.24 91.214753 245.177908 88.650635 243.287636 86.760364 
C 241.397365 84.870092 238.833247 83.808 236.16 83.808 
C 233.486753 83.808 230.922635 84.870092 229.032364 86.760364 
C 227.142092 88.650635 226.08 91.214753 226.08 93.888 
C 226.08 96.561247 227.142092 99.125365 229.032364 101.015636 
C 230.922635 102.905908 233.486753 103.968 236.16 103.968 
L 236.16 103.968 
z
" clip-path="url(#pf2d30a7a93)" style="fill: none; stroke: #c90d15; stroke-width: 4.032; stroke-linejoin: miter"/>
   </g>
   <g id="patch_7">
    <path d="M 276.48 103.968 
C 279.153247 103.968 281.717365 102.905908 283.607636 101.015636 
C 285.497908 99.125365 286.56 96.561247 286.56 93.888 
C 286.56 91.214753 285.497908 88.650635 283.607636 86.760364 
C 281.717365 84.870092 279.153247 83.808 276.48 83.808 
C 273.806753 83.808 271.242635 84.870092 269.352364 86.760364 
C 267.462092 88.650635 266.4 91.214753 266.4 93.888 
C 266.4 96.561247 267.462092 99.125365 269.352364 101.015636 
C 271.242635 102.905908 273.806753 103.968 276.48 103.968 
L 276.48 103.968 
z
" clip-path="url(#pf2d30a7a93)" style="fill: none; stroke: #c90d15; stroke-width: 4.032; stroke-linejoin: miter"/>
   </g>
   <g id="patch_8">
    <path d="M 316.8 103.968 
C 319.473247 103.968 322.037365 102.905908 323.927636 101.015636 
C 325.817908 99.125365 326.88 96.561247 326.88 93.888 
C 326.88 91.214753 325.817908 88.650635 323.927636 86.760364 
C 322.037365 84.870092 319.473247 83.808 316.8 83.808 
C 314.126753 83.808 311.562635 84.870092 309.672364 86.760364 
C 307.782092 88.650635 306.72 91.214753 306.72 93.888 
C 306.72 96.561247 307.782092 99.125365 309.672364 101.015636 
C 311.562635 102.905908 314.126753 103.968 316.8 103.968 
L 316.8 103.968 
z
" clip-path="url(#pf2d30a7a93)" style="fill: none; stroke: #c90d15; stroke-width: 4.032; stroke-linejoin: miter"/>
   </g>
   <g id="patch_9">
    <path d="M 357.12 103.968 
C 359.793247 103.968 362.357365 102.905908 364.247636 101.015636 
C 366.137908 99.125365 367.2 96.561247 367.2 93.888 
C 367.2 91.214753 366.137908 88.650635 364.247636 86.760364 
C 362.357365 84.870092 359.793247 83.808 357.12 83.808 
C 354.446753 83.808 351.882635 84.870092 349.992364 86.760364 
C 348.102092 88.650635 347.04 91.214753 347.04 93.888 
C 347.04 96.561247 348.102092 99.125365 349.992364 101.015636 
C 351.882635 102.905908 354.446753 103.968 357.12 103.968 
L 357.12 103.968 
z
" clip-path="url(#pf2d30a7a93)" style="fill: none; stroke: #c90d15; stroke-width: 4.032; stroke-linejoin: miter"/>
   </g>
   <g id="patch_10">
    <path d="M 115.2 144.288 
C 117.873247 144.288 120.437365 143.225908 122.327636 141.335636 
C 124.217908 139.445365 125.28 136.881247 125.28 134.208 
C 125.28 131.534753 124.217908 128.970635 122.327636 127.080364 
C 120.437365 125.190092 117.873247 124.128 115.2 124.128 
C 112.526753 124.128 109.962635 125.190092 108.072364 127.080364 
C 106.182092 128.970635 105.12 131.534753 105.12 134.208 
C 105.12 136.881247 106.182092 139.445365 108.072364 141.335636 
C 109.962635 143.225908 112.526753 144.288 115.2 144.288 
L 115.2 144.288 
z
" clip-path="url(#pf2d30a7a93)" style="fill: none; stroke: #c90d15; stroke-width: 4.032; stroke-linejoin: miter"/>
   </g>
   <g id="patch_11">
    <path d="M 155.52 144.288 
C 158.193247 144.288 160.757365 143.225908 162.647636 141.335636 
C 164.537908 139.445365 165.6 136.881247 165.6 134.208 
C 165.6 131.534753 164.537908 128.970635 162.647636 127.080364 
C 160.757365 125.190092 158.193247 124.128 155.52 124.128 
C 152.846753 124.128 150.282635 125.190092 148.392364 127.080364 
C 146.502092 128.970635 145.44 131.534753 145.44 134.208 
C 145.44 136.881247 146.502092 139.445365 148.392364 141.335636 
C 150.282635 143.225908 152.846753 144.288 155.52 144.288 
L 155.52 144.288 
z
" clip-path="url(#pf2d30a7a93)" style="fill: none; stroke: #c90d15; stroke-width: 4.032; stroke-linejoin: miter"/>
   </g>
   <g id="patch_12">
    <path d="M 195.84 144.288 
C 198.513247 144.288 201.077365 143.225908 202.967636 141.335636 
C 204.857908 139.445365 205.92 136.881247 205.92 134.208 
C 205.92 131.534753 204.857908 128.970635 202.967636 127.080364 
C 201.077365 125.190092 198.513247 124.128 195.84 124.128 
C 193.166753 124.128 190.602635 125.190092 188.712364 127.080364 
C 186.822092 128.970635 185.76 131.534753 185.76 134.208 
C 185.76 136.881247 186.822092 139.445365 188.712364 141.335636 
C 190.602635 143.225908 193.166753 144.288 195.84 144.288 
L 195.84 144.288 
z
" clip-path="url(#pf2d30a7a93)" style="fill: none; stroke: #c90d15; stroke-width: 4.032; stroke-linejoin: miter"/>
   </g>
   <g id="patch_13">
    <path d="M 236.16 144.288 
C 238.833247 144.288 241.397365 143.225908 243.287636 141.335636 
C 245.177908 139.445365 246.24 136.881247 246.24 134.208 
C 246.24 131.534753 245.177908 128.970635 243.287636 127.080364 
C 241.397365 125.190092 238.833247 124.128 236.16 124.128 
C 233.486753 124.128 230.922635 125.190092 229.032364 127.080364 
C 227.142092 128.970635 226.08 131.534753 226.08 134.208 
C 226.08 136.881247 227.142092 139.445365 229.032364 141.335636 
C 230.922635 143.225908 233.486753 144.288 236.16 144.288 
L 236.16 144.288 
z
" clip-path="url(#pf2d30a7a93)" style="fill: none; stroke: #c90d15; stroke-width: 4.032; stroke-linejoin: miter"/>
   </g>
   <g id="patch_14">
    <path d="M 276.48 144.288 
C 279.153247 144.288 281.717365 143.225908 283.607636 141.335636 
C 285.497908 139.445365 286.56 136.881247 286.56 134.208 
C 286.56 131.534753 285.497908 128.970635 283.607636 127.080364 
C 281.717365 125.190092 279.153247 124.128 276.48 124.128 
C 273.806753 124.128 271.242635 125.190092 269.352364 127.080364 
C 267.462092 128.970635 266.4 131.534753 266.4 134.208 
C 266.4 136.881247 267.462092 139.445365 269.352364 141.335636 
C 271.242635 143.225908 273.806753 144.288 276.48 144.288 
L 276.48 144.288 
z
" clip-path="url(#pf2d30a7a93)" style="fill: none; stroke: #c90d15; stroke-width: 4.032; stroke-linejoin: miter"/>
   </g>
   <g id="patch_15">
    <path d="M 316.8 144.288 
C 319.473247 144.288 322.037365 143.225908 323.927636 141.335636 
C 325.817908 139.445365 326.88 136.881247 326.88 134.208 
C 326.88 131.534753 325.817908 128.970635 323.927636 127.080364 
C 322.037365 125.190092 319.473247 124.128 316.8 124.128 
C 314.126753 124.128 311.562635 125.190092 309.672364 127.080364 
C 307.782092 128.970635 306.72 131.534753 306.72 134.208 
C 306.72 136.881247 307.782092 139.445365 309.672364 141.335636 
C 311.562635 143.225908 314.126753 144.288 316.8 144.288 
L 316.8 144.288 
z
" clip-path="url(#pf2d30a7a93)" style="fill: none; stroke: #c90d15; stroke-width: 4.032; stroke-linejoin: miter"/>
   </g>
   <g id="patch_16">
    <path d="M 357.12 144.288 
C 359.793247 144.288 362.357365 143.225908 364.247636 141.335636 
C 366.137908 139.445365 367.2 136.881247 367.2 134.208 
C 367.2 131.534753 366.137908 128.970635 364.247636 127.080364 
C 362.357365 125.190092 359.793247 124.128 357.12 124.128 
C 354.446753 124.128 351.882635 125.190092 349.992364 127.080364 
C 348.102092 128.970635 347.04 131.534753 347.04 134.208 
C 347.04 136.881247 348.102092 139.445365 349.992364 141.335636 
C 351.882635 143.225908 354.446753 144.288 357.12 144.288 
L 357.12 144.288 
z
" clip-path="url(#pf2d30a7a93)" style="fill: none; stroke: #c90d15; stroke-width: 4.032; stroke-linejoin: miter"/>
   </g>
   <g id="patch_17">
    <path d="M 115.2 184.608 
C 117.873247 184.608 120.437365 183.545908 122.327636 181.655636 
C 124.217908 179.765365 125.28 177.201247 125.28 174.528 
C 125.28 171.854753 124.217908 169.290635 122.327636 167.400364 
C 120.437365 165.510092 117.873247 164.448 115.2 164.448 
C 112.526753 164.448 109.962635 165.510092 108.072364 167.400364 
C 106.182092 169.290635 105.12 171.854753 105.12 174.528 
C 105.12 177.201247 106.182092 179.765365 108.072364 181.655636 
C 109.962635 183.545908 112.526753 184.608 115.2 184.608 
L 115.2 184.608 
z
" clip-path="url(#pf2d30a7a93)" style="fill: none; stroke: #c90d15; stroke-width: 4.032; stroke-linejoin: miter"/>
   </g>
   <g id="patch_18">
    <path d="M 155.52 184.608 
C 158.193247 184.608 160.757365 183.545908 162.647636 181.655636 
C 164.537908 179.765365 165.6 177.201247 165.6 174.528 
C 165.6 171.854753 164.537908 169.290635 162.647636 167.400364 
C 160.757365 165.510092 158.193247 164.448 155.52 164.448 
C 152.846753 164.448 150.282635 165.510092 148.392364 167.400364 
C 146.502092 169.290635 145.44 171.854753 145.44 174.528 
C 145.44 177.201247 146.502092 179.765365 148.392364 181.655636 
C 150.282635 183.545908 152.846753 184.608 155.52 184.608 
L 155.52 184.608 
z
" clip-path="url(#pf2d30a7a93)" style="fill: none; stroke: #c90d15; stroke-width: 4.032; stroke-linejoin: miter"/>
   </g>
   <g id="patch_19">
    <path d="M 195.84 184.608 
C 198.513247 184.608 201.077365 183.545908 202.967636 181.655636 
C 204.857908 179.765365 205.92 177.201247 205.92 174.528 
C 205.92 171.854753 204.857908 169.290635 202.967636 167.400364 
C 201.077365 165.510092 198.513247 164.448 195.84 164.448 
C 193.166753 164.448 190.602635 165.510092 188.712364 167.400364 
C 186.822092 169.290635 185.76 171.854753 185.76 174.528 
C 185.76 177.201247 186.822092 179.765365 188.712364 181.655636 
C 190.602635 183.545908 193.166753 184.608 195.84 184.608 
L 195.84 184.608 
z
" clip-path="url(#pf2d30a7a93)" style="fill: none; stroke: #c90d15; stroke-width: 4.032; stroke-linejoin: miter"/>
   </g>
   <g id="patch_20">
    <path d="M 236.16 184.608 
C 238.833247 184.608 241.397365 183.545908 243.287636 181.655636 
C 245.177908 179.765365 246.24 177.201247 246.24 174.528 
C 246.24 171.854753 245.177908 169.290635 243.287636 167.400364 
C 241.397365 165.510092 238.833247 164.448 236.16 164.448 
C 233.486753 164.448 230.922635 165.510092 229.032364 167.400364 
C 227.142092 169.290635 226.08 171.854753 226.08 174.528 
C 226.08 177.201247 227.142092 179.765365 229.032364 181.655636 
C 230.922635 183.545908 233.486753 184.608 236.16 184.608 
L 236.16 184.608 
z
" clip-path="url(#pf2d30a7a93)" style="fill: none; stroke: #c90d15; stroke-width: 4.032; stroke-linejoin: miter"/>
   </g>
   <g id="patch_21">
    <path d="M 276.48 184.608 
C 279.153247 184.608 281.717365 183.545908 283.607636 181.655636 
C 285.497908 179.765365 286.56 177.201247 286.56 174.528 
C 286.56 171.854753 285.497908 169.290635 283.607636 167.400364 
C 281.717365 165.510092 279.153247 164.448 276.48 164.448 
C 273.806753 164.448 271.242635 165.510092 269.352364 167.400364 
C 267.462092 169.290635 266.4 171.854753 266.4 174.528 
C 266.4 177.201247 267.462092 179.765365 269.352364 181.655636 
C 271.242635 183.545908 273.806753 184.608 276.48 184.608 
L 276.48 184.608 
z
" clip-path="url(#pf2d30a7a93)" style="fill: none; stroke: #c90d15; stroke-width: 4.032; stroke-linejoin: miter"/>
   </g>
   <g id="patch_22">
    <path d="M 316.8 184.608 
C 319.473247 184.608 322.037365 183.545908 323.927636 181.655636 
C 325.817908 179.765365 326.88 177.201247 326.88 174.528 
C 326.88 171.854753 325.817908 169.290635 323.927636 167.400364 
C 322.037365 165.510092 319.473247 164.448 316.8 164.448 
C 314.126753 164.448 311.562635 165.510092 309.672364 167.400364 
C 307.782092 169.290635 306.72 171.854753 306.72 174.528 
C 306.72 177.201247 307.782092 179.765365 309.672364 181.655636 
C 311.562635 183.545908 314.126753 184.608 316.8 184.608 
L 316.8 184.608 
z
" clip-path="url(#pf2d30a7a93)" style="fill: none; stroke: #c90d15; stroke-width: 4.032; stroke-linejoin: miter"/>
   </g>
   <g id="patch_23">
    <path d="M 357.12 184.608 
C 359.793247 184.608 362.357365 183.545908 364.247636 181.655636 
C 366.137908 179.765365 367.2 177.201247 367.2 174.528 
C 367.2 171.854753 366.137908 169.290635 364.247636 167.400364 
C 362.357365 165.510092 359.793247 164.448 357.12 164.448 
C 354.446753 164.448 351.882635 165.510092 349.992364 167.400364 
C 348.102092 169.290635 347.04 171.854753 347.04 174.528 
C 347.04 177.201247 348.102092 179.765365 349.992364 181.655636 
C 351.882635 183.545908 354.446753 184.608 357.12 184.608 
L 357.12 184.608 
z
" clip-path="url(#pf2d30a7a93)" style="fill: none; stroke: #c90d15; stroke-width: 4.032; stroke-linejoin: miter"/>
   </g>
   <g id="patch_24">
    <path d="M 115.2 224.928 
C 117.873247 224.928 120.437365 223.865908 122.327636 221.975636 
C 124.217908 220.085365 125.28 217.521247 125.28 214.848 
C 125.28 212.174753 124.217908 209.610635 122.327636 207.720364 
C 120.437365 205.830092 117.873247 204.768 115.2 204.768 
C 112.526753 204.768 109.962635 205.830092 108.072364 207.720364 
C 106.182092 209.610635 105.12 212.174753 105.12 214.848 
C 105.12 217.521247 106.182092 220.085365 108.072364 221.975636 
C 109.962635 223.865908 112.526753 224.928 115.2 224.928 
L 115.2 224.928 
z
" clip-path="url(#pf2d30a7a93)" style="fill: none; stroke: #c90d15; stroke-width: 4.032; stroke-linejoin: miter"/>
   </g>
   <g id="patch_25">
    <path d="M 155.52 224.928 
C 158.193247 224.928 160.757365 223.865908 162.647636 221.975636 
C 164.537908 220.085365 165.6 217.521247 165.6 214.848 
C 165.6 212.174753 164.537908 209.610635 162.647636 207.720364 
C 160.757365 205.830092 158.193247 204.768 155.52 204.768 
C 152.846753 204.768 150.282635 205.830092 148.392364 207.720364 
C 146.502092 209.610635 145.44 212.174753 145.44 214.848 
C 145.44 217.521247 146.502092 220.085365 148.392364 221.975636 
C 150.282635 223.865908 152.846753 224.928 155.52 224.928 
L 155.52 224.928 
z
" clip-path="url(#pf2d30a7a93)" style="fill: none; stroke: #c90d15; stroke-width: 4.032; stroke-linejoin: miter"/>
   </g>
   <g id="patch_26">
    <path d="M 195.84 224.928 
C 198.513247 224.928 201.077365 223.865908 202.967636 221.975636 
C 204.857908 220.085365 205.92 217.521247 205.92 214.848 
C 205.92 212.174753 204.857908 209.610635 202.967636 207.720364 
C 201.077365 205.830092 198.513247 204.768 195.84 204.768 
C 193.166753 204.768 190.602635 205.830092 188.712364 207.720364 
C 186.822092 209.610635 185.76 212.174753 185.76 214.848 
C 185.76 217.521247 186.822092 220.085365 188.712364 221.975636 
C 190.602635 223.865908 193.166753 224.928 195.84 224.928 
L 195.84 224.928 
z
" clip-path="url(#pf2d30a7a93)" style="fill: none; stroke: #c90d15; stroke-width: 4.032; stroke-linejoin: miter"/>
   </g>
   <g id="patch_27">
    <path d="M 236.16 224.928 
C 238.833247 224.928 241.397365 223.865908 243.287636 221.975636 
C 245.177908 220.085365 246.24 217.521247 246.24 214.848 
C 246.24 212.174753 245.177908 209.610635 243.287636 207.720364 
C 241.397365 205.830092 238.833247 204.768 236.16 204.768 
C 233.486753 204.768 230.922635 205.830092 229.032364 207.720364 
C 227.142092 209.610635 226.08 212.174753 226.08 214.848 
C 226.08 217.521247 227.142092 220.085365 229.032364 221.975636 
C 230.922635 223.865908 233.486753 224.928 236.16 224.928 
L 236.16 224.928 
z
" clip-path="url(#pf2d30a7a93)" style="fill: none; stroke: #c90d15; stroke-width: 4.032; stroke-linejoin: miter"/>
   </g>
   <g id="patch_28">
    <path d="M 276.48 224.928 
C 279.153247 224.928 281.717365 223.865908 283.607636 221.975636 
C 285.497908 220.085365 286.56 217.521247 286.56 214.848 
C 286.56 212.174753 285.497908 209.610635 283.607636 207.720364 
C 281.717365 205.830092 279.153247 204.768 276.48 204.768 
C 273.806753 204.768 271.242635 205.830092 269.352364 207.720364 
C 267.462092 209.610635 266.4 212.174753 266.4 214.848 
C 266.4 217.521247 267.462092 220.085365 269.352364 221.975636 
C 271.242635 223.865908 273.806753 224.928 276.48 224.928 
L 276.48 224.928 
z
" clip-path="url(#pf2d30a7a93)" style="fill: none; stroke: #c90d15; stroke-width: 4.032; stroke-linejoin: miter"/>
   </g>
   <g id="patch_29">
    <path d="M 316.8 224.928 
C 319.473247 224.928 322.037365 223.865908 323.927636 221.975636 
C 325.817908 220.085365 326.88 217.521247 326.88 214.848 
C 326.88 212.174753 325.817908 209.610635 323.927636 207.720364 
C 322.037365 205.830092 319.473247 204.768 316.8 204.768 
C 314.126753 204.768 311.562635 205.830092 309.672364 207.720364 
C 307.782092 209.610635 306.72 212.174753 306.72 214.848 
C 306.72 217.521247 307.782092 220.085365 309.672364 221.975636 
C 311.562635 223.865908 314.126753 224.928 316.8 224.928 
L 316.8 224.928 
z
" clip-path="url(#pf2d30a7a93)" style="fill: none; stroke: #c90d15; stroke-width: 4.032; stroke-linejoin: miter"/>
   </g>
   <g id="patch_30">
    <path d="M 357.12 224.928 
C 359.793247 224.928 362.357365 223.865908 364.247636 221.975636 
C 366.137908 220.085365 367.2 217.521247 367.2 214.848 
C 367.2 212.174753 366.137908 209.610635 364.247636 207.720364 
C 362.357365 205.830092 359.793247 204.768 357.12 204.768 
C 354.446753 204.768 351.882635 205.830092 349.992364 207.720364 
C 348.102092 209.610635 347.04 212.174753 347.04 214.848 
C 347.04 217.521247 348.102092 220.085365 349.992364 221.975636 
C 351.882635 223.865908 354.446753 224.928 357.12 224.928 
L 357.12 224.928 
z
" clip-path="url(#pf2d30a7a93)" style="fill: none; stroke: #c90d15; stroke-width: 4.032; stroke-linejoin: miter"/>
   </g>
   <g id="patch_31">
    <path d="M 115.2 265.248 
C 117.873247 265.248 120.437365 264.185908 122.327636 262.295636 
C 124.217908 260.405365 125.28 257.841247 125.28 255.168 
C 125.28 252.494753 124.217908 249.930635 122.327636 248.040364 
C 120.437365 246.150092 117.873247 245.088 115.2 245.088 
C 112.526753 245.088 109.962635 246.150092 108.072364 248.040364 
C 106.182092 249.930635 105.12 252.494753 105.12 255.168 
C 105.12 257.841247 106.182092 260.405365 108.072364 262.295636 
C 109.962635 264.185908 112.526753 265.248 115.2 265.248 
L 115.2 265.248 
z
" clip-path="url(#pf2d30a7a93)" style="fill: none; stroke: #c90d15; stroke-width: 4.032; stroke-linejoin: miter"/>
   </g>
   <g id="patch_32">
    <path d="M 155.52 265.248 
C 158.193247 265.248 160.757365 264.185908 162.647636 262.295636 
C 164.537908 260.405365 165.6 257.841247 165.6 255.168 
C 165.6 252.494753 164.537908 249.930635 162.647636 248.040364 
C 160.757365 246.150092 158.193247 245.088 155.52 245.088 
C 152.846753 245.088 150.282635 246.150092 148.392364 248.040364 
C 146.502092 249.930635 145.44 252.494753 145.44 255.168 
C 145.44 257.841247 146.502092 260.405365 148.392364 262.295636 
C 150.282635 264.185908 152.846753 265.248 155.52 265.248 
L 155.52 265.248 
z
" clip-path="url(#pf2d30a7a93)" style="fill: none; stroke: #c90d15; stroke-width: 4.032; stroke-linejoin: miter"/>
   </g>
   <g id="patch_33">
    <path d="M 195.84 265.248 
C 198.513247 265.248 201.077365 264.185908 202.967636 262.295636 
C 204.857908 260.405365 205.92 257.841247 205.92 255.168 
C 205.92 252.494753 204.857908 249.930635 202.967636 248.040364 
C 201.077365 246.150092 198.513247 245.088 195.84 245.088 
C 193.166753 245.088 190.602635 246.150092 188.712364 248.040364 
C 186.822092 249.930635 185.76 252.494753 185.76 255.168 
C 185.76 257.841247 186.822092 260.405365 188.712364 262.295636 
C 190.602635 264.185908 193.166753 265.248 195.84 265.248 
L 195.84 265.248 
z
" clip-path="url(#pf2d30a7a93)" style="fill: none; stroke: #c90d15; stroke-width: 4.032; stroke-linejoin: miter"/>
   </g>
   <g id="patch_34">
    <path d="M 236.16 265.248 
C 238.833247 265.248 241.397365 264.185908 243.287636 262.295636 
C 245.177908 260.405365 246.24 257.841247 246.24 255.168 
C 246.24 252.494753 245.177908 249.930635 243.287636 248.040364 
C 241.397365 246.150092 238.833247 245.088 236.16 245.088 
C 233.486753 245.088 230.922635 246.150092 229.032364 248.040364 
C 227.142092 249.930635 226.08 252.494753 226.08 255.168 
C 226.08 257.841247 227.142092 260.405365 229.032364 262.295636 
C 230.922635 264.185908 233.486753 265.248 236.16 265.248 
L 236.16 265.248 
z
" clip-path="url(#pf2d30a7a93)" style="fill: none; stroke: #c90d15; stroke-width: 4.032; stroke-linejoin: miter"/>
   </g>
   <g id="patch_35">
    <path d="M 276.48 265.248 
C 279.153247 265.248 281.717365 264.185908 283.607636 262.295636 
C 285.497908 260.405365 286.56 257.841247 286.56 255.168 
C 286.56 252.494753 285.497908 249.930635 283.607636 248.040364 
C 281.717365 246.150092 279.153247 245.088 276.48 245.088 
C 273.806753 245.088 271.242635 246.150092 269.352364 248.040364 
C 267.462092 249.930635 266.4 252.494753 266.4 255.168 
C 266.4 257.841247 267.462092 260.405365 269.352364 262.295636 
C 271.242635 264.185908 273.806753 265.248 276.48 265.248 
L 276.48 265.248 
z
" clip-path="url(#pf2d30a7a93)" style="fill: none; stroke: #c90d15; stroke-width: 4.032; stroke-linejoin: miter"/>
   </g>
   <g id="patch_36">
    <path d="M 316.8 265.248 
C 319.473247 265.248 322.037365 264.185908 323.927636 262.295636 
C 325.817908 260.405365 326.88 257.841247 326.88 255.168 
C 326.88 252.494753 325.817908 249.930635 323.927636 248.040364 
C 322.037365 246.150092 319.473247 245.088 316.8 245.088 
C 314.126753 245.088 311.562635 246.150092 309.672364 248.040364 
C 307.782092 249.930635 306.72 252.494753 306.72 255.168 
C 306.72 257.841247 307.782092 260.405365 309.672364 262.295636 
C 311.562635 264.185908 314.126753 265.248 316.8 265.248 
L 316.8 265.248 
z
" clip-path="url(#pf2d30a7a93)" style="fill: none; stroke: #c90d15; stroke-width: 4.032; stroke-linejoin: miter"/>
   </g>
   <g id="patch_37">
    <path d="M 357.12 265.248 
C 359.793247 265.248 362.357365 264.185908 364.247636 262.295636 
C 366.137908 260.405365 367.2 257.841247 367.2 255.168 
C 367.2 252.494753 366.137908 249.930635 364.247636 248.040364 
C 362.357365 246.150092 359.793247 245.088 357.12 245.088 
C 354.446753 245.088 351.882635 246.150092 349.992364 248.040364 
C 348.102092 249.930635 347.04 252.494753 347.04 255.168 
C 347.04 257.841247 348.102092 260.405365 349.992364 262.295636 
C 351.882635 264.185908 354.446753 265.248 357.12 265.248 
L 357.12 265.248 
z
" clip-path="url(#pf2d30a7a93)" style="fill: none; stroke: #c90d15; stroke-width: 4.032; stroke-linejoin: miter"/>
   </g>
   <g id="line2d_1">
    <path d="M 74.88 53.568 
L 74.88 295.488 
" clip-path="url(#pf2d30a7a93)" style="fill: none; stroke: #c90d15; stroke-width: 4.032; stroke-linecap: square"/>
   </g>
   <g id="line2d_2">
    <path d="M 74.88 295.488 
L 397.44 295.488 
" clip-path="url(#pf2d30a7a93)" style="fill: none; stroke: #c90d15; stroke-width: 4.032; stroke-linecap: square"/>
   </g>
   <g id="line2d_3">
    <path d="M 397.44 295.488 
L 397.44 53.568 
" clip-path="url(#pf2d30a7a93)" style="fill: none; stroke: #c90d15; stroke-width: 4.032; stroke-linecap: square"/>
   </g>
   <g id="line2d_4">
    <path d="M 397.44 53.568 
L 74.88 53.568 
" clip-path="url(#pf2d30a7a93)" style="fill: none; stroke: #c90d15; stroke-width: 4.032; stroke-linecap: square"/>
   </g>
   <g id="matplotlib.axis_1">
    <g id="xtick_1">
     <g id="line2d_5">
      <defs>
       <path id="mafc16441bb" d="M 0 0 
L 0 3.5 
" style="stroke: #ffffff; stroke-width: 0.8"/>
      </defs>
      <g>
       <use xlink:href="#mafc16441bb" x="77.419843" y="307.584" style="fill: #ffffff; stroke: #ffffff; stroke-width: 0.8"/>
      </g>
     </g>
     <g id="text_3">
      <text style="fill: #ffffff; font: 10px 'sans-serif'; text-anchor: middle" x="77.419843" y="322.182437" transform="rotate(-0, 77.419843, 322.182437)">−10.0</text>
     </g>
    </g>
    <g id="xtick_2">
     <g id="line2d_6">
      <g>
       <use xlink:href="#mafc16441bb" x="117.104882" y="307.584" style="fill: #ffffff; stroke: #ffffff; stroke-width: 0.8"/>
      </g>
     </g>
     <g id="text_4">
      <text style="fill: #ffffff; font: 10px 'sans-serif'; text-anchor: middle" x="117.104882" y="322.182437" transform="rotate(-0, 117.104882, 322.182437)">−7.5</text>
     </g>
    </g>
    <g id="xtick_3">
     <g id="line2d_7">
      <g>
       <use xlink:href="#mafc16441bb" x="156.789921" y="307.584" style="fill: #ffffff; stroke: #ffffff; stroke-width: 0.8"/>
      </g>
     </g>
     <g id="text_5">
      <text style="fill: #ffffff; font: 10px 'sans-serif'; text-anchor: middle" x="156.789921" y="322.182437" transform="rotate(-0, 156.789921, 322.182437)">−5.0</text>
     </g>
    </g>
    <g id="xtick_4">
     <g id="line2d_8">
      <g>
       <use xlink:href="#mafc16441bb" x="196.474961" y="307.584" style="fill: #ffffff; stroke: #ffffff; stroke-width: 0.8"/>
      </g>
     </g>
     <g id="text_6">
      <text style="fill: #ffffff; font: 10px 'sans-serif'; text-anchor: middle" x="196.474961" y="322.182437" transform="rotate(-0, 196.474961, 322.182437)">−2.5</text>
     </g>
    </g>
    <g id="xtick_5">
     <g id="line2d_9">
      <g>
       <use xlink:href="#mafc16441bb" x="236.16" y="307.584" style="fill: #ffffff; stroke: #ffffff; stroke-width: 0.8"/>
      </g>
     </g>
     <g id="text_7">
      <text style="fill: #ffffff; font: 10px 'sans-serif'; text-anchor: middle" x="236.16" y="322.182437" transform="rotate(-0, 236.16, 322.182437)">0.0</text>
     </g>
    </g>
    <g id="xtick_6">
     <g id="line2d_10">
      <g>
       <use xlink:href="#mafc16441bb" x="275.845039" y="307.584" style="fill: #ffffff; stroke: #ffffff; stroke-width: 0.8"/>
      </g>
     </g>
     <g id="text_8">
      <text style="fill: #ffffff; font: 10px 'sans-serif'; text-anchor: middle" x="275.845039" y="322.182437" transform="rotate(-0, 275.845039, 322.182437)">2.5</text>
     </g>
    </g>
    <g id="xtick_7">
     <g id="line2d_11">
      <g>
       <use xlink:href="#mafc16441bb" x="315.530079" y="307.584" style="fill: #ffffff; stroke: #ffffff; stroke-width: 0.8"/>
      </g>
     </g>
     <g id="text_9">
      <text style="fill: #ffffff; font: 10px 'sans-serif'; text-anchor: middle" x="315.530079" y="322.182437" transform="rotate(-0, 315.530079, 322.182437)">5.0</text>
     </g>
    </g>
    <g id="xtick_8">
     <g id="line2d_12">
      <g>
       <use xlink:href="#mafc16441bb" x="355.215118" y="307.584" style="fill: #ffffff; stroke: #ffffff; stroke-width: 0.8"/>
      </g>
     </g>
     <g id="text_10">
      <text style="fill: #ffffff; font: 10px 'sans-serif'; text-anchor: middle" x="355.215118" y="322.182437" transform="rotate(-0, 355.215118, 322.182437)">7.5</text>
     </g>
    </g>
    <g id="xtick_9">
     <g id="line2d_13">
      <g>
       <use xlink:href="#mafc16441bb" x="394.900157" y="307.584" style="fill: #ffffff; stroke: #ffffff; stroke-width: 0.8"/>
      </g>
     </g>
     <g id="text_11">
      <text style="fill: #ffffff; font: 10px 'sans-serif'; text-anchor: middle" x="394.900157" y="322.182437" transform="rotate(-0, 394.900157, 322.182437)">10.0</text>
     </g>
    </g>
   </g>
   <g id="matplotlib.axis_2">
    <g id="ytick_1">
     <g id="line2d_14">
      <defs>
       <path id="mafc98f3a39" d="M 0 0 
L -3.5 0 
" style="stroke: #ffffff; stroke-width: 0.8"/>
      </defs>
      <g>
       <use xlink:href="#mafc98f3a39" x="58.752" y="301.520126" style="fill: #ffffff; stroke: #ffffff; stroke-width: 0.8"/>
      </g>
     </g>
     <g id="text_12">
      <text style="fill: #ffffff; font: 10px 'sans-serif'; text-anchor: end" x="51.752" y="305.319345" transform="rotate(-0, 51.752, 305.319345)">−8</text>
     </g>
    </g>
    <g id="ytick_2">
     <g id="line2d_15">
      <g>
       <use xlink:href="#mafc98f3a39" x="58.752" y="269.772094" style="fill: #ffffff; stroke: #ffffff; stroke-width: 0.8"/>
      </g>
     </g>
     <g id="text_13">
      <text style="fill: #ffffff; font: 10px 'sans-serif'; text-anchor: end" x="51.752" y="273.571313" transform="rotate(-0, 51.752, 273.571313)">−6</text>
     </g>
    </g>
    <g id="ytick_3">
     <g id="line2d_16">
      <g>
       <use xlink:href="#mafc98f3a39" x="58.752" y="238.024063" style="fill: #ffffff; stroke: #ffffff; stroke-width: 0.8"/>
      </g>
     </g>
     <g id="text_14">
      <text style="fill: #ffffff; font: 10px 'sans-serif'; text-anchor: end" x="51.752" y="241.823282" transform="rotate(-0, 51.752, 241.823282)">−4</text>
     </g>
    </g>
    <g id="ytick_4">
     <g id="line2d_17">
      <g>
       <use xlink:href="#mafc98f3a39" x="58.752" y="206.276031" style="fill: #ffffff; stroke: #ffffff; stroke-width: 0.8"/>
      </g>
     </g>
     <g id="text_15">
      <text style="fill: #ffffff; font: 10px 'sans-serif'; text-anchor: end" x="51.752" y="210.07525" transform="rotate(-0, 51.752, 210.07525)">−2</text>
     </g>
    </g>
    <g id="ytick_5">
     <g id="line2d_18">
      <g>
       <use xlink:href="#mafc98f3a39" x="58.752" y="174.528" style="fill: #ffffff; stroke: #ffffff; stroke-width: 0.8"/>
      </g>
     </g>
     <g id="text_16">
      <text style="fill: #ffffff; font: 10px 'sans-serif'; text-anchor: end" x="51.752" y="178.327219" transform="rotate(-0, 51.752, 178.327219)">0</text>
     </g>
    </g>
    <g id="ytick_6">
     <g id="line2d_19">
      <g>
       <use xlink:href="#mafc98f3a39" x="58.752" y="142.779969" style="fill: #ffffff; stroke: #ffffff; stroke-width: 0.8"/>
      </g>
     </g>
     <g id="text_17">
      <text style="fill: #ffffff; font: 10px 'sans-serif'; text-anchor: end" x="51.752" y="146.579187" transform="rotate(-0, 51.752, 146.579187)">2</text>
     </g>
    </g>
    <g id="ytick_7">
     <g id="line2d_20">
      <g>
       <use xlink:href="#mafc98f3a39" x="58.752" y="111.031937" style="fill: #ffffff; stroke: #ffffff; stroke-width: 0.8"/>
      </g>
     </g>
     <g id="text_18">
      <text style="fill: #ffffff; font: 10px 'sans-serif'; text-anchor: end" x="51.752" y="114.831156" transform="rotate(-0, 51.752, 114.831156)">4</text>
     </g>
    </g>
    <g id="ytick_8">
     <g id="line2d_21">
      <g>
       <use xlink:href="#mafc98f3a39" x="58.752" y="79.283906" style="fill: #ffffff; stroke: #ffffff; stroke-width: 0.8"/>
      </g>
     </g>
     <g id="text_19">
      <text style="fill: #ffffff; font: 10px 'sans-serif'; text-anchor: end" x="51.752" y="83.083124" transform="rotate(-0, 51.752, 83.083124)">6</text>
     </g>
    </g>
    <g id="ytick_9">
     <g id="line2d_22">
      <g>
       <use xlink:href="#mafc98f3a39" x="58.752" y="47.535874" style="fill: #ffffff; stroke: #ffffff; stroke-width: 0.8"/>
      </g>
     </g>
     <g id="text_20">
      <text style="fill: #ffffff; font: 10px 'sans-serif'; text-anchor: end" x="51.752" y="51.335093" transform="rotate(-0, 51.752, 51.335093)">8</text>
     </g>
    </g>
   </g>
   <g id="patch_38">
    <path d="M 58.752 307.584 
L 58.752 41.472 
" style="fill: none; stroke: #ffffff; stroke-width: 0.8; stroke-linejoin: miter; stroke-linecap: square"/>
   </g>
   <g id="patch_39">
    <path d="M 413.568 307.584 
L 413.568 41.472 
" style="fill: none; stroke: #ffffff; stroke-width: 0.8; stroke-linejoin: miter; stroke-linecap: square"/>
   </g>
   <g id="patch_40">
    <path d="M 58.752 307.584 
L 413.568 307.584 
" style="fill: none; stroke: #ffffff; stroke-width: 0.8; stroke-linejoin: miter; stroke-linecap: square"/>
   </g>
   <g id="patch_41">
    <path d="M 58.752 41.472 
L 413.568 41.472 
" style="fill: none; stroke: #ffffff; stroke-width: 0.8; stroke-linejoin: miter; stroke-linecap: square"/>
   </g>
   <g id="text_21">
    <text style="fill: #ffffff; font: 12px 'sans-serif'; text-anchor: middle" x="236.16" y="35.472" transform="rotate(-0, 236.16, 35.472)">PROTOBOARD</text>
   </g>
  </g>
 </g>
 <defs>
  <clipPath id="pf2d30a7a93">
   <rect x="58.752" y="41.472" width="354.816" height="266.112"/>
  </clipPath>
 </defs>
</svg>
