<?xml version="1.0" encoding="utf-8" standalone="no"?>
<!DOCTYPE svg PUBLIC "-//W3C//DTD SVG 1.1//EN"
  "http://www.w3.org/Graphics/SVG/1.1/DTD/svg11.dtd">
<svg xmlns:xlink="http://www.w3.org/1999/xlink" width="460.8pt" height="345.6pt" viewBox="0 0 460.8 345.6" xmlns="http://www.w3.org/2000/svg" version="1.1">
 <metadata>
  <rdf:RDF xmlns:dc="http://purl.org/dc/elements/1.1/" xmlns:cc="http://creativecommons.org/ns#" xmlns:rdf="http://www.w3.org/1999/02/22-rdf-syntax-ns#">
   <cc:Work>
    <dc:type rdf:resource="http://purl.org/dc/dcmitype/StillImage"/>
    <dc:date>2021-12-22T04:54:03.993707</dc:date>
    <dc:format>image/svg+xml</dc:format>
    <dc:creator>
     <cc:Agent>
      <dc:title>Matplotlib v3.5.1, https://matplotlib.org/</dc:title>
     </cc:Agent>
    </dc:creator>
   </cc:Work>
  </rdf:RDF>
 </metadata>
 <defs>
  <style type="text/css">*{stroke-linejoin: round; stroke-linecap: butt}</style>
 </defs>
 <g id="figure_1">
  <g id="patch_1">
   <path d="M 0 345.6 
L 460.8 345.6 
L 460.8 0 
L 0 0 
z
" style="fill: #2b2b2b"/>
  </g>
  <g id="axes_1">
   <g id="patch_2">
    <path d="M 124.649056 307.584 
L 347.670944 307.584 
L 347.670944 41.472 
L 124.649056 41.472 
z
" style="fill: #2b2b2b"/>
   </g>
   <g id="line2d_1">
    <path d="M 337.533585 282.002449 
L 337.533585 85.113401 
" clip-path="url(#pedae9e2e7a)" style="fill: none; stroke: #ffcd07; stroke-width: 1.370132; stroke-linecap: square"/>
   </g>
   <g id="line2d_2">
    <path d="M 148.735869 85.113401 
L 148.735869 279.305339 
" clip-path="url(#pedae9e2e7a)" style="fill: none; stroke: #ffcd07; stroke-width: 1.370132; stroke-linecap: square"/>
   </g>
   <g id="line2d_3">
    <path d="M 194.586743 53.568 
L 291.682711 53.568 
" clip-path="url(#pedae9e2e7a)" style="fill: none; stroke: #ffcd07; stroke-width: 1.370132; stroke-linecap: square"/>
   </g>
   <g id="line2d_4">
    <path d="M 291.682711 53.568 
L 291.682711 74.32496 
" clip-path="url(#pedae9e2e7a)" style="fill: none; stroke: #ffcd07; stroke-width: 1.370132; stroke-linecap: square"/>
   </g>
   <g id="line2d_5">
    <path d="M 194.586743 74.32496 
L 194.586743 53.568 
" clip-path="url(#pedae9e2e7a)" style="fill: none; stroke: #ffcd07; stroke-width: 1.370132; stroke-linecap: square"/>
   </g>
   <g id="patch_3">
    <path d="M 229.433407 94.87694 
C 230.863971 94.87694 232.236135 94.308571 233.247697 93.29701 
C 234.259258 92.285448 234.827628 90.913284 234.827628 89.48272 
C 234.827628 88.052156 234.259258 86.679992 233.247697 85.66843 
C 232.236135 84.656869 230.863971 84.088499 229.433407 84.088499 
C 228.002843 84.088499 226.630679 84.656869 225.619117 85.66843 
C 224.607556 86.679992 224.039187 88.052156 224.039187 89.48272 
C 224.039187 90.913284 224.607556 92.285448 225.619117 93.29701 
C 226.630679 94.308571 228.002843 94.87694 229.433407 94.87694 
L 229.433407 94.87694 
z
" clip-path="url(#pedae9e2e7a)" style="fill: none; stroke: #ffcd07; stroke-width: 1.370132; stroke-linejoin: miter"/>
   </g>
   <g id="patch_4">
    <path d="M 256.836047 94.87694 
C 258.266611 94.87694 259.638775 94.308571 260.650337 93.29701 
C 261.661898 92.285448 262.230268 90.913284 262.230268 89.48272 
C 262.230268 88.052156 261.661898 86.679992 260.650337 85.66843 
C 259.638775 84.656869 258.266611 84.088499 256.836047 84.088499 
C 255.405483 84.088499 254.033319 84.656869 253.021757 85.66843 
C 252.010196 86.679992 251.441827 88.052156 251.441827 89.48272 
C 251.441827 90.913284 252.010196 92.285448 253.021757 93.29701 
C 254.033319 94.308571 255.405483 94.87694 256.836047 94.87694 
L 256.836047 94.87694 
z
" clip-path="url(#pedae9e2e7a)" style="fill: none; stroke: #ffcd07; stroke-width: 1.370132; stroke-linejoin: miter"/>
   </g>
   <g id="patch_5">
    <path d="M 229.433407 122.27958 
C 230.863971 122.27958 232.236135 121.711211 233.247697 120.69965 
C 234.259258 119.688088 234.827628 118.315924 234.827628 116.88536 
C 234.827628 115.454796 234.259258 114.082632 233.247697 113.07107 
C 232.236135 112.059509 230.863971 111.491139 229.433407 111.491139 
C 228.002843 111.491139 226.630679 112.059509 225.619117 113.07107 
C 224.607556 114.082632 224.039187 115.454796 224.039187 116.88536 
C 224.039187 118.315924 224.607556 119.688088 225.619117 120.69965 
C 226.630679 121.711211 228.002843 122.27958 229.433407 122.27958 
L 229.433407 122.27958 
z
" clip-path="url(#pedae9e2e7a)" style="fill: none; stroke: #ffcd07; stroke-width: 1.370132; stroke-linejoin: miter"/>
   </g>
   <g id="patch_6">
    <path d="M 256.836047 122.27958 
C 258.266611 122.27958 259.638775 121.711211 260.650337 120.69965 
C 261.661898 119.688088 262.230268 118.315924 262.230268 116.88536 
C 262.230268 115.454796 261.661898 114.082632 260.650337 113.07107 
C 259.638775 112.059509 258.266611 111.491139 256.836047 111.491139 
C 255.405483 111.491139 254.033319 112.059509 253.021757 113.07107 
C 252.010196 114.082632 251.441827 115.454796 251.441827 116.88536 
C 251.441827 118.315924 252.010196 119.688088 253.021757 120.69965 
C 254.033319 121.711211 255.405483 122.27958 256.836047 122.27958 
L 256.836047 122.27958 
z
" clip-path="url(#pedae9e2e7a)" style="fill: none; stroke: #ffcd07; stroke-width: 1.370132; stroke-linejoin: miter"/>
   </g>
   <g id="text_1">
    <text style="fill: #ffffff; font: 1px 'sans-serif'; text-anchor: start" x="284.130803" y="316.03998" transform="rotate(-0, 284.130803, 316.03998)">&gt;VALUE</text>
   </g>
   <g id="patch_7">
    <path d="M 137.526679 102.299388 
C 138.253405 102.299388 138.950465 102.010656 139.464338 101.496783 
C 139.978211 100.98291 140.266943 100.28585 140.266943 99.559124 
C 140.266943 98.832397 139.978211 98.135338 139.464338 97.621465 
C 138.950465 97.107591 138.253405 96.81886 137.526679 96.81886 
C 136.799952 96.81886 136.102893 97.107591 135.589019 97.621465 
C 135.075146 98.135338 134.786415 98.832397 134.786415 99.559124 
C 134.786415 100.28585 135.075146 100.98291 135.589019 101.496783 
C 136.102893 102.010656 136.799952 102.299388 137.526679 102.299388 
L 137.526679 102.299388 
z
" clip-path="url(#pedae9e2e7a)" style="fill: none"/>
   </g>
   <g id="text_2">
    <text style="fill: #ffffff; font: 1px 'sans-serif'; text-anchor: start" x="160.926807" y="315.5545" transform="rotate(-0, 160.926807, 315.5545)">&gt;NAME</text>
   </g>
   <g id="line2d_6">
    <path d="M 148.735869 295.488 
L 337.533585 295.488 
" clip-path="url(#pedae9e2e7a)" style="fill: none; stroke: #808080; stroke-width: 1.370132; stroke-linecap: square"/>
   </g>
   <g id="line2d_7">
    <path d="M 337.533585 295.488 
L 337.533585 282.002449 
" clip-path="url(#pedae9e2e7a)" style="fill: none; stroke: #808080; stroke-width: 1.370132; stroke-linecap: square"/>
   </g>
   <g id="line2d_8">
    <path d="M 337.533585 85.113401 
L 337.533585 68.93074 
" clip-path="url(#pedae9e2e7a)" style="fill: none; stroke: #808080; stroke-width: 1.370132; stroke-linecap: square"/>
   </g>
   <g id="line2d_9">
    <path d="M 337.533585 68.93074 
L 159.52431 68.93074 
" clip-path="url(#pedae9e2e7a)" style="fill: none; stroke: #808080; stroke-width: 1.370132; stroke-linecap: square"/>
   </g>
   <g id="line2d_10">
    <path d="M 148.735869 79.719181 
L 148.735869 85.113401 
" clip-path="url(#pedae9e2e7a)" style="fill: none; stroke: #808080; stroke-width: 1.370132; stroke-linecap: square"/>
   </g>
   <g id="line2d_11">
    <path d="M 148.735869 279.305339 
L 148.735869 295.488 
" clip-path="url(#pedae9e2e7a)" style="fill: none; stroke: #808080; stroke-width: 1.370132; stroke-linecap: square"/>
   </g>
   <g id="line2d_12">
    <path d="M 291.682711 74.32496 
L 291.682711 132.884618 
" clip-path="url(#pedae9e2e7a)" style="fill: none; stroke: #808080; stroke-width: 1.370132; stroke-linecap: square"/>
   </g>
   <g id="line2d_13">
    <path d="M 291.682711 132.884618 
L 194.586743 132.884618 
" clip-path="url(#pedae9e2e7a)" style="fill: none; stroke: #808080; stroke-width: 1.370132; stroke-linecap: square"/>
   </g>
   <g id="line2d_14">
    <path d="M 194.586743 132.884618 
L 194.586743 74.32496 
" clip-path="url(#pedae9e2e7a)" style="fill: none; stroke: #808080; stroke-width: 1.370132; stroke-linecap: square"/>
   </g>
   <g id="line2d_15">
    <path d="M 148.735869 79.719181 
L 159.52431 68.93074 
" clip-path="url(#pedae9e2e7a)" style="fill: none; stroke: #808080; stroke-width: 1.370132; stroke-linecap: square"/>
   </g>
   <g id="patch_8">
    <path d="M 160.926807 110.789891 
C 163.787935 110.789891 166.532264 109.653153 168.555387 107.63003 
C 170.57851 105.606907 171.715248 102.862578 171.715248 100.00145 
C 171.715248 97.140322 170.57851 94.395993 168.555387 92.37287 
C 166.532264 90.349747 163.787935 89.213009 160.926807 89.213009 
C 158.065679 89.213009 155.32135 90.349747 153.298227 92.37287 
C 151.275104 94.395993 150.138366 97.140322 150.138366 100.00145 
C 150.138366 102.862578 151.275104 105.606907 153.298227 107.63003 
C 155.32135 109.653153 158.065679 110.789891 160.926807 110.789891 
z
" clip-path="url(#pedae9e2e7a)" style="fill: #0dab76"/>
   </g>
   <g id="patch_9">
    <path d="M 160.926807 105.39567 
C 162.357371 105.39567 163.729535 104.827301 164.741097 103.81574 
C 165.752658 102.804178 166.321027 101.432014 166.321027 100.00145 
C 166.321027 98.570886 165.752658 97.198721 164.741097 96.18716 
C 163.729535 95.175598 162.357371 94.607229 160.926807 94.607229 
C 159.496243 94.607229 158.124079 95.175598 157.112517 96.18716 
C 156.100956 97.198721 155.532587 98.570886 155.532587 100.00145 
C 155.532587 101.432014 156.100956 102.804178 157.112517 103.81574 
C 158.124079 104.827301 159.496243 105.39567 160.926807 105.39567 
z
" clip-path="url(#pedae9e2e7a)" style="fill: #a0a0a0"/>
   </g>
   <g id="patch_10">
    <path d="M 160.926807 138.192531 
C 163.787935 138.192531 166.532264 137.055793 168.555387 135.03267 
C 170.57851 133.009547 171.715248 130.265218 171.715248 127.40409 
C 171.715248 124.542962 170.57851 121.798633 168.555387 119.77551 
C 166.532264 117.752387 163.787935 116.615649 160.926807 116.615649 
C 158.065679 116.615649 155.32135 117.752387 153.298227 119.77551 
C 151.275104 121.798633 150.138366 124.542962 150.138366 127.40409 
C 150.138366 130.265218 151.275104 133.009547 153.298227 135.03267 
C 155.32135 137.055793 158.065679 138.192531 160.926807 138.192531 
z
" clip-path="url(#pedae9e2e7a)" style="fill: #0dab76"/>
   </g>
   <g id="patch_11">
    <path d="M 160.926807 132.79831 
C 162.357371 132.79831 163.729535 132.229941 164.741097 131.21838 
C 165.752658 130.206818 166.321027 128.834654 166.321027 127.40409 
C 166.321027 125.973526 165.752658 124.601362 164.741097 123.5898 
C 163.729535 122.578239 162.357371 122.009869 160.926807 122.009869 
C 159.496243 122.009869 158.124079 122.578239 157.112517 123.5898 
C 156.100956 124.601362 155.532587 125.973526 155.532587 127.40409 
C 155.532587 128.834654 156.100956 130.206818 157.112517 131.21838 
C 158.124079 132.229941 159.496243 132.79831 160.926807 132.79831 
z
" clip-path="url(#pedae9e2e7a)" style="fill: #a0a0a0"/>
   </g>
   <g id="patch_12">
    <path d="M 160.926807 165.595171 
C 163.787935 165.595171 166.532264 164.458433 168.555387 162.43531 
C 170.57851 160.412187 171.715248 157.667858 171.715248 154.80673 
C 171.715248 151.945602 170.57851 149.201273 168.555387 147.17815 
C 166.532264 145.155027 163.787935 144.018289 160.926807 144.018289 
C 158.065679 144.018289 155.32135 145.155027 153.298227 147.17815 
C 151.275104 149.201273 150.138366 151.945602 150.138366 154.80673 
C 150.138366 157.667858 151.275104 160.412187 153.298227 162.43531 
C 155.32135 164.458433 158.065679 165.595171 160.926807 165.595171 
z
" clip-path="url(#pedae9e2e7a)" style="fill: #0dab76"/>
   </g>
   <g id="patch_13">
    <path d="M 160.926807 160.20095 
C 162.357371 160.20095 163.729535 159.632581 164.741097 158.62102 
C 165.752658 157.609458 166.321027 156.237294 166.321027 154.80673 
C 166.321027 153.376166 165.752658 152.004002 164.741097 150.99244 
C 163.729535 149.980879 162.357371 149.412509 160.926807 149.412509 
C 159.496243 149.412509 158.124079 149.980879 157.112517 150.99244 
C 156.100956 152.004002 155.532587 153.376166 155.532587 154.80673 
C 155.532587 156.237294 156.100956 157.609458 157.112517 158.62102 
C 158.124079 159.632581 159.496243 160.20095 160.926807 160.20095 
z
" clip-path="url(#pedae9e2e7a)" style="fill: #a0a0a0"/>
   </g>
   <g id="patch_14">
    <path d="M 160.926807 192.997811 
C 163.787935 192.997811 166.532264 191.861073 168.555387 189.83795 
C 170.57851 187.814827 171.715248 185.070498 171.715248 182.20937 
C 171.715248 179.348242 170.57851 176.603913 168.555387 174.58079 
C 166.532264 172.557667 163.787935 171.420929 160.926807 171.420929 
C 158.065679 171.420929 155.32135 172.557667 153.298227 174.58079 
C 151.275104 176.603913 150.138366 179.348242 150.138366 182.20937 
C 150.138366 185.070498 151.275104 187.814827 153.298227 189.83795 
C 155.32135 191.861073 158.065679 192.997811 160.926807 192.997811 
z
" clip-path="url(#pedae9e2e7a)" style="fill: #0dab76"/>
   </g>
   <g id="patch_15">
    <path d="M 160.926807 187.60359 
C 162.357371 187.60359 163.729535 187.035221 164.741097 186.02366 
C 165.752658 185.012098 166.321027 183.639934 166.321027 182.20937 
C 166.321027 180.778806 165.752658 179.406642 164.741097 178.39508 
C 163.729535 177.383519 162.357371 176.815149 160.926807 176.815149 
C 159.496243 176.815149 158.124079 177.383519 157.112517 178.39508 
C 156.100956 179.406642 155.532587 180.778806 155.532587 182.20937 
C 155.532587 183.639934 156.100956 185.012098 157.112517 186.02366 
C 158.124079 187.035221 159.496243 187.60359 160.926807 187.60359 
z
" clip-path="url(#pedae9e2e7a)" style="fill: #a0a0a0"/>
   </g>
   <g id="patch_16">
    <path d="M 160.926807 220.400451 
C 163.787935 220.400451 166.532264 219.263713 168.555387 217.24059 
C 170.57851 215.217467 171.715248 212.473138 171.715248 209.61201 
C 171.715248 206.750882 170.57851 204.006553 168.555387 201.98343 
C 166.532264 199.960307 163.787935 198.823569 160.926807 198.823569 
C 158.065679 198.823569 155.32135 199.960307 153.298227 201.98343 
C 151.275104 204.006553 150.138366 206.750882 150.138366 209.61201 
C 150.138366 212.473138 151.275104 215.217467 153.298227 217.24059 
C 155.32135 219.263713 158.065679 220.400451 160.926807 220.400451 
z
" clip-path="url(#pedae9e2e7a)" style="fill: #0dab76"/>
   </g>
   <g id="patch_17">
    <path d="M 160.926807 215.00623 
C 162.357371 215.00623 163.729535 214.437861 164.741097 213.4263 
C 165.752658 212.414738 166.321027 211.042574 166.321027 209.61201 
C 166.321027 208.181446 165.752658 206.809282 164.741097 205.79772 
C 163.729535 204.786159 162.357371 204.21779 160.926807 204.21779 
C 159.496243 204.21779 158.124079 204.786159 157.112517 205.79772 
C 156.100956 206.809282 155.532587 208.181446 155.532587 209.61201 
C 155.532587 211.042574 156.100956 212.414738 157.112517 213.4263 
C 158.124079 214.437861 159.496243 215.00623 160.926807 215.00623 
z
" clip-path="url(#pedae9e2e7a)" style="fill: #a0a0a0"/>
   </g>
   <g id="patch_18">
    <path d="M 160.926807 247.803091 
C 163.787935 247.803091 166.532264 246.666353 168.555387 244.64323 
C 170.57851 242.620107 171.715248 239.875778 171.715248 237.01465 
C 171.715248 234.153522 170.57851 231.409193 168.555387 229.38607 
C 166.532264 227.362947 163.787935 226.226209 160.926807 226.226209 
C 158.065679 226.226209 155.32135 227.362947 153.298227 229.38607 
C 151.275104 231.409193 150.138366 234.153522 150.138366 237.01465 
C 150.138366 239.875778 151.275104 242.620107 153.298227 244.64323 
C 155.32135 246.666353 158.065679 247.803091 160.926807 247.803091 
z
" clip-path="url(#pedae9e2e7a)" style="fill: #0dab76"/>
   </g>
   <g id="patch_19">
    <path d="M 160.926807 242.40887 
C 162.357371 242.40887 163.729535 241.840501 164.741097 240.82894 
C 165.752658 239.817378 166.321027 238.445214 166.321027 237.01465 
C 166.321027 235.584086 165.752658 234.211922 164.741097 233.20036 
C 163.729535 232.188799 162.357371 231.62043 160.926807 231.62043 
C 159.496243 231.62043 158.124079 232.188799 157.112517 233.20036 
C 156.100956 234.211922 155.532587 235.584086 155.532587 237.01465 
C 155.532587 238.445214 156.100956 239.817378 157.112517 240.82894 
C 158.124079 241.840501 159.496243 242.40887 160.926807 242.40887 
z
" clip-path="url(#pedae9e2e7a)" style="fill: #a0a0a0"/>
   </g>
   <g id="patch_20">
    <path d="M 160.926807 275.205731 
C 163.787935 275.205731 166.532264 274.068993 168.555387 272.04587 
C 170.57851 270.022747 171.715248 267.278418 171.715248 264.41729 
C 171.715248 261.556162 170.57851 258.811833 168.555387 256.78871 
C 166.532264 254.765587 163.787935 253.628849 160.926807 253.628849 
C 158.065679 253.628849 155.32135 254.765587 153.298227 256.78871 
C 151.275104 258.811833 150.138366 261.556162 150.138366 264.41729 
C 150.138366 267.278418 151.275104 270.022747 153.298227 272.04587 
C 155.32135 274.068993 158.065679 275.205731 160.926807 275.205731 
z
" clip-path="url(#pedae9e2e7a)" style="fill: #0dab76"/>
   </g>
   <g id="patch_21">
    <path d="M 160.926807 269.811511 
C 162.357371 269.811511 163.729535 269.243141 164.741097 268.23158 
C 165.752658 267.220018 166.321027 265.847854 166.321027 264.41729 
C 166.321027 262.986726 165.752658 261.614562 164.741097 260.603 
C 163.729535 259.591439 162.357371 259.02307 160.926807 259.02307 
C 159.496243 259.02307 158.124079 259.591439 157.112517 260.603 
C 156.100956 261.614562 155.532587 262.986726 155.532587 264.41729 
C 155.532587 265.847854 156.100956 267.220018 157.112517 268.23158 
C 158.124079 269.243141 159.496243 269.811511 160.926807 269.811511 
z
" clip-path="url(#pedae9e2e7a)" style="fill: #a0a0a0"/>
   </g>
   <g id="patch_22">
    <path d="M 325.342647 275.205731 
C 328.203775 275.205731 330.948104 274.068993 332.971227 272.04587 
C 334.99435 270.022747 336.131088 267.278418 336.131088 264.41729 
C 336.131088 261.556162 334.99435 258.811833 332.971227 256.78871 
C 330.948104 254.765587 328.203775 253.628849 325.342647 253.628849 
C 322.481519 253.628849 319.73719 254.765587 317.714067 256.78871 
C 315.690944 258.811833 314.554206 261.556162 314.554206 264.41729 
C 314.554206 267.278418 315.690944 270.022747 317.714067 272.04587 
C 319.73719 274.068993 322.481519 275.205731 325.342647 275.205731 
z
" clip-path="url(#pedae9e2e7a)" style="fill: #0dab76"/>
   </g>
   <g id="patch_23">
    <path d="M 325.342647 269.811511 
C 326.773211 269.811511 328.145376 269.243141 329.156937 268.23158 
C 330.168499 267.220018 330.736868 265.847854 330.736868 264.41729 
C 330.736868 262.986726 330.168499 261.614562 329.156937 260.603 
C 328.145376 259.591439 326.773211 259.02307 325.342647 259.02307 
C 323.912083 259.02307 322.539919 259.591439 321.528357 260.603 
C 320.516796 261.614562 319.948427 262.986726 319.948427 264.41729 
C 319.948427 265.847854 320.516796 267.220018 321.528357 268.23158 
C 322.539919 269.243141 323.912083 269.811511 325.342647 269.811511 
z
" clip-path="url(#pedae9e2e7a)" style="fill: #a0a0a0"/>
   </g>
   <g id="patch_24">
    <path d="M 325.342647 247.803091 
C 328.203775 247.803091 330.948104 246.666353 332.971227 244.64323 
C 334.99435 242.620107 336.131088 239.875778 336.131088 237.01465 
C 336.131088 234.153522 334.99435 231.409193 332.971227 229.38607 
C 330.948104 227.362947 328.203775 226.226209 325.342647 226.226209 
C 322.481519 226.226209 319.73719 227.362947 317.714067 229.38607 
C 315.690944 231.409193 314.554206 234.153522 314.554206 237.01465 
C 314.554206 239.875778 315.690944 242.620107 317.714067 244.64323 
C 319.73719 246.666353 322.481519 247.803091 325.342647 247.803091 
z
" clip-path="url(#pedae9e2e7a)" style="fill: #0dab76"/>
   </g>
   <g id="patch_25">
    <path d="M 325.342647 242.40887 
C 326.773211 242.40887 328.145376 241.840501 329.156937 240.82894 
C 330.168499 239.817378 330.736868 238.445214 330.736868 237.01465 
C 330.736868 235.584086 330.168499 234.211922 329.156937 233.20036 
C 328.145376 232.188799 326.773211 231.62043 325.342647 231.62043 
C 323.912083 231.62043 322.539919 232.188799 321.528357 233.20036 
C 320.516796 234.211922 319.948427 235.584086 319.948427 237.01465 
C 319.948427 238.445214 320.516796 239.817378 321.528357 240.82894 
C 322.539919 241.840501 323.912083 242.40887 325.342647 242.40887 
z
" clip-path="url(#pedae9e2e7a)" style="fill: #a0a0a0"/>
   </g>
   <g id="patch_26">
    <path d="M 325.342647 220.400451 
C 328.203775 220.400451 330.948104 219.263713 332.971227 217.24059 
C 334.99435 215.217467 336.131088 212.473138 336.131088 209.61201 
C 336.131088 206.750882 334.99435 204.006553 332.971227 201.98343 
C 330.948104 199.960307 328.203775 198.823569 325.342647 198.823569 
C 322.481519 198.823569 319.73719 199.960307 317.714067 201.98343 
C 315.690944 204.006553 314.554206 206.750882 314.554206 209.61201 
C 314.554206 212.473138 315.690944 215.217467 317.714067 217.24059 
C 319.73719 219.263713 322.481519 220.400451 325.342647 220.400451 
z
" clip-path="url(#pedae9e2e7a)" style="fill: #0dab76"/>
   </g>
   <g id="patch_27">
    <path d="M 325.342647 215.00623 
C 326.773211 215.00623 328.145376 214.437861 329.156937 213.4263 
C 330.168499 212.414738 330.736868 211.042574 330.736868 209.61201 
C 330.736868 208.181446 330.168499 206.809282 329.156937 205.79772 
C 328.145376 204.786159 326.773211 204.21779 325.342647 204.21779 
C 323.912083 204.21779 322.539919 204.786159 321.528357 205.79772 
C 320.516796 206.809282 319.948427 208.181446 319.948427 209.61201 
C 319.948427 211.042574 320.516796 212.414738 321.528357 213.4263 
C 322.539919 214.437861 323.912083 215.00623 325.342647 215.00623 
z
" clip-path="url(#pedae9e2e7a)" style="fill: #a0a0a0"/>
   </g>
   <g id="patch_28">
    <path d="M 325.342647 192.997811 
C 328.203775 192.997811 330.948104 191.861073 332.971227 189.83795 
C 334.99435 187.814827 336.131088 185.070498 336.131088 182.20937 
C 336.131088 179.348242 334.99435 176.603913 332.971227 174.58079 
C 330.948104 172.557667 328.203775 171.420929 325.342647 171.420929 
C 322.481519 171.420929 319.73719 172.557667 317.714067 174.58079 
C 315.690944 176.603913 314.554206 179.348242 314.554206 182.20937 
C 314.554206 185.070498 315.690944 187.814827 317.714067 189.83795 
C 319.73719 191.861073 322.481519 192.997811 325.342647 192.997811 
z
" clip-path="url(#pedae9e2e7a)" style="fill: #0dab76"/>
   </g>
   <g id="patch_29">
    <path d="M 325.342647 187.60359 
C 326.773211 187.60359 328.145376 187.035221 329.156937 186.02366 
C 330.168499 185.012098 330.736868 183.639934 330.736868 182.20937 
C 330.736868 180.778806 330.168499 179.406642 329.156937 178.39508 
C 328.145376 177.383519 326.773211 176.815149 325.342647 176.815149 
C 323.912083 176.815149 322.539919 177.383519 321.528357 178.39508 
C 320.516796 179.406642 319.948427 180.778806 319.948427 182.20937 
C 319.948427 183.639934 320.516796 185.012098 321.528357 186.02366 
C 322.539919 187.035221 323.912083 187.60359 325.342647 187.60359 
z
" clip-path="url(#pedae9e2e7a)" style="fill: #a0a0a0"/>
   </g>
   <g id="patch_30">
    <path d="M 325.342647 165.595171 
C 328.203775 165.595171 330.948104 164.458433 332.971227 162.43531 
C 334.99435 160.412187 336.131088 157.667858 336.131088 154.80673 
C 336.131088 151.945602 334.99435 149.201273 332.971227 147.17815 
C 330.948104 145.155027 328.203775 144.018289 325.342647 144.018289 
C 322.481519 144.018289 319.73719 145.155027 317.714067 147.17815 
C 315.690944 149.201273 314.554206 151.945602 314.554206 154.80673 
C 314.554206 157.667858 315.690944 160.412187 317.714067 162.43531 
C 319.73719 164.458433 322.481519 165.595171 325.342647 165.595171 
z
" clip-path="url(#pedae9e2e7a)" style="fill: #0dab76"/>
   </g>
   <g id="patch_31">
    <path d="M 325.342647 160.20095 
C 326.773211 160.20095 328.145376 159.632581 329.156937 158.62102 
C 330.168499 157.609458 330.736868 156.237294 330.736868 154.80673 
C 330.736868 153.376166 330.168499 152.004002 329.156937 150.99244 
C 328.145376 149.980879 326.773211 149.412509 325.342647 149.412509 
C 323.912083 149.412509 322.539919 149.980879 321.528357 150.99244 
C 320.516796 152.004002 319.948427 153.376166 319.948427 154.80673 
C 319.948427 156.237294 320.516796 157.609458 321.528357 158.62102 
C 322.539919 159.632581 323.912083 160.20095 325.342647 160.20095 
z
" clip-path="url(#pedae9e2e7a)" style="fill: #a0a0a0"/>
   </g>
   <g id="patch_32">
    <path d="M 325.342647 138.192531 
C 328.203775 138.192531 330.948104 137.055793 332.971227 135.03267 
C 334.99435 133.009547 336.131088 130.265218 336.131088 127.40409 
C 336.131088 124.542962 334.99435 121.798633 332.971227 119.77551 
C 330.948104 117.752387 328.203775 116.615649 325.342647 116.615649 
C 322.481519 116.615649 319.73719 117.752387 317.714067 119.77551 
C 315.690944 121.798633 314.554206 124.542962 314.554206 127.40409 
C 314.554206 130.265218 315.690944 133.009547 317.714067 135.03267 
C 319.73719 137.055793 322.481519 138.192531 325.342647 138.192531 
z
" clip-path="url(#pedae9e2e7a)" style="fill: #0dab76"/>
   </g>
   <g id="patch_33">
    <path d="M 325.342647 132.79831 
C 326.773211 132.79831 328.145376 132.229941 329.156937 131.21838 
C 330.168499 130.206818 330.736868 128.834654 330.736868 127.40409 
C 330.736868 125.973526 330.168499 124.601362 329.156937 123.5898 
C 328.145376 122.578239 326.773211 122.009869 325.342647 122.009869 
C 323.912083 122.009869 322.539919 122.578239 321.528357 123.5898 
C 320.516796 124.601362 319.948427 125.973526 319.948427 127.40409 
C 319.948427 128.834654 320.516796 130.206818 321.528357 131.21838 
C 322.539919 132.229941 323.912083 132.79831 325.342647 132.79831 
z
" clip-path="url(#pedae9e2e7a)" style="fill: #a0a0a0"/>
   </g>
   <g id="patch_34">
    <path d="M 325.342647 110.789891 
C 328.203775 110.789891 330.948104 109.653153 332.971227 107.63003 
C 334.99435 105.606907 336.131088 102.862578 336.131088 100.00145 
C 336.131088 97.140322 334.99435 94.395993 332.971227 92.37287 
C 330.948104 90.349747 328.203775 89.213009 325.342647 89.213009 
C 322.481519 89.213009 319.73719 90.349747 317.714067 92.37287 
C 315.690944 94.395993 314.554206 97.140322 314.554206 100.00145 
C 314.554206 102.862578 315.690944 105.606907 317.714067 107.63003 
C 319.73719 109.653153 322.481519 110.789891 325.342647 110.789891 
z
" clip-path="url(#pedae9e2e7a)" style="fill: #0dab76"/>
   </g>
   <g id="patch_35">
    <path d="M 325.342647 105.39567 
C 326.773211 105.39567 328.145376 104.827301 329.156937 103.81574 
C 330.168499 102.804178 330.736868 101.432014 330.736868 100.00145 
C 330.736868 98.570886 330.168499 97.198721 329.156937 96.18716 
C 328.145376 95.175598 326.773211 94.607229 325.342647 94.607229 
C 323.912083 94.607229 322.539919 95.175598 321.528357 96.18716 
C 320.516796 97.198721 319.948427 98.570886 319.948427 100.00145 
C 319.948427 101.432014 320.516796 102.804178 321.528357 103.81574 
C 322.539919 104.827301 323.912083 105.39567 325.342647 105.39567 
z
" clip-path="url(#pedae9e2e7a)" style="fill: #a0a0a0"/>
   </g>
   <g id="matplotlib.axis_1">
    <g id="xtick_1">
     <g id="line2d_16">
      <defs>
       <path id="m197abf34ca" d="M 0 0 
L 0 3.5 
" style="stroke: #ffffff; stroke-width: 0.8"/>
      </defs>
      <g>
       <use xlink:href="#m197abf34ca" x="135.250318" y="307.584" style="fill: #ffffff; stroke: #ffffff; stroke-width: 0.8"/>
      </g>
     </g>
     <g id="text_3">
      <text style="fill: #ffffff; font: 10px 'sans-serif'; text-anchor: middle" x="135.250318" y="322.182437" transform="rotate(-0, 135.250318, 322.182437)">−10</text>
     </g>
    </g>
    <g id="xtick_2">
     <g id="line2d_17">
      <g>
       <use xlink:href="#m197abf34ca" x="189.192522" y="307.584" style="fill: #ffffff; stroke: #ffffff; stroke-width: 0.8"/>
      </g>
     </g>
     <g id="text_4">
      <text style="fill: #ffffff; font: 10px 'sans-serif'; text-anchor: middle" x="189.192522" y="322.182437" transform="rotate(-0, 189.192522, 322.182437)">−5</text>
     </g>
    </g>
    <g id="xtick_3">
     <g id="line2d_18">
      <g>
       <use xlink:href="#m197abf34ca" x="243.134727" y="307.584" style="fill: #ffffff; stroke: #ffffff; stroke-width: 0.8"/>
      </g>
     </g>
     <g id="text_5">
      <text style="fill: #ffffff; font: 10px 'sans-serif'; text-anchor: middle" x="243.134727" y="322.182437" transform="rotate(-0, 243.134727, 322.182437)">0</text>
     </g>
    </g>
    <g id="xtick_4">
     <g id="line2d_19">
      <g>
       <use xlink:href="#m197abf34ca" x="297.076932" y="307.584" style="fill: #ffffff; stroke: #ffffff; stroke-width: 0.8"/>
      </g>
     </g>
     <g id="text_6">
      <text style="fill: #ffffff; font: 10px 'sans-serif'; text-anchor: middle" x="297.076932" y="322.182437" transform="rotate(-0, 297.076932, 322.182437)">5</text>
     </g>
    </g>
   </g>
   <g id="matplotlib.axis_2">
    <g id="ytick_1">
     <g id="line2d_20">
      <defs>
       <path id="mcf62447509" d="M 0 0 
L -3.5 0 
" style="stroke: #ffffff; stroke-width: 0.8"/>
      </defs>
      <g>
       <use xlink:href="#mcf62447509" x="124.649056" y="284.699559" style="fill: #ffffff; stroke: #ffffff; stroke-width: 0.8"/>
      </g>
     </g>
     <g id="text_7">
      <text style="fill: #ffffff; font: 10px 'sans-serif'; text-anchor: end" x="117.649056" y="288.498778" transform="rotate(-0, 117.649056, 288.498778)">−20</text>
     </g>
    </g>
    <g id="ytick_2">
     <g id="line2d_21">
      <g>
       <use xlink:href="#mcf62447509" x="124.649056" y="230.757354" style="fill: #ffffff; stroke: #ffffff; stroke-width: 0.8"/>
      </g>
     </g>
     <g id="text_8">
      <text style="fill: #ffffff; font: 10px 'sans-serif'; text-anchor: end" x="117.649056" y="234.556573" transform="rotate(-0, 117.649056, 234.556573)">−15</text>
     </g>
    </g>
    <g id="ytick_3">
     <g id="line2d_22">
      <g>
       <use xlink:href="#mcf62447509" x="124.649056" y="176.815149" style="fill: #ffffff; stroke: #ffffff; stroke-width: 0.8"/>
      </g>
     </g>
     <g id="text_9">
      <text style="fill: #ffffff; font: 10px 'sans-serif'; text-anchor: end" x="117.649056" y="180.614368" transform="rotate(-0, 117.649056, 180.614368)">−10</text>
     </g>
    </g>
    <g id="ytick_4">
     <g id="line2d_23">
      <g>
       <use xlink:href="#mcf62447509" x="124.649056" y="122.872945" style="fill: #ffffff; stroke: #ffffff; stroke-width: 0.8"/>
      </g>
     </g>
     <g id="text_10">
      <text style="fill: #ffffff; font: 10px 'sans-serif'; text-anchor: end" x="117.649056" y="126.672163" transform="rotate(-0, 117.649056, 126.672163)">−5</text>
     </g>
    </g>
    <g id="ytick_5">
     <g id="line2d_24">
      <g>
       <use xlink:href="#mcf62447509" x="124.649056" y="68.93074" style="fill: #ffffff; stroke: #ffffff; stroke-width: 0.8"/>
      </g>
     </g>
     <g id="text_11">
      <text style="fill: #ffffff; font: 10px 'sans-serif'; text-anchor: end" x="117.649056" y="72.729959" transform="rotate(-0, 117.649056, 72.729959)">0</text>
     </g>
    </g>
   </g>
   <g id="patch_36">
    <path d="M 124.649056 307.584 
L 124.649056 41.472 
" style="fill: none; stroke: #ffffff; stroke-width: 0.8; stroke-linejoin: miter; stroke-linecap: square"/>
   </g>
   <g id="patch_37">
    <path d="M 347.670944 307.584 
L 347.670944 41.472 
" style="fill: none; stroke: #ffffff; stroke-width: 0.8; stroke-linejoin: miter; stroke-linecap: square"/>
   </g>
   <g id="patch_38">
    <path d="M 124.649056 307.584 
L 347.670944 307.584 
" style="fill: none; stroke: #ffffff; stroke-width: 0.8; stroke-linejoin: miter; stroke-linecap: square"/>
   </g>
   <g id="patch_39">
    <path d="M 124.649056 41.472 
L 347.670944 41.472 
" style="fill: none; stroke: #ffffff; stroke-width: 0.8; stroke-linejoin: miter; stroke-linecap: square"/>
   </g>
   <g id="text_12">
    <text style="fill: #ffffff; font: 12px 'sans-serif'; text-anchor: middle" x="236.16" y="35.472" transform="rotate(-0, 236.16, 35.472)">MOUDLE14P-2.54-21X17.8MM-HOLE</text>
   </g>
  </g>
 </g>
 <defs>
  <clipPath id="pedae9e2e7a">
   <rect x="124.649056" y="41.472" width="223.021888" height="266.112"/>
  </clipPath>
 </defs>
</svg>
