<?xml version="1.0" encoding="utf-8" standalone="no"?>
<!DOCTYPE svg PUBLIC "-//W3C//DTD SVG 1.1//EN"
  "http://www.w3.org/Graphics/SVG/1.1/DTD/svg11.dtd">
<svg xmlns:xlink="http://www.w3.org/1999/xlink" width="460.8pt" height="345.6pt" viewBox="0 0 460.8 345.6" xmlns="http://www.w3.org/2000/svg" version="1.1">
 <metadata>
  <rdf:RDF xmlns:dc="http://purl.org/dc/elements/1.1/" xmlns:cc="http://creativecommons.org/ns#" xmlns:rdf="http://www.w3.org/1999/02/22-rdf-syntax-ns#">
   <cc:Work>
    <dc:type rdf:resource="http://purl.org/dc/dcmitype/StillImage"/>
    <dc:date>2023-02-18T16:05:52.466786</dc:date>
    <dc:format>image/svg+xml</dc:format>
    <dc:creator>
     <cc:Agent>
      <dc:title>Matplotlib v3.5.1, https://matplotlib.org/</dc:title>
     </cc:Agent>
    </dc:creator>
   </cc:Work>
  </rdf:RDF>
 </metadata>
 <defs>
  <style type="text/css">*{stroke-linejoin: round; stroke-linecap: butt}</style>
 </defs>
 <g id="figure_1">
  <g id="patch_1">
   <path d="M 0 345.6 
L 460.8 345.6 
L 460.8 0 
L 0 0 
z
" style="fill: #2b2b2b"/>
  </g>
  <g id="axes_1">
   <g id="patch_2">
    <path d="M 129.459355 307.584 
L 342.860645 307.584 
L 342.860645 41.472 
L 129.459355 41.472 
z
" style="fill: #2b2b2b"/>
   </g>
   <g id="line2d_1">
    <path d="M 325.954374 264.029156 
L 325.954374 82.631399 
" clip-path="url(#p81a7aeb995)" style="fill: none; stroke: #ffcd07; stroke-width: 1.26233; stroke-linecap: round"/>
   </g>
   <g id="line2d_2">
    <path d="M 152.01132 82.631399 
L 152.01132 261.544255 
" clip-path="url(#p81a7aeb995)" style="fill: none; stroke: #ffcd07; stroke-width: 1.26233; stroke-linecap: round"/>
   </g>
   <g id="line2d_3">
    <path d="M 194.254633 53.568 
L 283.711061 53.568 
" clip-path="url(#p81a7aeb995)" style="fill: none; stroke: #ffcd07; stroke-width: 1.26233; stroke-linecap: round"/>
   </g>
   <g id="line2d_4">
    <path d="M 283.711061 53.568 
L 283.711061 72.691796 
" clip-path="url(#p81a7aeb995)" style="fill: none; stroke: #ffcd07; stroke-width: 1.26233; stroke-linecap: round"/>
   </g>
   <g id="line2d_5">
    <path d="M 194.254633 72.691796 
L 194.254633 53.568 
" clip-path="url(#p81a7aeb995)" style="fill: none; stroke: #ffcd07; stroke-width: 1.26233; stroke-linecap: round"/>
   </g>
   <g id="patch_3">
    <path d="M 226.359551 91.62674 
C 227.677558 91.62674 228.94176 91.103091 229.873732 90.171119 
C 230.805703 89.239148 231.329353 87.974946 231.329353 86.656939 
C 231.329353 85.338932 230.805703 84.07473 229.873732 83.142758 
C 228.94176 82.210787 227.677558 81.687137 226.359551 81.687137 
C 225.041545 81.687137 223.777342 82.210787 222.845371 83.142758 
C 221.913399 84.07473 221.38975 85.338932 221.38975 86.656939 
C 221.38975 87.974946 221.913399 89.239148 222.845371 90.171119 
C 223.777342 91.103091 225.041545 91.62674 226.359551 91.62674 
L 226.359551 91.62674 
z
" clip-path="url(#p81a7aeb995)" style="fill: none; stroke: #ffcd07; stroke-width: 1.26233; stroke-linejoin: miter"/>
   </g>
   <g id="patch_4">
    <path d="M 251.606143 91.62674 
C 252.92415 91.62674 254.188352 91.103091 255.120324 90.171119 
C 256.052295 89.239148 256.575945 87.974946 256.575945 86.656939 
C 256.575945 85.338932 256.052295 84.07473 255.120324 83.142758 
C 254.188352 82.210787 252.92415 81.687137 251.606143 81.687137 
C 250.288136 81.687137 249.023934 82.210787 248.091963 83.142758 
C 247.159991 84.07473 246.636342 85.338932 246.636342 86.656939 
C 246.636342 87.974946 247.159991 89.239148 248.091963 90.171119 
C 249.023934 91.103091 250.288136 91.62674 251.606143 91.62674 
L 251.606143 91.62674 
z
" clip-path="url(#p81a7aeb995)" style="fill: none; stroke: #ffcd07; stroke-width: 1.26233; stroke-linejoin: miter"/>
   </g>
   <g id="patch_5">
    <path d="M 226.359551 116.873332 
C 227.677558 116.873332 228.94176 116.349683 229.873732 115.417711 
C 230.805703 114.485739 231.329353 113.221537 231.329353 111.903531 
C 231.329353 110.585524 230.805703 109.321322 229.873732 108.38935 
C 228.94176 107.457379 227.677558 106.933729 226.359551 106.933729 
C 225.041545 106.933729 223.777342 107.457379 222.845371 108.38935 
C 221.913399 109.321322 221.38975 110.585524 221.38975 111.903531 
C 221.38975 113.221537 221.913399 114.485739 222.845371 115.417711 
C 223.777342 116.349683 225.041545 116.873332 226.359551 116.873332 
L 226.359551 116.873332 
z
" clip-path="url(#p81a7aeb995)" style="fill: none; stroke: #ffcd07; stroke-width: 1.26233; stroke-linejoin: miter"/>
   </g>
   <g id="patch_6">
    <path d="M 251.606143 116.873332 
C 252.92415 116.873332 254.188352 116.349683 255.120324 115.417711 
C 256.052295 114.485739 256.575945 113.221537 256.575945 111.903531 
C 256.575945 110.585524 256.052295 109.321322 255.120324 108.38935 
C 254.188352 107.457379 252.92415 106.933729 251.606143 106.933729 
C 250.288136 106.933729 249.023934 107.457379 248.091963 108.38935 
C 247.159991 109.321322 246.636342 110.585524 246.636342 111.903531 
C 246.636342 113.221537 247.159991 114.485739 248.091963 115.417711 
C 249.023934 116.349683 250.288136 116.873332 251.606143 116.873332 
L 251.606143 116.873332 
z
" clip-path="url(#p81a7aeb995)" style="fill: none; stroke: #ffcd07; stroke-width: 1.26233; stroke-linejoin: miter"/>
   </g>
   <g id="patch_7">
    <path d="M 276.753339 295.488 
C 276.779699 295.488 276.804983 295.477527 276.823623 295.458888 
C 276.842262 295.440248 276.852735 295.414964 276.852735 295.388604 
C 276.852735 295.362244 276.842262 295.33696 276.823623 295.31832 
C 276.804983 295.299681 276.779699 295.289208 276.753339 295.289208 
C 276.726979 295.289208 276.701695 295.299681 276.683055 295.31832 
C 276.664416 295.33696 276.653943 295.362244 276.653943 295.388604 
C 276.653943 295.414964 276.664416 295.440248 276.683055 295.458888 
C 276.701695 295.477527 276.726979 295.488 276.753339 295.488 
L 276.753339 295.488 
z
" clip-path="url(#p81a7aeb995)" style="fill: none; stroke: #ffcd07; stroke-width: 0.99396; stroke-linejoin: miter"/>
   </g>
   <g id="line2d_6">
    <path d="M 276.671764 289.051513 
L 281.25275 290.970573 
L 281.25275 290.970573 
L 276.671549 292.889737 
L 276.671549 292.889737 
" clip-path="url(#p81a7aeb995)" style="fill: none; stroke: #ffcd07; stroke-width: 0.212071; stroke-linecap: round"/>
   </g>
   <g id="line2d_7">
    <path d="M 282.004245 287.565253 
L 284.295128 294.375989 
L 284.295128 294.375989 
L 286.523836 287.565078 
L 286.523836 287.565078 
" clip-path="url(#p81a7aeb995)" style="fill: none; stroke: #ffcd07; stroke-width: 0.212071; stroke-linecap: round"/>
   </g>
   <g id="line2d_8">
    <path d="M 287.305962 294.251822 
L 289.596844 287.441086 
L 289.596844 287.441086 
L 291.825552 294.251998 
L 291.825552 294.251998 
" clip-path="url(#p81a7aeb995)" style="fill: none; stroke: #ffcd07; stroke-width: 0.212071; stroke-linecap: round"/>
   </g>
   <g id="line2d_9">
    <path d="M 291.268869 292.580457 
L 287.863619 292.580457 
" clip-path="url(#p81a7aeb995)" style="fill: none; stroke: #ffcd07; stroke-width: 0.212071; stroke-linecap: round"/>
   </g>
   <g id="line2d_10">
    <path d="M 293.350693 287.565289 
L 293.350693 294.375789 
L 296.384461 294.375789 
" clip-path="url(#p81a7aeb995)" style="fill: none; stroke: #ffcd07; stroke-width: 0.212071; stroke-linecap: round"/>
   </g>
   <g id="line2d_11">
    <path d="M 298.281126 287.565577 
L 298.281126 292.456754 
L 298.281126 292.456754 
L 298.404953 293.075891 
L 298.404953 293.075891 
L 298.652608 293.5712 
L 299.086004 294.004595 
L 299.581313 294.314163 
L 300.200449 294.376077 
L 300.757672 294.314163 
L 301.314894 294.004595 
L 301.74829 293.5712 
L 301.995945 293.075891 
L 302.057858 292.456754 
L 302.057858 287.565577 
" clip-path="url(#p81a7aeb995)" style="fill: none; stroke: #ffcd07; stroke-width: 0.212071; stroke-linecap: round"/>
   </g>
   <g id="line2d_12">
    <path d="M 306.98816 294.375822 
L 303.954392 294.375822 
L 303.954392 287.565322 
L 306.98816 287.565322 
" clip-path="url(#p81a7aeb995)" style="fill: none; stroke: #ffcd07; stroke-width: 0.212071; stroke-linecap: round"/>
   </g>
   <g id="line2d_13">
    <path d="M 303.954515 290.599251 
L 306.245319 290.599251 
" clip-path="url(#p81a7aeb995)" style="fill: none; stroke: #ffcd07; stroke-width: 0.212071; stroke-linecap: round"/>
   </g>
   <g id="patch_8">
    <path d="M 141.684072 98.465187 
C 142.35362 98.465187 142.995835 98.199173 143.469276 97.725732 
C 143.942718 97.25229 144.208732 96.610075 144.208732 95.940528 
C 144.208732 95.270981 143.942718 94.628766 143.469276 94.155324 
C 142.995835 93.681883 142.35362 93.415869 141.684072 93.415869 
C 141.014525 93.415869 140.37231 93.681883 139.898869 94.155324 
C 139.425427 94.628766 139.159413 95.270981 139.159413 95.940528 
C 139.159413 96.610075 139.425427 97.25229 139.898869 97.725732 
C 140.37231 98.199173 141.014525 98.465187 141.684072 98.465187 
L 141.684072 98.465187 
z
" clip-path="url(#p81a7aeb995)" style="fill: none"/>
   </g>
   <g id="patch_9">
    <path d="M 150.619776 295.040718 
C 150.646136 295.040718 150.67142 295.030245 150.690059 295.011605 
C 150.708699 294.992966 150.719172 294.967682 150.719172 294.941322 
C 150.719172 294.914962 150.708699 294.889678 150.690059 294.871038 
C 150.67142 294.852399 150.646136 294.841926 150.619776 294.841926 
C 150.593416 294.841926 150.568131 294.852399 150.549492 294.871038 
C 150.530853 294.889678 150.52038 294.914962 150.52038 294.941322 
C 150.52038 294.967682 150.530853 294.992966 150.549492 295.011605 
C 150.568131 295.030245 150.593416 295.040718 150.619776 295.040718 
L 150.619776 295.040718 
z
" clip-path="url(#p81a7aeb995)" style="fill: none; stroke: #808080; stroke-width: 0.99396; stroke-linejoin: miter"/>
   </g>
   <g id="line2d_14">
    <path d="M 150.5382 288.604231 
L 155.119187 290.523291 
L 155.119187 290.523291 
L 150.537986 292.442455 
L 150.537986 292.442455 
" clip-path="url(#p81a7aeb995)" style="fill: none; stroke: #808080; stroke-width: 0.212071; stroke-linecap: round"/>
   </g>
   <g id="line2d_15">
    <path d="M 156.242604 293.9283 
L 156.242604 287.1178 
L 160.019335 293.9283 
L 160.019335 287.1178 
" clip-path="url(#p81a7aeb995)" style="fill: none; stroke: #808080; stroke-width: 0.212071; stroke-linecap: round"/>
   </g>
   <g id="line2d_16">
    <path d="M 161.172398 293.80454 
L 163.463281 286.993804 
L 163.463281 286.993804 
L 165.691989 293.804716 
L 165.691989 293.804716 
" clip-path="url(#p81a7aeb995)" style="fill: none; stroke: #808080; stroke-width: 0.212071; stroke-linecap: round"/>
   </g>
   <g id="line2d_17">
    <path d="M 165.135305 292.133175 
L 161.730055 292.133175 
" clip-path="url(#p81a7aeb995)" style="fill: none; stroke: #808080; stroke-width: 0.212071; stroke-linecap: round"/>
   </g>
   <g id="line2d_18">
    <path d="M 166.47463 293.928502 
L 166.47463 287.118001 
L 168.703521 290.894733 
L 168.703521 290.894733 
L 170.994325 287.118001 
L 170.994325 287.118001 
L 170.994325 293.928502 
" clip-path="url(#p81a7aeb995)" style="fill: none; stroke: #808080; stroke-width: 0.212071; stroke-linecap: round"/>
   </g>
   <g id="line2d_19">
    <path d="M 175.552812 293.92854 
L 172.519044 293.92854 
L 172.519044 287.11804 
L 175.552812 287.11804 
" clip-path="url(#p81a7aeb995)" style="fill: none; stroke: #808080; stroke-width: 0.212071; stroke-linecap: round"/>
   </g>
   <g id="line2d_20">
    <path d="M 172.519167 290.151969 
L 174.809972 290.151969 
" clip-path="url(#p81a7aeb995)" style="fill: none; stroke: #808080; stroke-width: 0.212071; stroke-linecap: round"/>
   </g>
   <g id="line2d_21">
    <path d="M 152.01132 276.45366 
L 325.954374 276.45366 
" clip-path="url(#p81a7aeb995)" style="fill: none; stroke: #808080; stroke-width: 1.26233; stroke-linecap: round"/>
   </g>
   <g id="line2d_22">
    <path d="M 325.954374 276.45366 
L 325.954374 264.029156 
" clip-path="url(#p81a7aeb995)" style="fill: none; stroke: #808080; stroke-width: 1.26233; stroke-linecap: round"/>
   </g>
   <g id="line2d_23">
    <path d="M 325.954374 82.631399 
L 325.954374 67.721995 
" clip-path="url(#p81a7aeb995)" style="fill: none; stroke: #808080; stroke-width: 1.26233; stroke-linecap: round"/>
   </g>
   <g id="line2d_24">
    <path d="M 325.954374 67.721995 
L 161.950923 67.721995 
" clip-path="url(#p81a7aeb995)" style="fill: none; stroke: #808080; stroke-width: 1.26233; stroke-linecap: round"/>
   </g>
   <g id="line2d_25">
    <path d="M 152.01132 77.661598 
L 152.01132 82.631399 
" clip-path="url(#p81a7aeb995)" style="fill: none; stroke: #808080; stroke-width: 1.26233; stroke-linecap: round"/>
   </g>
   <g id="line2d_26">
    <path d="M 152.01132 261.544255 
L 152.01132 276.45366 
" clip-path="url(#p81a7aeb995)" style="fill: none; stroke: #808080; stroke-width: 1.26233; stroke-linecap: round"/>
   </g>
   <g id="line2d_27">
    <path d="M 283.711061 72.691796 
L 283.711061 126.643962 
" clip-path="url(#p81a7aeb995)" style="fill: none; stroke: #808080; stroke-width: 1.26233; stroke-linecap: round"/>
   </g>
   <g id="line2d_28">
    <path d="M 283.711061 126.643962 
L 194.254633 126.643962 
" clip-path="url(#p81a7aeb995)" style="fill: none; stroke: #808080; stroke-width: 1.26233; stroke-linecap: round"/>
   </g>
   <g id="line2d_29">
    <path d="M 194.254633 126.643962 
L 194.254633 72.691796 
" clip-path="url(#p81a7aeb995)" style="fill: none; stroke: #808080; stroke-width: 1.26233; stroke-linecap: round"/>
   </g>
   <g id="line2d_30">
    <path d="M 152.01132 77.661598 
L 161.950923 67.721995 
" clip-path="url(#p81a7aeb995)" style="fill: none; stroke: #808080; stroke-width: 1.26233; stroke-linecap: round"/>
   </g>
   <g id="patch_10">
    <path d="M 145.152994 257.767206 
L 172.486903 257.767206 
L 172.486903 237.888 
L 145.152994 237.888 
z
" clip-path="url(#p81a7aeb995)" style="fill: #c90d15"/>
   </g>
   <g id="patch_11">
    <path d="M 145.152994 232.520614 
L 172.486903 232.520614 
L 172.486903 212.641408 
L 145.152994 212.641408 
z
" clip-path="url(#p81a7aeb995)" style="fill: #c90d15"/>
   </g>
   <g id="patch_12">
    <path d="M 145.152994 207.274022 
L 172.486903 207.274022 
L 172.486903 187.394816 
L 145.152994 187.394816 
z
" clip-path="url(#p81a7aeb995)" style="fill: #c90d15"/>
   </g>
   <g id="patch_13">
    <path d="M 145.152994 182.027431 
L 172.486903 182.027431 
L 172.486903 162.148224 
L 145.152994 162.148224 
z
" clip-path="url(#p81a7aeb995)" style="fill: #c90d15"/>
   </g>
   <g id="patch_14">
    <path d="M 145.152994 156.780839 
L 172.486903 156.780839 
L 172.486903 136.901632 
L 145.152994 136.901632 
z
" clip-path="url(#p81a7aeb995)" style="fill: #c90d15"/>
   </g>
   <g id="patch_15">
    <path d="M 145.152994 131.534247 
L 172.486903 131.534247 
L 172.486903 111.655041 
L 145.152994 111.655041 
z
" clip-path="url(#p81a7aeb995)" style="fill: #c90d15"/>
   </g>
   <g id="patch_16">
    <path d="M 145.152994 106.287655 
L 172.486903 106.287655 
L 172.486903 86.408449 
L 145.152994 86.408449 
z
" clip-path="url(#p81a7aeb995)" style="fill: #c90d15"/>
   </g>
   <g id="patch_17">
    <path d="M 305.826678 257.767206 
L 333.160587 257.767206 
L 333.160587 237.888 
L 305.826678 237.888 
z
" clip-path="url(#p81a7aeb995)" style="fill: #c90d15"/>
   </g>
   <g id="patch_18">
    <path d="M 305.826678 232.520614 
L 333.160587 232.520614 
L 333.160587 212.641408 
L 305.826678 212.641408 
z
" clip-path="url(#p81a7aeb995)" style="fill: #c90d15"/>
   </g>
   <g id="patch_19">
    <path d="M 305.826678 207.274022 
L 333.160587 207.274022 
L 333.160587 187.394816 
L 305.826678 187.394816 
z
" clip-path="url(#p81a7aeb995)" style="fill: #c90d15"/>
   </g>
   <g id="patch_20">
    <path d="M 305.826678 182.027431 
L 333.160587 182.027431 
L 333.160587 162.148224 
L 305.826678 162.148224 
z
" clip-path="url(#p81a7aeb995)" style="fill: #c90d15"/>
   </g>
   <g id="patch_21">
    <path d="M 305.826678 156.780839 
L 333.160587 156.780839 
L 333.160587 136.901632 
L 305.826678 136.901632 
z
" clip-path="url(#p81a7aeb995)" style="fill: #c90d15"/>
   </g>
   <g id="patch_22">
    <path d="M 305.826678 131.534247 
L 333.160587 131.534247 
L 333.160587 111.655041 
L 305.826678 111.655041 
z
" clip-path="url(#p81a7aeb995)" style="fill: #c90d15"/>
   </g>
   <g id="patch_23">
    <path d="M 305.826678 106.287655 
L 333.160587 106.287655 
L 333.160587 86.408449 
L 305.826678 86.408449 
z
" clip-path="url(#p81a7aeb995)" style="fill: #c90d15"/>
   </g>
   <g id="matplotlib.axis_1">
    <g id="xtick_1">
     <g id="line2d_31">
      <defs>
       <path id="m24d40d33ea" d="M 0 0 
L 0 3.5 
" style="stroke: #ffffff; stroke-width: 0.8"/>
      </defs>
      <g>
       <use xlink:href="#m24d40d33ea" x="139.586816" y="307.584" style="fill: #ffffff; stroke: #ffffff; stroke-width: 0.8"/>
      </g>
     </g>
     <g id="text_1">
      <text style="fill: #ffffff; font: 10px 'sans-serif'; text-anchor: middle" x="139.586816" y="322.182437" transform="rotate(-0, 139.586816, 322.182437)">−10</text>
     </g>
    </g>
    <g id="xtick_2">
     <g id="line2d_32">
      <g>
       <use xlink:href="#m24d40d33ea" x="189.284832" y="307.584" style="fill: #ffffff; stroke: #ffffff; stroke-width: 0.8"/>
      </g>
     </g>
     <g id="text_2">
      <text style="fill: #ffffff; font: 10px 'sans-serif'; text-anchor: middle" x="189.284832" y="322.182437" transform="rotate(-0, 189.284832, 322.182437)">−5</text>
     </g>
    </g>
    <g id="xtick_3">
     <g id="line2d_33">
      <g>
       <use xlink:href="#m24d40d33ea" x="238.982847" y="307.584" style="fill: #ffffff; stroke: #ffffff; stroke-width: 0.8"/>
      </g>
     </g>
     <g id="text_3">
      <text style="fill: #ffffff; font: 10px 'sans-serif'; text-anchor: middle" x="238.982847" y="322.182437" transform="rotate(-0, 238.982847, 322.182437)">0</text>
     </g>
    </g>
    <g id="xtick_4">
     <g id="line2d_34">
      <g>
       <use xlink:href="#m24d40d33ea" x="288.680863" y="307.584" style="fill: #ffffff; stroke: #ffffff; stroke-width: 0.8"/>
      </g>
     </g>
     <g id="text_4">
      <text style="fill: #ffffff; font: 10px 'sans-serif'; text-anchor: middle" x="288.680863" y="322.182437" transform="rotate(-0, 288.680863, 322.182437)">5</text>
     </g>
    </g>
    <g id="xtick_5">
     <g id="line2d_35">
      <g>
       <use xlink:href="#m24d40d33ea" x="338.378878" y="307.584" style="fill: #ffffff; stroke: #ffffff; stroke-width: 0.8"/>
      </g>
     </g>
     <g id="text_5">
      <text style="fill: #ffffff; font: 10px 'sans-serif'; text-anchor: middle" x="338.378878" y="322.182437" transform="rotate(-0, 338.378878, 322.182437)">10</text>
     </g>
    </g>
   </g>
   <g id="matplotlib.axis_2">
    <g id="ytick_1">
     <g id="line2d_36">
      <defs>
       <path id="m74b5fbc88a" d="M 0 0 
L -3.5 0 
" style="stroke: #ffffff; stroke-width: 0.8"/>
      </defs>
      <g>
       <use xlink:href="#m74b5fbc88a" x="129.459355" y="266.514057" style="fill: #ffffff; stroke: #ffffff; stroke-width: 0.8"/>
      </g>
     </g>
     <g id="text_6">
      <text style="fill: #ffffff; font: 10px 'sans-serif'; text-anchor: end" x="122.459355" y="270.313276" transform="rotate(-0, 122.459355, 270.313276)">−20</text>
     </g>
    </g>
    <g id="ytick_2">
     <g id="line2d_37">
      <g>
       <use xlink:href="#m74b5fbc88a" x="129.459355" y="216.816041" style="fill: #ffffff; stroke: #ffffff; stroke-width: 0.8"/>
      </g>
     </g>
     <g id="text_7">
      <text style="fill: #ffffff; font: 10px 'sans-serif'; text-anchor: end" x="122.459355" y="220.61526" transform="rotate(-0, 122.459355, 220.61526)">−15</text>
     </g>
    </g>
    <g id="ytick_3">
     <g id="line2d_38">
      <g>
       <use xlink:href="#m74b5fbc88a" x="129.459355" y="167.118026" style="fill: #ffffff; stroke: #ffffff; stroke-width: 0.8"/>
      </g>
     </g>
     <g id="text_8">
      <text style="fill: #ffffff; font: 10px 'sans-serif'; text-anchor: end" x="122.459355" y="170.917245" transform="rotate(-0, 122.459355, 170.917245)">−10</text>
     </g>
    </g>
    <g id="ytick_4">
     <g id="line2d_39">
      <g>
       <use xlink:href="#m74b5fbc88a" x="129.459355" y="117.42001" style="fill: #ffffff; stroke: #ffffff; stroke-width: 0.8"/>
      </g>
     </g>
     <g id="text_9">
      <text style="fill: #ffffff; font: 10px 'sans-serif'; text-anchor: end" x="122.459355" y="121.219229" transform="rotate(-0, 122.459355, 121.219229)">−5</text>
     </g>
    </g>
    <g id="ytick_5">
     <g id="line2d_40">
      <g>
       <use xlink:href="#m74b5fbc88a" x="129.459355" y="67.721995" style="fill: #ffffff; stroke: #ffffff; stroke-width: 0.8"/>
      </g>
     </g>
     <g id="text_10">
      <text style="fill: #ffffff; font: 10px 'sans-serif'; text-anchor: end" x="122.459355" y="71.521214" transform="rotate(-0, 122.459355, 71.521214)">0</text>
     </g>
    </g>
   </g>
   <g id="patch_24">
    <path d="M 129.459355 307.584 
L 129.459355 41.472 
" style="fill: none; stroke: #ffffff; stroke-width: 0.8; stroke-linejoin: miter; stroke-linecap: square"/>
   </g>
   <g id="patch_25">
    <path d="M 342.860645 307.584 
L 342.860645 41.472 
" style="fill: none; stroke: #ffffff; stroke-width: 0.8; stroke-linejoin: miter; stroke-linecap: square"/>
   </g>
   <g id="patch_26">
    <path d="M 129.459355 307.584 
L 342.860645 307.584 
" style="fill: none; stroke: #ffffff; stroke-width: 0.8; stroke-linejoin: miter; stroke-linecap: square"/>
   </g>
   <g id="patch_27">
    <path d="M 129.459355 41.472 
L 342.860645 41.472 
" style="fill: none; stroke: #ffffff; stroke-width: 0.8; stroke-linejoin: miter; stroke-linecap: square"/>
   </g>
   <g id="text_11">
    <text style="fill: #ffffff; font: 12px 'sans-serif'; text-anchor: middle" x="236.16" y="35.472" transform="rotate(-0, 236.16, 35.472)">MOUDLE14P-2.54-21X17.8MM-MODIFIED</text>
   </g>
  </g>
 </g>
 <defs>
  <clipPath id="p81a7aeb995">
   <rect x="129.459355" y="41.472" width="213.401291" height="266.112"/>
  </clipPath>
 </defs>
</svg>
