<?xml version="1.0" encoding="utf-8" standalone="no"?>
<!DOCTYPE svg PUBLIC "-//W3C//DTD SVG 1.1//EN"
  "http://www.w3.org/Graphics/SVG/1.1/DTD/svg11.dtd">
<svg xmlns:xlink="http://www.w3.org/1999/xlink" width="460.8pt" height="345.6pt" viewBox="0 0 460.8 345.6" xmlns="http://www.w3.org/2000/svg" version="1.1">
 <metadata>
  <rdf:RDF xmlns:dc="http://purl.org/dc/elements/1.1/" xmlns:cc="http://creativecommons.org/ns#" xmlns:rdf="http://www.w3.org/1999/02/22-rdf-syntax-ns#">
   <cc:Work>
    <dc:type rdf:resource="http://purl.org/dc/dcmitype/StillImage"/>
    <dc:date>2023-02-18T16:06:09.582097</dc:date>
    <dc:format>image/svg+xml</dc:format>
    <dc:creator>
     <cc:Agent>
      <dc:title>Matplotlib v3.5.1, https://matplotlib.org/</dc:title>
     </cc:Agent>
    </dc:creator>
   </cc:Work>
  </rdf:RDF>
 </metadata>
 <defs>
  <style type="text/css">*{stroke-linejoin: round; stroke-linecap: butt}</style>
 </defs>
 <g id="figure_1">
  <g id="patch_1">
   <path d="M 0 345.6 
L 460.8 345.6 
L 460.8 0 
L 0 0 
z
" style="fill: #2b2b2b"/>
  </g>
  <g id="axes_1">
   <g id="patch_2">
    <path d="M 182.161491 307.584 
L 290.158509 307.584 
L 290.158509 41.472 
L 182.161491 41.472 
z
" style="fill: #2b2b2b"/>
   </g>
   <g id="patch_3">
    <path d="M 206.496084 295.488 
C 206.516366 295.488 206.535821 295.479942 206.550163 295.4656 
C 206.564504 295.451258 206.572563 295.431804 206.572563 295.411521 
C 206.572563 295.391239 206.564504 295.371784 206.550163 295.357442 
C 206.535821 295.343101 206.516366 295.335042 206.496084 295.335042 
C 206.475801 295.335042 206.456347 295.343101 206.442005 295.357442 
C 206.427663 295.371784 206.419605 295.391239 206.419605 295.411521 
C 206.419605 295.431804 206.427663 295.451258 206.442005 295.4656 
C 206.456347 295.479942 206.475801 295.488 206.496084 295.488 
L 206.496084 295.488 
z
" clip-path="url(#p641c4ea31b)" style="fill: none; stroke: #808080; stroke-width: 0.764789; stroke-linejoin: miter"/>
   </g>
   <g id="line2d_1">
    <path d="M 206.406417 288.445827 
L 211.441811 290.555246 
L 211.441811 290.555246 
L 206.406181 292.664781 
L 206.406181 292.664781 
" clip-path="url(#p641c4ea31b)" style="fill: none; stroke: #808080; stroke-width: 0.388513; stroke-linecap: round"/>
   </g>
   <g id="line2d_2">
    <path d="M 212.26785 286.812138 
L 214.785976 294.298461 
L 214.785976 294.298461 
L 217.235759 286.811945 
L 217.235759 286.811945 
" clip-path="url(#p641c4ea31b)" style="fill: none; stroke: #808080; stroke-width: 0.388513; stroke-linecap: round"/>
   </g>
   <g id="line2d_3">
    <path d="M 218.095467 294.161977 
L 220.613592 286.675655 
L 220.613592 286.675655 
L 223.063375 294.16217 
L 223.063375 294.16217 
" clip-path="url(#p641c4ea31b)" style="fill: none; stroke: #808080; stroke-width: 0.388513; stroke-linecap: round"/>
   </g>
   <g id="line2d_4">
    <path d="M 222.451472 292.324822 
L 218.708441 292.324822 
" clip-path="url(#p641c4ea31b)" style="fill: none; stroke: #808080; stroke-width: 0.388513; stroke-linecap: round"/>
   </g>
   <g id="line2d_5">
    <path d="M 224.739801 286.812177 
L 224.739801 294.298241 
L 228.074502 294.298241 
" clip-path="url(#p641c4ea31b)" style="fill: none; stroke: #808080; stroke-width: 0.388513; stroke-linecap: round"/>
   </g>
   <g id="line2d_6">
    <path d="M 230.159306 286.812494 
L 230.159306 292.188849 
L 230.159306 292.188849 
L 230.295416 292.8694 
L 230.295416 292.8694 
L 230.567637 293.413841 
L 231.044022 293.890227 
L 231.588463 294.230502 
L 232.269015 294.298557 
L 232.881511 294.230502 
L 233.494007 293.890227 
L 233.970393 293.413841 
L 234.242613 292.8694 
L 234.310668 292.188849 
L 234.310668 286.812494 
" clip-path="url(#p641c4ea31b)" style="fill: none; stroke: #808080; stroke-width: 0.388513; stroke-linecap: round"/>
   </g>
   <g id="line2d_7">
    <path d="M 239.730028 294.298277 
L 236.395327 294.298277 
L 236.395327 286.812213 
L 239.730028 286.812213 
" clip-path="url(#p641c4ea31b)" style="fill: none; stroke: #808080; stroke-width: 0.388513; stroke-linecap: round"/>
   </g>
   <g id="line2d_8">
    <path d="M 236.395462 290.147091 
L 238.913502 290.147091 
" clip-path="url(#p641c4ea31b)" style="fill: none; stroke: #808080; stroke-width: 0.388513; stroke-linecap: round"/>
   </g>
   <g id="patch_4">
    <path d="M 206.496084 62.380345 
C 206.516366 62.380345 206.535821 62.372287 206.550163 62.357945 
C 206.564504 62.343603 206.572563 62.324149 206.572563 62.303867 
C 206.572563 62.283584 206.564504 62.26413 206.550163 62.249788 
C 206.535821 62.235446 206.516366 62.227388 206.496084 62.227388 
C 206.475801 62.227388 206.456347 62.235446 206.442005 62.249788 
C 206.427663 62.26413 206.419605 62.283584 206.419605 62.303867 
C 206.419605 62.324149 206.427663 62.343603 206.442005 62.357945 
C 206.456347 62.372287 206.475801 62.380345 206.496084 62.380345 
L 206.496084 62.380345 
z
" clip-path="url(#p641c4ea31b)" style="fill: none; stroke: #808080; stroke-width: 0.764789; stroke-linejoin: miter"/>
   </g>
   <g id="line2d_9">
    <path d="M 206.406417 55.338172 
L 211.441811 57.447592 
L 211.441811 57.447592 
L 206.406181 59.557126 
L 206.406181 59.557126 
" clip-path="url(#p641c4ea31b)" style="fill: none; stroke: #808080; stroke-width: 0.388513; stroke-linecap: round"/>
   </g>
   <g id="line2d_10">
    <path d="M 212.676664 61.190359 
L 212.676664 53.704296 
L 216.828027 61.190359 
L 216.828027 53.704296 
" clip-path="url(#p641c4ea31b)" style="fill: none; stroke: #808080; stroke-width: 0.388513; stroke-linecap: round"/>
   </g>
   <g id="line2d_11">
    <path d="M 218.095467 61.054323 
L 220.613592 53.568 
L 220.613592 53.568 
L 223.063375 61.054515 
L 223.063375 61.054515 
" clip-path="url(#p641c4ea31b)" style="fill: none; stroke: #808080; stroke-width: 0.388513; stroke-linecap: round"/>
   </g>
   <g id="line2d_12">
    <path d="M 222.451472 59.217168 
L 218.708441 59.217168 
" clip-path="url(#p641c4ea31b)" style="fill: none; stroke: #808080; stroke-width: 0.388513; stroke-linecap: round"/>
   </g>
   <g id="line2d_13">
    <path d="M 223.92365 61.19058 
L 223.92365 53.704517 
L 226.373634 57.855879 
L 226.373634 57.855879 
L 228.891674 53.704517 
L 228.891674 53.704517 
L 228.891674 61.19058 
" clip-path="url(#p641c4ea31b)" style="fill: none; stroke: #808080; stroke-width: 0.388513; stroke-linecap: round"/>
   </g>
   <g id="line2d_14">
    <path d="M 233.902337 61.190622 
L 230.567636 61.190622 
L 230.567636 53.704559 
L 233.902337 53.704559 
" clip-path="url(#p641c4ea31b)" style="fill: none; stroke: #808080; stroke-width: 0.388513; stroke-linecap: round"/>
   </g>
   <g id="line2d_15">
    <path d="M 230.567771 57.039437 
L 233.085811 57.039437 
" clip-path="url(#p641c4ea31b)" style="fill: none; stroke: #808080; stroke-width: 0.388513; stroke-linecap: round"/>
   </g>
   <g id="line2d_16">
    <path d="M 187.070446 87.557196 
L 225.921722 87.557196 
" clip-path="url(#p641c4ea31b)" style="fill: none; stroke: #c90d15; stroke-width: 0.764789; stroke-linecap: square"/>
   </g>
   <g id="line2d_17">
    <path d="M 269.48081 84.234416 
L 272.802795 81.662557 
L 272.802795 81.662557 
L 272.80274 93.451721 
L 272.80274 93.451721 
" clip-path="url(#p641c4ea31b)" style="fill: none; stroke: #ffffff; stroke-width: 0.611831; stroke-linecap: round"/>
   </g>
   <g id="line2d_18">
    <path d="M 269.481008 93.451474 
L 276.12576 93.451474 
" clip-path="url(#p641c4ea31b)" style="fill: none; stroke: #ffffff; stroke-width: 0.611831; stroke-linecap: round"/>
   </g>
   <g id="line2d_19">
    <path d="M 187.070446 106.982834 
L 225.921722 106.982834 
" clip-path="url(#p641c4ea31b)" style="fill: none; stroke: #c90d15; stroke-width: 0.764789; stroke-linecap: square"/>
   </g>
   <g id="line2d_20">
    <path d="M 276.07214 112.877355 
L 269.534561 112.877355 
L 269.534561 112.877355 
L 275.107579 106.339776 
L 275.107579 106.339776 
L 275.107579 106.339776 
L 275.643446 105.696736 
L 275.643446 105.696736 
L 275.964966 104.839348 
L 276.07214 103.981961 
L 275.964966 103.124574 
L 275.536273 102.267186 
L 274.893232 101.624146 
L 274.035845 101.195452 
L 273.178457 101.088279 
L 271.99955 101.195452 
L 270.927816 101.731319 
L 270.070428 102.588707 
L 269.534561 103.660441 
" clip-path="url(#p641c4ea31b)" style="fill: none; stroke: #ffffff; stroke-width: 0.611831; stroke-linecap: round"/>
   </g>
   <g id="line2d_21">
    <path d="M 187.070446 126.408472 
L 225.921722 126.408472 
" clip-path="url(#p641c4ea31b)" style="fill: none; stroke: #c90d15; stroke-width: 0.764789; stroke-linecap: square"/>
   </g>
   <g id="line2d_22">
    <path d="M 269.534518 132.30275 
L 272.749721 132.30275 
L 273.821455 132.195577 
L 274.678842 131.65971 
L 275.429056 130.909496 
L 275.85775 130.052108 
L 276.072097 128.980374 
L 275.85775 128.015813 
L 275.429056 127.051253 
L 274.678842 126.408212 
L 273.821455 125.872345 
L 272.749721 125.765172 
" clip-path="url(#p641c4ea31b)" style="fill: none; stroke: #ffffff; stroke-width: 0.611831; stroke-linecap: round"/>
   </g>
   <g id="line2d_23">
    <path d="M 269.534518 120.513445 
L 273.392761 120.513445 
L 274.357322 120.620619 
L 275.107536 121.049312 
L 275.750577 121.799526 
L 276.072097 122.656913 
L 276.072097 123.514301 
L 275.750577 124.371688 
L 275.107536 125.121902 
L 274.357322 125.550596 
L 273.392761 125.764943 
L 270.820599 125.764943 
" clip-path="url(#p641c4ea31b)" style="fill: none; stroke: #ffffff; stroke-width: 0.611831; stroke-linecap: round"/>
   </g>
   <g id="line2d_24">
    <path d="M 187.070446 145.834109 
L 225.921722 145.834109 
" clip-path="url(#p641c4ea31b)" style="fill: none; stroke: #c90d15; stroke-width: 0.764789; stroke-linecap: square"/>
   </g>
   <g id="line2d_25">
    <path d="M 272.214029 139.939357 
L 269.534697 149.156267 
L 276.071806 149.155871 
" clip-path="url(#p641c4ea31b)" style="fill: none; stroke: #ffffff; stroke-width: 0.611831; stroke-linecap: round"/>
   </g>
   <g id="line2d_26">
    <path d="M 274.142723 146.477466 
L 274.142723 151.728963 
" clip-path="url(#p641c4ea31b)" style="fill: none; stroke: #ffffff; stroke-width: 0.611831; stroke-linecap: round"/>
   </g>
   <g id="line2d_27">
    <path d="M 187.070446 165.259747 
L 225.921722 165.259747 
" clip-path="url(#p641c4ea31b)" style="fill: none; stroke: #c90d15; stroke-width: 0.764789; stroke-linecap: square"/>
   </g>
   <g id="line2d_28">
    <path d="M 269.534571 171.154026 
L 273.499987 171.154026 
L 274.464548 170.939679 
L 275.321935 170.403812 
L 275.857803 169.546425 
L 276.072149 168.581864 
L 276.072149 167.188609 
L 275.964976 166.438395 
L 275.536282 165.688181 
L 275.000415 165.045141 
L 274.250201 164.723621 
L 273.499987 164.616447 
L 269.534571 164.616447 
L 269.534571 164.616447 
L 269.534571 159.36495 
L 269.534571 159.36495 
L 269.534571 159.36495 
L 276.072149 159.36495 
L 276.072149 159.36495 
" clip-path="url(#p641c4ea31b)" style="fill: none; stroke: #ffffff; stroke-width: 0.611831; stroke-linecap: round"/>
   </g>
   <g id="line2d_29">
    <path d="M 187.070446 184.685385 
L 225.921722 184.685385 
" clip-path="url(#p641c4ea31b)" style="fill: none; stroke: #c90d15; stroke-width: 0.764789; stroke-linecap: square"/>
   </g>
   <g id="line2d_30">
    <path d="M 269.48095 184.042363 
L 273.446367 184.042363 
L 274.303754 184.149537 
L 275.053968 184.471057 
L 275.589835 185.114098 
L 275.911355 185.864312 
L 276.125702 186.614525 
L 276.125702 187.257566 
L 275.911355 188.3293 
L 275.482662 189.186688 
L 274.732448 189.936901 
L 273.87506 190.472769 
L 272.803326 190.579942 
L 271.838765 190.472769 
L 270.874204 189.936901 
L 270.12399 189.186688 
L 269.695297 188.3293 
L 269.48095 187.257566 
L 269.48095 184.042363 
L 269.48095 184.042363 
L 269.695297 182.649109 
L 269.695297 182.649109 
L 270.231164 181.363028 
L 271.088551 180.291294 
L 272.160285 179.433906 
L 273.446367 178.898039 
L 274.732448 178.790866 
" clip-path="url(#p641c4ea31b)" style="fill: none; stroke: #ffffff; stroke-width: 0.611831; stroke-linecap: round"/>
   </g>
   <g id="line2d_31">
    <path d="M 187.070446 204.111023 
L 225.921722 204.111023 
" clip-path="url(#p641c4ea31b)" style="fill: none; stroke: #c90d15; stroke-width: 0.764789; stroke-linecap: square"/>
   </g>
   <g id="line2d_32">
    <path d="M 269.533984 199.50213 
L 269.533984 198.216049 
L 276.071563 198.216049 
L 276.071563 198.216049 
L 272.85636 210.005125 
L 272.85636 210.005125 
" clip-path="url(#p641c4ea31b)" style="fill: none; stroke: #ffffff; stroke-width: 0.611831; stroke-linecap: round"/>
   </g>
   <g id="line2d_33">
    <path d="M 187.070446 223.536661 
L 225.921722 223.536661 
" clip-path="url(#p641c4ea31b)" style="fill: none; stroke: #c90d15; stroke-width: 0.764789; stroke-linecap: square"/>
   </g>
   <g id="line2d_34">
    <path d="M 269.53458 226.109366 
L 269.641754 227.1811 
L 270.070447 228.038487 
L 270.820661 228.788701 
L 271.785222 229.324568 
L 272.749783 229.431742 
L 273.821517 229.324568 
L 274.678905 228.788701 
L 275.429118 228.038487 
L 275.857812 227.1811 
L 276.072159 226.109366 
L 275.857812 225.144805 
L 275.429118 224.180244 
L 274.678905 223.537204 
L 273.821517 223.001336 
L 272.749783 222.894163 
L 271.785222 223.001336 
L 270.820661 223.537204 
L 270.070447 224.180244 
L 269.641754 225.144805 
L 269.53458 226.109366 
" clip-path="url(#p641c4ea31b)" style="fill: none; stroke: #ffffff; stroke-width: 0.611831; stroke-linecap: round"/>
   </g>
   <g id="line2d_35">
    <path d="M 270.177621 220.214216 
L 270.284794 221.178776 
L 270.713488 221.92899 
L 271.463702 222.464858 
L 272.321089 222.786378 
L 273.178477 222.786378 
L 274.035864 222.464858 
L 274.786078 221.92899 
L 275.214772 221.178776 
L 275.429118 220.214216 
L 275.214772 219.356828 
L 274.786078 218.499441 
L 274.035864 217.963574 
L 273.178477 217.642054 
L 272.321089 217.642054 
L 271.463702 217.963574 
L 270.713488 218.499441 
L 270.284794 219.356828 
L 270.177621 220.214216 
" clip-path="url(#p641c4ea31b)" style="fill: none; stroke: #ffffff; stroke-width: 0.611831; stroke-linecap: round"/>
   </g>
   <g id="line2d_36">
    <path d="M 187.070446 242.962299 
L 225.921722 242.962299 
" clip-path="url(#p641c4ea31b)" style="fill: none; stroke: #c90d15; stroke-width: 0.764789; stroke-linecap: square"/>
   </g>
   <g id="line2d_37">
    <path d="M 276.075093 243.605777 
L 272.21685 243.605777 
L 271.359462 243.498604 
L 270.609248 243.06991 
L 270.073381 242.534043 
L 269.644688 241.783829 
L 269.537514 240.926442 
L 269.537514 240.283401 
L 269.751861 239.31884 
L 270.180555 238.35428 
L 270.930769 237.711239 
L 271.788156 237.175372 
L 272.85989 237.068199 
L 273.824451 237.175372 
L 274.789012 237.711239 
L 275.539226 238.35428 
L 275.967919 239.31884 
L 276.075093 240.283401 
L 276.075093 243.605777 
L 275.967919 244.999032 
L 275.432052 246.285113 
L 274.574665 247.356847 
L 273.502931 248.107061 
L 272.21685 248.642928 
L 270.823595 248.857275 
" clip-path="url(#p641c4ea31b)" style="fill: none; stroke: #ffffff; stroke-width: 0.611831; stroke-linecap: round"/>
   </g>
   <g id="line2d_38">
    <path d="M 187.070446 262.387937 
L 225.921722 262.387937 
" clip-path="url(#p641c4ea31b)" style="fill: none; stroke: #c90d15; stroke-width: 0.764789; stroke-linecap: square"/>
   </g>
   <g id="line2d_39">
    <path d="M 269.48081 259.065157 
L 272.802795 256.493298 
L 272.802795 256.493298 
L 272.80274 268.282462 
L 272.80274 268.282462 
" clip-path="url(#p641c4ea31b)" style="fill: none; stroke: #ffffff; stroke-width: 0.611831; stroke-linecap: round"/>
   </g>
   <g id="line2d_40">
    <path d="M 269.481008 268.282215 
L 276.12576 268.282215 
" clip-path="url(#p641c4ea31b)" style="fill: none; stroke: #ffffff; stroke-width: 0.611831; stroke-linecap: round"/>
   </g>
   <g id="line2d_41">
    <path d="M 281.927178 256.492928 
L 281.284137 256.600102 
L 280.533924 256.921622 
L 279.998056 257.457489 
L 279.676536 258.10053 
L 279.140669 259.493784 
L 278.819149 260.887039 
L 278.711975 262.387466 
L 278.819149 263.887894 
L 279.140669 265.281149 
L 279.676536 266.674403 
L 279.676536 266.674403 
L 279.998056 267.317444 
L 279.998056 267.317444 
L 280.533924 267.853311 
L 281.284137 268.174831 
L 281.927178 268.282005 
L 282.677392 268.174831 
L 283.427606 267.853311 
L 283.963473 267.317444 
L 284.284993 266.674403 
L 284.82086 265.281149 
L 285.142381 263.887894 
L 285.249554 262.387466 
L 285.142381 260.887039 
L 284.82086 259.493784 
L 284.284993 258.10053 
L 283.963473 257.457489 
L 283.427606 256.921622 
L 282.677392 256.600102 
L 281.927178 256.492928 
" clip-path="url(#p641c4ea31b)" style="fill: none; stroke: #ffffff; stroke-width: 0.611831; stroke-linecap: round"/>
   </g>
   <g id="line2d_42">
    <path d="M 279.354947 265.710523 
L 284.606095 259.066222 
" clip-path="url(#p641c4ea31b)" style="fill: none; stroke: #ffffff; stroke-width: 0.611831; stroke-linecap: round"/>
   </g>
   <g id="patch_5">
    <path d="M 225.921722 94.561204 
C 227.779206 94.561204 229.560863 93.823218 230.874304 92.509778 
C 232.187744 91.196338 232.92573 89.414681 232.92573 87.557196 
C 232.92573 85.699711 232.187744 83.918054 230.874304 82.604614 
C 229.560863 81.291174 227.779206 80.553187 225.921722 80.553187 
C 224.064237 80.553187 222.28258 81.291174 220.96914 82.604614 
C 219.6557 83.918054 218.917713 85.699711 218.917713 87.557196 
C 218.917713 89.414681 219.6557 91.196338 220.96914 92.509778 
C 222.28258 93.823218 224.064237 94.561204 225.921722 94.561204 
L 225.921722 94.561204 
z
" clip-path="url(#p641c4ea31b)" style="fill: none; stroke: #c90d15; stroke-width: 1.942564; stroke-linejoin: miter"/>
   </g>
   <g id="patch_6">
    <path d="M 225.921722 113.986842 
C 227.779206 113.986842 229.560863 113.248856 230.874304 111.935416 
C 232.187744 110.621975 232.92573 108.840318 232.92573 106.982834 
C 232.92573 105.125349 232.187744 103.343692 230.874304 102.030252 
C 229.560863 100.716812 227.779206 99.978825 225.921722 99.978825 
C 224.064237 99.978825 222.28258 100.716812 220.96914 102.030252 
C 219.6557 103.343692 218.917713 105.125349 218.917713 106.982834 
C 218.917713 108.840318 219.6557 110.621975 220.96914 111.935416 
C 222.28258 113.248856 224.064237 113.986842 225.921722 113.986842 
L 225.921722 113.986842 
z
" clip-path="url(#p641c4ea31b)" style="fill: none; stroke: #c90d15; stroke-width: 1.942564; stroke-linejoin: miter"/>
   </g>
   <g id="patch_7">
    <path d="M 225.921722 133.41248 
C 227.779206 133.41248 229.560863 132.674493 230.874304 131.361053 
C 232.187744 130.047613 232.92573 128.265956 232.92573 126.408472 
C 232.92573 124.550987 232.187744 122.76933 230.874304 121.45589 
C 229.560863 120.14245 227.779206 119.404463 225.921722 119.404463 
C 224.064237 119.404463 222.28258 120.14245 220.96914 121.45589 
C 219.6557 122.76933 218.917713 124.550987 218.917713 126.408472 
C 218.917713 128.265956 219.6557 130.047613 220.96914 131.361053 
C 222.28258 132.674493 224.064237 133.41248 225.921722 133.41248 
L 225.921722 133.41248 
z
" clip-path="url(#p641c4ea31b)" style="fill: none; stroke: #c90d15; stroke-width: 1.942564; stroke-linejoin: miter"/>
   </g>
   <g id="patch_8">
    <path d="M 225.921722 152.838118 
C 227.779206 152.838118 229.560863 152.100131 230.874304 150.786691 
C 232.187744 149.473251 232.92573 147.691594 232.92573 145.834109 
C 232.92573 143.976625 232.187744 142.194968 230.874304 140.881528 
C 229.560863 139.568088 227.779206 138.830101 225.921722 138.830101 
C 224.064237 138.830101 222.28258 139.568088 220.96914 140.881528 
C 219.6557 142.194968 218.917713 143.976625 218.917713 145.834109 
C 218.917713 147.691594 219.6557 149.473251 220.96914 150.786691 
C 222.28258 152.100131 224.064237 152.838118 225.921722 152.838118 
L 225.921722 152.838118 
z
" clip-path="url(#p641c4ea31b)" style="fill: none; stroke: #c90d15; stroke-width: 1.942564; stroke-linejoin: miter"/>
   </g>
   <g id="patch_9">
    <path d="M 225.921722 172.263756 
C 227.779206 172.263756 229.560863 171.525769 230.874304 170.212329 
C 232.187744 168.898889 232.92573 167.117232 232.92573 165.259747 
C 232.92573 163.402263 232.187744 161.620606 230.874304 160.307166 
C 229.560863 158.993725 227.779206 158.255739 225.921722 158.255739 
C 224.064237 158.255739 222.28258 158.993725 220.96914 160.307166 
C 219.6557 161.620606 218.917713 163.402263 218.917713 165.259747 
C 218.917713 167.117232 219.6557 168.898889 220.96914 170.212329 
C 222.28258 171.525769 224.064237 172.263756 225.921722 172.263756 
L 225.921722 172.263756 
z
" clip-path="url(#p641c4ea31b)" style="fill: none; stroke: #c90d15; stroke-width: 1.942564; stroke-linejoin: miter"/>
   </g>
   <g id="patch_10">
    <path d="M 225.921722 191.689394 
C 227.779206 191.689394 229.560863 190.951407 230.874304 189.637967 
C 232.187744 188.324527 232.92573 186.54287 232.92573 184.685385 
C 232.92573 182.8279 232.187744 181.046243 230.874304 179.732803 
C 229.560863 178.419363 227.779206 177.681377 225.921722 177.681377 
C 224.064237 177.681377 222.28258 178.419363 220.96914 179.732803 
C 219.6557 181.046243 218.917713 182.8279 218.917713 184.685385 
C 218.917713 186.54287 219.6557 188.324527 220.96914 189.637967 
C 222.28258 190.951407 224.064237 191.689394 225.921722 191.689394 
L 225.921722 191.689394 
z
" clip-path="url(#p641c4ea31b)" style="fill: none; stroke: #c90d15; stroke-width: 1.942564; stroke-linejoin: miter"/>
   </g>
   <g id="patch_11">
    <path d="M 225.921722 230.540669 
C 227.779206 230.540669 229.560863 229.802683 230.874304 228.489243 
C 232.187744 227.175803 232.92573 225.394146 232.92573 223.536661 
C 232.92573 221.679176 232.187744 219.897519 230.874304 218.584079 
C 229.560863 217.270639 227.779206 216.532653 225.921722 216.532653 
C 224.064237 216.532653 222.28258 217.270639 220.96914 218.584079 
C 219.6557 219.897519 218.917713 221.679176 218.917713 223.536661 
C 218.917713 225.394146 219.6557 227.175803 220.96914 228.489243 
C 222.28258 229.802683 224.064237 230.540669 225.921722 230.540669 
L 225.921722 230.540669 
z
" clip-path="url(#p641c4ea31b)" style="fill: none; stroke: #c90d15; stroke-width: 1.942564; stroke-linejoin: miter"/>
   </g>
   <g id="patch_12">
    <path d="M 225.921722 211.115031 
C 227.779206 211.115031 229.560863 210.377045 230.874304 209.063605 
C 232.187744 207.750165 232.92573 205.968508 232.92573 204.111023 
C 232.92573 202.253538 232.187744 200.471881 230.874304 199.158441 
C 229.560863 197.845001 227.779206 197.107015 225.921722 197.107015 
C 224.064237 197.107015 222.28258 197.845001 220.96914 199.158441 
C 219.6557 200.471881 218.917713 202.253538 218.917713 204.111023 
C 218.917713 205.968508 219.6557 207.750165 220.96914 209.063605 
C 222.28258 210.377045 224.064237 211.115031 225.921722 211.115031 
L 225.921722 211.115031 
z
" clip-path="url(#p641c4ea31b)" style="fill: none; stroke: #c90d15; stroke-width: 1.942564; stroke-linejoin: miter"/>
   </g>
   <g id="patch_13">
    <path d="M 225.921722 249.966307 
C 227.779206 249.966307 229.560863 249.228321 230.874304 247.914881 
C 232.187744 246.601441 232.92573 244.819784 232.92573 242.962299 
C 232.92573 241.104814 232.187744 239.323157 230.874304 238.009717 
C 229.560863 236.696277 227.779206 235.95829 225.921722 235.95829 
C 224.064237 235.95829 222.28258 236.696277 220.96914 238.009717 
C 219.6557 239.323157 218.917713 241.104814 218.917713 242.962299 
C 218.917713 244.819784 219.6557 246.601441 220.96914 247.914881 
C 222.28258 249.228321 224.064237 249.966307 225.921722 249.966307 
L 225.921722 249.966307 
z
" clip-path="url(#p641c4ea31b)" style="fill: none; stroke: #c90d15; stroke-width: 1.942564; stroke-linejoin: miter"/>
   </g>
   <g id="patch_14">
    <path d="M 225.921722 269.391945 
C 227.779206 269.391945 229.560863 268.653959 230.874304 267.340519 
C 232.187744 266.027078 232.92573 264.245421 232.92573 262.387937 
C 232.92573 260.530452 232.187744 258.748795 230.874304 257.435355 
C 229.560863 256.121915 227.779206 255.383928 225.921722 255.383928 
C 224.064237 255.383928 222.28258 256.121915 220.96914 257.435355 
C 219.6557 258.748795 218.917713 260.530452 218.917713 262.387937 
C 218.917713 264.245421 219.6557 266.027078 220.96914 267.340519 
C 222.28258 268.653959 224.064237 269.391945 225.921722 269.391945 
L 225.921722 269.391945 
z
" clip-path="url(#p641c4ea31b)" style="fill: none; stroke: #c90d15; stroke-width: 1.942564; stroke-linejoin: miter"/>
   </g>
   <g id="line2d_43">
    <path d="M 206.496084 68.131558 
L 264.772997 68.131558 
" clip-path="url(#p641c4ea31b)" style="fill: none; stroke: #c90d15; stroke-width: 1.942564; stroke-linecap: round"/>
   </g>
   <g id="line2d_44">
    <path d="M 264.772997 68.131558 
L 264.772997 281.813575 
" clip-path="url(#p641c4ea31b)" style="fill: none; stroke: #c90d15; stroke-width: 1.942564; stroke-linecap: round"/>
   </g>
   <g id="line2d_45">
    <path d="M 264.772997 281.813575 
L 206.496084 281.813575 
" clip-path="url(#p641c4ea31b)" style="fill: none; stroke: #c90d15; stroke-width: 1.942564; stroke-linecap: round"/>
   </g>
   <g id="line2d_46">
    <path d="M 206.496084 281.813575 
L 206.496084 68.131558 
" clip-path="url(#p641c4ea31b)" style="fill: none; stroke: #c90d15; stroke-width: 1.942564; stroke-linecap: round"/>
   </g>
   <g id="matplotlib.axis_1">
    <g id="xtick_1">
     <g id="line2d_47">
      <defs>
       <path id="m4dc99531a6" d="M 0 0 
L 0 3.5 
" style="stroke: #ffffff; stroke-width: 0.8"/>
      </defs>
      <g>
       <use xlink:href="#m4dc99531a6" x="207.107915" y="307.584" style="fill: #ffffff; stroke: #ffffff; stroke-width: 0.8"/>
      </g>
     </g>
     <g id="text_1">
      <text style="fill: #ffffff; font: 10px 'sans-serif'; text-anchor: middle" x="207.107915" y="322.182437" transform="rotate(-0, 207.107915, 322.182437)">−5</text>
     </g>
    </g>
    <g id="xtick_2">
     <g id="line2d_48">
      <g>
       <use xlink:href="#m4dc99531a6" x="245.34736" y="307.584" style="fill: #ffffff; stroke: #ffffff; stroke-width: 0.8"/>
      </g>
     </g>
     <g id="text_2">
      <text style="fill: #ffffff; font: 10px 'sans-serif'; text-anchor: middle" x="245.34736" y="322.182437" transform="rotate(-0, 245.34736, 322.182437)">0</text>
     </g>
    </g>
    <g id="xtick_3">
     <g id="line2d_49">
      <g>
       <use xlink:href="#m4dc99531a6" x="283.586804" y="307.584" style="fill: #ffffff; stroke: #ffffff; stroke-width: 0.8"/>
      </g>
     </g>
     <g id="text_3">
      <text style="fill: #ffffff; font: 10px 'sans-serif'; text-anchor: middle" x="283.586804" y="322.182437" transform="rotate(-0, 283.586804, 322.182437)">5</text>
     </g>
    </g>
   </g>
   <g id="matplotlib.axis_2">
    <g id="ytick_1">
     <g id="line2d_50">
      <defs>
       <path id="m41f37deaa7" d="M 0 0 
L -3.5 0 
" style="stroke: #ffffff; stroke-width: 0.8"/>
      </defs>
      <g>
       <use xlink:href="#m41f37deaa7" x="182.161491" y="279.978081" style="fill: #ffffff; stroke: #ffffff; stroke-width: 0.8"/>
      </g>
     </g>
     <g id="text_4">
      <text style="fill: #ffffff; font: 10px 'sans-serif'; text-anchor: end" x="175.161491" y="283.7773" transform="rotate(-0, 175.161491, 283.7773)">−15</text>
     </g>
    </g>
    <g id="ytick_2">
     <g id="line2d_51">
      <g>
       <use xlink:href="#m41f37deaa7" x="182.161491" y="241.738637" style="fill: #ffffff; stroke: #ffffff; stroke-width: 0.8"/>
      </g>
     </g>
     <g id="text_5">
      <text style="fill: #ffffff; font: 10px 'sans-serif'; text-anchor: end" x="175.161491" y="245.537855" transform="rotate(-0, 175.161491, 245.537855)">−10</text>
     </g>
    </g>
    <g id="ytick_3">
     <g id="line2d_52">
      <g>
       <use xlink:href="#m41f37deaa7" x="182.161491" y="203.499192" style="fill: #ffffff; stroke: #ffffff; stroke-width: 0.8"/>
      </g>
     </g>
     <g id="text_6">
      <text style="fill: #ffffff; font: 10px 'sans-serif'; text-anchor: end" x="175.161491" y="207.298411" transform="rotate(-0, 175.161491, 207.298411)">−5</text>
     </g>
    </g>
    <g id="ytick_4">
     <g id="line2d_53">
      <g>
       <use xlink:href="#m41f37deaa7" x="182.161491" y="165.259747" style="fill: #ffffff; stroke: #ffffff; stroke-width: 0.8"/>
      </g>
     </g>
     <g id="text_7">
      <text style="fill: #ffffff; font: 10px 'sans-serif'; text-anchor: end" x="175.161491" y="169.058966" transform="rotate(-0, 175.161491, 169.058966)">0</text>
     </g>
    </g>
    <g id="ytick_5">
     <g id="line2d_54">
      <g>
       <use xlink:href="#m41f37deaa7" x="182.161491" y="127.020303" style="fill: #ffffff; stroke: #ffffff; stroke-width: 0.8"/>
      </g>
     </g>
     <g id="text_8">
      <text style="fill: #ffffff; font: 10px 'sans-serif'; text-anchor: end" x="175.161491" y="130.819521" transform="rotate(-0, 175.161491, 130.819521)">5</text>
     </g>
    </g>
    <g id="ytick_6">
     <g id="line2d_55">
      <g>
       <use xlink:href="#m41f37deaa7" x="182.161491" y="88.780858" style="fill: #ffffff; stroke: #ffffff; stroke-width: 0.8"/>
      </g>
     </g>
     <g id="text_9">
      <text style="fill: #ffffff; font: 10px 'sans-serif'; text-anchor: end" x="175.161491" y="92.580077" transform="rotate(-0, 175.161491, 92.580077)">10</text>
     </g>
    </g>
    <g id="ytick_7">
     <g id="line2d_56">
      <g>
       <use xlink:href="#m41f37deaa7" x="182.161491" y="50.541413" style="fill: #ffffff; stroke: #ffffff; stroke-width: 0.8"/>
      </g>
     </g>
     <g id="text_10">
      <text style="fill: #ffffff; font: 10px 'sans-serif'; text-anchor: end" x="175.161491" y="54.340632" transform="rotate(-0, 175.161491, 54.340632)">15</text>
     </g>
    </g>
   </g>
   <g id="patch_15">
    <path d="M 182.161491 307.584 
L 182.161491 41.472 
" style="fill: none; stroke: #ffffff; stroke-width: 0.8; stroke-linejoin: miter; stroke-linecap: square"/>
   </g>
   <g id="patch_16">
    <path d="M 290.158509 307.584 
L 290.158509 41.472 
" style="fill: none; stroke: #ffffff; stroke-width: 0.8; stroke-linejoin: miter; stroke-linecap: square"/>
   </g>
   <g id="patch_17">
    <path d="M 182.161491 307.584 
L 290.158509 307.584 
" style="fill: none; stroke: #ffffff; stroke-width: 0.8; stroke-linejoin: miter; stroke-linecap: square"/>
   </g>
   <g id="patch_18">
    <path d="M 182.161491 41.472 
L 290.158509 41.472 
" style="fill: none; stroke: #ffffff; stroke-width: 0.8; stroke-linejoin: miter; stroke-linecap: square"/>
   </g>
   <g id="text_11">
    <text style="fill: #ffffff; font: 12px 'sans-serif'; text-anchor: middle" x="236.16" y="35.472" transform="rotate(-0, 236.16, 35.472)">CON-10</text>
   </g>
  </g>
 </g>
 <defs>
  <clipPath id="p641c4ea31b">
   <rect x="182.161491" y="41.472" width="107.997019" height="266.112"/>
  </clipPath>
 </defs>
</svg>
