<?xml version="1.0" encoding="utf-8" standalone="no"?>
<!DOCTYPE svg PUBLIC "-//W3C//DTD SVG 1.1//EN"
  "http://www.w3.org/Graphics/SVG/1.1/DTD/svg11.dtd">
<svg xmlns:xlink="http://www.w3.org/1999/xlink" width="460.8pt" height="345.6pt" viewBox="0 0 460.8 345.6" xmlns="http://www.w3.org/2000/svg" version="1.1">
 <metadata>
  <rdf:RDF xmlns:dc="http://purl.org/dc/elements/1.1/" xmlns:cc="http://creativecommons.org/ns#" xmlns:rdf="http://www.w3.org/1999/02/22-rdf-syntax-ns#">
   <cc:Work>
    <dc:type rdf:resource="http://purl.org/dc/dcmitype/StillImage"/>
    <dc:date>2021-12-22T04:54:09.586406</dc:date>
    <dc:format>image/svg+xml</dc:format>
    <dc:creator>
     <cc:Agent>
      <dc:title>Matplotlib v3.5.1, https://matplotlib.org/</dc:title>
     </cc:Agent>
    </dc:creator>
   </cc:Work>
  </rdf:RDF>
 </metadata>
 <defs>
  <style type="text/css">*{stroke-linejoin: round; stroke-linecap: butt}</style>
 </defs>
 <g id="figure_1">
  <g id="patch_1">
   <path d="M 0 345.6 
L 460.8 345.6 
L 460.8 0 
L 0 0 
z
" style="fill: #2b2b2b"/>
  </g>
  <g id="axes_1">
   <g id="patch_2">
    <path d="M 103.104 307.584 
L 369.216 307.584 
L 369.216 41.472 
L 103.104 41.472 
z
" style="fill: #2b2b2b"/>
   </g>
   <g id="text_1">
    <text style="fill: #ffffff; font: 1.27px 'sans-serif'; text-anchor: start" x="175.68" y="337.824" transform="rotate(-0, 175.68, 337.824)">&gt;VALUE</text>
   </g>
   <g id="text_2">
    <text style="fill: #ffffff; font: 1.27px 'sans-serif'; text-anchor: start" x="175.68" y="35.424" transform="rotate(-0, 175.68, 35.424)">&gt;NAME</text>
   </g>
   <g id="line2d_1">
    <path d="M 115.2 114.048 
L 175.68 114.048 
" clip-path="url(#p7fe3328a92)" style="fill: none; stroke: #c90d15; stroke-width: 2.381102; stroke-linecap: square"/>
   </g>
   <g id="text_3">
    <text style="fill: #c90d15; font: 10px 'sans-serif'; text-anchor: start" x="236.16" y="116.807375" transform="rotate(-0, 236.16, 116.807375)">1</text>
   </g>
   <g id="line2d_2">
    <path d="M 115.2 174.528 
L 175.68 174.528 
" clip-path="url(#p7fe3328a92)" style="fill: none; stroke: #c90d15; stroke-width: 2.381102; stroke-linecap: square"/>
   </g>
   <g id="text_4">
    <text style="fill: #c90d15; font: 10px 'sans-serif'; text-anchor: start" x="236.16" y="177.287375" transform="rotate(-0, 236.16, 177.287375)">2</text>
   </g>
   <g id="line2d_3">
    <path d="M 115.2 235.008 
L 175.68 235.008 
" clip-path="url(#p7fe3328a92)" style="fill: none; stroke: #c90d15; stroke-width: 2.381102; stroke-linecap: square"/>
   </g>
   <g id="text_5">
    <text style="fill: #c90d15; font: 10px 'sans-serif'; text-anchor: start" x="236.16" y="237.767375" transform="rotate(-0, 236.16, 237.767375)">3</text>
   </g>
   <g id="patch_3">
    <path d="M 236.16 135.854359 
C 241.943114 135.854359 247.490145 133.556703 251.579424 129.467424 
C 255.668703 125.378145 257.966359 119.831114 257.966359 114.048 
C 257.966359 108.264886 255.668703 102.717855 251.579424 98.628576 
C 247.490145 94.539297 241.943114 92.241641 236.16 92.241641 
C 230.376886 92.241641 224.829855 94.539297 220.740576 98.628576 
C 216.651297 102.717855 214.353641 108.264886 214.353641 114.048 
C 214.353641 119.831114 216.651297 125.378145 220.740576 129.467424 
C 224.829855 133.556703 230.376886 135.854359 236.16 135.854359 
L 236.16 135.854359 
z
" clip-path="url(#p7fe3328a92)" style="fill: none; stroke: #c90d15; stroke-width: 6.048; stroke-linejoin: miter"/>
   </g>
   <g id="patch_4">
    <path d="M 236.16 196.334359 
C 241.943114 196.334359 247.490145 194.036703 251.579424 189.947424 
C 255.668703 185.858145 257.966359 180.311114 257.966359 174.528 
C 257.966359 168.744886 255.668703 163.197855 251.579424 159.108576 
C 247.490145 155.019297 241.943114 152.721641 236.16 152.721641 
C 230.376886 152.721641 224.829855 155.019297 220.740576 159.108576 
C 216.651297 163.197855 214.353641 168.744886 214.353641 174.528 
C 214.353641 180.311114 216.651297 185.858145 220.740576 189.947424 
C 224.829855 194.036703 230.376886 196.334359 236.16 196.334359 
L 236.16 196.334359 
z
" clip-path="url(#p7fe3328a92)" style="fill: none; stroke: #c90d15; stroke-width: 6.048; stroke-linejoin: miter"/>
   </g>
   <g id="patch_5">
    <path d="M 236.16 256.814359 
C 241.943114 256.814359 247.490145 254.516703 251.579424 250.427424 
C 255.668703 246.338145 257.966359 240.791114 257.966359 235.008 
C 257.966359 229.224886 255.668703 223.677855 251.579424 219.588576 
C 247.490145 215.499297 241.943114 213.201641 236.16 213.201641 
C 230.376886 213.201641 224.829855 215.499297 220.740576 219.588576 
C 216.651297 223.677855 214.353641 229.224886 214.353641 235.008 
C 214.353641 240.791114 216.651297 246.338145 220.740576 250.427424 
C 224.829855 254.516703 230.376886 256.814359 236.16 256.814359 
L 236.16 256.814359 
z
" clip-path="url(#p7fe3328a92)" style="fill: none; stroke: #c90d15; stroke-width: 6.048; stroke-linejoin: miter"/>
   </g>
   <g id="line2d_4">
    <path d="M 175.68 53.568 
L 357.12 53.568 
" clip-path="url(#p7fe3328a92)" style="fill: none; stroke: #c90d15; stroke-width: 6.048; stroke-linecap: square"/>
   </g>
   <g id="line2d_5">
    <path d="M 357.12 53.568 
L 357.12 295.488 
" clip-path="url(#p7fe3328a92)" style="fill: none; stroke: #c90d15; stroke-width: 6.048; stroke-linecap: square"/>
   </g>
   <g id="line2d_6">
    <path d="M 357.12 295.488 
L 175.68 295.488 
" clip-path="url(#p7fe3328a92)" style="fill: none; stroke: #c90d15; stroke-width: 6.048; stroke-linecap: square"/>
   </g>
   <g id="line2d_7">
    <path d="M 175.68 295.488 
L 175.68 53.568 
" clip-path="url(#p7fe3328a92)" style="fill: none; stroke: #c90d15; stroke-width: 6.048; stroke-linecap: square"/>
   </g>
   <g id="matplotlib.axis_1">
    <g id="xtick_1">
     <g id="line2d_8">
      <defs>
       <path id="ma8c8bfd9f4" d="M 0 0 
L 0 3.5 
" style="stroke: #ffffff; stroke-width: 0.8"/>
      </defs>
      <g>
       <use xlink:href="#ma8c8bfd9f4" x="140.915906" y="307.584" style="fill: #ffffff; stroke: #ffffff; stroke-width: 0.8"/>
      </g>
     </g>
     <g id="text_6">
      <text style="fill: #ffffff; font: 10px 'sans-serif'; text-anchor: middle" x="140.915906" y="322.182437" transform="rotate(-0, 140.915906, 322.182437)">−4</text>
     </g>
    </g>
    <g id="xtick_2">
     <g id="line2d_9">
      <g>
       <use xlink:href="#ma8c8bfd9f4" x="188.537953" y="307.584" style="fill: #ffffff; stroke: #ffffff; stroke-width: 0.8"/>
      </g>
     </g>
     <g id="text_7">
      <text style="fill: #ffffff; font: 10px 'sans-serif'; text-anchor: middle" x="188.537953" y="322.182437" transform="rotate(-0, 188.537953, 322.182437)">−2</text>
     </g>
    </g>
    <g id="xtick_3">
     <g id="line2d_10">
      <g>
       <use xlink:href="#ma8c8bfd9f4" x="236.16" y="307.584" style="fill: #ffffff; stroke: #ffffff; stroke-width: 0.8"/>
      </g>
     </g>
     <g id="text_8">
      <text style="fill: #ffffff; font: 10px 'sans-serif'; text-anchor: middle" x="236.16" y="322.182437" transform="rotate(-0, 236.16, 322.182437)">0</text>
     </g>
    </g>
    <g id="xtick_4">
     <g id="line2d_11">
      <g>
       <use xlink:href="#ma8c8bfd9f4" x="283.782047" y="307.584" style="fill: #ffffff; stroke: #ffffff; stroke-width: 0.8"/>
      </g>
     </g>
     <g id="text_9">
      <text style="fill: #ffffff; font: 10px 'sans-serif'; text-anchor: middle" x="283.782047" y="322.182437" transform="rotate(-0, 283.782047, 322.182437)">2</text>
     </g>
    </g>
    <g id="xtick_5">
     <g id="line2d_12">
      <g>
       <use xlink:href="#ma8c8bfd9f4" x="331.404094" y="307.584" style="fill: #ffffff; stroke: #ffffff; stroke-width: 0.8"/>
      </g>
     </g>
     <g id="text_10">
      <text style="fill: #ffffff; font: 10px 'sans-serif'; text-anchor: middle" x="331.404094" y="322.182437" transform="rotate(-0, 331.404094, 322.182437)">4</text>
     </g>
    </g>
   </g>
   <g id="matplotlib.axis_2">
    <g id="ytick_1">
     <g id="line2d_13">
      <defs>
       <path id="mca0e4d4652" d="M 0 0 
L -3.5 0 
" style="stroke: #ffffff; stroke-width: 0.8"/>
      </defs>
      <g>
       <use xlink:href="#mca0e4d4652" x="103.104" y="269.772094" style="fill: #ffffff; stroke: #ffffff; stroke-width: 0.8"/>
      </g>
     </g>
     <g id="text_11">
      <text style="fill: #ffffff; font: 10px 'sans-serif'; text-anchor: end" x="96.104" y="273.571313" transform="rotate(-0, 96.104, 273.571313)">−4</text>
     </g>
    </g>
    <g id="ytick_2">
     <g id="line2d_14">
      <g>
       <use xlink:href="#mca0e4d4652" x="103.104" y="222.150047" style="fill: #ffffff; stroke: #ffffff; stroke-width: 0.8"/>
      </g>
     </g>
     <g id="text_12">
      <text style="fill: #ffffff; font: 10px 'sans-serif'; text-anchor: end" x="96.104" y="225.949266" transform="rotate(-0, 96.104, 225.949266)">−2</text>
     </g>
    </g>
    <g id="ytick_3">
     <g id="line2d_15">
      <g>
       <use xlink:href="#mca0e4d4652" x="103.104" y="174.528" style="fill: #ffffff; stroke: #ffffff; stroke-width: 0.8"/>
      </g>
     </g>
     <g id="text_13">
      <text style="fill: #ffffff; font: 10px 'sans-serif'; text-anchor: end" x="96.104" y="178.327219" transform="rotate(-0, 96.104, 178.327219)">0</text>
     </g>
    </g>
    <g id="ytick_4">
     <g id="line2d_16">
      <g>
       <use xlink:href="#mca0e4d4652" x="103.104" y="126.905953" style="fill: #ffffff; stroke: #ffffff; stroke-width: 0.8"/>
      </g>
     </g>
     <g id="text_14">
      <text style="fill: #ffffff; font: 10px 'sans-serif'; text-anchor: end" x="96.104" y="130.705172" transform="rotate(-0, 96.104, 130.705172)">2</text>
     </g>
    </g>
    <g id="ytick_5">
     <g id="line2d_17">
      <g>
       <use xlink:href="#mca0e4d4652" x="103.104" y="79.283906" style="fill: #ffffff; stroke: #ffffff; stroke-width: 0.8"/>
      </g>
     </g>
     <g id="text_15">
      <text style="fill: #ffffff; font: 10px 'sans-serif'; text-anchor: end" x="96.104" y="83.083124" transform="rotate(-0, 96.104, 83.083124)">4</text>
     </g>
    </g>
   </g>
   <g id="patch_6">
    <path d="M 103.104 307.584 
L 103.104 41.472 
" style="fill: none; stroke: #ffffff; stroke-width: 0.8; stroke-linejoin: miter; stroke-linecap: square"/>
   </g>
   <g id="patch_7">
    <path d="M 369.216 307.584 
L 369.216 41.472 
" style="fill: none; stroke: #ffffff; stroke-width: 0.8; stroke-linejoin: miter; stroke-linecap: square"/>
   </g>
   <g id="patch_8">
    <path d="M 103.104 307.584 
L 369.216 307.584 
" style="fill: none; stroke: #ffffff; stroke-width: 0.8; stroke-linejoin: miter; stroke-linecap: square"/>
   </g>
   <g id="patch_9">
    <path d="M 103.104 41.472 
L 369.216 41.472 
" style="fill: none; stroke: #ffffff; stroke-width: 0.8; stroke-linejoin: miter; stroke-linecap: square"/>
   </g>
   <g id="text_16">
    <text style="fill: #ffffff; font: 12px 'sans-serif'; text-anchor: middle" x="236.16" y="35.472" transform="rotate(-0, 236.16, 35.472)">CON-3</text>
   </g>
  </g>
 </g>
 <defs>
  <clipPath id="p7fe3328a92">
   <rect x="103.104" y="41.472" width="266.112" height="266.112"/>
  </clipPath>
 </defs>
</svg>
