<?xml version="1.0" encoding="utf-8" standalone="no"?>
<!DOCTYPE svg PUBLIC "-//W3C//DTD SVG 1.1//EN"
  "http://www.w3.org/Graphics/SVG/1.1/DTD/svg11.dtd">
<svg xmlns:xlink="http://www.w3.org/1999/xlink" width="460.8pt" height="345.6pt" viewBox="0 0 460.8 345.6" xmlns="http://www.w3.org/2000/svg" version="1.1">
 <metadata>
  <rdf:RDF xmlns:dc="http://purl.org/dc/elements/1.1/" xmlns:cc="http://creativecommons.org/ns#" xmlns:rdf="http://www.w3.org/1999/02/22-rdf-syntax-ns#">
   <cc:Work>
    <dc:type rdf:resource="http://purl.org/dc/dcmitype/StillImage"/>
    <dc:date>2021-12-22T04:54:09.918286</dc:date>
    <dc:format>image/svg+xml</dc:format>
    <dc:creator>
     <cc:Agent>
      <dc:title>Matplotlib v3.5.1, https://matplotlib.org/</dc:title>
     </cc:Agent>
    </dc:creator>
   </cc:Work>
  </rdf:RDF>
 </metadata>
 <defs>
  <style type="text/css">*{stroke-linejoin: round; stroke-linecap: butt}</style>
 </defs>
 <g id="figure_1">
  <g id="patch_1">
   <path d="M 0 345.6 
L 460.8 345.6 
L 460.8 0 
L 0 0 
z
" style="fill: #2b2b2b"/>
  </g>
  <g id="axes_1">
   <g id="patch_2">
    <path d="M 160.128 307.584 
L 312.192 307.584 
L 312.192 41.472 
L 160.128 41.472 
z
" style="fill: #2b2b2b"/>
   </g>
   <g id="text_1">
    <text style="fill: #ffffff; font: 1.27px 'sans-serif'; text-anchor: start" x="201.6" y="319.68" transform="rotate(-0, 201.6, 319.68)">&gt;VALUE</text>
   </g>
   <g id="text_2">
    <text style="fill: #ffffff; font: 1.27px 'sans-serif'; text-anchor: start" x="201.6" y="43.2" transform="rotate(-0, 201.6, 43.2)">&gt;NAME</text>
   </g>
   <g id="line2d_1">
    <path d="M 167.04 88.128 
L 201.6 88.128 
" clip-path="url(#pa7ca800f29)" style="fill: none; stroke: #c90d15; stroke-width: 1.36063; stroke-linecap: square"/>
   </g>
   <g id="text_3">
    <text style="fill: #c90d15; font: 10px 'sans-serif'; text-anchor: start" x="236.16" y="90.887375" transform="rotate(-0, 236.16, 90.887375)">1</text>
   </g>
   <g id="line2d_2">
    <path d="M 167.04 122.688 
L 201.6 122.688 
" clip-path="url(#pa7ca800f29)" style="fill: none; stroke: #c90d15; stroke-width: 1.36063; stroke-linecap: square"/>
   </g>
   <g id="text_4">
    <text style="fill: #c90d15; font: 10px 'sans-serif'; text-anchor: start" x="236.16" y="125.447375" transform="rotate(-0, 236.16, 125.447375)">2</text>
   </g>
   <g id="line2d_3">
    <path d="M 167.04 157.248 
L 201.6 157.248 
" clip-path="url(#pa7ca800f29)" style="fill: none; stroke: #c90d15; stroke-width: 1.36063; stroke-linecap: square"/>
   </g>
   <g id="text_5">
    <text style="fill: #c90d15; font: 10px 'sans-serif'; text-anchor: start" x="236.16" y="160.007375" transform="rotate(-0, 236.16, 160.007375)">3</text>
   </g>
   <g id="line2d_4">
    <path d="M 167.04 191.808 
L 201.6 191.808 
" clip-path="url(#pa7ca800f29)" style="fill: none; stroke: #c90d15; stroke-width: 1.36063; stroke-linecap: square"/>
   </g>
   <g id="text_6">
    <text style="fill: #c90d15; font: 10px 'sans-serif'; text-anchor: start" x="236.16" y="194.567375" transform="rotate(-0, 236.16, 194.567375)">4</text>
   </g>
   <g id="line2d_5">
    <path d="M 167.04 226.368 
L 201.6 226.368 
" clip-path="url(#pa7ca800f29)" style="fill: none; stroke: #c90d15; stroke-width: 1.36063; stroke-linecap: square"/>
   </g>
   <g id="text_7">
    <text style="fill: #c90d15; font: 10px 'sans-serif'; text-anchor: start" x="236.16" y="229.127375" transform="rotate(-0, 236.16, 229.127375)">5</text>
   </g>
   <g id="line2d_6">
    <path d="M 167.04 260.928 
L 201.6 260.928 
" clip-path="url(#pa7ca800f29)" style="fill: none; stroke: #c90d15; stroke-width: 1.36063; stroke-linecap: square"/>
   </g>
   <g id="text_8">
    <text style="fill: #c90d15; font: 10px 'sans-serif'; text-anchor: start" x="236.16" y="263.687375" transform="rotate(-0, 236.16, 263.687375)">6</text>
   </g>
   <g id="patch_3">
    <path d="M 236.16 100.588776 
C 239.464637 100.588776 242.634369 99.27583 244.971099 96.939099 
C 247.30783 94.602369 248.620776 91.432637 248.620776 88.128 
C 248.620776 84.823363 247.30783 81.653631 244.971099 79.316901 
C 242.634369 76.98017 239.464637 75.667224 236.16 75.667224 
C 232.855363 75.667224 229.685631 76.98017 227.348901 79.316901 
C 225.01217 81.653631 223.699224 84.823363 223.699224 88.128 
C 223.699224 91.432637 225.01217 94.602369 227.348901 96.939099 
C 229.685631 99.27583 232.855363 100.588776 236.16 100.588776 
L 236.16 100.588776 
z
" clip-path="url(#pa7ca800f29)" style="fill: none; stroke: #c90d15; stroke-width: 3.456; stroke-linejoin: miter"/>
   </g>
   <g id="patch_4">
    <path d="M 236.16 135.148776 
C 239.464637 135.148776 242.634369 133.83583 244.971099 131.499099 
C 247.30783 129.162369 248.620776 125.992637 248.620776 122.688 
C 248.620776 119.383363 247.30783 116.213631 244.971099 113.876901 
C 242.634369 111.54017 239.464637 110.227224 236.16 110.227224 
C 232.855363 110.227224 229.685631 111.54017 227.348901 113.876901 
C 225.01217 116.213631 223.699224 119.383363 223.699224 122.688 
C 223.699224 125.992637 225.01217 129.162369 227.348901 131.499099 
C 229.685631 133.83583 232.855363 135.148776 236.16 135.148776 
L 236.16 135.148776 
z
" clip-path="url(#pa7ca800f29)" style="fill: none; stroke: #c90d15; stroke-width: 3.456; stroke-linejoin: miter"/>
   </g>
   <g id="patch_5">
    <path d="M 236.16 169.708776 
C 239.464637 169.708776 242.634369 168.39583 244.971099 166.059099 
C 247.30783 163.722369 248.620776 160.552637 248.620776 157.248 
C 248.620776 153.943363 247.30783 150.773631 244.971099 148.436901 
C 242.634369 146.10017 239.464637 144.787224 236.16 144.787224 
C 232.855363 144.787224 229.685631 146.10017 227.348901 148.436901 
C 225.01217 150.773631 223.699224 153.943363 223.699224 157.248 
C 223.699224 160.552637 225.01217 163.722369 227.348901 166.059099 
C 229.685631 168.39583 232.855363 169.708776 236.16 169.708776 
L 236.16 169.708776 
z
" clip-path="url(#pa7ca800f29)" style="fill: none; stroke: #c90d15; stroke-width: 3.456; stroke-linejoin: miter"/>
   </g>
   <g id="patch_6">
    <path d="M 236.16 204.268776 
C 239.464637 204.268776 242.634369 202.95583 244.971099 200.619099 
C 247.30783 198.282369 248.620776 195.112637 248.620776 191.808 
C 248.620776 188.503363 247.30783 185.333631 244.971099 182.996901 
C 242.634369 180.66017 239.464637 179.347224 236.16 179.347224 
C 232.855363 179.347224 229.685631 180.66017 227.348901 182.996901 
C 225.01217 185.333631 223.699224 188.503363 223.699224 191.808 
C 223.699224 195.112637 225.01217 198.282369 227.348901 200.619099 
C 229.685631 202.95583 232.855363 204.268776 236.16 204.268776 
L 236.16 204.268776 
z
" clip-path="url(#pa7ca800f29)" style="fill: none; stroke: #c90d15; stroke-width: 3.456; stroke-linejoin: miter"/>
   </g>
   <g id="patch_7">
    <path d="M 236.16 238.828776 
C 239.464637 238.828776 242.634369 237.51583 244.971099 235.179099 
C 247.30783 232.842369 248.620776 229.672637 248.620776 226.368 
C 248.620776 223.063363 247.30783 219.893631 244.971099 217.556901 
C 242.634369 215.22017 239.464637 213.907224 236.16 213.907224 
C 232.855363 213.907224 229.685631 215.22017 227.348901 217.556901 
C 225.01217 219.893631 223.699224 223.063363 223.699224 226.368 
C 223.699224 229.672637 225.01217 232.842369 227.348901 235.179099 
C 229.685631 237.51583 232.855363 238.828776 236.16 238.828776 
L 236.16 238.828776 
z
" clip-path="url(#pa7ca800f29)" style="fill: none; stroke: #c90d15; stroke-width: 3.456; stroke-linejoin: miter"/>
   </g>
   <g id="patch_8">
    <path d="M 236.16 273.388776 
C 239.464637 273.388776 242.634369 272.07583 244.971099 269.739099 
C 247.30783 267.402369 248.620776 264.232637 248.620776 260.928 
C 248.620776 257.623363 247.30783 254.453631 244.971099 252.116901 
C 242.634369 249.78017 239.464637 248.467224 236.16 248.467224 
C 232.855363 248.467224 229.685631 249.78017 227.348901 252.116901 
C 225.01217 254.453631 223.699224 257.623363 223.699224 260.928 
C 223.699224 264.232637 225.01217 267.402369 227.348901 269.739099 
C 229.685631 272.07583 232.855363 273.388776 236.16 273.388776 
L 236.16 273.388776 
z
" clip-path="url(#pa7ca800f29)" style="fill: none; stroke: #c90d15; stroke-width: 3.456; stroke-linejoin: miter"/>
   </g>
   <g id="line2d_7">
    <path d="M 201.6 53.568 
L 305.28 53.568 
" clip-path="url(#pa7ca800f29)" style="fill: none; stroke: #c90d15; stroke-width: 3.456; stroke-linecap: square"/>
   </g>
   <g id="line2d_8">
    <path d="M 305.28 53.568 
L 305.28 295.488 
" clip-path="url(#pa7ca800f29)" style="fill: none; stroke: #c90d15; stroke-width: 3.456; stroke-linecap: square"/>
   </g>
   <g id="line2d_9">
    <path d="M 305.28 295.488 
L 201.6 295.488 
" clip-path="url(#pa7ca800f29)" style="fill: none; stroke: #c90d15; stroke-width: 3.456; stroke-linecap: square"/>
   </g>
   <g id="line2d_10">
    <path d="M 201.6 295.488 
L 201.6 53.568 
" clip-path="url(#pa7ca800f29)" style="fill: none; stroke: #c90d15; stroke-width: 3.456; stroke-linecap: square"/>
   </g>
   <g id="matplotlib.axis_1">
    <g id="xtick_1">
     <g id="line2d_11">
      <defs>
       <path id="mbada5a3966" d="M 0 0 
L 0 3.5 
" style="stroke: #ffffff; stroke-width: 0.8"/>
      </defs>
      <g>
       <use xlink:href="#mbada5a3966" x="168.672756" y="307.584" style="fill: #ffffff; stroke: #ffffff; stroke-width: 0.8"/>
      </g>
     </g>
     <g id="text_9">
      <text style="fill: #ffffff; font: 10px 'sans-serif'; text-anchor: middle" x="168.672756" y="322.182437" transform="rotate(-0, 168.672756, 322.182437)">−7.5</text>
     </g>
    </g>
    <g id="xtick_2">
     <g id="line2d_12">
      <g>
       <use xlink:href="#mbada5a3966" x="202.688504" y="307.584" style="fill: #ffffff; stroke: #ffffff; stroke-width: 0.8"/>
      </g>
     </g>
     <g id="text_10">
      <text style="fill: #ffffff; font: 10px 'sans-serif'; text-anchor: middle" x="202.688504" y="322.182437" transform="rotate(-0, 202.688504, 322.182437)">−5.0</text>
     </g>
    </g>
    <g id="xtick_3">
     <g id="line2d_13">
      <g>
       <use xlink:href="#mbada5a3966" x="236.704252" y="307.584" style="fill: #ffffff; stroke: #ffffff; stroke-width: 0.8"/>
      </g>
     </g>
     <g id="text_11">
      <text style="fill: #ffffff; font: 10px 'sans-serif'; text-anchor: middle" x="236.704252" y="322.182437" transform="rotate(-0, 236.704252, 322.182437)">−2.5</text>
     </g>
    </g>
    <g id="xtick_4">
     <g id="line2d_14">
      <g>
       <use xlink:href="#mbada5a3966" x="270.72" y="307.584" style="fill: #ffffff; stroke: #ffffff; stroke-width: 0.8"/>
      </g>
     </g>
     <g id="text_12">
      <text style="fill: #ffffff; font: 10px 'sans-serif'; text-anchor: middle" x="270.72" y="322.182437" transform="rotate(-0, 270.72, 322.182437)">0.0</text>
     </g>
    </g>
    <g id="xtick_5">
     <g id="line2d_15">
      <g>
       <use xlink:href="#mbada5a3966" x="304.735748" y="307.584" style="fill: #ffffff; stroke: #ffffff; stroke-width: 0.8"/>
      </g>
     </g>
     <g id="text_13">
      <text style="fill: #ffffff; font: 10px 'sans-serif'; text-anchor: middle" x="304.735748" y="322.182437" transform="rotate(-0, 304.735748, 322.182437)">2.5</text>
     </g>
    </g>
   </g>
   <g id="matplotlib.axis_2">
    <g id="ytick_1">
     <g id="line2d_16">
      <defs>
       <path id="me83af3a001" d="M 0 0 
L -3.5 0 
" style="stroke: #ffffff; stroke-width: 0.8"/>
      </defs>
      <g>
       <use xlink:href="#me83af3a001" x="160.128" y="293.310992" style="fill: #ffffff; stroke: #ffffff; stroke-width: 0.8"/>
      </g>
     </g>
     <g id="text_14">
      <text style="fill: #ffffff; font: 10px 'sans-serif'; text-anchor: end" x="153.128" y="297.110211" transform="rotate(-0, 153.128, 297.110211)">−10.0</text>
     </g>
    </g>
    <g id="ytick_2">
     <g id="line2d_17">
      <g>
       <use xlink:href="#me83af3a001" x="160.128" y="259.295244" style="fill: #ffffff; stroke: #ffffff; stroke-width: 0.8"/>
      </g>
     </g>
     <g id="text_15">
      <text style="fill: #ffffff; font: 10px 'sans-serif'; text-anchor: end" x="153.128" y="263.094463" transform="rotate(-0, 153.128, 263.094463)">−7.5</text>
     </g>
    </g>
    <g id="ytick_3">
     <g id="line2d_18">
      <g>
       <use xlink:href="#me83af3a001" x="160.128" y="225.279496" style="fill: #ffffff; stroke: #ffffff; stroke-width: 0.8"/>
      </g>
     </g>
     <g id="text_16">
      <text style="fill: #ffffff; font: 10px 'sans-serif'; text-anchor: end" x="153.128" y="229.078715" transform="rotate(-0, 153.128, 229.078715)">−5.0</text>
     </g>
    </g>
    <g id="ytick_4">
     <g id="line2d_19">
      <g>
       <use xlink:href="#me83af3a001" x="160.128" y="191.263748" style="fill: #ffffff; stroke: #ffffff; stroke-width: 0.8"/>
      </g>
     </g>
     <g id="text_17">
      <text style="fill: #ffffff; font: 10px 'sans-serif'; text-anchor: end" x="153.128" y="195.062967" transform="rotate(-0, 153.128, 195.062967)">−2.5</text>
     </g>
    </g>
    <g id="ytick_5">
     <g id="line2d_20">
      <g>
       <use xlink:href="#me83af3a001" x="160.128" y="157.248" style="fill: #ffffff; stroke: #ffffff; stroke-width: 0.8"/>
      </g>
     </g>
     <g id="text_18">
      <text style="fill: #ffffff; font: 10px 'sans-serif'; text-anchor: end" x="153.128" y="161.047219" transform="rotate(-0, 153.128, 161.047219)">0.0</text>
     </g>
    </g>
    <g id="ytick_6">
     <g id="line2d_21">
      <g>
       <use xlink:href="#me83af3a001" x="160.128" y="123.232252" style="fill: #ffffff; stroke: #ffffff; stroke-width: 0.8"/>
      </g>
     </g>
     <g id="text_19">
      <text style="fill: #ffffff; font: 10px 'sans-serif'; text-anchor: end" x="153.128" y="127.031471" transform="rotate(-0, 153.128, 127.031471)">2.5</text>
     </g>
    </g>
    <g id="ytick_7">
     <g id="line2d_22">
      <g>
       <use xlink:href="#me83af3a001" x="160.128" y="89.216504" style="fill: #ffffff; stroke: #ffffff; stroke-width: 0.8"/>
      </g>
     </g>
     <g id="text_20">
      <text style="fill: #ffffff; font: 10px 'sans-serif'; text-anchor: end" x="153.128" y="93.015723" transform="rotate(-0, 153.128, 93.015723)">5.0</text>
     </g>
    </g>
    <g id="ytick_8">
     <g id="line2d_23">
      <g>
       <use xlink:href="#me83af3a001" x="160.128" y="55.200756" style="fill: #ffffff; stroke: #ffffff; stroke-width: 0.8"/>
      </g>
     </g>
     <g id="text_21">
      <text style="fill: #ffffff; font: 10px 'sans-serif'; text-anchor: end" x="153.128" y="58.999975" transform="rotate(-0, 153.128, 58.999975)">7.5</text>
     </g>
    </g>
   </g>
   <g id="patch_9">
    <path d="M 160.128 307.584 
L 160.128 41.472 
" style="fill: none; stroke: #ffffff; stroke-width: 0.8; stroke-linejoin: miter; stroke-linecap: square"/>
   </g>
   <g id="patch_10">
    <path d="M 312.192 307.584 
L 312.192 41.472 
" style="fill: none; stroke: #ffffff; stroke-width: 0.8; stroke-linejoin: miter; stroke-linecap: square"/>
   </g>
   <g id="patch_11">
    <path d="M 160.128 307.584 
L 312.192 307.584 
" style="fill: none; stroke: #ffffff; stroke-width: 0.8; stroke-linejoin: miter; stroke-linecap: square"/>
   </g>
   <g id="patch_12">
    <path d="M 160.128 41.472 
L 312.192 41.472 
" style="fill: none; stroke: #ffffff; stroke-width: 0.8; stroke-linejoin: miter; stroke-linecap: square"/>
   </g>
   <g id="text_22">
    <text style="fill: #ffffff; font: 12px 'sans-serif'; text-anchor: middle" x="236.16" y="35.472" transform="rotate(-0, 236.16, 35.472)">CON-6</text>
   </g>
  </g>
 </g>
 <defs>
  <clipPath id="pa7ca800f29">
   <rect x="160.128" y="41.472" width="152.064" height="266.112"/>
  </clipPath>
 </defs>
</svg>
