<?xml version="1.0" encoding="utf-8" standalone="no"?>
<!DOCTYPE svg PUBLIC "-//W3C//DTD SVG 1.1//EN"
  "http://www.w3.org/Graphics/SVG/1.1/DTD/svg11.dtd">
<svg xmlns:xlink="http://www.w3.org/1999/xlink" width="460.8pt" height="345.6pt" viewBox="0 0 460.8 345.6" xmlns="http://www.w3.org/2000/svg" version="1.1">
 <metadata>
  <rdf:RDF xmlns:dc="http://purl.org/dc/elements/1.1/" xmlns:cc="http://creativecommons.org/ns#" xmlns:rdf="http://www.w3.org/1999/02/22-rdf-syntax-ns#">
   <cc:Work>
    <dc:type rdf:resource="http://purl.org/dc/dcmitype/StillImage"/>
    <dc:date>2023-02-18T16:06:08.800309</dc:date>
    <dc:format>image/svg+xml</dc:format>
    <dc:creator>
     <cc:Agent>
      <dc:title>Matplotlib v3.5.1, https://matplotlib.org/</dc:title>
     </cc:Agent>
    </dc:creator>
   </cc:Work>
  </rdf:RDF>
 </metadata>
 <defs>
  <style type="text/css">*{stroke-linejoin: round; stroke-linecap: butt}</style>
 </defs>
 <g id="figure_1">
  <g id="patch_1">
   <path d="M 0 345.6 
L 460.8 345.6 
L 460.8 0 
L 0 0 
z
" style="fill: #2b2b2b"/>
  </g>
  <g id="axes_1">
   <g id="patch_2">
    <path d="M 99.196953 307.584 
L 373.123047 307.584 
L 373.123047 41.472 
L 99.196953 41.472 
z
" style="fill: #2b2b2b"/>
   </g>
   <g id="patch_3">
    <path d="M 165.967689 295.488 
C 166.024405 295.488 166.078805 295.465467 166.118909 295.425363 
C 166.159013 295.385259 166.181546 295.330859 166.181546 295.274144 
C 166.181546 295.217428 166.159013 295.163028 166.118909 295.122924 
C 166.078805 295.08282 166.024405 295.060287 165.967689 295.060287 
C 165.910974 295.060287 165.856574 295.08282 165.81647 295.122924 
C 165.776366 295.163028 165.753833 295.217428 165.753833 295.274144 
C 165.753833 295.330859 165.776366 295.385259 165.81647 295.425363 
C 165.856574 295.465467 165.910974 295.488 165.967689 295.488 
L 165.967689 295.488 
z
" clip-path="url(#p488627de28)" style="fill: none; stroke: #808080; stroke-width: 2.138565; stroke-linejoin: miter"/>
   </g>
   <g id="line2d_1">
    <path d="M 165.716954 275.796102 
L 179.797336 281.694632 
L 179.797336 281.694632 
L 165.716296 287.593484 
L 165.716296 287.593484 
" clip-path="url(#p488627de28)" style="fill: none; stroke: #808080; stroke-width: 1.086391; stroke-linecap: round"/>
   </g>
   <g id="line2d_2">
    <path d="M 182.107173 271.227848 
L 189.14856 292.161713 
L 189.14856 292.161713 
L 195.998843 271.227309 
L 195.998843 271.227309 
" clip-path="url(#p488627de28)" style="fill: none; stroke: #808080; stroke-width: 1.086391; stroke-linecap: round"/>
   </g>
   <g id="line2d_3">
    <path d="M 198.402829 291.780067 
L 205.444216 270.846202 
L 205.444216 270.846202 
L 212.294499 291.780606 
L 212.294499 291.780606 
" clip-path="url(#p488627de28)" style="fill: none; stroke: #808080; stroke-width: 1.086391; stroke-linecap: round"/>
   </g>
   <g id="line2d_4">
    <path d="M 210.583446 286.642864 
L 200.116876 286.642864 
" clip-path="url(#p488627de28)" style="fill: none; stroke: #808080; stroke-width: 1.086391; stroke-linecap: round"/>
   </g>
   <g id="line2d_5">
    <path d="M 216.982258 271.227958 
L 216.982258 292.161099 
L 226.30702 292.161099 
" clip-path="url(#p488627de28)" style="fill: none; stroke: #808080; stroke-width: 1.086391; stroke-linecap: round"/>
   </g>
   <g id="line2d_6">
    <path d="M 232.136718 271.228843 
L 232.136718 286.262644 
L 232.136718 286.262644 
L 232.51732 288.165657 
L 232.51732 288.165657 
L 233.278525 289.688067 
L 234.610634 291.020176 
L 236.133045 291.971682 
L 238.036057 292.161983 
L 239.748769 291.971682 
L 241.46148 291.020176 
L 242.793589 289.688067 
L 243.554794 288.165657 
L 243.745095 286.262644 
L 243.745095 271.228843 
" clip-path="url(#p488627de28)" style="fill: none; stroke: #808080; stroke-width: 1.086391; stroke-linecap: round"/>
   </g>
   <g id="line2d_7">
    <path d="M 258.899151 292.161199 
L 249.574389 292.161199 
L 249.574389 271.228059 
L 258.899151 271.228059 
" clip-path="url(#p488627de28)" style="fill: none; stroke: #808080; stroke-width: 1.086391; stroke-linecap: round"/>
   </g>
   <g id="line2d_8">
    <path d="M 249.574766 280.553315 
L 256.615914 280.553315 
" clip-path="url(#p488627de28)" style="fill: none; stroke: #808080; stroke-width: 1.086391; stroke-linecap: round"/>
   </g>
   <g id="patch_4">
    <path d="M 165.967689 78.209798 
C 166.024405 78.209798 166.078805 78.187265 166.118909 78.147161 
C 166.159013 78.107057 166.181546 78.052657 166.181546 77.995942 
C 166.181546 77.939226 166.159013 77.884826 166.118909 77.844722 
C 166.078805 77.804618 166.024405 77.782085 165.967689 77.782085 
C 165.910974 77.782085 165.856574 77.804618 165.81647 77.844722 
C 165.776366 77.884826 165.753833 77.939226 165.753833 77.995942 
C 165.753833 78.052657 165.776366 78.107057 165.81647 78.147161 
C 165.856574 78.187265 165.910974 78.209798 165.967689 78.209798 
L 165.967689 78.209798 
z
" clip-path="url(#p488627de28)" style="fill: none; stroke: #808080; stroke-width: 2.138565; stroke-linejoin: miter"/>
   </g>
   <g id="line2d_9">
    <path d="M 165.716954 58.5179 
L 179.797336 64.41643 
L 179.797336 64.41643 
L 165.716296 70.315282 
L 165.716296 70.315282 
" clip-path="url(#p488627de28)" style="fill: none; stroke: #808080; stroke-width: 1.086391; stroke-linecap: round"/>
   </g>
   <g id="line2d_10">
    <path d="M 183.250332 74.882262 
L 183.250332 53.949121 
L 194.85871 74.882262 
L 194.85871 53.949121 
" clip-path="url(#p488627de28)" style="fill: none; stroke: #808080; stroke-width: 1.086391; stroke-linecap: round"/>
   </g>
   <g id="line2d_11">
    <path d="M 198.402829 74.501865 
L 205.444216 53.568 
L 205.444216 53.568 
L 212.294499 74.502404 
L 212.294499 74.502404 
" clip-path="url(#p488627de28)" style="fill: none; stroke: #808080; stroke-width: 1.086391; stroke-linecap: round"/>
   </g>
   <g id="line2d_12">
    <path d="M 210.583446 69.364662 
L 200.116876 69.364662 
" clip-path="url(#p488627de28)" style="fill: none; stroke: #808080; stroke-width: 1.086391; stroke-linecap: round"/>
   </g>
   <g id="line2d_13">
    <path d="M 214.700069 74.88288 
L 214.700069 53.949739 
L 221.550915 65.558117 
L 221.550915 65.558117 
L 228.592062 53.949739 
L 228.592062 53.949739 
L 228.592062 74.88288 
" clip-path="url(#p488627de28)" style="fill: none; stroke: #808080; stroke-width: 1.086391; stroke-linecap: round"/>
   </g>
   <g id="line2d_14">
    <path d="M 242.603286 74.882997 
L 233.278524 74.882997 
L 233.278524 53.949857 
L 242.603286 53.949857 
" clip-path="url(#p488627de28)" style="fill: none; stroke: #808080; stroke-width: 1.086391; stroke-linecap: round"/>
   </g>
   <g id="line2d_15">
    <path d="M 233.278901 63.275113 
L 240.320048 63.275113 
" clip-path="url(#p488627de28)" style="fill: none; stroke: #808080; stroke-width: 1.086391; stroke-linecap: round"/>
   </g>
   <g id="line2d_16">
    <path d="M 111.648139 148.611357 
L 220.28724 148.611357 
" clip-path="url(#p488627de28)" style="fill: none; stroke: #c90d15; stroke-width: 2.138565; stroke-linecap: square"/>
   </g>
   <g id="line2d_17">
    <path d="M 342.09071 139.319929 
L 351.379915 132.128288 
L 351.379915 132.128288 
L 351.379761 165.094108 
L 351.379761 165.094108 
" clip-path="url(#p488627de28)" style="fill: none; stroke: #ffffff; stroke-width: 1.710852; stroke-linecap: round"/>
   </g>
   <g id="line2d_18">
    <path d="M 342.091264 165.093419 
L 360.671861 165.093419 
" clip-path="url(#p488627de28)" style="fill: none; stroke: #ffffff; stroke-width: 1.710852; stroke-linecap: round"/>
   </g>
   <g id="line2d_19">
    <path d="M 111.648139 202.930908 
L 220.28724 202.930908 
" clip-path="url(#p488627de28)" style="fill: none; stroke: #c90d15; stroke-width: 2.138565; stroke-linecap: square"/>
   </g>
   <g id="line2d_20">
    <path d="M 360.521922 219.413648 
L 342.241013 219.413648 
L 342.241013 219.413648 
L 357.824739 201.132738 
L 357.824739 201.132738 
L 357.824739 201.132738 
L 359.323174 199.334616 
L 359.323174 199.334616 
L 360.222235 196.93712 
L 360.521922 194.539623 
L 360.222235 192.142127 
L 359.023487 189.744631 
L 357.225365 187.946508 
L 354.827869 186.74776 
L 352.430372 186.448073 
L 349.133815 186.74776 
L 346.136944 188.246195 
L 343.739448 190.643692 
L 342.241013 193.640562 
" clip-path="url(#p488627de28)" style="fill: none; stroke: #ffffff; stroke-width: 1.710852; stroke-linecap: round"/>
   </g>
   <g id="patch_5">
    <path d="M 220.28724 168.196536 
C 225.48129 168.196536 230.463304 166.132918 234.136052 162.46017 
C 237.8088 158.787422 239.872418 153.805407 239.872418 148.611357 
C 239.872418 143.417307 237.8088 138.435293 234.136052 134.762545 
C 230.463304 131.089797 225.48129 129.026179 220.28724 129.026179 
C 215.09319 129.026179 210.111175 131.089797 206.438427 134.762545 
C 202.765679 138.435293 200.702061 143.417307 200.702061 148.611357 
C 200.702061 153.805407 202.765679 158.787422 206.438427 162.46017 
C 210.111175 166.132918 215.09319 168.196536 220.28724 168.196536 
L 220.28724 168.196536 
z
" clip-path="url(#p488627de28)" style="fill: none; stroke: #c90d15; stroke-width: 5.431955; stroke-linejoin: miter"/>
   </g>
   <g id="patch_6">
    <path d="M 220.28724 222.516086 
C 225.48129 222.516086 230.463304 220.452468 234.136052 216.77972 
C 237.8088 213.106972 239.872418 208.124958 239.872418 202.930908 
C 239.872418 197.736858 237.8088 192.754843 234.136052 189.082095 
C 230.463304 185.409347 225.48129 183.345729 220.28724 183.345729 
C 215.09319 183.345729 210.111175 185.409347 206.438427 189.082095 
C 202.765679 192.754843 200.702061 197.736858 200.702061 202.930908 
C 200.702061 208.124958 202.765679 213.106972 206.438427 216.77972 
C 210.111175 220.452468 215.09319 222.516086 220.28724 222.516086 
L 220.28724 222.516086 
z
" clip-path="url(#p488627de28)" style="fill: none; stroke: #c90d15; stroke-width: 5.431955; stroke-linejoin: miter"/>
   </g>
   <g id="line2d_21">
    <path d="M 165.967689 94.291807 
L 328.926341 94.291807 
" clip-path="url(#p488627de28)" style="fill: none; stroke: #c90d15; stroke-width: 5.431955; stroke-linecap: round"/>
   </g>
   <g id="line2d_22">
    <path d="M 328.926341 94.291807 
L 328.926341 257.250458 
" clip-path="url(#p488627de28)" style="fill: none; stroke: #c90d15; stroke-width: 5.431955; stroke-linecap: round"/>
   </g>
   <g id="line2d_23">
    <path d="M 328.926341 257.250458 
L 165.967689 257.250458 
" clip-path="url(#p488627de28)" style="fill: none; stroke: #c90d15; stroke-width: 5.431955; stroke-linecap: round"/>
   </g>
   <g id="line2d_24">
    <path d="M 165.967689 257.250458 
L 165.967689 94.291807 
" clip-path="url(#p488627de28)" style="fill: none; stroke: #c90d15; stroke-width: 5.431955; stroke-linecap: round"/>
   </g>
   <g id="matplotlib.axis_1">
    <g id="xtick_1">
     <g id="line2d_25">
      <defs>
       <path id="m7da4c84850" d="M 0 0 
L 0 3.5 
" style="stroke: #ffffff; stroke-width: 0.8"/>
      </defs>
      <g>
       <use xlink:href="#m7da4c84850" x="103.521592" y="307.584" style="fill: #ffffff; stroke: #ffffff; stroke-width: 0.8"/>
      </g>
     </g>
     <g id="text_1">
      <text style="fill: #ffffff; font: 10px 'sans-serif'; text-anchor: middle" x="103.521592" y="322.182437" transform="rotate(-0, 103.521592, 322.182437)">−8</text>
     </g>
    </g>
    <g id="xtick_2">
     <g id="line2d_26">
      <g>
       <use xlink:href="#m7da4c84850" x="146.292892" y="307.584" style="fill: #ffffff; stroke: #ffffff; stroke-width: 0.8"/>
      </g>
     </g>
     <g id="text_2">
      <text style="fill: #ffffff; font: 10px 'sans-serif'; text-anchor: middle" x="146.292892" y="322.182437" transform="rotate(-0, 146.292892, 322.182437)">−6</text>
     </g>
    </g>
    <g id="xtick_3">
     <g id="line2d_27">
      <g>
       <use xlink:href="#m7da4c84850" x="189.064191" y="307.584" style="fill: #ffffff; stroke: #ffffff; stroke-width: 0.8"/>
      </g>
     </g>
     <g id="text_3">
      <text style="fill: #ffffff; font: 10px 'sans-serif'; text-anchor: middle" x="189.064191" y="322.182437" transform="rotate(-0, 189.064191, 322.182437)">−4</text>
     </g>
    </g>
    <g id="xtick_4">
     <g id="line2d_28">
      <g>
       <use xlink:href="#m7da4c84850" x="231.835491" y="307.584" style="fill: #ffffff; stroke: #ffffff; stroke-width: 0.8"/>
      </g>
     </g>
     <g id="text_4">
      <text style="fill: #ffffff; font: 10px 'sans-serif'; text-anchor: middle" x="231.835491" y="322.182437" transform="rotate(-0, 231.835491, 322.182437)">−2</text>
     </g>
    </g>
    <g id="xtick_5">
     <g id="line2d_29">
      <g>
       <use xlink:href="#m7da4c84850" x="274.60679" y="307.584" style="fill: #ffffff; stroke: #ffffff; stroke-width: 0.8"/>
      </g>
     </g>
     <g id="text_5">
      <text style="fill: #ffffff; font: 10px 'sans-serif'; text-anchor: middle" x="274.60679" y="322.182437" transform="rotate(-0, 274.60679, 322.182437)">0</text>
     </g>
    </g>
    <g id="xtick_6">
     <g id="line2d_30">
      <g>
       <use xlink:href="#m7da4c84850" x="317.37809" y="307.584" style="fill: #ffffff; stroke: #ffffff; stroke-width: 0.8"/>
      </g>
     </g>
     <g id="text_6">
      <text style="fill: #ffffff; font: 10px 'sans-serif'; text-anchor: middle" x="317.37809" y="322.182437" transform="rotate(-0, 317.37809, 322.182437)">2</text>
     </g>
    </g>
    <g id="xtick_7">
     <g id="line2d_31">
      <g>
       <use xlink:href="#m7da4c84850" x="360.14939" y="307.584" style="fill: #ffffff; stroke: #ffffff; stroke-width: 0.8"/>
      </g>
     </g>
     <g id="text_7">
      <text style="fill: #ffffff; font: 10px 'sans-serif'; text-anchor: middle" x="360.14939" y="322.182437" transform="rotate(-0, 360.14939, 322.182437)">4</text>
     </g>
    </g>
   </g>
   <g id="matplotlib.axis_2">
    <g id="ytick_1">
     <g id="line2d_32">
      <defs>
       <path id="m1206617609" d="M 0 0 
L -3.5 0 
" style="stroke: #ffffff; stroke-width: 0.8"/>
      </defs>
      <g>
       <use xlink:href="#m1206617609" x="99.196953" y="288.473507" style="fill: #ffffff; stroke: #ffffff; stroke-width: 0.8"/>
      </g>
     </g>
     <g id="text_8">
      <text style="fill: #ffffff; font: 10px 'sans-serif'; text-anchor: end" x="92.196953" y="292.272726" transform="rotate(-0, 92.196953, 292.272726)">−4</text>
     </g>
    </g>
    <g id="ytick_2">
     <g id="line2d_33">
      <g>
       <use xlink:href="#m1206617609" x="99.196953" y="245.702207" style="fill: #ffffff; stroke: #ffffff; stroke-width: 0.8"/>
      </g>
     </g>
     <g id="text_9">
      <text style="fill: #ffffff; font: 10px 'sans-serif'; text-anchor: end" x="92.196953" y="249.501426" transform="rotate(-0, 92.196953, 249.501426)">−2</text>
     </g>
    </g>
    <g id="ytick_3">
     <g id="line2d_34">
      <g>
       <use xlink:href="#m1206617609" x="99.196953" y="202.930908" style="fill: #ffffff; stroke: #ffffff; stroke-width: 0.8"/>
      </g>
     </g>
     <g id="text_10">
      <text style="fill: #ffffff; font: 10px 'sans-serif'; text-anchor: end" x="92.196953" y="206.730126" transform="rotate(-0, 92.196953, 206.730126)">0</text>
     </g>
    </g>
    <g id="ytick_4">
     <g id="line2d_35">
      <g>
       <use xlink:href="#m1206617609" x="99.196953" y="160.159608" style="fill: #ffffff; stroke: #ffffff; stroke-width: 0.8"/>
      </g>
     </g>
     <g id="text_11">
      <text style="fill: #ffffff; font: 10px 'sans-serif'; text-anchor: end" x="92.196953" y="163.958827" transform="rotate(-0, 92.196953, 163.958827)">2</text>
     </g>
    </g>
    <g id="ytick_5">
     <g id="line2d_36">
      <g>
       <use xlink:href="#m1206617609" x="99.196953" y="117.388308" style="fill: #ffffff; stroke: #ffffff; stroke-width: 0.8"/>
      </g>
     </g>
     <g id="text_12">
      <text style="fill: #ffffff; font: 10px 'sans-serif'; text-anchor: end" x="92.196953" y="121.187527" transform="rotate(-0, 92.196953, 121.187527)">4</text>
     </g>
    </g>
    <g id="ytick_6">
     <g id="line2d_37">
      <g>
       <use xlink:href="#m1206617609" x="99.196953" y="74.617009" style="fill: #ffffff; stroke: #ffffff; stroke-width: 0.8"/>
      </g>
     </g>
     <g id="text_13">
      <text style="fill: #ffffff; font: 10px 'sans-serif'; text-anchor: end" x="92.196953" y="78.416228" transform="rotate(-0, 92.196953, 78.416228)">6</text>
     </g>
    </g>
   </g>
   <g id="patch_7">
    <path d="M 99.196953 307.584 
L 99.196953 41.472 
" style="fill: none; stroke: #ffffff; stroke-width: 0.8; stroke-linejoin: miter; stroke-linecap: square"/>
   </g>
   <g id="patch_8">
    <path d="M 373.123047 307.584 
L 373.123047 41.472 
" style="fill: none; stroke: #ffffff; stroke-width: 0.8; stroke-linejoin: miter; stroke-linecap: square"/>
   </g>
   <g id="patch_9">
    <path d="M 99.196953 307.584 
L 373.123047 307.584 
" style="fill: none; stroke: #ffffff; stroke-width: 0.8; stroke-linejoin: miter; stroke-linecap: square"/>
   </g>
   <g id="patch_10">
    <path d="M 99.196953 41.472 
L 373.123047 41.472 
" style="fill: none; stroke: #ffffff; stroke-width: 0.8; stroke-linejoin: miter; stroke-linecap: square"/>
   </g>
   <g id="text_14">
    <text style="fill: #ffffff; font: 12px 'sans-serif'; text-anchor: middle" x="236.16" y="35.472" transform="rotate(-0, 236.16, 35.472)">CON-2</text>
   </g>
  </g>
 </g>
 <defs>
  <clipPath id="p488627de28">
   <rect x="99.196953" y="41.472" width="273.926094" height="266.112"/>
  </clipPath>
 </defs>
</svg>
